<?xml version="1.0" encoding="utf-8" standalone="no"?>
<!DOCTYPE svg PUBLIC "-//W3C//DTD SVG 1.1//EN"
  "http://www.w3.org/Graphics/SVG/1.1/DTD/svg11.dtd">
<svg xmlns:xlink="http://www.w3.org/1999/xlink" width="419.904pt" height="349.632pt" viewBox="0 0 419.904 349.632" xmlns="http://www.w3.org/2000/svg" version="1.1">
 <metadata>
  <rdf:RDF xmlns:dc="http://purl.org/dc/elements/1.1/" xmlns:cc="http://creativecommons.org/ns#" xmlns:rdf="http://www.w3.org/1999/02/22-rdf-syntax-ns#">
   <cc:Work>
    <dc:type rdf:resource="http://purl.org/dc/dcmitype/StillImage"/>
    <dc:date>2024-07-24T16:31:49.132274</dc:date>
    <dc:format>image/svg+xml</dc:format>
    <dc:creator>
     <cc:Agent>
      <dc:title>Matplotlib v3.7.2, https://matplotlib.org/</dc:title>
     </cc:Agent>
    </dc:creator>
   </cc:Work>
  </rdf:RDF>
 </metadata>
 <defs>
  <style type="text/css">*{stroke-linejoin: round; stroke-linecap: butt}</style>
 </defs>
 <g id="figure_1">
  <g id="patch_1">
   <path d="M 0 349.632 
L 419.904 349.632 
L 419.904 -0 
L 0 -0 
z
" style="fill: #ffffff"/>
  </g>
  <g id="axes_1">
   <g id="patch_2">
    <path d="M 55.584 152.64 
L 217.911273 152.64 
L 217.911273 41.76 
L 55.584 41.76 
z
" style="fill: #ffffff"/>
   </g>
   <g id="matplotlib.axis_1">
    <g id="xtick_1">
     <g id="line2d_1">
      <defs>
       <path id="ma93512789c" d="M 0 0 
L 0 3.5 
" style="stroke: #000000; stroke-width: 0.8"/>
      </defs>
      <g>
       <use xlink:href="#ma93512789c" x="62.962512" y="152.64" style="stroke: #000000; stroke-width: 0.8"/>
      </g>
     </g>
     <g id="text_1">
      <!-- 0 -->
      <g transform="translate(59.781262 167.238437) scale(0.1 -0.1)">
       <defs>
        <path id="DejaVuSans-30" d="M 2034 4250 
Q 1547 4250 1301 3770 
Q 1056 3291 1056 2328 
Q 1056 1369 1301 889 
Q 1547 409 2034 409 
Q 2525 409 2770 889 
Q 3016 1369 3016 2328 
Q 3016 3291 2770 3770 
Q 2525 4250 2034 4250 
z
M 2034 4750 
Q 2819 4750 3233 4129 
Q 3647 3509 3647 2328 
Q 3647 1150 3233 529 
Q 2819 -91 2034 -91 
Q 1250 -91 836 529 
Q 422 1150 422 2328 
Q 422 3509 836 4129 
Q 1250 4750 2034 4750 
z
" transform="scale(0.015625)"/>
       </defs>
       <use xlink:href="#DejaVuSans-30"/>
      </g>
     </g>
    </g>
    <g id="xtick_2">
     <g id="line2d_2">
      <g>
       <use xlink:href="#ma93512789c" x="99.17607" y="152.64" style="stroke: #000000; stroke-width: 0.8"/>
      </g>
     </g>
     <g id="text_2">
      <!-- 200 -->
      <g transform="translate(89.63232 167.238437) scale(0.1 -0.1)">
       <defs>
        <path id="DejaVuSans-32" d="M 1228 531 
L 3431 531 
L 3431 0 
L 469 0 
L 469 531 
Q 828 903 1448 1529 
Q 2069 2156 2228 2338 
Q 2531 2678 2651 2914 
Q 2772 3150 2772 3378 
Q 2772 3750 2511 3984 
Q 2250 4219 1831 4219 
Q 1534 4219 1204 4116 
Q 875 4013 500 3803 
L 500 4441 
Q 881 4594 1212 4672 
Q 1544 4750 1819 4750 
Q 2544 4750 2975 4387 
Q 3406 4025 3406 3419 
Q 3406 3131 3298 2873 
Q 3191 2616 2906 2266 
Q 2828 2175 2409 1742 
Q 1991 1309 1228 531 
z
" transform="scale(0.015625)"/>
       </defs>
       <use xlink:href="#DejaVuSans-32"/>
       <use xlink:href="#DejaVuSans-30" x="63.623047"/>
       <use xlink:href="#DejaVuSans-30" x="127.246094"/>
      </g>
     </g>
    </g>
    <g id="xtick_3">
     <g id="line2d_3">
      <g>
       <use xlink:href="#ma93512789c" x="135.389628" y="152.64" style="stroke: #000000; stroke-width: 0.8"/>
      </g>
     </g>
     <g id="text_3">
      <!-- 400 -->
      <g transform="translate(125.845878 167.238437) scale(0.1 -0.1)">
       <defs>
        <path id="DejaVuSans-34" d="M 2419 4116 
L 825 1625 
L 2419 1625 
L 2419 4116 
z
M 2253 4666 
L 3047 4666 
L 3047 1625 
L 3713 1625 
L 3713 1100 
L 3047 1100 
L 3047 0 
L 2419 0 
L 2419 1100 
L 313 1100 
L 313 1709 
L 2253 4666 
z
" transform="scale(0.015625)"/>
       </defs>
       <use xlink:href="#DejaVuSans-34"/>
       <use xlink:href="#DejaVuSans-30" x="63.623047"/>
       <use xlink:href="#DejaVuSans-30" x="127.246094"/>
      </g>
     </g>
    </g>
    <g id="xtick_4">
     <g id="line2d_4">
      <g>
       <use xlink:href="#ma93512789c" x="171.603186" y="152.64" style="stroke: #000000; stroke-width: 0.8"/>
      </g>
     </g>
     <g id="text_4">
      <!-- 600 -->
      <g transform="translate(162.059436 167.238437) scale(0.1 -0.1)">
       <defs>
        <path id="DejaVuSans-36" d="M 2113 2584 
Q 1688 2584 1439 2293 
Q 1191 2003 1191 1497 
Q 1191 994 1439 701 
Q 1688 409 2113 409 
Q 2538 409 2786 701 
Q 3034 994 3034 1497 
Q 3034 2003 2786 2293 
Q 2538 2584 2113 2584 
z
M 3366 4563 
L 3366 3988 
Q 3128 4100 2886 4159 
Q 2644 4219 2406 4219 
Q 1781 4219 1451 3797 
Q 1122 3375 1075 2522 
Q 1259 2794 1537 2939 
Q 1816 3084 2150 3084 
Q 2853 3084 3261 2657 
Q 3669 2231 3669 1497 
Q 3669 778 3244 343 
Q 2819 -91 2113 -91 
Q 1303 -91 875 529 
Q 447 1150 447 2328 
Q 447 3434 972 4092 
Q 1497 4750 2381 4750 
Q 2619 4750 2861 4703 
Q 3103 4656 3366 4563 
z
" transform="scale(0.015625)"/>
       </defs>
       <use xlink:href="#DejaVuSans-36"/>
       <use xlink:href="#DejaVuSans-30" x="63.623047"/>
       <use xlink:href="#DejaVuSans-30" x="127.246094"/>
      </g>
     </g>
    </g>
    <g id="xtick_5">
     <g id="line2d_5">
      <g>
       <use xlink:href="#ma93512789c" x="207.816743" y="152.64" style="stroke: #000000; stroke-width: 0.8"/>
      </g>
     </g>
     <g id="text_5">
      <!-- 800 -->
      <g transform="translate(198.272993 167.238437) scale(0.1 -0.1)">
       <defs>
        <path id="DejaVuSans-38" d="M 2034 2216 
Q 1584 2216 1326 1975 
Q 1069 1734 1069 1313 
Q 1069 891 1326 650 
Q 1584 409 2034 409 
Q 2484 409 2743 651 
Q 3003 894 3003 1313 
Q 3003 1734 2745 1975 
Q 2488 2216 2034 2216 
z
M 1403 2484 
Q 997 2584 770 2862 
Q 544 3141 544 3541 
Q 544 4100 942 4425 
Q 1341 4750 2034 4750 
Q 2731 4750 3128 4425 
Q 3525 4100 3525 3541 
Q 3525 3141 3298 2862 
Q 3072 2584 2669 2484 
Q 3125 2378 3379 2068 
Q 3634 1759 3634 1313 
Q 3634 634 3220 271 
Q 2806 -91 2034 -91 
Q 1263 -91 848 271 
Q 434 634 434 1313 
Q 434 1759 690 2068 
Q 947 2378 1403 2484 
z
M 1172 3481 
Q 1172 3119 1398 2916 
Q 1625 2713 2034 2713 
Q 2441 2713 2670 2916 
Q 2900 3119 2900 3481 
Q 2900 3844 2670 4047 
Q 2441 4250 2034 4250 
Q 1625 4250 1398 4047 
Q 1172 3844 1172 3481 
z
" transform="scale(0.015625)"/>
       </defs>
       <use xlink:href="#DejaVuSans-38"/>
       <use xlink:href="#DejaVuSans-30" x="63.623047"/>
       <use xlink:href="#DejaVuSans-30" x="127.246094"/>
      </g>
     </g>
    </g>
   </g>
   <g id="matplotlib.axis_2">
    <g id="ytick_1">
     <g id="line2d_6">
      <defs>
       <path id="m0935fe9a10" d="M 0 0 
L -3.5 0 
" style="stroke: #000000; stroke-width: 0.8"/>
      </defs>
      <g>
       <use xlink:href="#m0935fe9a10" x="55.584" y="147.6" style="stroke: #000000; stroke-width: 0.8"/>
      </g>
     </g>
     <g id="text_6">
      <!-- 0 -->
      <g transform="translate(42.2215 151.399219) scale(0.1 -0.1)">
       <use xlink:href="#DejaVuSans-30"/>
      </g>
     </g>
    </g>
    <g id="ytick_2">
     <g id="line2d_7">
      <g>
       <use xlink:href="#m0935fe9a10" x="55.584" y="106.059776" style="stroke: #000000; stroke-width: 0.8"/>
      </g>
     </g>
     <g id="text_7">
      <!-- 20 -->
      <g transform="translate(35.859 109.858995) scale(0.1 -0.1)">
       <use xlink:href="#DejaVuSans-32"/>
       <use xlink:href="#DejaVuSans-30" x="63.623047"/>
      </g>
     </g>
    </g>
    <g id="ytick_3">
     <g id="line2d_8">
      <g>
       <use xlink:href="#m0935fe9a10" x="55.584" y="64.519552" style="stroke: #000000; stroke-width: 0.8"/>
      </g>
     </g>
     <g id="text_8">
      <!-- 40 -->
      <g transform="translate(35.859 68.31877) scale(0.1 -0.1)">
       <use xlink:href="#DejaVuSans-34"/>
       <use xlink:href="#DejaVuSans-30" x="63.623047"/>
      </g>
     </g>
    </g>
   </g>
   <g id="line2d_9">
    <path d="M 62.962512 46.8 
L 63.14358 51.29032 
L 63.505716 74.716561 
L 63.686784 92.733146 
L 63.867851 96.831885 
L 64.048919 95.861701 
L 64.229987 93.739984 
L 64.411055 96.345846 
L 64.592122 91.38927 
L 65.135326 104.451748 
L 65.497461 101.425717 
L 65.678529 105.752187 
L 65.859597 104.436841 
L 66.040665 106.663555 
L 66.221733 105.376416 
L 66.4028 106.451083 
L 66.583868 102.016203 
L 66.764936 104.341799 
L 67.127072 95.947564 
L 67.670275 88.415541 
L 67.851343 95.125701 
L 68.03241 87.116757 
L 68.213478 86.989199 
L 68.575614 97.57838 
L 68.756682 95.287293 
L 68.937749 90.877628 
L 69.118817 90.180458 
L 69.299885 96.134614 
L 69.480953 98.420061 
L 69.662021 105.137238 
L 69.843088 103.90152 
L 70.024156 96.389006 
L 70.386292 98.010365 
L 70.748427 95.106728 
L 70.929495 90.546448 
L 71.110563 97.146139 
L 71.291631 99.588499 
L 71.653766 93.613436 
L 71.834834 99.244757 
L 72.015902 100.27018 
L 72.378037 105.247154 
L 72.559105 110.047222 
L 72.740173 110.159322 
L 72.921241 109.558362 
L 73.102309 111.132602 
L 73.283376 110.283621 
L 73.464444 108.28105 
L 73.645512 108.914948 
L 73.82658 104.796178 
L 74.007648 107.700768 
L 74.188715 103.163585 
L 74.369783 95.372828 
L 74.550851 95.519222 
L 74.731919 99.553349 
L 74.912986 98.493783 
L 75.094054 99.191762 
L 75.275122 104.000293 
L 75.45619 100.245021 
L 75.637258 99.519801 
L 75.818325 100.168539 
L 75.999393 98.762363 
L 76.180461 99.374417 
L 76.361529 94.480243 
L 76.723664 91.87817 
L 77.266868 114.738326 
L 77.447936 115.736571 
L 77.629003 117.848881 
L 77.810071 114.954824 
L 77.991139 116.636413 
L 78.353274 114.37218 
L 78.71541 119.263093 
L 78.896478 118.885551 
L 79.077546 117.038994 
L 79.258613 116.58342 
L 79.439681 117.483909 
L 79.801817 121.244404 
L 79.982885 118.443735 
L 80.163952 125.017926 
L 80.34502 126.088814 
L 80.526088 130.766626 
L 81.250359 118.348845 
L 81.612495 123.095557 
L 81.793562 119.889952 
L 82.155698 124.18918 
L 82.517834 116.603661 
L 82.698901 122.285495 
L 82.879969 119.054777 
L 83.061037 122.902187 
L 83.242105 122.503316 
L 83.423173 121.258141 
L 83.60424 113.411446 
L 83.785308 115.370016 
L 83.966376 115.658804 
L 84.147444 115.117075 
L 84.328511 116.47778 
L 84.509579 119.143844 
L 84.690647 117.588357 
L 84.871715 117.646971 
L 85.23385 122.574277 
L 85.414918 118.832751 
L 85.595986 119.459443 
L 85.958122 115.259953 
L 86.320257 118.216805 
L 86.501325 116.614515 
L 86.863461 103.44701 
L 87.044528 111.59209 
L 87.225596 108.773528 
L 87.406664 113.125643 
L 87.768799 115.096634 
L 87.949867 114.572581 
L 88.130935 115.439542 
L 88.312003 106.230033 
L 88.674138 118.744316 
L 88.855206 118.579341 
L 89.036274 114.447752 
L 89.217342 115.508418 
L 89.39841 114.38322 
L 89.579477 115.861817 
L 89.760545 112.148975 
L 89.941613 112.453595 
L 90.122681 107.926294 
L 90.484816 106.904112 
L 90.665884 108.205756 
L 90.846952 106.914985 
L 91.02802 109.492172 
L 91.209087 109.157318 
L 91.390155 111.843731 
L 91.571223 108.965326 
L 91.752291 108.345689 
L 91.933359 107.035448 
L 92.114426 104.876895 
L 92.295494 107.381982 
L 92.476562 105.854168 
L 92.65763 102.934468 
L 92.838698 102.290676 
L 93.019765 103.733345 
L 93.200833 104.23092 
L 93.381901 102.321019 
L 93.925104 110.396413 
L 94.106172 109.510622 
L 94.28724 103.09311 
L 94.468308 103.659575 
L 94.649375 107.426721 
L 95.192579 110.754301 
L 95.373647 110.364942 
L 95.554714 110.567763 
L 95.735782 112.778577 
L 95.91685 119.536494 
L 96.097918 120.231676 
L 96.278986 123.854565 
L 96.460053 120.164568 
L 96.641121 120.542287 
L 96.822189 118.150864 
L 97.184324 124.692542 
L 97.365392 125.577284 
L 97.54646 129.139207 
L 97.727528 126.642166 
L 97.908596 128.676216 
L 98.089663 126.286496 
L 98.270731 125.677618 
L 98.451799 125.686911 
L 98.632867 126.238802 
L 98.813935 122.586018 
L 99.357138 126.715573 
L 99.538206 126.210916 
L 99.719274 126.504551 
L 99.900341 125.26147 
L 100.081409 126.094364 
L 100.262477 125.259474 
L 100.624612 117.75592 
L 100.80568 118.540873 
L 101.167816 123.162746 
L 101.348884 121.647525 
L 101.529951 121.609956 
L 101.711019 118.682598 
L 101.892087 123.372491 
L 102.073155 123.755834 
L 102.254223 126.984339 
L 102.43529 127.158218 
L 102.616358 122.60699 
L 102.797426 124.647749 
L 102.978494 124.305135 
L 103.159562 128.141086 
L 103.340629 125.69245 
L 103.521697 125.335433 
L 104.0649 131.44239 
L 104.245968 129.558763 
L 104.427036 129.629028 
L 104.608104 131.154763 
L 104.789172 133.649605 
L 104.970239 132.062862 
L 105.151307 133.167792 
L 105.694511 125.959128 
L 105.875578 127.015587 
L 106.056646 121.754613 
L 106.237714 125.706399 
L 106.418782 123.97519 
L 106.59985 123.785293 
L 106.780917 124.234615 
L 106.961985 123.702322 
L 107.143053 120.261161 
L 107.324121 119.663001 
L 107.505188 119.988049 
L 107.686256 119.263182 
L 107.867324 117.649619 
L 108.048392 118.340618 
L 108.22946 117.547384 
L 108.410527 112.170983 
L 108.591595 110.660522 
L 108.772663 114.33614 
L 108.953731 127.744577 
L 109.134799 127.989305 
L 109.315866 132.846437 
L 109.496934 134.094181 
L 109.85907 116.336856 
L 110.040138 114.481444 
L 110.583341 122.802677 
L 110.764409 119.931064 
L 110.945476 120.492704 
L 111.126544 117.704554 
L 111.307612 118.848788 
L 111.48868 115.839475 
L 111.850815 127.297859 
L 112.031883 127.315269 
L 112.212951 124.996122 
L 112.394019 125.693939 
L 112.575087 123.287016 
L 112.756154 123.317728 
L 112.937222 122.274101 
L 113.11829 119.836971 
L 113.299358 121.283007 
L 113.480425 121.345216 
L 113.842561 123.045073 
L 114.204697 127.591569 
L 114.385764 127.066052 
L 114.7479 123.739923 
L 114.928968 123.549938 
L 115.110036 123.901402 
L 115.291103 117.625372 
L 115.472171 104.743075 
L 115.653239 105.713636 
L 116.196442 118.934489 
L 116.37751 108.853485 
L 116.558578 113.038068 
L 116.739646 104.919358 
L 117.101781 101.331279 
L 117.282849 100.816889 
L 117.463917 104.242634 
L 117.644985 105.381704 
L 118.00712 112.085543 
L 118.188188 119.93521 
L 118.369256 118.243613 
L 118.550324 118.246627 
L 118.731391 121.308374 
L 118.912459 119.896768 
L 119.093527 114.927683 
L 119.274595 118.518175 
L 119.455663 128.148424 
L 119.63673 121.970107 
L 119.817798 129.224177 
L 119.998866 127.982247 
L 120.361001 129.130273 
L 120.542069 127.043467 
L 120.723137 128.094588 
L 121.085273 125.792246 
L 121.26634 125.444617 
L 121.447408 124.017039 
L 121.628476 120.426961 
L 121.809544 122.057969 
L 121.990612 121.257558 
L 122.171679 119.043464 
L 122.352747 108.254018 
L 122.533815 118.747542 
L 122.714883 112.54849 
L 122.895951 110.423439 
L 123.258086 105.129142 
L 123.439154 104.708861 
L 123.620222 106.817729 
L 123.801289 104.471749 
L 123.982357 104.590891 
L 124.163425 103.745225 
L 124.344493 99.302579 
L 124.525561 98.920372 
L 124.706628 101.023576 
L 125.068764 101.159143 
L 125.249832 102.612679 
L 125.793035 115.881887 
L 125.974103 118.092805 
L 126.155171 117.777791 
L 126.336239 116.464343 
L 126.517306 116.529574 
L 126.879442 112.48242 
L 127.241577 120.730522 
L 127.422645 120.936956 
L 127.784781 117.457909 
L 127.965849 118.000748 
L 128.327984 113.62839 
L 128.509052 112.25187 
L 128.871188 120.660199 
L 129.052255 120.73478 
L 129.414391 115.828223 
L 129.595459 119.815512 
L 129.776526 120.074694 
L 129.957594 106.633116 
L 130.138662 104.008412 
L 130.31973 98.535132 
L 130.500798 104.284359 
L 130.681865 92.31159 
L 131.044001 96.079949 
L 131.225069 91.188004 
L 131.406137 89.319915 
L 131.587204 95.947546 
L 131.768272 96.789059 
L 131.94934 95.323263 
L 132.492543 76.912234 
L 132.673611 80.791057 
L 132.854679 76.567048 
L 133.035747 81.509701 
L 133.216814 79.221617 
L 133.397882 85.780063 
L 133.57895 85.636896 
L 133.760018 86.722606 
L 133.941086 79.215872 
L 134.122153 78.765784 
L 134.303221 82.261354 
L 134.484289 88.344276 
L 134.665357 90.07445 
L 135.20856 83.757328 
L 135.389628 82.4791 
L 135.570696 84.450466 
L 135.751764 83.199596 
L 135.932831 83.972911 
L 136.113899 78.720914 
L 136.476035 81.407692 
L 136.657102 81.221416 
L 137.200306 68.696384 
L 137.381374 73.52833 
L 137.562441 74.872096 
L 137.924577 106.464085 
L 138.105645 120.690737 
L 138.286713 116.051151 
L 138.46778 114.952919 
L 138.648848 117.11353 
L 139.010984 127.706937 
L 139.373119 134.977023 
L 139.554187 134.675524 
L 139.916323 132.060517 
L 140.09739 132.470444 
L 140.640594 147.6 
L 140.821662 147.534227 
L 141.002729 142.141743 
L 141.183797 145.304078 
L 141.545933 144.170601 
L 141.908068 136.156441 
L 142.270204 141.524913 
L 142.451272 139.648485 
L 142.813407 132.906064 
L 143.175543 137.042251 
L 143.537678 139.825016 
L 143.718746 143.444258 
L 143.899814 142.226774 
L 144.080882 137.194913 
L 144.443017 122.341527 
L 144.624085 104.42851 
L 144.805153 98.537226 
L 145.167289 112.635107 
L 145.348356 112.746693 
L 145.710492 125.982426 
L 145.89156 125.752656 
L 146.072627 130.999517 
L 146.253695 129.151662 
L 146.796899 137.300029 
L 146.977966 136.07309 
L 147.159034 135.972071 
L 147.340102 128.15471 
L 147.52117 127.80552 
L 147.702238 128.100828 
L 147.883305 128.693187 
L 148.064373 125.419255 
L 148.245441 127.494183 
L 148.426509 126.13302 
L 148.607577 132.382177 
L 148.788644 131.004926 
L 149.15078 131.641338 
L 149.331848 133.414178 
L 149.512915 133.704587 
L 149.875051 132.688788 
L 150.056119 132.30991 
L 150.237187 132.261883 
L 150.599322 128.777638 
L 150.78039 129.029173 
L 150.961458 128.920678 
L 151.142526 130.826907 
L 151.323593 130.142415 
L 151.685729 121.106 
L 151.866797 121.354087 
L 152.047865 116.702421 
L 152.228932 117.484195 
L 152.41 117.541872 
L 152.591068 117.841979 
L 152.772136 116.032778 
L 152.953203 117.453229 
L 153.134271 114.1611 
L 153.315339 114.743259 
L 153.496407 121.737493 
L 153.677475 119.980896 
L 153.858542 119.733835 
L 154.401746 126.531129 
L 154.763881 131.756874 
L 154.944949 131.698857 
L 155.126017 133.731316 
L 155.307085 130.491779 
L 155.488153 130.190195 
L 155.850288 117.590081 
L 156.393491 80.816396 
L 156.574559 83.914861 
L 156.755627 76.012454 
L 156.936695 76.30298 
L 157.117763 72.372879 
L 157.29883 85.557571 
L 157.479898 85.0527 
L 157.660966 88.569854 
L 157.842034 83.8084 
L 158.023102 93.358213 
L 158.204169 93.917716 
L 158.385237 91.194447 
L 158.566305 84.674106 
L 158.747373 93.044264 
L 158.928441 91.523209 
L 159.109508 87.071366 
L 159.290576 87.27193 
L 159.471644 85.636383 
L 159.652712 85.754854 
L 159.833779 83.597342 
L 160.195915 88.505095 
L 161.282322 118.249422 
L 161.46339 113.665633 
L 161.825525 109.97964 
L 162.006593 106.72185 
L 162.549796 90.877005 
L 162.730864 94.680272 
L 162.911932 87.787178 
L 163.274067 86.461948 
L 163.636203 102.00983 
L 163.817271 106.999239 
L 164.360474 97.411589 
L 164.541542 95.471509 
L 164.72261 95.368791 
L 164.903678 102.029226 
L 165.084745 104.329626 
L 165.265813 109.200314 
L 165.627949 101.828333 
L 165.809016 104.501604 
L 165.990084 104.628923 
L 166.35222 97.813715 
L 166.714355 92.61787 
L 166.895423 81.997414 
L 167.076491 78.888062 
L 167.438627 92.619152 
L 167.619694 93.163713 
L 168.162898 91.874284 
L 168.525033 89.628808 
L 168.706101 91.524257 
L 169.068237 99.254299 
L 169.249304 100.030561 
L 169.430372 98.244097 
L 169.792508 102.478394 
L 169.973576 99.895634 
L 170.154643 100.459902 
L 170.335711 101.863968 
L 170.516779 101.384166 
L 170.697847 103.51071 
L 170.878915 104.270036 
L 171.603186 91.862939 
L 171.784254 94.17216 
L 172.146389 102.184544 
L 172.689592 79.441968 
L 172.87066 78.94648 
L 173.051728 79.864544 
L 173.413864 95.721673 
L 173.775999 102.994593 
L 174.138135 113.137073 
L 174.319203 116.307932 
L 174.50027 115.225828 
L 174.681338 116.075948 
L 175.043474 112.284578 
L 175.405609 102.965808 
L 175.948813 78.036138 
L 176.12988 78.248957 
L 176.310948 72.607458 
L 176.492016 82.390044 
L 176.673084 80.137417 
L 176.854152 85.063049 
L 177.035219 81.697938 
L 177.216287 85.142545 
L 177.759491 114.458086 
L 178.302694 135.03865 
L 178.483762 133.610198 
L 178.845897 139.335469 
L 179.389101 143.191479 
L 179.570168 141.205904 
L 179.751236 135.656371 
L 180.29444 131.047889 
L 180.475507 120.6209 
L 180.837643 115.673104 
L 181.018711 116.559115 
L 181.199779 108.116073 
L 181.380846 111.484678 
L 181.561914 120.394065 
L 181.742982 116.92938 
L 181.92405 118.495912 
L 182.105117 118.024953 
L 182.648321 121.681098 
L 182.829389 115.854456 
L 183.010456 116.588621 
L 183.191524 111.81885 
L 183.372592 115.899853 
L 183.734728 105.671462 
L 183.915795 114.917986 
L 184.096863 114.30297 
L 184.277931 113.05155 
L 184.458999 115.400639 
L 184.640067 116.149522 
L 184.821134 121.735661 
L 185.002202 123.385647 
L 185.18327 128.336274 
L 185.364338 127.344644 
L 185.907541 121.416083 
L 186.088609 118.56632 
L 186.269677 112.932184 
L 186.631812 116.110234 
L 186.81288 121.553993 
L 186.993948 120.069578 
L 187.175016 105.608506 
L 187.356083 100.201474 
L 187.537151 98.898673 
L 187.718219 102.886568 
L 188.080355 122.124552 
L 188.623558 138.799211 
L 188.804626 131.611469 
L 188.985693 131.329542 
L 189.166761 135.251273 
L 189.347829 135.275142 
L 189.528897 131.097778 
L 189.891032 117.464341 
L 190.0721 112.022435 
L 190.253168 113.329895 
L 190.796371 100.336472 
L 190.977439 105.231786 
L 191.158507 102.75463 
L 191.520642 110.274196 
L 191.70171 117.662843 
L 191.882778 119.706358 
L 192.063846 124.941862 
L 192.244914 119.278876 
L 192.425981 123.318997 
L 192.607049 123.00838 
L 193.150253 139.528583 
L 193.693456 127.988553 
L 194.055592 131.521549 
L 194.417727 124.504713 
L 194.779863 119.485153 
L 195.323066 89.888667 
L 195.504134 84.628701 
L 195.685202 87.399872 
L 195.866269 85.271669 
L 196.047337 96.099899 
L 196.228405 94.287287 
L 196.409473 95.298181 
L 196.590541 94.757269 
L 196.771608 98.545828 
L 196.952676 108.360554 
L 197.133744 108.808484 
L 197.314812 109.865436 
L 197.49588 109.566261 
L 197.858015 104.466644 
L 198.039083 104.64313 
L 198.220151 102.696821 
L 198.401218 98.955893 
L 198.763354 112.123527 
L 199.12549 102.610124 
L 199.306557 105.12732 
L 199.487625 105.188536 
L 199.668693 105.761295 
L 199.849761 101.933945 
L 200.030829 103.78026 
L 200.211896 110.693966 
L 200.392964 124.63679 
L 200.574032 123.495768 
L 200.7551 124.80594 
L 200.936168 125.152305 
L 201.117235 121.478284 
L 201.298303 126.25607 
L 201.479371 124.977379 
L 201.660439 112.016152 
L 201.841506 115.598975 
L 202.565778 90.254697 
L 202.746845 80.885235 
L 202.927913 80.392294 
L 203.108981 82.188902 
L 203.290049 85.805712 
L 203.471117 99.790122 
L 203.652184 98.469793 
L 204.195388 129.494776 
L 204.376456 133.078875 
L 204.738591 143.852523 
L 204.919659 143.721431 
L 205.100727 144.585081 
L 205.281794 144.26475 
L 205.462862 144.404628 
L 205.64393 143.541283 
L 206.006066 146.332618 
L 206.187133 145.774812 
L 206.368201 144.24829 
L 206.549269 145.641582 
L 206.730337 144.786227 
L 206.911405 145.388928 
L 207.27354 138.464634 
L 207.454608 135.712426 
L 207.635676 137.063717 
L 207.816743 135.936377 
L 207.997811 135.76934 
L 208.178879 133.05835 
L 208.359947 133.649183 
L 208.722082 131.397965 
L 208.90315 128.035227 
L 209.084218 120.331229 
L 209.265286 124.785787 
L 209.446354 135.322255 
L 209.808489 142.478061 
L 209.989557 141.959097 
L 210.351693 146.510234 
L 210.53276 146.461898 
L 210.53276 146.461898 
" clip-path="url(#pc58a3a4bb6)" style="fill: none; stroke: #008000; stroke-width: 1.5; stroke-linecap: square"/>
   </g>
   <g id="patch_3">
    <path d="M 55.584 152.64 
L 55.584 41.76 
" style="fill: none; stroke: #000000; stroke-width: 0.8; stroke-linejoin: miter; stroke-linecap: square"/>
   </g>
   <g id="patch_4">
    <path d="M 217.911273 152.64 
L 217.911273 41.76 
" style="fill: none; stroke: #000000; stroke-width: 0.8; stroke-linejoin: miter; stroke-linecap: square"/>
   </g>
   <g id="patch_5">
    <path d="M 55.584 152.64 
L 217.911273 152.64 
" style="fill: none; stroke: #000000; stroke-width: 0.8; stroke-linejoin: miter; stroke-linecap: square"/>
   </g>
   <g id="patch_6">
    <path d="M 55.584 41.76 
L 217.911273 41.76 
" style="fill: none; stroke: #000000; stroke-width: 0.8; stroke-linejoin: miter; stroke-linecap: square"/>
   </g>
   <g id="text_9">
    <!-- No Prediction (FOSS) -->
    <g transform="translate(74.495761 35.76) scale(0.12 -0.12)">
     <defs>
      <path id="DejaVuSans-4e" d="M 628 4666 
L 1478 4666 
L 3547 763 
L 3547 4666 
L 4159 4666 
L 4159 0 
L 3309 0 
L 1241 3903 
L 1241 0 
L 628 0 
L 628 4666 
z
" transform="scale(0.015625)"/>
      <path id="DejaVuSans-6f" d="M 1959 3097 
Q 1497 3097 1228 2736 
Q 959 2375 959 1747 
Q 959 1119 1226 758 
Q 1494 397 1959 397 
Q 2419 397 2687 759 
Q 2956 1122 2956 1747 
Q 2956 2369 2687 2733 
Q 2419 3097 1959 3097 
z
M 1959 3584 
Q 2709 3584 3137 3096 
Q 3566 2609 3566 1747 
Q 3566 888 3137 398 
Q 2709 -91 1959 -91 
Q 1206 -91 779 398 
Q 353 888 353 1747 
Q 353 2609 779 3096 
Q 1206 3584 1959 3584 
z
" transform="scale(0.015625)"/>
      <path id="DejaVuSans-20" transform="scale(0.015625)"/>
      <path id="DejaVuSans-50" d="M 1259 4147 
L 1259 2394 
L 2053 2394 
Q 2494 2394 2734 2622 
Q 2975 2850 2975 3272 
Q 2975 3691 2734 3919 
Q 2494 4147 2053 4147 
L 1259 4147 
z
M 628 4666 
L 2053 4666 
Q 2838 4666 3239 4311 
Q 3641 3956 3641 3272 
Q 3641 2581 3239 2228 
Q 2838 1875 2053 1875 
L 1259 1875 
L 1259 0 
L 628 0 
L 628 4666 
z
" transform="scale(0.015625)"/>
      <path id="DejaVuSans-72" d="M 2631 2963 
Q 2534 3019 2420 3045 
Q 2306 3072 2169 3072 
Q 1681 3072 1420 2755 
Q 1159 2438 1159 1844 
L 1159 0 
L 581 0 
L 581 3500 
L 1159 3500 
L 1159 2956 
Q 1341 3275 1631 3429 
Q 1922 3584 2338 3584 
Q 2397 3584 2469 3576 
Q 2541 3569 2628 3553 
L 2631 2963 
z
" transform="scale(0.015625)"/>
      <path id="DejaVuSans-65" d="M 3597 1894 
L 3597 1613 
L 953 1613 
Q 991 1019 1311 708 
Q 1631 397 2203 397 
Q 2534 397 2845 478 
Q 3156 559 3463 722 
L 3463 178 
Q 3153 47 2828 -22 
Q 2503 -91 2169 -91 
Q 1331 -91 842 396 
Q 353 884 353 1716 
Q 353 2575 817 3079 
Q 1281 3584 2069 3584 
Q 2775 3584 3186 3129 
Q 3597 2675 3597 1894 
z
M 3022 2063 
Q 3016 2534 2758 2815 
Q 2500 3097 2075 3097 
Q 1594 3097 1305 2825 
Q 1016 2553 972 2059 
L 3022 2063 
z
" transform="scale(0.015625)"/>
      <path id="DejaVuSans-64" d="M 2906 2969 
L 2906 4863 
L 3481 4863 
L 3481 0 
L 2906 0 
L 2906 525 
Q 2725 213 2448 61 
Q 2172 -91 1784 -91 
Q 1150 -91 751 415 
Q 353 922 353 1747 
Q 353 2572 751 3078 
Q 1150 3584 1784 3584 
Q 2172 3584 2448 3432 
Q 2725 3281 2906 2969 
z
M 947 1747 
Q 947 1113 1208 752 
Q 1469 391 1925 391 
Q 2381 391 2643 752 
Q 2906 1113 2906 1747 
Q 2906 2381 2643 2742 
Q 2381 3103 1925 3103 
Q 1469 3103 1208 2742 
Q 947 2381 947 1747 
z
" transform="scale(0.015625)"/>
      <path id="DejaVuSans-69" d="M 603 3500 
L 1178 3500 
L 1178 0 
L 603 0 
L 603 3500 
z
M 603 4863 
L 1178 4863 
L 1178 4134 
L 603 4134 
L 603 4863 
z
" transform="scale(0.015625)"/>
      <path id="DejaVuSans-63" d="M 3122 3366 
L 3122 2828 
Q 2878 2963 2633 3030 
Q 2388 3097 2138 3097 
Q 1578 3097 1268 2742 
Q 959 2388 959 1747 
Q 959 1106 1268 751 
Q 1578 397 2138 397 
Q 2388 397 2633 464 
Q 2878 531 3122 666 
L 3122 134 
Q 2881 22 2623 -34 
Q 2366 -91 2075 -91 
Q 1284 -91 818 406 
Q 353 903 353 1747 
Q 353 2603 823 3093 
Q 1294 3584 2113 3584 
Q 2378 3584 2631 3529 
Q 2884 3475 3122 3366 
z
" transform="scale(0.015625)"/>
      <path id="DejaVuSans-74" d="M 1172 4494 
L 1172 3500 
L 2356 3500 
L 2356 3053 
L 1172 3053 
L 1172 1153 
Q 1172 725 1289 603 
Q 1406 481 1766 481 
L 2356 481 
L 2356 0 
L 1766 0 
Q 1100 0 847 248 
Q 594 497 594 1153 
L 594 3053 
L 172 3053 
L 172 3500 
L 594 3500 
L 594 4494 
L 1172 4494 
z
" transform="scale(0.015625)"/>
      <path id="DejaVuSans-6e" d="M 3513 2113 
L 3513 0 
L 2938 0 
L 2938 2094 
Q 2938 2591 2744 2837 
Q 2550 3084 2163 3084 
Q 1697 3084 1428 2787 
Q 1159 2491 1159 1978 
L 1159 0 
L 581 0 
L 581 3500 
L 1159 3500 
L 1159 2956 
Q 1366 3272 1645 3428 
Q 1925 3584 2291 3584 
Q 2894 3584 3203 3211 
Q 3513 2838 3513 2113 
z
" transform="scale(0.015625)"/>
      <path id="DejaVuSans-28" d="M 1984 4856 
Q 1566 4138 1362 3434 
Q 1159 2731 1159 2009 
Q 1159 1288 1364 580 
Q 1569 -128 1984 -844 
L 1484 -844 
Q 1016 -109 783 600 
Q 550 1309 550 2009 
Q 550 2706 781 3412 
Q 1013 4119 1484 4856 
L 1984 4856 
z
" transform="scale(0.015625)"/>
      <path id="DejaVuSans-46" d="M 628 4666 
L 3309 4666 
L 3309 4134 
L 1259 4134 
L 1259 2759 
L 3109 2759 
L 3109 2228 
L 1259 2228 
L 1259 0 
L 628 0 
L 628 4666 
z
" transform="scale(0.015625)"/>
      <path id="DejaVuSans-4f" d="M 2522 4238 
Q 1834 4238 1429 3725 
Q 1025 3213 1025 2328 
Q 1025 1447 1429 934 
Q 1834 422 2522 422 
Q 3209 422 3611 934 
Q 4013 1447 4013 2328 
Q 4013 3213 3611 3725 
Q 3209 4238 2522 4238 
z
M 2522 4750 
Q 3503 4750 4090 4092 
Q 4678 3434 4678 2328 
Q 4678 1225 4090 567 
Q 3503 -91 2522 -91 
Q 1538 -91 948 565 
Q 359 1222 359 2328 
Q 359 3434 948 4092 
Q 1538 4750 2522 4750 
z
" transform="scale(0.015625)"/>
      <path id="DejaVuSans-53" d="M 3425 4513 
L 3425 3897 
Q 3066 4069 2747 4153 
Q 2428 4238 2131 4238 
Q 1616 4238 1336 4038 
Q 1056 3838 1056 3469 
Q 1056 3159 1242 3001 
Q 1428 2844 1947 2747 
L 2328 2669 
Q 3034 2534 3370 2195 
Q 3706 1856 3706 1288 
Q 3706 609 3251 259 
Q 2797 -91 1919 -91 
Q 1588 -91 1214 -16 
Q 841 59 441 206 
L 441 856 
Q 825 641 1194 531 
Q 1563 422 1919 422 
Q 2459 422 2753 634 
Q 3047 847 3047 1241 
Q 3047 1584 2836 1778 
Q 2625 1972 2144 2069 
L 1759 2144 
Q 1053 2284 737 2584 
Q 422 2884 422 3419 
Q 422 4038 858 4394 
Q 1294 4750 2059 4750 
Q 2388 4750 2728 4690 
Q 3069 4631 3425 4513 
z
" transform="scale(0.015625)"/>
      <path id="DejaVuSans-29" d="M 513 4856 
L 1013 4856 
Q 1481 4119 1714 3412 
Q 1947 2706 1947 2009 
Q 1947 1309 1714 600 
Q 1481 -109 1013 -844 
L 513 -844 
Q 928 -128 1133 580 
Q 1338 1288 1338 2009 
Q 1338 2731 1133 3434 
Q 928 4138 513 4856 
z
" transform="scale(0.015625)"/>
     </defs>
     <use xlink:href="#DejaVuSans-4e"/>
     <use xlink:href="#DejaVuSans-6f" x="74.804688"/>
     <use xlink:href="#DejaVuSans-20" x="135.986328"/>
     <use xlink:href="#DejaVuSans-50" x="167.773438"/>
     <use xlink:href="#DejaVuSans-72" x="226.326172"/>
     <use xlink:href="#DejaVuSans-65" x="265.189453"/>
     <use xlink:href="#DejaVuSans-64" x="326.712891"/>
     <use xlink:href="#DejaVuSans-69" x="390.189453"/>
     <use xlink:href="#DejaVuSans-63" x="417.972656"/>
     <use xlink:href="#DejaVuSans-74" x="472.953125"/>
     <use xlink:href="#DejaVuSans-69" x="512.162109"/>
     <use xlink:href="#DejaVuSans-6f" x="539.945312"/>
     <use xlink:href="#DejaVuSans-6e" x="601.126953"/>
     <use xlink:href="#DejaVuSans-20" x="664.505859"/>
     <use xlink:href="#DejaVuSans-28" x="696.292969"/>
     <use xlink:href="#DejaVuSans-46" x="735.306641"/>
     <use xlink:href="#DejaVuSans-4f" x="792.826172"/>
     <use xlink:href="#DejaVuSans-53" x="871.537109"/>
     <use xlink:href="#DejaVuSans-53" x="935.013672"/>
     <use xlink:href="#DejaVuSans-29" x="998.490234"/>
    </g>
   </g>
  </g>
  <g id="axes_2">
   <g id="patch_7">
    <path d="M 250.376727 152.64 
L 412.704 152.64 
L 412.704 41.76 
L 250.376727 41.76 
z
" style="fill: #ffffff"/>
   </g>
   <g id="matplotlib.axis_3">
    <g id="xtick_6">
     <g id="line2d_10">
      <g>
       <use xlink:href="#ma93512789c" x="257.75524" y="152.64" style="stroke: #000000; stroke-width: 0.8"/>
      </g>
     </g>
     <g id="text_10">
      <!-- 0 -->
      <g transform="translate(254.57399 167.238437) scale(0.1 -0.1)">
       <use xlink:href="#DejaVuSans-30"/>
      </g>
     </g>
    </g>
    <g id="xtick_7">
     <g id="line2d_11">
      <g>
       <use xlink:href="#ma93512789c" x="293.968797" y="152.64" style="stroke: #000000; stroke-width: 0.8"/>
      </g>
     </g>
     <g id="text_11">
      <!-- 200 -->
      <g transform="translate(284.425047 167.238437) scale(0.1 -0.1)">
       <use xlink:href="#DejaVuSans-32"/>
       <use xlink:href="#DejaVuSans-30" x="63.623047"/>
       <use xlink:href="#DejaVuSans-30" x="127.246094"/>
      </g>
     </g>
    </g>
    <g id="xtick_8">
     <g id="line2d_12">
      <g>
       <use xlink:href="#ma93512789c" x="330.182355" y="152.64" style="stroke: #000000; stroke-width: 0.8"/>
      </g>
     </g>
     <g id="text_12">
      <!-- 400 -->
      <g transform="translate(320.638605 167.238437) scale(0.1 -0.1)">
       <use xlink:href="#DejaVuSans-34"/>
       <use xlink:href="#DejaVuSans-30" x="63.623047"/>
       <use xlink:href="#DejaVuSans-30" x="127.246094"/>
      </g>
     </g>
    </g>
    <g id="xtick_9">
     <g id="line2d_13">
      <g>
       <use xlink:href="#ma93512789c" x="366.395913" y="152.64" style="stroke: #000000; stroke-width: 0.8"/>
      </g>
     </g>
     <g id="text_13">
      <!-- 600 -->
      <g transform="translate(356.852163 167.238437) scale(0.1 -0.1)">
       <use xlink:href="#DejaVuSans-36"/>
       <use xlink:href="#DejaVuSans-30" x="63.623047"/>
       <use xlink:href="#DejaVuSans-30" x="127.246094"/>
      </g>
     </g>
    </g>
    <g id="xtick_10">
     <g id="line2d_14">
      <g>
       <use xlink:href="#ma93512789c" x="402.609471" y="152.64" style="stroke: #000000; stroke-width: 0.8"/>
      </g>
     </g>
     <g id="text_14">
      <!-- 800 -->
      <g transform="translate(393.065721 167.238437) scale(0.1 -0.1)">
       <use xlink:href="#DejaVuSans-38"/>
       <use xlink:href="#DejaVuSans-30" x="63.623047"/>
       <use xlink:href="#DejaVuSans-30" x="127.246094"/>
      </g>
     </g>
    </g>
   </g>
   <g id="matplotlib.axis_4">
    <g id="ytick_4">
     <g id="line2d_15">
      <g>
       <use xlink:href="#m0935fe9a10" x="250.376727" y="147.6" style="stroke: #000000; stroke-width: 0.8"/>
      </g>
     </g>
     <g id="text_15">
      <!-- 0 -->
      <g transform="translate(237.014227 151.399219) scale(0.1 -0.1)">
       <use xlink:href="#DejaVuSans-30"/>
      </g>
     </g>
    </g>
    <g id="ytick_5">
     <g id="line2d_16">
      <g>
       <use xlink:href="#m0935fe9a10" x="250.376727" y="106.063964" style="stroke: #000000; stroke-width: 0.8"/>
      </g>
     </g>
     <g id="text_16">
      <!-- 20 -->
      <g transform="translate(230.651727 109.863182) scale(0.1 -0.1)">
       <use xlink:href="#DejaVuSans-32"/>
       <use xlink:href="#DejaVuSans-30" x="63.623047"/>
      </g>
     </g>
    </g>
    <g id="ytick_6">
     <g id="line2d_17">
      <g>
       <use xlink:href="#m0935fe9a10" x="250.376727" y="64.527927" style="stroke: #000000; stroke-width: 0.8"/>
      </g>
     </g>
     <g id="text_17">
      <!-- 40 -->
      <g transform="translate(230.651727 68.327146) scale(0.1 -0.1)">
       <use xlink:href="#DejaVuSans-34"/>
       <use xlink:href="#DejaVuSans-30" x="63.623047"/>
      </g>
     </g>
    </g>
   </g>
   <g id="line2d_18">
    <path d="M 257.75524 46.8 
L 257.936307 51.294502 
L 258.298443 74.725651 
L 258.479511 92.73918 
L 258.660579 96.844573 
L 258.841646 95.855573 
L 259.022714 93.745387 
L 259.203782 96.337374 
L 259.38485 91.398991 
L 259.746985 101.009501 
L 259.928053 142.101804 
L 260.109121 140.425825 
L 260.290189 147.6 
L 261.557663 147.6 
L 261.738731 140.231518 
L 261.919799 141.893597 
L 262.100867 93.305894 
L 262.281934 89.531352 
L 262.463002 88.416074 
L 262.64407 95.134709 
L 262.825138 87.115357 
L 263.006206 87.005508 
L 263.368341 97.577391 
L 263.549409 95.296157 
L 263.730477 90.868146 
L 263.911544 90.189136 
L 264.092612 96.119643 
L 264.454748 146.659979 
L 264.635816 147.6 
L 264.816883 146.373322 
L 264.997951 147.6 
L 265.360087 139.75192 
L 265.541155 138.862045 
L 265.722222 145.148165 
L 265.90329 147.163838 
L 266.084358 147.345602 
L 266.265426 146.887229 
L 266.446494 93.608233 
L 266.627561 99.240303 
L 266.808629 100.274247 
L 267.170765 105.253035 
L 267.351832 110.044892 
L 267.5329 110.155298 
L 267.713968 109.563138 
L 267.895036 111.165741 
L 268.076104 110.443187 
L 268.257171 108.278792 
L 268.438239 108.926843 
L 268.619307 140.170642 
L 268.800375 147.386509 
L 268.981443 147.6 
L 269.16251 146.807526 
L 269.343578 143.131223 
L 269.524646 147.6 
L 269.886782 147.6 
L 270.248917 140.751048 
L 270.611053 144.964403 
L 270.79212 98.763116 
L 270.973188 99.381272 
L 271.154256 94.50523 
L 271.516392 91.890144 
L 272.059595 114.748166 
L 272.240663 115.731794 
L 272.421731 117.846894 
L 272.602798 114.949151 
L 272.783866 116.667954 
L 272.964934 147.6 
L 273.146002 147.6 
L 273.689205 134.519222 
L 273.870273 136.629278 
L 274.051341 140.214519 
L 274.232408 137.242748 
L 274.413476 142.737777 
L 274.775612 144.676 
L 274.95668 144.184845 
L 275.137747 126.087762 
L 275.318815 130.780057 
L 276.043086 118.360173 
L 276.405222 123.114403 
L 276.58629 119.879888 
L 276.948425 124.185308 
L 277.129493 118.812671 
L 277.310561 147.6 
L 278.759103 147.6 
L 279.302307 136.913565 
L 279.483374 117.596718 
L 279.664442 117.541735 
L 280.026578 122.568603 
L 280.207645 118.833933 
L 280.388713 119.449763 
L 280.750849 115.261429 
L 281.112984 118.219146 
L 281.294052 116.606869 
L 281.47512 112.984035 
L 281.656188 143.416465 
L 281.837256 147.6 
L 282.018323 142.773799 
L 282.199391 147.6 
L 283.647933 147.6 
L 283.829001 114.447018 
L 284.010069 115.512791 
L 284.191137 114.3745 
L 284.372205 115.864111 
L 284.553272 112.147531 
L 284.73434 112.468399 
L 284.915408 107.939125 
L 285.277544 106.901367 
L 285.458611 108.197857 
L 285.639679 106.93989 
L 285.820747 109.496967 
L 286.001815 147.6 
L 286.182883 147.6 
L 286.36395 132.619686 
L 286.545018 132.226601 
L 286.726086 121.497411 
L 286.907154 122.894737 
L 287.088221 115.240632 
L 287.269289 143.874762 
L 287.450357 147.6 
L 287.99356 147.6 
L 288.174628 102.325739 
L 288.717832 110.410315 
L 288.898899 109.52215 
L 289.079967 103.106891 
L 289.261035 103.662672 
L 289.442103 107.434302 
L 289.985306 110.760306 
L 290.166374 110.367147 
L 290.347442 139.863265 
L 290.709577 147.6 
L 292.339187 147.6 
L 292.520255 126.632594 
L 292.701323 128.667553 
L 292.882391 126.283268 
L 293.063459 125.675199 
L 293.244526 125.692061 
L 293.425594 126.23768 
L 293.606662 122.584131 
L 294.149865 126.723369 
L 294.330933 126.218036 
L 294.512001 126.505006 
L 294.693069 147.6 
L 294.874136 147.084195 
L 295.055204 147.6 
L 295.236272 141.671541 
L 295.598408 147.6 
L 296.684814 147.6 
L 296.865882 123.76709 
L 297.04695 126.989127 
L 297.228018 127.170787 
L 297.409085 122.599858 
L 297.590153 124.642638 
L 297.771221 124.478529 
L 297.952289 128.134558 
L 298.133357 125.651202 
L 298.314424 125.347449 
L 298.857628 131.444569 
L 299.038696 147.6 
L 299.400831 147.6 
L 299.581899 143.787135 
L 299.762967 132.404868 
L 299.944034 139.682245 
L 300.125102 136.888556 
L 300.30617 138.653717 
L 300.487238 146.019384 
L 300.668306 147.6 
L 300.849373 147.6 
L 301.030441 146.633714 
L 301.211509 123.967212 
L 301.392577 123.792356 
L 301.573645 124.233001 
L 301.754712 123.709028 
L 302.116848 115.918241 
L 302.297916 119.997933 
L 302.478984 119.270909 
L 302.660051 117.653866 
L 302.841119 118.353459 
L 303.022187 117.537648 
L 303.203255 112.181148 
L 303.384322 145.104762 
L 303.56539 138.609959 
L 303.746458 147.6 
L 303.927526 143.934644 
L 304.108594 147.6 
L 304.289661 141.611538 
L 304.651797 123.316185 
L 305.195 147.6 
L 305.376068 147.6 
L 305.557136 119.93402 
L 305.738204 120.495277 
L 305.919272 117.720564 
L 306.100339 118.851188 
L 306.281407 115.835794 
L 306.643543 127.298006 
L 306.82461 127.325083 
L 307.005678 125.00228 
L 307.186746 125.6921 
L 307.367814 123.298679 
L 307.548882 123.309747 
L 307.729949 147.6 
L 309.721695 147.6 
L 309.902763 123.906582 
L 310.083831 117.62721 
L 310.264898 104.758795 
L 310.445966 105.720714 
L 310.98917 118.935551 
L 311.170237 108.867621 
L 311.351305 112.967612 
L 311.532373 104.923903 
L 311.713441 102.321434 
L 311.894509 101.339485 
L 312.075576 147.6 
L 312.437712 147.6 
L 312.799847 134.15302 
L 313.343051 147.6 
L 314.067322 147.6 
L 314.24839 128.137293 
L 314.429458 121.972911 
L 314.610525 129.221122 
L 314.791593 127.988274 
L 315.153729 129.123612 
L 315.334797 127.121889 
L 315.515864 128.089726 
L 315.878 125.808756 
L 316.059068 125.451436 
L 316.240135 124.009457 
L 316.421203 143.235613 
L 316.602271 147.6 
L 316.783339 147.6 
L 316.964407 119.137005 
L 317.145474 121.657838 
L 317.326542 144.948504 
L 317.50761 147.076108 
L 317.688678 144.449089 
L 317.869746 139.770868 
L 318.050813 141.609048 
L 318.231881 140.586786 
L 318.412949 134.699547 
L 318.594017 104.484421 
L 318.775085 104.589962 
L 318.956152 103.754365 
L 319.13722 99.309083 
L 319.318288 98.925103 
L 319.499356 101.012374 
L 319.861491 101.168207 
L 320.042559 102.611638 
L 320.585762 115.890252 
L 320.76683 147.6 
L 321.491101 147.6 
L 321.672169 144.708571 
L 321.853237 147.6 
L 322.758576 147.6 
L 322.939644 114.942543 
L 323.301779 112.237548 
L 323.663915 120.677373 
L 323.844983 120.750846 
L 324.207118 115.833327 
L 324.388186 119.806828 
L 324.569254 120.064841 
L 324.750322 106.637144 
L 324.931389 104.005114 
L 325.112457 147.6 
L 327.104203 147.6 
L 327.285271 76.942511 
L 327.466338 80.80957 
L 327.647406 76.561091 
L 327.828474 81.520201 
L 328.009542 79.229715 
L 328.19061 85.786548 
L 328.371677 85.634591 
L 328.552745 86.721821 
L 328.733813 79.219705 
L 328.914881 78.776055 
L 329.095948 81.956089 
L 329.277016 88.35343 
L 329.458084 147.6 
L 329.639152 134.808226 
L 329.82022 147.6 
L 331.44983 147.6 
L 331.630898 76.866298 
L 331.811965 74.644745 
L 331.993033 68.69773 
L 332.174101 73.555151 
L 332.355169 74.891968 
L 332.717304 106.463295 
L 332.898372 120.703192 
L 333.07944 116.051011 
L 333.260508 114.965329 
L 333.441575 117.078606 
L 333.622643 124.107479 
L 333.984779 147.6 
L 334.527982 147.6 
L 334.70905 144.254451 
L 334.890118 145.345198 
L 335.071186 133.763513 
L 335.252253 146.118111 
L 335.433321 144.784814 
L 335.614389 147.6 
L 335.795457 147.6 
L 335.976524 145.301107 
L 336.33866 144.154519 
L 336.700796 136.152589 
L 337.062931 141.526653 
L 337.243999 139.642084 
L 337.606135 132.904741 
L 337.96827 137.045043 
L 338.149338 147.587763 
L 339.054677 147.6 
L 339.235745 145.168966 
L 339.416812 138.853668 
L 339.59788 141.302265 
L 339.778948 147.6 
L 340.141084 147.6 
L 340.322151 119.487356 
L 340.503219 125.983359 
L 340.684287 125.764007 
L 340.865355 130.989585 
L 341.046423 129.137344 
L 341.589626 137.293096 
L 341.770694 136.077449 
L 341.951761 135.979064 
L 342.132829 128.159665 
L 342.313897 127.796849 
L 342.494965 144.768237 
L 342.676033 147.119966 
L 343.219236 147.6 
L 344.486711 147.6 
L 344.667778 132.678966 
L 344.848846 132.296438 
L 345.029914 132.267334 
L 345.392049 128.785731 
L 345.754185 129.319336 
L 345.935253 130.83905 
L 346.116321 130.147394 
L 346.478456 121.116077 
L 346.659524 121.352552 
L 346.840592 147.6 
L 348.832337 147.6 
L 349.013405 124.011157 
L 349.556609 131.755016 
L 349.737676 131.701627 
L 349.918744 133.741817 
L 350.099812 130.498754 
L 350.28088 130.187057 
L 350.643015 117.587533 
L 351.005151 96.14893 
L 351.186219 141.474737 
L 351.367287 147.499105 
L 351.548354 146.851147 
L 351.729422 147.6 
L 352.996897 147.6 
L 353.177964 134.212242 
L 353.359032 84.671885 
L 353.5401 93.060856 
L 353.721168 91.517011 
L 353.902236 87.073063 
L 354.083303 87.276143 
L 354.264371 85.643525 
L 354.445439 85.757718 
L 354.626507 83.6085 
L 354.988642 88.513858 
L 355.350778 102.491952 
L 355.531846 142.621634 
L 355.712913 146.878116 
L 355.893981 147.6 
L 356.075049 147.6 
L 356.256117 140.440527 
L 356.437185 138.069799 
L 356.618252 145.298239 
L 356.980388 137.84111 
L 357.161456 138.653007 
L 357.523591 147.6 
L 357.704659 87.777977 
L 358.066795 86.469563 
L 358.42893 102.02675 
L 358.609998 106.99505 
L 359.153201 97.415203 
L 359.334269 95.475905 
L 359.515337 95.372075 
L 359.696405 102.036692 
L 359.877473 147.6 
L 361.869218 147.6 
L 362.050286 86.605834 
L 362.231354 92.627128 
L 362.412422 93.178168 
L 362.955625 91.88802 
L 363.317761 89.630603 
L 363.498828 91.525699 
L 363.860964 99.313508 
L 364.042032 100.025467 
L 364.404167 147.6 
L 364.585235 129.43815 
L 364.766303 142.062177 
L 365.128438 132.395674 
L 365.309506 137.554715 
L 365.490574 133.290283 
L 365.671642 125.705051 
L 365.85271 123.894094 
L 366.033777 119.540067 
L 366.214845 124.471532 
L 366.395913 91.868768 
L 366.576981 94.156986 
L 366.939116 102.190035 
L 367.48232 79.447595 
L 367.663388 78.954421 
L 367.844455 79.870587 
L 368.206591 95.737353 
L 368.387659 99.241368 
L 368.568726 147.6 
L 370.017269 147.6 
L 370.198337 145.150944 
L 370.379404 127.129673 
L 370.560472 142.409082 
L 370.74154 78.106132 
L 370.922608 78.146551 
L 371.103676 72.59706 
L 371.284743 82.382008 
L 371.465811 80.148148 
L 371.646879 85.649378 
L 371.827947 81.690634 
L 372.009014 85.134036 
L 372.552218 114.460012 
L 372.733286 120.563666 
L 372.914353 147.349147 
L 373.095421 144.342729 
L 373.276489 147.6 
L 373.457557 146.235082 
L 373.638625 142.808189 
L 373.819692 147.6 
L 374.362896 147.6 
L 374.543963 145.850928 
L 374.725031 146.526372 
L 374.906099 146.186066 
L 375.268235 120.614764 
L 375.63037 115.676156 
L 375.811438 116.556618 
L 375.992506 108.121237 
L 376.173574 111.488784 
L 376.354641 120.394837 
L 376.535709 116.937253 
L 376.716777 118.490011 
L 376.897845 118.021466 
L 377.078913 119.403746 
L 377.25998 136.011089 
L 377.441048 138.870143 
L 377.622116 147.6 
L 379.251726 147.6 
L 379.432794 116.158597 
L 379.613862 121.736038 
L 379.794929 123.39426 
L 379.975997 128.332652 
L 380.338133 125.701118 
L 380.881336 118.567974 
L 381.062404 112.941046 
L 381.424539 116.108175 
L 381.605607 147.6 
L 381.786675 141.427118 
L 382.148811 147.6 
L 382.692014 147.6 
L 382.873082 146.973967 
L 383.05415 147.6 
L 383.597353 147.6 
L 383.778421 131.342291 
L 383.959489 135.249677 
L 384.140556 135.277431 
L 384.321624 131.093425 
L 384.68376 117.483557 
L 384.864827 112.018526 
L 385.045895 113.29464 
L 385.589099 100.355431 
L 385.770166 105.244406 
L 385.951234 139.365817 
L 386.132302 147.6 
L 387.218709 147.6 
L 387.399777 146.757128 
L 387.580844 139.64718 
L 387.761912 140.485558 
L 387.94298 147.6 
L 388.305115 130.380601 
L 388.486183 127.99146 
L 388.848319 131.511209 
L 389.57259 119.490124 
L 390.115793 89.892327 
L 390.296861 147.6 
L 390.477929 146.309698 
L 390.658997 147.6 
L 390.840064 144.371493 
L 391.021132 147.6 
L 392.288607 147.6 
L 392.469675 106.690549 
L 392.650742 104.472988 
L 392.83181 104.650953 
L 393.012878 102.698822 
L 393.193946 98.946039 
L 393.556081 112.230003 
L 393.918217 102.604437 
L 394.099285 105.139039 
L 394.280352 105.19753 
L 394.46142 105.764723 
L 394.642488 141.724603 
L 394.823556 138.676969 
L 395.004624 138.573598 
L 395.185691 147.6 
L 395.366759 138.224382 
L 395.547827 147.6 
L 396.634234 147.6 
L 396.815302 109.614458 
L 396.996369 105.401179 
L 397.358505 90.247294 
L 397.539573 80.878528 
L 397.72064 80.396064 
L 397.901708 82.196962 
L 398.082776 85.80293 
L 398.263844 99.801004 
L 398.444912 98.453399 
L 398.807047 120.655945 
L 398.988115 147.6 
L 399.169183 144.677691 
L 399.350251 144.823669 
L 399.531318 139.916292 
L 399.712386 147.6 
L 400.979861 147.6 
L 401.160928 144.24236 
L 401.341996 145.650099 
L 401.523064 144.789645 
L 401.704132 145.376989 
L 402.066267 138.464338 
L 402.247335 135.726313 
L 402.428403 137.062156 
L 402.609471 135.924808 
L 402.790539 135.772834 
L 402.971606 133.060578 
L 403.152674 133.653742 
L 403.333742 147.6 
L 403.695878 139.53896 
L 403.876945 138.443235 
L 404.058013 132.749943 
L 404.239081 131.481613 
L 404.601216 147.6 
L 405.325488 147.6 
L 405.325488 147.6 
" clip-path="url(#p1db22a4d68)" style="fill: none; stroke: #0000ff; stroke-width: 1.5; stroke-linecap: square"/>
   </g>
   <g id="patch_8">
    <path d="M 250.376727 152.64 
L 250.376727 41.76 
" style="fill: none; stroke: #000000; stroke-width: 0.8; stroke-linejoin: miter; stroke-linecap: square"/>
   </g>
   <g id="patch_9">
    <path d="M 412.704 152.64 
L 412.704 41.76 
" style="fill: none; stroke: #000000; stroke-width: 0.8; stroke-linejoin: miter; stroke-linecap: square"/>
   </g>
   <g id="patch_10">
    <path d="M 250.376727 152.64 
L 412.704 152.64 
" style="fill: none; stroke: #000000; stroke-width: 0.8; stroke-linejoin: miter; stroke-linecap: square"/>
   </g>
   <g id="patch_11">
    <path d="M 250.376727 41.76 
L 412.704 41.76 
" style="fill: none; stroke: #000000; stroke-width: 0.8; stroke-linejoin: miter; stroke-linecap: square"/>
   </g>
   <g id="text_18">
    <!-- RNN -->
    <g transform="translate(318.393801 35.76) scale(0.12 -0.12)">
     <defs>
      <path id="DejaVuSans-52" d="M 2841 2188 
Q 3044 2119 3236 1894 
Q 3428 1669 3622 1275 
L 4263 0 
L 3584 0 
L 2988 1197 
Q 2756 1666 2539 1819 
Q 2322 1972 1947 1972 
L 1259 1972 
L 1259 0 
L 628 0 
L 628 4666 
L 2053 4666 
Q 2853 4666 3247 4331 
Q 3641 3997 3641 3322 
Q 3641 2881 3436 2590 
Q 3231 2300 2841 2188 
z
M 1259 4147 
L 1259 2491 
L 2053 2491 
Q 2509 2491 2742 2702 
Q 2975 2913 2975 3322 
Q 2975 3731 2742 3939 
Q 2509 4147 2053 4147 
L 1259 4147 
z
" transform="scale(0.015625)"/>
     </defs>
     <use xlink:href="#DejaVuSans-52"/>
     <use xlink:href="#DejaVuSans-4e" x="69.482422"/>
     <use xlink:href="#DejaVuSans-4e" x="144.287109"/>
    </g>
   </g>
  </g>
  <g id="axes_3">
   <g id="patch_12">
    <path d="M 55.584 307.872 
L 217.911273 307.872 
L 217.911273 196.992 
L 55.584 196.992 
z
" style="fill: #ffffff"/>
   </g>
   <g id="matplotlib.axis_5">
    <g id="xtick_11">
     <g id="line2d_19">
      <g>
       <use xlink:href="#ma93512789c" x="62.962512" y="307.872" style="stroke: #000000; stroke-width: 0.8"/>
      </g>
     </g>
     <g id="text_19">
      <!-- 0 -->
      <g transform="translate(59.781262 322.470437) scale(0.1 -0.1)">
       <use xlink:href="#DejaVuSans-30"/>
      </g>
     </g>
    </g>
    <g id="xtick_12">
     <g id="line2d_20">
      <g>
       <use xlink:href="#ma93512789c" x="99.17607" y="307.872" style="stroke: #000000; stroke-width: 0.8"/>
      </g>
     </g>
     <g id="text_20">
      <!-- 200 -->
      <g transform="translate(89.63232 322.470437) scale(0.1 -0.1)">
       <use xlink:href="#DejaVuSans-32"/>
       <use xlink:href="#DejaVuSans-30" x="63.623047"/>
       <use xlink:href="#DejaVuSans-30" x="127.246094"/>
      </g>
     </g>
    </g>
    <g id="xtick_13">
     <g id="line2d_21">
      <g>
       <use xlink:href="#ma93512789c" x="135.389628" y="307.872" style="stroke: #000000; stroke-width: 0.8"/>
      </g>
     </g>
     <g id="text_21">
      <!-- 400 -->
      <g transform="translate(125.845878 322.470437) scale(0.1 -0.1)">
       <use xlink:href="#DejaVuSans-34"/>
       <use xlink:href="#DejaVuSans-30" x="63.623047"/>
       <use xlink:href="#DejaVuSans-30" x="127.246094"/>
      </g>
     </g>
    </g>
    <g id="xtick_14">
     <g id="line2d_22">
      <g>
       <use xlink:href="#ma93512789c" x="171.603186" y="307.872" style="stroke: #000000; stroke-width: 0.8"/>
      </g>
     </g>
     <g id="text_22">
      <!-- 600 -->
      <g transform="translate(162.059436 322.470437) scale(0.1 -0.1)">
       <use xlink:href="#DejaVuSans-36"/>
       <use xlink:href="#DejaVuSans-30" x="63.623047"/>
       <use xlink:href="#DejaVuSans-30" x="127.246094"/>
      </g>
     </g>
    </g>
    <g id="xtick_15">
     <g id="line2d_23">
      <g>
       <use xlink:href="#ma93512789c" x="207.816743" y="307.872" style="stroke: #000000; stroke-width: 0.8"/>
      </g>
     </g>
     <g id="text_23">
      <!-- 800 -->
      <g transform="translate(198.272993 322.470437) scale(0.1 -0.1)">
       <use xlink:href="#DejaVuSans-38"/>
       <use xlink:href="#DejaVuSans-30" x="63.623047"/>
       <use xlink:href="#DejaVuSans-30" x="127.246094"/>
      </g>
     </g>
    </g>
   </g>
   <g id="matplotlib.axis_6">
    <g id="ytick_7">
     <g id="line2d_24">
      <g>
       <use xlink:href="#m0935fe9a10" x="55.584" y="302.832" style="stroke: #000000; stroke-width: 0.8"/>
      </g>
     </g>
     <g id="text_24">
      <!-- 0 -->
      <g transform="translate(42.2215 306.631219) scale(0.1 -0.1)">
       <use xlink:href="#DejaVuSans-30"/>
      </g>
     </g>
    </g>
    <g id="ytick_8">
     <g id="line2d_25">
      <g>
       <use xlink:href="#m0935fe9a10" x="55.584" y="261.295964" style="stroke: #000000; stroke-width: 0.8"/>
      </g>
     </g>
     <g id="text_25">
      <!-- 20 -->
      <g transform="translate(35.859 265.095182) scale(0.1 -0.1)">
       <use xlink:href="#DejaVuSans-32"/>
       <use xlink:href="#DejaVuSans-30" x="63.623047"/>
      </g>
     </g>
    </g>
    <g id="ytick_9">
     <g id="line2d_26">
      <g>
       <use xlink:href="#m0935fe9a10" x="55.584" y="219.759927" style="stroke: #000000; stroke-width: 0.8"/>
      </g>
     </g>
     <g id="text_26">
      <!-- 40 -->
      <g transform="translate(35.859 223.559146) scale(0.1 -0.1)">
       <use xlink:href="#DejaVuSans-34"/>
       <use xlink:href="#DejaVuSans-30" x="63.623047"/>
      </g>
     </g>
    </g>
   </g>
   <g id="line2d_27">
    <path d="M 62.962512 202.032 
L 63.14358 206.526502 
L 63.505716 229.957651 
L 63.686784 247.97118 
L 63.867851 252.076573 
L 64.048919 251.087573 
L 64.229987 248.977387 
L 64.411055 251.569374 
L 64.592122 246.630991 
L 64.954258 256.241501 
L 65.135326 302.832 
L 66.946004 302.832 
L 67.127072 300.846241 
L 67.308139 248.537894 
L 67.489207 244.763352 
L 67.670275 243.648074 
L 67.851343 250.366709 
L 68.03241 242.347357 
L 68.213478 242.237508 
L 68.575614 252.809391 
L 68.756682 250.528157 
L 68.937749 246.100146 
L 69.118817 245.421136 
L 69.299885 251.351643 
L 69.480953 302.832 
L 71.472698 302.832 
L 71.653766 248.840233 
L 71.834834 254.472303 
L 72.015902 255.506247 
L 72.378037 260.485035 
L 72.559105 265.276892 
L 72.740173 265.387298 
L 72.921241 264.795138 
L 73.102309 266.397741 
L 73.283376 265.675187 
L 73.464444 263.510792 
L 73.645512 264.158843 
L 73.82658 302.832 
L 74.369783 302.832 
L 74.550851 297.633254 
L 74.731919 299.658217 
L 74.912986 298.177617 
L 75.094054 302.099502 
L 75.275122 302.832 
L 75.818325 302.832 
L 75.999393 253.995116 
L 76.180461 254.613272 
L 76.361529 249.73723 
L 76.723664 247.122144 
L 77.266868 269.980166 
L 77.447936 270.963794 
L 77.629003 273.078894 
L 77.810071 270.181151 
L 77.991139 271.899954 
L 78.172207 302.832 
L 80.163952 302.832 
L 80.34502 281.319762 
L 80.526088 286.012057 
L 81.250359 273.592173 
L 81.612495 278.346403 
L 81.793562 275.111888 
L 82.155698 279.417308 
L 82.336766 274.044671 
L 82.517834 302.832 
L 84.509579 302.832 
L 84.690647 272.828718 
L 84.871715 272.773735 
L 85.23385 277.800603 
L 85.414918 274.065933 
L 85.595986 274.681763 
L 85.958122 270.493429 
L 86.320257 273.451146 
L 86.501325 271.838869 
L 86.682393 268.216035 
L 86.863461 284.483778 
L 87.225596 293.178431 
L 87.587732 302.010463 
L 87.768799 302.832 
L 88.674138 302.832 
L 88.855206 301.347951 
L 89.036274 269.679018 
L 89.217342 270.744791 
L 89.39841 269.6065 
L 89.579477 271.096111 
L 89.760545 267.379531 
L 89.941613 267.700399 
L 90.122681 263.171125 
L 90.484816 262.133367 
L 90.665884 263.429857 
L 90.846952 262.17189 
L 91.02802 264.728967 
L 91.209087 302.832 
L 91.752291 302.832 
L 91.933359 300.747674 
L 92.114426 297.037848 
L 92.295494 302.832 
L 92.476562 302.832 
L 92.65763 302.399319 
L 92.838698 296.23062 
L 93.019765 295.72869 
L 93.200833 297.113659 
L 93.381901 257.557739 
L 93.925104 265.642315 
L 94.106172 264.75415 
L 94.28724 258.338891 
L 94.468308 258.894672 
L 94.649375 262.666302 
L 95.192579 265.992306 
L 95.373647 265.599147 
L 95.554714 302.832 
L 96.278986 302.832 
L 96.460053 301.843322 
L 96.641121 291.785672 
L 96.822189 302.832 
L 97.54646 302.832 
L 97.727528 281.864594 
L 97.908596 283.899553 
L 98.089663 281.515268 
L 98.270731 280.907199 
L 98.451799 280.924061 
L 98.632867 281.46968 
L 98.813935 277.816131 
L 99.357138 281.955369 
L 99.538206 281.450036 
L 99.719274 281.737006 
L 99.900341 302.832 
L 100.80568 302.832 
L 101.348884 296.770015 
L 101.529951 296.330879 
L 101.711019 296.183877 
L 101.892087 299.112188 
L 102.073155 278.99909 
L 102.254223 282.221127 
L 102.43529 282.402787 
L 102.616358 277.831858 
L 102.797426 279.874638 
L 102.978494 279.710529 
L 103.159562 283.366558 
L 103.340629 280.883202 
L 103.521697 280.579449 
L 104.0649 286.676569 
L 104.245968 302.832 
L 106.237714 302.832 
L 106.418782 279.199212 
L 106.59985 279.024356 
L 106.780917 279.465001 
L 106.961985 278.941028 
L 107.324121 271.150241 
L 107.505188 275.229933 
L 107.686256 274.502909 
L 107.867324 272.885866 
L 108.048392 273.585459 
L 108.22946 272.769648 
L 108.410527 267.413148 
L 108.591595 297.705288 
L 108.772663 292.460259 
L 108.953731 300.802558 
L 109.134799 300.04732 
L 109.315866 298.625749 
L 109.496934 298.733222 
L 109.678002 291.751961 
L 109.85907 291.744703 
L 110.402273 302.832 
L 110.583341 302.832 
L 110.764409 275.16602 
L 110.945476 275.727277 
L 111.126544 272.952564 
L 111.307612 274.083188 
L 111.48868 271.067794 
L 111.850815 282.530006 
L 112.031883 282.557083 
L 112.212951 280.23428 
L 112.394019 280.9241 
L 112.575087 278.530679 
L 112.756154 278.541747 
L 112.937222 302.832 
L 114.7479 302.832 
L 114.928968 299.246672 
L 115.110036 279.138582 
L 115.291103 272.85921 
L 115.472171 259.990795 
L 115.653239 260.952714 
L 116.196442 274.167551 
L 116.37751 264.099621 
L 116.558578 268.199612 
L 116.739646 260.155903 
L 116.920713 257.553434 
L 117.101781 256.571485 
L 117.282849 302.832 
L 117.463917 302.832 
L 118.00712 297.957501 
L 118.188188 290.722829 
L 118.369256 300.396157 
L 118.550324 302.832 
L 119.274595 302.832 
L 119.455663 283.369293 
L 119.63673 277.204911 
L 119.817798 284.453122 
L 119.998866 283.220274 
L 120.361001 284.355612 
L 120.542069 282.353889 
L 120.723137 283.321726 
L 121.085273 281.040756 
L 121.26634 280.683436 
L 121.447408 279.241457 
L 121.628476 302.832 
L 123.620222 302.832 
L 123.801289 259.716421 
L 123.982357 259.821962 
L 124.163425 258.986365 
L 124.344493 254.541083 
L 124.525561 254.157103 
L 124.706628 256.244374 
L 125.068764 256.400207 
L 125.249832 257.843638 
L 125.793035 271.122252 
L 125.974103 302.832 
L 127.965849 302.832 
L 128.146916 270.174543 
L 128.509052 267.469548 
L 128.871188 275.909373 
L 129.052255 275.982846 
L 129.414391 271.065327 
L 129.595459 275.038828 
L 129.776526 275.296841 
L 129.957594 261.869144 
L 130.138662 259.237114 
L 130.31973 302.832 
L 131.225069 302.832 
L 131.406137 295.428243 
L 131.587204 302.832 
L 132.130408 302.832 
L 132.311476 302.5842 
L 132.492543 232.174511 
L 132.673611 236.04157 
L 132.854679 231.793091 
L 133.035747 236.752201 
L 133.216814 234.461715 
L 133.397882 241.018548 
L 133.57895 240.866591 
L 133.760018 241.953821 
L 133.941086 234.451705 
L 134.122153 234.008055 
L 134.303221 237.188089 
L 134.484289 243.58543 
L 134.665357 302.832 
L 135.027492 302.832 
L 135.20856 301.924031 
L 135.389628 302.01584 
L 135.570696 302.832 
L 136.476035 302.832 
L 136.657102 298.36676 
L 136.83817 232.098298 
L 137.019238 229.876745 
L 137.200306 223.92973 
L 137.381374 228.787151 
L 137.562441 230.123968 
L 137.924577 261.695295 
L 138.105645 275.935192 
L 138.286713 271.283011 
L 138.46778 270.197329 
L 138.648848 272.310606 
L 139.373119 296.591408 
L 139.735255 296.34816 
L 139.916323 295.79499 
L 140.09739 285.003678 
L 140.459526 295.785557 
L 140.640594 297.965171 
L 140.821662 297.615693 
L 141.002729 296.994555 
L 141.183797 300.533107 
L 141.545933 299.386519 
L 141.908068 291.384589 
L 142.270204 296.758653 
L 142.451272 294.874084 
L 142.813407 288.136741 
L 143.175543 292.277043 
L 143.356611 302.832 
L 144.986221 302.832 
L 145.167289 295.897123 
L 145.348356 296.411499 
L 145.529424 274.719356 
L 145.710492 281.215359 
L 145.89156 280.996007 
L 146.072627 286.221585 
L 146.253695 284.369344 
L 146.796899 292.525096 
L 146.977966 291.309449 
L 147.159034 291.211064 
L 147.340102 283.391665 
L 147.52117 283.028849 
L 147.702238 302.832 
L 149.693983 302.832 
L 149.875051 287.910966 
L 150.056119 287.528438 
L 150.237187 287.499334 
L 150.599322 284.017731 
L 150.961458 284.551336 
L 151.142526 286.07105 
L 151.323593 285.379394 
L 151.685729 276.348077 
L 151.866797 276.584552 
L 152.047865 302.832 
L 154.03961 302.832 
L 154.220678 279.243157 
L 154.763881 286.987016 
L 154.944949 286.933627 
L 155.126017 288.973817 
L 155.307085 285.730754 
L 155.488153 285.419057 
L 155.850288 272.819533 
L 156.212424 251.38093 
L 156.393491 302.832 
L 157.29883 302.832 
L 157.479898 301.562783 
L 157.660966 302.082979 
L 157.842034 301.554505 
L 158.023102 302.832 
L 158.385237 302.832 
L 158.566305 239.903885 
L 158.747373 248.292856 
L 158.928441 246.749011 
L 159.109508 242.305063 
L 159.290576 242.508143 
L 159.471644 240.875525 
L 159.652712 240.989718 
L 159.833779 238.8405 
L 160.195915 243.745858 
L 160.558051 257.723952 
L 160.739118 302.832 
L 162.730864 302.832 
L 162.911932 243.009977 
L 163.274067 241.701563 
L 163.636203 257.25875 
L 163.817271 262.22705 
L 164.360474 252.647203 
L 164.541542 250.707905 
L 164.72261 250.604075 
L 164.903678 257.268692 
L 165.084745 302.832 
L 167.076491 302.832 
L 167.257559 241.837834 
L 167.438627 247.859128 
L 167.619694 248.410168 
L 168.162898 247.12002 
L 168.525033 244.862603 
L 168.706101 246.757699 
L 169.068237 254.545508 
L 169.249304 255.257467 
L 169.430372 302.832 
L 171.422118 302.832 
L 171.603186 247.100768 
L 171.784254 249.388986 
L 172.146389 257.422035 
L 172.689592 234.679595 
L 172.87066 234.186421 
L 173.051728 235.102587 
L 173.413864 250.969353 
L 173.594931 254.473368 
L 173.775999 302.832 
L 175.405609 302.832 
L 175.586677 300.92372 
L 175.767745 302.832 
L 175.948813 233.338132 
L 176.12988 233.378551 
L 176.310948 227.82906 
L 176.492016 237.614008 
L 176.673084 235.380148 
L 176.854152 240.881378 
L 177.035219 236.922634 
L 177.216287 240.366036 
L 177.759491 269.692012 
L 177.940558 275.795666 
L 178.121626 302.832 
L 178.845897 302.832 
L 179.026965 302.45273 
L 179.208033 302.832 
L 180.113372 302.832 
L 180.475507 275.846764 
L 180.837643 270.908156 
L 181.018711 271.788618 
L 181.199779 263.353237 
L 181.380846 266.720784 
L 181.561914 275.626837 
L 181.742982 272.169253 
L 181.92405 273.722011 
L 182.105117 273.253466 
L 182.286185 274.635746 
L 182.467253 302.832 
L 184.458999 302.832 
L 184.640067 271.390597 
L 184.821134 276.968038 
L 185.002202 278.62626 
L 185.18327 283.564652 
L 185.545405 280.933118 
L 186.088609 273.799974 
L 186.269677 268.173046 
L 186.631812 271.340175 
L 186.81288 302.832 
L 187.175016 287.252258 
L 187.899287 302.832 
L 188.804626 302.832 
L 188.985693 286.574291 
L 189.166761 290.481677 
L 189.347829 290.509431 
L 189.528897 286.325425 
L 189.891032 272.715557 
L 190.0721 267.250526 
L 190.253168 268.52664 
L 190.796371 255.587431 
L 190.977439 260.476406 
L 191.158507 302.832 
L 192.425981 302.832 
L 192.607049 302.46197 
L 192.788117 302.832 
L 193.150253 302.832 
L 193.512388 285.612601 
L 193.693456 283.22346 
L 194.055592 286.743209 
L 194.779863 274.722124 
L 195.323066 245.124327 
L 195.504134 301.173213 
L 195.685202 302.832 
L 196.409473 302.832 
L 196.590541 297.954384 
L 196.771608 302.832 
L 197.49588 302.832 
L 197.676947 261.922549 
L 197.858015 259.704988 
L 198.039083 259.882953 
L 198.220151 257.930822 
L 198.401218 254.178039 
L 198.763354 267.462003 
L 199.12549 257.836437 
L 199.306557 260.371039 
L 199.487625 260.42953 
L 199.668693 260.996723 
L 199.849761 302.832 
L 201.841506 302.832 
L 202.022574 264.846458 
L 202.203642 260.633179 
L 202.565778 245.479294 
L 202.746845 236.110528 
L 202.927913 235.628064 
L 203.108981 237.428962 
L 203.290049 241.03493 
L 203.471117 255.033004 
L 203.652184 253.685399 
L 204.01432 275.887945 
L 204.195388 294.941655 
L 204.376456 297.342427 
L 204.557523 296.146686 
L 204.738591 300.472622 
L 204.919659 299.821505 
L 205.100727 302.832 
L 206.187133 302.832 
L 206.368201 299.47436 
L 206.549269 300.882099 
L 206.730337 300.021645 
L 206.911405 300.608989 
L 207.27354 293.696338 
L 207.454608 290.958313 
L 207.635676 292.294156 
L 207.816743 291.156808 
L 207.997811 291.004834 
L 208.178879 288.292578 
L 208.359947 288.885742 
L 208.541015 302.832 
L 208.722082 302.832 
L 209.265286 293.778266 
L 209.446354 296.736782 
L 209.627421 295.343115 
L 209.808489 295.645429 
L 209.989557 299.522895 
L 210.170625 300.022133 
L 210.351693 301.588974 
L 210.53276 300.633282 
L 210.53276 300.633282 
" clip-path="url(#p008ad6e0d2)" style="fill: none; stroke: #ffa500; stroke-width: 1.5; stroke-linecap: square"/>
   </g>
   <g id="patch_13">
    <path d="M 55.584 307.872 
L 55.584 196.992 
" style="fill: none; stroke: #000000; stroke-width: 0.8; stroke-linejoin: miter; stroke-linecap: square"/>
   </g>
   <g id="patch_14">
    <path d="M 217.911273 307.872 
L 217.911273 196.992 
" style="fill: none; stroke: #000000; stroke-width: 0.8; stroke-linejoin: miter; stroke-linecap: square"/>
   </g>
   <g id="patch_15">
    <path d="M 55.584 307.872 
L 217.911273 307.872 
" style="fill: none; stroke: #000000; stroke-width: 0.8; stroke-linejoin: miter; stroke-linecap: square"/>
   </g>
   <g id="patch_16">
    <path d="M 55.584 196.992 
L 217.911273 196.992 
" style="fill: none; stroke: #000000; stroke-width: 0.8; stroke-linejoin: miter; stroke-linecap: square"/>
   </g>
   <g id="text_27">
    <!-- VAE -->
    <g transform="translate(125.130136 190.992) scale(0.12 -0.12)">
     <defs>
      <path id="DejaVuSans-56" d="M 1831 0 
L 50 4666 
L 709 4666 
L 2188 738 
L 3669 4666 
L 4325 4666 
L 2547 0 
L 1831 0 
z
" transform="scale(0.015625)"/>
      <path id="DejaVuSans-41" d="M 2188 4044 
L 1331 1722 
L 3047 1722 
L 2188 4044 
z
M 1831 4666 
L 2547 4666 
L 4325 0 
L 3669 0 
L 3244 1197 
L 1141 1197 
L 716 0 
L 50 0 
L 1831 4666 
z
" transform="scale(0.015625)"/>
      <path id="DejaVuSans-45" d="M 628 4666 
L 3578 4666 
L 3578 4134 
L 1259 4134 
L 1259 2753 
L 3481 2753 
L 3481 2222 
L 1259 2222 
L 1259 531 
L 3634 531 
L 3634 0 
L 628 0 
L 628 4666 
z
" transform="scale(0.015625)"/>
     </defs>
     <use xlink:href="#DejaVuSans-56"/>
     <use xlink:href="#DejaVuSans-41" x="62.033203"/>
     <use xlink:href="#DejaVuSans-45" x="130.441406"/>
    </g>
   </g>
  </g>
  <g id="axes_4">
   <g id="patch_17">
    <path d="M 250.376727 307.872 
L 412.704 307.872 
L 412.704 196.992 
L 250.376727 196.992 
z
" style="fill: #ffffff"/>
   </g>
   <g id="matplotlib.axis_7">
    <g id="xtick_16">
     <g id="line2d_28">
      <g>
       <use xlink:href="#ma93512789c" x="257.75524" y="307.872" style="stroke: #000000; stroke-width: 0.8"/>
      </g>
     </g>
     <g id="text_28">
      <!-- 0 -->
      <g transform="translate(254.57399 322.470437) scale(0.1 -0.1)">
       <use xlink:href="#DejaVuSans-30"/>
      </g>
     </g>
    </g>
    <g id="xtick_17">
     <g id="line2d_29">
      <g>
       <use xlink:href="#ma93512789c" x="293.968797" y="307.872" style="stroke: #000000; stroke-width: 0.8"/>
      </g>
     </g>
     <g id="text_29">
      <!-- 200 -->
      <g transform="translate(284.425047 322.470437) scale(0.1 -0.1)">
       <use xlink:href="#DejaVuSans-32"/>
       <use xlink:href="#DejaVuSans-30" x="63.623047"/>
       <use xlink:href="#DejaVuSans-30" x="127.246094"/>
      </g>
     </g>
    </g>
    <g id="xtick_18">
     <g id="line2d_30">
      <g>
       <use xlink:href="#ma93512789c" x="330.182355" y="307.872" style="stroke: #000000; stroke-width: 0.8"/>
      </g>
     </g>
     <g id="text_30">
      <!-- 400 -->
      <g transform="translate(320.638605 322.470437) scale(0.1 -0.1)">
       <use xlink:href="#DejaVuSans-34"/>
       <use xlink:href="#DejaVuSans-30" x="63.623047"/>
       <use xlink:href="#DejaVuSans-30" x="127.246094"/>
      </g>
     </g>
    </g>
    <g id="xtick_19">
     <g id="line2d_31">
      <g>
       <use xlink:href="#ma93512789c" x="366.395913" y="307.872" style="stroke: #000000; stroke-width: 0.8"/>
      </g>
     </g>
     <g id="text_31">
      <!-- 600 -->
      <g transform="translate(356.852163 322.470437) scale(0.1 -0.1)">
       <use xlink:href="#DejaVuSans-36"/>
       <use xlink:href="#DejaVuSans-30" x="63.623047"/>
       <use xlink:href="#DejaVuSans-30" x="127.246094"/>
      </g>
     </g>
    </g>
    <g id="xtick_20">
     <g id="line2d_32">
      <g>
       <use xlink:href="#ma93512789c" x="402.609471" y="307.872" style="stroke: #000000; stroke-width: 0.8"/>
      </g>
     </g>
     <g id="text_32">
      <!-- 800 -->
      <g transform="translate(393.065721 322.470437) scale(0.1 -0.1)">
       <use xlink:href="#DejaVuSans-38"/>
       <use xlink:href="#DejaVuSans-30" x="63.623047"/>
       <use xlink:href="#DejaVuSans-30" x="127.246094"/>
      </g>
     </g>
    </g>
   </g>
   <g id="matplotlib.axis_8">
    <g id="ytick_10">
     <g id="line2d_33">
      <g>
       <use xlink:href="#m0935fe9a10" x="250.376727" y="302.832" style="stroke: #000000; stroke-width: 0.8"/>
      </g>
     </g>
     <g id="text_33">
      <!-- 0 -->
      <g transform="translate(237.014227 306.631219) scale(0.1 -0.1)">
       <use xlink:href="#DejaVuSans-30"/>
      </g>
     </g>
    </g>
    <g id="ytick_11">
     <g id="line2d_34">
      <g>
       <use xlink:href="#m0935fe9a10" x="250.376727" y="261.291776" style="stroke: #000000; stroke-width: 0.8"/>
      </g>
     </g>
     <g id="text_34">
      <!-- 20 -->
      <g transform="translate(230.651727 265.090995) scale(0.1 -0.1)">
       <use xlink:href="#DejaVuSans-32"/>
       <use xlink:href="#DejaVuSans-30" x="63.623047"/>
      </g>
     </g>
    </g>
    <g id="ytick_12">
     <g id="line2d_35">
      <g>
       <use xlink:href="#m0935fe9a10" x="250.376727" y="219.751552" style="stroke: #000000; stroke-width: 0.8"/>
      </g>
     </g>
     <g id="text_35">
      <!-- 40 -->
      <g transform="translate(230.651727 223.55077) scale(0.1 -0.1)">
       <use xlink:href="#DejaVuSans-34"/>
       <use xlink:href="#DejaVuSans-30" x="63.623047"/>
      </g>
     </g>
    </g>
   </g>
   <g id="line2d_36">
    <path d="M 257.75524 202.032 
L 257.936307 206.52232 
L 258.298443 229.948561 
L 258.479511 247.965146 
L 258.660579 252.063885 
L 258.841646 251.093701 
L 259.022714 248.971984 
L 259.203782 251.577846 
L 259.38485 246.62127 
L 259.746985 256.230139 
L 259.928053 274.546048 
L 260.109121 280.275149 
L 260.290189 252.569849 
L 260.471257 264.209856 
L 260.652324 266.583982 
L 260.833392 266.622789 
L 261.01446 276.361279 
L 261.195528 278.576802 
L 261.557663 259.108366 
L 261.738731 260.343697 
L 261.919799 268.343416 
L 262.100867 248.525983 
L 262.281934 244.765691 
L 262.463002 243.647541 
L 262.64407 250.357701 
L 262.825138 242.348757 
L 263.006206 242.221199 
L 263.368341 252.81038 
L 263.549409 250.519293 
L 263.730477 246.109628 
L 263.911544 245.412458 
L 264.092612 251.366614 
L 264.27368 275.632107 
L 264.454748 268.001131 
L 264.816883 273.812508 
L 264.997951 271.503543 
L 265.179019 263.164899 
L 265.360087 262.11436 
L 265.541155 262.467539 
L 265.722222 267.469345 
L 266.084358 255.7763 
L 266.265426 253.846904 
L 266.446494 248.845436 
L 266.627561 254.476757 
L 266.808629 255.50218 
L 267.170765 260.479154 
L 267.351832 265.279222 
L 267.5329 265.391322 
L 267.713968 264.790362 
L 267.895036 266.364602 
L 268.076104 265.515621 
L 268.257171 263.51305 
L 268.438239 264.146948 
L 268.619307 273.259203 
L 268.800375 262.276256 
L 268.981443 279.249407 
L 269.16251 266.066102 
L 269.343578 263.10169 
L 269.524646 262.731566 
L 269.705714 265.990216 
L 269.886782 275.297004 
L 270.067849 268.303475 
L 270.248917 274.037463 
L 270.429985 264.825227 
L 270.611053 267.386753 
L 270.79212 253.994363 
L 270.973188 254.606417 
L 271.154256 249.712243 
L 271.516392 247.11017 
L 272.059595 269.970326 
L 272.240663 270.968571 
L 272.421731 273.080881 
L 272.602798 270.186824 
L 272.783866 271.868413 
L 272.964934 284.144607 
L 273.146002 272.377682 
L 273.508137 282.323089 
L 273.689205 278.109095 
L 274.413476 285.907867 
L 274.594544 295.121605 
L 274.775612 279.6105 
L 274.95668 293.743819 
L 275.137747 281.320814 
L 275.318815 285.998626 
L 276.043086 273.580845 
L 276.405222 278.327557 
L 276.58629 275.121952 
L 276.948425 279.42118 
L 277.129493 274.044205 
L 277.310561 284.882816 
L 277.491629 288.122416 
L 277.672696 284.89586 
L 277.853764 294.934464 
L 278.034832 286.260655 
L 278.2159 293.894679 
L 278.396968 281.730798 
L 278.578035 277.326292 
L 278.759103 278.756746 
L 279.121239 277.095619 
L 279.302307 281.559079 
L 279.483374 272.820357 
L 279.664442 272.878971 
L 280.026578 277.806277 
L 280.207645 274.064751 
L 280.388713 274.691443 
L 280.750849 270.491953 
L 281.112984 273.448805 
L 281.294052 271.846515 
L 281.47512 265.865153 
L 281.656188 277.802391 
L 281.837256 279.46374 
L 282.018323 282.719974 
L 282.199391 276.007197 
L 282.380459 282.782472 
L 282.742595 274.612693 
L 282.923662 280.175181 
L 283.285798 274.120635 
L 283.466866 278.728434 
L 283.829001 269.679752 
L 284.010069 270.740418 
L 284.191137 269.61522 
L 284.372205 271.093817 
L 284.553272 267.380975 
L 284.73434 267.685595 
L 284.915408 263.158294 
L 285.277544 262.136112 
L 285.458611 263.437756 
L 285.639679 262.146985 
L 285.820747 264.724172 
L 286.001815 271.386594 
L 286.182883 269.291245 
L 286.36395 269.155145 
L 286.545018 261.163828 
L 286.726086 272.236659 
L 286.907154 268.304661 
L 287.088221 270.25055 
L 287.269289 275.216869 
L 287.631425 263.772161 
L 287.812493 264.843604 
L 287.99356 262.728326 
L 288.174628 257.553019 
L 288.717832 265.628413 
L 288.898899 264.742622 
L 289.079967 258.32511 
L 289.261035 258.891575 
L 289.442103 262.658721 
L 289.985306 265.986301 
L 290.166374 265.596942 
L 290.347442 271.234931 
L 290.528509 272.939318 
L 290.709577 287.810702 
L 290.890645 281.633857 
L 291.252781 289.050962 
L 291.614916 281.987404 
L 291.977052 292.699405 
L 292.15812 293.537456 
L 292.339187 291.378598 
L 292.520255 281.874166 
L 292.701323 283.908216 
L 292.882391 281.518496 
L 293.063459 280.909618 
L 293.244526 280.918911 
L 293.425594 281.470802 
L 293.606662 277.818018 
L 294.149865 281.947573 
L 294.330933 281.442916 
L 294.512001 281.736551 
L 294.693069 285.733624 
L 294.874136 283.027605 
L 295.055204 284.83097 
L 295.41734 275.315164 
L 295.779475 288.267206 
L 296.141611 284.053468 
L 296.322679 287.606893 
L 296.503746 283.018659 
L 296.684814 285.243936 
L 296.865882 278.987834 
L 297.04695 282.216339 
L 297.228018 282.390218 
L 297.409085 277.83899 
L 297.590153 279.879749 
L 297.771221 279.537135 
L 297.952289 283.373086 
L 298.133357 280.92445 
L 298.314424 280.567433 
L 298.857628 286.67439 
L 299.219763 293.253294 
L 299.581899 287.588059 
L 299.762967 287.920796 
L 299.944034 288.850333 
L 300.125102 288.14756 
L 300.30617 289.247368 
L 300.487238 288.057791 
L 300.668306 288.764386 
L 300.849373 280.125183 
L 301.030441 281.985296 
L 301.211509 279.20719 
L 301.392577 279.017293 
L 301.573645 279.466615 
L 301.754712 278.934322 
L 301.93578 275.493161 
L 302.116848 274.895001 
L 302.297916 275.220049 
L 302.478984 274.495182 
L 302.660051 272.881619 
L 302.841119 273.572618 
L 303.022187 272.779384 
L 303.203255 267.402983 
L 303.384322 276.715387 
L 303.56539 273.237828 
L 303.927526 299.36081 
L 304.108594 294.600641 
L 304.289661 296.45677 
L 304.470729 293.168311 
L 304.651797 274.56022 
L 304.832865 283.046782 
L 305.013933 276.224529 
L 305.195 278.543155 
L 305.376068 278.080004 
L 305.557136 275.163064 
L 305.738204 275.724704 
L 305.919272 272.936554 
L 306.100339 274.080788 
L 306.281407 271.071475 
L 306.643543 282.529859 
L 306.82461 282.547269 
L 307.005678 280.228122 
L 307.186746 280.925939 
L 307.367814 278.519016 
L 307.548882 278.549728 
L 307.729949 296.670027 
L 307.911017 290.055876 
L 308.092085 287.7587 
L 308.273153 291.629572 
L 308.454221 282.991251 
L 308.635288 288.302598 
L 308.816356 287.100381 
L 308.997424 288.887557 
L 309.178492 287.987744 
L 309.359559 285.099334 
L 309.540627 291.998528 
L 309.721695 288.509921 
L 310.264898 259.975075 
L 310.445966 260.945636 
L 310.98917 274.166489 
L 311.170237 264.085485 
L 311.351305 268.270068 
L 311.532373 260.151358 
L 311.894509 256.563279 
L 312.075576 270.151064 
L 312.256644 262.764375 
L 312.437712 270.747633 
L 312.61878 269.80779 
L 312.799847 274.002576 
L 312.980915 281.190524 
L 313.161983 281.000946 
L 313.343051 282.554302 
L 313.524119 295.022704 
L 313.705186 280.334743 
L 313.886254 276.066003 
L 314.067322 282.378364 
L 314.24839 283.380424 
L 314.429458 277.202107 
L 314.610525 284.456177 
L 314.791593 283.214247 
L 315.153729 284.362273 
L 315.334797 282.275467 
L 315.515864 283.326588 
L 315.878 281.024246 
L 316.059068 280.676617 
L 316.240135 279.249039 
L 316.421203 286.540853 
L 316.783339 278.363225 
L 316.964407 271.19924 
L 317.145474 277.71257 
L 317.326542 278.095696 
L 317.50761 274.734415 
L 317.869746 261.803792 
L 318.412949 269.57676 
L 318.594017 259.703749 
L 318.775085 259.822891 
L 318.956152 258.977225 
L 319.13722 254.534579 
L 319.318288 254.152372 
L 319.499356 256.255576 
L 319.861491 256.391143 
L 320.042559 257.844679 
L 320.585762 271.113887 
L 320.76683 272.635408 
L 320.947898 277.16215 
L 321.128966 274.98086 
L 321.310034 297.880771 
L 321.491101 279.983614 
L 321.672169 278.180054 
L 322.034305 292.028688 
L 322.215373 292.010244 
L 322.39644 286.672919 
L 322.577508 286.188824 
L 322.758576 284.08148 
L 322.939644 270.188547 
L 323.301779 267.48387 
L 323.663915 275.892199 
L 323.844983 275.96678 
L 324.207118 271.060223 
L 324.388186 275.047512 
L 324.569254 275.306694 
L 324.750322 261.865116 
L 324.931389 259.240412 
L 325.112457 271.642964 
L 325.474593 256.769028 
L 325.65566 256.399793 
L 325.836728 270.67488 
L 326.017796 257.445598 
L 326.198864 257.873971 
L 326.379932 259.839368 
L 326.560999 263.316521 
L 326.742067 263.436585 
L 326.923135 267.494234 
L 327.104203 266.013265 
L 327.285271 232.144234 
L 327.466338 236.023057 
L 327.647406 231.799048 
L 327.828474 236.741701 
L 328.009542 234.453617 
L 328.19061 241.012063 
L 328.371677 240.868896 
L 328.552745 241.954606 
L 328.733813 234.447872 
L 328.914881 233.997784 
L 329.095948 237.493354 
L 329.277016 243.576276 
L 329.458084 271.04719 
L 329.639152 258.25294 
L 329.82022 262.67995 
L 330.001287 261.119612 
L 330.182355 267.791147 
L 330.363423 278.767601 
L 330.544491 267.983366 
L 330.725559 269.861175 
L 330.906626 269.261712 
L 331.087694 261.269494 
L 331.268762 287.113975 
L 331.44983 269.627179 
L 331.630898 231.979567 
L 331.811965 229.862756 
L 331.993033 223.928384 
L 332.174101 228.76033 
L 332.355169 230.104096 
L 332.717304 261.696085 
L 332.898372 275.922737 
L 333.07944 271.283151 
L 333.260508 270.184919 
L 333.441575 272.34553 
L 334.165847 296.851647 
L 334.346914 295.511381 
L 334.527982 286.769396 
L 334.70905 293.155612 
L 334.890118 289.616653 
L 335.252253 300.889492 
L 335.433321 302.832 
L 335.614389 302.832 
L 335.795457 300.015982 
L 335.976524 300.536078 
L 336.33866 299.402601 
L 336.700796 291.388441 
L 337.062931 296.756913 
L 337.243999 294.880485 
L 337.606135 288.138064 
L 338.330406 299.719491 
L 338.511474 299.615152 
L 338.692541 302.832 
L 338.873609 302.832 
L 339.235745 267.767548 
L 339.416812 270.804969 
L 339.59788 286.227675 
L 339.778948 276.791777 
L 339.960016 277.365082 
L 340.141084 269.316415 
L 340.503219 281.214426 
L 340.684287 280.984656 
L 340.865355 286.231517 
L 341.046423 284.383662 
L 341.589626 292.532029 
L 341.770694 291.30509 
L 341.951761 291.204071 
L 342.132829 283.38671 
L 342.313897 283.03752 
L 342.494965 283.856845 
L 342.676033 286.166054 
L 342.8571 286.925795 
L 343.038168 297.891779 
L 343.219236 289.522757 
L 343.400304 290.300056 
L 343.581372 294.940934 
L 343.762439 294.584072 
L 343.943507 296.319085 
L 344.124575 296.462388 
L 344.305643 300.116638 
L 344.486711 295.509495 
L 344.667778 287.920788 
L 344.848846 287.54191 
L 345.029914 287.493883 
L 345.392049 284.009638 
L 345.573117 284.261173 
L 345.754185 284.152678 
L 345.935253 286.058907 
L 346.116321 285.374415 
L 346.478456 276.338 
L 346.659524 276.586087 
L 346.840592 274.155784 
L 347.02166 277.494738 
L 347.202727 285.001663 
L 347.383795 270.175246 
L 347.564863 283.724218 
L 347.745931 279.023819 
L 347.926999 267.987582 
L 348.289134 286.968605 
L 348.470202 273.974852 
L 348.832337 286.560804 
L 349.013405 279.196763 
L 349.556609 286.988874 
L 349.737676 286.930857 
L 349.918744 288.963316 
L 350.099812 285.723779 
L 350.28088 285.422195 
L 350.643015 272.822081 
L 351.005151 251.361889 
L 351.186219 253.048771 
L 351.367287 249.898507 
L 351.548354 252.743213 
L 351.729422 261.788479 
L 351.91049 257.19042 
L 352.091558 255.728385 
L 352.272625 260.58333 
L 352.453693 271.076333 
L 352.634761 245.662223 
L 352.815829 259.806239 
L 352.996897 252.673758 
L 353.177964 266.337164 
L 353.359032 239.906106 
L 353.5401 248.276264 
L 353.721168 246.755209 
L 353.902236 242.303366 
L 354.083303 242.50393 
L 354.264371 240.868383 
L 354.445439 240.986854 
L 354.626507 238.829342 
L 354.988642 243.737095 
L 355.350778 257.81202 
L 355.531846 276.575016 
L 355.712913 272.92426 
L 355.893981 279.624549 
L 356.075049 279.100602 
L 356.437185 264.287351 
L 356.618252 270.814899 
L 356.79932 273.10442 
L 356.980388 258.048251 
L 357.161456 256.056781 
L 357.342524 262.158502 
L 357.523591 262.407465 
L 357.704659 243.019178 
L 358.066795 241.693948 
L 358.42893 257.24183 
L 358.609998 262.231239 
L 359.153201 252.643589 
L 359.334269 250.703509 
L 359.515337 250.600791 
L 359.696405 257.261226 
L 359.877473 288.011856 
L 360.05854 273.80355 
L 360.239608 268.669349 
L 360.420676 255.99288 
L 360.782812 266.705603 
L 360.963879 262.716614 
L 361.144947 282.563094 
L 361.326015 248.153056 
L 361.507083 253.857056 
L 361.869218 235.845803 
L 362.231354 247.851152 
L 362.412422 248.395713 
L 362.955625 247.106284 
L 363.317761 244.860808 
L 363.498828 246.756257 
L 363.860964 254.486299 
L 364.042032 255.262561 
L 364.404167 265.107754 
L 364.585235 260.674744 
L 364.766303 267.450176 
L 364.947371 262.63246 
L 365.128438 266.792836 
L 365.309506 264.618537 
L 365.490574 274.400406 
L 365.671642 263.016327 
L 365.85271 259.710493 
L 366.033777 250.078476 
L 366.214845 252.302658 
L 366.395913 247.094939 
L 366.576981 249.40416 
L 366.939116 257.416544 
L 367.48232 234.673968 
L 367.663388 234.17848 
L 367.844455 235.096544 
L 368.206591 250.953673 
L 368.387659 254.462293 
L 368.568726 261.204163 
L 368.930862 290.733561 
L 369.474065 271.25523 
L 369.655133 267.617556 
L 369.836201 268.672128 
L 370.017269 267.476743 
L 370.198337 279.436324 
L 370.379404 253.401287 
L 370.560472 247.58803 
L 370.74154 233.268138 
L 370.922608 233.480957 
L 371.103676 227.839458 
L 371.284743 237.622044 
L 371.465811 235.369417 
L 371.646879 240.295049 
L 371.827947 236.929938 
L 372.009014 240.374545 
L 372.552218 269.690086 
L 372.733286 275.773651 
L 372.914353 291.721728 
L 373.095421 280.903665 
L 373.276489 291.987669 
L 373.457557 285.378599 
L 373.638625 289.146341 
L 373.819692 285.922211 
L 374.181828 293.315394 
L 374.362896 290.48707 
L 374.543963 284.865456 
L 374.725031 283.015851 
L 374.906099 291.725878 
L 375.087167 286.279889 
L 375.268235 275.8529 
L 375.63037 270.905104 
L 375.811438 271.791115 
L 375.992506 263.348073 
L 376.173574 266.716678 
L 376.354641 275.626065 
L 376.535709 272.16138 
L 376.716777 273.727912 
L 376.897845 273.256953 
L 377.078913 274.611223 
L 377.25998 285.729767 
L 377.441048 275.311307 
L 377.622116 283.811381 
L 377.803184 270.597366 
L 377.984251 281.026976 
L 378.165319 270.160362 
L 378.346387 270.249672 
L 378.527455 269.951685 
L 378.708523 290.465409 
L 379.070658 276.553363 
L 379.251726 286.096995 
L 379.432794 271.381522 
L 379.613862 276.967661 
L 379.794929 278.617647 
L 379.975997 283.568274 
L 380.157065 282.576644 
L 380.700268 276.648083 
L 380.881336 273.79832 
L 381.062404 268.164184 
L 381.424539 271.342234 
L 381.605607 268.288066 
L 381.786675 275.189563 
L 381.967743 255.141609 
L 382.329878 257.62441 
L 382.510946 260.68646 
L 382.873082 289.282194 
L 383.05415 289.717199 
L 383.235217 297.313657 
L 383.416285 299.368042 
L 383.597353 298.225085 
L 383.778421 286.561542 
L 383.959489 290.483273 
L 384.140556 290.507142 
L 384.321624 286.329778 
L 384.68376 272.696341 
L 384.864827 267.254435 
L 385.045895 268.561895 
L 385.589099 255.568472 
L 385.951234 263.464618 
L 386.132302 266.522176 
L 386.31337 265.743816 
L 386.675505 272.077546 
L 386.856573 281.024913 
L 387.037641 302.477716 
L 387.218709 283.072977 
L 387.399777 281.443913 
L 387.94298 293.167887 
L 388.124048 291.079801 
L 388.486183 283.220553 
L 388.848319 286.753549 
L 389.210454 279.736713 
L 389.57259 274.717153 
L 390.115793 245.120667 
L 390.296861 245.142467 
L 390.477929 240.543225 
L 390.658997 262.599205 
L 390.840064 265.071978 
L 391.021132 262.428021 
L 391.2022 267.400241 
L 391.383268 266.243493 
L 391.564336 271.304964 
L 391.745403 279.579463 
L 392.107539 269.026969 
L 392.288607 274.724395 
L 392.469675 261.914715 
L 392.650742 259.698644 
L 392.83181 259.87513 
L 393.012878 257.928821 
L 393.193946 254.187893 
L 393.556081 267.355527 
L 393.918217 257.842124 
L 394.099285 260.35932 
L 394.280352 260.420536 
L 394.46142 260.993295 
L 394.642488 271.023786 
L 394.823556 272.501036 
L 395.185691 296.233684 
L 395.366759 297.276267 
L 395.547827 299.900232 
L 395.728895 297.539755 
L 395.909963 302.179071 
L 396.09103 296.307562 
L 396.272098 300.365684 
L 396.634234 283.747974 
L 396.815302 264.776494 
L 396.996369 260.62762 
L 397.358505 245.486697 
L 397.539573 236.117235 
L 397.72064 235.624294 
L 397.901708 237.420902 
L 398.082776 241.037712 
L 398.263844 255.022122 
L 398.444912 253.701793 
L 398.988115 284.983896 
L 399.169183 289.40784 
L 399.350251 299.562616 
L 399.531318 297.60986 
L 399.893454 301.629959 
L 400.074522 302.832 
L 400.979861 302.832 
L 401.160928 299.48029 
L 401.341996 300.873582 
L 401.523064 300.018227 
L 401.704132 300.620928 
L 402.066267 293.696634 
L 402.247335 290.944426 
L 402.428403 292.295717 
L 402.609471 291.168377 
L 402.790539 291.00134 
L 402.971606 288.29035 
L 403.152674 288.881183 
L 403.333742 294.930175 
L 403.51481 296.362012 
L 404.058013 285.641368 
L 404.239081 292.932977 
L 404.420149 292.252124 
L 404.782284 299.244827 
L 404.963352 298.660624 
L 405.325488 302.832 
L 405.325488 302.832 
" clip-path="url(#pfadfedbe11)" style="fill: none; stroke: #ff0000; stroke-width: 1.5; stroke-linecap: square"/>
   </g>
   <g id="patch_18">
    <path d="M 250.376727 307.872 
L 250.376727 196.992 
" style="fill: none; stroke: #000000; stroke-width: 0.8; stroke-linejoin: miter; stroke-linecap: square"/>
   </g>
   <g id="patch_19">
    <path d="M 412.704 307.872 
L 412.704 196.992 
" style="fill: none; stroke: #000000; stroke-width: 0.8; stroke-linejoin: miter; stroke-linecap: square"/>
   </g>
   <g id="patch_20">
    <path d="M 250.376727 307.872 
L 412.704 307.872 
" style="fill: none; stroke: #000000; stroke-width: 0.8; stroke-linejoin: miter; stroke-linecap: square"/>
   </g>
   <g id="patch_21">
    <path d="M 250.376727 196.992 
L 412.704 196.992 
" style="fill: none; stroke: #000000; stroke-width: 0.8; stroke-linejoin: miter; stroke-linecap: square"/>
   </g>
   <g id="text_36">
    <!-- VRNN -->
    <g transform="translate(314.289426 190.992) scale(0.12 -0.12)">
     <use xlink:href="#DejaVuSans-56"/>
     <use xlink:href="#DejaVuSans-52" x="68.408203"/>
     <use xlink:href="#DejaVuSans-4e" x="137.890625"/>
     <use xlink:href="#DejaVuSans-4e" x="212.695312"/>
    </g>
   </g>
  </g>
  <g id="text_37">
   <!-- VMAF Scores Over Frames: Video #12 -->
   <g transform="translate(114.338063 16.318125) scale(0.12 -0.12)">
    <defs>
     <path id="DejaVuSans-4d" d="M 628 4666 
L 1569 4666 
L 2759 1491 
L 3956 4666 
L 4897 4666 
L 4897 0 
L 4281 0 
L 4281 4097 
L 3078 897 
L 2444 897 
L 1241 4097 
L 1241 0 
L 628 0 
L 628 4666 
z
" transform="scale(0.015625)"/>
     <path id="DejaVuSans-73" d="M 2834 3397 
L 2834 2853 
Q 2591 2978 2328 3040 
Q 2066 3103 1784 3103 
Q 1356 3103 1142 2972 
Q 928 2841 928 2578 
Q 928 2378 1081 2264 
Q 1234 2150 1697 2047 
L 1894 2003 
Q 2506 1872 2764 1633 
Q 3022 1394 3022 966 
Q 3022 478 2636 193 
Q 2250 -91 1575 -91 
Q 1294 -91 989 -36 
Q 684 19 347 128 
L 347 722 
Q 666 556 975 473 
Q 1284 391 1588 391 
Q 1994 391 2212 530 
Q 2431 669 2431 922 
Q 2431 1156 2273 1281 
Q 2116 1406 1581 1522 
L 1381 1569 
Q 847 1681 609 1914 
Q 372 2147 372 2553 
Q 372 3047 722 3315 
Q 1072 3584 1716 3584 
Q 2034 3584 2315 3537 
Q 2597 3491 2834 3397 
z
" transform="scale(0.015625)"/>
     <path id="DejaVuSans-76" d="M 191 3500 
L 800 3500 
L 1894 563 
L 2988 3500 
L 3597 3500 
L 2284 0 
L 1503 0 
L 191 3500 
z
" transform="scale(0.015625)"/>
     <path id="DejaVuSans-61" d="M 2194 1759 
Q 1497 1759 1228 1600 
Q 959 1441 959 1056 
Q 959 750 1161 570 
Q 1363 391 1709 391 
Q 2188 391 2477 730 
Q 2766 1069 2766 1631 
L 2766 1759 
L 2194 1759 
z
M 3341 1997 
L 3341 0 
L 2766 0 
L 2766 531 
Q 2569 213 2275 61 
Q 1981 -91 1556 -91 
Q 1019 -91 701 211 
Q 384 513 384 1019 
Q 384 1609 779 1909 
Q 1175 2209 1959 2209 
L 2766 2209 
L 2766 2266 
Q 2766 2663 2505 2880 
Q 2244 3097 1772 3097 
Q 1472 3097 1187 3025 
Q 903 2953 641 2809 
L 641 3341 
Q 956 3463 1253 3523 
Q 1550 3584 1831 3584 
Q 2591 3584 2966 3190 
Q 3341 2797 3341 1997 
z
" transform="scale(0.015625)"/>
     <path id="DejaVuSans-6d" d="M 3328 2828 
Q 3544 3216 3844 3400 
Q 4144 3584 4550 3584 
Q 5097 3584 5394 3201 
Q 5691 2819 5691 2113 
L 5691 0 
L 5113 0 
L 5113 2094 
Q 5113 2597 4934 2840 
Q 4756 3084 4391 3084 
Q 3944 3084 3684 2787 
Q 3425 2491 3425 1978 
L 3425 0 
L 2847 0 
L 2847 2094 
Q 2847 2600 2669 2842 
Q 2491 3084 2119 3084 
Q 1678 3084 1418 2786 
Q 1159 2488 1159 1978 
L 1159 0 
L 581 0 
L 581 3500 
L 1159 3500 
L 1159 2956 
Q 1356 3278 1631 3431 
Q 1906 3584 2284 3584 
Q 2666 3584 2933 3390 
Q 3200 3197 3328 2828 
z
" transform="scale(0.015625)"/>
     <path id="DejaVuSans-3a" d="M 750 794 
L 1409 794 
L 1409 0 
L 750 0 
L 750 794 
z
M 750 3309 
L 1409 3309 
L 1409 2516 
L 750 2516 
L 750 3309 
z
" transform="scale(0.015625)"/>
     <path id="DejaVuSans-23" d="M 3272 2816 
L 2363 2816 
L 2100 1772 
L 3016 1772 
L 3272 2816 
z
M 2803 4594 
L 2478 3297 
L 3391 3297 
L 3719 4594 
L 4219 4594 
L 3897 3297 
L 4872 3297 
L 4872 2816 
L 3775 2816 
L 3519 1772 
L 4513 1772 
L 4513 1294 
L 3397 1294 
L 3072 0 
L 2572 0 
L 2894 1294 
L 1978 1294 
L 1656 0 
L 1153 0 
L 1478 1294 
L 494 1294 
L 494 1772 
L 1594 1772 
L 1856 2816 
L 850 2816 
L 850 3297 
L 1978 3297 
L 2297 4594 
L 2803 4594 
z
" transform="scale(0.015625)"/>
     <path id="DejaVuSans-31" d="M 794 531 
L 1825 531 
L 1825 4091 
L 703 3866 
L 703 4441 
L 1819 4666 
L 2450 4666 
L 2450 531 
L 3481 531 
L 3481 0 
L 794 0 
L 794 531 
z
" transform="scale(0.015625)"/>
    </defs>
    <use xlink:href="#DejaVuSans-56"/>
    <use xlink:href="#DejaVuSans-4d" x="68.408203"/>
    <use xlink:href="#DejaVuSans-41" x="154.6875"/>
    <use xlink:href="#DejaVuSans-46" x="223.095703"/>
    <use xlink:href="#DejaVuSans-20" x="280.615234"/>
    <use xlink:href="#DejaVuSans-53" x="312.402344"/>
    <use xlink:href="#DejaVuSans-63" x="375.878906"/>
    <use xlink:href="#DejaVuSans-6f" x="430.859375"/>
    <use xlink:href="#DejaVuSans-72" x="492.041016"/>
    <use xlink:href="#DejaVuSans-65" x="530.904297"/>
    <use xlink:href="#DejaVuSans-73" x="592.427734"/>
    <use xlink:href="#DejaVuSans-20" x="644.527344"/>
    <use xlink:href="#DejaVuSans-4f" x="676.314453"/>
    <use xlink:href="#DejaVuSans-76" x="755.025391"/>
    <use xlink:href="#DejaVuSans-65" x="814.205078"/>
    <use xlink:href="#DejaVuSans-72" x="875.728516"/>
    <use xlink:href="#DejaVuSans-20" x="916.841797"/>
    <use xlink:href="#DejaVuSans-46" x="948.628906"/>
    <use xlink:href="#DejaVuSans-72" x="998.898438"/>
    <use xlink:href="#DejaVuSans-61" x="1040.011719"/>
    <use xlink:href="#DejaVuSans-6d" x="1101.291016"/>
    <use xlink:href="#DejaVuSans-65" x="1198.703125"/>
    <use xlink:href="#DejaVuSans-73" x="1260.226562"/>
    <use xlink:href="#DejaVuSans-3a" x="1312.326172"/>
    <use xlink:href="#DejaVuSans-20" x="1346.017578"/>
    <use xlink:href="#DejaVuSans-56" x="1377.804688"/>
    <use xlink:href="#DejaVuSans-69" x="1443.962891"/>
    <use xlink:href="#DejaVuSans-64" x="1471.746094"/>
    <use xlink:href="#DejaVuSans-65" x="1535.222656"/>
    <use xlink:href="#DejaVuSans-6f" x="1596.746094"/>
    <use xlink:href="#DejaVuSans-20" x="1657.927734"/>
    <use xlink:href="#DejaVuSans-23" x="1689.714844"/>
    <use xlink:href="#DejaVuSans-31" x="1773.503906"/>
    <use xlink:href="#DejaVuSans-32" x="1837.126953"/>
   </g>
  </g>
  <g id="text_38">
   <!-- Video Frames -->
   <g transform="translate(187.847438 339.936375) scale(0.12 -0.12)">
    <use xlink:href="#DejaVuSans-56"/>
    <use xlink:href="#DejaVuSans-69" x="66.158203"/>
    <use xlink:href="#DejaVuSans-64" x="93.941406"/>
    <use xlink:href="#DejaVuSans-65" x="157.417969"/>
    <use xlink:href="#DejaVuSans-6f" x="218.941406"/>
    <use xlink:href="#DejaVuSans-20" x="280.123047"/>
    <use xlink:href="#DejaVuSans-46" x="311.910156"/>
    <use xlink:href="#DejaVuSans-72" x="362.179688"/>
    <use xlink:href="#DejaVuSans-61" x="403.292969"/>
    <use xlink:href="#DejaVuSans-6d" x="464.572266"/>
    <use xlink:href="#DejaVuSans-65" x="561.984375"/>
    <use xlink:href="#DejaVuSans-73" x="623.507812"/>
   </g>
  </g>
  <g id="text_39">
   <!-- Raw VMAF Scores -->
   <g transform="translate(16.318125 226.284562) rotate(-90) scale(0.12 -0.12)">
    <defs>
     <path id="DejaVuSans-77" d="M 269 3500 
L 844 3500 
L 1563 769 
L 2278 3500 
L 2956 3500 
L 3675 769 
L 4391 3500 
L 4966 3500 
L 4050 0 
L 3372 0 
L 2619 2869 
L 1863 0 
L 1184 0 
L 269 3500 
z
" transform="scale(0.015625)"/>
    </defs>
    <use xlink:href="#DejaVuSans-52"/>
    <use xlink:href="#DejaVuSans-61" x="67.232422"/>
    <use xlink:href="#DejaVuSans-77" x="128.511719"/>
    <use xlink:href="#DejaVuSans-20" x="210.298828"/>
    <use xlink:href="#DejaVuSans-56" x="242.085938"/>
    <use xlink:href="#DejaVuSans-4d" x="310.494141"/>
    <use xlink:href="#DejaVuSans-41" x="396.773438"/>
    <use xlink:href="#DejaVuSans-46" x="465.181641"/>
    <use xlink:href="#DejaVuSans-20" x="522.701172"/>
    <use xlink:href="#DejaVuSans-53" x="554.488281"/>
    <use xlink:href="#DejaVuSans-63" x="617.964844"/>
    <use xlink:href="#DejaVuSans-6f" x="672.945312"/>
    <use xlink:href="#DejaVuSans-72" x="734.126953"/>
    <use xlink:href="#DejaVuSans-65" x="772.990234"/>
    <use xlink:href="#DejaVuSans-73" x="834.513672"/>
   </g>
  </g>
 </g>
 <defs>
  <clipPath id="pc58a3a4bb6">
   <rect x="55.584" y="41.76" width="162.327273" height="110.88"/>
  </clipPath>
  <clipPath id="p1db22a4d68">
   <rect x="250.376727" y="41.76" width="162.327273" height="110.88"/>
  </clipPath>
  <clipPath id="p008ad6e0d2">
   <rect x="55.584" y="196.992" width="162.327273" height="110.88"/>
  </clipPath>
  <clipPath id="pfadfedbe11">
   <rect x="250.376727" y="196.992" width="162.327273" height="110.88"/>
  </clipPath>
 </defs>
</svg>
