<?xml version="1.0" encoding="utf-8" standalone="no"?>
<!DOCTYPE svg PUBLIC "-//W3C//DTD SVG 1.1//EN"
  "http://www.w3.org/Graphics/SVG/1.1/DTD/svg11.dtd">
<svg xmlns:xlink="http://www.w3.org/1999/xlink" width="419.904pt" height="349.632pt" viewBox="0 0 419.904 349.632" xmlns="http://www.w3.org/2000/svg" version="1.1">
 <metadata>
  <rdf:RDF xmlns:dc="http://purl.org/dc/elements/1.1/" xmlns:cc="http://creativecommons.org/ns#" xmlns:rdf="http://www.w3.org/1999/02/22-rdf-syntax-ns#">
   <cc:Work>
    <dc:type rdf:resource="http://purl.org/dc/dcmitype/StillImage"/>
    <dc:date>2024-07-24T16:31:56.030033</dc:date>
    <dc:format>image/svg+xml</dc:format>
    <dc:creator>
     <cc:Agent>
      <dc:title>Matplotlib v3.7.2, https://matplotlib.org/</dc:title>
     </cc:Agent>
    </dc:creator>
   </cc:Work>
  </rdf:RDF>
 </metadata>
 <defs>
  <style type="text/css">*{stroke-linejoin: round; stroke-linecap: butt}</style>
 </defs>
 <g id="figure_1">
  <g id="patch_1">
   <path d="M 0 349.632 
L 419.904 349.632 
L 419.904 -0 
L 0 -0 
z
" style="fill: #ffffff"/>
  </g>
  <g id="axes_1">
   <g id="patch_2">
    <path d="M 55.584 152.64 
L 217.911273 152.64 
L 217.911273 41.76 
L 55.584 41.76 
z
" style="fill: #ffffff"/>
   </g>
   <g id="matplotlib.axis_1">
    <g id="xtick_1">
     <g id="line2d_1">
      <defs>
       <path id="m7556c9ee08" d="M 0 0 
L 0 3.5 
" style="stroke: #000000; stroke-width: 0.8"/>
      </defs>
      <g>
       <use xlink:href="#m7556c9ee08" x="62.962512" y="152.64" style="stroke: #000000; stroke-width: 0.8"/>
      </g>
     </g>
     <g id="text_1">
      <!-- 0 -->
      <g transform="translate(59.781262 167.238437) scale(0.1 -0.1)">
       <defs>
        <path id="DejaVuSans-30" d="M 2034 4250 
Q 1547 4250 1301 3770 
Q 1056 3291 1056 2328 
Q 1056 1369 1301 889 
Q 1547 409 2034 409 
Q 2525 409 2770 889 
Q 3016 1369 3016 2328 
Q 3016 3291 2770 3770 
Q 2525 4250 2034 4250 
z
M 2034 4750 
Q 2819 4750 3233 4129 
Q 3647 3509 3647 2328 
Q 3647 1150 3233 529 
Q 2819 -91 2034 -91 
Q 1250 -91 836 529 
Q 422 1150 422 2328 
Q 422 3509 836 4129 
Q 1250 4750 2034 4750 
z
" transform="scale(0.015625)"/>
       </defs>
       <use xlink:href="#DejaVuSans-30"/>
      </g>
     </g>
    </g>
    <g id="xtick_2">
     <g id="line2d_2">
      <g>
       <use xlink:href="#m7556c9ee08" x="124.707386" y="152.64" style="stroke: #000000; stroke-width: 0.8"/>
      </g>
     </g>
     <g id="text_2">
      <!-- 100 -->
      <g transform="translate(115.163636 167.238437) scale(0.1 -0.1)">
       <defs>
        <path id="DejaVuSans-31" d="M 794 531 
L 1825 531 
L 1825 4091 
L 703 3866 
L 703 4441 
L 1819 4666 
L 2450 4666 
L 2450 531 
L 3481 531 
L 3481 0 
L 794 0 
L 794 531 
z
" transform="scale(0.015625)"/>
       </defs>
       <use xlink:href="#DejaVuSans-31"/>
       <use xlink:href="#DejaVuSans-30" x="63.623047"/>
       <use xlink:href="#DejaVuSans-30" x="127.246094"/>
      </g>
     </g>
    </g>
    <g id="xtick_3">
     <g id="line2d_3">
      <g>
       <use xlink:href="#m7556c9ee08" x="186.45226" y="152.64" style="stroke: #000000; stroke-width: 0.8"/>
      </g>
     </g>
     <g id="text_3">
      <!-- 200 -->
      <g transform="translate(176.90851 167.238437) scale(0.1 -0.1)">
       <defs>
        <path id="DejaVuSans-32" d="M 1228 531 
L 3431 531 
L 3431 0 
L 469 0 
L 469 531 
Q 828 903 1448 1529 
Q 2069 2156 2228 2338 
Q 2531 2678 2651 2914 
Q 2772 3150 2772 3378 
Q 2772 3750 2511 3984 
Q 2250 4219 1831 4219 
Q 1534 4219 1204 4116 
Q 875 4013 500 3803 
L 500 4441 
Q 881 4594 1212 4672 
Q 1544 4750 1819 4750 
Q 2544 4750 2975 4387 
Q 3406 4025 3406 3419 
Q 3406 3131 3298 2873 
Q 3191 2616 2906 2266 
Q 2828 2175 2409 1742 
Q 1991 1309 1228 531 
z
" transform="scale(0.015625)"/>
       </defs>
       <use xlink:href="#DejaVuSans-32"/>
       <use xlink:href="#DejaVuSans-30" x="63.623047"/>
       <use xlink:href="#DejaVuSans-30" x="127.246094"/>
      </g>
     </g>
    </g>
   </g>
   <g id="matplotlib.axis_2">
    <g id="ytick_1">
     <g id="line2d_4">
      <defs>
       <path id="mbba88ebf2a" d="M 0 0 
L -3.5 0 
" style="stroke: #000000; stroke-width: 0.8"/>
      </defs>
      <g>
       <use xlink:href="#mbba88ebf2a" x="55.584" y="147.6" style="stroke: #000000; stroke-width: 0.8"/>
      </g>
     </g>
     <g id="text_4">
      <!-- 0 -->
      <g transform="translate(42.2215 151.399219) scale(0.1 -0.1)">
       <use xlink:href="#DejaVuSans-30"/>
      </g>
     </g>
    </g>
    <g id="ytick_2">
     <g id="line2d_5">
      <g>
       <use xlink:href="#mbba88ebf2a" x="55.584" y="122.843716" style="stroke: #000000; stroke-width: 0.8"/>
      </g>
     </g>
     <g id="text_5">
      <!-- 10 -->
      <g transform="translate(35.859 126.642934) scale(0.1 -0.1)">
       <use xlink:href="#DejaVuSans-31"/>
       <use xlink:href="#DejaVuSans-30" x="63.623047"/>
      </g>
     </g>
    </g>
    <g id="ytick_3">
     <g id="line2d_6">
      <g>
       <use xlink:href="#mbba88ebf2a" x="55.584" y="98.087431" style="stroke: #000000; stroke-width: 0.8"/>
      </g>
     </g>
     <g id="text_6">
      <!-- 20 -->
      <g transform="translate(35.859 101.88665) scale(0.1 -0.1)">
       <use xlink:href="#DejaVuSans-32"/>
       <use xlink:href="#DejaVuSans-30" x="63.623047"/>
      </g>
     </g>
    </g>
    <g id="ytick_4">
     <g id="line2d_7">
      <g>
       <use xlink:href="#mbba88ebf2a" x="55.584" y="73.331147" style="stroke: #000000; stroke-width: 0.8"/>
      </g>
     </g>
     <g id="text_7">
      <!-- 30 -->
      <g transform="translate(35.859 77.130365) scale(0.1 -0.1)">
       <defs>
        <path id="DejaVuSans-33" d="M 2597 2516 
Q 3050 2419 3304 2112 
Q 3559 1806 3559 1356 
Q 3559 666 3084 287 
Q 2609 -91 1734 -91 
Q 1441 -91 1130 -33 
Q 819 25 488 141 
L 488 750 
Q 750 597 1062 519 
Q 1375 441 1716 441 
Q 2309 441 2620 675 
Q 2931 909 2931 1356 
Q 2931 1769 2642 2001 
Q 2353 2234 1838 2234 
L 1294 2234 
L 1294 2753 
L 1863 2753 
Q 2328 2753 2575 2939 
Q 2822 3125 2822 3475 
Q 2822 3834 2567 4026 
Q 2313 4219 1838 4219 
Q 1578 4219 1281 4162 
Q 984 4106 628 3988 
L 628 4550 
Q 988 4650 1302 4700 
Q 1616 4750 1894 4750 
Q 2613 4750 3031 4423 
Q 3450 4097 3450 3541 
Q 3450 3153 3228 2886 
Q 3006 2619 2597 2516 
z
" transform="scale(0.015625)"/>
       </defs>
       <use xlink:href="#DejaVuSans-33"/>
       <use xlink:href="#DejaVuSans-30" x="63.623047"/>
      </g>
     </g>
    </g>
    <g id="ytick_5">
     <g id="line2d_8">
      <g>
       <use xlink:href="#mbba88ebf2a" x="55.584" y="48.574862" style="stroke: #000000; stroke-width: 0.8"/>
      </g>
     </g>
     <g id="text_8">
      <!-- 40 -->
      <g transform="translate(35.859 52.374081) scale(0.1 -0.1)">
       <defs>
        <path id="DejaVuSans-34" d="M 2419 4116 
L 825 1625 
L 2419 1625 
L 2419 4116 
z
M 2253 4666 
L 3047 4666 
L 3047 1625 
L 3713 1625 
L 3713 1100 
L 3047 1100 
L 3047 0 
L 2419 0 
L 2419 1100 
L 313 1100 
L 313 1709 
L 2253 4666 
z
" transform="scale(0.015625)"/>
       </defs>
       <use xlink:href="#DejaVuSans-34"/>
       <use xlink:href="#DejaVuSans-30" x="63.623047"/>
      </g>
     </g>
    </g>
   </g>
   <g id="line2d_9">
    <path d="M 62.962512 46.930738 
L 63.579961 46.8 
L 64.19741 55.581329 
L 64.814859 59.071591 
L 65.432307 68.748548 
L 66.049756 67.978222 
L 66.667205 71.22659 
L 67.284654 75.362516 
L 67.902102 83.826205 
L 68.519551 88.377464 
L 69.137 89.789493 
L 69.754448 93.443457 
L 70.371897 93.510598 
L 70.989346 94.079988 
L 71.606795 93.327969 
L 72.224243 95.85303 
L 72.841692 103.833654 
L 73.459141 107.132382 
L 74.07659 106.697135 
L 74.694038 109.949011 
L 75.311487 118.024264 
L 75.928936 118.748781 
L 76.546385 117.710839 
L 77.163833 113.105316 
L 77.781282 109.682975 
L 78.398731 108.700279 
L 79.01618 105.433482 
L 79.633628 103.43723 
L 80.251077 103.699753 
L 80.868526 99.114574 
L 81.485974 98.222712 
L 82.103423 98.72723 
L 82.720872 101.879549 
L 83.338321 100.700541 
L 83.955769 101.046874 
L 84.573218 104.522716 
L 85.190667 105.036211 
L 85.808116 102.46049 
L 87.043013 104.413625 
L 87.660462 109.336026 
L 88.277911 109.304585 
L 88.895359 107.17525 
L 89.512808 108.648573 
L 90.130257 110.994694 
L 90.747706 109.520903 
L 91.365154 109.055921 
L 91.982603 104.306767 
L 92.600052 101.310585 
L 93.2175 102.140139 
L 93.834949 104.046945 
L 94.452398 102.796913 
L 95.069847 101.147162 
L 95.687295 102.077614 
L 96.304744 104.214973 
L 96.922193 103.170498 
L 97.539642 103.248896 
L 98.15709 101.719577 
L 98.774539 101.075898 
L 99.391988 98.891894 
L 100.009437 98.513561 
L 101.861783 90.794752 
L 102.479232 93.939639 
L 103.09668 92.663614 
L 103.714129 92.856926 
L 104.949026 85.637761 
L 105.566475 88.735987 
L 106.183924 87.860632 
L 106.801373 96.539785 
L 107.418821 98.332798 
L 108.03627 96.866196 
L 108.653719 94.005734 
L 109.271168 89.780962 
L 109.888616 89.99939 
L 110.506065 91.168233 
L 111.123514 89.229311 
L 111.740963 93.707831 
L 112.358411 93.669907 
L 112.97586 93.781764 
L 113.593309 94.33392 
L 114.210757 95.626241 
L 114.828206 91.87675 
L 115.445655 86.24577 
L 116.680552 84.710291 
L 117.298001 84.768082 
L 117.91545 83.853333 
L 118.532899 90.751013 
L 119.150347 87.596213 
L 119.767796 87.226198 
L 120.385245 88.16434 
L 121.002694 90.616737 
L 121.620142 90.09157 
L 122.237591 89.899768 
L 122.85504 92.059033 
L 123.472489 95.826615 
L 124.089937 96.348329 
L 124.707386 99.522045 
L 125.324835 101.736762 
L 126.559732 104.452866 
L 127.177181 104.119899 
L 127.79463 104.038542 
L 128.412078 108.544694 
L 129.646976 110.626774 
L 130.264425 110.342502 
L 130.881873 111.017319 
L 131.499322 113.539923 
L 132.116771 113.01652 
L 132.73422 111.987431 
L 133.351668 110.045395 
L 133.969117 102.541988 
L 134.586566 102.586297 
L 135.204015 100.452114 
L 135.821463 102.712638 
L 136.438912 100.746999 
L 137.056361 102.457287 
L 137.673809 96.377255 
L 138.291258 91.591402 
L 138.908707 85.000494 
L 139.526156 95.523953 
L 140.143604 100.32477 
L 141.378502 103.453331 
L 141.995951 111.638524 
L 142.613399 115.533779 
L 143.230848 117.862395 
L 143.848297 114.493304 
L 144.465746 117.543856 
L 145.083194 110.634839 
L 145.700643 110.212027 
L 146.318092 107.923781 
L 146.935541 111.108165 
L 147.552989 109.482816 
L 148.170438 110.41332 
L 148.787887 107.894906 
L 150.022784 118.778236 
L 150.640233 114.360826 
L 151.257682 111.928759 
L 151.87513 118.710129 
L 152.492579 118.851359 
L 153.110028 119.410635 
L 153.727477 111.060987 
L 154.344925 112.262622 
L 154.962374 111.334464 
L 155.579823 116.77551 
L 156.197272 111.077289 
L 156.81472 111.358409 
L 157.432169 105.323106 
L 158.049618 103.25866 
L 158.667066 111.083253 
L 159.284515 115.431528 
L 160.519413 109.40115 
L 161.136861 110.368863 
L 161.75431 104.107518 
L 162.371759 100.763454 
L 162.989208 105.885386 
L 163.606656 112.467755 
L 164.224105 107.457078 
L 164.841554 107.365557 
L 165.459003 114.314019 
L 166.076451 114.583145 
L 166.6939 111.318185 
L 167.311349 108.769275 
L 167.928798 109.308574 
L 168.546246 109.681324 
L 169.163695 108.679707 
L 169.781144 107.991378 
L 170.398592 110.09951 
L 171.016041 115.604988 
L 171.63349 119.15318 
L 172.250939 120.127998 
L 173.485836 130.540363 
L 174.720734 125.019842 
L 175.338182 122.591578 
L 175.955631 125.156725 
L 176.57308 128.320093 
L 177.190529 132.592711 
L 177.807977 138.776907 
L 179.042875 140.656308 
L 180.277772 138.009787 
L 180.895221 137.963143 
L 181.51267 138.185279 
L 182.130118 135.904527 
L 182.747567 135.289418 
L 183.365016 136.375879 
L 183.982465 139.730321 
L 184.599913 139.983358 
L 185.217362 140.558352 
L 185.834811 134.980462 
L 186.45226 134.52178 
L 187.069708 135.33387 
L 187.687157 136.432158 
L 188.304606 139.028835 
L 188.922055 140.83032 
L 189.539503 136.173234 
L 190.774401 133.026258 
L 191.39185 130.597005 
L 192.009298 128.881308 
L 192.626747 132.727452 
L 193.244196 134.005346 
L 193.861644 130.503439 
L 195.096542 138.669448 
L 195.713991 139.254003 
L 196.331439 135.137956 
L 196.948888 136.310315 
L 197.566337 132.176154 
L 198.801234 137.097513 
L 199.418683 136.409902 
L 200.036132 139.254087 
L 200.653581 144.220369 
L 201.271029 144.137851 
L 202.505927 147.6 
L 208.062965 147.6 
L 208.680414 146.566153 
L 209.297863 147.6 
L 210.53276 147.6 
L 210.53276 147.6 
" clip-path="url(#p2aa5847022)" style="fill: none; stroke: #008000; stroke-width: 1.5; stroke-linecap: square"/>
   </g>
   <g id="patch_3">
    <path d="M 55.584 152.64 
L 55.584 41.76 
" style="fill: none; stroke: #000000; stroke-width: 0.8; stroke-linejoin: miter; stroke-linecap: square"/>
   </g>
   <g id="patch_4">
    <path d="M 217.911273 152.64 
L 217.911273 41.76 
" style="fill: none; stroke: #000000; stroke-width: 0.8; stroke-linejoin: miter; stroke-linecap: square"/>
   </g>
   <g id="patch_5">
    <path d="M 55.584 152.64 
L 217.911273 152.64 
" style="fill: none; stroke: #000000; stroke-width: 0.8; stroke-linejoin: miter; stroke-linecap: square"/>
   </g>
   <g id="patch_6">
    <path d="M 55.584 41.76 
L 217.911273 41.76 
" style="fill: none; stroke: #000000; stroke-width: 0.8; stroke-linejoin: miter; stroke-linecap: square"/>
   </g>
   <g id="text_9">
    <!-- No Prediction (FOSS) -->
    <g transform="translate(74.495761 35.76) scale(0.12 -0.12)">
     <defs>
      <path id="DejaVuSans-4e" d="M 628 4666 
L 1478 4666 
L 3547 763 
L 3547 4666 
L 4159 4666 
L 4159 0 
L 3309 0 
L 1241 3903 
L 1241 0 
L 628 0 
L 628 4666 
z
" transform="scale(0.015625)"/>
      <path id="DejaVuSans-6f" d="M 1959 3097 
Q 1497 3097 1228 2736 
Q 959 2375 959 1747 
Q 959 1119 1226 758 
Q 1494 397 1959 397 
Q 2419 397 2687 759 
Q 2956 1122 2956 1747 
Q 2956 2369 2687 2733 
Q 2419 3097 1959 3097 
z
M 1959 3584 
Q 2709 3584 3137 3096 
Q 3566 2609 3566 1747 
Q 3566 888 3137 398 
Q 2709 -91 1959 -91 
Q 1206 -91 779 398 
Q 353 888 353 1747 
Q 353 2609 779 3096 
Q 1206 3584 1959 3584 
z
" transform="scale(0.015625)"/>
      <path id="DejaVuSans-20" transform="scale(0.015625)"/>
      <path id="DejaVuSans-50" d="M 1259 4147 
L 1259 2394 
L 2053 2394 
Q 2494 2394 2734 2622 
Q 2975 2850 2975 3272 
Q 2975 3691 2734 3919 
Q 2494 4147 2053 4147 
L 1259 4147 
z
M 628 4666 
L 2053 4666 
Q 2838 4666 3239 4311 
Q 3641 3956 3641 3272 
Q 3641 2581 3239 2228 
Q 2838 1875 2053 1875 
L 1259 1875 
L 1259 0 
L 628 0 
L 628 4666 
z
" transform="scale(0.015625)"/>
      <path id="DejaVuSans-72" d="M 2631 2963 
Q 2534 3019 2420 3045 
Q 2306 3072 2169 3072 
Q 1681 3072 1420 2755 
Q 1159 2438 1159 1844 
L 1159 0 
L 581 0 
L 581 3500 
L 1159 3500 
L 1159 2956 
Q 1341 3275 1631 3429 
Q 1922 3584 2338 3584 
Q 2397 3584 2469 3576 
Q 2541 3569 2628 3553 
L 2631 2963 
z
" transform="scale(0.015625)"/>
      <path id="DejaVuSans-65" d="M 3597 1894 
L 3597 1613 
L 953 1613 
Q 991 1019 1311 708 
Q 1631 397 2203 397 
Q 2534 397 2845 478 
Q 3156 559 3463 722 
L 3463 178 
Q 3153 47 2828 -22 
Q 2503 -91 2169 -91 
Q 1331 -91 842 396 
Q 353 884 353 1716 
Q 353 2575 817 3079 
Q 1281 3584 2069 3584 
Q 2775 3584 3186 3129 
Q 3597 2675 3597 1894 
z
M 3022 2063 
Q 3016 2534 2758 2815 
Q 2500 3097 2075 3097 
Q 1594 3097 1305 2825 
Q 1016 2553 972 2059 
L 3022 2063 
z
" transform="scale(0.015625)"/>
      <path id="DejaVuSans-64" d="M 2906 2969 
L 2906 4863 
L 3481 4863 
L 3481 0 
L 2906 0 
L 2906 525 
Q 2725 213 2448 61 
Q 2172 -91 1784 -91 
Q 1150 -91 751 415 
Q 353 922 353 1747 
Q 353 2572 751 3078 
Q 1150 3584 1784 3584 
Q 2172 3584 2448 3432 
Q 2725 3281 2906 2969 
z
M 947 1747 
Q 947 1113 1208 752 
Q 1469 391 1925 391 
Q 2381 391 2643 752 
Q 2906 1113 2906 1747 
Q 2906 2381 2643 2742 
Q 2381 3103 1925 3103 
Q 1469 3103 1208 2742 
Q 947 2381 947 1747 
z
" transform="scale(0.015625)"/>
      <path id="DejaVuSans-69" d="M 603 3500 
L 1178 3500 
L 1178 0 
L 603 0 
L 603 3500 
z
M 603 4863 
L 1178 4863 
L 1178 4134 
L 603 4134 
L 603 4863 
z
" transform="scale(0.015625)"/>
      <path id="DejaVuSans-63" d="M 3122 3366 
L 3122 2828 
Q 2878 2963 2633 3030 
Q 2388 3097 2138 3097 
Q 1578 3097 1268 2742 
Q 959 2388 959 1747 
Q 959 1106 1268 751 
Q 1578 397 2138 397 
Q 2388 397 2633 464 
Q 2878 531 3122 666 
L 3122 134 
Q 2881 22 2623 -34 
Q 2366 -91 2075 -91 
Q 1284 -91 818 406 
Q 353 903 353 1747 
Q 353 2603 823 3093 
Q 1294 3584 2113 3584 
Q 2378 3584 2631 3529 
Q 2884 3475 3122 3366 
z
" transform="scale(0.015625)"/>
      <path id="DejaVuSans-74" d="M 1172 4494 
L 1172 3500 
L 2356 3500 
L 2356 3053 
L 1172 3053 
L 1172 1153 
Q 1172 725 1289 603 
Q 1406 481 1766 481 
L 2356 481 
L 2356 0 
L 1766 0 
Q 1100 0 847 248 
Q 594 497 594 1153 
L 594 3053 
L 172 3053 
L 172 3500 
L 594 3500 
L 594 4494 
L 1172 4494 
z
" transform="scale(0.015625)"/>
      <path id="DejaVuSans-6e" d="M 3513 2113 
L 3513 0 
L 2938 0 
L 2938 2094 
Q 2938 2591 2744 2837 
Q 2550 3084 2163 3084 
Q 1697 3084 1428 2787 
Q 1159 2491 1159 1978 
L 1159 0 
L 581 0 
L 581 3500 
L 1159 3500 
L 1159 2956 
Q 1366 3272 1645 3428 
Q 1925 3584 2291 3584 
Q 2894 3584 3203 3211 
Q 3513 2838 3513 2113 
z
" transform="scale(0.015625)"/>
      <path id="DejaVuSans-28" d="M 1984 4856 
Q 1566 4138 1362 3434 
Q 1159 2731 1159 2009 
Q 1159 1288 1364 580 
Q 1569 -128 1984 -844 
L 1484 -844 
Q 1016 -109 783 600 
Q 550 1309 550 2009 
Q 550 2706 781 3412 
Q 1013 4119 1484 4856 
L 1984 4856 
z
" transform="scale(0.015625)"/>
      <path id="DejaVuSans-46" d="M 628 4666 
L 3309 4666 
L 3309 4134 
L 1259 4134 
L 1259 2759 
L 3109 2759 
L 3109 2228 
L 1259 2228 
L 1259 0 
L 628 0 
L 628 4666 
z
" transform="scale(0.015625)"/>
      <path id="DejaVuSans-4f" d="M 2522 4238 
Q 1834 4238 1429 3725 
Q 1025 3213 1025 2328 
Q 1025 1447 1429 934 
Q 1834 422 2522 422 
Q 3209 422 3611 934 
Q 4013 1447 4013 2328 
Q 4013 3213 3611 3725 
Q 3209 4238 2522 4238 
z
M 2522 4750 
Q 3503 4750 4090 4092 
Q 4678 3434 4678 2328 
Q 4678 1225 4090 567 
Q 3503 -91 2522 -91 
Q 1538 -91 948 565 
Q 359 1222 359 2328 
Q 359 3434 948 4092 
Q 1538 4750 2522 4750 
z
" transform="scale(0.015625)"/>
      <path id="DejaVuSans-53" d="M 3425 4513 
L 3425 3897 
Q 3066 4069 2747 4153 
Q 2428 4238 2131 4238 
Q 1616 4238 1336 4038 
Q 1056 3838 1056 3469 
Q 1056 3159 1242 3001 
Q 1428 2844 1947 2747 
L 2328 2669 
Q 3034 2534 3370 2195 
Q 3706 1856 3706 1288 
Q 3706 609 3251 259 
Q 2797 -91 1919 -91 
Q 1588 -91 1214 -16 
Q 841 59 441 206 
L 441 856 
Q 825 641 1194 531 
Q 1563 422 1919 422 
Q 2459 422 2753 634 
Q 3047 847 3047 1241 
Q 3047 1584 2836 1778 
Q 2625 1972 2144 2069 
L 1759 2144 
Q 1053 2284 737 2584 
Q 422 2884 422 3419 
Q 422 4038 858 4394 
Q 1294 4750 2059 4750 
Q 2388 4750 2728 4690 
Q 3069 4631 3425 4513 
z
" transform="scale(0.015625)"/>
      <path id="DejaVuSans-29" d="M 513 4856 
L 1013 4856 
Q 1481 4119 1714 3412 
Q 1947 2706 1947 2009 
Q 1947 1309 1714 600 
Q 1481 -109 1013 -844 
L 513 -844 
Q 928 -128 1133 580 
Q 1338 1288 1338 2009 
Q 1338 2731 1133 3434 
Q 928 4138 513 4856 
z
" transform="scale(0.015625)"/>
     </defs>
     <use xlink:href="#DejaVuSans-4e"/>
     <use xlink:href="#DejaVuSans-6f" x="74.804688"/>
     <use xlink:href="#DejaVuSans-20" x="135.986328"/>
     <use xlink:href="#DejaVuSans-50" x="167.773438"/>
     <use xlink:href="#DejaVuSans-72" x="226.326172"/>
     <use xlink:href="#DejaVuSans-65" x="265.189453"/>
     <use xlink:href="#DejaVuSans-64" x="326.712891"/>
     <use xlink:href="#DejaVuSans-69" x="390.189453"/>
     <use xlink:href="#DejaVuSans-63" x="417.972656"/>
     <use xlink:href="#DejaVuSans-74" x="472.953125"/>
     <use xlink:href="#DejaVuSans-69" x="512.162109"/>
     <use xlink:href="#DejaVuSans-6f" x="539.945312"/>
     <use xlink:href="#DejaVuSans-6e" x="601.126953"/>
     <use xlink:href="#DejaVuSans-20" x="664.505859"/>
     <use xlink:href="#DejaVuSans-28" x="696.292969"/>
     <use xlink:href="#DejaVuSans-46" x="735.306641"/>
     <use xlink:href="#DejaVuSans-4f" x="792.826172"/>
     <use xlink:href="#DejaVuSans-53" x="871.537109"/>
     <use xlink:href="#DejaVuSans-53" x="935.013672"/>
     <use xlink:href="#DejaVuSans-29" x="998.490234"/>
    </g>
   </g>
  </g>
  <g id="axes_2">
   <g id="patch_7">
    <path d="M 250.376727 152.64 
L 412.704 152.64 
L 412.704 41.76 
L 250.376727 41.76 
z
" style="fill: #ffffff"/>
   </g>
   <g id="matplotlib.axis_3">
    <g id="xtick_4">
     <g id="line2d_10">
      <g>
       <use xlink:href="#m7556c9ee08" x="257.75524" y="152.64" style="stroke: #000000; stroke-width: 0.8"/>
      </g>
     </g>
     <g id="text_10">
      <!-- 0 -->
      <g transform="translate(254.57399 167.238437) scale(0.1 -0.1)">
       <use xlink:href="#DejaVuSans-30"/>
      </g>
     </g>
    </g>
    <g id="xtick_5">
     <g id="line2d_11">
      <g>
       <use xlink:href="#m7556c9ee08" x="319.500113" y="152.64" style="stroke: #000000; stroke-width: 0.8"/>
      </g>
     </g>
     <g id="text_11">
      <!-- 100 -->
      <g transform="translate(309.956363 167.238437) scale(0.1 -0.1)">
       <use xlink:href="#DejaVuSans-31"/>
       <use xlink:href="#DejaVuSans-30" x="63.623047"/>
       <use xlink:href="#DejaVuSans-30" x="127.246094"/>
      </g>
     </g>
    </g>
    <g id="xtick_6">
     <g id="line2d_12">
      <g>
       <use xlink:href="#m7556c9ee08" x="381.244987" y="152.64" style="stroke: #000000; stroke-width: 0.8"/>
      </g>
     </g>
     <g id="text_12">
      <!-- 200 -->
      <g transform="translate(371.701237 167.238437) scale(0.1 -0.1)">
       <use xlink:href="#DejaVuSans-32"/>
       <use xlink:href="#DejaVuSans-30" x="63.623047"/>
       <use xlink:href="#DejaVuSans-30" x="127.246094"/>
      </g>
     </g>
    </g>
   </g>
   <g id="matplotlib.axis_4">
    <g id="ytick_6">
     <g id="line2d_13">
      <g>
       <use xlink:href="#mbba88ebf2a" x="250.376727" y="147.6" style="stroke: #000000; stroke-width: 0.8"/>
      </g>
     </g>
     <g id="text_13">
      <!-- 0 -->
      <g transform="translate(237.014227 151.399219) scale(0.1 -0.1)">
       <use xlink:href="#DejaVuSans-30"/>
      </g>
     </g>
    </g>
    <g id="ytick_7">
     <g id="line2d_14">
      <g>
       <use xlink:href="#mbba88ebf2a" x="250.376727" y="122.835237" style="stroke: #000000; stroke-width: 0.8"/>
      </g>
     </g>
     <g id="text_14">
      <!-- 10 -->
      <g transform="translate(230.651727 126.634456) scale(0.1 -0.1)">
       <use xlink:href="#DejaVuSans-31"/>
       <use xlink:href="#DejaVuSans-30" x="63.623047"/>
      </g>
     </g>
    </g>
    <g id="ytick_8">
     <g id="line2d_15">
      <g>
       <use xlink:href="#mbba88ebf2a" x="250.376727" y="98.070474" style="stroke: #000000; stroke-width: 0.8"/>
      </g>
     </g>
     <g id="text_15">
      <!-- 20 -->
      <g transform="translate(230.651727 101.869693) scale(0.1 -0.1)">
       <use xlink:href="#DejaVuSans-32"/>
       <use xlink:href="#DejaVuSans-30" x="63.623047"/>
      </g>
     </g>
    </g>
    <g id="ytick_9">
     <g id="line2d_16">
      <g>
       <use xlink:href="#mbba88ebf2a" x="250.376727" y="73.305711" style="stroke: #000000; stroke-width: 0.8"/>
      </g>
     </g>
     <g id="text_16">
      <!-- 30 -->
      <g transform="translate(230.651727 77.10493) scale(0.1 -0.1)">
       <use xlink:href="#DejaVuSans-33"/>
       <use xlink:href="#DejaVuSans-30" x="63.623047"/>
      </g>
     </g>
    </g>
    <g id="ytick_10">
     <g id="line2d_17">
      <g>
       <use xlink:href="#mbba88ebf2a" x="250.376727" y="48.540948" style="stroke: #000000; stroke-width: 0.8"/>
      </g>
     </g>
     <g id="text_17">
      <!-- 40 -->
      <g transform="translate(230.651727 52.340167) scale(0.1 -0.1)">
       <use xlink:href="#DejaVuSans-34"/>
       <use xlink:href="#DejaVuSans-30" x="63.623047"/>
      </g>
     </g>
    </g>
   </g>
   <g id="line2d_18">
    <path d="M 257.75524 46.896273 
L 258.372688 46.8 
L 258.990137 55.549074 
L 259.607586 59.021472 
L 260.225035 68.709329 
L 260.842483 67.942372 
L 261.459932 71.215394 
L 262.077381 75.338061 
L 262.69483 83.816082 
L 263.312278 88.360228 
L 263.929727 89.7786 
L 264.547176 93.418725 
L 265.164625 144.323179 
L 265.782073 146.435345 
L 266.399522 137.15451 
L 267.016971 135.785722 
L 267.634419 132.968015 
L 268.251868 136.847306 
L 268.869317 134.729924 
L 269.486766 142.885071 
L 270.104214 147.6 
L 271.339112 147.6 
L 271.956561 147.05046 
L 272.574009 109.665376 
L 273.191458 108.668943 
L 273.808907 105.397746 
L 274.426356 103.415505 
L 275.043804 103.701449 
L 275.661253 99.097412 
L 276.278702 98.212012 
L 276.89615 98.700631 
L 277.513599 101.852123 
L 278.131048 100.681267 
L 278.748497 101.027907 
L 279.365945 104.541514 
L 279.983394 145.549792 
L 280.600843 147.6 
L 282.453189 147.6 
L 283.070638 146.64197 
L 283.688087 147.6 
L 284.922984 147.6 
L 285.540433 147.382209 
L 286.157882 144.134709 
L 286.77533 135.71436 
L 287.392779 101.283695 
L 288.010228 101.931917 
L 288.627676 104.030701 
L 289.245125 102.794102 
L 289.862574 101.130723 
L 290.480023 102.050672 
L 291.097471 104.171499 
L 291.71492 103.153132 
L 292.332369 103.279249 
L 292.949818 101.703242 
L 293.567266 101.235792 
L 294.184715 98.898244 
L 294.802164 147.6 
L 295.419613 125.213977 
L 296.037061 140.593675 
L 296.65451 140.704819 
L 297.271959 137.06186 
L 297.889408 138.050187 
L 298.506856 141.084426 
L 299.124305 144.717124 
L 299.741754 145.057236 
L 300.359202 147.6 
L 300.976651 146.734994 
L 301.5941 147.6 
L 302.211549 98.030397 
L 302.828997 96.846728 
L 303.446446 94.144935 
L 304.063895 89.781321 
L 304.681344 89.976743 
L 305.298792 91.13821 
L 305.916241 89.230424 
L 306.53369 93.716995 
L 307.151139 93.65243 
L 307.768587 93.768736 
L 308.386036 94.317027 
L 309.003485 95.627366 
L 309.620934 122.126202 
L 310.238382 122.607485 
L 310.855831 138.968613 
L 311.47328 130.30136 
L 312.090728 138.624544 
L 313.325626 133.215558 
L 313.943075 134.508103 
L 314.560523 131.711802 
L 315.177972 127.846444 
L 315.795421 126.347024 
L 316.41287 126.315724 
L 317.030318 89.888716 
L 317.647767 92.053332 
L 318.265216 95.780095 
L 318.882665 96.33519 
L 319.500113 99.524455 
L 320.117562 101.737075 
L 321.352459 104.418758 
L 321.969908 104.04472 
L 322.587357 104.01581 
L 323.204806 108.550431 
L 323.822254 109.554816 
L 324.439703 141.485932 
L 325.057152 139.498205 
L 325.674601 135.333154 
L 326.292049 136.499938 
L 326.909498 140.345995 
L 327.526947 139.86115 
L 328.144396 142.934031 
L 328.761844 147.523096 
L 329.379293 147.6 
L 329.996742 146.664538 
L 330.614191 147.305587 
L 331.231639 144.854204 
L 331.849088 102.362215 
L 332.466537 96.355264 
L 333.083985 91.564001 
L 333.701434 85.014124 
L 334.318883 95.50475 
L 334.936332 100.309994 
L 335.55378 101.755567 
L 336.171229 103.495611 
L 336.788678 111.619496 
L 337.406127 115.522745 
L 338.023575 117.863646 
L 338.641024 114.467345 
L 339.258473 147.6 
L 339.875922 146.671973 
L 340.49337 128.899072 
L 341.110819 124.199691 
L 341.728268 138.691439 
L 342.345717 146.636524 
L 342.963165 147.051832 
L 343.580614 142.65994 
L 344.198063 140.605936 
L 344.815511 139.856648 
L 346.050409 133.739093 
L 346.667858 118.727127 
L 347.285306 118.834348 
L 347.902755 120.670289 
L 348.520204 111.054894 
L 349.137653 112.285262 
L 349.755101 111.34168 
L 350.37255 116.768727 
L 350.989999 111.061264 
L 351.607448 111.352584 
L 352.224896 105.292661 
L 352.842345 103.248288 
L 353.459794 111.047774 
L 354.077243 147.6 
L 354.694691 145.81668 
L 355.31214 136.461072 
L 355.929589 144.402857 
L 356.547037 144.59281 
L 357.164486 143.857116 
L 357.781935 124.533018 
L 358.399384 116.71308 
L 359.016832 121.219046 
L 359.634281 129.478773 
L 360.25173 132.687653 
L 360.869179 127.631065 
L 361.486627 111.311296 
L 362.104076 108.763676 
L 363.338974 109.667186 
L 363.956422 108.528911 
L 364.573871 107.974341 
L 365.19132 110.091496 
L 365.808768 115.593926 
L 366.426217 119.151756 
L 367.043666 120.106836 
L 368.278563 130.53535 
L 368.896012 146.797399 
L 369.513461 147.6 
L 370.748358 147.6 
L 371.365807 146.611329 
L 371.983256 147.6 
L 375.687948 147.6 
L 376.305397 138.185799 
L 376.922846 135.862131 
L 377.540294 135.287849 
L 378.157743 136.375862 
L 378.775192 139.728438 
L 379.392641 139.979593 
L 380.010089 140.563172 
L 380.627538 134.985345 
L 381.244987 134.523683 
L 381.862436 135.321098 
L 382.479884 136.426582 
L 383.097333 139.020169 
L 383.714782 147.6 
L 384.332231 146.364404 
L 384.949679 147.6 
L 388.036923 147.6 
L 388.654372 145.844092 
L 389.27182 146.567508 
L 389.889269 147.6 
L 390.506718 147.6 
L 391.124167 135.134352 
L 391.741615 136.310978 
L 392.359064 132.178749 
L 393.593962 137.101434 
L 394.21141 136.401265 
L 394.828859 139.258839 
L 395.446308 144.119441 
L 396.063757 144.136611 
L 397.298654 147.6 
L 397.916103 147.6 
L 398.533552 140.807434 
L 399.151 147.6 
L 399.768449 143.463309 
L 400.385898 147.6 
L 402.238244 147.6 
L 402.855693 146.721368 
L 403.473141 139.104374 
L 404.09059 147.6 
L 405.325488 147.6 
L 405.325488 147.6 
" clip-path="url(#pc7e4762973)" style="fill: none; stroke: #0000ff; stroke-width: 1.5; stroke-linecap: square"/>
   </g>
   <g id="patch_8">
    <path d="M 250.376727 152.64 
L 250.376727 41.76 
" style="fill: none; stroke: #000000; stroke-width: 0.8; stroke-linejoin: miter; stroke-linecap: square"/>
   </g>
   <g id="patch_9">
    <path d="M 412.704 152.64 
L 412.704 41.76 
" style="fill: none; stroke: #000000; stroke-width: 0.8; stroke-linejoin: miter; stroke-linecap: square"/>
   </g>
   <g id="patch_10">
    <path d="M 250.376727 152.64 
L 412.704 152.64 
" style="fill: none; stroke: #000000; stroke-width: 0.8; stroke-linejoin: miter; stroke-linecap: square"/>
   </g>
   <g id="patch_11">
    <path d="M 250.376727 41.76 
L 412.704 41.76 
" style="fill: none; stroke: #000000; stroke-width: 0.8; stroke-linejoin: miter; stroke-linecap: square"/>
   </g>
   <g id="text_18">
    <!-- RNN -->
    <g transform="translate(318.393801 35.76) scale(0.12 -0.12)">
     <defs>
      <path id="DejaVuSans-52" d="M 2841 2188 
Q 3044 2119 3236 1894 
Q 3428 1669 3622 1275 
L 4263 0 
L 3584 0 
L 2988 1197 
Q 2756 1666 2539 1819 
Q 2322 1972 1947 1972 
L 1259 1972 
L 1259 0 
L 628 0 
L 628 4666 
L 2053 4666 
Q 2853 4666 3247 4331 
Q 3641 3997 3641 3322 
Q 3641 2881 3436 2590 
Q 3231 2300 2841 2188 
z
M 1259 4147 
L 1259 2491 
L 2053 2491 
Q 2509 2491 2742 2702 
Q 2975 2913 2975 3322 
Q 2975 3731 2742 3939 
Q 2509 4147 2053 4147 
L 1259 4147 
z
" transform="scale(0.015625)"/>
     </defs>
     <use xlink:href="#DejaVuSans-52"/>
     <use xlink:href="#DejaVuSans-4e" x="69.482422"/>
     <use xlink:href="#DejaVuSans-4e" x="144.287109"/>
    </g>
   </g>
  </g>
  <g id="axes_3">
   <g id="patch_12">
    <path d="M 55.584 307.872 
L 217.911273 307.872 
L 217.911273 196.992 
L 55.584 196.992 
z
" style="fill: #ffffff"/>
   </g>
   <g id="matplotlib.axis_5">
    <g id="xtick_7">
     <g id="line2d_19">
      <g>
       <use xlink:href="#m7556c9ee08" x="62.962512" y="307.872" style="stroke: #000000; stroke-width: 0.8"/>
      </g>
     </g>
     <g id="text_19">
      <!-- 0 -->
      <g transform="translate(59.781262 322.470437) scale(0.1 -0.1)">
       <use xlink:href="#DejaVuSans-30"/>
      </g>
     </g>
    </g>
    <g id="xtick_8">
     <g id="line2d_20">
      <g>
       <use xlink:href="#m7556c9ee08" x="124.707386" y="307.872" style="stroke: #000000; stroke-width: 0.8"/>
      </g>
     </g>
     <g id="text_20">
      <!-- 100 -->
      <g transform="translate(115.163636 322.470437) scale(0.1 -0.1)">
       <use xlink:href="#DejaVuSans-31"/>
       <use xlink:href="#DejaVuSans-30" x="63.623047"/>
       <use xlink:href="#DejaVuSans-30" x="127.246094"/>
      </g>
     </g>
    </g>
    <g id="xtick_9">
     <g id="line2d_21">
      <g>
       <use xlink:href="#m7556c9ee08" x="186.45226" y="307.872" style="stroke: #000000; stroke-width: 0.8"/>
      </g>
     </g>
     <g id="text_21">
      <!-- 200 -->
      <g transform="translate(176.90851 322.470437) scale(0.1 -0.1)">
       <use xlink:href="#DejaVuSans-32"/>
       <use xlink:href="#DejaVuSans-30" x="63.623047"/>
       <use xlink:href="#DejaVuSans-30" x="127.246094"/>
      </g>
     </g>
    </g>
   </g>
   <g id="matplotlib.axis_6">
    <g id="ytick_11">
     <g id="line2d_22">
      <g>
       <use xlink:href="#mbba88ebf2a" x="55.584" y="302.832" style="stroke: #000000; stroke-width: 0.8"/>
      </g>
     </g>
     <g id="text_22">
      <!-- 0 -->
      <g transform="translate(42.2215 306.631219) scale(0.1 -0.1)">
       <use xlink:href="#DejaVuSans-30"/>
      </g>
     </g>
    </g>
    <g id="ytick_12">
     <g id="line2d_23">
      <g>
       <use xlink:href="#mbba88ebf2a" x="55.584" y="278.067237" style="stroke: #000000; stroke-width: 0.8"/>
      </g>
     </g>
     <g id="text_23">
      <!-- 10 -->
      <g transform="translate(35.859 281.866456) scale(0.1 -0.1)">
       <use xlink:href="#DejaVuSans-31"/>
       <use xlink:href="#DejaVuSans-30" x="63.623047"/>
      </g>
     </g>
    </g>
    <g id="ytick_13">
     <g id="line2d_24">
      <g>
       <use xlink:href="#mbba88ebf2a" x="55.584" y="253.302474" style="stroke: #000000; stroke-width: 0.8"/>
      </g>
     </g>
     <g id="text_24">
      <!-- 20 -->
      <g transform="translate(35.859 257.101693) scale(0.1 -0.1)">
       <use xlink:href="#DejaVuSans-32"/>
       <use xlink:href="#DejaVuSans-30" x="63.623047"/>
      </g>
     </g>
    </g>
    <g id="ytick_14">
     <g id="line2d_25">
      <g>
       <use xlink:href="#mbba88ebf2a" x="55.584" y="228.537711" style="stroke: #000000; stroke-width: 0.8"/>
      </g>
     </g>
     <g id="text_25">
      <!-- 30 -->
      <g transform="translate(35.859 232.33693) scale(0.1 -0.1)">
       <use xlink:href="#DejaVuSans-33"/>
       <use xlink:href="#DejaVuSans-30" x="63.623047"/>
      </g>
     </g>
    </g>
    <g id="ytick_15">
     <g id="line2d_26">
      <g>
       <use xlink:href="#mbba88ebf2a" x="55.584" y="203.772948" style="stroke: #000000; stroke-width: 0.8"/>
      </g>
     </g>
     <g id="text_26">
      <!-- 40 -->
      <g transform="translate(35.859 207.572167) scale(0.1 -0.1)">
       <use xlink:href="#DejaVuSans-34"/>
       <use xlink:href="#DejaVuSans-30" x="63.623047"/>
      </g>
     </g>
    </g>
   </g>
   <g id="line2d_27">
    <path d="M 62.962512 202.128273 
L 63.579961 202.032 
L 64.19741 210.781074 
L 64.814859 214.253472 
L 65.432307 223.941329 
L 66.049756 223.174372 
L 66.667205 226.447394 
L 67.284654 230.570061 
L 67.902102 239.048082 
L 68.519551 243.592228 
L 69.137 245.0106 
L 69.754448 248.650725 
L 70.371897 302.832 
L 77.163833 302.832 
L 77.781282 264.897376 
L 78.398731 263.900943 
L 79.01618 260.629746 
L 79.633628 258.647505 
L 80.251077 258.933449 
L 80.868526 254.329412 
L 81.485974 253.444012 
L 82.103423 253.932631 
L 82.720872 257.084123 
L 83.338321 255.913267 
L 83.955769 256.259907 
L 84.573218 259.773514 
L 85.190667 302.519355 
L 85.808116 302.832 
L 91.982603 302.832 
L 92.600052 256.515695 
L 93.2175 257.163917 
L 93.834949 259.262701 
L 94.452398 258.026102 
L 95.069847 256.362723 
L 95.687295 257.282672 
L 96.304744 259.403499 
L 96.922193 258.385132 
L 97.539642 258.511249 
L 98.15709 256.935242 
L 98.774539 256.467792 
L 99.391988 254.130244 
L 100.009437 302.832 
L 101.244334 302.832 
L 101.861783 299.335176 
L 102.479232 297.632829 
L 103.09668 293.908993 
L 103.714129 294.506914 
L 104.331578 295.366613 
L 104.949026 291.707686 
L 105.566475 301.878775 
L 106.183924 302.529486 
L 106.801373 302.832 
L 107.418821 253.262397 
L 108.03627 252.078728 
L 108.653719 249.376935 
L 109.271168 245.013321 
L 109.888616 245.208743 
L 110.506065 246.37021 
L 111.123514 244.462424 
L 111.740963 248.948995 
L 112.358411 248.88443 
L 112.97586 249.000736 
L 113.593309 249.549027 
L 114.210757 250.859366 
L 114.828206 292.159412 
L 115.445655 292.33257 
L 116.063104 295.073363 
L 116.680552 301.119348 
L 117.298001 302.832 
L 118.532899 302.832 
L 119.150347 301.980409 
L 119.767796 301.654386 
L 120.385245 300.841567 
L 121.002694 300.333013 
L 121.620142 301.231785 
L 122.237591 245.120716 
L 122.85504 247.285332 
L 123.472489 251.012095 
L 124.089937 251.56719 
L 124.707386 254.756455 
L 125.324835 256.969075 
L 126.559732 259.650758 
L 127.177181 259.27672 
L 127.79463 259.24781 
L 128.412078 263.782431 
L 129.029527 264.786816 
L 129.646976 302.832 
L 130.264425 302.832 
L 130.881873 300.044657 
L 131.499322 302.832 
L 133.351668 302.832 
L 133.969117 301.521228 
L 134.586566 302.832 
L 135.821463 302.832 
L 136.438912 302.376477 
L 137.056361 257.594215 
L 137.673809 251.587264 
L 138.291258 246.796001 
L 138.908707 240.246124 
L 139.526156 250.73675 
L 140.143604 255.541994 
L 140.761053 256.987567 
L 141.378502 258.727611 
L 141.995951 266.851496 
L 142.613399 270.754745 
L 143.230848 273.095646 
L 143.848297 269.699345 
L 144.465746 302.832 
L 145.083194 294.890607 
L 145.700643 297.505203 
L 146.318092 297.069319 
L 146.935541 295.87695 
L 147.552989 299.153402 
L 148.170438 295.683812 
L 148.787887 302.681121 
L 150.022784 298.553778 
L 150.640233 299.875233 
L 151.257682 302.832 
L 151.87513 273.959127 
L 152.492579 274.066348 
L 153.110028 275.902289 
L 153.727477 266.286894 
L 154.344925 267.517262 
L 154.962374 266.57368 
L 155.579823 272.000727 
L 156.197272 266.293264 
L 156.81472 266.584584 
L 157.432169 260.524661 
L 158.049618 258.480288 
L 158.667066 266.279774 
L 159.284515 301.244116 
L 159.901964 302.512364 
L 160.519413 302.614362 
L 161.136861 302.016593 
L 161.75431 300.555289 
L 162.371759 301.69902 
L 164.224105 297.286006 
L 164.841554 294.138882 
L 165.459003 301.758784 
L 166.076451 295.577527 
L 166.6939 266.543296 
L 167.311349 263.995676 
L 168.546246 264.899186 
L 169.163695 263.760911 
L 169.781144 263.206341 
L 170.398592 265.323496 
L 171.016041 270.825926 
L 171.63349 274.383756 
L 172.250939 275.338836 
L 173.485836 285.76735 
L 174.103285 302.832 
L 174.720734 300.335472 
L 175.338182 301.049606 
L 176.57308 302.832 
L 180.895221 302.832 
L 181.51267 293.417799 
L 182.130118 291.094131 
L 182.747567 290.519849 
L 183.365016 291.607862 
L 183.982465 294.960438 
L 184.599913 295.211593 
L 185.217362 295.795172 
L 185.834811 290.217345 
L 186.45226 289.755683 
L 187.069708 290.553098 
L 187.687157 291.658582 
L 188.304606 294.252169 
L 188.922055 302.832 
L 193.861644 302.832 
L 194.479093 302.197133 
L 195.096542 302.642 
L 195.713991 302.832 
L 196.331439 290.366352 
L 196.948888 291.542978 
L 197.566337 287.410749 
L 198.801234 292.333434 
L 199.418683 291.633265 
L 200.036132 294.490839 
L 200.653581 299.351441 
L 201.271029 299.368611 
L 202.505927 302.832 
L 203.123375 302.832 
L 203.740824 302.345788 
L 204.358273 300.672235 
L 204.975722 298.306918 
L 205.59317 296.906837 
L 206.210619 296.603353 
L 206.828068 297.412697 
L 207.445517 299.547326 
L 208.062965 297.947076 
L 208.680414 294.337614 
L 209.297863 295.460488 
L 209.915312 295.784169 
L 210.53276 295.449661 
L 210.53276 295.449661 
" clip-path="url(#pc29476c448)" style="fill: none; stroke: #ffa500; stroke-width: 1.5; stroke-linecap: square"/>
   </g>
   <g id="patch_13">
    <path d="M 55.584 307.872 
L 55.584 196.992 
" style="fill: none; stroke: #000000; stroke-width: 0.8; stroke-linejoin: miter; stroke-linecap: square"/>
   </g>
   <g id="patch_14">
    <path d="M 217.911273 307.872 
L 217.911273 196.992 
" style="fill: none; stroke: #000000; stroke-width: 0.8; stroke-linejoin: miter; stroke-linecap: square"/>
   </g>
   <g id="patch_15">
    <path d="M 55.584 307.872 
L 217.911273 307.872 
" style="fill: none; stroke: #000000; stroke-width: 0.8; stroke-linejoin: miter; stroke-linecap: square"/>
   </g>
   <g id="patch_16">
    <path d="M 55.584 196.992 
L 217.911273 196.992 
" style="fill: none; stroke: #000000; stroke-width: 0.8; stroke-linejoin: miter; stroke-linecap: square"/>
   </g>
   <g id="text_27">
    <!-- VAE -->
    <g transform="translate(125.130136 190.992) scale(0.12 -0.12)">
     <defs>
      <path id="DejaVuSans-56" d="M 1831 0 
L 50 4666 
L 709 4666 
L 2188 738 
L 3669 4666 
L 4325 4666 
L 2547 0 
L 1831 0 
z
" transform="scale(0.015625)"/>
      <path id="DejaVuSans-41" d="M 2188 4044 
L 1331 1722 
L 3047 1722 
L 2188 4044 
z
M 1831 4666 
L 2547 4666 
L 4325 0 
L 3669 0 
L 3244 1197 
L 1141 1197 
L 716 0 
L 50 0 
L 1831 4666 
z
" transform="scale(0.015625)"/>
      <path id="DejaVuSans-45" d="M 628 4666 
L 3578 4666 
L 3578 4134 
L 1259 4134 
L 1259 2753 
L 3481 2753 
L 3481 2222 
L 1259 2222 
L 1259 531 
L 3634 531 
L 3634 0 
L 628 0 
L 628 4666 
z
" transform="scale(0.015625)"/>
     </defs>
     <use xlink:href="#DejaVuSans-56"/>
     <use xlink:href="#DejaVuSans-41" x="62.033203"/>
     <use xlink:href="#DejaVuSans-45" x="130.441406"/>
    </g>
   </g>
  </g>
  <g id="axes_4">
   <g id="patch_17">
    <path d="M 250.376727 307.872 
L 412.704 307.872 
L 412.704 196.992 
L 250.376727 196.992 
z
" style="fill: #ffffff"/>
   </g>
   <g id="matplotlib.axis_7">
    <g id="xtick_10">
     <g id="line2d_28">
      <g>
       <use xlink:href="#m7556c9ee08" x="257.75524" y="307.872" style="stroke: #000000; stroke-width: 0.8"/>
      </g>
     </g>
     <g id="text_28">
      <!-- 0 -->
      <g transform="translate(254.57399 322.470437) scale(0.1 -0.1)">
       <use xlink:href="#DejaVuSans-30"/>
      </g>
     </g>
    </g>
    <g id="xtick_11">
     <g id="line2d_29">
      <g>
       <use xlink:href="#m7556c9ee08" x="319.500113" y="307.872" style="stroke: #000000; stroke-width: 0.8"/>
      </g>
     </g>
     <g id="text_29">
      <!-- 100 -->
      <g transform="translate(309.956363 322.470437) scale(0.1 -0.1)">
       <use xlink:href="#DejaVuSans-31"/>
       <use xlink:href="#DejaVuSans-30" x="63.623047"/>
       <use xlink:href="#DejaVuSans-30" x="127.246094"/>
      </g>
     </g>
    </g>
    <g id="xtick_12">
     <g id="line2d_30">
      <g>
       <use xlink:href="#m7556c9ee08" x="381.244987" y="307.872" style="stroke: #000000; stroke-width: 0.8"/>
      </g>
     </g>
     <g id="text_30">
      <!-- 200 -->
      <g transform="translate(371.701237 322.470437) scale(0.1 -0.1)">
       <use xlink:href="#DejaVuSans-32"/>
       <use xlink:href="#DejaVuSans-30" x="63.623047"/>
       <use xlink:href="#DejaVuSans-30" x="127.246094"/>
      </g>
     </g>
    </g>
   </g>
   <g id="matplotlib.axis_8">
    <g id="ytick_16">
     <g id="line2d_31">
      <g>
       <use xlink:href="#mbba88ebf2a" x="250.376727" y="302.832" style="stroke: #000000; stroke-width: 0.8"/>
      </g>
     </g>
     <g id="text_31">
      <!-- 0 -->
      <g transform="translate(237.014227 306.631219) scale(0.1 -0.1)">
       <use xlink:href="#DejaVuSans-30"/>
      </g>
     </g>
    </g>
    <g id="ytick_17">
     <g id="line2d_32">
      <g>
       <use xlink:href="#mbba88ebf2a" x="250.376727" y="278.075716" style="stroke: #000000; stroke-width: 0.8"/>
      </g>
     </g>
     <g id="text_32">
      <!-- 10 -->
      <g transform="translate(230.651727 281.874934) scale(0.1 -0.1)">
       <use xlink:href="#DejaVuSans-31"/>
       <use xlink:href="#DejaVuSans-30" x="63.623047"/>
      </g>
     </g>
    </g>
    <g id="ytick_18">
     <g id="line2d_33">
      <g>
       <use xlink:href="#mbba88ebf2a" x="250.376727" y="253.319431" style="stroke: #000000; stroke-width: 0.8"/>
      </g>
     </g>
     <g id="text_33">
      <!-- 20 -->
      <g transform="translate(230.651727 257.11865) scale(0.1 -0.1)">
       <use xlink:href="#DejaVuSans-32"/>
       <use xlink:href="#DejaVuSans-30" x="63.623047"/>
      </g>
     </g>
    </g>
    <g id="ytick_19">
     <g id="line2d_34">
      <g>
       <use xlink:href="#mbba88ebf2a" x="250.376727" y="228.563147" style="stroke: #000000; stroke-width: 0.8"/>
      </g>
     </g>
     <g id="text_34">
      <!-- 30 -->
      <g transform="translate(230.651727 232.362365) scale(0.1 -0.1)">
       <use xlink:href="#DejaVuSans-33"/>
       <use xlink:href="#DejaVuSans-30" x="63.623047"/>
      </g>
     </g>
    </g>
    <g id="ytick_20">
     <g id="line2d_35">
      <g>
       <use xlink:href="#mbba88ebf2a" x="250.376727" y="203.806862" style="stroke: #000000; stroke-width: 0.8"/>
      </g>
     </g>
     <g id="text_35">
      <!-- 40 -->
      <g transform="translate(230.651727 207.606081) scale(0.1 -0.1)">
       <use xlink:href="#DejaVuSans-34"/>
       <use xlink:href="#DejaVuSans-30" x="63.623047"/>
      </g>
     </g>
    </g>
   </g>
   <g id="line2d_36">
    <path d="M 257.75524 202.162738 
L 258.372688 202.032 
L 258.990137 210.813329 
L 259.607586 214.303591 
L 260.225035 223.980548 
L 260.842483 223.210222 
L 261.459932 226.45859 
L 262.077381 230.594516 
L 262.69483 239.058205 
L 263.312278 243.609464 
L 263.929727 245.021493 
L 264.547176 248.675457 
L 265.164625 268.886096 
L 265.782073 275.573836 
L 266.399522 268.374443 
L 267.016971 263.543779 
L 267.634419 278.097759 
L 268.251868 276.455511 
L 268.869317 289.818409 
L 270.104214 294.829613 
L 270.721663 274.025431 
L 271.339112 293.80881 
L 272.574009 264.914975 
L 273.191458 263.932279 
L 273.808907 260.665482 
L 274.426356 258.66923 
L 275.043804 258.931753 
L 275.661253 254.346574 
L 276.278702 253.454712 
L 276.89615 253.95923 
L 277.513599 257.111549 
L 278.131048 255.932541 
L 278.748497 256.278874 
L 279.365945 259.754716 
L 279.983394 279.53139 
L 280.600843 279.910359 
L 281.218292 276.352787 
L 281.83574 273.60982 
L 282.453189 273.334474 
L 283.070638 283.396557 
L 283.688087 287.448673 
L 284.305535 282.49289 
L 284.922984 284.279168 
L 285.540433 275.173752 
L 286.157882 279.021861 
L 286.77533 275.798301 
L 287.392779 256.542585 
L 288.010228 257.372139 
L 288.627676 259.278945 
L 289.245125 258.028913 
L 289.862574 256.379162 
L 290.480023 257.309614 
L 291.097471 259.446973 
L 291.71492 258.402498 
L 292.332369 258.480896 
L 292.949818 256.951577 
L 293.567266 256.307898 
L 294.184715 254.123894 
L 294.802164 280.129806 
L 295.419613 270.603932 
L 296.65451 259.19232 
L 297.271959 258.255616 
L 297.889408 264.625817 
L 298.506856 255.973852 
L 299.124305 260.926849 
L 299.741754 255.737573 
L 300.359202 255.124434 
L 300.976651 284.752557 
L 301.5941 264.823293 
L 302.211549 253.564798 
L 302.828997 252.098196 
L 303.446446 249.237734 
L 304.063895 245.012962 
L 304.681344 245.23139 
L 305.298792 246.400233 
L 305.916241 244.461311 
L 306.53369 248.939831 
L 307.151139 248.901907 
L 307.768587 249.013764 
L 308.386036 249.56592 
L 309.003485 250.858241 
L 309.620934 258.339577 
L 310.238382 259.966724 
L 310.855831 250.809815 
L 311.47328 262.52284 
L 312.090728 257.138323 
L 312.708177 258.445529 
L 313.325626 275.003109 
L 313.943075 256.183129 
L 314.560523 250.140635 
L 315.177972 268.665981 
L 315.795421 254.805915 
L 316.41287 278.801283 
L 317.030318 245.131768 
L 317.647767 247.291033 
L 318.265216 251.058615 
L 318.882665 251.580329 
L 319.500113 254.754045 
L 320.117562 256.968762 
L 321.352459 259.684866 
L 321.969908 259.351899 
L 322.587357 259.270542 
L 323.204806 263.776694 
L 323.822254 264.794635 
L 324.439703 279.391448 
L 325.057152 287.844479 
L 325.674601 278.238585 
L 326.909498 284.271812 
L 327.526947 262.860563 
L 328.144396 276.943086 
L 328.761844 293.655128 
L 329.379293 276.029522 
L 329.996742 283.562889 
L 330.614191 282.175505 
L 331.231639 287.902027 
L 331.849088 257.689287 
L 332.466537 251.609255 
L 333.083985 246.823402 
L 333.701434 240.232494 
L 334.318883 250.755953 
L 334.936332 255.55677 
L 336.171229 258.685331 
L 336.788678 266.870524 
L 337.406127 270.765779 
L 338.023575 273.094395 
L 338.641024 269.725304 
L 339.258473 285.140664 
L 339.875922 271.196457 
L 340.49337 278.275873 
L 341.110819 291.044894 
L 342.345717 265.880762 
L 342.963165 271.527205 
L 343.580614 264.201707 
L 344.198063 285.356752 
L 344.815511 285.883345 
L 345.43296 276.235831 
L 346.050409 278.362059 
L 346.667858 273.942129 
L 347.285306 274.083359 
L 347.902755 274.642635 
L 348.520204 266.292987 
L 349.137653 267.494622 
L 349.755101 266.566464 
L 350.37255 272.00751 
L 350.989999 266.309289 
L 351.607448 266.590409 
L 352.224896 260.555106 
L 352.842345 258.49066 
L 353.459794 266.315253 
L 354.077243 268.276114 
L 354.694691 266.54969 
L 355.31214 268.88974 
L 355.929589 261.864246 
L 356.547037 266.048788 
L 357.164486 280.64954 
L 357.781935 266.641815 
L 358.399384 269.914405 
L 359.016832 276.318215 
L 359.634281 275.026987 
L 360.25173 269.153897 
L 360.869179 283.270671 
L 361.486627 266.550185 
L 362.104076 264.001275 
L 362.721525 264.540574 
L 363.338974 264.913324 
L 363.956422 263.911707 
L 364.573871 263.223378 
L 365.19132 265.33151 
L 365.808768 270.836988 
L 366.426217 274.38518 
L 367.043666 275.359998 
L 368.278563 285.772363 
L 368.896012 289.775803 
L 369.513461 284.238495 
L 370.13091 283.989781 
L 370.748358 281.35576 
L 371.365807 286.984822 
L 371.983256 297.214717 
L 372.600705 300.373127 
L 373.218153 302.832 
L 373.835602 296.235468 
L 374.453051 295.213929 
L 375.0705 295.050082 
L 375.687948 298.08952 
L 376.305397 293.417279 
L 376.922846 291.136527 
L 377.540294 290.521418 
L 378.157743 291.607879 
L 378.775192 294.962321 
L 379.392641 295.215358 
L 380.010089 295.790352 
L 380.627538 290.212462 
L 381.244987 289.75378 
L 381.862436 290.56587 
L 382.479884 291.664158 
L 383.097333 294.260835 
L 383.714782 296.065516 
L 384.332231 291.700406 
L 384.949679 291.692553 
L 385.567128 295.340211 
L 386.184577 295.031513 
L 386.802026 289.427791 
L 387.419474 290.022534 
L 388.036923 295.659089 
L 388.654372 289.282814 
L 389.27182 288.575314 
L 389.889269 293.488604 
L 390.506718 293.241772 
L 391.124167 290.369956 
L 391.741615 291.542315 
L 392.359064 287.408154 
L 393.593962 292.329513 
L 394.21141 291.641902 
L 394.828859 294.486087 
L 395.446308 299.452369 
L 396.063757 299.369851 
L 397.298654 302.832 
L 398.533552 302.832 
L 399.151 301.197323 
L 399.768449 302.832 
L 400.385898 298.841114 
L 401.003346 300.267898 
L 401.620795 298.142036 
L 402.238244 302.073911 
L 402.855693 300.790889 
L 403.473141 302.832 
L 405.325488 302.832 
L 405.325488 302.832 
" clip-path="url(#pd597155d63)" style="fill: none; stroke: #ff0000; stroke-width: 1.5; stroke-linecap: square"/>
   </g>
   <g id="patch_18">
    <path d="M 250.376727 307.872 
L 250.376727 196.992 
" style="fill: none; stroke: #000000; stroke-width: 0.8; stroke-linejoin: miter; stroke-linecap: square"/>
   </g>
   <g id="patch_19">
    <path d="M 412.704 307.872 
L 412.704 196.992 
" style="fill: none; stroke: #000000; stroke-width: 0.8; stroke-linejoin: miter; stroke-linecap: square"/>
   </g>
   <g id="patch_20">
    <path d="M 250.376727 307.872 
L 412.704 307.872 
" style="fill: none; stroke: #000000; stroke-width: 0.8; stroke-linejoin: miter; stroke-linecap: square"/>
   </g>
   <g id="patch_21">
    <path d="M 250.376727 196.992 
L 412.704 196.992 
" style="fill: none; stroke: #000000; stroke-width: 0.8; stroke-linejoin: miter; stroke-linecap: square"/>
   </g>
   <g id="text_36">
    <!-- VRNN -->
    <g transform="translate(314.289426 190.992) scale(0.12 -0.12)">
     <use xlink:href="#DejaVuSans-56"/>
     <use xlink:href="#DejaVuSans-52" x="68.408203"/>
     <use xlink:href="#DejaVuSans-4e" x="137.890625"/>
     <use xlink:href="#DejaVuSans-4e" x="212.695312"/>
    </g>
   </g>
  </g>
  <g id="text_37">
   <!-- VMAF Scores Over Frames: Video #32 -->
   <g transform="translate(114.338063 16.318125) scale(0.12 -0.12)">
    <defs>
     <path id="DejaVuSans-4d" d="M 628 4666 
L 1569 4666 
L 2759 1491 
L 3956 4666 
L 4897 4666 
L 4897 0 
L 4281 0 
L 4281 4097 
L 3078 897 
L 2444 897 
L 1241 4097 
L 1241 0 
L 628 0 
L 628 4666 
z
" transform="scale(0.015625)"/>
     <path id="DejaVuSans-73" d="M 2834 3397 
L 2834 2853 
Q 2591 2978 2328 3040 
Q 2066 3103 1784 3103 
Q 1356 3103 1142 2972 
Q 928 2841 928 2578 
Q 928 2378 1081 2264 
Q 1234 2150 1697 2047 
L 1894 2003 
Q 2506 1872 2764 1633 
Q 3022 1394 3022 966 
Q 3022 478 2636 193 
Q 2250 -91 1575 -91 
Q 1294 -91 989 -36 
Q 684 19 347 128 
L 347 722 
Q 666 556 975 473 
Q 1284 391 1588 391 
Q 1994 391 2212 530 
Q 2431 669 2431 922 
Q 2431 1156 2273 1281 
Q 2116 1406 1581 1522 
L 1381 1569 
Q 847 1681 609 1914 
Q 372 2147 372 2553 
Q 372 3047 722 3315 
Q 1072 3584 1716 3584 
Q 2034 3584 2315 3537 
Q 2597 3491 2834 3397 
z
" transform="scale(0.015625)"/>
     <path id="DejaVuSans-76" d="M 191 3500 
L 800 3500 
L 1894 563 
L 2988 3500 
L 3597 3500 
L 2284 0 
L 1503 0 
L 191 3500 
z
" transform="scale(0.015625)"/>
     <path id="DejaVuSans-61" d="M 2194 1759 
Q 1497 1759 1228 1600 
Q 959 1441 959 1056 
Q 959 750 1161 570 
Q 1363 391 1709 391 
Q 2188 391 2477 730 
Q 2766 1069 2766 1631 
L 2766 1759 
L 2194 1759 
z
M 3341 1997 
L 3341 0 
L 2766 0 
L 2766 531 
Q 2569 213 2275 61 
Q 1981 -91 1556 -91 
Q 1019 -91 701 211 
Q 384 513 384 1019 
Q 384 1609 779 1909 
Q 1175 2209 1959 2209 
L 2766 2209 
L 2766 2266 
Q 2766 2663 2505 2880 
Q 2244 3097 1772 3097 
Q 1472 3097 1187 3025 
Q 903 2953 641 2809 
L 641 3341 
Q 956 3463 1253 3523 
Q 1550 3584 1831 3584 
Q 2591 3584 2966 3190 
Q 3341 2797 3341 1997 
z
" transform="scale(0.015625)"/>
     <path id="DejaVuSans-6d" d="M 3328 2828 
Q 3544 3216 3844 3400 
Q 4144 3584 4550 3584 
Q 5097 3584 5394 3201 
Q 5691 2819 5691 2113 
L 5691 0 
L 5113 0 
L 5113 2094 
Q 5113 2597 4934 2840 
Q 4756 3084 4391 3084 
Q 3944 3084 3684 2787 
Q 3425 2491 3425 1978 
L 3425 0 
L 2847 0 
L 2847 2094 
Q 2847 2600 2669 2842 
Q 2491 3084 2119 3084 
Q 1678 3084 1418 2786 
Q 1159 2488 1159 1978 
L 1159 0 
L 581 0 
L 581 3500 
L 1159 3500 
L 1159 2956 
Q 1356 3278 1631 3431 
Q 1906 3584 2284 3584 
Q 2666 3584 2933 3390 
Q 3200 3197 3328 2828 
z
" transform="scale(0.015625)"/>
     <path id="DejaVuSans-3a" d="M 750 794 
L 1409 794 
L 1409 0 
L 750 0 
L 750 794 
z
M 750 3309 
L 1409 3309 
L 1409 2516 
L 750 2516 
L 750 3309 
z
" transform="scale(0.015625)"/>
     <path id="DejaVuSans-23" d="M 3272 2816 
L 2363 2816 
L 2100 1772 
L 3016 1772 
L 3272 2816 
z
M 2803 4594 
L 2478 3297 
L 3391 3297 
L 3719 4594 
L 4219 4594 
L 3897 3297 
L 4872 3297 
L 4872 2816 
L 3775 2816 
L 3519 1772 
L 4513 1772 
L 4513 1294 
L 3397 1294 
L 3072 0 
L 2572 0 
L 2894 1294 
L 1978 1294 
L 1656 0 
L 1153 0 
L 1478 1294 
L 494 1294 
L 494 1772 
L 1594 1772 
L 1856 2816 
L 850 2816 
L 850 3297 
L 1978 3297 
L 2297 4594 
L 2803 4594 
z
" transform="scale(0.015625)"/>
    </defs>
    <use xlink:href="#DejaVuSans-56"/>
    <use xlink:href="#DejaVuSans-4d" x="68.408203"/>
    <use xlink:href="#DejaVuSans-41" x="154.6875"/>
    <use xlink:href="#DejaVuSans-46" x="223.095703"/>
    <use xlink:href="#DejaVuSans-20" x="280.615234"/>
    <use xlink:href="#DejaVuSans-53" x="312.402344"/>
    <use xlink:href="#DejaVuSans-63" x="375.878906"/>
    <use xlink:href="#DejaVuSans-6f" x="430.859375"/>
    <use xlink:href="#DejaVuSans-72" x="492.041016"/>
    <use xlink:href="#DejaVuSans-65" x="530.904297"/>
    <use xlink:href="#DejaVuSans-73" x="592.427734"/>
    <use xlink:href="#DejaVuSans-20" x="644.527344"/>
    <use xlink:href="#DejaVuSans-4f" x="676.314453"/>
    <use xlink:href="#DejaVuSans-76" x="755.025391"/>
    <use xlink:href="#DejaVuSans-65" x="814.205078"/>
    <use xlink:href="#DejaVuSans-72" x="875.728516"/>
    <use xlink:href="#DejaVuSans-20" x="916.841797"/>
    <use xlink:href="#DejaVuSans-46" x="948.628906"/>
    <use xlink:href="#DejaVuSans-72" x="998.898438"/>
    <use xlink:href="#DejaVuSans-61" x="1040.011719"/>
    <use xlink:href="#DejaVuSans-6d" x="1101.291016"/>
    <use xlink:href="#DejaVuSans-65" x="1198.703125"/>
    <use xlink:href="#DejaVuSans-73" x="1260.226562"/>
    <use xlink:href="#DejaVuSans-3a" x="1312.326172"/>
    <use xlink:href="#DejaVuSans-20" x="1346.017578"/>
    <use xlink:href="#DejaVuSans-56" x="1377.804688"/>
    <use xlink:href="#DejaVuSans-69" x="1443.962891"/>
    <use xlink:href="#DejaVuSans-64" x="1471.746094"/>
    <use xlink:href="#DejaVuSans-65" x="1535.222656"/>
    <use xlink:href="#DejaVuSans-6f" x="1596.746094"/>
    <use xlink:href="#DejaVuSans-20" x="1657.927734"/>
    <use xlink:href="#DejaVuSans-23" x="1689.714844"/>
    <use xlink:href="#DejaVuSans-33" x="1773.503906"/>
    <use xlink:href="#DejaVuSans-32" x="1837.126953"/>
   </g>
  </g>
  <g id="text_38">
   <!-- Video Frames -->
   <g transform="translate(187.847438 339.936375) scale(0.12 -0.12)">
    <use xlink:href="#DejaVuSans-56"/>
    <use xlink:href="#DejaVuSans-69" x="66.158203"/>
    <use xlink:href="#DejaVuSans-64" x="93.941406"/>
    <use xlink:href="#DejaVuSans-65" x="157.417969"/>
    <use xlink:href="#DejaVuSans-6f" x="218.941406"/>
    <use xlink:href="#DejaVuSans-20" x="280.123047"/>
    <use xlink:href="#DejaVuSans-46" x="311.910156"/>
    <use xlink:href="#DejaVuSans-72" x="362.179688"/>
    <use xlink:href="#DejaVuSans-61" x="403.292969"/>
    <use xlink:href="#DejaVuSans-6d" x="464.572266"/>
    <use xlink:href="#DejaVuSans-65" x="561.984375"/>
    <use xlink:href="#DejaVuSans-73" x="623.507812"/>
   </g>
  </g>
  <g id="text_39">
   <!-- Raw VMAF Scores -->
   <g transform="translate(16.318125 226.284562) rotate(-90) scale(0.12 -0.12)">
    <defs>
     <path id="DejaVuSans-77" d="M 269 3500 
L 844 3500 
L 1563 769 
L 2278 3500 
L 2956 3500 
L 3675 769 
L 4391 3500 
L 4966 3500 
L 4050 0 
L 3372 0 
L 2619 2869 
L 1863 0 
L 1184 0 
L 269 3500 
z
" transform="scale(0.015625)"/>
    </defs>
    <use xlink:href="#DejaVuSans-52"/>
    <use xlink:href="#DejaVuSans-61" x="67.232422"/>
    <use xlink:href="#DejaVuSans-77" x="128.511719"/>
    <use xlink:href="#DejaVuSans-20" x="210.298828"/>
    <use xlink:href="#DejaVuSans-56" x="242.085938"/>
    <use xlink:href="#DejaVuSans-4d" x="310.494141"/>
    <use xlink:href="#DejaVuSans-41" x="396.773438"/>
    <use xlink:href="#DejaVuSans-46" x="465.181641"/>
    <use xlink:href="#DejaVuSans-20" x="522.701172"/>
    <use xlink:href="#DejaVuSans-53" x="554.488281"/>
    <use xlink:href="#DejaVuSans-63" x="617.964844"/>
    <use xlink:href="#DejaVuSans-6f" x="672.945312"/>
    <use xlink:href="#DejaVuSans-72" x="734.126953"/>
    <use xlink:href="#DejaVuSans-65" x="772.990234"/>
    <use xlink:href="#DejaVuSans-73" x="834.513672"/>
   </g>
  </g>
 </g>
 <defs>
  <clipPath id="p2aa5847022">
   <rect x="55.584" y="41.76" width="162.327273" height="110.88"/>
  </clipPath>
  <clipPath id="pc7e4762973">
   <rect x="250.376727" y="41.76" width="162.327273" height="110.88"/>
  </clipPath>
  <clipPath id="pc29476c448">
   <rect x="55.584" y="196.992" width="162.327273" height="110.88"/>
  </clipPath>
  <clipPath id="pd597155d63">
   <rect x="250.376727" y="196.992" width="162.327273" height="110.88"/>
  </clipPath>
 </defs>
</svg>
