<?xml version="1.0" encoding="utf-8" standalone="no"?>
<!DOCTYPE svg PUBLIC "-//W3C//DTD SVG 1.1//EN"
  "http://www.w3.org/Graphics/SVG/1.1/DTD/svg11.dtd">
<svg xmlns:xlink="http://www.w3.org/1999/xlink" width="419.904pt" height="349.632pt" viewBox="0 0 419.904 349.632" xmlns="http://www.w3.org/2000/svg" version="1.1">
 <metadata>
  <rdf:RDF xmlns:dc="http://purl.org/dc/elements/1.1/" xmlns:cc="http://creativecommons.org/ns#" xmlns:rdf="http://www.w3.org/1999/02/22-rdf-syntax-ns#">
   <cc:Work>
    <dc:type rdf:resource="http://purl.org/dc/dcmitype/StillImage"/>
    <dc:date>2024-07-24T16:31:59.588772</dc:date>
    <dc:format>image/svg+xml</dc:format>
    <dc:creator>
     <cc:Agent>
      <dc:title>Matplotlib v3.7.2, https://matplotlib.org/</dc:title>
     </cc:Agent>
    </dc:creator>
   </cc:Work>
  </rdf:RDF>
 </metadata>
 <defs>
  <style type="text/css">*{stroke-linejoin: round; stroke-linecap: butt}</style>
 </defs>
 <g id="figure_1">
  <g id="patch_1">
   <path d="M 0 349.632 
L 419.904 349.632 
L 419.904 -0 
L 0 -0 
z
" style="fill: #ffffff"/>
  </g>
  <g id="axes_1">
   <g id="patch_2">
    <path d="M 55.584 152.64 
L 217.911273 152.64 
L 217.911273 41.76 
L 55.584 41.76 
z
" style="fill: #ffffff"/>
   </g>
   <g id="matplotlib.axis_1">
    <g id="xtick_1">
     <g id="line2d_1">
      <defs>
       <path id="m2249de190c" d="M 0 0 
L 0 3.5 
" style="stroke: #000000; stroke-width: 0.8"/>
      </defs>
      <g>
       <use xlink:href="#m2249de190c" x="62.962512" y="152.64" style="stroke: #000000; stroke-width: 0.8"/>
      </g>
     </g>
     <g id="text_1">
      <!-- 0 -->
      <g transform="translate(59.781262 167.238437) scale(0.1 -0.1)">
       <defs>
        <path id="DejaVuSans-30" d="M 2034 4250 
Q 1547 4250 1301 3770 
Q 1056 3291 1056 2328 
Q 1056 1369 1301 889 
Q 1547 409 2034 409 
Q 2525 409 2770 889 
Q 3016 1369 3016 2328 
Q 3016 3291 2770 3770 
Q 2525 4250 2034 4250 
z
M 2034 4750 
Q 2819 4750 3233 4129 
Q 3647 3509 3647 2328 
Q 3647 1150 3233 529 
Q 2819 -91 2034 -91 
Q 1250 -91 836 529 
Q 422 1150 422 2328 
Q 422 3509 836 4129 
Q 1250 4750 2034 4750 
z
" transform="scale(0.015625)"/>
       </defs>
       <use xlink:href="#DejaVuSans-30"/>
      </g>
     </g>
    </g>
    <g id="xtick_2">
     <g id="line2d_2">
      <g>
       <use xlink:href="#m2249de190c" x="121.638555" y="152.64" style="stroke: #000000; stroke-width: 0.8"/>
      </g>
     </g>
     <g id="text_2">
      <!-- 200 -->
      <g transform="translate(112.094805 167.238437) scale(0.1 -0.1)">
       <defs>
        <path id="DejaVuSans-32" d="M 1228 531 
L 3431 531 
L 3431 0 
L 469 0 
L 469 531 
Q 828 903 1448 1529 
Q 2069 2156 2228 2338 
Q 2531 2678 2651 2914 
Q 2772 3150 2772 3378 
Q 2772 3750 2511 3984 
Q 2250 4219 1831 4219 
Q 1534 4219 1204 4116 
Q 875 4013 500 3803 
L 500 4441 
Q 881 4594 1212 4672 
Q 1544 4750 1819 4750 
Q 2544 4750 2975 4387 
Q 3406 4025 3406 3419 
Q 3406 3131 3298 2873 
Q 3191 2616 2906 2266 
Q 2828 2175 2409 1742 
Q 1991 1309 1228 531 
z
" transform="scale(0.015625)"/>
       </defs>
       <use xlink:href="#DejaVuSans-32"/>
       <use xlink:href="#DejaVuSans-30" x="63.623047"/>
       <use xlink:href="#DejaVuSans-30" x="127.246094"/>
      </g>
     </g>
    </g>
    <g id="xtick_3">
     <g id="line2d_3">
      <g>
       <use xlink:href="#m2249de190c" x="180.314598" y="152.64" style="stroke: #000000; stroke-width: 0.8"/>
      </g>
     </g>
     <g id="text_3">
      <!-- 400 -->
      <g transform="translate(170.770848 167.238437) scale(0.1 -0.1)">
       <defs>
        <path id="DejaVuSans-34" d="M 2419 4116 
L 825 1625 
L 2419 1625 
L 2419 4116 
z
M 2253 4666 
L 3047 4666 
L 3047 1625 
L 3713 1625 
L 3713 1100 
L 3047 1100 
L 3047 0 
L 2419 0 
L 2419 1100 
L 313 1100 
L 313 1709 
L 2253 4666 
z
" transform="scale(0.015625)"/>
       </defs>
       <use xlink:href="#DejaVuSans-34"/>
       <use xlink:href="#DejaVuSans-30" x="63.623047"/>
       <use xlink:href="#DejaVuSans-30" x="127.246094"/>
      </g>
     </g>
    </g>
   </g>
   <g id="matplotlib.axis_2">
    <g id="ytick_1">
     <g id="line2d_4">
      <defs>
       <path id="m6a38228ff2" d="M 0 0 
L -3.5 0 
" style="stroke: #000000; stroke-width: 0.8"/>
      </defs>
      <g>
       <use xlink:href="#m6a38228ff2" x="55.584" y="151.218855" style="stroke: #000000; stroke-width: 0.8"/>
      </g>
     </g>
     <g id="text_4">
      <!-- 10 -->
      <g transform="translate(35.859 155.018073) scale(0.1 -0.1)">
       <defs>
        <path id="DejaVuSans-31" d="M 794 531 
L 1825 531 
L 1825 4091 
L 703 3866 
L 703 4441 
L 1819 4666 
L 2450 4666 
L 2450 531 
L 3481 531 
L 3481 0 
L 794 0 
L 794 531 
z
" transform="scale(0.015625)"/>
       </defs>
       <use xlink:href="#DejaVuSans-31"/>
       <use xlink:href="#DejaVuSans-30" x="63.623047"/>
      </g>
     </g>
    </g>
    <g id="ytick_2">
     <g id="line2d_5">
      <g>
       <use xlink:href="#m6a38228ff2" x="55.584" y="124.775929" style="stroke: #000000; stroke-width: 0.8"/>
      </g>
     </g>
     <g id="text_5">
      <!-- 20 -->
      <g transform="translate(35.859 128.575147) scale(0.1 -0.1)">
       <use xlink:href="#DejaVuSans-32"/>
       <use xlink:href="#DejaVuSans-30" x="63.623047"/>
      </g>
     </g>
    </g>
    <g id="ytick_3">
     <g id="line2d_6">
      <g>
       <use xlink:href="#m6a38228ff2" x="55.584" y="98.333003" style="stroke: #000000; stroke-width: 0.8"/>
      </g>
     </g>
     <g id="text_6">
      <!-- 30 -->
      <g transform="translate(35.859 102.132221) scale(0.1 -0.1)">
       <defs>
        <path id="DejaVuSans-33" d="M 2597 2516 
Q 3050 2419 3304 2112 
Q 3559 1806 3559 1356 
Q 3559 666 3084 287 
Q 2609 -91 1734 -91 
Q 1441 -91 1130 -33 
Q 819 25 488 141 
L 488 750 
Q 750 597 1062 519 
Q 1375 441 1716 441 
Q 2309 441 2620 675 
Q 2931 909 2931 1356 
Q 2931 1769 2642 2001 
Q 2353 2234 1838 2234 
L 1294 2234 
L 1294 2753 
L 1863 2753 
Q 2328 2753 2575 2939 
Q 2822 3125 2822 3475 
Q 2822 3834 2567 4026 
Q 2313 4219 1838 4219 
Q 1578 4219 1281 4162 
Q 984 4106 628 3988 
L 628 4550 
Q 988 4650 1302 4700 
Q 1616 4750 1894 4750 
Q 2613 4750 3031 4423 
Q 3450 4097 3450 3541 
Q 3450 3153 3228 2886 
Q 3006 2619 2597 2516 
z
" transform="scale(0.015625)"/>
       </defs>
       <use xlink:href="#DejaVuSans-33"/>
       <use xlink:href="#DejaVuSans-30" x="63.623047"/>
      </g>
     </g>
    </g>
    <g id="ytick_4">
     <g id="line2d_7">
      <g>
       <use xlink:href="#m6a38228ff2" x="55.584" y="71.890077" style="stroke: #000000; stroke-width: 0.8"/>
      </g>
     </g>
     <g id="text_7">
      <!-- 40 -->
      <g transform="translate(35.859 75.689296) scale(0.1 -0.1)">
       <use xlink:href="#DejaVuSans-34"/>
       <use xlink:href="#DejaVuSans-30" x="63.623047"/>
      </g>
     </g>
    </g>
    <g id="ytick_5">
     <g id="line2d_8">
      <g>
       <use xlink:href="#m6a38228ff2" x="55.584" y="45.447151" style="stroke: #000000; stroke-width: 0.8"/>
      </g>
     </g>
     <g id="text_8">
      <!-- 50 -->
      <g transform="translate(35.859 49.24637) scale(0.1 -0.1)">
       <defs>
        <path id="DejaVuSans-35" d="M 691 4666 
L 3169 4666 
L 3169 4134 
L 1269 4134 
L 1269 2991 
Q 1406 3038 1543 3061 
Q 1681 3084 1819 3084 
Q 2600 3084 3056 2656 
Q 3513 2228 3513 1497 
Q 3513 744 3044 326 
Q 2575 -91 1722 -91 
Q 1428 -91 1123 -41 
Q 819 9 494 109 
L 494 744 
Q 775 591 1075 516 
Q 1375 441 1709 441 
Q 2250 441 2565 725 
Q 2881 1009 2881 1497 
Q 2881 1984 2565 2268 
Q 2250 2553 1709 2553 
Q 1456 2553 1204 2497 
Q 953 2441 691 2322 
L 691 4666 
z
" transform="scale(0.015625)"/>
       </defs>
       <use xlink:href="#DejaVuSans-35"/>
       <use xlink:href="#DejaVuSans-30" x="63.623047"/>
      </g>
     </g>
    </g>
   </g>
   <g id="line2d_9">
    <path d="M 62.962512 46.8 
L 63.255893 56.733248 
L 63.842653 66.510761 
L 64.136033 75.531233 
L 64.429413 77.036269 
L 64.722794 80.117344 
L 65.016174 77.779358 
L 65.309554 77.024048 
L 66.189695 72.612363 
L 67.069835 83.200589 
L 67.363216 90.8296 
L 67.656596 93.740586 
L 68.536736 98.655609 
L 68.830117 100.053546 
L 69.123497 100.386957 
L 69.416877 97.737093 
L 69.710257 100.679828 
L 70.003638 101.058993 
L 71.177158 78.389603 
L 71.763919 77.296708 
L 72.057299 79.360433 
L 72.350679 86.905719 
L 72.644059 91.271284 
L 72.93744 98.130915 
L 73.23082 99.799453 
L 73.5242 107.054739 
L 73.81758 118.468341 
L 74.110961 122.67044 
L 74.404341 123.294662 
L 74.697721 118.387595 
L 74.991101 115.956845 
L 75.284481 118.132963 
L 75.577862 114.360824 
L 75.871242 114.431559 
L 76.751382 121.594604 
L 77.044763 120.492738 
L 77.924903 118.83873 
L 78.218284 114.735264 
L 78.511664 114.074432 
L 78.805044 99.575757 
L 79.098424 93.449925 
L 79.685185 102.965378 
L 79.978565 101.998019 
L 80.271945 104.829049 
L 80.565325 98.087353 
L 80.858705 96.036694 
L 81.152086 104.124165 
L 81.445466 108.945517 
L 81.738846 106.914874 
L 82.325607 98.974527 
L 82.618987 100.104599 
L 82.912367 101.835741 
L 83.205747 104.298196 
L 83.499127 104.932678 
L 83.792508 101.785558 
L 84.672648 111.775711 
L 84.966028 108.301235 
L 85.259409 110.124631 
L 85.552789 111.197888 
L 85.846169 110.037604 
L 86.139549 107.803045 
L 86.43293 108.190455 
L 86.72631 107.321199 
L 87.01969 108.368048 
L 87.31307 107.842714 
L 87.60645 106.097748 
L 87.899831 102.745555 
L 88.193211 105.358002 
L 88.486591 104.964426 
L 88.779971 103.696707 
L 89.366732 106.641161 
L 89.660112 103.147588 
L 90.246872 103.69923 
L 90.540253 104.570059 
L 90.833633 106.789252 
L 91.127013 106.783376 
L 91.420393 108.692117 
L 91.713773 107.331832 
L 92.007154 104.278279 
L 92.300534 102.864101 
L 92.887294 96.25351 
L 93.180674 97.123464 
L 93.474055 95.024567 
L 93.767435 95.55099 
L 94.060815 91.900531 
L 94.354195 90.78924 
L 94.647576 91.566208 
L 94.940956 89.492199 
L 95.234336 92.831034 
L 95.527716 99.106048 
L 95.821096 101.88736 
L 96.114477 101.522247 
L 96.701237 95.399155 
L 96.994617 97.472954 
L 97.581378 98.976002 
L 97.874758 105.958587 
L 98.168138 107.571801 
L 98.461518 110.084866 
L 98.754899 109.663352 
L 99.048279 106.562686 
L 99.341659 105.505572 
L 99.635039 107.559043 
L 99.928419 106.349924 
L 100.2218 106.642798 
L 100.51518 104.60233 
L 100.80856 106.092359 
L 101.10194 105.617667 
L 101.395321 106.095062 
L 101.688701 108.399751 
L 101.982081 107.914219 
L 102.275461 107.699198 
L 102.568841 106.362992 
L 103.155602 108.018705 
L 103.448982 105.536542 
L 103.742362 104.400282 
L 104.035742 106.135001 
L 104.329123 106.361572 
L 104.622503 110.134502 
L 104.915883 109.953304 
L 105.209263 109.598065 
L 105.502644 108.107228 
L 106.089404 111.588738 
L 106.382784 110.768317 
L 106.676164 114.841903 
L 106.969545 114.365991 
L 107.262925 116.2337 
L 107.556305 116.329426 
L 107.849685 117.114599 
L 108.436446 113.530453 
L 108.729826 114.893729 
L 109.023206 112.197343 
L 109.316586 111.830678 
L 109.609967 110.671164 
L 109.903347 108.684512 
L 110.196727 103.684702 
L 110.490107 100.649488 
L 111.076868 106.212968 
L 111.370248 107.445801 
L 112.250388 118.424697 
L 112.543769 124.282223 
L 112.837149 127.902196 
L 113.130529 134.111691 
L 113.423909 136.215871 
L 113.71729 135.829659 
L 114.01067 137.036707 
L 114.30405 134.276396 
L 114.59743 135.955054 
L 114.89081 135.496256 
L 115.477571 133.623094 
L 115.770951 134.514485 
L 116.064331 134.142716 
L 116.357711 135.611423 
L 116.651092 132.818634 
L 117.237852 130.087186 
L 117.531232 129.776564 
L 117.824613 124.347921 
L 118.117993 123.779282 
L 118.411373 119.954267 
L 118.704753 114.557763 
L 118.998133 117.74224 
L 119.291514 110.464634 
L 119.584894 98.57472 
L 119.878274 103.353401 
L 120.171654 103.384725 
L 120.465034 103.953061 
L 120.758415 100.154037 
L 121.051795 94.144295 
L 121.345175 94.13861 
L 121.638555 93.661725 
L 121.931936 92.643728 
L 122.518696 86.560337 
L 122.812076 88.057469 
L 123.105456 86.789108 
L 123.692217 90.250008 
L 124.278977 91.121922 
L 124.865738 96.675227 
L 125.452498 101.221406 
L 125.745878 102.858339 
L 126.039259 103.4819 
L 126.332639 101.573993 
L 127.212779 117.222253 
L 127.50616 116.736988 
L 127.79954 118.978468 
L 128.09292 118.891058 
L 128.3863 113.992625 
L 128.67968 112.966745 
L 128.973061 117.127384 
L 129.266441 117.395568 
L 129.559821 119.103027 
L 129.853201 120.058236 
L 130.146582 115.60691 
L 131.026722 110.050432 
L 131.320102 111.095789 
L 131.613483 110.509349 
L 131.906863 108.408371 
L 132.200243 104.050712 
L 132.787003 99.772273 
L 133.373764 105.643668 
L 133.667144 102.082707 
L 133.960524 102.252878 
L 134.253905 103.544266 
L 134.547285 100.906547 
L 134.840665 94.644048 
L 135.134045 100.534651 
L 135.427425 101.704867 
L 135.720806 98.803282 
L 136.014186 102.190658 
L 136.307566 100.110866 
L 136.600946 101.330837 
L 136.894326 101.683824 
L 137.187707 113.014678 
L 137.481087 111.434063 
L 137.774467 108.672649 
L 138.067847 108.226793 
L 138.654608 119.980917 
L 139.241368 113.715323 
L 139.534748 103.556803 
L 139.828129 100.310997 
L 140.121509 84.404403 
L 140.414889 85.055542 
L 140.708269 84.866104 
L 141.001649 84.040942 
L 141.29503 81.978463 
L 141.58841 81.745152 
L 141.88179 89.385941 
L 142.17517 90.222079 
L 142.468551 91.98907 
L 142.761931 96.190676 
L 143.055311 102.527945 
L 143.348691 103.784344 
L 143.642071 104.439727 
L 143.935452 103.550686 
L 144.228832 91.133908 
L 144.522212 90.828466 
L 144.815592 104.21822 
L 145.108972 105.807276 
L 145.695733 95.819671 
L 145.989113 96.191538 
L 146.282493 98.787697 
L 146.575874 104.053012 
L 146.869254 103.823757 
L 147.456014 110.028754 
L 147.749394 107.660943 
L 148.336155 95.960877 
L 148.629535 105.113614 
L 148.922915 102.845782 
L 149.216295 105.76864 
L 149.509676 105.617455 
L 149.803056 108.491923 
L 150.976577 127.472726 
L 151.269957 133.094085 
L 151.563337 135.40168 
L 151.856717 134.984456 
L 152.150098 130.373854 
L 152.443478 127.744901 
L 152.736858 117.666825 
L 153.030238 115.793124 
L 153.323618 131.462009 
L 153.616999 111.291985 
L 153.910379 111.325671 
L 154.203759 106.588191 
L 154.497139 111.060975 
L 154.79052 117.428571 
L 155.0839 120.626949 
L 155.37728 126.912364 
L 155.67066 128.942062 
L 155.96404 125.97181 
L 156.257421 127.825567 
L 156.550801 132.405702 
L 156.844181 132.548359 
L 157.137561 129.551706 
L 158.311082 105.027106 
L 158.604462 111.48111 
L 158.897843 128.497982 
L 159.191223 137.758736 
L 159.484603 125.539931 
L 159.777983 127.768223 
L 160.071363 126.494298 
L 160.364744 136.787503 
L 160.658124 130.002706 
L 160.951504 130.247464 
L 161.244884 123.579254 
L 161.538264 125.014571 
L 161.831645 123.838717 
L 162.125025 122.002082 
L 162.418405 114.097828 
L 162.711785 109.633879 
L 163.005166 116.508075 
L 163.298546 117.888903 
L 163.591926 120.681255 
L 163.885306 114.079334 
L 164.472067 109.574935 
L 164.765447 109.339043 
L 165.352207 117.667097 
L 165.645587 116.814477 
L 166.232348 133.864278 
L 166.525728 133.869564 
L 166.819108 130.298087 
L 167.112489 131.391565 
L 167.405869 123.319473 
L 167.699249 132.04607 
L 167.992629 130.924874 
L 168.286009 136.945317 
L 168.57939 136.22272 
L 168.87277 138.967064 
L 169.16615 138.057412 
L 169.45953 141.014976 
L 170.046291 133.521728 
L 170.339671 132.591833 
L 170.633051 135.788543 
L 170.926431 132.142187 
L 171.219812 134.297577 
L 171.513192 140.34148 
L 171.806572 142.427616 
L 172.099952 142.671433 
L 172.393332 144.696501 
L 172.686713 139.4654 
L 172.980093 141.317227 
L 173.273473 145.163343 
L 173.566853 147.104534 
L 173.860234 146.819103 
L 174.153614 145.469605 
L 174.446994 141.953753 
L 174.740374 144.271052 
L 175.033754 145.671002 
L 175.327135 145.309604 
L 175.620515 144.388663 
L 175.913895 146.978639 
L 176.207275 147.6 
L 176.500655 147.023639 
L 176.794036 144.789339 
L 177.087416 145.31041 
L 177.380796 143.031614 
L 177.674176 142.754149 
L 177.967557 142.318033 
L 178.260937 138.590522 
L 178.554317 141.892096 
L 178.847697 142.186937 
L 179.141077 143.102934 
L 179.434458 131.476077 
L 179.727838 126.580082 
L 180.021218 129.269703 
L 180.314598 127.570959 
L 180.607978 126.652641 
L 180.901359 129.190506 
L 181.194739 127.028453 
L 181.781499 132.520789 
L 182.07488 131.497633 
L 182.36826 126.707354 
L 182.66164 124.356475 
L 182.95502 125.565136 
L 183.2484 122.365214 
L 183.541781 127.794793 
L 183.835161 126.752421 
L 184.128541 124.948437 
L 184.421921 126.21481 
L 184.715301 126.591648 
L 185.008682 123.608159 
L 185.302062 124.025404 
L 185.595442 122.228105 
L 185.888822 126.578905 
L 186.182203 122.799201 
L 186.475583 113.144727 
L 186.768963 114.951406 
L 187.062343 109.759105 
L 187.355723 107.769642 
L 187.649104 98.113912 
L 187.942484 106.618864 
L 188.235864 110.849265 
L 188.529244 119.097474 
L 189.116005 128.329874 
L 189.409385 126.798458 
L 189.702765 121.423214 
L 189.996145 113.72795 
L 190.289526 116.829031 
L 190.582906 113.679533 
L 190.876286 120.377687 
L 191.463046 124.64827 
L 191.756427 124.822249 
L 192.049807 125.622256 
L 192.343187 123.375183 
L 192.636567 120.076019 
L 192.929947 120.227716 
L 193.223328 119.419174 
L 193.516708 119.977307 
L 193.810088 119.19255 
L 194.103468 120.935908 
L 194.690229 127.647247 
L 194.983609 128.073586 
L 195.276989 121.709184 
L 195.570369 117.900607 
L 195.86375 118.409189 
L 196.15713 114.419977 
L 196.74389 116.031785 
L 197.03727 118.199824 
L 197.330651 125.901347 
L 197.624031 126.085578 
L 197.917411 125.09817 
L 198.210791 121.548083 
L 198.504172 120.256989 
L 199.090932 123.306569 
L 199.384312 131.216143 
L 199.971073 133.346639 
L 200.264453 134.207523 
L 200.557833 133.284736 
L 201.144593 130.193923 
L 201.437974 128.896403 
L 201.731354 129.657023 
L 202.024734 127.169249 
L 202.318114 128.211256 
L 202.904875 125.960508 
L 203.198255 125.400883 
L 203.491635 124.406743 
L 203.785015 126.391414 
L 204.078396 125.439665 
L 204.371776 123.723262 
L 204.665156 123.41456 
L 204.958536 126.726956 
L 205.251916 128.669914 
L 205.545297 128.777 
L 205.838677 126.122125 
L 206.132057 124.747246 
L 206.425437 128.022972 
L 206.718818 129.677577 
L 207.012198 133.187577 
L 207.305578 131.982953 
L 207.598958 133.206999 
L 207.892338 133.81365 
L 208.185719 131.799633 
L 208.479099 127.38657 
L 208.772479 128.500565 
L 209.065859 125.111743 
L 209.359239 120.325095 
L 209.65262 121.808279 
L 209.946 122.610412 
L 210.23938 124.39799 
L 210.53276 120.496897 
L 210.53276 120.496897 
" clip-path="url(#p25496bd68f)" style="fill: none; stroke: #008000; stroke-width: 1.5; stroke-linecap: square"/>
   </g>
   <g id="patch_3">
    <path d="M 55.584 152.64 
L 55.584 41.76 
" style="fill: none; stroke: #000000; stroke-width: 0.8; stroke-linejoin: miter; stroke-linecap: square"/>
   </g>
   <g id="patch_4">
    <path d="M 217.911273 152.64 
L 217.911273 41.76 
" style="fill: none; stroke: #000000; stroke-width: 0.8; stroke-linejoin: miter; stroke-linecap: square"/>
   </g>
   <g id="patch_5">
    <path d="M 55.584 152.64 
L 217.911273 152.64 
" style="fill: none; stroke: #000000; stroke-width: 0.8; stroke-linejoin: miter; stroke-linecap: square"/>
   </g>
   <g id="patch_6">
    <path d="M 55.584 41.76 
L 217.911273 41.76 
" style="fill: none; stroke: #000000; stroke-width: 0.8; stroke-linejoin: miter; stroke-linecap: square"/>
   </g>
   <g id="text_9">
    <!-- No Prediction (FOSS) -->
    <g transform="translate(74.495761 35.76) scale(0.12 -0.12)">
     <defs>
      <path id="DejaVuSans-4e" d="M 628 4666 
L 1478 4666 
L 3547 763 
L 3547 4666 
L 4159 4666 
L 4159 0 
L 3309 0 
L 1241 3903 
L 1241 0 
L 628 0 
L 628 4666 
z
" transform="scale(0.015625)"/>
      <path id="DejaVuSans-6f" d="M 1959 3097 
Q 1497 3097 1228 2736 
Q 959 2375 959 1747 
Q 959 1119 1226 758 
Q 1494 397 1959 397 
Q 2419 397 2687 759 
Q 2956 1122 2956 1747 
Q 2956 2369 2687 2733 
Q 2419 3097 1959 3097 
z
M 1959 3584 
Q 2709 3584 3137 3096 
Q 3566 2609 3566 1747 
Q 3566 888 3137 398 
Q 2709 -91 1959 -91 
Q 1206 -91 779 398 
Q 353 888 353 1747 
Q 353 2609 779 3096 
Q 1206 3584 1959 3584 
z
" transform="scale(0.015625)"/>
      <path id="DejaVuSans-20" transform="scale(0.015625)"/>
      <path id="DejaVuSans-50" d="M 1259 4147 
L 1259 2394 
L 2053 2394 
Q 2494 2394 2734 2622 
Q 2975 2850 2975 3272 
Q 2975 3691 2734 3919 
Q 2494 4147 2053 4147 
L 1259 4147 
z
M 628 4666 
L 2053 4666 
Q 2838 4666 3239 4311 
Q 3641 3956 3641 3272 
Q 3641 2581 3239 2228 
Q 2838 1875 2053 1875 
L 1259 1875 
L 1259 0 
L 628 0 
L 628 4666 
z
" transform="scale(0.015625)"/>
      <path id="DejaVuSans-72" d="M 2631 2963 
Q 2534 3019 2420 3045 
Q 2306 3072 2169 3072 
Q 1681 3072 1420 2755 
Q 1159 2438 1159 1844 
L 1159 0 
L 581 0 
L 581 3500 
L 1159 3500 
L 1159 2956 
Q 1341 3275 1631 3429 
Q 1922 3584 2338 3584 
Q 2397 3584 2469 3576 
Q 2541 3569 2628 3553 
L 2631 2963 
z
" transform="scale(0.015625)"/>
      <path id="DejaVuSans-65" d="M 3597 1894 
L 3597 1613 
L 953 1613 
Q 991 1019 1311 708 
Q 1631 397 2203 397 
Q 2534 397 2845 478 
Q 3156 559 3463 722 
L 3463 178 
Q 3153 47 2828 -22 
Q 2503 -91 2169 -91 
Q 1331 -91 842 396 
Q 353 884 353 1716 
Q 353 2575 817 3079 
Q 1281 3584 2069 3584 
Q 2775 3584 3186 3129 
Q 3597 2675 3597 1894 
z
M 3022 2063 
Q 3016 2534 2758 2815 
Q 2500 3097 2075 3097 
Q 1594 3097 1305 2825 
Q 1016 2553 972 2059 
L 3022 2063 
z
" transform="scale(0.015625)"/>
      <path id="DejaVuSans-64" d="M 2906 2969 
L 2906 4863 
L 3481 4863 
L 3481 0 
L 2906 0 
L 2906 525 
Q 2725 213 2448 61 
Q 2172 -91 1784 -91 
Q 1150 -91 751 415 
Q 353 922 353 1747 
Q 353 2572 751 3078 
Q 1150 3584 1784 3584 
Q 2172 3584 2448 3432 
Q 2725 3281 2906 2969 
z
M 947 1747 
Q 947 1113 1208 752 
Q 1469 391 1925 391 
Q 2381 391 2643 752 
Q 2906 1113 2906 1747 
Q 2906 2381 2643 2742 
Q 2381 3103 1925 3103 
Q 1469 3103 1208 2742 
Q 947 2381 947 1747 
z
" transform="scale(0.015625)"/>
      <path id="DejaVuSans-69" d="M 603 3500 
L 1178 3500 
L 1178 0 
L 603 0 
L 603 3500 
z
M 603 4863 
L 1178 4863 
L 1178 4134 
L 603 4134 
L 603 4863 
z
" transform="scale(0.015625)"/>
      <path id="DejaVuSans-63" d="M 3122 3366 
L 3122 2828 
Q 2878 2963 2633 3030 
Q 2388 3097 2138 3097 
Q 1578 3097 1268 2742 
Q 959 2388 959 1747 
Q 959 1106 1268 751 
Q 1578 397 2138 397 
Q 2388 397 2633 464 
Q 2878 531 3122 666 
L 3122 134 
Q 2881 22 2623 -34 
Q 2366 -91 2075 -91 
Q 1284 -91 818 406 
Q 353 903 353 1747 
Q 353 2603 823 3093 
Q 1294 3584 2113 3584 
Q 2378 3584 2631 3529 
Q 2884 3475 3122 3366 
z
" transform="scale(0.015625)"/>
      <path id="DejaVuSans-74" d="M 1172 4494 
L 1172 3500 
L 2356 3500 
L 2356 3053 
L 1172 3053 
L 1172 1153 
Q 1172 725 1289 603 
Q 1406 481 1766 481 
L 2356 481 
L 2356 0 
L 1766 0 
Q 1100 0 847 248 
Q 594 497 594 1153 
L 594 3053 
L 172 3053 
L 172 3500 
L 594 3500 
L 594 4494 
L 1172 4494 
z
" transform="scale(0.015625)"/>
      <path id="DejaVuSans-6e" d="M 3513 2113 
L 3513 0 
L 2938 0 
L 2938 2094 
Q 2938 2591 2744 2837 
Q 2550 3084 2163 3084 
Q 1697 3084 1428 2787 
Q 1159 2491 1159 1978 
L 1159 0 
L 581 0 
L 581 3500 
L 1159 3500 
L 1159 2956 
Q 1366 3272 1645 3428 
Q 1925 3584 2291 3584 
Q 2894 3584 3203 3211 
Q 3513 2838 3513 2113 
z
" transform="scale(0.015625)"/>
      <path id="DejaVuSans-28" d="M 1984 4856 
Q 1566 4138 1362 3434 
Q 1159 2731 1159 2009 
Q 1159 1288 1364 580 
Q 1569 -128 1984 -844 
L 1484 -844 
Q 1016 -109 783 600 
Q 550 1309 550 2009 
Q 550 2706 781 3412 
Q 1013 4119 1484 4856 
L 1984 4856 
z
" transform="scale(0.015625)"/>
      <path id="DejaVuSans-46" d="M 628 4666 
L 3309 4666 
L 3309 4134 
L 1259 4134 
L 1259 2759 
L 3109 2759 
L 3109 2228 
L 1259 2228 
L 1259 0 
L 628 0 
L 628 4666 
z
" transform="scale(0.015625)"/>
      <path id="DejaVuSans-4f" d="M 2522 4238 
Q 1834 4238 1429 3725 
Q 1025 3213 1025 2328 
Q 1025 1447 1429 934 
Q 1834 422 2522 422 
Q 3209 422 3611 934 
Q 4013 1447 4013 2328 
Q 4013 3213 3611 3725 
Q 3209 4238 2522 4238 
z
M 2522 4750 
Q 3503 4750 4090 4092 
Q 4678 3434 4678 2328 
Q 4678 1225 4090 567 
Q 3503 -91 2522 -91 
Q 1538 -91 948 565 
Q 359 1222 359 2328 
Q 359 3434 948 4092 
Q 1538 4750 2522 4750 
z
" transform="scale(0.015625)"/>
      <path id="DejaVuSans-53" d="M 3425 4513 
L 3425 3897 
Q 3066 4069 2747 4153 
Q 2428 4238 2131 4238 
Q 1616 4238 1336 4038 
Q 1056 3838 1056 3469 
Q 1056 3159 1242 3001 
Q 1428 2844 1947 2747 
L 2328 2669 
Q 3034 2534 3370 2195 
Q 3706 1856 3706 1288 
Q 3706 609 3251 259 
Q 2797 -91 1919 -91 
Q 1588 -91 1214 -16 
Q 841 59 441 206 
L 441 856 
Q 825 641 1194 531 
Q 1563 422 1919 422 
Q 2459 422 2753 634 
Q 3047 847 3047 1241 
Q 3047 1584 2836 1778 
Q 2625 1972 2144 2069 
L 1759 2144 
Q 1053 2284 737 2584 
Q 422 2884 422 3419 
Q 422 4038 858 4394 
Q 1294 4750 2059 4750 
Q 2388 4750 2728 4690 
Q 3069 4631 3425 4513 
z
" transform="scale(0.015625)"/>
      <path id="DejaVuSans-29" d="M 513 4856 
L 1013 4856 
Q 1481 4119 1714 3412 
Q 1947 2706 1947 2009 
Q 1947 1309 1714 600 
Q 1481 -109 1013 -844 
L 513 -844 
Q 928 -128 1133 580 
Q 1338 1288 1338 2009 
Q 1338 2731 1133 3434 
Q 928 4138 513 4856 
z
" transform="scale(0.015625)"/>
     </defs>
     <use xlink:href="#DejaVuSans-4e"/>
     <use xlink:href="#DejaVuSans-6f" x="74.804688"/>
     <use xlink:href="#DejaVuSans-20" x="135.986328"/>
     <use xlink:href="#DejaVuSans-50" x="167.773438"/>
     <use xlink:href="#DejaVuSans-72" x="226.326172"/>
     <use xlink:href="#DejaVuSans-65" x="265.189453"/>
     <use xlink:href="#DejaVuSans-64" x="326.712891"/>
     <use xlink:href="#DejaVuSans-69" x="390.189453"/>
     <use xlink:href="#DejaVuSans-63" x="417.972656"/>
     <use xlink:href="#DejaVuSans-74" x="472.953125"/>
     <use xlink:href="#DejaVuSans-69" x="512.162109"/>
     <use xlink:href="#DejaVuSans-6f" x="539.945312"/>
     <use xlink:href="#DejaVuSans-6e" x="601.126953"/>
     <use xlink:href="#DejaVuSans-20" x="664.505859"/>
     <use xlink:href="#DejaVuSans-28" x="696.292969"/>
     <use xlink:href="#DejaVuSans-46" x="735.306641"/>
     <use xlink:href="#DejaVuSans-4f" x="792.826172"/>
     <use xlink:href="#DejaVuSans-53" x="871.537109"/>
     <use xlink:href="#DejaVuSans-53" x="935.013672"/>
     <use xlink:href="#DejaVuSans-29" x="998.490234"/>
    </g>
   </g>
  </g>
  <g id="axes_2">
   <g id="patch_7">
    <path d="M 250.376727 152.64 
L 412.704 152.64 
L 412.704 41.76 
L 250.376727 41.76 
z
" style="fill: #ffffff"/>
   </g>
   <g id="matplotlib.axis_3">
    <g id="xtick_4">
     <g id="line2d_10">
      <g>
       <use xlink:href="#m2249de190c" x="257.75524" y="152.64" style="stroke: #000000; stroke-width: 0.8"/>
      </g>
     </g>
     <g id="text_10">
      <!-- 0 -->
      <g transform="translate(254.57399 167.238437) scale(0.1 -0.1)">
       <use xlink:href="#DejaVuSans-30"/>
      </g>
     </g>
    </g>
    <g id="xtick_5">
     <g id="line2d_11">
      <g>
       <use xlink:href="#m2249de190c" x="316.431283" y="152.64" style="stroke: #000000; stroke-width: 0.8"/>
      </g>
     </g>
     <g id="text_11">
      <!-- 200 -->
      <g transform="translate(306.887533 167.238437) scale(0.1 -0.1)">
       <use xlink:href="#DejaVuSans-32"/>
       <use xlink:href="#DejaVuSans-30" x="63.623047"/>
       <use xlink:href="#DejaVuSans-30" x="127.246094"/>
      </g>
     </g>
    </g>
    <g id="xtick_6">
     <g id="line2d_12">
      <g>
       <use xlink:href="#m2249de190c" x="375.107326" y="152.64" style="stroke: #000000; stroke-width: 0.8"/>
      </g>
     </g>
     <g id="text_12">
      <!-- 400 -->
      <g transform="translate(365.563576 167.238437) scale(0.1 -0.1)">
       <use xlink:href="#DejaVuSans-34"/>
       <use xlink:href="#DejaVuSans-30" x="63.623047"/>
       <use xlink:href="#DejaVuSans-30" x="127.246094"/>
      </g>
     </g>
    </g>
   </g>
   <g id="matplotlib.axis_4">
    <g id="ytick_6">
     <g id="line2d_13">
      <g>
       <use xlink:href="#m6a38228ff2" x="250.376727" y="147.6" style="stroke: #000000; stroke-width: 0.8"/>
      </g>
     </g>
     <g id="text_13">
      <!-- 0 -->
      <g transform="translate(237.014227 151.399219) scale(0.1 -0.1)">
       <use xlink:href="#DejaVuSans-30"/>
      </g>
     </g>
    </g>
    <g id="ytick_7">
     <g id="line2d_14">
      <g>
       <use xlink:href="#m6a38228ff2" x="250.376727" y="106.861291" style="stroke: #000000; stroke-width: 0.8"/>
      </g>
     </g>
     <g id="text_14">
      <!-- 20 -->
      <g transform="translate(230.651727 110.66051) scale(0.1 -0.1)">
       <use xlink:href="#DejaVuSans-32"/>
       <use xlink:href="#DejaVuSans-30" x="63.623047"/>
      </g>
     </g>
    </g>
    <g id="ytick_8">
     <g id="line2d_15">
      <g>
       <use xlink:href="#m6a38228ff2" x="250.376727" y="66.122582" style="stroke: #000000; stroke-width: 0.8"/>
      </g>
     </g>
     <g id="text_15">
      <!-- 40 -->
      <g transform="translate(230.651727 69.9218) scale(0.1 -0.1)">
       <use xlink:href="#DejaVuSans-34"/>
       <use xlink:href="#DejaVuSans-30" x="63.623047"/>
      </g>
     </g>
    </g>
   </g>
   <g id="line2d_16">
    <path d="M 257.75524 46.8 
L 258.04862 54.449318 
L 258.63538 62.005803 
L 258.928761 68.868336 
L 259.222141 70.095223 
L 259.515521 72.472335 
L 259.808901 70.66497 
L 260.102281 70.066421 
L 260.982422 66.680305 
L 261.275802 124.117913 
L 261.569182 122.753294 
L 261.862563 127.796846 
L 262.155943 127.344691 
L 262.449323 130.625803 
L 262.742703 129.081745 
L 263.036084 130.744487 
L 263.329464 134.245446 
L 263.622844 142.535783 
L 263.916224 141.547036 
L 264.502985 125.99659 
L 264.796365 88.596003 
L 265.969886 71.103035 
L 266.556646 70.336247 
L 266.850026 71.893933 
L 267.143407 77.748855 
L 267.436787 81.041435 
L 267.730167 86.360749 
L 268.023547 87.621989 
L 268.316927 132.541211 
L 268.610308 147.533883 
L 268.903688 132.722443 
L 269.197068 136.877081 
L 269.783828 139.93514 
L 270.077209 138.47455 
L 270.370589 137.783925 
L 270.663969 138.028037 
L 271.25073 135.351538 
L 271.54411 138.281373 
L 271.83749 103.5575 
L 272.717631 102.290373 
L 273.011011 99.132978 
L 273.304391 98.669301 
L 273.597771 87.444102 
L 273.891151 82.793835 
L 274.184532 87.569903 
L 274.477912 90.017389 
L 274.771292 89.266695 
L 275.064672 91.492863 
L 275.358053 112.745696 
L 275.651433 119.712502 
L 275.944813 142.406982 
L 276.531573 131.1257 
L 276.824954 128.600438 
L 277.118334 136.570844 
L 277.411714 133.168105 
L 277.705094 126.142042 
L 277.998474 124.058477 
L 278.291855 120.586286 
L 278.585235 119.535535 
L 278.878615 91.718906 
L 279.171995 93.868718 
L 279.465376 96.849502 
L 279.758756 94.172906 
L 280.052136 95.591595 
L 280.345516 96.407636 
L 280.638896 95.577852 
L 280.932277 93.76812 
L 281.225657 94.146681 
L 281.519037 93.404594 
L 281.812417 94.121225 
L 282.105797 93.835023 
L 282.399178 117.619738 
L 282.692558 108.227755 
L 282.985938 116.755908 
L 283.279318 113.41079 
L 283.572699 122.707192 
L 283.866079 122.285545 
L 284.159459 117.062934 
L 284.746219 111.890788 
L 285.0396 112.208839 
L 285.33298 113.854023 
L 285.62636 111.521897 
L 285.91974 92.980755 
L 286.21312 94.434559 
L 286.506501 93.416969 
L 286.799881 91.066072 
L 287.093261 89.977888 
L 287.680022 84.906113 
L 287.973402 85.56918 
L 288.266782 83.919387 
L 288.560162 84.346247 
L 288.853542 81.544523 
L 289.146923 80.684385 
L 289.440303 129.949679 
L 289.733683 128.097958 
L 290.027063 129.063048 
L 290.320443 126.711471 
L 290.907204 133.005439 
L 291.200584 125.772719 
L 291.493964 128.961615 
L 291.787345 120.734801 
L 292.080725 118.750686 
L 292.374105 126.304414 
L 292.667485 130.821294 
L 292.960865 93.600792 
L 293.254246 95.593333 
L 293.547626 95.208537 
L 293.841006 92.828276 
L 294.134386 92.01529 
L 294.427766 93.657832 
L 294.721147 92.623866 
L 295.014527 92.866369 
L 295.307907 91.377791 
L 295.601287 92.47556 
L 295.894668 92.121022 
L 296.188048 92.443265 
L 296.774808 131.862026 
L 297.068188 128.118169 
L 297.361569 128.689044 
L 297.654949 126.007667 
L 297.948329 127.905643 
L 298.241709 123.849086 
L 298.535089 124.306009 
L 298.82847 121.80746 
L 299.12185 106.110472 
L 299.70861 127.008789 
L 300.001991 95.177657 
L 300.295371 94.027402 
L 300.882131 96.715399 
L 301.175511 96.078722 
L 301.468892 99.21766 
L 301.762272 98.866342 
L 302.055652 100.20735 
L 302.349032 100.358609 
L 302.642413 100.24995 
L 302.935793 99.415137 
L 303.229173 98.19543 
L 303.522553 104.947806 
L 303.815933 104.073191 
L 304.109314 113.232399 
L 304.402694 112.195289 
L 304.696074 108.993056 
L 304.989454 116.964179 
L 305.282834 119.100179 
L 305.576215 124.530614 
L 305.869595 124.892231 
L 306.162975 128.104621 
L 306.456355 136.520745 
L 306.749736 134.108109 
L 307.043116 101.955772 
L 307.336496 106.474907 
L 307.629876 109.264846 
L 307.923256 114.058187 
L 308.216637 115.668723 
L 308.510017 115.38046 
L 308.803397 116.449883 
L 309.096777 114.18211 
L 309.390157 115.47786 
L 309.683538 115.123753 
L 310.270298 113.687037 
L 310.563678 130.129877 
L 310.857059 130.934403 
L 311.150439 138.333076 
L 311.443819 135.061414 
L 311.737199 122.492658 
L 312.030579 136.525494 
L 312.32396 137.754295 
L 312.61734 140.513516 
L 313.2041 134.452712 
L 313.49748 133.349604 
L 313.790861 132.971974 
L 314.084241 95.839466 
L 314.377621 86.666035 
L 314.671001 90.365959 
L 314.964382 90.392446 
L 315.257762 90.814122 
L 315.551142 87.75672 
L 315.844522 83.263766 
L 316.137902 83.253571 
L 316.431283 82.901626 
L 316.724663 82.122123 
L 317.311423 77.358269 
L 317.604803 128.341623 
L 317.898184 126.01015 
L 318.484944 138.858388 
L 318.778324 139.008893 
L 319.071705 128.073643 
L 319.365085 129.5533 
L 319.658465 140.448676 
L 319.951845 141.667878 
L 320.245225 144.183424 
L 320.831986 131.121308 
L 321.125366 89.001553 
L 322.005507 101.044007 
L 322.298887 100.660535 
L 322.592267 102.387062 
L 322.885647 102.318016 
L 323.179028 98.556318 
L 323.472408 97.747822 
L 323.765788 100.959511 
L 324.059168 101.199714 
L 324.352548 102.475194 
L 324.645929 134.578908 
L 324.939309 126.847103 
L 325.232689 123.523311 
L 325.526069 129.072025 
L 325.819449 123.375688 
L 326.11283 127.732153 
L 326.40621 122.757348 
L 326.69959 138.422443 
L 326.99297 140.310505 
L 327.286351 139.379931 
L 327.579731 140.291524 
L 327.873111 138.067148 
L 328.166491 92.086047 
L 328.459871 89.382321 
L 328.753252 89.489717 
L 329.046632 90.511134 
L 329.340012 88.45732 
L 329.633392 83.654355 
L 329.926772 88.188471 
L 330.220153 89.087921 
L 330.513533 86.842988 
L 330.806913 89.460279 
L 331.100293 87.8586 
L 331.393674 88.812975 
L 331.687054 113.521261 
L 331.980434 125.426328 
L 332.273814 126.959715 
L 332.567194 144.28051 
L 332.860575 144.779659 
L 333.153955 141.068051 
L 333.447335 141.240575 
L 334.327476 128.710316 
L 335.207616 76.284329 
L 335.500997 76.112351 
L 335.794377 75.481096 
L 336.087757 73.891117 
L 336.381137 73.719453 
L 336.674517 79.605208 
L 336.967898 80.250328 
L 337.261278 81.604177 
L 337.554658 84.840998 
L 337.848038 89.70698 
L 338.141418 90.701512 
L 338.434799 91.192601 
L 338.728179 128.784713 
L 339.021559 106.986522 
L 339.314939 103.568027 
L 339.60832 117.946055 
L 339.9017 126.6547 
L 340.19508 128.69851 
L 340.48846 121.378078 
L 340.78184 102.298523 
L 341.368601 147.6 
L 341.661981 147.6 
L 341.955361 137.075511 
L 342.248741 95.836152 
L 342.542122 93.680689 
L 342.835502 88.114143 
L 343.128882 84.680913 
L 343.422262 91.716731 
L 343.715643 89.98149 
L 344.009023 92.220626 
L 344.302403 92.124026 
L 344.595783 94.352527 
L 345.475924 106.097737 
L 345.769304 143.012218 
L 346.062684 147.6 
L 346.649445 140.191 
L 347.529585 121.340669 
L 347.822966 119.608537 
L 348.116346 123.653326 
L 348.703106 145.728657 
L 348.996486 138.045269 
L 349.289867 96.273496 
L 349.583247 101.200918 
L 349.876627 103.653623 
L 350.170007 108.514867 
L 350.463387 109.934969 
L 350.756768 107.778087 
L 351.050148 109.214033 
L 351.343528 112.74638 
L 351.636908 112.846907 
L 351.930289 110.538273 
L 352.517049 100.294516 
L 353.103809 134.203192 
L 353.39719 124.488118 
L 353.69057 139.171192 
L 353.98395 132.340473 
L 354.57071 144.294704 
L 355.450851 147.6 
L 356.037612 147.6 
L 356.330992 106.96811 
L 356.624372 106.135969 
L 356.917752 104.728157 
L 357.211132 98.631833 
L 357.504513 95.207948 
L 357.797893 100.48873 
L 358.091273 101.551004 
L 358.384653 103.710019 
L 358.678033 98.547443 
L 359.264794 95.153792 
L 359.558174 94.978744 
L 359.851554 147.6 
L 360.144935 140.501486 
L 361.025075 134.429642 
L 361.318455 135.357452 
L 361.611836 137.284462 
L 362.198596 144.047279 
L 362.491976 145.008816 
L 362.785356 147.032491 
L 363.078737 147.129152 
L 363.372117 115.670159 
L 363.665497 117.785084 
L 363.958877 117.096005 
L 364.252258 119.322795 
L 364.839018 113.600695 
L 365.132398 112.876872 
L 365.425778 115.354265 
L 365.719159 112.534146 
L 366.012539 114.197228 
L 366.305919 118.792133 
L 366.599299 120.458102 
L 366.892679 147.6 
L 367.18606 147.235814 
L 367.47944 147.529876 
L 368.0662 147.6 
L 368.359581 147.6 
L 368.652961 146.909662 
L 368.946341 141.933934 
L 369.239721 138.925303 
L 369.533101 141.152282 
L 369.826482 142.21396 
L 370.119862 142.060772 
L 370.413242 121.98375 
L 370.706622 123.973865 
L 371.000002 124.434461 
L 371.293383 124.007199 
L 371.586763 122.271284 
L 371.880143 122.644646 
L 372.173523 120.931846 
L 372.760284 120.360914 
L 373.053664 117.506336 
L 373.347044 120.045024 
L 373.640424 120.268567 
L 373.933805 141.724254 
L 374.227185 143.25264 
L 374.520565 130.689898 
L 374.813945 142.40587 
L 375.107326 147.097376 
L 375.400706 146.520353 
L 375.694086 147.6 
L 377.160987 147.6 
L 377.454367 106.547028 
L 377.747747 107.464867 
L 378.041128 105.006802 
L 378.334508 109.191058 
L 378.627888 108.378415 
L 378.921268 106.987473 
L 379.214649 108.004012 
L 379.508029 108.259602 
L 379.801409 105.963381 
L 380.094789 106.286248 
L 380.388169 104.896284 
L 380.68155 108.211846 
L 380.97493 119.592547 
L 381.56169 130.40966 
L 381.85507 139.138749 
L 382.148451 142.545793 
L 382.441831 131.290003 
L 382.735211 134.869989 
L 383.028591 132.982293 
L 383.615352 136.123144 
L 383.908732 137.105605 
L 384.202112 139.410509 
L 384.495492 104.281178 
L 384.788873 98.365314 
L 385.082253 100.74361 
L 385.375633 98.305885 
L 385.669013 103.486849 
L 386.255774 106.745627 
L 386.549154 106.938299 
L 386.842534 107.51808 
L 387.135914 105.783487 
L 387.429295 103.24141 
L 387.722675 103.360546 
L 388.016055 127.608707 
L 388.309435 118.956821 
L 388.602815 123.541902 
L 388.896196 133.130788 
L 389.189576 133.404756 
L 389.482956 132.912695 
L 389.776336 125.297249 
L 390.363097 117.325136 
L 390.656477 119.130063 
L 391.243237 127.579849 
L 391.536618 100.149839 
L 391.829998 101.810809 
L 392.123378 107.776694 
L 392.416758 107.872552 
L 392.710138 107.116276 
L 393.003519 104.373447 
L 393.296899 103.364447 
L 393.883659 105.729028 
L 394.177039 111.764759 
L 394.7638 113.454022 
L 395.05718 139.585376 
L 395.35056 141.098469 
L 395.643941 143.322018 
L 395.937321 139.906171 
L 396.230701 132.92898 
L 396.524081 137.988826 
L 396.817461 137.756945 
L 397.110842 140.484272 
L 397.404222 138.558211 
L 397.697602 133.725269 
L 397.990982 133.477222 
L 398.284362 138.416841 
L 398.577743 108.115933 
L 398.871123 107.371307 
L 399.164503 106.050607 
L 399.457883 105.826234 
L 399.751264 108.365409 
L 400.044644 109.869097 
L 400.338024 110.090188 
L 400.631404 107.914979 
L 400.924784 106.815798 
L 401.218165 109.373362 
L 401.511545 110.631133 
L 401.804925 113.335069 
L 402.098305 137.78897 
L 402.391685 140.887868 
L 402.978446 133.932725 
L 403.271826 126.054551 
L 403.565206 123.179998 
L 403.858587 100.88392 
L 404.151967 111.608186 
L 404.445347 134.220646 
L 404.738727 144.221592 
L 405.032107 144.155471 
L 405.325488 144.396756 
L 405.325488 144.396756 
" clip-path="url(#p66b1269f23)" style="fill: none; stroke: #0000ff; stroke-width: 1.5; stroke-linecap: square"/>
   </g>
   <g id="patch_8">
    <path d="M 250.376727 152.64 
L 250.376727 41.76 
" style="fill: none; stroke: #000000; stroke-width: 0.8; stroke-linejoin: miter; stroke-linecap: square"/>
   </g>
   <g id="patch_9">
    <path d="M 412.704 152.64 
L 412.704 41.76 
" style="fill: none; stroke: #000000; stroke-width: 0.8; stroke-linejoin: miter; stroke-linecap: square"/>
   </g>
   <g id="patch_10">
    <path d="M 250.376727 152.64 
L 412.704 152.64 
" style="fill: none; stroke: #000000; stroke-width: 0.8; stroke-linejoin: miter; stroke-linecap: square"/>
   </g>
   <g id="patch_11">
    <path d="M 250.376727 41.76 
L 412.704 41.76 
" style="fill: none; stroke: #000000; stroke-width: 0.8; stroke-linejoin: miter; stroke-linecap: square"/>
   </g>
   <g id="text_16">
    <!-- RNN -->
    <g transform="translate(318.393801 35.76) scale(0.12 -0.12)">
     <defs>
      <path id="DejaVuSans-52" d="M 2841 2188 
Q 3044 2119 3236 1894 
Q 3428 1669 3622 1275 
L 4263 0 
L 3584 0 
L 2988 1197 
Q 2756 1666 2539 1819 
Q 2322 1972 1947 1972 
L 1259 1972 
L 1259 0 
L 628 0 
L 628 4666 
L 2053 4666 
Q 2853 4666 3247 4331 
Q 3641 3997 3641 3322 
Q 3641 2881 3436 2590 
Q 3231 2300 2841 2188 
z
M 1259 4147 
L 1259 2491 
L 2053 2491 
Q 2509 2491 2742 2702 
Q 2975 2913 2975 3322 
Q 2975 3731 2742 3939 
Q 2509 4147 2053 4147 
L 1259 4147 
z
" transform="scale(0.015625)"/>
     </defs>
     <use xlink:href="#DejaVuSans-52"/>
     <use xlink:href="#DejaVuSans-4e" x="69.482422"/>
     <use xlink:href="#DejaVuSans-4e" x="144.287109"/>
    </g>
   </g>
  </g>
  <g id="axes_3">
   <g id="patch_12">
    <path d="M 55.584 307.872 
L 217.911273 307.872 
L 217.911273 196.992 
L 55.584 196.992 
z
" style="fill: #ffffff"/>
   </g>
   <g id="matplotlib.axis_5">
    <g id="xtick_7">
     <g id="line2d_17">
      <g>
       <use xlink:href="#m2249de190c" x="62.962512" y="307.872" style="stroke: #000000; stroke-width: 0.8"/>
      </g>
     </g>
     <g id="text_17">
      <!-- 0 -->
      <g transform="translate(59.781262 322.470437) scale(0.1 -0.1)">
       <use xlink:href="#DejaVuSans-30"/>
      </g>
     </g>
    </g>
    <g id="xtick_8">
     <g id="line2d_18">
      <g>
       <use xlink:href="#m2249de190c" x="121.638555" y="307.872" style="stroke: #000000; stroke-width: 0.8"/>
      </g>
     </g>
     <g id="text_18">
      <!-- 200 -->
      <g transform="translate(112.094805 322.470437) scale(0.1 -0.1)">
       <use xlink:href="#DejaVuSans-32"/>
       <use xlink:href="#DejaVuSans-30" x="63.623047"/>
       <use xlink:href="#DejaVuSans-30" x="127.246094"/>
      </g>
     </g>
    </g>
    <g id="xtick_9">
     <g id="line2d_19">
      <g>
       <use xlink:href="#m2249de190c" x="180.314598" y="307.872" style="stroke: #000000; stroke-width: 0.8"/>
      </g>
     </g>
     <g id="text_19">
      <!-- 400 -->
      <g transform="translate(170.770848 322.470437) scale(0.1 -0.1)">
       <use xlink:href="#DejaVuSans-34"/>
       <use xlink:href="#DejaVuSans-30" x="63.623047"/>
       <use xlink:href="#DejaVuSans-30" x="127.246094"/>
      </g>
     </g>
    </g>
   </g>
   <g id="matplotlib.axis_6">
    <g id="ytick_9">
     <g id="line2d_20">
      <g>
       <use xlink:href="#m6a38228ff2" x="55.584" y="302.832" style="stroke: #000000; stroke-width: 0.8"/>
      </g>
     </g>
     <g id="text_20">
      <!-- 0 -->
      <g transform="translate(42.2215 306.631219) scale(0.1 -0.1)">
       <use xlink:href="#DejaVuSans-30"/>
      </g>
     </g>
    </g>
    <g id="ytick_10">
     <g id="line2d_21">
      <g>
       <use xlink:href="#m6a38228ff2" x="55.584" y="262.093291" style="stroke: #000000; stroke-width: 0.8"/>
      </g>
     </g>
     <g id="text_21">
      <!-- 20 -->
      <g transform="translate(35.859 265.89251) scale(0.1 -0.1)">
       <use xlink:href="#DejaVuSans-32"/>
       <use xlink:href="#DejaVuSans-30" x="63.623047"/>
      </g>
     </g>
    </g>
    <g id="ytick_11">
     <g id="line2d_22">
      <g>
       <use xlink:href="#m6a38228ff2" x="55.584" y="221.354582" style="stroke: #000000; stroke-width: 0.8"/>
      </g>
     </g>
     <g id="text_22">
      <!-- 40 -->
      <g transform="translate(35.859 225.1538) scale(0.1 -0.1)">
       <use xlink:href="#DejaVuSans-34"/>
       <use xlink:href="#DejaVuSans-30" x="63.623047"/>
      </g>
     </g>
    </g>
   </g>
   <g id="line2d_23">
    <path d="M 62.962512 202.032 
L 63.255893 209.681318 
L 63.842653 217.237803 
L 64.136033 224.100336 
L 64.429413 225.327223 
L 64.722794 227.704335 
L 65.016174 225.89697 
L 65.309554 225.298421 
L 66.189695 221.912305 
L 66.483075 284.975704 
L 67.069835 297.449225 
L 67.363216 298.22976 
L 67.656596 297.330144 
L 67.949976 295.768448 
L 68.243356 293.442935 
L 68.830117 294.600811 
L 69.710257 287.158309 
L 70.003638 243.828003 
L 71.177158 226.335035 
L 71.763919 225.568247 
L 72.057299 227.125933 
L 72.350679 232.980855 
L 72.644059 236.273435 
L 72.93744 241.592749 
L 73.23082 242.853989 
L 73.5242 293.576524 
L 73.81758 294.400558 
L 74.110961 294.534244 
L 74.404341 293.635528 
L 74.697721 290.256616 
L 74.991101 289.702774 
L 75.284481 288.635574 
L 75.577862 289.40289 
L 75.871242 285.935578 
L 76.164622 285.312705 
L 76.458002 283.367248 
L 76.751382 283.846036 
L 77.044763 258.7895 
L 77.924903 257.522373 
L 78.218284 254.364978 
L 78.511664 253.901301 
L 78.805044 242.676102 
L 79.098424 238.025835 
L 79.391804 242.801903 
L 79.685185 245.249389 
L 79.978565 244.498695 
L 80.271945 246.724863 
L 80.565325 269.651786 
L 80.858705 266.085709 
L 81.152086 264.222332 
L 81.445466 267.026288 
L 81.738846 266.41799 
L 82.032226 264.221878 
L 82.325607 260.375018 
L 82.618987 262.506218 
L 82.912367 272.337033 
L 83.205747 274.461769 
L 83.499127 277.944684 
L 83.792508 278.813836 
L 84.085888 246.950906 
L 84.379268 249.100718 
L 84.672648 252.081502 
L 84.966028 249.404906 
L 85.259409 250.823595 
L 85.552789 251.639636 
L 85.846169 250.809852 
L 86.139549 249.00012 
L 86.43293 249.378681 
L 86.72631 248.636594 
L 87.01969 249.353225 
L 87.31307 249.067023 
L 87.60645 275.778065 
L 87.899831 268.930876 
L 88.193211 270.440184 
L 88.486591 269.674465 
L 88.779971 270.579337 
L 89.366732 272.738485 
L 89.660112 272.716123 
L 89.953492 275.691693 
L 90.246872 272.727982 
L 90.540253 274.92266 
L 90.833633 273.966307 
L 91.127013 248.212755 
L 91.420393 249.666559 
L 91.713773 248.648969 
L 92.007154 246.298072 
L 92.300534 245.209888 
L 92.887294 240.138113 
L 93.180674 240.80118 
L 93.474055 239.151387 
L 93.767435 239.578247 
L 94.060815 236.776523 
L 94.354195 235.916385 
L 94.647576 287.138237 
L 95.234336 286.458276 
L 95.821096 294.388495 
L 96.114477 295.564964 
L 96.407857 295.324746 
L 96.701237 298.465273 
L 97.287998 297.122678 
L 97.874758 299.643644 
L 98.168138 248.832792 
L 98.461518 250.825333 
L 98.754899 250.440537 
L 99.048279 248.060276 
L 99.341659 247.24729 
L 99.635039 248.889832 
L 99.928419 247.855866 
L 100.2218 248.098369 
L 100.51518 246.609791 
L 100.80856 247.70756 
L 101.10194 247.353022 
L 101.395321 247.675265 
L 101.688701 278.365456 
L 101.982081 279.368597 
L 102.568841 280.523902 
L 103.155602 281.700316 
L 103.742362 289.923469 
L 104.035742 289.428578 
L 104.622503 273.771427 
L 104.915883 255.000494 
L 105.209263 250.409657 
L 105.502644 249.259402 
L 106.089404 251.947399 
L 106.382784 251.310722 
L 106.676164 254.44966 
L 106.969545 254.098342 
L 107.262925 255.43935 
L 107.556305 255.590609 
L 107.849685 255.48195 
L 108.143065 254.647137 
L 108.436446 253.42743 
L 108.729826 261.129474 
L 109.023206 264.629428 
L 109.316586 273.435571 
L 109.609967 276.977506 
L 110.196727 273.482471 
L 110.490107 273.767498 
L 111.076868 285.561981 
L 111.957008 295.24421 
L 112.250388 257.187772 
L 112.543769 261.706907 
L 112.837149 264.496846 
L 113.130529 269.290187 
L 113.423909 270.900723 
L 113.71729 270.61246 
L 114.01067 271.681883 
L 114.30405 269.41411 
L 114.59743 270.70986 
L 114.89081 270.355753 
L 115.477571 268.919037 
L 115.770951 278.910269 
L 116.064331 274.798979 
L 116.357711 279.547343 
L 116.651092 281.18094 
L 116.944472 276.376129 
L 117.237852 273.542194 
L 117.824613 276.955534 
L 118.117993 279.954931 
L 118.411373 279.886262 
L 118.704753 283.759668 
L 118.998133 285.272207 
L 119.291514 251.071466 
L 119.584894 241.898035 
L 119.878274 245.597959 
L 120.171654 245.624446 
L 120.465034 246.046122 
L 120.758415 242.98872 
L 121.051795 238.495766 
L 121.345175 238.485571 
L 121.638555 238.133626 
L 121.931936 237.354123 
L 122.518696 232.590269 
L 122.812076 292.558791 
L 123.105456 286.790402 
L 123.398837 288.579874 
L 123.985597 268.705601 
L 124.278977 279.358001 
L 124.865738 283.102974 
L 125.159118 290.787108 
L 125.452498 292.09479 
L 126.039259 288.157385 
L 126.332639 244.233553 
L 127.212779 256.276007 
L 127.50616 255.892535 
L 127.79954 257.619062 
L 128.09292 257.550016 
L 128.3863 253.788318 
L 128.67968 252.979822 
L 128.973061 256.191511 
L 129.266441 256.431714 
L 129.559821 257.707194 
L 129.853201 280.375681 
L 130.146582 276.156008 
L 130.439962 276.601922 
L 130.733342 272.343936 
L 131.026722 270.251847 
L 131.320102 270.786255 
L 131.613483 266.809177 
L 131.906863 268.18251 
L 132.200243 266.966262 
L 132.493623 277.42145 
L 132.787003 282.990868 
L 133.080384 281.091539 
L 133.373764 247.318047 
L 133.667144 244.614321 
L 133.960524 244.721717 
L 134.253905 245.743134 
L 134.547285 243.68932 
L 134.840665 238.886355 
L 135.134045 243.420471 
L 135.427425 244.319921 
L 135.720806 242.074988 
L 136.014186 244.692279 
L 136.307566 243.0906 
L 136.600946 244.044975 
L 136.894326 288.657968 
L 137.481087 301.292462 
L 137.774467 302.131306 
L 138.067847 302.589735 
L 138.361228 302.832 
L 138.947988 302.832 
L 139.241368 301.567805 
L 139.534748 293.243829 
L 139.828129 290.709456 
L 140.121509 301.829029 
L 140.414889 231.516329 
L 140.708269 231.344351 
L 141.001649 230.713096 
L 141.29503 229.123117 
L 141.58841 228.951453 
L 141.88179 234.837208 
L 142.17517 235.482328 
L 142.468551 236.836177 
L 142.761931 240.072998 
L 143.055311 244.93898 
L 143.348691 245.933512 
L 143.642071 246.424601 
L 143.935452 282.822486 
L 144.228832 260.957934 
L 144.522212 274.826651 
L 144.815592 295.857796 
L 145.108972 297.529515 
L 145.402353 294.90563 
L 145.989113 284.332587 
L 146.282493 286.269871 
L 146.575874 291.762441 
L 146.869254 291.180108 
L 147.162634 284.087985 
L 147.456014 251.068152 
L 147.749394 248.912689 
L 148.042775 243.346143 
L 148.336155 239.912913 
L 148.629535 246.948731 
L 148.922915 245.21349 
L 149.216295 247.452626 
L 149.509676 247.356026 
L 149.803056 249.584527 
L 150.683197 261.329737 
L 150.976577 302.047517 
L 151.269957 302.832 
L 151.563337 300.885955 
L 152.150098 290.68375 
L 152.443478 289.231213 
L 152.736858 289.751285 
L 153.030238 288.092501 
L 153.323618 284.599146 
L 153.616999 285.733125 
L 153.910379 293.437497 
L 154.203759 293.200345 
L 154.497139 251.505496 
L 154.79052 256.432918 
L 155.0839 258.885623 
L 155.37728 263.746867 
L 155.67066 265.166969 
L 155.96404 263.010087 
L 156.257421 264.446033 
L 156.550801 267.97838 
L 156.844181 268.078907 
L 157.137561 265.770273 
L 157.724322 255.526516 
L 158.017702 271.027139 
L 158.311082 271.194125 
L 158.897843 295.330781 
L 159.191223 296.076373 
L 159.484603 292.585208 
L 159.777983 299.819698 
L 160.071363 302.832 
L 161.244884 302.832 
L 161.538264 262.20011 
L 161.831645 261.367969 
L 162.125025 259.960157 
L 162.418405 253.863833 
L 162.711785 250.439948 
L 163.005166 255.72073 
L 163.298546 256.783004 
L 163.591926 258.942019 
L 163.885306 253.779443 
L 164.472067 250.385792 
L 164.765447 250.210744 
L 165.058827 302.832 
L 165.938968 302.832 
L 166.232348 301.438463 
L 166.525728 300.918535 
L 166.819108 299.582768 
L 167.112489 297.051715 
L 167.405869 296.583096 
L 167.699249 297.163793 
L 167.992629 296.559962 
L 168.286009 297.403147 
L 168.57939 270.902159 
L 168.87277 273.017084 
L 169.16615 272.328005 
L 169.45953 274.554795 
L 170.046291 268.832695 
L 170.339671 268.108872 
L 170.633051 270.586265 
L 170.926431 267.766146 
L 171.219812 269.429228 
L 171.513192 274.024133 
L 171.806572 275.690102 
L 172.099952 302.832 
L 173.566853 302.832 
L 173.860234 301.520146 
L 174.153614 296.416083 
L 174.740374 280.633661 
L 175.327135 286.298065 
L 175.620515 277.21575 
L 175.913895 279.205865 
L 176.207275 279.666461 
L 176.500655 279.239199 
L 176.794036 277.503284 
L 177.087416 277.876646 
L 177.380796 276.163846 
L 177.967557 275.592914 
L 178.260937 272.738336 
L 178.554317 275.277024 
L 178.847697 275.500567 
L 179.141077 300.217377 
L 179.434458 294.126431 
L 179.727838 292.330714 
L 180.314598 283.070375 
L 180.901359 284.730347 
L 181.194739 286.143657 
L 181.488119 283.052289 
L 181.781499 292.988487 
L 182.07488 289.133558 
L 182.36826 291.575424 
L 182.66164 261.779028 
L 182.95502 262.696867 
L 183.2484 260.238802 
L 183.541781 264.423058 
L 183.835161 263.610415 
L 184.128541 262.219473 
L 184.421921 263.236012 
L 184.715301 263.491602 
L 185.008682 261.195381 
L 185.302062 261.518248 
L 185.595442 260.128284 
L 185.888822 263.443846 
L 186.182203 279.19136 
L 186.475583 284.495163 
L 186.768963 285.713427 
L 187.062343 285.645905 
L 187.649104 294.179114 
L 187.942484 290.76586 
L 188.235864 290.673369 
L 188.529244 291.579233 
L 188.822624 289.872898 
L 189.409385 296.58136 
L 189.702765 259.513178 
L 189.996145 253.597314 
L 190.289526 255.97561 
L 190.582906 253.537885 
L 190.876286 258.718849 
L 191.463046 261.977627 
L 191.756427 262.170299 
L 192.049807 262.75008 
L 192.343187 261.015487 
L 192.636567 258.47341 
L 192.929947 258.592546 
L 193.223328 276.736781 
L 193.516708 266.764711 
L 193.810088 267.98949 
L 194.103468 267.894104 
L 194.396849 275.658118 
L 194.690229 278.848932 
L 194.983609 284.983475 
L 195.276989 285.227496 
L 195.570369 285.296585 
L 195.86375 286.094055 
L 196.15713 289.591327 
L 196.45051 289.631955 
L 196.74389 255.381839 
L 197.03727 257.042809 
L 197.330651 263.008694 
L 197.624031 263.104552 
L 197.917411 262.348276 
L 198.210791 259.605447 
L 198.504172 258.596447 
L 199.090932 260.961028 
L 199.384312 266.996759 
L 199.971073 268.686022 
L 200.264453 289.210332 
L 200.557833 285.827716 
L 200.851213 287.538171 
L 201.144593 283.809037 
L 201.437974 283.289572 
L 201.731354 281.879905 
L 202.024734 279.851121 
L 202.318114 276.963647 
L 202.611495 278.942077 
L 202.904875 279.151354 
L 203.198255 281.816741 
L 203.491635 282.666129 
L 203.785015 263.347933 
L 204.078396 262.603307 
L 204.371776 261.282607 
L 204.665156 261.058234 
L 204.958536 263.597409 
L 205.251916 265.101097 
L 205.545297 265.322188 
L 205.838677 263.146979 
L 206.132057 262.047798 
L 206.425437 264.605362 
L 206.718818 265.863133 
L 207.012198 268.567069 
L 207.305578 295.597451 
L 207.598958 293.355164 
L 207.892338 293.184355 
L 208.185719 291.754919 
L 208.479099 290.960553 
L 208.772479 286.526466 
L 209.359239 269.378688 
L 209.65262 271.733461 
L 210.23938 290.873708 
L 210.53276 295.947845 
L 210.53276 295.947845 
" clip-path="url(#p22a6e4fbf2)" style="fill: none; stroke: #ffa500; stroke-width: 1.5; stroke-linecap: square"/>
   </g>
   <g id="patch_13">
    <path d="M 55.584 307.872 
L 55.584 196.992 
" style="fill: none; stroke: #000000; stroke-width: 0.8; stroke-linejoin: miter; stroke-linecap: square"/>
   </g>
   <g id="patch_14">
    <path d="M 217.911273 307.872 
L 217.911273 196.992 
" style="fill: none; stroke: #000000; stroke-width: 0.8; stroke-linejoin: miter; stroke-linecap: square"/>
   </g>
   <g id="patch_15">
    <path d="M 55.584 307.872 
L 217.911273 307.872 
" style="fill: none; stroke: #000000; stroke-width: 0.8; stroke-linejoin: miter; stroke-linecap: square"/>
   </g>
   <g id="patch_16">
    <path d="M 55.584 196.992 
L 217.911273 196.992 
" style="fill: none; stroke: #000000; stroke-width: 0.8; stroke-linejoin: miter; stroke-linecap: square"/>
   </g>
   <g id="text_23">
    <!-- VAE -->
    <g transform="translate(125.130136 190.992) scale(0.12 -0.12)">
     <defs>
      <path id="DejaVuSans-56" d="M 1831 0 
L 50 4666 
L 709 4666 
L 2188 738 
L 3669 4666 
L 4325 4666 
L 2547 0 
L 1831 0 
z
" transform="scale(0.015625)"/>
      <path id="DejaVuSans-41" d="M 2188 4044 
L 1331 1722 
L 3047 1722 
L 2188 4044 
z
M 1831 4666 
L 2547 4666 
L 4325 0 
L 3669 0 
L 3244 1197 
L 1141 1197 
L 716 0 
L 50 0 
L 1831 4666 
z
" transform="scale(0.015625)"/>
      <path id="DejaVuSans-45" d="M 628 4666 
L 3578 4666 
L 3578 4134 
L 1259 4134 
L 1259 2753 
L 3481 2753 
L 3481 2222 
L 1259 2222 
L 1259 531 
L 3634 531 
L 3634 0 
L 628 0 
L 628 4666 
z
" transform="scale(0.015625)"/>
     </defs>
     <use xlink:href="#DejaVuSans-56"/>
     <use xlink:href="#DejaVuSans-41" x="62.033203"/>
     <use xlink:href="#DejaVuSans-45" x="130.441406"/>
    </g>
   </g>
  </g>
  <g id="axes_4">
   <g id="patch_17">
    <path d="M 250.376727 307.872 
L 412.704 307.872 
L 412.704 196.992 
L 250.376727 196.992 
z
" style="fill: #ffffff"/>
   </g>
   <g id="matplotlib.axis_7">
    <g id="xtick_10">
     <g id="line2d_24">
      <g>
       <use xlink:href="#m2249de190c" x="257.75524" y="307.872" style="stroke: #000000; stroke-width: 0.8"/>
      </g>
     </g>
     <g id="text_24">
      <!-- 0 -->
      <g transform="translate(254.57399 322.470437) scale(0.1 -0.1)">
       <use xlink:href="#DejaVuSans-30"/>
      </g>
     </g>
    </g>
    <g id="xtick_11">
     <g id="line2d_25">
      <g>
       <use xlink:href="#m2249de190c" x="316.431283" y="307.872" style="stroke: #000000; stroke-width: 0.8"/>
      </g>
     </g>
     <g id="text_25">
      <!-- 200 -->
      <g transform="translate(306.887533 322.470437) scale(0.1 -0.1)">
       <use xlink:href="#DejaVuSans-32"/>
       <use xlink:href="#DejaVuSans-30" x="63.623047"/>
       <use xlink:href="#DejaVuSans-30" x="127.246094"/>
      </g>
     </g>
    </g>
    <g id="xtick_12">
     <g id="line2d_26">
      <g>
       <use xlink:href="#m2249de190c" x="375.107326" y="307.872" style="stroke: #000000; stroke-width: 0.8"/>
      </g>
     </g>
     <g id="text_26">
      <!-- 400 -->
      <g transform="translate(365.563576 322.470437) scale(0.1 -0.1)">
       <use xlink:href="#DejaVuSans-34"/>
       <use xlink:href="#DejaVuSans-30" x="63.623047"/>
       <use xlink:href="#DejaVuSans-30" x="127.246094"/>
      </g>
     </g>
    </g>
   </g>
   <g id="matplotlib.axis_8">
    <g id="ytick_12">
     <g id="line2d_27">
      <g>
       <use xlink:href="#m6a38228ff2" x="250.376727" y="294.1769" style="stroke: #000000; stroke-width: 0.8"/>
      </g>
     </g>
     <g id="text_27">
      <!-- 10 -->
      <g transform="translate(230.651727 297.976119) scale(0.1 -0.1)">
       <use xlink:href="#DejaVuSans-31"/>
       <use xlink:href="#DejaVuSans-30" x="63.623047"/>
      </g>
     </g>
    </g>
    <g id="ytick_13">
     <g id="line2d_28">
      <g>
       <use xlink:href="#m6a38228ff2" x="250.376727" y="270.842218" style="stroke: #000000; stroke-width: 0.8"/>
      </g>
     </g>
     <g id="text_28">
      <!-- 20 -->
      <g transform="translate(230.651727 274.641437) scale(0.1 -0.1)">
       <use xlink:href="#DejaVuSans-32"/>
       <use xlink:href="#DejaVuSans-30" x="63.623047"/>
      </g>
     </g>
    </g>
    <g id="ytick_14">
     <g id="line2d_29">
      <g>
       <use xlink:href="#m6a38228ff2" x="250.376727" y="247.507536" style="stroke: #000000; stroke-width: 0.8"/>
      </g>
     </g>
     <g id="text_29">
      <!-- 30 -->
      <g transform="translate(230.651727 251.306755) scale(0.1 -0.1)">
       <use xlink:href="#DejaVuSans-33"/>
       <use xlink:href="#DejaVuSans-30" x="63.623047"/>
      </g>
     </g>
    </g>
    <g id="ytick_15">
     <g id="line2d_30">
      <g>
       <use xlink:href="#m6a38228ff2" x="250.376727" y="224.172854" style="stroke: #000000; stroke-width: 0.8"/>
      </g>
     </g>
     <g id="text_30">
      <!-- 40 -->
      <g transform="translate(230.651727 227.972073) scale(0.1 -0.1)">
       <use xlink:href="#DejaVuSans-34"/>
       <use xlink:href="#DejaVuSans-30" x="63.623047"/>
      </g>
     </g>
    </g>
    <g id="ytick_16">
     <g id="line2d_31">
      <g>
       <use xlink:href="#m6a38228ff2" x="250.376727" y="200.838172" style="stroke: #000000; stroke-width: 0.8"/>
      </g>
     </g>
     <g id="text_31">
      <!-- 50 -->
      <g transform="translate(230.651727 204.637391) scale(0.1 -0.1)">
       <use xlink:href="#DejaVuSans-35"/>
       <use xlink:href="#DejaVuSans-30" x="63.623047"/>
      </g>
     </g>
    </g>
   </g>
   <g id="line2d_32">
    <path d="M 257.75524 202.032 
L 258.04862 210.797641 
L 258.63538 219.425852 
L 258.928761 227.386009 
L 259.222141 228.714136 
L 259.515521 231.433044 
L 259.808901 229.369877 
L 260.102281 228.70335 
L 260.982422 224.810239 
L 261.275802 244.100274 
L 261.569182 231.209045 
L 261.862563 249.569998 
L 262.155943 236.086269 
L 262.449323 244.791291 
L 262.742703 246.885681 
L 263.036084 250.48797 
L 263.329464 268.715334 
L 263.622844 259.828342 
L 263.916224 245.303263 
L 264.209604 248.754005 
L 264.502985 257.213891 
L 265.089745 245.040528 
L 265.676505 236.161976 
L 265.969886 229.908391 
L 266.556646 228.943961 
L 266.850026 230.765105 
L 267.143407 237.423477 
L 267.436787 241.27589 
L 267.730167 247.329203 
L 268.023547 248.801612 
L 268.610308 271.974769 
L 269.197068 277.342792 
L 269.490448 278.685271 
L 269.783828 269.66216 
L 270.077209 276.649987 
L 270.370589 268.708679 
L 270.663969 272.19412 
L 270.957349 265.88333 
L 271.25073 271.85814 
L 271.54411 267.392445 
L 272.13087 266.607305 
L 272.717631 265.60291 
L 273.011011 261.981787 
L 273.304391 261.398633 
L 273.597771 248.60421 
L 273.891151 243.198442 
L 274.477912 251.595397 
L 274.771292 250.741746 
L 275.064672 253.240002 
L 275.651433 269.764252 
L 275.944813 251.190794 
L 276.238193 261.543042 
L 276.531573 261.573606 
L 276.824954 246.112836 
L 277.118334 262.980295 
L 277.411714 254.031778 
L 277.705094 255.768266 
L 277.998474 252.979085 
L 278.291855 241.877465 
L 278.878615 253.506869 
L 279.171995 255.95435 
L 279.465376 259.370116 
L 279.758756 256.304049 
L 280.052136 257.913113 
L 280.345516 258.860214 
L 280.638896 257.836316 
L 280.932277 255.864419 
L 281.225657 256.20629 
L 281.519037 255.439212 
L 281.812417 256.363008 
L 282.105797 255.899425 
L 282.399178 258.849781 
L 282.692558 276.074234 
L 282.985938 253.807413 
L 283.279318 252.390164 
L 283.572699 253.709939 
L 283.866079 246.561095 
L 284.159459 253.885145 
L 284.452839 248.298661 
L 284.746219 260.754799 
L 285.0396 251.278304 
L 285.33298 273.770191 
L 285.62636 268.391514 
L 285.91974 254.964608 
L 286.21312 256.648984 
L 286.506501 255.448595 
L 286.799881 252.753973 
L 287.093261 251.506025 
L 287.680022 245.672478 
L 287.973402 246.440173 
L 288.266782 244.587992 
L 288.560162 245.052536 
L 288.853542 241.831172 
L 289.146923 240.850508 
L 289.440303 260.174745 
L 289.733683 259.185859 
L 290.027063 261.483657 
L 290.320443 272.962284 
L 290.613824 290.550898 
L 290.907204 288.566841 
L 291.200584 283.600178 
L 291.493964 283.520798 
L 292.080725 260.609169 
L 292.374105 259.988726 
L 292.667485 261.505205 
L 292.960865 255.660357 
L 293.254246 257.878022 
L 293.547626 257.506055 
L 293.841006 254.769859 
L 294.134386 253.837003 
L 294.427766 255.649098 
L 294.721147 254.582105 
L 295.014527 254.840553 
L 295.307907 253.039933 
L 295.601287 254.354816 
L 295.894668 253.935921 
L 296.188048 254.357201 
L 296.481428 259.558719 
L 296.774808 256.253977 
L 297.068188 268.18812 
L 297.361569 256.555592 
L 297.654949 260.346017 
L 297.948329 271.77478 
L 298.241709 253.338194 
L 298.535089 262.450446 
L 298.82847 260.005216 
L 299.12185 260.63564 
L 299.41523 271.224697 
L 299.70861 261.224318 
L 300.001991 257.448442 
L 300.295371 256.132847 
L 300.882131 259.205121 
L 301.175511 258.481137 
L 301.468892 262.075892 
L 301.762272 261.655921 
L 302.055652 263.304089 
L 302.349032 263.388563 
L 302.642413 264.081442 
L 303.229173 260.918596 
L 303.815933 275.12917 
L 304.109314 263.095456 
L 304.402694 264.156545 
L 304.696074 257.85111 
L 304.989454 265.77348 
L 305.282834 261.300529 
L 305.576215 254.918067 
L 305.869595 269.291549 
L 306.162975 263.611587 
L 306.456355 263.112266 
L 306.749736 269.431826 
L 307.043116 265.237545 
L 307.336496 270.406546 
L 307.629876 273.601008 
L 307.923256 279.080605 
L 308.216637 280.937448 
L 308.510017 280.596633 
L 308.803397 281.661799 
L 309.096777 279.22595 
L 309.390157 280.707289 
L 309.683538 280.30242 
L 310.270298 278.649441 
L 310.563678 296.828859 
L 310.857059 280.503491 
L 311.150439 283.077112 
L 311.443819 286.802562 
L 311.737199 284.090346 
L 312.030579 277.001289 
L 312.32396 275.263501 
L 312.61734 280.606068 
L 312.91072 282.063181 
L 313.2041 276.912001 
L 313.49748 275.949588 
L 313.790861 273.667544 
L 314.377621 247.720841 
L 314.671001 251.93781 
L 314.964382 251.965452 
L 315.257762 252.466982 
L 315.551142 249.114516 
L 315.844522 243.811192 
L 316.137902 243.806175 
L 316.431283 243.385346 
L 316.724663 242.487009 
L 317.311423 237.118693 
L 317.604803 261.903469 
L 317.898184 254.310781 
L 318.484944 245.329493 
L 318.778324 250.685727 
L 319.071705 249.321385 
L 319.365085 249.191092 
L 319.658465 263.668211 
L 319.951845 254.312289 
L 320.538606 257.032788 
L 320.831986 255.695655 
L 321.125366 250.367563 
L 322.005507 264.176442 
L 322.298887 263.748218 
L 322.592267 265.726222 
L 322.885647 265.649087 
L 323.179028 261.326442 
L 323.472408 260.42115 
L 323.765788 264.092725 
L 324.059168 264.329385 
L 324.352548 265.83614 
L 324.645929 273.62987 
L 324.939309 273.70067 
L 325.526069 259.570311 
L 325.819449 270.747706 
L 326.11283 259.103321 
L 326.40621 269.330299 
L 326.69959 250.438771 
L 326.99297 261.197107 
L 327.286351 261.21178 
L 327.579731 247.670968 
L 327.873111 258.060987 
L 328.459871 250.81648 
L 328.753252 250.966648 
L 329.046632 252.10624 
L 329.340012 249.778572 
L 329.633392 244.252201 
L 329.926772 249.450391 
L 330.220153 250.483054 
L 330.513533 247.922537 
L 330.806913 250.911742 
L 331.100293 249.07642 
L 331.393674 250.152989 
L 331.687054 275.133581 
L 331.980434 274.036638 
L 332.273814 276.494459 
L 332.567194 267.55484 
L 332.860575 275.339054 
L 333.153955 279.373098 
L 333.447335 289.51121 
L 333.740715 280.568373 
L 334.034095 280.352025 
L 334.327476 277.557317 
L 334.620856 263.54604 
L 334.914236 260.68843 
L 335.207616 235.790779 
L 335.500997 235.62361 
L 335.794377 234.895442 
L 336.087757 233.075397 
L 336.381137 232.86951 
L 336.674517 239.61216 
L 336.967898 240.350014 
L 337.261278 241.909303 
L 337.554658 245.61703 
L 337.848038 251.209383 
L 338.141418 252.318098 
L 338.434799 252.896443 
L 338.728179 265.48682 
L 339.314939 248.76784 
L 339.60832 260.535189 
L 339.9017 253.688184 
L 340.48846 259.854701 
L 340.78184 248.147095 
L 341.661981 266.236225 
L 341.955361 257.529523 
L 342.248741 257.828506 
L 342.542122 255.73902 
L 343.128882 245.414243 
L 343.422262 253.491118 
L 343.715643 251.489859 
L 344.009023 254.069148 
L 344.302403 253.935735 
L 344.595783 256.472322 
L 345.475924 269.971503 
L 345.769304 290.09783 
L 346.062684 299.934904 
L 346.356064 296.251974 
L 346.649445 298.591213 
L 346.942825 302.832 
L 347.529585 279.167811 
L 348.116346 260.173319 
L 348.409726 275.201928 
L 348.703106 263.254834 
L 348.996486 270.880009 
L 349.289867 258.739394 
L 349.583247 264.358509 
L 349.876627 267.180932 
L 350.170007 272.727525 
L 350.463387 274.518642 
L 350.756768 271.897529 
L 351.050148 273.533386 
L 351.343528 277.575147 
L 351.636908 277.701035 
L 351.930289 275.056625 
L 352.810429 260.159141 
L 353.103809 272.788062 
L 353.39719 269.32279 
L 353.69057 283.625865 
L 353.98395 289.419285 
L 354.27733 279.108172 
L 354.57071 280.707191 
L 354.864091 278.306705 
L 355.157471 279.30522 
L 355.450851 291.997721 
L 355.744231 280.661649 
L 356.037612 273.80695 
L 356.330992 271.052809 
L 356.624372 270.015172 
L 356.917752 268.394424 
L 357.211132 261.419279 
L 357.504513 257.480047 
L 357.797893 263.546212 
L 358.091273 264.764731 
L 358.384653 267.228854 
L 358.678033 261.402959 
L 359.264794 257.428031 
L 359.558174 257.219867 
L 359.851554 270.909196 
L 360.144935 270.45521 
L 360.438315 280.529822 
L 360.731695 279.563245 
L 361.025075 280.950322 
L 361.318455 277.913523 
L 361.611836 276.298576 
L 362.198596 285.979028 
L 362.491976 302.450077 
L 362.785356 280.573285 
L 363.078737 283.991232 
L 363.372117 280.943492 
L 363.665497 283.365251 
L 363.958877 282.562524 
L 364.252258 285.172441 
L 364.839018 278.559989 
L 365.132398 277.7394 
L 365.425778 280.56035 
L 365.719159 277.342607 
L 366.012539 279.244641 
L 366.305919 284.578111 
L 366.599299 286.419031 
L 366.892679 289.461379 
L 367.18606 294.574505 
L 367.47944 286.526532 
L 367.77282 302.00822 
L 368.0662 293.056847 
L 368.359581 296.217994 
L 368.652961 301.066794 
L 368.946341 281.710697 
L 369.239721 291.017961 
L 369.533101 286.588422 
L 369.826482 296.04577 
L 370.119862 285.524916 
L 370.706622 290.435102 
L 371.000002 290.983425 
L 371.293383 290.474813 
L 371.586763 288.503145 
L 371.880143 288.962966 
L 372.173523 286.952032 
L 372.760284 286.32233 
L 373.053664 283.03297 
L 373.347044 285.946459 
L 373.933805 286.509612 
L 374.227185 280.527388 
L 374.520565 276.927803 
L 374.813945 275.414393 
L 375.107326 278.106751 
L 375.400706 271.601067 
L 375.694086 276.859528 
L 375.987466 277.079467 
L 376.280846 288.805042 
L 376.574227 285.261745 
L 376.867607 279.225224 
L 377.160987 277.477136 
L 377.454367 270.47207 
L 377.747747 271.538658 
L 378.041128 268.714872 
L 378.334508 273.506229 
L 378.627888 272.586383 
L 378.921268 270.994449 
L 379.214649 272.111966 
L 379.508029 272.444508 
L 379.801409 269.811714 
L 380.094789 270.179915 
L 380.388169 268.59388 
L 380.68155 272.433263 
L 380.97493 270.54699 
L 381.26831 292.937348 
L 381.56169 253.615522 
L 381.85507 255.207172 
L 382.148451 262.019422 
L 382.441831 255.685848 
L 382.735211 261.320259 
L 383.028591 262.159276 
L 383.321972 268.690383 
L 383.615352 265.929157 
L 384.202112 275.056999 
L 384.788873 261.092878 
L 385.082253 263.829442 
L 385.375633 261.050153 
L 385.669013 266.96097 
L 386.255774 270.729565 
L 386.549154 270.883094 
L 386.842534 271.589063 
L 387.135914 269.606124 
L 387.429295 266.694761 
L 387.722675 266.828627 
L 388.016055 265.713867 
L 388.309435 258.063764 
L 388.896196 268.754607 
L 389.189576 266.176353 
L 389.482956 262.460944 
L 389.776336 276.570267 
L 390.069716 279.217915 
L 390.363097 261.190371 
L 390.656477 272.827066 
L 390.949857 265.312484 
L 391.243237 261.082315 
L 391.829998 265.039105 
L 392.123378 271.835349 
L 392.416758 271.997924 
L 392.710138 271.126582 
L 393.003519 267.993791 
L 393.296899 266.854459 
L 393.883659 269.545575 
L 394.177039 276.525415 
L 394.7638 278.405481 
L 395.05718 280.608385 
L 395.35056 272.85921 
L 395.643941 270.987932 
L 395.937321 279.921503 
L 396.230701 274.120837 
L 396.524081 287.301677 
L 396.817461 273.555673 
L 397.110842 266.399313 
L 397.404222 273.567768 
L 397.697602 271.562548 
L 397.990982 274.028009 
L 398.284362 269.650299 
L 398.577743 272.267811 
L 398.871123 271.427935 
L 399.164503 269.913288 
L 399.457883 269.640872 
L 399.751264 272.563912 
L 400.044644 274.278484 
L 400.338024 274.372982 
L 400.631404 272.030175 
L 400.924784 270.816907 
L 401.218165 273.707587 
L 401.511545 275.167701 
L 401.804925 278.265116 
L 402.098305 278.952026 
L 402.391685 277.974158 
L 402.685066 270.315839 
L 402.978446 273.810115 
L 403.271826 274.156917 
L 403.565206 268.70881 
L 403.858587 275.601621 
L 404.151967 268.363531 
L 404.445347 268.53741 
L 404.738727 273.438974 
L 405.032107 280.209674 
L 405.325488 264.84801 
L 405.325488 264.84801 
" clip-path="url(#p06af8ed4a6)" style="fill: none; stroke: #ff0000; stroke-width: 1.5; stroke-linecap: square"/>
   </g>
   <g id="patch_18">
    <path d="M 250.376727 307.872 
L 250.376727 196.992 
" style="fill: none; stroke: #000000; stroke-width: 0.8; stroke-linejoin: miter; stroke-linecap: square"/>
   </g>
   <g id="patch_19">
    <path d="M 412.704 307.872 
L 412.704 196.992 
" style="fill: none; stroke: #000000; stroke-width: 0.8; stroke-linejoin: miter; stroke-linecap: square"/>
   </g>
   <g id="patch_20">
    <path d="M 250.376727 307.872 
L 412.704 307.872 
" style="fill: none; stroke: #000000; stroke-width: 0.8; stroke-linejoin: miter; stroke-linecap: square"/>
   </g>
   <g id="patch_21">
    <path d="M 250.376727 196.992 
L 412.704 196.992 
" style="fill: none; stroke: #000000; stroke-width: 0.8; stroke-linejoin: miter; stroke-linecap: square"/>
   </g>
   <g id="text_32">
    <!-- VRNN -->
    <g transform="translate(314.289426 190.992) scale(0.12 -0.12)">
     <use xlink:href="#DejaVuSans-56"/>
     <use xlink:href="#DejaVuSans-52" x="68.408203"/>
     <use xlink:href="#DejaVuSans-4e" x="137.890625"/>
     <use xlink:href="#DejaVuSans-4e" x="212.695312"/>
    </g>
   </g>
  </g>
  <g id="text_33">
   <!-- VMAF Scores Over Frames: Video #43 -->
   <g transform="translate(114.338063 16.318125) scale(0.12 -0.12)">
    <defs>
     <path id="DejaVuSans-4d" d="M 628 4666 
L 1569 4666 
L 2759 1491 
L 3956 4666 
L 4897 4666 
L 4897 0 
L 4281 0 
L 4281 4097 
L 3078 897 
L 2444 897 
L 1241 4097 
L 1241 0 
L 628 0 
L 628 4666 
z
" transform="scale(0.015625)"/>
     <path id="DejaVuSans-73" d="M 2834 3397 
L 2834 2853 
Q 2591 2978 2328 3040 
Q 2066 3103 1784 3103 
Q 1356 3103 1142 2972 
Q 928 2841 928 2578 
Q 928 2378 1081 2264 
Q 1234 2150 1697 2047 
L 1894 2003 
Q 2506 1872 2764 1633 
Q 3022 1394 3022 966 
Q 3022 478 2636 193 
Q 2250 -91 1575 -91 
Q 1294 -91 989 -36 
Q 684 19 347 128 
L 347 722 
Q 666 556 975 473 
Q 1284 391 1588 391 
Q 1994 391 2212 530 
Q 2431 669 2431 922 
Q 2431 1156 2273 1281 
Q 2116 1406 1581 1522 
L 1381 1569 
Q 847 1681 609 1914 
Q 372 2147 372 2553 
Q 372 3047 722 3315 
Q 1072 3584 1716 3584 
Q 2034 3584 2315 3537 
Q 2597 3491 2834 3397 
z
" transform="scale(0.015625)"/>
     <path id="DejaVuSans-76" d="M 191 3500 
L 800 3500 
L 1894 563 
L 2988 3500 
L 3597 3500 
L 2284 0 
L 1503 0 
L 191 3500 
z
" transform="scale(0.015625)"/>
     <path id="DejaVuSans-61" d="M 2194 1759 
Q 1497 1759 1228 1600 
Q 959 1441 959 1056 
Q 959 750 1161 570 
Q 1363 391 1709 391 
Q 2188 391 2477 730 
Q 2766 1069 2766 1631 
L 2766 1759 
L 2194 1759 
z
M 3341 1997 
L 3341 0 
L 2766 0 
L 2766 531 
Q 2569 213 2275 61 
Q 1981 -91 1556 -91 
Q 1019 -91 701 211 
Q 384 513 384 1019 
Q 384 1609 779 1909 
Q 1175 2209 1959 2209 
L 2766 2209 
L 2766 2266 
Q 2766 2663 2505 2880 
Q 2244 3097 1772 3097 
Q 1472 3097 1187 3025 
Q 903 2953 641 2809 
L 641 3341 
Q 956 3463 1253 3523 
Q 1550 3584 1831 3584 
Q 2591 3584 2966 3190 
Q 3341 2797 3341 1997 
z
" transform="scale(0.015625)"/>
     <path id="DejaVuSans-6d" d="M 3328 2828 
Q 3544 3216 3844 3400 
Q 4144 3584 4550 3584 
Q 5097 3584 5394 3201 
Q 5691 2819 5691 2113 
L 5691 0 
L 5113 0 
L 5113 2094 
Q 5113 2597 4934 2840 
Q 4756 3084 4391 3084 
Q 3944 3084 3684 2787 
Q 3425 2491 3425 1978 
L 3425 0 
L 2847 0 
L 2847 2094 
Q 2847 2600 2669 2842 
Q 2491 3084 2119 3084 
Q 1678 3084 1418 2786 
Q 1159 2488 1159 1978 
L 1159 0 
L 581 0 
L 581 3500 
L 1159 3500 
L 1159 2956 
Q 1356 3278 1631 3431 
Q 1906 3584 2284 3584 
Q 2666 3584 2933 3390 
Q 3200 3197 3328 2828 
z
" transform="scale(0.015625)"/>
     <path id="DejaVuSans-3a" d="M 750 794 
L 1409 794 
L 1409 0 
L 750 0 
L 750 794 
z
M 750 3309 
L 1409 3309 
L 1409 2516 
L 750 2516 
L 750 3309 
z
" transform="scale(0.015625)"/>
     <path id="DejaVuSans-23" d="M 3272 2816 
L 2363 2816 
L 2100 1772 
L 3016 1772 
L 3272 2816 
z
M 2803 4594 
L 2478 3297 
L 3391 3297 
L 3719 4594 
L 4219 4594 
L 3897 3297 
L 4872 3297 
L 4872 2816 
L 3775 2816 
L 3519 1772 
L 4513 1772 
L 4513 1294 
L 3397 1294 
L 3072 0 
L 2572 0 
L 2894 1294 
L 1978 1294 
L 1656 0 
L 1153 0 
L 1478 1294 
L 494 1294 
L 494 1772 
L 1594 1772 
L 1856 2816 
L 850 2816 
L 850 3297 
L 1978 3297 
L 2297 4594 
L 2803 4594 
z
" transform="scale(0.015625)"/>
    </defs>
    <use xlink:href="#DejaVuSans-56"/>
    <use xlink:href="#DejaVuSans-4d" x="68.408203"/>
    <use xlink:href="#DejaVuSans-41" x="154.6875"/>
    <use xlink:href="#DejaVuSans-46" x="223.095703"/>
    <use xlink:href="#DejaVuSans-20" x="280.615234"/>
    <use xlink:href="#DejaVuSans-53" x="312.402344"/>
    <use xlink:href="#DejaVuSans-63" x="375.878906"/>
    <use xlink:href="#DejaVuSans-6f" x="430.859375"/>
    <use xlink:href="#DejaVuSans-72" x="492.041016"/>
    <use xlink:href="#DejaVuSans-65" x="530.904297"/>
    <use xlink:href="#DejaVuSans-73" x="592.427734"/>
    <use xlink:href="#DejaVuSans-20" x="644.527344"/>
    <use xlink:href="#DejaVuSans-4f" x="676.314453"/>
    <use xlink:href="#DejaVuSans-76" x="755.025391"/>
    <use xlink:href="#DejaVuSans-65" x="814.205078"/>
    <use xlink:href="#DejaVuSans-72" x="875.728516"/>
    <use xlink:href="#DejaVuSans-20" x="916.841797"/>
    <use xlink:href="#DejaVuSans-46" x="948.628906"/>
    <use xlink:href="#DejaVuSans-72" x="998.898438"/>
    <use xlink:href="#DejaVuSans-61" x="1040.011719"/>
    <use xlink:href="#DejaVuSans-6d" x="1101.291016"/>
    <use xlink:href="#DejaVuSans-65" x="1198.703125"/>
    <use xlink:href="#DejaVuSans-73" x="1260.226562"/>
    <use xlink:href="#DejaVuSans-3a" x="1312.326172"/>
    <use xlink:href="#DejaVuSans-20" x="1346.017578"/>
    <use xlink:href="#DejaVuSans-56" x="1377.804688"/>
    <use xlink:href="#DejaVuSans-69" x="1443.962891"/>
    <use xlink:href="#DejaVuSans-64" x="1471.746094"/>
    <use xlink:href="#DejaVuSans-65" x="1535.222656"/>
    <use xlink:href="#DejaVuSans-6f" x="1596.746094"/>
    <use xlink:href="#DejaVuSans-20" x="1657.927734"/>
    <use xlink:href="#DejaVuSans-23" x="1689.714844"/>
    <use xlink:href="#DejaVuSans-34" x="1773.503906"/>
    <use xlink:href="#DejaVuSans-33" x="1837.126953"/>
   </g>
  </g>
  <g id="text_34">
   <!-- Video Frames -->
   <g transform="translate(187.847438 339.936375) scale(0.12 -0.12)">
    <use xlink:href="#DejaVuSans-56"/>
    <use xlink:href="#DejaVuSans-69" x="66.158203"/>
    <use xlink:href="#DejaVuSans-64" x="93.941406"/>
    <use xlink:href="#DejaVuSans-65" x="157.417969"/>
    <use xlink:href="#DejaVuSans-6f" x="218.941406"/>
    <use xlink:href="#DejaVuSans-20" x="280.123047"/>
    <use xlink:href="#DejaVuSans-46" x="311.910156"/>
    <use xlink:href="#DejaVuSans-72" x="362.179688"/>
    <use xlink:href="#DejaVuSans-61" x="403.292969"/>
    <use xlink:href="#DejaVuSans-6d" x="464.572266"/>
    <use xlink:href="#DejaVuSans-65" x="561.984375"/>
    <use xlink:href="#DejaVuSans-73" x="623.507812"/>
   </g>
  </g>
  <g id="text_35">
   <!-- Raw VMAF Scores -->
   <g transform="translate(16.318125 226.284562) rotate(-90) scale(0.12 -0.12)">
    <defs>
     <path id="DejaVuSans-77" d="M 269 3500 
L 844 3500 
L 1563 769 
L 2278 3500 
L 2956 3500 
L 3675 769 
L 4391 3500 
L 4966 3500 
L 4050 0 
L 3372 0 
L 2619 2869 
L 1863 0 
L 1184 0 
L 269 3500 
z
" transform="scale(0.015625)"/>
    </defs>
    <use xlink:href="#DejaVuSans-52"/>
    <use xlink:href="#DejaVuSans-61" x="67.232422"/>
    <use xlink:href="#DejaVuSans-77" x="128.511719"/>
    <use xlink:href="#DejaVuSans-20" x="210.298828"/>
    <use xlink:href="#DejaVuSans-56" x="242.085938"/>
    <use xlink:href="#DejaVuSans-4d" x="310.494141"/>
    <use xlink:href="#DejaVuSans-41" x="396.773438"/>
    <use xlink:href="#DejaVuSans-46" x="465.181641"/>
    <use xlink:href="#DejaVuSans-20" x="522.701172"/>
    <use xlink:href="#DejaVuSans-53" x="554.488281"/>
    <use xlink:href="#DejaVuSans-63" x="617.964844"/>
    <use xlink:href="#DejaVuSans-6f" x="672.945312"/>
    <use xlink:href="#DejaVuSans-72" x="734.126953"/>
    <use xlink:href="#DejaVuSans-65" x="772.990234"/>
    <use xlink:href="#DejaVuSans-73" x="834.513672"/>
   </g>
  </g>
 </g>
 <defs>
  <clipPath id="p25496bd68f">
   <rect x="55.584" y="41.76" width="162.327273" height="110.88"/>
  </clipPath>
  <clipPath id="p66b1269f23">
   <rect x="250.376727" y="41.76" width="162.327273" height="110.88"/>
  </clipPath>
  <clipPath id="p22a6e4fbf2">
   <rect x="55.584" y="196.992" width="162.327273" height="110.88"/>
  </clipPath>
  <clipPath id="p06af8ed4a6">
   <rect x="250.376727" y="196.992" width="162.327273" height="110.88"/>
  </clipPath>
 </defs>
</svg>
