<?xml version="1.0" encoding="utf-8" standalone="no"?>
<!DOCTYPE svg PUBLIC "-//W3C//DTD SVG 1.1//EN"
  "http://www.w3.org/Graphics/SVG/1.1/DTD/svg11.dtd">
<svg xmlns:xlink="http://www.w3.org/1999/xlink" width="428.753604pt" height="349.632pt" viewBox="0 0 428.753604 349.632" xmlns="http://www.w3.org/2000/svg" version="1.1">
 <metadata>
  <rdf:RDF xmlns:dc="http://purl.org/dc/elements/1.1/" xmlns:cc="http://creativecommons.org/ns#" xmlns:rdf="http://www.w3.org/1999/02/22-rdf-syntax-ns#">
   <cc:Work>
    <dc:type rdf:resource="http://purl.org/dc/dcmitype/StillImage"/>
    <dc:date>2024-07-24T16:31:53.232773</dc:date>
    <dc:format>image/svg+xml</dc:format>
    <dc:creator>
     <cc:Agent>
      <dc:title>Matplotlib v3.7.2, https://matplotlib.org/</dc:title>
     </cc:Agent>
    </dc:creator>
   </cc:Work>
  </rdf:RDF>
 </metadata>
 <defs>
  <style type="text/css">*{stroke-linejoin: round; stroke-linecap: butt}</style>
 </defs>
 <g id="figure_1">
  <g id="patch_1">
   <path d="M 0 349.632 
L 428.753604 349.632 
L 428.753604 -0 
L 0 -0 
z
" style="fill: #ffffff"/>
  </g>
  <g id="axes_1">
   <g id="patch_2">
    <path d="M 55.584 152.64 
L 217.911273 152.64 
L 217.911273 41.76 
L 55.584 41.76 
z
" style="fill: #ffffff"/>
   </g>
   <g id="matplotlib.axis_1">
    <g id="xtick_1">
     <g id="line2d_1">
      <defs>
       <path id="mfab1ca45ca" d="M 0 0 
L 0 3.5 
" style="stroke: #000000; stroke-width: 0.8"/>
      </defs>
      <g>
       <use xlink:href="#mfab1ca45ca" x="62.962512" y="152.64" style="stroke: #000000; stroke-width: 0.8"/>
      </g>
     </g>
     <g id="text_1">
      <!-- 0 -->
      <g transform="translate(59.781262 167.238437) scale(0.1 -0.1)">
       <defs>
        <path id="DejaVuSans-30" d="M 2034 4250 
Q 1547 4250 1301 3770 
Q 1056 3291 1056 2328 
Q 1056 1369 1301 889 
Q 1547 409 2034 409 
Q 2525 409 2770 889 
Q 3016 1369 3016 2328 
Q 3016 3291 2770 3770 
Q 2525 4250 2034 4250 
z
M 2034 4750 
Q 2819 4750 3233 4129 
Q 3647 3509 3647 2328 
Q 3647 1150 3233 529 
Q 2819 -91 2034 -91 
Q 1250 -91 836 529 
Q 422 1150 422 2328 
Q 422 3509 836 4129 
Q 1250 4750 2034 4750 
z
" transform="scale(0.015625)"/>
       </defs>
       <use xlink:href="#DejaVuSans-30"/>
      </g>
     </g>
    </g>
    <g id="xtick_2">
     <g id="line2d_2">
      <g>
       <use xlink:href="#mfab1ca45ca" x="114.380717" y="152.64" style="stroke: #000000; stroke-width: 0.8"/>
      </g>
     </g>
     <g id="text_2">
      <!-- 100 -->
      <g transform="translate(104.836967 167.238437) scale(0.1 -0.1)">
       <defs>
        <path id="DejaVuSans-31" d="M 794 531 
L 1825 531 
L 1825 4091 
L 703 3866 
L 703 4441 
L 1819 4666 
L 2450 4666 
L 2450 531 
L 3481 531 
L 3481 0 
L 794 0 
L 794 531 
z
" transform="scale(0.015625)"/>
       </defs>
       <use xlink:href="#DejaVuSans-31"/>
       <use xlink:href="#DejaVuSans-30" x="63.623047"/>
       <use xlink:href="#DejaVuSans-30" x="127.246094"/>
      </g>
     </g>
    </g>
    <g id="xtick_3">
     <g id="line2d_3">
      <g>
       <use xlink:href="#mfab1ca45ca" x="165.798922" y="152.64" style="stroke: #000000; stroke-width: 0.8"/>
      </g>
     </g>
     <g id="text_3">
      <!-- 200 -->
      <g transform="translate(156.255172 167.238437) scale(0.1 -0.1)">
       <defs>
        <path id="DejaVuSans-32" d="M 1228 531 
L 3431 531 
L 3431 0 
L 469 0 
L 469 531 
Q 828 903 1448 1529 
Q 2069 2156 2228 2338 
Q 2531 2678 2651 2914 
Q 2772 3150 2772 3378 
Q 2772 3750 2511 3984 
Q 2250 4219 1831 4219 
Q 1534 4219 1204 4116 
Q 875 4013 500 3803 
L 500 4441 
Q 881 4594 1212 4672 
Q 1544 4750 1819 4750 
Q 2544 4750 2975 4387 
Q 3406 4025 3406 3419 
Q 3406 3131 3298 2873 
Q 3191 2616 2906 2266 
Q 2828 2175 2409 1742 
Q 1991 1309 1228 531 
z
" transform="scale(0.015625)"/>
       </defs>
       <use xlink:href="#DejaVuSans-32"/>
       <use xlink:href="#DejaVuSans-30" x="63.623047"/>
       <use xlink:href="#DejaVuSans-30" x="127.246094"/>
      </g>
     </g>
    </g>
    <g id="xtick_4">
     <g id="line2d_4">
      <g>
       <use xlink:href="#mfab1ca45ca" x="217.217127" y="152.64" style="stroke: #000000; stroke-width: 0.8"/>
      </g>
     </g>
     <g id="text_4">
      <!-- 300 -->
      <g transform="translate(207.673377 167.238437) scale(0.1 -0.1)">
       <defs>
        <path id="DejaVuSans-33" d="M 2597 2516 
Q 3050 2419 3304 2112 
Q 3559 1806 3559 1356 
Q 3559 666 3084 287 
Q 2609 -91 1734 -91 
Q 1441 -91 1130 -33 
Q 819 25 488 141 
L 488 750 
Q 750 597 1062 519 
Q 1375 441 1716 441 
Q 2309 441 2620 675 
Q 2931 909 2931 1356 
Q 2931 1769 2642 2001 
Q 2353 2234 1838 2234 
L 1294 2234 
L 1294 2753 
L 1863 2753 
Q 2328 2753 2575 2939 
Q 2822 3125 2822 3475 
Q 2822 3834 2567 4026 
Q 2313 4219 1838 4219 
Q 1578 4219 1281 4162 
Q 984 4106 628 3988 
L 628 4550 
Q 988 4650 1302 4700 
Q 1616 4750 1894 4750 
Q 2613 4750 3031 4423 
Q 3450 4097 3450 3541 
Q 3450 3153 3228 2886 
Q 3006 2619 2597 2516 
z
" transform="scale(0.015625)"/>
       </defs>
       <use xlink:href="#DejaVuSans-33"/>
       <use xlink:href="#DejaVuSans-30" x="63.623047"/>
       <use xlink:href="#DejaVuSans-30" x="127.246094"/>
      </g>
     </g>
    </g>
   </g>
   <g id="matplotlib.axis_2">
    <g id="ytick_1">
     <g id="line2d_5">
      <defs>
       <path id="m7ed3215d95" d="M 0 0 
L -3.5 0 
" style="stroke: #000000; stroke-width: 0.8"/>
      </defs>
      <g>
       <use xlink:href="#m7ed3215d95" x="55.584" y="148.109895" style="stroke: #000000; stroke-width: 0.8"/>
      </g>
     </g>
     <g id="text_5">
      <!-- 0 -->
      <g transform="translate(42.2215 151.909114) scale(0.1 -0.1)">
       <use xlink:href="#DejaVuSans-30"/>
      </g>
     </g>
    </g>
    <g id="ytick_2">
     <g id="line2d_6">
      <g>
       <use xlink:href="#m7ed3215d95" x="55.584" y="123.475505" style="stroke: #000000; stroke-width: 0.8"/>
      </g>
     </g>
     <g id="text_6">
      <!-- 10 -->
      <g transform="translate(35.859 127.274724) scale(0.1 -0.1)">
       <use xlink:href="#DejaVuSans-31"/>
       <use xlink:href="#DejaVuSans-30" x="63.623047"/>
      </g>
     </g>
    </g>
    <g id="ytick_3">
     <g id="line2d_7">
      <g>
       <use xlink:href="#m7ed3215d95" x="55.584" y="98.841115" style="stroke: #000000; stroke-width: 0.8"/>
      </g>
     </g>
     <g id="text_7">
      <!-- 20 -->
      <g transform="translate(35.859 102.640333) scale(0.1 -0.1)">
       <use xlink:href="#DejaVuSans-32"/>
       <use xlink:href="#DejaVuSans-30" x="63.623047"/>
      </g>
     </g>
    </g>
    <g id="ytick_4">
     <g id="line2d_8">
      <g>
       <use xlink:href="#m7ed3215d95" x="55.584" y="74.206725" style="stroke: #000000; stroke-width: 0.8"/>
      </g>
     </g>
     <g id="text_8">
      <!-- 30 -->
      <g transform="translate(35.859 78.005943) scale(0.1 -0.1)">
       <use xlink:href="#DejaVuSans-33"/>
       <use xlink:href="#DejaVuSans-30" x="63.623047"/>
      </g>
     </g>
    </g>
    <g id="ytick_5">
     <g id="line2d_9">
      <g>
       <use xlink:href="#m7ed3215d95" x="55.584" y="49.572335" style="stroke: #000000; stroke-width: 0.8"/>
      </g>
     </g>
     <g id="text_9">
      <!-- 40 -->
      <g transform="translate(35.859 53.371553) scale(0.1 -0.1)">
       <defs>
        <path id="DejaVuSans-34" d="M 2419 4116 
L 825 1625 
L 2419 1625 
L 2419 4116 
z
M 2253 4666 
L 3047 4666 
L 3047 1625 
L 3713 1625 
L 3713 1100 
L 3047 1100 
L 3047 0 
L 2419 0 
L 2419 1100 
L 313 1100 
L 313 1709 
L 2253 4666 
z
" transform="scale(0.015625)"/>
       </defs>
       <use xlink:href="#DejaVuSans-34"/>
       <use xlink:href="#DejaVuSans-30" x="63.623047"/>
      </g>
     </g>
    </g>
   </g>
   <g id="line2d_10">
    <path d="M 62.962512 46.8 
L 63.476694 47.586133 
L 63.990876 68.35908 
L 64.505059 94.099763 
L 65.019241 110.397442 
L 65.533423 108.861771 
L 66.047605 114.272294 
L 66.561787 114.768297 
L 67.075969 116.805906 
L 67.590151 120.717702 
L 68.618515 116.177481 
L 69.646879 128.397828 
L 70.161061 128.60451 
L 70.675243 127.226948 
L 71.189425 123.054151 
L 71.703607 114.938817 
L 72.217789 125.569268 
L 72.731971 128.406154 
L 73.246153 120.425541 
L 73.760335 114.539146 
L 74.274517 113.01037 
L 75.302882 98.801675 
L 75.817064 94.420042 
L 76.331246 95.272138 
L 76.845428 97.069757 
L 77.35961 106.489423 
L 77.873792 108.570662 
L 78.387974 107.653077 
L 78.902156 110.294798 
L 79.416338 109.887695 
L 79.93052 106.903032 
L 80.444702 105.225686 
L 80.958884 104.547393 
L 81.473066 109.267404 
L 81.987248 110.380915 
L 82.50143 112.009529 
L 83.015612 111.194641 
L 83.529794 108.794298 
L 84.043976 108.538122 
L 84.558158 114.035412 
L 85.07234 113.003721 
L 85.586523 115.700421 
L 86.100705 113.814348 
L 86.614887 113.715867 
L 87.129069 110.498396 
L 87.643251 110.065824 
L 88.157433 111.303766 
L 88.671615 105.788299 
L 89.185797 102.865108 
L 89.699979 107.188468 
L 90.214161 116.351084 
L 90.728343 115.739555 
L 91.242525 117.355928 
L 91.756707 108.529847 
L 92.270889 106.815269 
L 92.785071 110.382154 
L 93.299253 108.10535 
L 93.813435 110.679577 
L 94.327617 110.908224 
L 94.841799 112.494341 
L 95.355981 116.419878 
L 95.870164 115.550336 
L 96.384346 115.737242 
L 96.898528 117.54331 
L 97.41271 117.129982 
L 97.926892 118.05384 
L 98.441074 118.203073 
L 98.955256 117.37285 
L 99.469438 118.356079 
L 99.98362 121.16459 
L 100.497802 122.939522 
L 101.526166 125.005347 
L 102.040348 129.402184 
L 102.55453 128.647983 
L 103.068712 131.260066 
L 103.582894 126.80263 
L 104.097076 119.684346 
L 104.611258 122.931213 
L 105.12544 122.289522 
L 105.639622 120.567546 
L 106.667987 133.206355 
L 107.182169 134.862806 
L 107.696351 131.035481 
L 108.210533 125.960211 
L 108.724715 119.196595 
L 109.238897 120.212608 
L 109.753079 119.125641 
L 110.267261 123.810683 
L 110.781443 124.62176 
L 111.295625 127.888118 
L 111.809807 127.333115 
L 112.323989 130.053229 
L 112.838171 130.10272 
L 113.866535 125.935084 
L 114.380717 121.141167 
L 114.894899 121.025967 
L 115.409081 118.688331 
L 116.437445 128.463676 
L 116.951627 126.568022 
L 117.46581 123.825833 
L 117.979992 126.863645 
L 118.494174 141.256452 
L 119.008356 144.639387 
L 119.522538 142.065153 
L 120.03672 138.301478 
L 120.550902 128.816583 
L 121.065084 122.818087 
L 121.579266 122.583772 
L 122.093448 128.828989 
L 122.60763 129.380361 
L 123.121812 128.929655 
L 124.150176 123.328171 
L 124.664358 118.547678 
L 125.17854 117.63307 
L 125.692722 119.196063 
L 126.721086 137.54385 
L 127.235268 137.023262 
L 128.263633 133.549258 
L 128.777815 132.894658 
L 129.291997 130.127248 
L 129.806179 128.425214 
L 130.320361 125.209805 
L 130.834543 125.551184 
L 131.348725 126.24664 
L 131.862907 127.713477 
L 132.377089 128.216435 
L 132.891271 129.371904 
L 133.405453 129.998997 
L 133.919635 131.174683 
L 134.433817 129.574854 
L 134.947999 129.381509 
L 135.462181 129.496862 
L 135.976363 130.373952 
L 136.490545 126.320957 
L 137.004727 129.241305 
L 137.518909 129.412957 
L 138.033091 122.897543 
L 138.547274 122.381024 
L 139.061456 126.727407 
L 139.575638 133.121152 
L 140.08982 135.200102 
L 140.604002 139.976573 
L 141.118184 137.886443 
L 141.632366 139.432332 
L 142.146548 139.128824 
L 142.66073 133.545509 
L 143.174912 133.005563 
L 143.689094 137.217457 
L 144.203276 129.623386 
L 144.717458 132.364864 
L 145.23164 130.742335 
L 145.745822 127.217183 
L 146.260004 119.449004 
L 146.774186 123.432776 
L 147.288368 125.144504 
L 147.80255 122.302193 
L 148.316732 120.44008 
L 148.830915 127.470427 
L 149.345097 131.728343 
L 149.859279 132.337704 
L 151.916007 113.38248 
L 152.944371 115.422774 
L 153.458553 112.022575 
L 153.972735 116.22755 
L 154.486917 123.824892 
L 155.001099 125.472026 
L 155.515281 120.103069 
L 156.029463 122.843263 
L 156.543645 117.394932 
L 157.057827 110.389192 
L 157.572009 116.683266 
L 158.086191 120.968187 
L 158.600373 119.70932 
L 159.114555 119.598751 
L 159.628738 119.369822 
L 160.14292 119.93996 
L 160.657102 113.697793 
L 161.685466 133.108648 
L 162.71383 122.914681 
L 163.228012 118.801112 
L 163.742194 119.473981 
L 164.256376 122.74256 
L 164.770558 120.060868 
L 165.28474 120.044459 
L 166.313104 118.404043 
L 166.827286 116.411377 
L 167.341468 118.566649 
L 167.85565 115.32133 
L 168.369832 120.129862 
L 168.884014 106.97408 
L 169.398196 111.475428 
L 169.912378 120.129036 
L 170.426561 120.375548 
L 170.940743 126.252274 
L 171.454925 120.648829 
L 171.969107 117.950795 
L 172.483289 119.948991 
L 172.997471 117.236799 
L 173.511653 120.633679 
L 174.025835 118.885601 
L 174.540017 120.403032 
L 175.054199 118.051453 
L 175.568381 118.484301 
L 176.082563 117.084336 
L 176.596745 119.005415 
L 177.110927 121.623331 
L 177.625109 121.572666 
L 178.139291 120.579671 
L 179.167655 124.873011 
L 179.681837 123.947202 
L 180.196019 123.745897 
L 180.710202 124.680324 
L 181.738566 119.085304 
L 182.252748 119.957123 
L 182.76693 119.846201 
L 183.795294 112.547317 
L 184.309476 113.736769 
L 185.33784 108.341806 
L 185.852022 106.082118 
L 186.366204 108.849346 
L 186.880386 103.719241 
L 187.90875 99.11197 
L 188.422932 100.982358 
L 188.937114 102.299061 
L 189.451296 108.341784 
L 189.965478 108.840664 
L 190.47966 109.092467 
L 190.993842 106.099867 
L 191.508025 101.989947 
L 192.022207 94.396824 
L 192.536389 106.471282 
L 193.050571 112.651193 
L 193.564753 116.20262 
L 194.078935 117.025088 
L 194.593117 113.960504 
L 195.107299 115.088025 
L 195.621481 113.616046 
L 196.135663 123.003399 
L 197.164027 118.701577 
L 197.678209 120.553061 
L 198.192391 117.857073 
L 198.706573 123.482237 
L 199.220755 132.178239 
L 199.734937 127.726718 
L 200.249119 115.746825 
L 200.763301 111.1443 
L 201.277483 118.959521 
L 201.791666 122.596658 
L 202.305848 124.289839 
L 202.82003 120.424533 
L 203.334212 128.848327 
L 203.848394 131.60425 
L 204.362576 133.272621 
L 205.39094 140.429523 
L 205.905122 146.200816 
L 206.419304 147.6 
L 208.476032 118.712643 
L 208.990214 131.105024 
L 209.504396 135.59579 
L 210.018578 135.359369 
L 210.53276 126.610931 
L 210.53276 126.610931 
" clip-path="url(#pf9411485b8)" style="fill: none; stroke: #008000; stroke-width: 1.5; stroke-linecap: square"/>
   </g>
   <g id="patch_3">
    <path d="M 55.584 152.64 
L 55.584 41.76 
" style="fill: none; stroke: #000000; stroke-width: 0.8; stroke-linejoin: miter; stroke-linecap: square"/>
   </g>
   <g id="patch_4">
    <path d="M 217.911273 152.64 
L 217.911273 41.76 
" style="fill: none; stroke: #000000; stroke-width: 0.8; stroke-linejoin: miter; stroke-linecap: square"/>
   </g>
   <g id="patch_5">
    <path d="M 55.584 152.64 
L 217.911273 152.64 
" style="fill: none; stroke: #000000; stroke-width: 0.8; stroke-linejoin: miter; stroke-linecap: square"/>
   </g>
   <g id="patch_6">
    <path d="M 55.584 41.76 
L 217.911273 41.76 
" style="fill: none; stroke: #000000; stroke-width: 0.8; stroke-linejoin: miter; stroke-linecap: square"/>
   </g>
   <g id="text_10">
    <!-- No Prediction (FOSS) -->
    <g transform="translate(74.495761 35.76) scale(0.12 -0.12)">
     <defs>
      <path id="DejaVuSans-4e" d="M 628 4666 
L 1478 4666 
L 3547 763 
L 3547 4666 
L 4159 4666 
L 4159 0 
L 3309 0 
L 1241 3903 
L 1241 0 
L 628 0 
L 628 4666 
z
" transform="scale(0.015625)"/>
      <path id="DejaVuSans-6f" d="M 1959 3097 
Q 1497 3097 1228 2736 
Q 959 2375 959 1747 
Q 959 1119 1226 758 
Q 1494 397 1959 397 
Q 2419 397 2687 759 
Q 2956 1122 2956 1747 
Q 2956 2369 2687 2733 
Q 2419 3097 1959 3097 
z
M 1959 3584 
Q 2709 3584 3137 3096 
Q 3566 2609 3566 1747 
Q 3566 888 3137 398 
Q 2709 -91 1959 -91 
Q 1206 -91 779 398 
Q 353 888 353 1747 
Q 353 2609 779 3096 
Q 1206 3584 1959 3584 
z
" transform="scale(0.015625)"/>
      <path id="DejaVuSans-20" transform="scale(0.015625)"/>
      <path id="DejaVuSans-50" d="M 1259 4147 
L 1259 2394 
L 2053 2394 
Q 2494 2394 2734 2622 
Q 2975 2850 2975 3272 
Q 2975 3691 2734 3919 
Q 2494 4147 2053 4147 
L 1259 4147 
z
M 628 4666 
L 2053 4666 
Q 2838 4666 3239 4311 
Q 3641 3956 3641 3272 
Q 3641 2581 3239 2228 
Q 2838 1875 2053 1875 
L 1259 1875 
L 1259 0 
L 628 0 
L 628 4666 
z
" transform="scale(0.015625)"/>
      <path id="DejaVuSans-72" d="M 2631 2963 
Q 2534 3019 2420 3045 
Q 2306 3072 2169 3072 
Q 1681 3072 1420 2755 
Q 1159 2438 1159 1844 
L 1159 0 
L 581 0 
L 581 3500 
L 1159 3500 
L 1159 2956 
Q 1341 3275 1631 3429 
Q 1922 3584 2338 3584 
Q 2397 3584 2469 3576 
Q 2541 3569 2628 3553 
L 2631 2963 
z
" transform="scale(0.015625)"/>
      <path id="DejaVuSans-65" d="M 3597 1894 
L 3597 1613 
L 953 1613 
Q 991 1019 1311 708 
Q 1631 397 2203 397 
Q 2534 397 2845 478 
Q 3156 559 3463 722 
L 3463 178 
Q 3153 47 2828 -22 
Q 2503 -91 2169 -91 
Q 1331 -91 842 396 
Q 353 884 353 1716 
Q 353 2575 817 3079 
Q 1281 3584 2069 3584 
Q 2775 3584 3186 3129 
Q 3597 2675 3597 1894 
z
M 3022 2063 
Q 3016 2534 2758 2815 
Q 2500 3097 2075 3097 
Q 1594 3097 1305 2825 
Q 1016 2553 972 2059 
L 3022 2063 
z
" transform="scale(0.015625)"/>
      <path id="DejaVuSans-64" d="M 2906 2969 
L 2906 4863 
L 3481 4863 
L 3481 0 
L 2906 0 
L 2906 525 
Q 2725 213 2448 61 
Q 2172 -91 1784 -91 
Q 1150 -91 751 415 
Q 353 922 353 1747 
Q 353 2572 751 3078 
Q 1150 3584 1784 3584 
Q 2172 3584 2448 3432 
Q 2725 3281 2906 2969 
z
M 947 1747 
Q 947 1113 1208 752 
Q 1469 391 1925 391 
Q 2381 391 2643 752 
Q 2906 1113 2906 1747 
Q 2906 2381 2643 2742 
Q 2381 3103 1925 3103 
Q 1469 3103 1208 2742 
Q 947 2381 947 1747 
z
" transform="scale(0.015625)"/>
      <path id="DejaVuSans-69" d="M 603 3500 
L 1178 3500 
L 1178 0 
L 603 0 
L 603 3500 
z
M 603 4863 
L 1178 4863 
L 1178 4134 
L 603 4134 
L 603 4863 
z
" transform="scale(0.015625)"/>
      <path id="DejaVuSans-63" d="M 3122 3366 
L 3122 2828 
Q 2878 2963 2633 3030 
Q 2388 3097 2138 3097 
Q 1578 3097 1268 2742 
Q 959 2388 959 1747 
Q 959 1106 1268 751 
Q 1578 397 2138 397 
Q 2388 397 2633 464 
Q 2878 531 3122 666 
L 3122 134 
Q 2881 22 2623 -34 
Q 2366 -91 2075 -91 
Q 1284 -91 818 406 
Q 353 903 353 1747 
Q 353 2603 823 3093 
Q 1294 3584 2113 3584 
Q 2378 3584 2631 3529 
Q 2884 3475 3122 3366 
z
" transform="scale(0.015625)"/>
      <path id="DejaVuSans-74" d="M 1172 4494 
L 1172 3500 
L 2356 3500 
L 2356 3053 
L 1172 3053 
L 1172 1153 
Q 1172 725 1289 603 
Q 1406 481 1766 481 
L 2356 481 
L 2356 0 
L 1766 0 
Q 1100 0 847 248 
Q 594 497 594 1153 
L 594 3053 
L 172 3053 
L 172 3500 
L 594 3500 
L 594 4494 
L 1172 4494 
z
" transform="scale(0.015625)"/>
      <path id="DejaVuSans-6e" d="M 3513 2113 
L 3513 0 
L 2938 0 
L 2938 2094 
Q 2938 2591 2744 2837 
Q 2550 3084 2163 3084 
Q 1697 3084 1428 2787 
Q 1159 2491 1159 1978 
L 1159 0 
L 581 0 
L 581 3500 
L 1159 3500 
L 1159 2956 
Q 1366 3272 1645 3428 
Q 1925 3584 2291 3584 
Q 2894 3584 3203 3211 
Q 3513 2838 3513 2113 
z
" transform="scale(0.015625)"/>
      <path id="DejaVuSans-28" d="M 1984 4856 
Q 1566 4138 1362 3434 
Q 1159 2731 1159 2009 
Q 1159 1288 1364 580 
Q 1569 -128 1984 -844 
L 1484 -844 
Q 1016 -109 783 600 
Q 550 1309 550 2009 
Q 550 2706 781 3412 
Q 1013 4119 1484 4856 
L 1984 4856 
z
" transform="scale(0.015625)"/>
      <path id="DejaVuSans-46" d="M 628 4666 
L 3309 4666 
L 3309 4134 
L 1259 4134 
L 1259 2759 
L 3109 2759 
L 3109 2228 
L 1259 2228 
L 1259 0 
L 628 0 
L 628 4666 
z
" transform="scale(0.015625)"/>
      <path id="DejaVuSans-4f" d="M 2522 4238 
Q 1834 4238 1429 3725 
Q 1025 3213 1025 2328 
Q 1025 1447 1429 934 
Q 1834 422 2522 422 
Q 3209 422 3611 934 
Q 4013 1447 4013 2328 
Q 4013 3213 3611 3725 
Q 3209 4238 2522 4238 
z
M 2522 4750 
Q 3503 4750 4090 4092 
Q 4678 3434 4678 2328 
Q 4678 1225 4090 567 
Q 3503 -91 2522 -91 
Q 1538 -91 948 565 
Q 359 1222 359 2328 
Q 359 3434 948 4092 
Q 1538 4750 2522 4750 
z
" transform="scale(0.015625)"/>
      <path id="DejaVuSans-53" d="M 3425 4513 
L 3425 3897 
Q 3066 4069 2747 4153 
Q 2428 4238 2131 4238 
Q 1616 4238 1336 4038 
Q 1056 3838 1056 3469 
Q 1056 3159 1242 3001 
Q 1428 2844 1947 2747 
L 2328 2669 
Q 3034 2534 3370 2195 
Q 3706 1856 3706 1288 
Q 3706 609 3251 259 
Q 2797 -91 1919 -91 
Q 1588 -91 1214 -16 
Q 841 59 441 206 
L 441 856 
Q 825 641 1194 531 
Q 1563 422 1919 422 
Q 2459 422 2753 634 
Q 3047 847 3047 1241 
Q 3047 1584 2836 1778 
Q 2625 1972 2144 2069 
L 1759 2144 
Q 1053 2284 737 2584 
Q 422 2884 422 3419 
Q 422 4038 858 4394 
Q 1294 4750 2059 4750 
Q 2388 4750 2728 4690 
Q 3069 4631 3425 4513 
z
" transform="scale(0.015625)"/>
      <path id="DejaVuSans-29" d="M 513 4856 
L 1013 4856 
Q 1481 4119 1714 3412 
Q 1947 2706 1947 2009 
Q 1947 1309 1714 600 
Q 1481 -109 1013 -844 
L 513 -844 
Q 928 -128 1133 580 
Q 1338 1288 1338 2009 
Q 1338 2731 1133 3434 
Q 928 4138 513 4856 
z
" transform="scale(0.015625)"/>
     </defs>
     <use xlink:href="#DejaVuSans-4e"/>
     <use xlink:href="#DejaVuSans-6f" x="74.804688"/>
     <use xlink:href="#DejaVuSans-20" x="135.986328"/>
     <use xlink:href="#DejaVuSans-50" x="167.773438"/>
     <use xlink:href="#DejaVuSans-72" x="226.326172"/>
     <use xlink:href="#DejaVuSans-65" x="265.189453"/>
     <use xlink:href="#DejaVuSans-64" x="326.712891"/>
     <use xlink:href="#DejaVuSans-69" x="390.189453"/>
     <use xlink:href="#DejaVuSans-63" x="417.972656"/>
     <use xlink:href="#DejaVuSans-74" x="472.953125"/>
     <use xlink:href="#DejaVuSans-69" x="512.162109"/>
     <use xlink:href="#DejaVuSans-6f" x="539.945312"/>
     <use xlink:href="#DejaVuSans-6e" x="601.126953"/>
     <use xlink:href="#DejaVuSans-20" x="664.505859"/>
     <use xlink:href="#DejaVuSans-28" x="696.292969"/>
     <use xlink:href="#DejaVuSans-46" x="735.306641"/>
     <use xlink:href="#DejaVuSans-4f" x="792.826172"/>
     <use xlink:href="#DejaVuSans-53" x="871.537109"/>
     <use xlink:href="#DejaVuSans-53" x="935.013672"/>
     <use xlink:href="#DejaVuSans-29" x="998.490234"/>
    </g>
   </g>
  </g>
  <g id="axes_2">
   <g id="patch_7">
    <path d="M 250.376727 152.64 
L 412.704 152.64 
L 412.704 41.76 
L 250.376727 41.76 
z
" style="fill: #ffffff"/>
   </g>
   <g id="matplotlib.axis_3">
    <g id="xtick_5">
     <g id="line2d_11">
      <g>
       <use xlink:href="#mfab1ca45ca" x="257.75524" y="152.64" style="stroke: #000000; stroke-width: 0.8"/>
      </g>
     </g>
     <g id="text_11">
      <!-- 0 -->
      <g transform="translate(254.57399 167.238437) scale(0.1 -0.1)">
       <use xlink:href="#DejaVuSans-30"/>
      </g>
     </g>
    </g>
    <g id="xtick_6">
     <g id="line2d_12">
      <g>
       <use xlink:href="#mfab1ca45ca" x="309.173445" y="152.64" style="stroke: #000000; stroke-width: 0.8"/>
      </g>
     </g>
     <g id="text_12">
      <!-- 100 -->
      <g transform="translate(299.629695 167.238437) scale(0.1 -0.1)">
       <use xlink:href="#DejaVuSans-31"/>
       <use xlink:href="#DejaVuSans-30" x="63.623047"/>
       <use xlink:href="#DejaVuSans-30" x="127.246094"/>
      </g>
     </g>
    </g>
    <g id="xtick_7">
     <g id="line2d_13">
      <g>
       <use xlink:href="#mfab1ca45ca" x="360.591649" y="152.64" style="stroke: #000000; stroke-width: 0.8"/>
      </g>
     </g>
     <g id="text_13">
      <!-- 200 -->
      <g transform="translate(351.047899 167.238437) scale(0.1 -0.1)">
       <use xlink:href="#DejaVuSans-32"/>
       <use xlink:href="#DejaVuSans-30" x="63.623047"/>
       <use xlink:href="#DejaVuSans-30" x="127.246094"/>
      </g>
     </g>
    </g>
    <g id="xtick_8">
     <g id="line2d_14">
      <g>
       <use xlink:href="#mfab1ca45ca" x="412.009854" y="152.64" style="stroke: #000000; stroke-width: 0.8"/>
      </g>
     </g>
     <g id="text_14">
      <!-- 300 -->
      <g transform="translate(402.466104 167.238437) scale(0.1 -0.1)">
       <use xlink:href="#DejaVuSans-33"/>
       <use xlink:href="#DejaVuSans-30" x="63.623047"/>
       <use xlink:href="#DejaVuSans-30" x="127.246094"/>
      </g>
     </g>
    </g>
   </g>
   <g id="matplotlib.axis_4">
    <g id="ytick_6">
     <g id="line2d_15">
      <g>
       <use xlink:href="#m7ed3215d95" x="250.376727" y="147.6" style="stroke: #000000; stroke-width: 0.8"/>
      </g>
     </g>
     <g id="text_15">
      <!-- 0 -->
      <g transform="translate(237.014227 151.399219) scale(0.1 -0.1)">
       <use xlink:href="#DejaVuSans-30"/>
      </g>
     </g>
    </g>
    <g id="ytick_7">
     <g id="line2d_16">
      <g>
       <use xlink:href="#m7ed3215d95" x="250.376727" y="123.093621" style="stroke: #000000; stroke-width: 0.8"/>
      </g>
     </g>
     <g id="text_16">
      <!-- 10 -->
      <g transform="translate(230.651727 126.89284) scale(0.1 -0.1)">
       <use xlink:href="#DejaVuSans-31"/>
       <use xlink:href="#DejaVuSans-30" x="63.623047"/>
      </g>
     </g>
    </g>
    <g id="ytick_8">
     <g id="line2d_17">
      <g>
       <use xlink:href="#m7ed3215d95" x="250.376727" y="98.587242" style="stroke: #000000; stroke-width: 0.8"/>
      </g>
     </g>
     <g id="text_17">
      <!-- 20 -->
      <g transform="translate(230.651727 102.386461) scale(0.1 -0.1)">
       <use xlink:href="#DejaVuSans-32"/>
       <use xlink:href="#DejaVuSans-30" x="63.623047"/>
      </g>
     </g>
    </g>
    <g id="ytick_9">
     <g id="line2d_18">
      <g>
       <use xlink:href="#m7ed3215d95" x="250.376727" y="74.080864" style="stroke: #000000; stroke-width: 0.8"/>
      </g>
     </g>
     <g id="text_18">
      <!-- 30 -->
      <g transform="translate(230.651727 77.880082) scale(0.1 -0.1)">
       <use xlink:href="#DejaVuSans-33"/>
       <use xlink:href="#DejaVuSans-30" x="63.623047"/>
      </g>
     </g>
    </g>
    <g id="ytick_10">
     <g id="line2d_19">
      <g>
       <use xlink:href="#m7ed3215d95" x="250.376727" y="49.574485" style="stroke: #000000; stroke-width: 0.8"/>
      </g>
     </g>
     <g id="text_19">
      <!-- 40 -->
      <g transform="translate(230.651727 53.373704) scale(0.1 -0.1)">
       <use xlink:href="#DejaVuSans-34"/>
       <use xlink:href="#DejaVuSans-30" x="63.623047"/>
      </g>
     </g>
    </g>
   </g>
   <g id="line2d_20">
    <path d="M 257.75524 46.8 
L 258.269422 47.583114 
L 258.783604 68.252418 
L 259.297786 93.790668 
L 259.811968 110.089618 
L 260.32615 108.558319 
L 260.840332 113.932039 
L 261.354514 114.395989 
L 261.868696 116.463109 
L 262.382878 120.351725 
L 263.411242 115.83304 
L 263.925424 147.6 
L 265.46797 147.6 
L 265.982152 147.262437 
L 266.496334 145.836661 
L 267.010517 131.43114 
L 267.524699 129.236937 
L 268.038881 130.295747 
L 268.553063 140.57085 
L 269.067245 143.288573 
L 269.581427 140.529219 
L 270.095609 98.546439 
L 270.609791 94.179133 
L 271.123973 95.039873 
L 271.638155 96.828804 
L 272.152337 106.195434 
L 272.666519 108.267983 
L 273.180701 107.358605 
L 273.694883 109.941307 
L 274.209065 109.58136 
L 274.723247 106.584438 
L 275.237429 104.941335 
L 275.751611 104.232603 
L 276.265793 133.552304 
L 276.779975 130.281938 
L 277.294158 136.69845 
L 277.80834 120.383708 
L 278.322522 121.553236 
L 279.350886 136.49862 
L 279.865068 134.253292 
L 280.37925 126.917249 
L 280.893432 125.344853 
L 281.407614 122.65829 
L 281.921796 121.796552 
L 282.435978 109.769256 
L 282.95016 110.99431 
L 283.464342 105.373517 
L 283.978524 102.594636 
L 284.492706 106.905852 
L 285.006888 116.013145 
L 285.52107 115.374661 
L 286.035252 117.010364 
L 286.549434 108.224552 
L 287.063616 106.50593 
L 287.577798 110.05324 
L 288.091981 107.814186 
L 288.606163 139.633709 
L 289.120345 135.310281 
L 289.634527 119.844565 
L 290.148709 139.976786 
L 290.662891 143.387961 
L 291.177073 144.045489 
L 291.691255 135.701423 
L 292.205437 134.014004 
L 292.719619 144.484693 
L 293.233801 138.334969 
L 293.747983 139.69272 
L 294.262165 147.6 
L 294.776347 120.787782 
L 295.290529 122.531714 
L 295.804711 123.704997 
L 296.318893 124.590902 
L 296.833075 128.970346 
L 297.347257 128.242414 
L 297.861439 130.828226 
L 298.375622 126.406805 
L 298.889804 119.325197 
L 299.403986 122.554206 
L 299.918168 121.907804 
L 300.43235 120.206704 
L 300.946532 129.943166 
L 301.460714 147.6 
L 301.974896 147.6 
L 302.489078 128.712703 
L 303.00326 126.411731 
L 303.517442 140.587519 
L 304.031624 146.81697 
L 304.545806 147.6 
L 305.059988 147.6 
L 305.57417 146.542841 
L 306.088352 142.215968 
L 306.602534 145.06333 
L 307.116716 129.631622 
L 307.630898 129.678635 
L 308.659262 125.54568 
L 309.173445 120.764204 
L 309.687627 120.64425 
L 310.201809 118.34406 
L 311.230173 128.050142 
L 311.744355 126.164263 
L 312.258537 123.447104 
L 312.772719 126.467941 
L 313.286901 146.938754 
L 313.801083 146.546449 
L 314.315265 144.742473 
L 314.829447 143.498127 
L 315.343629 140.913155 
L 315.857811 142.474832 
L 316.371993 145.600478 
L 316.886175 147.6 
L 317.914539 136.949663 
L 318.428721 139.923269 
L 318.942903 138.486161 
L 319.457085 118.182935 
L 319.971268 117.296556 
L 320.48545 118.83787 
L 321.513814 137.087636 
L 322.027996 136.567037 
L 323.05636 133.112978 
L 323.570542 132.438675 
L 324.084724 129.772521 
L 324.598906 128.01859 
L 325.113088 124.817569 
L 325.62727 147.6 
L 326.141452 140.232495 
L 326.655634 147.6 
L 329.226544 147.6 
L 329.740726 147.437854 
L 330.254909 146.053197 
L 330.769091 146.778495 
L 331.283273 145.346342 
L 331.797455 128.850513 
L 332.311637 129.04661 
L 332.825819 122.50722 
L 333.340001 122.000414 
L 333.854183 126.33508 
L 334.368365 132.692098 
L 334.882547 134.763669 
L 335.396729 139.60335 
L 335.910911 137.422962 
L 336.425093 138.960154 
L 336.939275 138.660183 
L 337.453457 133.119181 
L 337.967639 147.6 
L 343.623642 147.6 
L 344.137824 131.280016 
L 344.652006 131.900383 
L 346.708734 113.051748 
L 347.737098 115.074566 
L 348.25128 111.706933 
L 348.765462 115.898021 
L 349.279644 122.631703 
L 349.793826 125.081819 
L 350.308008 147.6 
L 355.964011 147.6 
L 356.478193 133.348806 
L 356.992375 126.997674 
L 358.020739 118.436924 
L 358.534921 119.116194 
L 359.049103 122.369779 
L 359.563285 119.69429 
L 360.077467 119.690168 
L 361.105831 118.036394 
L 361.620013 116.061751 
L 362.134196 118.204197 
L 362.648378 140.404273 
L 363.16256 143.503597 
L 363.676742 138.541602 
L 364.190924 147.6 
L 364.705106 138.95911 
L 365.219288 147.6 
L 365.73347 143.593614 
L 366.247652 141.355253 
L 366.761834 145.29693 
L 367.276016 141.090866 
L 367.790198 141.551269 
L 368.30438 145.95137 
L 368.818562 118.516834 
L 369.332744 120.030265 
L 369.846926 117.666027 
L 370.361108 118.115324 
L 370.87529 116.737377 
L 371.389472 118.65716 
L 371.903654 121.237371 
L 372.417836 121.200861 
L 372.932019 120.198168 
L 373.960383 124.47259 
L 374.474565 123.568491 
L 374.988747 147.6 
L 376.017111 147.6 
L 376.531293 145.828743 
L 377.045475 147.6 
L 377.559657 141.830944 
L 378.073839 119.844362 
L 378.588021 124.140798 
L 379.102203 133.231565 
L 379.616385 136.9828 
L 380.130567 138.833514 
L 380.644749 134.464941 
L 381.158931 108.541792 
L 381.673113 103.440892 
L 382.701477 98.84033 
L 383.21566 100.729002 
L 383.729842 102.02572 
L 384.244024 108.033978 
L 384.758206 108.520928 
L 385.272388 108.807686 
L 385.78657 105.814347 
L 386.300752 101.729257 
L 386.814934 94.167284 
L 387.329116 134.568554 
L 387.843298 127.03656 
L 388.35748 146.910535 
L 388.871662 142.607225 
L 389.385844 147.6 
L 389.900026 145.802901 
L 390.414208 137.729894 
L 390.92839 144.723657 
L 391.442572 143.901061 
L 391.956754 140.341887 
L 392.985118 147.6 
L 393.4993 123.107198 
L 394.013483 131.741881 
L 394.527665 127.323912 
L 395.041847 115.417361 
L 395.556029 110.826787 
L 396.070211 118.591375 
L 396.584393 122.236959 
L 397.098575 123.897092 
L 397.612757 120.062319 
L 398.126939 128.429836 
L 398.641121 131.179876 
L 399.155303 132.789359 
L 399.669485 145.138621 
L 400.183667 143.720439 
L 400.697849 147.6 
L 401.212031 147.6 
L 401.726213 142.846174 
L 402.240395 134.023665 
L 402.754577 130.088156 
L 403.782941 141.180321 
L 404.297124 138.466732 
L 404.811306 136.648908 
L 405.325488 138.149588 
L 405.325488 138.149588 
" clip-path="url(#p4150a85317)" style="fill: none; stroke: #0000ff; stroke-width: 1.5; stroke-linecap: square"/>
   </g>
   <g id="patch_8">
    <path d="M 250.376727 152.64 
L 250.376727 41.76 
" style="fill: none; stroke: #000000; stroke-width: 0.8; stroke-linejoin: miter; stroke-linecap: square"/>
   </g>
   <g id="patch_9">
    <path d="M 412.704 152.64 
L 412.704 41.76 
" style="fill: none; stroke: #000000; stroke-width: 0.8; stroke-linejoin: miter; stroke-linecap: square"/>
   </g>
   <g id="patch_10">
    <path d="M 250.376727 152.64 
L 412.704 152.64 
" style="fill: none; stroke: #000000; stroke-width: 0.8; stroke-linejoin: miter; stroke-linecap: square"/>
   </g>
   <g id="patch_11">
    <path d="M 250.376727 41.76 
L 412.704 41.76 
" style="fill: none; stroke: #000000; stroke-width: 0.8; stroke-linejoin: miter; stroke-linecap: square"/>
   </g>
   <g id="text_20">
    <!-- RNN -->
    <g transform="translate(318.393801 35.76) scale(0.12 -0.12)">
     <defs>
      <path id="DejaVuSans-52" d="M 2841 2188 
Q 3044 2119 3236 1894 
Q 3428 1669 3622 1275 
L 4263 0 
L 3584 0 
L 2988 1197 
Q 2756 1666 2539 1819 
Q 2322 1972 1947 1972 
L 1259 1972 
L 1259 0 
L 628 0 
L 628 4666 
L 2053 4666 
Q 2853 4666 3247 4331 
Q 3641 3997 3641 3322 
Q 3641 2881 3436 2590 
Q 3231 2300 2841 2188 
z
M 1259 4147 
L 1259 2491 
L 2053 2491 
Q 2509 2491 2742 2702 
Q 2975 2913 2975 3322 
Q 2975 3731 2742 3939 
Q 2509 4147 2053 4147 
L 1259 4147 
z
" transform="scale(0.015625)"/>
     </defs>
     <use xlink:href="#DejaVuSans-52"/>
     <use xlink:href="#DejaVuSans-4e" x="69.482422"/>
     <use xlink:href="#DejaVuSans-4e" x="144.287109"/>
    </g>
   </g>
  </g>
  <g id="axes_3">
   <g id="patch_12">
    <path d="M 55.584 307.872 
L 217.911273 307.872 
L 217.911273 196.992 
L 55.584 196.992 
z
" style="fill: #ffffff"/>
   </g>
   <g id="matplotlib.axis_5">
    <g id="xtick_9">
     <g id="line2d_21">
      <g>
       <use xlink:href="#mfab1ca45ca" x="62.962512" y="307.872" style="stroke: #000000; stroke-width: 0.8"/>
      </g>
     </g>
     <g id="text_21">
      <!-- 0 -->
      <g transform="translate(59.781262 322.470437) scale(0.1 -0.1)">
       <use xlink:href="#DejaVuSans-30"/>
      </g>
     </g>
    </g>
    <g id="xtick_10">
     <g id="line2d_22">
      <g>
       <use xlink:href="#mfab1ca45ca" x="114.380717" y="307.872" style="stroke: #000000; stroke-width: 0.8"/>
      </g>
     </g>
     <g id="text_22">
      <!-- 100 -->
      <g transform="translate(104.836967 322.470437) scale(0.1 -0.1)">
       <use xlink:href="#DejaVuSans-31"/>
       <use xlink:href="#DejaVuSans-30" x="63.623047"/>
       <use xlink:href="#DejaVuSans-30" x="127.246094"/>
      </g>
     </g>
    </g>
    <g id="xtick_11">
     <g id="line2d_23">
      <g>
       <use xlink:href="#mfab1ca45ca" x="165.798922" y="307.872" style="stroke: #000000; stroke-width: 0.8"/>
      </g>
     </g>
     <g id="text_23">
      <!-- 200 -->
      <g transform="translate(156.255172 322.470437) scale(0.1 -0.1)">
       <use xlink:href="#DejaVuSans-32"/>
       <use xlink:href="#DejaVuSans-30" x="63.623047"/>
       <use xlink:href="#DejaVuSans-30" x="127.246094"/>
      </g>
     </g>
    </g>
    <g id="xtick_12">
     <g id="line2d_24">
      <g>
       <use xlink:href="#mfab1ca45ca" x="217.217127" y="307.872" style="stroke: #000000; stroke-width: 0.8"/>
      </g>
     </g>
     <g id="text_24">
      <!-- 300 -->
      <g transform="translate(207.673377 322.470437) scale(0.1 -0.1)">
       <use xlink:href="#DejaVuSans-33"/>
       <use xlink:href="#DejaVuSans-30" x="63.623047"/>
       <use xlink:href="#DejaVuSans-30" x="127.246094"/>
      </g>
     </g>
    </g>
   </g>
   <g id="matplotlib.axis_6">
    <g id="ytick_11">
     <g id="line2d_25">
      <g>
       <use xlink:href="#m7ed3215d95" x="55.584" y="302.832" style="stroke: #000000; stroke-width: 0.8"/>
      </g>
     </g>
     <g id="text_25">
      <!-- 0 -->
      <g transform="translate(42.2215 306.631219) scale(0.1 -0.1)">
       <use xlink:href="#DejaVuSans-30"/>
      </g>
     </g>
    </g>
    <g id="ytick_12">
     <g id="line2d_26">
      <g>
       <use xlink:href="#m7ed3215d95" x="55.584" y="278.325621" style="stroke: #000000; stroke-width: 0.8"/>
      </g>
     </g>
     <g id="text_26">
      <!-- 10 -->
      <g transform="translate(35.859 282.12484) scale(0.1 -0.1)">
       <use xlink:href="#DejaVuSans-31"/>
       <use xlink:href="#DejaVuSans-30" x="63.623047"/>
      </g>
     </g>
    </g>
    <g id="ytick_13">
     <g id="line2d_27">
      <g>
       <use xlink:href="#m7ed3215d95" x="55.584" y="253.819242" style="stroke: #000000; stroke-width: 0.8"/>
      </g>
     </g>
     <g id="text_27">
      <!-- 20 -->
      <g transform="translate(35.859 257.618461) scale(0.1 -0.1)">
       <use xlink:href="#DejaVuSans-32"/>
       <use xlink:href="#DejaVuSans-30" x="63.623047"/>
      </g>
     </g>
    </g>
    <g id="ytick_14">
     <g id="line2d_28">
      <g>
       <use xlink:href="#m7ed3215d95" x="55.584" y="229.312864" style="stroke: #000000; stroke-width: 0.8"/>
      </g>
     </g>
     <g id="text_28">
      <!-- 30 -->
      <g transform="translate(35.859 233.112082) scale(0.1 -0.1)">
       <use xlink:href="#DejaVuSans-33"/>
       <use xlink:href="#DejaVuSans-30" x="63.623047"/>
      </g>
     </g>
    </g>
    <g id="ytick_15">
     <g id="line2d_29">
      <g>
       <use xlink:href="#m7ed3215d95" x="55.584" y="204.806485" style="stroke: #000000; stroke-width: 0.8"/>
      </g>
     </g>
     <g id="text_29">
      <!-- 40 -->
      <g transform="translate(35.859 208.605704) scale(0.1 -0.1)">
       <use xlink:href="#DejaVuSans-34"/>
       <use xlink:href="#DejaVuSans-30" x="63.623047"/>
      </g>
     </g>
    </g>
   </g>
   <g id="line2d_30">
    <path d="M 62.962512 202.032 
L 63.476694 202.815114 
L 63.990876 223.484418 
L 64.505059 249.022668 
L 65.019241 265.321618 
L 65.533423 263.790319 
L 66.047605 269.164039 
L 66.561787 269.627989 
L 67.075969 271.695109 
L 67.590151 275.583725 
L 68.618515 271.06504 
L 69.132697 302.832 
L 72.731971 302.832 
L 73.246153 301.7718 
L 73.760335 292.815275 
L 74.274517 278.705529 
L 74.7887 270.083425 
L 75.302882 253.778439 
L 75.817064 249.411133 
L 76.331246 250.271873 
L 76.845428 252.060804 
L 77.35961 261.427434 
L 77.873792 263.499983 
L 78.387974 262.590605 
L 78.902156 265.173307 
L 79.416338 264.81336 
L 79.93052 261.816438 
L 80.444702 260.173335 
L 80.958884 259.464603 
L 81.473066 300.59259 
L 81.987248 292.469676 
L 82.50143 290.629644 
L 83.015612 293.277274 
L 83.529794 282.584452 
L 84.043976 277.831925 
L 84.558158 284.873853 
L 85.07234 297.836757 
L 85.586523 302.077336 
L 86.100705 302.832 
L 87.129069 302.832 
L 87.643251 265.001256 
L 88.157433 266.22631 
L 88.671615 260.605517 
L 89.185797 257.826636 
L 89.699979 262.137852 
L 90.214161 271.245145 
L 90.728343 270.606661 
L 91.242525 272.242364 
L 91.756707 263.456552 
L 92.270889 261.73793 
L 92.785071 265.28524 
L 93.299253 263.046186 
L 93.813435 300.396982 
L 94.327617 300.429765 
L 95.355981 300.194356 
L 95.870164 299.374407 
L 96.384346 300.340319 
L 96.898528 299.607987 
L 97.41271 300.693441 
L 97.926892 300.424694 
L 98.441074 295.883765 
L 98.955256 293.788536 
L 99.469438 294.081039 
L 99.98362 276.019782 
L 100.497802 277.763714 
L 101.011984 278.936997 
L 101.526166 279.822902 
L 102.040348 284.202346 
L 102.55453 283.474414 
L 103.068712 286.060226 
L 103.582894 281.638805 
L 104.097076 274.557197 
L 104.611258 277.786206 
L 105.12544 277.139804 
L 105.639622 275.438704 
L 106.153804 295.323564 
L 106.667987 302.262876 
L 107.182169 297.176528 
L 107.696351 295.28927 
L 108.210533 295.402911 
L 108.724715 301.082835 
L 109.238897 302.832 
L 111.809807 302.832 
L 112.323989 284.863622 
L 112.838171 284.910635 
L 113.866535 280.77768 
L 114.380717 275.996204 
L 114.894899 275.87625 
L 115.409081 273.57606 
L 116.437445 283.282142 
L 116.951627 281.396263 
L 117.46581 278.679104 
L 117.979992 281.699941 
L 118.494174 302.832 
L 119.522538 302.832 
L 120.550902 287.958794 
L 121.065084 300.563707 
L 121.579266 302.832 
L 122.093448 302.832 
L 122.60763 301.413367 
L 123.635994 302.832 
L 124.150176 302.832 
L 124.664358 273.414935 
L 125.17854 272.528556 
L 125.692722 274.06987 
L 126.721086 292.319636 
L 127.235268 291.799037 
L 128.263633 288.344978 
L 128.777815 287.670675 
L 129.291997 285.004521 
L 129.806179 283.25059 
L 130.320361 280.049569 
L 130.834543 302.832 
L 135.976363 302.832 
L 136.490545 301.889592 
L 137.004727 284.082513 
L 137.518909 284.27861 
L 138.033091 277.73922 
L 138.547274 277.232414 
L 139.061456 281.56708 
L 139.575638 287.924098 
L 140.08982 289.995669 
L 140.604002 294.83535 
L 141.118184 292.654962 
L 141.632366 294.192154 
L 142.146548 293.892183 
L 142.66073 288.351181 
L 143.174912 302.832 
L 148.830915 302.832 
L 149.345097 286.512016 
L 149.859279 287.132383 
L 151.916007 268.283748 
L 152.944371 270.306566 
L 153.458553 266.938933 
L 153.972735 271.130021 
L 154.486917 277.863703 
L 155.001099 280.313819 
L 155.515281 302.832 
L 161.171284 302.832 
L 161.685466 288.580806 
L 162.199648 282.229674 
L 163.228012 273.668924 
L 163.742194 274.348194 
L 164.256376 277.601779 
L 164.770558 274.92629 
L 165.28474 274.922168 
L 166.313104 273.268394 
L 166.827286 271.293751 
L 167.341468 273.436197 
L 167.85565 302.832 
L 168.369832 298.43994 
L 168.884014 287.281164 
L 169.398196 286.469635 
L 169.912378 292.992664 
L 170.426561 301.1568 
L 170.940743 300.340608 
L 171.454925 302.832 
L 173.511653 302.832 
L 174.025835 273.748834 
L 174.540017 275.262265 
L 175.054199 272.898027 
L 175.568381 273.347324 
L 176.082563 271.969377 
L 176.596745 273.88916 
L 177.110927 276.469371 
L 177.625109 276.432861 
L 178.139291 275.430168 
L 179.167655 279.70459 
L 179.681837 278.800491 
L 180.196019 302.832 
L 183.795294 302.832 
L 184.309476 301.220321 
L 184.823658 302.832 
L 185.33784 302.58586 
L 185.852022 301.556815 
L 186.366204 263.773792 
L 186.880386 258.672892 
L 187.90875 254.07233 
L 188.422932 255.961002 
L 188.937114 257.25772 
L 189.451296 263.265978 
L 189.965478 263.752928 
L 190.47966 264.039686 
L 190.993842 261.046347 
L 191.508025 256.961257 
L 192.022207 249.399284 
L 192.536389 289.510416 
L 193.050571 289.139749 
L 193.564753 293.042194 
L 194.078935 292.532998 
L 194.593117 293.659008 
L 195.107299 287.744493 
L 195.621481 274.89797 
L 196.135663 285.697593 
L 196.649845 282.637531 
L 197.164027 285.392335 
L 197.678209 283.604447 
L 198.192391 291.589103 
L 198.706573 278.339198 
L 199.220755 286.973881 
L 199.734937 282.555912 
L 200.249119 270.649361 
L 200.763301 266.058787 
L 201.277483 273.823375 
L 201.791666 277.468959 
L 202.305848 279.129092 
L 202.82003 275.294319 
L 203.334212 283.661836 
L 203.848394 286.411876 
L 204.362576 288.021359 
L 204.876758 300.379715 
L 205.39094 296.830483 
L 205.905122 302.832 
L 206.419304 302.464463 
L 206.933486 300.932268 
L 207.447668 293.227249 
L 207.96185 287.666379 
L 208.476032 284.86852 
L 208.990214 283.262684 
L 209.504396 289.069838 
L 210.018578 286.173211 
L 210.53276 293.592483 
L 210.53276 293.592483 
" clip-path="url(#p30a5577366)" style="fill: none; stroke: #ffa500; stroke-width: 1.5; stroke-linecap: square"/>
   </g>
   <g id="patch_13">
    <path d="M 55.584 307.872 
L 55.584 196.992 
" style="fill: none; stroke: #000000; stroke-width: 0.8; stroke-linejoin: miter; stroke-linecap: square"/>
   </g>
   <g id="patch_14">
    <path d="M 217.911273 307.872 
L 217.911273 196.992 
" style="fill: none; stroke: #000000; stroke-width: 0.8; stroke-linejoin: miter; stroke-linecap: square"/>
   </g>
   <g id="patch_15">
    <path d="M 55.584 307.872 
L 217.911273 307.872 
" style="fill: none; stroke: #000000; stroke-width: 0.8; stroke-linejoin: miter; stroke-linecap: square"/>
   </g>
   <g id="patch_16">
    <path d="M 55.584 196.992 
L 217.911273 196.992 
" style="fill: none; stroke: #000000; stroke-width: 0.8; stroke-linejoin: miter; stroke-linecap: square"/>
   </g>
   <g id="text_30">
    <!-- VAE -->
    <g transform="translate(125.130136 190.992) scale(0.12 -0.12)">
     <defs>
      <path id="DejaVuSans-56" d="M 1831 0 
L 50 4666 
L 709 4666 
L 2188 738 
L 3669 4666 
L 4325 4666 
L 2547 0 
L 1831 0 
z
" transform="scale(0.015625)"/>
      <path id="DejaVuSans-41" d="M 2188 4044 
L 1331 1722 
L 3047 1722 
L 2188 4044 
z
M 1831 4666 
L 2547 4666 
L 4325 0 
L 3669 0 
L 3244 1197 
L 1141 1197 
L 716 0 
L 50 0 
L 1831 4666 
z
" transform="scale(0.015625)"/>
      <path id="DejaVuSans-45" d="M 628 4666 
L 3578 4666 
L 3578 4134 
L 1259 4134 
L 1259 2753 
L 3481 2753 
L 3481 2222 
L 1259 2222 
L 1259 531 
L 3634 531 
L 3634 0 
L 628 0 
L 628 4666 
z
" transform="scale(0.015625)"/>
     </defs>
     <use xlink:href="#DejaVuSans-56"/>
     <use xlink:href="#DejaVuSans-41" x="62.033203"/>
     <use xlink:href="#DejaVuSans-45" x="130.441406"/>
    </g>
   </g>
  </g>
  <g id="axes_4">
   <g id="patch_17">
    <path d="M 250.376727 307.872 
L 412.704 307.872 
L 412.704 196.992 
L 250.376727 196.992 
z
" style="fill: #ffffff"/>
   </g>
   <g id="matplotlib.axis_7">
    <g id="xtick_13">
     <g id="line2d_31">
      <g>
       <use xlink:href="#mfab1ca45ca" x="257.75524" y="307.872" style="stroke: #000000; stroke-width: 0.8"/>
      </g>
     </g>
     <g id="text_31">
      <!-- 0 -->
      <g transform="translate(254.57399 322.470437) scale(0.1 -0.1)">
       <use xlink:href="#DejaVuSans-30"/>
      </g>
     </g>
    </g>
    <g id="xtick_14">
     <g id="line2d_32">
      <g>
       <use xlink:href="#mfab1ca45ca" x="309.173445" y="307.872" style="stroke: #000000; stroke-width: 0.8"/>
      </g>
     </g>
     <g id="text_32">
      <!-- 100 -->
      <g transform="translate(299.629695 322.470437) scale(0.1 -0.1)">
       <use xlink:href="#DejaVuSans-31"/>
       <use xlink:href="#DejaVuSans-30" x="63.623047"/>
       <use xlink:href="#DejaVuSans-30" x="127.246094"/>
      </g>
     </g>
    </g>
    <g id="xtick_15">
     <g id="line2d_33">
      <g>
       <use xlink:href="#mfab1ca45ca" x="360.591649" y="307.872" style="stroke: #000000; stroke-width: 0.8"/>
      </g>
     </g>
     <g id="text_33">
      <!-- 200 -->
      <g transform="translate(351.047899 322.470437) scale(0.1 -0.1)">
       <use xlink:href="#DejaVuSans-32"/>
       <use xlink:href="#DejaVuSans-30" x="63.623047"/>
       <use xlink:href="#DejaVuSans-30" x="127.246094"/>
      </g>
     </g>
    </g>
    <g id="xtick_16">
     <g id="line2d_34">
      <g>
       <use xlink:href="#mfab1ca45ca" x="412.009854" y="307.872" style="stroke: #000000; stroke-width: 0.8"/>
      </g>
     </g>
     <g id="text_34">
      <!-- 300 -->
      <g transform="translate(402.466104 322.470437) scale(0.1 -0.1)">
       <use xlink:href="#DejaVuSans-33"/>
       <use xlink:href="#DejaVuSans-30" x="63.623047"/>
       <use xlink:href="#DejaVuSans-30" x="127.246094"/>
      </g>
     </g>
    </g>
   </g>
   <g id="matplotlib.axis_8">
    <g id="ytick_16">
     <g id="line2d_35">
      <g>
       <use xlink:href="#m7ed3215d95" x="250.376727" y="302.832" style="stroke: #000000; stroke-width: 0.8"/>
      </g>
     </g>
     <g id="text_35">
      <!-- 0 -->
      <g transform="translate(237.014227 306.631219) scale(0.1 -0.1)">
       <use xlink:href="#DejaVuSans-30"/>
      </g>
     </g>
    </g>
    <g id="ytick_17">
     <g id="line2d_36">
      <g>
       <use xlink:href="#m7ed3215d95" x="250.376727" y="278.321595" style="stroke: #000000; stroke-width: 0.8"/>
      </g>
     </g>
     <g id="text_36">
      <!-- 10 -->
      <g transform="translate(230.651727 282.120814) scale(0.1 -0.1)">
       <use xlink:href="#DejaVuSans-31"/>
       <use xlink:href="#DejaVuSans-30" x="63.623047"/>
      </g>
     </g>
    </g>
    <g id="ytick_18">
     <g id="line2d_37">
      <g>
       <use xlink:href="#m7ed3215d95" x="250.376727" y="253.811191" style="stroke: #000000; stroke-width: 0.8"/>
      </g>
     </g>
     <g id="text_37">
      <!-- 20 -->
      <g transform="translate(230.651727 257.610409) scale(0.1 -0.1)">
       <use xlink:href="#DejaVuSans-32"/>
       <use xlink:href="#DejaVuSans-30" x="63.623047"/>
      </g>
     </g>
    </g>
    <g id="ytick_19">
     <g id="line2d_38">
      <g>
       <use xlink:href="#m7ed3215d95" x="250.376727" y="229.300786" style="stroke: #000000; stroke-width: 0.8"/>
      </g>
     </g>
     <g id="text_38">
      <!-- 30 -->
      <g transform="translate(230.651727 233.100005) scale(0.1 -0.1)">
       <use xlink:href="#DejaVuSans-33"/>
       <use xlink:href="#DejaVuSans-30" x="63.623047"/>
      </g>
     </g>
    </g>
    <g id="ytick_20">
     <g id="line2d_39">
      <g>
       <use xlink:href="#m7ed3215d95" x="250.376727" y="204.790381" style="stroke: #000000; stroke-width: 0.8"/>
      </g>
     </g>
     <g id="text_39">
      <!-- 40 -->
      <g transform="translate(230.651727 208.5896) scale(0.1 -0.1)">
       <use xlink:href="#DejaVuSans-34"/>
       <use xlink:href="#DejaVuSans-30" x="63.623047"/>
      </g>
     </g>
    </g>
   </g>
   <g id="line2d_40">
    <path d="M 257.75524 202.032 
L 258.269422 202.814176 
L 258.783604 223.482572 
L 259.297786 249.093702 
L 259.811968 265.309355 
L 260.32615 263.781413 
L 260.840332 269.164704 
L 261.354514 269.658211 
L 261.868696 271.685565 
L 262.382878 275.577673 
L 263.411242 271.060302 
L 263.925424 270.987156 
L 264.439606 278.911227 
L 264.953788 279.36053 
L 265.46797 281.549013 
L 265.982152 292.517566 
L 266.496334 273.074967 
L 267.010517 287.879391 
L 267.524699 287.412813 
L 268.038881 286.562655 
L 268.553063 275.352709 
L 269.067245 268.05614 
L 269.581427 266.468751 
L 270.095609 253.77195 
L 270.609791 249.41237 
L 271.123973 250.260177 
L 271.638155 252.048748 
L 272.152337 261.421005 
L 272.666519 263.491769 
L 273.180701 262.578803 
L 273.694883 265.207227 
L 274.209065 264.802173 
L 274.723247 261.832532 
L 275.237429 260.163628 
L 275.751611 259.488749 
L 276.779975 264.858214 
L 277.294158 268.509264 
L 277.80834 271.119951 
L 278.322522 263.665165 
L 278.836704 269.262381 
L 279.350886 267.252405 
L 279.865068 269.569337 
L 280.37925 273.931547 
L 280.893432 274.154657 
L 281.407614 270.978582 
L 281.921796 279.301394 
L 282.435978 264.979406 
L 282.95016 266.211117 
L 283.464342 260.723409 
L 283.978524 257.814931 
L 284.492706 262.116531 
L 285.006888 271.233032 
L 285.52107 270.624581 
L 286.035252 272.232819 
L 286.549434 263.45116 
L 287.063616 261.745211 
L 287.577798 265.294144 
L 288.091981 263.028799 
L 288.606163 264.595509 
L 289.120345 262.880575 
L 289.634527 262.508021 
L 290.148709 257.546755 
L 290.662891 268.901509 
L 291.177073 258.95039 
L 291.691255 264.065792 
L 292.205437 256.80309 
L 292.719619 266.700342 
L 293.233801 264.862383 
L 293.747983 267.338069 
L 294.262165 265.505531 
L 294.776347 276.022311 
L 295.290529 277.78831 
L 296.318893 279.843738 
L 296.833075 284.218446 
L 297.347257 283.46804 
L 297.861439 286.066976 
L 298.375622 281.631975 
L 298.889804 274.549518 
L 299.403986 277.780043 
L 299.918168 277.141581 
L 300.43235 275.428272 
L 300.946532 278.994634 
L 301.460714 279.5291 
L 301.974896 296.080393 
L 302.489078 298.833598 
L 303.517442 278.527836 
L 304.031624 280.855542 
L 304.545806 278.841069 
L 305.059988 280.623159 
L 305.57417 281.934022 
L 306.088352 279.989497 
L 306.602534 287.65014 
L 307.116716 284.866214 
L 307.630898 284.915455 
L 308.659262 280.768795 
L 309.173445 275.999007 
L 309.687627 275.884386 
L 310.201809 273.558515 
L 311.230173 283.284661 
L 311.744355 281.398548 
L 312.258537 278.67016 
L 312.772719 281.692683 
L 313.286901 302.832 
L 314.315265 302.832 
L 314.829447 295.723816 
L 315.343629 302.832 
L 317.400357 302.832 
L 317.914539 291.707722 
L 318.428721 288.013085 
L 318.942903 285.147581 
L 319.457085 273.418571 
L 319.971268 272.508566 
L 320.48545 274.063692 
L 321.513814 292.319134 
L 322.027996 291.801166 
L 323.05636 288.344647 
L 323.570542 287.693342 
L 324.084724 284.93986 
L 324.598906 283.246393 
L 325.113088 280.047167 
L 325.62727 283.550574 
L 326.141452 282.560162 
L 326.655634 287.121242 
L 327.169816 283.177739 
L 327.683998 291.448348 
L 328.19818 283.639238 
L 329.226544 292.231588 
L 330.254909 282.287852 
L 330.769091 284.714394 
L 331.283273 282.390688 
L 331.797455 284.058376 
L 332.311637 284.229164 
L 332.825819 277.746542 
L 333.340001 277.232623 
L 333.854183 281.557131 
L 334.368365 287.918696 
L 334.882547 289.987183 
L 335.396729 294.739613 
L 335.910911 292.660003 
L 336.425093 294.198112 
L 336.939275 293.896131 
L 337.453457 288.340917 
L 337.967639 296.003833 
L 338.481821 299.455206 
L 338.996003 298.746552 
L 339.510185 301.536397 
L 340.024367 294.326865 
L 340.538549 284.165295 
L 341.052732 276.607539 
L 341.566914 286.652231 
L 342.081096 281.96656 
L 342.595278 281.568202 
L 343.10946 277.755429 
L 343.623642 287.273227 
L 344.137824 286.532897 
L 344.652006 287.139191 
L 346.708734 268.279369 
L 347.737098 270.309394 
L 348.25128 266.926309 
L 348.765462 271.11012 
L 349.279644 278.669224 
L 349.793826 280.308068 
L 350.308008 279.228929 
L 350.82219 277.39519 
L 351.336373 277.142775 
L 351.850555 271.925885 
L 352.364737 271.533037 
L 352.878919 277.827613 
L 353.393101 285.537414 
L 353.907283 287.488847 
L 354.421465 287.119943 
L 355.449829 276.965182 
L 355.964011 299.669981 
L 356.478193 287.906254 
L 357.506557 277.763594 
L 358.020739 273.670729 
L 358.534921 274.340211 
L 359.049103 277.59234 
L 359.563285 274.924144 
L 360.077467 274.907818 
L 361.105831 273.275658 
L 361.620013 271.293021 
L 362.134196 273.437446 
L 362.648378 274.166422 
L 363.16256 286.869293 
L 363.676742 273.818919 
L 364.190924 277.878945 
L 364.705106 283.201212 
L 365.219288 276.707933 
L 365.73347 279.789095 
L 366.247652 280.659582 
L 366.761834 279.043123 
L 367.276016 285.040115 
L 367.790198 276.547535 
L 368.30438 279.575616 
L 368.818562 273.754792 
L 369.332744 275.264587 
L 369.846926 272.924843 
L 370.361108 273.355513 
L 370.87529 271.962594 
L 371.389472 273.874003 
L 371.903654 276.478744 
L 372.417836 276.428333 
L 372.932019 275.440336 
L 373.960383 279.712068 
L 374.474565 278.790918 
L 374.988747 281.381055 
L 375.502929 291.553192 
L 376.017111 276.77141 
L 376.531293 289.890737 
L 377.045475 276.551564 
L 377.559657 279.502455 
L 378.073839 271.899727 
L 378.588021 272.935061 
L 379.102203 271.569508 
L 379.616385 272.2892 
L 380.130567 278.831059 
L 380.644749 263.46644 
L 381.158931 263.76905 
L 381.673113 258.664766 
L 382.701477 254.080683 
L 383.21566 255.941657 
L 383.729842 257.251733 
L 384.244024 263.264042 
L 384.758206 263.760412 
L 385.272388 264.010948 
L 385.78657 261.033409 
L 386.300752 256.944174 
L 386.814934 249.389269 
L 387.329116 263.005401 
L 387.843298 267.980996 
L 388.35748 274.767886 
L 388.871662 275.581874 
L 389.385844 270.755177 
L 389.900026 268.718161 
L 390.414208 271.080778 
L 390.92839 281.811377 
L 391.442572 278.66166 
L 391.956754 282.709676 
L 392.470936 276.934623 
L 392.985118 272.645689 
L 393.4993 278.328294 
L 394.013483 286.980528 
L 394.527665 282.551412 
L 395.041847 270.631814 
L 395.556029 266.052454 
L 396.070211 273.828341 
L 396.584393 277.447172 
L 397.098575 279.131831 
L 397.612757 275.285979 
L 398.126939 283.667376 
L 398.641121 286.409428 
L 399.155303 288.069403 
L 400.183667 302.832 
L 400.697849 302.832 
L 401.212031 299.738076 
L 401.726213 298.634419 
L 402.754577 280.887033 
L 403.268759 284.208992 
L 403.782941 290.842652 
L 404.297124 293.579021 
L 404.811306 294.726463 
L 405.325488 291.426814 
L 405.325488 291.426814 
" clip-path="url(#p73c78fc217)" style="fill: none; stroke: #ff0000; stroke-width: 1.5; stroke-linecap: square"/>
   </g>
   <g id="patch_18">
    <path d="M 250.376727 307.872 
L 250.376727 196.992 
" style="fill: none; stroke: #000000; stroke-width: 0.8; stroke-linejoin: miter; stroke-linecap: square"/>
   </g>
   <g id="patch_19">
    <path d="M 412.704 307.872 
L 412.704 196.992 
" style="fill: none; stroke: #000000; stroke-width: 0.8; stroke-linejoin: miter; stroke-linecap: square"/>
   </g>
   <g id="patch_20">
    <path d="M 250.376727 307.872 
L 412.704 307.872 
" style="fill: none; stroke: #000000; stroke-width: 0.8; stroke-linejoin: miter; stroke-linecap: square"/>
   </g>
   <g id="patch_21">
    <path d="M 250.376727 196.992 
L 412.704 196.992 
" style="fill: none; stroke: #000000; stroke-width: 0.8; stroke-linejoin: miter; stroke-linecap: square"/>
   </g>
   <g id="text_40">
    <!-- VRNN -->
    <g transform="translate(314.289426 190.992) scale(0.12 -0.12)">
     <use xlink:href="#DejaVuSans-56"/>
     <use xlink:href="#DejaVuSans-52" x="68.408203"/>
     <use xlink:href="#DejaVuSans-4e" x="137.890625"/>
     <use xlink:href="#DejaVuSans-4e" x="212.695312"/>
    </g>
   </g>
  </g>
  <g id="text_41">
   <!-- VMAF Scores Over Frames: Video #24 -->
   <g transform="translate(114.338063 16.318125) scale(0.12 -0.12)">
    <defs>
     <path id="DejaVuSans-4d" d="M 628 4666 
L 1569 4666 
L 2759 1491 
L 3956 4666 
L 4897 4666 
L 4897 0 
L 4281 0 
L 4281 4097 
L 3078 897 
L 2444 897 
L 1241 4097 
L 1241 0 
L 628 0 
L 628 4666 
z
" transform="scale(0.015625)"/>
     <path id="DejaVuSans-73" d="M 2834 3397 
L 2834 2853 
Q 2591 2978 2328 3040 
Q 2066 3103 1784 3103 
Q 1356 3103 1142 2972 
Q 928 2841 928 2578 
Q 928 2378 1081 2264 
Q 1234 2150 1697 2047 
L 1894 2003 
Q 2506 1872 2764 1633 
Q 3022 1394 3022 966 
Q 3022 478 2636 193 
Q 2250 -91 1575 -91 
Q 1294 -91 989 -36 
Q 684 19 347 128 
L 347 722 
Q 666 556 975 473 
Q 1284 391 1588 391 
Q 1994 391 2212 530 
Q 2431 669 2431 922 
Q 2431 1156 2273 1281 
Q 2116 1406 1581 1522 
L 1381 1569 
Q 847 1681 609 1914 
Q 372 2147 372 2553 
Q 372 3047 722 3315 
Q 1072 3584 1716 3584 
Q 2034 3584 2315 3537 
Q 2597 3491 2834 3397 
z
" transform="scale(0.015625)"/>
     <path id="DejaVuSans-76" d="M 191 3500 
L 800 3500 
L 1894 563 
L 2988 3500 
L 3597 3500 
L 2284 0 
L 1503 0 
L 191 3500 
z
" transform="scale(0.015625)"/>
     <path id="DejaVuSans-61" d="M 2194 1759 
Q 1497 1759 1228 1600 
Q 959 1441 959 1056 
Q 959 750 1161 570 
Q 1363 391 1709 391 
Q 2188 391 2477 730 
Q 2766 1069 2766 1631 
L 2766 1759 
L 2194 1759 
z
M 3341 1997 
L 3341 0 
L 2766 0 
L 2766 531 
Q 2569 213 2275 61 
Q 1981 -91 1556 -91 
Q 1019 -91 701 211 
Q 384 513 384 1019 
Q 384 1609 779 1909 
Q 1175 2209 1959 2209 
L 2766 2209 
L 2766 2266 
Q 2766 2663 2505 2880 
Q 2244 3097 1772 3097 
Q 1472 3097 1187 3025 
Q 903 2953 641 2809 
L 641 3341 
Q 956 3463 1253 3523 
Q 1550 3584 1831 3584 
Q 2591 3584 2966 3190 
Q 3341 2797 3341 1997 
z
" transform="scale(0.015625)"/>
     <path id="DejaVuSans-6d" d="M 3328 2828 
Q 3544 3216 3844 3400 
Q 4144 3584 4550 3584 
Q 5097 3584 5394 3201 
Q 5691 2819 5691 2113 
L 5691 0 
L 5113 0 
L 5113 2094 
Q 5113 2597 4934 2840 
Q 4756 3084 4391 3084 
Q 3944 3084 3684 2787 
Q 3425 2491 3425 1978 
L 3425 0 
L 2847 0 
L 2847 2094 
Q 2847 2600 2669 2842 
Q 2491 3084 2119 3084 
Q 1678 3084 1418 2786 
Q 1159 2488 1159 1978 
L 1159 0 
L 581 0 
L 581 3500 
L 1159 3500 
L 1159 2956 
Q 1356 3278 1631 3431 
Q 1906 3584 2284 3584 
Q 2666 3584 2933 3390 
Q 3200 3197 3328 2828 
z
" transform="scale(0.015625)"/>
     <path id="DejaVuSans-3a" d="M 750 794 
L 1409 794 
L 1409 0 
L 750 0 
L 750 794 
z
M 750 3309 
L 1409 3309 
L 1409 2516 
L 750 2516 
L 750 3309 
z
" transform="scale(0.015625)"/>
     <path id="DejaVuSans-23" d="M 3272 2816 
L 2363 2816 
L 2100 1772 
L 3016 1772 
L 3272 2816 
z
M 2803 4594 
L 2478 3297 
L 3391 3297 
L 3719 4594 
L 4219 4594 
L 3897 3297 
L 4872 3297 
L 4872 2816 
L 3775 2816 
L 3519 1772 
L 4513 1772 
L 4513 1294 
L 3397 1294 
L 3072 0 
L 2572 0 
L 2894 1294 
L 1978 1294 
L 1656 0 
L 1153 0 
L 1478 1294 
L 494 1294 
L 494 1772 
L 1594 1772 
L 1856 2816 
L 850 2816 
L 850 3297 
L 1978 3297 
L 2297 4594 
L 2803 4594 
z
" transform="scale(0.015625)"/>
    </defs>
    <use xlink:href="#DejaVuSans-56"/>
    <use xlink:href="#DejaVuSans-4d" x="68.408203"/>
    <use xlink:href="#DejaVuSans-41" x="154.6875"/>
    <use xlink:href="#DejaVuSans-46" x="223.095703"/>
    <use xlink:href="#DejaVuSans-20" x="280.615234"/>
    <use xlink:href="#DejaVuSans-53" x="312.402344"/>
    <use xlink:href="#DejaVuSans-63" x="375.878906"/>
    <use xlink:href="#DejaVuSans-6f" x="430.859375"/>
    <use xlink:href="#DejaVuSans-72" x="492.041016"/>
    <use xlink:href="#DejaVuSans-65" x="530.904297"/>
    <use xlink:href="#DejaVuSans-73" x="592.427734"/>
    <use xlink:href="#DejaVuSans-20" x="644.527344"/>
    <use xlink:href="#DejaVuSans-4f" x="676.314453"/>
    <use xlink:href="#DejaVuSans-76" x="755.025391"/>
    <use xlink:href="#DejaVuSans-65" x="814.205078"/>
    <use xlink:href="#DejaVuSans-72" x="875.728516"/>
    <use xlink:href="#DejaVuSans-20" x="916.841797"/>
    <use xlink:href="#DejaVuSans-46" x="948.628906"/>
    <use xlink:href="#DejaVuSans-72" x="998.898438"/>
    <use xlink:href="#DejaVuSans-61" x="1040.011719"/>
    <use xlink:href="#DejaVuSans-6d" x="1101.291016"/>
    <use xlink:href="#DejaVuSans-65" x="1198.703125"/>
    <use xlink:href="#DejaVuSans-73" x="1260.226562"/>
    <use xlink:href="#DejaVuSans-3a" x="1312.326172"/>
    <use xlink:href="#DejaVuSans-20" x="1346.017578"/>
    <use xlink:href="#DejaVuSans-56" x="1377.804688"/>
    <use xlink:href="#DejaVuSans-69" x="1443.962891"/>
    <use xlink:href="#DejaVuSans-64" x="1471.746094"/>
    <use xlink:href="#DejaVuSans-65" x="1535.222656"/>
    <use xlink:href="#DejaVuSans-6f" x="1596.746094"/>
    <use xlink:href="#DejaVuSans-20" x="1657.927734"/>
    <use xlink:href="#DejaVuSans-23" x="1689.714844"/>
    <use xlink:href="#DejaVuSans-32" x="1773.503906"/>
    <use xlink:href="#DejaVuSans-34" x="1837.126953"/>
   </g>
  </g>
  <g id="text_42">
   <!-- Video Frames -->
   <g transform="translate(187.847438 339.936375) scale(0.12 -0.12)">
    <use xlink:href="#DejaVuSans-56"/>
    <use xlink:href="#DejaVuSans-69" x="66.158203"/>
    <use xlink:href="#DejaVuSans-64" x="93.941406"/>
    <use xlink:href="#DejaVuSans-65" x="157.417969"/>
    <use xlink:href="#DejaVuSans-6f" x="218.941406"/>
    <use xlink:href="#DejaVuSans-20" x="280.123047"/>
    <use xlink:href="#DejaVuSans-46" x="311.910156"/>
    <use xlink:href="#DejaVuSans-72" x="362.179688"/>
    <use xlink:href="#DejaVuSans-61" x="403.292969"/>
    <use xlink:href="#DejaVuSans-6d" x="464.572266"/>
    <use xlink:href="#DejaVuSans-65" x="561.984375"/>
    <use xlink:href="#DejaVuSans-73" x="623.507812"/>
   </g>
  </g>
  <g id="text_43">
   <!-- Raw VMAF Scores -->
   <g transform="translate(16.318125 226.284562) rotate(-90) scale(0.12 -0.12)">
    <defs>
     <path id="DejaVuSans-77" d="M 269 3500 
L 844 3500 
L 1563 769 
L 2278 3500 
L 2956 3500 
L 3675 769 
L 4391 3500 
L 4966 3500 
L 4050 0 
L 3372 0 
L 2619 2869 
L 1863 0 
L 1184 0 
L 269 3500 
z
" transform="scale(0.015625)"/>
    </defs>
    <use xlink:href="#DejaVuSans-52"/>
    <use xlink:href="#DejaVuSans-61" x="67.232422"/>
    <use xlink:href="#DejaVuSans-77" x="128.511719"/>
    <use xlink:href="#DejaVuSans-20" x="210.298828"/>
    <use xlink:href="#DejaVuSans-56" x="242.085938"/>
    <use xlink:href="#DejaVuSans-4d" x="310.494141"/>
    <use xlink:href="#DejaVuSans-41" x="396.773438"/>
    <use xlink:href="#DejaVuSans-46" x="465.181641"/>
    <use xlink:href="#DejaVuSans-20" x="522.701172"/>
    <use xlink:href="#DejaVuSans-53" x="554.488281"/>
    <use xlink:href="#DejaVuSans-63" x="617.964844"/>
    <use xlink:href="#DejaVuSans-6f" x="672.945312"/>
    <use xlink:href="#DejaVuSans-72" x="734.126953"/>
    <use xlink:href="#DejaVuSans-65" x="772.990234"/>
    <use xlink:href="#DejaVuSans-73" x="834.513672"/>
   </g>
  </g>
 </g>
 <defs>
  <clipPath id="pf9411485b8">
   <rect x="55.584" y="41.76" width="162.327273" height="110.88"/>
  </clipPath>
  <clipPath id="p4150a85317">
   <rect x="250.376727" y="41.76" width="162.327273" height="110.88"/>
  </clipPath>
  <clipPath id="p30a5577366">
   <rect x="55.584" y="196.992" width="162.327273" height="110.88"/>
  </clipPath>
  <clipPath id="p73c78fc217">
   <rect x="250.376727" y="196.992" width="162.327273" height="110.88"/>
  </clipPath>
 </defs>
</svg>
