<?xml version="1.0" encoding="utf-8" standalone="no"?>
<!DOCTYPE svg PUBLIC "-//W3C//DTD SVG 1.1//EN"
  "http://www.w3.org/Graphics/SVG/1.1/DTD/svg11.dtd">
<svg xmlns:xlink="http://www.w3.org/1999/xlink" width="419.904pt" height="349.632pt" viewBox="0 0 419.904 349.632" xmlns="http://www.w3.org/2000/svg" version="1.1">
 <metadata>
  <rdf:RDF xmlns:dc="http://purl.org/dc/elements/1.1/" xmlns:cc="http://creativecommons.org/ns#" xmlns:rdf="http://www.w3.org/1999/02/22-rdf-syntax-ns#">
   <cc:Work>
    <dc:type rdf:resource="http://purl.org/dc/dcmitype/StillImage"/>
    <dc:date>2024-07-24T16:31:56.954985</dc:date>
    <dc:format>image/svg+xml</dc:format>
    <dc:creator>
     <cc:Agent>
      <dc:title>Matplotlib v3.7.2, https://matplotlib.org/</dc:title>
     </cc:Agent>
    </dc:creator>
   </cc:Work>
  </rdf:RDF>
 </metadata>
 <defs>
  <style type="text/css">*{stroke-linejoin: round; stroke-linecap: butt}</style>
 </defs>
 <g id="figure_1">
  <g id="patch_1">
   <path d="M 0 349.632 
L 419.904 349.632 
L 419.904 -0 
L 0 -0 
z
" style="fill: #ffffff"/>
  </g>
  <g id="axes_1">
   <g id="patch_2">
    <path d="M 55.584 152.64 
L 217.911273 152.64 
L 217.911273 41.76 
L 55.584 41.76 
z
" style="fill: #ffffff"/>
   </g>
   <g id="matplotlib.axis_1">
    <g id="xtick_1">
     <g id="line2d_1">
      <defs>
       <path id="m8eed9b4940" d="M 0 0 
L 0 3.5 
" style="stroke: #000000; stroke-width: 0.8"/>
      </defs>
      <g>
       <use xlink:href="#m8eed9b4940" x="62.962512" y="152.64" style="stroke: #000000; stroke-width: 0.8"/>
      </g>
     </g>
     <g id="text_1">
      <!-- 0 -->
      <g transform="translate(59.781262 167.238437) scale(0.1 -0.1)">
       <defs>
        <path id="DejaVuSans-30" d="M 2034 4250 
Q 1547 4250 1301 3770 
Q 1056 3291 1056 2328 
Q 1056 1369 1301 889 
Q 1547 409 2034 409 
Q 2525 409 2770 889 
Q 3016 1369 3016 2328 
Q 3016 3291 2770 3770 
Q 2525 4250 2034 4250 
z
M 2034 4750 
Q 2819 4750 3233 4129 
Q 3647 3509 3647 2328 
Q 3647 1150 3233 529 
Q 2819 -91 2034 -91 
Q 1250 -91 836 529 
Q 422 1150 422 2328 
Q 422 3509 836 4129 
Q 1250 4750 2034 4750 
z
" transform="scale(0.015625)"/>
       </defs>
       <use xlink:href="#DejaVuSans-30"/>
      </g>
     </g>
    </g>
    <g id="xtick_2">
     <g id="line2d_2">
      <g>
       <use xlink:href="#m8eed9b4940" x="124.707386" y="152.64" style="stroke: #000000; stroke-width: 0.8"/>
      </g>
     </g>
     <g id="text_2">
      <!-- 100 -->
      <g transform="translate(115.163636 167.238437) scale(0.1 -0.1)">
       <defs>
        <path id="DejaVuSans-31" d="M 794 531 
L 1825 531 
L 1825 4091 
L 703 3866 
L 703 4441 
L 1819 4666 
L 2450 4666 
L 2450 531 
L 3481 531 
L 3481 0 
L 794 0 
L 794 531 
z
" transform="scale(0.015625)"/>
       </defs>
       <use xlink:href="#DejaVuSans-31"/>
       <use xlink:href="#DejaVuSans-30" x="63.623047"/>
       <use xlink:href="#DejaVuSans-30" x="127.246094"/>
      </g>
     </g>
    </g>
    <g id="xtick_3">
     <g id="line2d_3">
      <g>
       <use xlink:href="#m8eed9b4940" x="186.45226" y="152.64" style="stroke: #000000; stroke-width: 0.8"/>
      </g>
     </g>
     <g id="text_3">
      <!-- 200 -->
      <g transform="translate(176.90851 167.238437) scale(0.1 -0.1)">
       <defs>
        <path id="DejaVuSans-32" d="M 1228 531 
L 3431 531 
L 3431 0 
L 469 0 
L 469 531 
Q 828 903 1448 1529 
Q 2069 2156 2228 2338 
Q 2531 2678 2651 2914 
Q 2772 3150 2772 3378 
Q 2772 3750 2511 3984 
Q 2250 4219 1831 4219 
Q 1534 4219 1204 4116 
Q 875 4013 500 3803 
L 500 4441 
Q 881 4594 1212 4672 
Q 1544 4750 1819 4750 
Q 2544 4750 2975 4387 
Q 3406 4025 3406 3419 
Q 3406 3131 3298 2873 
Q 3191 2616 2906 2266 
Q 2828 2175 2409 1742 
Q 1991 1309 1228 531 
z
" transform="scale(0.015625)"/>
       </defs>
       <use xlink:href="#DejaVuSans-32"/>
       <use xlink:href="#DejaVuSans-30" x="63.623047"/>
       <use xlink:href="#DejaVuSans-30" x="127.246094"/>
      </g>
     </g>
    </g>
   </g>
   <g id="matplotlib.axis_2">
    <g id="ytick_1">
     <g id="line2d_4">
      <defs>
       <path id="m648ed08de0" d="M 0 0 
L -3.5 0 
" style="stroke: #000000; stroke-width: 0.8"/>
      </defs>
      <g>
       <use xlink:href="#m648ed08de0" x="55.584" y="147.6" style="stroke: #000000; stroke-width: 0.8"/>
      </g>
     </g>
     <g id="text_4">
      <!-- 0 -->
      <g transform="translate(42.2215 151.399219) scale(0.1 -0.1)">
       <use xlink:href="#DejaVuSans-30"/>
      </g>
     </g>
    </g>
    <g id="ytick_2">
     <g id="line2d_5">
      <g>
       <use xlink:href="#m648ed08de0" x="55.584" y="103.26513" style="stroke: #000000; stroke-width: 0.8"/>
      </g>
     </g>
     <g id="text_5">
      <!-- 20 -->
      <g transform="translate(35.859 107.064349) scale(0.1 -0.1)">
       <use xlink:href="#DejaVuSans-32"/>
       <use xlink:href="#DejaVuSans-30" x="63.623047"/>
      </g>
     </g>
    </g>
    <g id="ytick_3">
     <g id="line2d_6">
      <g>
       <use xlink:href="#m648ed08de0" x="55.584" y="58.93026" style="stroke: #000000; stroke-width: 0.8"/>
      </g>
     </g>
     <g id="text_6">
      <!-- 40 -->
      <g transform="translate(35.859 62.729479) scale(0.1 -0.1)">
       <defs>
        <path id="DejaVuSans-34" d="M 2419 4116 
L 825 1625 
L 2419 1625 
L 2419 4116 
z
M 2253 4666 
L 3047 4666 
L 3047 1625 
L 3713 1625 
L 3713 1100 
L 3047 1100 
L 3047 0 
L 2419 0 
L 2419 1100 
L 313 1100 
L 313 1709 
L 2253 4666 
z
" transform="scale(0.015625)"/>
       </defs>
       <use xlink:href="#DejaVuSans-34"/>
       <use xlink:href="#DejaVuSans-30" x="63.623047"/>
      </g>
     </g>
    </g>
   </g>
   <g id="line2d_7">
    <path d="M 62.962512 64.385659 
L 63.579961 57.709446 
L 64.19741 53.823224 
L 64.814859 46.8 
L 65.432307 55.09059 
L 66.049756 66.174881 
L 66.667205 81.68243 
L 67.902102 101.270959 
L 68.519551 114.882823 
L 69.754448 126.169074 
L 70.371897 121.68258 
L 70.989346 125.976048 
L 71.606795 125.509459 
L 72.841692 117.997913 
L 73.459141 116.649255 
L 74.07659 119.738839 
L 74.694038 122.257694 
L 75.311487 118.879687 
L 75.928936 117.595862 
L 76.546385 109.304182 
L 77.163833 108.907864 
L 77.781282 106.609746 
L 78.398731 110.909395 
L 79.01618 132.784776 
L 79.633628 132.560832 
L 80.251077 128.845869 
L 80.868526 130.607375 
L 81.485974 129.909744 
L 82.103423 125.616832 
L 82.720872 130.331479 
L 83.338321 128.217107 
L 83.955769 137.242191 
L 84.573218 132.37617 
L 85.190667 136.399037 
L 85.808116 143.610562 
L 86.425564 138.384188 
L 87.043013 145.206963 
L 87.660462 135.746966 
L 88.277911 138.634682 
L 88.895359 138.46789 
L 89.512808 146.294529 
L 90.130257 147.6 
L 96.922193 147.6 
L 98.15709 140.248944 
L 98.774539 130.903654 
L 99.391988 126.217999 
L 100.009437 125.952706 
L 100.626885 129.555854 
L 101.244334 122.434883 
L 101.861783 120.321406 
L 102.479232 121.801723 
L 103.09668 126.416265 
L 103.714129 128.016993 
L 104.331578 121.868177 
L 105.566475 114.00335 
L 106.183924 126.60557 
L 106.801373 131.951715 
L 107.418821 131.319936 
L 108.03627 128.461164 
L 108.653719 129.396295 
L 109.271168 125.71692 
L 109.888616 123.371244 
L 110.506065 124.374784 
L 111.123514 121.911891 
L 111.740963 130.32073 
L 112.358411 133.759201 
L 112.97586 130.692243 
L 113.593309 132.545237 
L 114.210757 135.840198 
L 114.828206 135.914439 
L 115.445655 139.26207 
L 116.063104 135.20135 
L 116.680552 124.13745 
L 117.298001 124.92631 
L 117.91545 123.820008 
L 118.532899 120.681594 
L 119.150347 119.283001 
L 119.767796 127.418162 
L 120.385245 142.538119 
L 121.002694 141.58265 
L 121.620142 140.387617 
L 122.237591 138.017716 
L 122.85504 137.248947 
L 123.472489 125.647968 
L 124.089937 132.836938 
L 124.707386 141.968119 
L 125.324835 141.13714 
L 125.942283 145.334211 
L 126.559732 147.6 
L 127.79463 139.983236 
L 128.412078 145.852233 
L 129.029527 146.211004 
L 129.646976 147.6 
L 130.264425 147.6 
L 130.881873 147.173855 
L 131.499322 145.684375 
L 132.116771 145.048052 
L 132.73422 140.414736 
L 133.351668 143.070218 
L 133.969117 142.41916 
L 134.586566 142.478165 
L 135.204015 141.762938 
L 135.821463 146.260746 
L 136.438912 147.319039 
L 137.056361 144.905843 
L 137.673809 146.546595 
L 138.291258 144.901387 
L 138.908707 144.610196 
L 139.526156 142.503791 
L 140.143604 143.212439 
L 140.761053 142.027184 
L 141.378502 144.556702 
L 142.613399 137.398158 
L 143.230848 136.378771 
L 143.848297 133.547812 
L 144.465746 133.044578 
L 145.083194 140.417314 
L 145.700643 140.219729 
L 146.318092 145.718827 
L 146.935541 146.369344 
L 147.552989 144.763892 
L 148.170438 147.6 
L 148.787887 147.6 
L 149.405335 142.66026 
L 150.022784 142.943393 
L 151.257682 132.110769 
L 151.87513 136.86162 
L 152.492579 137.371316 
L 153.110028 135.514427 
L 153.727477 132.819823 
L 154.344925 136.432443 
L 154.962374 129.995751 
L 155.579823 128.402498 
L 156.197272 140.404923 
L 156.81472 144.629295 
L 157.432169 142.881921 
L 158.049618 145.281466 
L 158.667066 145.049927 
L 159.284515 146.038537 
L 159.901964 143.433152 
L 160.519413 144.589979 
L 161.75431 136.840468 
L 162.371759 141.641433 
L 162.989208 141.892958 
L 163.606656 139.230802 
L 164.841554 147.6 
L 165.459003 147.6 
L 166.076451 146.700095 
L 166.6939 140.450685 
L 167.311349 141.473504 
L 167.928798 137.748827 
L 168.546246 139.456174 
L 169.163695 136.432467 
L 169.781144 134.534982 
L 170.398592 137.814048 
L 171.016041 147.6 
L 171.63349 147.6 
L 172.250939 145.706866 
L 172.868387 134.780705 
L 173.485836 139.56812 
L 174.103285 142.773203 
L 174.720734 144.977176 
L 175.955631 143.748413 
L 176.57308 138.901405 
L 177.190529 137.045663 
L 177.807977 137.438044 
L 178.425426 135.082938 
L 179.042875 133.219672 
L 179.660324 133.742853 
L 180.277772 141.828249 
L 180.895221 147.6 
L 181.51267 142.432454 
L 182.130118 132.047283 
L 182.747567 131.733749 
L 183.365016 130.546801 
L 183.982465 116.637551 
L 184.599913 128.376185 
L 185.217362 137.594804 
L 186.45226 126.749326 
L 187.069708 128.930041 
L 187.687157 132.117669 
L 188.304606 126.122121 
L 188.922055 121.417963 
L 189.539503 106.970268 
L 190.156952 114.293096 
L 190.774401 118.576818 
L 191.39185 126.872628 
L 192.009298 127.590999 
L 192.626747 131.586801 
L 193.244196 133.401864 
L 193.861644 141.236235 
L 194.479093 128.493039 
L 195.096542 128.466283 
L 195.713991 130.365857 
L 196.331439 129.621199 
L 196.948888 133.166267 
L 197.566337 135.394533 
L 198.183786 135.295338 
L 199.418683 138.04879 
L 200.036132 141.797439 
L 200.653581 139.449826 
L 201.271029 128.860147 
L 201.888478 133.238612 
L 202.505927 132.761527 
L 203.123375 130.762275 
L 203.740824 126.757056 
L 204.358273 131.376357 
L 204.975722 139.769912 
L 205.59317 135.796528 
L 206.210619 130.579919 
L 206.828068 138.02982 
L 207.445517 138.493436 
L 208.062965 134.842107 
L 208.680414 129.295132 
L 209.297863 126.704575 
L 209.915312 131.612083 
L 210.53276 131.682143 
L 210.53276 131.682143 
" clip-path="url(#p494a422f7e)" style="fill: none; stroke: #008000; stroke-width: 1.5; stroke-linecap: square"/>
   </g>
   <g id="patch_3">
    <path d="M 55.584 152.64 
L 55.584 41.76 
" style="fill: none; stroke: #000000; stroke-width: 0.8; stroke-linejoin: miter; stroke-linecap: square"/>
   </g>
   <g id="patch_4">
    <path d="M 217.911273 152.64 
L 217.911273 41.76 
" style="fill: none; stroke: #000000; stroke-width: 0.8; stroke-linejoin: miter; stroke-linecap: square"/>
   </g>
   <g id="patch_5">
    <path d="M 55.584 152.64 
L 217.911273 152.64 
" style="fill: none; stroke: #000000; stroke-width: 0.8; stroke-linejoin: miter; stroke-linecap: square"/>
   </g>
   <g id="patch_6">
    <path d="M 55.584 41.76 
L 217.911273 41.76 
" style="fill: none; stroke: #000000; stroke-width: 0.8; stroke-linejoin: miter; stroke-linecap: square"/>
   </g>
   <g id="text_7">
    <!-- No Prediction (FOSS) -->
    <g transform="translate(74.495761 35.76) scale(0.12 -0.12)">
     <defs>
      <path id="DejaVuSans-4e" d="M 628 4666 
L 1478 4666 
L 3547 763 
L 3547 4666 
L 4159 4666 
L 4159 0 
L 3309 0 
L 1241 3903 
L 1241 0 
L 628 0 
L 628 4666 
z
" transform="scale(0.015625)"/>
      <path id="DejaVuSans-6f" d="M 1959 3097 
Q 1497 3097 1228 2736 
Q 959 2375 959 1747 
Q 959 1119 1226 758 
Q 1494 397 1959 397 
Q 2419 397 2687 759 
Q 2956 1122 2956 1747 
Q 2956 2369 2687 2733 
Q 2419 3097 1959 3097 
z
M 1959 3584 
Q 2709 3584 3137 3096 
Q 3566 2609 3566 1747 
Q 3566 888 3137 398 
Q 2709 -91 1959 -91 
Q 1206 -91 779 398 
Q 353 888 353 1747 
Q 353 2609 779 3096 
Q 1206 3584 1959 3584 
z
" transform="scale(0.015625)"/>
      <path id="DejaVuSans-20" transform="scale(0.015625)"/>
      <path id="DejaVuSans-50" d="M 1259 4147 
L 1259 2394 
L 2053 2394 
Q 2494 2394 2734 2622 
Q 2975 2850 2975 3272 
Q 2975 3691 2734 3919 
Q 2494 4147 2053 4147 
L 1259 4147 
z
M 628 4666 
L 2053 4666 
Q 2838 4666 3239 4311 
Q 3641 3956 3641 3272 
Q 3641 2581 3239 2228 
Q 2838 1875 2053 1875 
L 1259 1875 
L 1259 0 
L 628 0 
L 628 4666 
z
" transform="scale(0.015625)"/>
      <path id="DejaVuSans-72" d="M 2631 2963 
Q 2534 3019 2420 3045 
Q 2306 3072 2169 3072 
Q 1681 3072 1420 2755 
Q 1159 2438 1159 1844 
L 1159 0 
L 581 0 
L 581 3500 
L 1159 3500 
L 1159 2956 
Q 1341 3275 1631 3429 
Q 1922 3584 2338 3584 
Q 2397 3584 2469 3576 
Q 2541 3569 2628 3553 
L 2631 2963 
z
" transform="scale(0.015625)"/>
      <path id="DejaVuSans-65" d="M 3597 1894 
L 3597 1613 
L 953 1613 
Q 991 1019 1311 708 
Q 1631 397 2203 397 
Q 2534 397 2845 478 
Q 3156 559 3463 722 
L 3463 178 
Q 3153 47 2828 -22 
Q 2503 -91 2169 -91 
Q 1331 -91 842 396 
Q 353 884 353 1716 
Q 353 2575 817 3079 
Q 1281 3584 2069 3584 
Q 2775 3584 3186 3129 
Q 3597 2675 3597 1894 
z
M 3022 2063 
Q 3016 2534 2758 2815 
Q 2500 3097 2075 3097 
Q 1594 3097 1305 2825 
Q 1016 2553 972 2059 
L 3022 2063 
z
" transform="scale(0.015625)"/>
      <path id="DejaVuSans-64" d="M 2906 2969 
L 2906 4863 
L 3481 4863 
L 3481 0 
L 2906 0 
L 2906 525 
Q 2725 213 2448 61 
Q 2172 -91 1784 -91 
Q 1150 -91 751 415 
Q 353 922 353 1747 
Q 353 2572 751 3078 
Q 1150 3584 1784 3584 
Q 2172 3584 2448 3432 
Q 2725 3281 2906 2969 
z
M 947 1747 
Q 947 1113 1208 752 
Q 1469 391 1925 391 
Q 2381 391 2643 752 
Q 2906 1113 2906 1747 
Q 2906 2381 2643 2742 
Q 2381 3103 1925 3103 
Q 1469 3103 1208 2742 
Q 947 2381 947 1747 
z
" transform="scale(0.015625)"/>
      <path id="DejaVuSans-69" d="M 603 3500 
L 1178 3500 
L 1178 0 
L 603 0 
L 603 3500 
z
M 603 4863 
L 1178 4863 
L 1178 4134 
L 603 4134 
L 603 4863 
z
" transform="scale(0.015625)"/>
      <path id="DejaVuSans-63" d="M 3122 3366 
L 3122 2828 
Q 2878 2963 2633 3030 
Q 2388 3097 2138 3097 
Q 1578 3097 1268 2742 
Q 959 2388 959 1747 
Q 959 1106 1268 751 
Q 1578 397 2138 397 
Q 2388 397 2633 464 
Q 2878 531 3122 666 
L 3122 134 
Q 2881 22 2623 -34 
Q 2366 -91 2075 -91 
Q 1284 -91 818 406 
Q 353 903 353 1747 
Q 353 2603 823 3093 
Q 1294 3584 2113 3584 
Q 2378 3584 2631 3529 
Q 2884 3475 3122 3366 
z
" transform="scale(0.015625)"/>
      <path id="DejaVuSans-74" d="M 1172 4494 
L 1172 3500 
L 2356 3500 
L 2356 3053 
L 1172 3053 
L 1172 1153 
Q 1172 725 1289 603 
Q 1406 481 1766 481 
L 2356 481 
L 2356 0 
L 1766 0 
Q 1100 0 847 248 
Q 594 497 594 1153 
L 594 3053 
L 172 3053 
L 172 3500 
L 594 3500 
L 594 4494 
L 1172 4494 
z
" transform="scale(0.015625)"/>
      <path id="DejaVuSans-6e" d="M 3513 2113 
L 3513 0 
L 2938 0 
L 2938 2094 
Q 2938 2591 2744 2837 
Q 2550 3084 2163 3084 
Q 1697 3084 1428 2787 
Q 1159 2491 1159 1978 
L 1159 0 
L 581 0 
L 581 3500 
L 1159 3500 
L 1159 2956 
Q 1366 3272 1645 3428 
Q 1925 3584 2291 3584 
Q 2894 3584 3203 3211 
Q 3513 2838 3513 2113 
z
" transform="scale(0.015625)"/>
      <path id="DejaVuSans-28" d="M 1984 4856 
Q 1566 4138 1362 3434 
Q 1159 2731 1159 2009 
Q 1159 1288 1364 580 
Q 1569 -128 1984 -844 
L 1484 -844 
Q 1016 -109 783 600 
Q 550 1309 550 2009 
Q 550 2706 781 3412 
Q 1013 4119 1484 4856 
L 1984 4856 
z
" transform="scale(0.015625)"/>
      <path id="DejaVuSans-46" d="M 628 4666 
L 3309 4666 
L 3309 4134 
L 1259 4134 
L 1259 2759 
L 3109 2759 
L 3109 2228 
L 1259 2228 
L 1259 0 
L 628 0 
L 628 4666 
z
" transform="scale(0.015625)"/>
      <path id="DejaVuSans-4f" d="M 2522 4238 
Q 1834 4238 1429 3725 
Q 1025 3213 1025 2328 
Q 1025 1447 1429 934 
Q 1834 422 2522 422 
Q 3209 422 3611 934 
Q 4013 1447 4013 2328 
Q 4013 3213 3611 3725 
Q 3209 4238 2522 4238 
z
M 2522 4750 
Q 3503 4750 4090 4092 
Q 4678 3434 4678 2328 
Q 4678 1225 4090 567 
Q 3503 -91 2522 -91 
Q 1538 -91 948 565 
Q 359 1222 359 2328 
Q 359 3434 948 4092 
Q 1538 4750 2522 4750 
z
" transform="scale(0.015625)"/>
      <path id="DejaVuSans-53" d="M 3425 4513 
L 3425 3897 
Q 3066 4069 2747 4153 
Q 2428 4238 2131 4238 
Q 1616 4238 1336 4038 
Q 1056 3838 1056 3469 
Q 1056 3159 1242 3001 
Q 1428 2844 1947 2747 
L 2328 2669 
Q 3034 2534 3370 2195 
Q 3706 1856 3706 1288 
Q 3706 609 3251 259 
Q 2797 -91 1919 -91 
Q 1588 -91 1214 -16 
Q 841 59 441 206 
L 441 856 
Q 825 641 1194 531 
Q 1563 422 1919 422 
Q 2459 422 2753 634 
Q 3047 847 3047 1241 
Q 3047 1584 2836 1778 
Q 2625 1972 2144 2069 
L 1759 2144 
Q 1053 2284 737 2584 
Q 422 2884 422 3419 
Q 422 4038 858 4394 
Q 1294 4750 2059 4750 
Q 2388 4750 2728 4690 
Q 3069 4631 3425 4513 
z
" transform="scale(0.015625)"/>
      <path id="DejaVuSans-29" d="M 513 4856 
L 1013 4856 
Q 1481 4119 1714 3412 
Q 1947 2706 1947 2009 
Q 1947 1309 1714 600 
Q 1481 -109 1013 -844 
L 513 -844 
Q 928 -128 1133 580 
Q 1338 1288 1338 2009 
Q 1338 2731 1133 3434 
Q 928 4138 513 4856 
z
" transform="scale(0.015625)"/>
     </defs>
     <use xlink:href="#DejaVuSans-4e"/>
     <use xlink:href="#DejaVuSans-6f" x="74.804688"/>
     <use xlink:href="#DejaVuSans-20" x="135.986328"/>
     <use xlink:href="#DejaVuSans-50" x="167.773438"/>
     <use xlink:href="#DejaVuSans-72" x="226.326172"/>
     <use xlink:href="#DejaVuSans-65" x="265.189453"/>
     <use xlink:href="#DejaVuSans-64" x="326.712891"/>
     <use xlink:href="#DejaVuSans-69" x="390.189453"/>
     <use xlink:href="#DejaVuSans-63" x="417.972656"/>
     <use xlink:href="#DejaVuSans-74" x="472.953125"/>
     <use xlink:href="#DejaVuSans-69" x="512.162109"/>
     <use xlink:href="#DejaVuSans-6f" x="539.945312"/>
     <use xlink:href="#DejaVuSans-6e" x="601.126953"/>
     <use xlink:href="#DejaVuSans-20" x="664.505859"/>
     <use xlink:href="#DejaVuSans-28" x="696.292969"/>
     <use xlink:href="#DejaVuSans-46" x="735.306641"/>
     <use xlink:href="#DejaVuSans-4f" x="792.826172"/>
     <use xlink:href="#DejaVuSans-53" x="871.537109"/>
     <use xlink:href="#DejaVuSans-53" x="935.013672"/>
     <use xlink:href="#DejaVuSans-29" x="998.490234"/>
    </g>
   </g>
  </g>
  <g id="axes_2">
   <g id="patch_7">
    <path d="M 250.376727 152.64 
L 412.704 152.64 
L 412.704 41.76 
L 250.376727 41.76 
z
" style="fill: #ffffff"/>
   </g>
   <g id="matplotlib.axis_3">
    <g id="xtick_4">
     <g id="line2d_8">
      <g>
       <use xlink:href="#m8eed9b4940" x="257.75524" y="152.64" style="stroke: #000000; stroke-width: 0.8"/>
      </g>
     </g>
     <g id="text_8">
      <!-- 0 -->
      <g transform="translate(254.57399 167.238437) scale(0.1 -0.1)">
       <use xlink:href="#DejaVuSans-30"/>
      </g>
     </g>
    </g>
    <g id="xtick_5">
     <g id="line2d_9">
      <g>
       <use xlink:href="#m8eed9b4940" x="319.500113" y="152.64" style="stroke: #000000; stroke-width: 0.8"/>
      </g>
     </g>
     <g id="text_9">
      <!-- 100 -->
      <g transform="translate(309.956363 167.238437) scale(0.1 -0.1)">
       <use xlink:href="#DejaVuSans-31"/>
       <use xlink:href="#DejaVuSans-30" x="63.623047"/>
       <use xlink:href="#DejaVuSans-30" x="127.246094"/>
      </g>
     </g>
    </g>
    <g id="xtick_6">
     <g id="line2d_10">
      <g>
       <use xlink:href="#m8eed9b4940" x="381.244987" y="152.64" style="stroke: #000000; stroke-width: 0.8"/>
      </g>
     </g>
     <g id="text_10">
      <!-- 200 -->
      <g transform="translate(371.701237 167.238437) scale(0.1 -0.1)">
       <use xlink:href="#DejaVuSans-32"/>
       <use xlink:href="#DejaVuSans-30" x="63.623047"/>
       <use xlink:href="#DejaVuSans-30" x="127.246094"/>
      </g>
     </g>
    </g>
   </g>
   <g id="matplotlib.axis_4">
    <g id="ytick_4">
     <g id="line2d_11">
      <g>
       <use xlink:href="#m648ed08de0" x="250.376727" y="147.6" style="stroke: #000000; stroke-width: 0.8"/>
      </g>
     </g>
     <g id="text_11">
      <!-- 0 -->
      <g transform="translate(237.014227 151.399219) scale(0.1 -0.1)">
       <use xlink:href="#DejaVuSans-30"/>
      </g>
     </g>
    </g>
    <g id="ytick_5">
     <g id="line2d_12">
      <g>
       <use xlink:href="#m648ed08de0" x="250.376727" y="103.267699" style="stroke: #000000; stroke-width: 0.8"/>
      </g>
     </g>
     <g id="text_12">
      <!-- 20 -->
      <g transform="translate(230.651727 107.066918) scale(0.1 -0.1)">
       <use xlink:href="#DejaVuSans-32"/>
       <use xlink:href="#DejaVuSans-30" x="63.623047"/>
      </g>
     </g>
    </g>
    <g id="ytick_6">
     <g id="line2d_13">
      <g>
       <use xlink:href="#m648ed08de0" x="250.376727" y="58.935398" style="stroke: #000000; stroke-width: 0.8"/>
      </g>
     </g>
     <g id="text_13">
      <!-- 40 -->
      <g transform="translate(230.651727 62.734617) scale(0.1 -0.1)">
       <use xlink:href="#DejaVuSans-34"/>
       <use xlink:href="#DejaVuSans-30" x="63.623047"/>
      </g>
     </g>
    </g>
   </g>
   <g id="line2d_14">
    <path d="M 257.75524 64.406498 
L 258.372688 57.719846 
L 258.990137 53.845249 
L 259.607586 46.8 
L 260.225035 55.086966 
L 260.842483 66.199935 
L 261.459932 81.671048 
L 262.69483 101.292987 
L 263.312278 114.877433 
L 264.547176 126.173244 
L 265.164625 147.6 
L 265.782073 145.910815 
L 266.399522 144.994799 
L 267.016971 132.452344 
L 267.634419 135.809488 
L 268.251868 146.925617 
L 268.869317 147.6 
L 269.486766 147.6 
L 270.104214 146.015116 
L 270.721663 145.884504 
L 271.339112 147.6 
L 271.956561 141.419714 
L 272.574009 106.615333 
L 273.191458 110.915223 
L 273.808907 132.785335 
L 274.426356 132.568983 
L 275.043804 128.845657 
L 275.661253 130.606855 
L 276.278702 129.911348 
L 276.89615 125.622703 
L 277.513599 130.559446 
L 278.131048 128.222655 
L 278.748497 137.252236 
L 279.365945 132.369897 
L 279.983394 147.6 
L 280.600843 142.62291 
L 281.218292 143.289983 
L 281.83574 142.783681 
L 282.453189 140.630616 
L 283.070638 140.560359 
L 283.688087 147.6 
L 291.71492 147.6 
L 292.949818 140.24778 
L 293.567266 130.900233 
L 294.184715 126.228207 
L 294.802164 147.6 
L 295.419613 145.450489 
L 296.037061 139.365047 
L 296.65451 142.372136 
L 297.271959 135.498027 
L 297.889408 138.921668 
L 298.506856 138.820835 
L 299.124305 132.610249 
L 299.741754 133.272445 
L 300.359202 132.325505 
L 300.976651 141.453555 
L 301.5941 142.510025 
L 302.211549 131.323464 
L 302.828997 128.466201 
L 303.446446 129.410608 
L 304.063895 125.722807 
L 304.681344 123.365661 
L 305.298792 124.430984 
L 305.916241 121.908616 
L 306.53369 130.313541 
L 307.151139 133.791738 
L 307.768587 130.69004 
L 308.386036 132.527273 
L 309.003485 135.833254 
L 310.238382 147.6 
L 310.855831 146.299909 
L 311.47328 147.6 
L 312.090728 146.41308 
L 312.708177 142.939026 
L 313.325626 138.178298 
L 313.943075 131.673111 
L 314.560523 132.866142 
L 315.177972 136.64622 
L 315.795421 143.054394 
L 316.41287 147.6 
L 317.030318 138.011989 
L 317.647767 137.20224 
L 318.265216 125.777833 
L 318.882665 132.850932 
L 319.500113 141.954357 
L 320.117562 141.139456 
L 320.735011 145.194232 
L 321.352459 147.6 
L 322.587357 139.980472 
L 323.204806 145.898307 
L 323.822254 146.212228 
L 324.439703 147.6 
L 331.231639 147.6 
L 331.849088 144.90881 
L 332.466537 146.549599 
L 333.083985 144.887517 
L 333.701434 144.608268 
L 334.318883 142.506717 
L 334.936332 143.221924 
L 335.55378 142.031007 
L 336.171229 144.555876 
L 337.406127 137.393942 
L 338.023575 136.379743 
L 338.641024 133.54913 
L 339.258473 146.743553 
L 339.875922 147.6 
L 342.345717 147.6 
L 342.963165 147.026692 
L 343.580614 147.6 
L 344.815511 147.6 
L 345.43296 143.604616 
L 346.050409 141.895322 
L 346.667858 136.861588 
L 347.285306 137.371042 
L 347.902755 135.51593 
L 348.520204 132.82359 
L 349.137653 136.428555 
L 349.755101 130.032151 
L 350.37255 128.418249 
L 350.989999 140.399209 
L 351.607448 144.625283 
L 352.224896 142.883005 
L 352.842345 145.237811 
L 353.459794 145.05111 
L 354.077243 138.581657 
L 354.694691 147.6 
L 355.31214 136.756049 
L 355.929589 134.212372 
L 356.547037 137.482243 
L 357.164486 135.078171 
L 357.781935 137.019139 
L 358.399384 143.851666 
L 359.016832 143.184893 
L 359.634281 142.031342 
L 360.25173 146.831743 
L 360.869179 134.998206 
L 361.486627 140.454398 
L 362.104076 141.463962 
L 362.721525 137.763292 
L 363.338974 139.455986 
L 363.956422 136.435169 
L 364.573871 134.521087 
L 365.19132 137.818206 
L 365.808768 147.6 
L 366.426217 147.6 
L 367.043666 145.696735 
L 367.661115 134.773089 
L 368.278563 139.570409 
L 368.896012 141.183837 
L 369.513461 141.732964 
L 370.748358 145.189555 
L 371.365807 147.6 
L 374.453051 147.6 
L 375.0705 139.797719 
L 376.305397 142.425432 
L 376.922846 132.044731 
L 377.540294 131.553833 
L 378.157743 130.546656 
L 378.775192 116.646489 
L 379.392641 128.376257 
L 380.010089 137.595629 
L 381.244987 126.76101 
L 381.862436 128.923859 
L 382.479884 132.121397 
L 383.097333 126.114798 
L 383.714782 147.037372 
L 384.332231 110.43423 
L 384.949679 118.981332 
L 385.567128 132.94492 
L 386.184577 139.779826 
L 386.802026 142.249898 
L 387.419474 141.63424 
L 388.036923 138.451733 
L 388.654372 142.027498 
L 389.27182 140.786695 
L 390.506718 146.770228 
L 391.124167 129.61898 
L 391.741615 133.155847 
L 392.359064 135.419452 
L 392.976513 135.296097 
L 394.21141 138.061923 
L 394.828859 141.922484 
L 395.446308 139.454367 
L 396.063757 128.866424 
L 396.681205 133.269451 
L 397.298654 132.753307 
L 397.916103 130.750596 
L 398.533552 134.311082 
L 399.151 132.150995 
L 399.768449 138.182161 
L 400.385898 132.909062 
L 401.003346 131.62687 
L 401.620795 142.702903 
L 402.238244 136.002309 
L 402.855693 143.206939 
L 403.473141 145.918709 
L 404.09059 141.674671 
L 404.708039 141.933866 
L 405.325488 141.589068 
L 405.325488 141.589068 
" clip-path="url(#p53cc3497d0)" style="fill: none; stroke: #0000ff; stroke-width: 1.5; stroke-linecap: square"/>
   </g>
   <g id="patch_8">
    <path d="M 250.376727 152.64 
L 250.376727 41.76 
" style="fill: none; stroke: #000000; stroke-width: 0.8; stroke-linejoin: miter; stroke-linecap: square"/>
   </g>
   <g id="patch_9">
    <path d="M 412.704 152.64 
L 412.704 41.76 
" style="fill: none; stroke: #000000; stroke-width: 0.8; stroke-linejoin: miter; stroke-linecap: square"/>
   </g>
   <g id="patch_10">
    <path d="M 250.376727 152.64 
L 412.704 152.64 
" style="fill: none; stroke: #000000; stroke-width: 0.8; stroke-linejoin: miter; stroke-linecap: square"/>
   </g>
   <g id="patch_11">
    <path d="M 250.376727 41.76 
L 412.704 41.76 
" style="fill: none; stroke: #000000; stroke-width: 0.8; stroke-linejoin: miter; stroke-linecap: square"/>
   </g>
   <g id="text_14">
    <!-- RNN -->
    <g transform="translate(318.393801 35.76) scale(0.12 -0.12)">
     <defs>
      <path id="DejaVuSans-52" d="M 2841 2188 
Q 3044 2119 3236 1894 
Q 3428 1669 3622 1275 
L 4263 0 
L 3584 0 
L 2988 1197 
Q 2756 1666 2539 1819 
Q 2322 1972 1947 1972 
L 1259 1972 
L 1259 0 
L 628 0 
L 628 4666 
L 2053 4666 
Q 2853 4666 3247 4331 
Q 3641 3997 3641 3322 
Q 3641 2881 3436 2590 
Q 3231 2300 2841 2188 
z
M 1259 4147 
L 1259 2491 
L 2053 2491 
Q 2509 2491 2742 2702 
Q 2975 2913 2975 3322 
Q 2975 3731 2742 3939 
Q 2509 4147 2053 4147 
L 1259 4147 
z
" transform="scale(0.015625)"/>
     </defs>
     <use xlink:href="#DejaVuSans-52"/>
     <use xlink:href="#DejaVuSans-4e" x="69.482422"/>
     <use xlink:href="#DejaVuSans-4e" x="144.287109"/>
    </g>
   </g>
  </g>
  <g id="axes_3">
   <g id="patch_12">
    <path d="M 55.584 307.872 
L 217.911273 307.872 
L 217.911273 196.992 
L 55.584 196.992 
z
" style="fill: #ffffff"/>
   </g>
   <g id="matplotlib.axis_5">
    <g id="xtick_7">
     <g id="line2d_15">
      <g>
       <use xlink:href="#m8eed9b4940" x="62.962512" y="307.872" style="stroke: #000000; stroke-width: 0.8"/>
      </g>
     </g>
     <g id="text_15">
      <!-- 0 -->
      <g transform="translate(59.781262 322.470437) scale(0.1 -0.1)">
       <use xlink:href="#DejaVuSans-30"/>
      </g>
     </g>
    </g>
    <g id="xtick_8">
     <g id="line2d_16">
      <g>
       <use xlink:href="#m8eed9b4940" x="124.707386" y="307.872" style="stroke: #000000; stroke-width: 0.8"/>
      </g>
     </g>
     <g id="text_16">
      <!-- 100 -->
      <g transform="translate(115.163636 322.470437) scale(0.1 -0.1)">
       <use xlink:href="#DejaVuSans-31"/>
       <use xlink:href="#DejaVuSans-30" x="63.623047"/>
       <use xlink:href="#DejaVuSans-30" x="127.246094"/>
      </g>
     </g>
    </g>
    <g id="xtick_9">
     <g id="line2d_17">
      <g>
       <use xlink:href="#m8eed9b4940" x="186.45226" y="307.872" style="stroke: #000000; stroke-width: 0.8"/>
      </g>
     </g>
     <g id="text_17">
      <!-- 200 -->
      <g transform="translate(176.90851 322.470437) scale(0.1 -0.1)">
       <use xlink:href="#DejaVuSans-32"/>
       <use xlink:href="#DejaVuSans-30" x="63.623047"/>
       <use xlink:href="#DejaVuSans-30" x="127.246094"/>
      </g>
     </g>
    </g>
   </g>
   <g id="matplotlib.axis_6">
    <g id="ytick_7">
     <g id="line2d_18">
      <g>
       <use xlink:href="#m648ed08de0" x="55.584" y="302.832" style="stroke: #000000; stroke-width: 0.8"/>
      </g>
     </g>
     <g id="text_18">
      <!-- 0 -->
      <g transform="translate(42.2215 306.631219) scale(0.1 -0.1)">
       <use xlink:href="#DejaVuSans-30"/>
      </g>
     </g>
    </g>
    <g id="ytick_8">
     <g id="line2d_19">
      <g>
       <use xlink:href="#m648ed08de0" x="55.584" y="258.499699" style="stroke: #000000; stroke-width: 0.8"/>
      </g>
     </g>
     <g id="text_19">
      <!-- 20 -->
      <g transform="translate(35.859 262.298918) scale(0.1 -0.1)">
       <use xlink:href="#DejaVuSans-32"/>
       <use xlink:href="#DejaVuSans-30" x="63.623047"/>
      </g>
     </g>
    </g>
    <g id="ytick_9">
     <g id="line2d_20">
      <g>
       <use xlink:href="#m648ed08de0" x="55.584" y="214.167398" style="stroke: #000000; stroke-width: 0.8"/>
      </g>
     </g>
     <g id="text_20">
      <!-- 40 -->
      <g transform="translate(35.859 217.966617) scale(0.1 -0.1)">
       <use xlink:href="#DejaVuSans-34"/>
       <use xlink:href="#DejaVuSans-30" x="63.623047"/>
      </g>
     </g>
    </g>
   </g>
   <g id="line2d_21">
    <path d="M 62.962512 219.638498 
L 63.579961 212.951846 
L 64.19741 209.077249 
L 64.814859 202.032 
L 65.432307 210.318966 
L 66.049756 221.431935 
L 66.667205 236.903048 
L 67.902102 256.524987 
L 68.519551 270.109433 
L 69.754448 281.405244 
L 70.371897 302.832 
L 70.989346 302.470521 
L 71.606795 300.350027 
L 72.224243 300.952827 
L 72.841692 302.832 
L 74.07659 302.832 
L 74.694038 301.864044 
L 75.311487 297.693317 
L 76.546385 296.525129 
L 77.163833 297.060209 
L 77.781282 261.847333 
L 78.398731 266.147223 
L 79.01618 288.017335 
L 79.633628 287.800983 
L 80.251077 284.077657 
L 80.868526 285.838855 
L 81.485974 285.143348 
L 82.103423 280.854703 
L 82.720872 285.791446 
L 83.338321 283.454655 
L 83.955769 292.484236 
L 84.573218 287.601897 
L 85.190667 294.436677 
L 85.808116 295.459031 
L 86.425564 299.858772 
L 87.043013 302.832 
L 96.922193 302.832 
L 98.15709 295.47978 
L 98.774539 286.132233 
L 99.391988 281.460207 
L 100.009437 302.832 
L 104.331578 302.832 
L 104.949026 299.600725 
L 105.566475 298.76476 
L 106.183924 302.057909 
L 106.801373 302.832 
L 107.418821 286.555464 
L 108.03627 283.698201 
L 108.653719 284.642608 
L 109.271168 280.954807 
L 109.888616 278.597661 
L 110.506065 279.662984 
L 111.123514 277.140616 
L 111.740963 285.545541 
L 112.358411 289.023738 
L 112.97586 285.92204 
L 113.593309 287.759273 
L 114.210757 291.065254 
L 114.828206 302.366959 
L 115.445655 297.964466 
L 116.063104 290.733547 
L 116.680552 289.163223 
L 117.298001 292.766792 
L 117.91545 289.309504 
L 118.532899 276.263328 
L 119.150347 281.001529 
L 119.767796 295.512331 
L 120.385245 302.832 
L 121.620142 302.832 
L 122.237591 293.243989 
L 122.85504 292.43424 
L 123.472489 281.009833 
L 124.089937 288.082932 
L 124.707386 297.186357 
L 125.324835 296.371456 
L 125.942283 300.426232 
L 126.559732 302.832 
L 127.79463 295.212472 
L 128.412078 301.130307 
L 129.029527 301.444228 
L 129.646976 302.832 
L 136.438912 302.832 
L 137.056361 300.14081 
L 137.673809 301.781599 
L 138.291258 300.119517 
L 138.908707 299.840268 
L 139.526156 297.738717 
L 140.143604 298.453924 
L 140.761053 297.263007 
L 141.378502 299.787876 
L 142.613399 292.625942 
L 143.230848 291.611743 
L 143.848297 288.78113 
L 144.465746 302.832 
L 151.257682 302.832 
L 151.87513 292.093588 
L 152.492579 292.603042 
L 153.110028 290.74793 
L 153.727477 288.05559 
L 154.344925 291.660555 
L 154.962374 285.264151 
L 155.579823 283.650249 
L 156.197272 295.631209 
L 156.81472 299.857283 
L 157.432169 298.115005 
L 158.049618 300.469811 
L 158.667066 300.28311 
L 159.284515 296.924566 
L 159.901964 294.330171 
L 160.519413 293.450724 
L 161.136861 287.353299 
L 161.75431 285.98976 
L 162.989208 290.960147 
L 163.606656 296.45874 
L 164.224105 295.618079 
L 164.841554 291.770295 
L 165.459003 299.000242 
L 166.076451 289.719357 
L 166.6939 295.686398 
L 167.311349 296.695962 
L 167.928798 292.995292 
L 168.546246 294.687986 
L 169.163695 291.667169 
L 169.781144 289.753087 
L 170.398592 293.050206 
L 171.016041 302.832 
L 171.63349 302.832 
L 172.250939 300.928735 
L 172.868387 290.005089 
L 173.485836 294.802409 
L 174.103285 302.698398 
L 174.720734 302.832 
L 177.190529 302.832 
L 177.807977 300.719329 
L 178.425426 300.701226 
L 179.042875 301.762829 
L 179.660324 300.858388 
L 180.277772 293.140977 
L 180.895221 292.41199 
L 181.51267 297.657432 
L 182.130118 287.276731 
L 182.747567 286.785833 
L 183.365016 285.778656 
L 183.982465 271.878489 
L 184.599913 283.608257 
L 185.217362 292.827629 
L 186.45226 281.99301 
L 187.069708 284.155859 
L 187.687157 287.353397 
L 188.304606 281.346798 
L 188.922055 293.448126 
L 189.539503 283.82657 
L 190.156952 276.284776 
L 190.774401 292.296109 
L 191.39185 295.20547 
L 192.009298 294.927181 
L 192.626747 293.303789 
L 193.244196 293.424247 
L 193.861644 292.302041 
L 194.479093 288.768114 
L 195.096542 292.837278 
L 195.713991 295.285071 
L 196.331439 284.85098 
L 196.948888 288.387847 
L 197.566337 290.651452 
L 198.183786 290.528097 
L 199.418683 293.293923 
L 200.036132 297.154484 
L 200.653581 294.686367 
L 201.271029 284.098424 
L 201.888478 288.501451 
L 202.505927 287.985307 
L 203.123375 285.982596 
L 203.740824 297.128971 
L 204.358273 292.929563 
L 204.975722 292.643389 
L 205.59317 291.543019 
L 206.210619 294.338228 
L 206.828068 301.157737 
L 207.445517 295.770102 
L 208.062965 296.200449 
L 208.680414 297.379783 
L 209.297863 295.446842 
L 209.915312 291.492821 
L 210.53276 290.586747 
L 210.53276 290.586747 
" clip-path="url(#pb4205151ac)" style="fill: none; stroke: #ffa500; stroke-width: 1.5; stroke-linecap: square"/>
   </g>
   <g id="patch_13">
    <path d="M 55.584 307.872 
L 55.584 196.992 
" style="fill: none; stroke: #000000; stroke-width: 0.8; stroke-linejoin: miter; stroke-linecap: square"/>
   </g>
   <g id="patch_14">
    <path d="M 217.911273 307.872 
L 217.911273 196.992 
" style="fill: none; stroke: #000000; stroke-width: 0.8; stroke-linejoin: miter; stroke-linecap: square"/>
   </g>
   <g id="patch_15">
    <path d="M 55.584 307.872 
L 217.911273 307.872 
" style="fill: none; stroke: #000000; stroke-width: 0.8; stroke-linejoin: miter; stroke-linecap: square"/>
   </g>
   <g id="patch_16">
    <path d="M 55.584 196.992 
L 217.911273 196.992 
" style="fill: none; stroke: #000000; stroke-width: 0.8; stroke-linejoin: miter; stroke-linecap: square"/>
   </g>
   <g id="text_21">
    <!-- VAE -->
    <g transform="translate(125.130136 190.992) scale(0.12 -0.12)">
     <defs>
      <path id="DejaVuSans-56" d="M 1831 0 
L 50 4666 
L 709 4666 
L 2188 738 
L 3669 4666 
L 4325 4666 
L 2547 0 
L 1831 0 
z
" transform="scale(0.015625)"/>
      <path id="DejaVuSans-41" d="M 2188 4044 
L 1331 1722 
L 3047 1722 
L 2188 4044 
z
M 1831 4666 
L 2547 4666 
L 4325 0 
L 3669 0 
L 3244 1197 
L 1141 1197 
L 716 0 
L 50 0 
L 1831 4666 
z
" transform="scale(0.015625)"/>
      <path id="DejaVuSans-45" d="M 628 4666 
L 3578 4666 
L 3578 4134 
L 1259 4134 
L 1259 2753 
L 3481 2753 
L 3481 2222 
L 1259 2222 
L 1259 531 
L 3634 531 
L 3634 0 
L 628 0 
L 628 4666 
z
" transform="scale(0.015625)"/>
     </defs>
     <use xlink:href="#DejaVuSans-56"/>
     <use xlink:href="#DejaVuSans-41" x="62.033203"/>
     <use xlink:href="#DejaVuSans-45" x="130.441406"/>
    </g>
   </g>
  </g>
  <g id="axes_4">
   <g id="patch_17">
    <path d="M 250.376727 307.872 
L 412.704 307.872 
L 412.704 196.992 
L 250.376727 196.992 
z
" style="fill: #ffffff"/>
   </g>
   <g id="matplotlib.axis_7">
    <g id="xtick_10">
     <g id="line2d_22">
      <g>
       <use xlink:href="#m8eed9b4940" x="257.75524" y="307.872" style="stroke: #000000; stroke-width: 0.8"/>
      </g>
     </g>
     <g id="text_22">
      <!-- 0 -->
      <g transform="translate(254.57399 322.470437) scale(0.1 -0.1)">
       <use xlink:href="#DejaVuSans-30"/>
      </g>
     </g>
    </g>
    <g id="xtick_11">
     <g id="line2d_23">
      <g>
       <use xlink:href="#m8eed9b4940" x="319.500113" y="307.872" style="stroke: #000000; stroke-width: 0.8"/>
      </g>
     </g>
     <g id="text_23">
      <!-- 100 -->
      <g transform="translate(309.956363 322.470437) scale(0.1 -0.1)">
       <use xlink:href="#DejaVuSans-31"/>
       <use xlink:href="#DejaVuSans-30" x="63.623047"/>
       <use xlink:href="#DejaVuSans-30" x="127.246094"/>
      </g>
     </g>
    </g>
    <g id="xtick_12">
     <g id="line2d_24">
      <g>
       <use xlink:href="#m8eed9b4940" x="381.244987" y="307.872" style="stroke: #000000; stroke-width: 0.8"/>
      </g>
     </g>
     <g id="text_24">
      <!-- 200 -->
      <g transform="translate(371.701237 322.470437) scale(0.1 -0.1)">
       <use xlink:href="#DejaVuSans-32"/>
       <use xlink:href="#DejaVuSans-30" x="63.623047"/>
       <use xlink:href="#DejaVuSans-30" x="127.246094"/>
      </g>
     </g>
    </g>
   </g>
   <g id="matplotlib.axis_8">
    <g id="ytick_10">
     <g id="line2d_25">
      <g>
       <use xlink:href="#m648ed08de0" x="250.376727" y="302.832" style="stroke: #000000; stroke-width: 0.8"/>
      </g>
     </g>
     <g id="text_25">
      <!-- 0 -->
      <g transform="translate(237.014227 306.631219) scale(0.1 -0.1)">
       <use xlink:href="#DejaVuSans-30"/>
      </g>
     </g>
    </g>
    <g id="ytick_11">
     <g id="line2d_26">
      <g>
       <use xlink:href="#m648ed08de0" x="250.376727" y="258.49713" style="stroke: #000000; stroke-width: 0.8"/>
      </g>
     </g>
     <g id="text_26">
      <!-- 20 -->
      <g transform="translate(230.651727 262.296349) scale(0.1 -0.1)">
       <use xlink:href="#DejaVuSans-32"/>
       <use xlink:href="#DejaVuSans-30" x="63.623047"/>
      </g>
     </g>
    </g>
    <g id="ytick_12">
     <g id="line2d_27">
      <g>
       <use xlink:href="#m648ed08de0" x="250.376727" y="214.16226" style="stroke: #000000; stroke-width: 0.8"/>
      </g>
     </g>
     <g id="text_27">
      <!-- 40 -->
      <g transform="translate(230.651727 217.961479) scale(0.1 -0.1)">
       <use xlink:href="#DejaVuSans-34"/>
       <use xlink:href="#DejaVuSans-30" x="63.623047"/>
      </g>
     </g>
    </g>
   </g>
   <g id="line2d_28">
    <path d="M 257.75524 219.617659 
L 258.372688 212.941446 
L 258.990137 209.055224 
L 259.607586 202.032 
L 260.225035 210.32259 
L 260.842483 221.406881 
L 261.459932 236.91443 
L 262.69483 256.502959 
L 263.312278 270.114823 
L 264.547176 281.401074 
L 265.164625 283.910751 
L 265.782073 278.656767 
L 266.399522 279.721434 
L 267.016971 281.028607 
L 267.634419 271.053155 
L 268.251868 268.049228 
L 268.869317 271.463435 
L 269.486766 279.164233 
L 270.104214 276.250058 
L 270.721663 277.316812 
L 271.339112 259.515322 
L 271.956561 267.57925 
L 272.574009 261.841746 
L 273.191458 266.141395 
L 273.808907 288.016776 
L 274.426356 287.792832 
L 275.043804 284.077869 
L 275.661253 285.839375 
L 276.278702 285.141744 
L 276.89615 280.848832 
L 277.513599 285.563479 
L 278.131048 283.449107 
L 278.748497 292.474191 
L 279.365945 287.60817 
L 279.983394 302.018382 
L 280.600843 302.832 
L 281.83574 302.832 
L 282.453189 301.439985 
L 283.070638 296.008815 
L 283.688087 296.560059 
L 284.305535 298.847579 
L 284.922984 302.051569 
L 285.540433 302.832 
L 291.71492 302.832 
L 292.949818 295.480944 
L 293.567266 286.135654 
L 294.184715 281.449999 
L 294.802164 290.536027 
L 295.419613 287.746462 
L 296.037061 290.401613 
L 296.65451 275.733672 
L 297.271959 278.653624 
L 297.889408 280.97396 
L 298.506856 286.137705 
L 299.124305 281.501785 
L 299.741754 281.933595 
L 300.359202 281.584906 
L 301.5941 289.772461 
L 302.828997 283.693164 
L 303.446446 284.628295 
L 304.063895 280.94892 
L 304.681344 278.603244 
L 305.298792 279.606784 
L 305.916241 277.143891 
L 306.53369 285.55273 
L 307.151139 288.991201 
L 307.768587 285.924243 
L 308.386036 287.777237 
L 309.003485 291.072198 
L 309.620934 295.85251 
L 310.238382 302.832 
L 310.855831 300.557661 
L 311.47328 288.681456 
L 312.090728 283.011764 
L 312.708177 283.598292 
L 313.325626 282.356118 
L 313.943075 274.663206 
L 314.560523 283.302831 
L 315.177972 290.119985 
L 315.795421 299.986205 
L 316.41287 289.385861 
L 317.030318 293.249716 
L 317.647767 292.480947 
L 318.265216 280.879968 
L 318.882665 288.068938 
L 319.500113 297.200119 
L 320.117562 296.36914 
L 320.735011 300.566211 
L 321.352459 302.832 
L 322.587357 295.215236 
L 323.204806 301.084233 
L 323.822254 301.443004 
L 324.439703 302.832 
L 327.526947 302.832 
L 328.144396 300.874924 
L 328.761844 302.832 
L 329.996742 302.832 
L 330.614191 302.283864 
L 331.231639 302.832 
L 331.849088 300.137843 
L 332.466537 301.778595 
L 333.083985 300.133387 
L 333.701434 299.842196 
L 334.318883 297.735791 
L 334.936332 298.444439 
L 335.55378 297.259184 
L 336.171229 299.788702 
L 337.406127 292.630158 
L 338.023575 291.610771 
L 338.641024 288.779812 
L 339.258473 281.240003 
L 339.875922 290.714961 
L 340.49337 286.489644 
L 341.110819 302.019796 
L 341.728268 299.344628 
L 342.345717 300.400671 
L 342.963165 302.832 
L 344.815511 302.832 
L 345.43296 291.082326 
L 346.050409 288.308726 
L 346.667858 292.09362 
L 347.285306 292.603316 
L 347.902755 290.746427 
L 348.520204 288.051823 
L 349.137653 291.664443 
L 349.755101 285.227751 
L 350.37255 283.634498 
L 350.989999 295.636923 
L 351.607448 299.861295 
L 352.224896 298.113921 
L 352.842345 300.513466 
L 353.459794 300.281927 
L 354.077243 299.827687 
L 354.694691 294.908931 
L 355.31214 296.378893 
L 355.929589 297.488183 
L 356.547037 293.186608 
L 357.164486 301.680723 
L 357.781935 295.704252 
L 358.399384 301.532066 
L 359.016832 300.645695 
L 359.634281 302.832 
L 360.869179 302.832 
L 361.486627 295.682685 
L 362.104076 296.705504 
L 362.721525 292.980827 
L 363.338974 294.688174 
L 363.956422 291.664467 
L 364.573871 289.766982 
L 365.19132 293.046048 
L 365.808768 302.832 
L 366.426217 302.832 
L 367.043666 300.938866 
L 367.661115 290.012705 
L 368.278563 294.80012 
L 368.896012 298.38007 
L 369.513461 300.393955 
L 370.13091 300.098828 
L 370.748358 301.08246 
L 371.983256 295.087011 
L 372.600705 299.666765 
L 373.218153 299.057068 
L 374.453051 291.865499 
L 375.0705 295.597833 
L 375.687948 302.832 
L 376.305397 297.664454 
L 376.922846 287.279283 
L 377.540294 286.965749 
L 378.157743 285.778801 
L 378.775192 271.869551 
L 379.392641 283.608185 
L 380.010089 292.826804 
L 381.244987 281.981326 
L 381.862436 284.162041 
L 382.479884 287.349669 
L 383.097333 281.354121 
L 383.714782 289.159962 
L 384.332231 264.621046 
L 384.949679 281.007659 
L 385.567128 289.939369 
L 386.184577 291.877441 
L 386.802026 289.817421 
L 387.419474 291.342297 
L 388.036923 284.475637 
L 388.654372 293.827231 
L 389.27182 284.203853 
L 389.889269 288.384736 
L 390.506718 294.379473 
L 391.124167 284.853199 
L 391.741615 288.398267 
L 392.359064 290.626533 
L 392.976513 290.527338 
L 394.21141 293.28079 
L 394.828859 297.029439 
L 395.446308 294.681826 
L 396.063757 284.092147 
L 396.681205 288.470612 
L 397.298654 287.993527 
L 397.916103 285.994275 
L 398.533552 291.678989 
L 399.151 285.495295 
L 399.768449 301.587471 
L 400.385898 286.71248 
L 401.003346 283.253433 
L 402.238244 301.931373 
L 402.855693 301.804174 
L 403.473141 279.509759 
L 404.09059 291.95113 
L 404.708039 296.012936 
L 405.325488 293.084019 
L 405.325488 293.084019 
" clip-path="url(#p234f0e21a4)" style="fill: none; stroke: #ff0000; stroke-width: 1.5; stroke-linecap: square"/>
   </g>
   <g id="patch_18">
    <path d="M 250.376727 307.872 
L 250.376727 196.992 
" style="fill: none; stroke: #000000; stroke-width: 0.8; stroke-linejoin: miter; stroke-linecap: square"/>
   </g>
   <g id="patch_19">
    <path d="M 412.704 307.872 
L 412.704 196.992 
" style="fill: none; stroke: #000000; stroke-width: 0.8; stroke-linejoin: miter; stroke-linecap: square"/>
   </g>
   <g id="patch_20">
    <path d="M 250.376727 307.872 
L 412.704 307.872 
" style="fill: none; stroke: #000000; stroke-width: 0.8; stroke-linejoin: miter; stroke-linecap: square"/>
   </g>
   <g id="patch_21">
    <path d="M 250.376727 196.992 
L 412.704 196.992 
" style="fill: none; stroke: #000000; stroke-width: 0.8; stroke-linejoin: miter; stroke-linecap: square"/>
   </g>
   <g id="text_28">
    <!-- VRNN -->
    <g transform="translate(314.289426 190.992) scale(0.12 -0.12)">
     <use xlink:href="#DejaVuSans-56"/>
     <use xlink:href="#DejaVuSans-52" x="68.408203"/>
     <use xlink:href="#DejaVuSans-4e" x="137.890625"/>
     <use xlink:href="#DejaVuSans-4e" x="212.695312"/>
    </g>
   </g>
  </g>
  <g id="text_29">
   <!-- VMAF Scores Over Frames: Video #35 -->
   <g transform="translate(114.338063 16.318125) scale(0.12 -0.12)">
    <defs>
     <path id="DejaVuSans-4d" d="M 628 4666 
L 1569 4666 
L 2759 1491 
L 3956 4666 
L 4897 4666 
L 4897 0 
L 4281 0 
L 4281 4097 
L 3078 897 
L 2444 897 
L 1241 4097 
L 1241 0 
L 628 0 
L 628 4666 
z
" transform="scale(0.015625)"/>
     <path id="DejaVuSans-73" d="M 2834 3397 
L 2834 2853 
Q 2591 2978 2328 3040 
Q 2066 3103 1784 3103 
Q 1356 3103 1142 2972 
Q 928 2841 928 2578 
Q 928 2378 1081 2264 
Q 1234 2150 1697 2047 
L 1894 2003 
Q 2506 1872 2764 1633 
Q 3022 1394 3022 966 
Q 3022 478 2636 193 
Q 2250 -91 1575 -91 
Q 1294 -91 989 -36 
Q 684 19 347 128 
L 347 722 
Q 666 556 975 473 
Q 1284 391 1588 391 
Q 1994 391 2212 530 
Q 2431 669 2431 922 
Q 2431 1156 2273 1281 
Q 2116 1406 1581 1522 
L 1381 1569 
Q 847 1681 609 1914 
Q 372 2147 372 2553 
Q 372 3047 722 3315 
Q 1072 3584 1716 3584 
Q 2034 3584 2315 3537 
Q 2597 3491 2834 3397 
z
" transform="scale(0.015625)"/>
     <path id="DejaVuSans-76" d="M 191 3500 
L 800 3500 
L 1894 563 
L 2988 3500 
L 3597 3500 
L 2284 0 
L 1503 0 
L 191 3500 
z
" transform="scale(0.015625)"/>
     <path id="DejaVuSans-61" d="M 2194 1759 
Q 1497 1759 1228 1600 
Q 959 1441 959 1056 
Q 959 750 1161 570 
Q 1363 391 1709 391 
Q 2188 391 2477 730 
Q 2766 1069 2766 1631 
L 2766 1759 
L 2194 1759 
z
M 3341 1997 
L 3341 0 
L 2766 0 
L 2766 531 
Q 2569 213 2275 61 
Q 1981 -91 1556 -91 
Q 1019 -91 701 211 
Q 384 513 384 1019 
Q 384 1609 779 1909 
Q 1175 2209 1959 2209 
L 2766 2209 
L 2766 2266 
Q 2766 2663 2505 2880 
Q 2244 3097 1772 3097 
Q 1472 3097 1187 3025 
Q 903 2953 641 2809 
L 641 3341 
Q 956 3463 1253 3523 
Q 1550 3584 1831 3584 
Q 2591 3584 2966 3190 
Q 3341 2797 3341 1997 
z
" transform="scale(0.015625)"/>
     <path id="DejaVuSans-6d" d="M 3328 2828 
Q 3544 3216 3844 3400 
Q 4144 3584 4550 3584 
Q 5097 3584 5394 3201 
Q 5691 2819 5691 2113 
L 5691 0 
L 5113 0 
L 5113 2094 
Q 5113 2597 4934 2840 
Q 4756 3084 4391 3084 
Q 3944 3084 3684 2787 
Q 3425 2491 3425 1978 
L 3425 0 
L 2847 0 
L 2847 2094 
Q 2847 2600 2669 2842 
Q 2491 3084 2119 3084 
Q 1678 3084 1418 2786 
Q 1159 2488 1159 1978 
L 1159 0 
L 581 0 
L 581 3500 
L 1159 3500 
L 1159 2956 
Q 1356 3278 1631 3431 
Q 1906 3584 2284 3584 
Q 2666 3584 2933 3390 
Q 3200 3197 3328 2828 
z
" transform="scale(0.015625)"/>
     <path id="DejaVuSans-3a" d="M 750 794 
L 1409 794 
L 1409 0 
L 750 0 
L 750 794 
z
M 750 3309 
L 1409 3309 
L 1409 2516 
L 750 2516 
L 750 3309 
z
" transform="scale(0.015625)"/>
     <path id="DejaVuSans-23" d="M 3272 2816 
L 2363 2816 
L 2100 1772 
L 3016 1772 
L 3272 2816 
z
M 2803 4594 
L 2478 3297 
L 3391 3297 
L 3719 4594 
L 4219 4594 
L 3897 3297 
L 4872 3297 
L 4872 2816 
L 3775 2816 
L 3519 1772 
L 4513 1772 
L 4513 1294 
L 3397 1294 
L 3072 0 
L 2572 0 
L 2894 1294 
L 1978 1294 
L 1656 0 
L 1153 0 
L 1478 1294 
L 494 1294 
L 494 1772 
L 1594 1772 
L 1856 2816 
L 850 2816 
L 850 3297 
L 1978 3297 
L 2297 4594 
L 2803 4594 
z
" transform="scale(0.015625)"/>
     <path id="DejaVuSans-33" d="M 2597 2516 
Q 3050 2419 3304 2112 
Q 3559 1806 3559 1356 
Q 3559 666 3084 287 
Q 2609 -91 1734 -91 
Q 1441 -91 1130 -33 
Q 819 25 488 141 
L 488 750 
Q 750 597 1062 519 
Q 1375 441 1716 441 
Q 2309 441 2620 675 
Q 2931 909 2931 1356 
Q 2931 1769 2642 2001 
Q 2353 2234 1838 2234 
L 1294 2234 
L 1294 2753 
L 1863 2753 
Q 2328 2753 2575 2939 
Q 2822 3125 2822 3475 
Q 2822 3834 2567 4026 
Q 2313 4219 1838 4219 
Q 1578 4219 1281 4162 
Q 984 4106 628 3988 
L 628 4550 
Q 988 4650 1302 4700 
Q 1616 4750 1894 4750 
Q 2613 4750 3031 4423 
Q 3450 4097 3450 3541 
Q 3450 3153 3228 2886 
Q 3006 2619 2597 2516 
z
" transform="scale(0.015625)"/>
     <path id="DejaVuSans-35" d="M 691 4666 
L 3169 4666 
L 3169 4134 
L 1269 4134 
L 1269 2991 
Q 1406 3038 1543 3061 
Q 1681 3084 1819 3084 
Q 2600 3084 3056 2656 
Q 3513 2228 3513 1497 
Q 3513 744 3044 326 
Q 2575 -91 1722 -91 
Q 1428 -91 1123 -41 
Q 819 9 494 109 
L 494 744 
Q 775 591 1075 516 
Q 1375 441 1709 441 
Q 2250 441 2565 725 
Q 2881 1009 2881 1497 
Q 2881 1984 2565 2268 
Q 2250 2553 1709 2553 
Q 1456 2553 1204 2497 
Q 953 2441 691 2322 
L 691 4666 
z
" transform="scale(0.015625)"/>
    </defs>
    <use xlink:href="#DejaVuSans-56"/>
    <use xlink:href="#DejaVuSans-4d" x="68.408203"/>
    <use xlink:href="#DejaVuSans-41" x="154.6875"/>
    <use xlink:href="#DejaVuSans-46" x="223.095703"/>
    <use xlink:href="#DejaVuSans-20" x="280.615234"/>
    <use xlink:href="#DejaVuSans-53" x="312.402344"/>
    <use xlink:href="#DejaVuSans-63" x="375.878906"/>
    <use xlink:href="#DejaVuSans-6f" x="430.859375"/>
    <use xlink:href="#DejaVuSans-72" x="492.041016"/>
    <use xlink:href="#DejaVuSans-65" x="530.904297"/>
    <use xlink:href="#DejaVuSans-73" x="592.427734"/>
    <use xlink:href="#DejaVuSans-20" x="644.527344"/>
    <use xlink:href="#DejaVuSans-4f" x="676.314453"/>
    <use xlink:href="#DejaVuSans-76" x="755.025391"/>
    <use xlink:href="#DejaVuSans-65" x="814.205078"/>
    <use xlink:href="#DejaVuSans-72" x="875.728516"/>
    <use xlink:href="#DejaVuSans-20" x="916.841797"/>
    <use xlink:href="#DejaVuSans-46" x="948.628906"/>
    <use xlink:href="#DejaVuSans-72" x="998.898438"/>
    <use xlink:href="#DejaVuSans-61" x="1040.011719"/>
    <use xlink:href="#DejaVuSans-6d" x="1101.291016"/>
    <use xlink:href="#DejaVuSans-65" x="1198.703125"/>
    <use xlink:href="#DejaVuSans-73" x="1260.226562"/>
    <use xlink:href="#DejaVuSans-3a" x="1312.326172"/>
    <use xlink:href="#DejaVuSans-20" x="1346.017578"/>
    <use xlink:href="#DejaVuSans-56" x="1377.804688"/>
    <use xlink:href="#DejaVuSans-69" x="1443.962891"/>
    <use xlink:href="#DejaVuSans-64" x="1471.746094"/>
    <use xlink:href="#DejaVuSans-65" x="1535.222656"/>
    <use xlink:href="#DejaVuSans-6f" x="1596.746094"/>
    <use xlink:href="#DejaVuSans-20" x="1657.927734"/>
    <use xlink:href="#DejaVuSans-23" x="1689.714844"/>
    <use xlink:href="#DejaVuSans-33" x="1773.503906"/>
    <use xlink:href="#DejaVuSans-35" x="1837.126953"/>
   </g>
  </g>
  <g id="text_30">
   <!-- Video Frames -->
   <g transform="translate(187.847438 339.936375) scale(0.12 -0.12)">
    <use xlink:href="#DejaVuSans-56"/>
    <use xlink:href="#DejaVuSans-69" x="66.158203"/>
    <use xlink:href="#DejaVuSans-64" x="93.941406"/>
    <use xlink:href="#DejaVuSans-65" x="157.417969"/>
    <use xlink:href="#DejaVuSans-6f" x="218.941406"/>
    <use xlink:href="#DejaVuSans-20" x="280.123047"/>
    <use xlink:href="#DejaVuSans-46" x="311.910156"/>
    <use xlink:href="#DejaVuSans-72" x="362.179688"/>
    <use xlink:href="#DejaVuSans-61" x="403.292969"/>
    <use xlink:href="#DejaVuSans-6d" x="464.572266"/>
    <use xlink:href="#DejaVuSans-65" x="561.984375"/>
    <use xlink:href="#DejaVuSans-73" x="623.507812"/>
   </g>
  </g>
  <g id="text_31">
   <!-- Raw VMAF Scores -->
   <g transform="translate(16.318125 226.284562) rotate(-90) scale(0.12 -0.12)">
    <defs>
     <path id="DejaVuSans-77" d="M 269 3500 
L 844 3500 
L 1563 769 
L 2278 3500 
L 2956 3500 
L 3675 769 
L 4391 3500 
L 4966 3500 
L 4050 0 
L 3372 0 
L 2619 2869 
L 1863 0 
L 1184 0 
L 269 3500 
z
" transform="scale(0.015625)"/>
    </defs>
    <use xlink:href="#DejaVuSans-52"/>
    <use xlink:href="#DejaVuSans-61" x="67.232422"/>
    <use xlink:href="#DejaVuSans-77" x="128.511719"/>
    <use xlink:href="#DejaVuSans-20" x="210.298828"/>
    <use xlink:href="#DejaVuSans-56" x="242.085938"/>
    <use xlink:href="#DejaVuSans-4d" x="310.494141"/>
    <use xlink:href="#DejaVuSans-41" x="396.773438"/>
    <use xlink:href="#DejaVuSans-46" x="465.181641"/>
    <use xlink:href="#DejaVuSans-20" x="522.701172"/>
    <use xlink:href="#DejaVuSans-53" x="554.488281"/>
    <use xlink:href="#DejaVuSans-63" x="617.964844"/>
    <use xlink:href="#DejaVuSans-6f" x="672.945312"/>
    <use xlink:href="#DejaVuSans-72" x="734.126953"/>
    <use xlink:href="#DejaVuSans-65" x="772.990234"/>
    <use xlink:href="#DejaVuSans-73" x="834.513672"/>
   </g>
  </g>
 </g>
 <defs>
  <clipPath id="p494a422f7e">
   <rect x="55.584" y="41.76" width="162.327273" height="110.88"/>
  </clipPath>
  <clipPath id="p53cc3497d0">
   <rect x="250.376727" y="41.76" width="162.327273" height="110.88"/>
  </clipPath>
  <clipPath id="pb4205151ac">
   <rect x="55.584" y="196.992" width="162.327273" height="110.88"/>
  </clipPath>
  <clipPath id="p234f0e21a4">
   <rect x="250.376727" y="196.992" width="162.327273" height="110.88"/>
  </clipPath>
 </defs>
</svg>
