<?xml version="1.0" encoding="utf-8" standalone="no"?>
<!DOCTYPE svg PUBLIC "-//W3C//DTD SVG 1.1//EN"
  "http://www.w3.org/Graphics/SVG/1.1/DTD/svg11.dtd">
<svg xmlns:xlink="http://www.w3.org/1999/xlink" width="419.904pt" height="349.632pt" viewBox="0 0 419.904 349.632" xmlns="http://www.w3.org/2000/svg" version="1.1">
 <metadata>
  <rdf:RDF xmlns:dc="http://purl.org/dc/elements/1.1/" xmlns:cc="http://creativecommons.org/ns#" xmlns:rdf="http://www.w3.org/1999/02/22-rdf-syntax-ns#">
   <cc:Work>
    <dc:type rdf:resource="http://purl.org/dc/dcmitype/StillImage"/>
    <dc:date>2024-07-24T16:31:57.855782</dc:date>
    <dc:format>image/svg+xml</dc:format>
    <dc:creator>
     <cc:Agent>
      <dc:title>Matplotlib v3.7.2, https://matplotlib.org/</dc:title>
     </cc:Agent>
    </dc:creator>
   </cc:Work>
  </rdf:RDF>
 </metadata>
 <defs>
  <style type="text/css">*{stroke-linejoin: round; stroke-linecap: butt}</style>
 </defs>
 <g id="figure_1">
  <g id="patch_1">
   <path d="M 0 349.632 
L 419.904 349.632 
L 419.904 -0 
L 0 -0 
z
" style="fill: #ffffff"/>
  </g>
  <g id="axes_1">
   <g id="patch_2">
    <path d="M 55.584 152.64 
L 217.911273 152.64 
L 217.911273 41.76 
L 55.584 41.76 
z
" style="fill: #ffffff"/>
   </g>
   <g id="matplotlib.axis_1">
    <g id="xtick_1">
     <g id="line2d_1">
      <defs>
       <path id="md274774b3f" d="M 0 0 
L 0 3.5 
" style="stroke: #000000; stroke-width: 0.8"/>
      </defs>
      <g>
       <use xlink:href="#md274774b3f" x="62.962512" y="152.64" style="stroke: #000000; stroke-width: 0.8"/>
      </g>
     </g>
     <g id="text_1">
      <!-- 0 -->
      <g transform="translate(59.781262 167.238437) scale(0.1 -0.1)">
       <defs>
        <path id="DejaVuSans-30" d="M 2034 4250 
Q 1547 4250 1301 3770 
Q 1056 3291 1056 2328 
Q 1056 1369 1301 889 
Q 1547 409 2034 409 
Q 2525 409 2770 889 
Q 3016 1369 3016 2328 
Q 3016 3291 2770 3770 
Q 2525 4250 2034 4250 
z
M 2034 4750 
Q 2819 4750 3233 4129 
Q 3647 3509 3647 2328 
Q 3647 1150 3233 529 
Q 2819 -91 2034 -91 
Q 1250 -91 836 529 
Q 422 1150 422 2328 
Q 422 3509 836 4129 
Q 1250 4750 2034 4750 
z
" transform="scale(0.015625)"/>
       </defs>
       <use xlink:href="#DejaVuSans-30"/>
      </g>
     </g>
    </g>
    <g id="xtick_2">
     <g id="line2d_2">
      <g>
       <use xlink:href="#md274774b3f" x="118.966402" y="152.64" style="stroke: #000000; stroke-width: 0.8"/>
      </g>
     </g>
     <g id="text_2">
      <!-- 200 -->
      <g transform="translate(109.422652 167.238437) scale(0.1 -0.1)">
       <defs>
        <path id="DejaVuSans-32" d="M 1228 531 
L 3431 531 
L 3431 0 
L 469 0 
L 469 531 
Q 828 903 1448 1529 
Q 2069 2156 2228 2338 
Q 2531 2678 2651 2914 
Q 2772 3150 2772 3378 
Q 2772 3750 2511 3984 
Q 2250 4219 1831 4219 
Q 1534 4219 1204 4116 
Q 875 4013 500 3803 
L 500 4441 
Q 881 4594 1212 4672 
Q 1544 4750 1819 4750 
Q 2544 4750 2975 4387 
Q 3406 4025 3406 3419 
Q 3406 3131 3298 2873 
Q 3191 2616 2906 2266 
Q 2828 2175 2409 1742 
Q 1991 1309 1228 531 
z
" transform="scale(0.015625)"/>
       </defs>
       <use xlink:href="#DejaVuSans-32"/>
       <use xlink:href="#DejaVuSans-30" x="63.623047"/>
       <use xlink:href="#DejaVuSans-30" x="127.246094"/>
      </g>
     </g>
    </g>
    <g id="xtick_3">
     <g id="line2d_3">
      <g>
       <use xlink:href="#md274774b3f" x="174.970291" y="152.64" style="stroke: #000000; stroke-width: 0.8"/>
      </g>
     </g>
     <g id="text_3">
      <!-- 400 -->
      <g transform="translate(165.426541 167.238437) scale(0.1 -0.1)">
       <defs>
        <path id="DejaVuSans-34" d="M 2419 4116 
L 825 1625 
L 2419 1625 
L 2419 4116 
z
M 2253 4666 
L 3047 4666 
L 3047 1625 
L 3713 1625 
L 3713 1100 
L 3047 1100 
L 3047 0 
L 2419 0 
L 2419 1100 
L 313 1100 
L 313 1709 
L 2253 4666 
z
" transform="scale(0.015625)"/>
       </defs>
       <use xlink:href="#DejaVuSans-34"/>
       <use xlink:href="#DejaVuSans-30" x="63.623047"/>
       <use xlink:href="#DejaVuSans-30" x="127.246094"/>
      </g>
     </g>
    </g>
   </g>
   <g id="matplotlib.axis_2">
    <g id="ytick_1">
     <g id="line2d_4">
      <defs>
       <path id="m3dec92e9e4" d="M 0 0 
L -3.5 0 
" style="stroke: #000000; stroke-width: 0.8"/>
      </defs>
      <g>
       <use xlink:href="#m3dec92e9e4" x="55.584" y="152.162955" style="stroke: #000000; stroke-width: 0.8"/>
      </g>
     </g>
     <g id="text_4">
      <!-- 10 -->
      <g transform="translate(35.859 155.962173) scale(0.1 -0.1)">
       <defs>
        <path id="DejaVuSans-31" d="M 794 531 
L 1825 531 
L 1825 4091 
L 703 3866 
L 703 4441 
L 1819 4666 
L 2450 4666 
L 2450 531 
L 3481 531 
L 3481 0 
L 794 0 
L 794 531 
z
" transform="scale(0.015625)"/>
       </defs>
       <use xlink:href="#DejaVuSans-31"/>
       <use xlink:href="#DejaVuSans-30" x="63.623047"/>
      </g>
     </g>
    </g>
    <g id="ytick_2">
     <g id="line2d_5">
      <g>
       <use xlink:href="#m3dec92e9e4" x="55.584" y="124.930604" style="stroke: #000000; stroke-width: 0.8"/>
      </g>
     </g>
     <g id="text_5">
      <!-- 20 -->
      <g transform="translate(35.859 128.729823) scale(0.1 -0.1)">
       <use xlink:href="#DejaVuSans-32"/>
       <use xlink:href="#DejaVuSans-30" x="63.623047"/>
      </g>
     </g>
    </g>
    <g id="ytick_3">
     <g id="line2d_6">
      <g>
       <use xlink:href="#m3dec92e9e4" x="55.584" y="97.698254" style="stroke: #000000; stroke-width: 0.8"/>
      </g>
     </g>
     <g id="text_6">
      <!-- 30 -->
      <g transform="translate(35.859 101.497473) scale(0.1 -0.1)">
       <defs>
        <path id="DejaVuSans-33" d="M 2597 2516 
Q 3050 2419 3304 2112 
Q 3559 1806 3559 1356 
Q 3559 666 3084 287 
Q 2609 -91 1734 -91 
Q 1441 -91 1130 -33 
Q 819 25 488 141 
L 488 750 
Q 750 597 1062 519 
Q 1375 441 1716 441 
Q 2309 441 2620 675 
Q 2931 909 2931 1356 
Q 2931 1769 2642 2001 
Q 2353 2234 1838 2234 
L 1294 2234 
L 1294 2753 
L 1863 2753 
Q 2328 2753 2575 2939 
Q 2822 3125 2822 3475 
Q 2822 3834 2567 4026 
Q 2313 4219 1838 4219 
Q 1578 4219 1281 4162 
Q 984 4106 628 3988 
L 628 4550 
Q 988 4650 1302 4700 
Q 1616 4750 1894 4750 
Q 2613 4750 3031 4423 
Q 3450 4097 3450 3541 
Q 3450 3153 3228 2886 
Q 3006 2619 2597 2516 
z
" transform="scale(0.015625)"/>
       </defs>
       <use xlink:href="#DejaVuSans-33"/>
       <use xlink:href="#DejaVuSans-30" x="63.623047"/>
      </g>
     </g>
    </g>
    <g id="ytick_4">
     <g id="line2d_7">
      <g>
       <use xlink:href="#m3dec92e9e4" x="55.584" y="70.465904" style="stroke: #000000; stroke-width: 0.8"/>
      </g>
     </g>
     <g id="text_7">
      <!-- 40 -->
      <g transform="translate(35.859 74.265122) scale(0.1 -0.1)">
       <use xlink:href="#DejaVuSans-34"/>
       <use xlink:href="#DejaVuSans-30" x="63.623047"/>
      </g>
     </g>
    </g>
    <g id="ytick_5">
     <g id="line2d_8">
      <g>
       <use xlink:href="#m3dec92e9e4" x="55.584" y="43.233553" style="stroke: #000000; stroke-width: 0.8"/>
      </g>
     </g>
     <g id="text_8">
      <!-- 50 -->
      <g transform="translate(35.859 47.032772) scale(0.1 -0.1)">
       <defs>
        <path id="DejaVuSans-35" d="M 691 4666 
L 3169 4666 
L 3169 4134 
L 1269 4134 
L 1269 2991 
Q 1406 3038 1543 3061 
Q 1681 3084 1819 3084 
Q 2600 3084 3056 2656 
Q 3513 2228 3513 1497 
Q 3513 744 3044 326 
Q 2575 -91 1722 -91 
Q 1428 -91 1123 -41 
Q 819 9 494 109 
L 494 744 
Q 775 591 1075 516 
Q 1375 441 1709 441 
Q 2250 441 2565 725 
Q 2881 1009 2881 1497 
Q 2881 1984 2565 2268 
Q 2250 2553 1709 2553 
Q 1456 2553 1204 2497 
Q 953 2441 691 2322 
L 691 4666 
z
" transform="scale(0.015625)"/>
       </defs>
       <use xlink:href="#DejaVuSans-35"/>
       <use xlink:href="#DejaVuSans-30" x="63.623047"/>
      </g>
     </g>
    </g>
   </g>
   <g id="line2d_9">
    <path d="M 62.962512 50.489028 
L 63.242532 46.8 
L 63.522551 50.993853 
L 64.08259 69.614076 
L 64.36261 70.442944 
L 64.642629 72.546684 
L 65.202668 70.83613 
L 65.482687 68.345789 
L 65.762707 67.036338 
L 66.042726 66.925309 
L 66.322746 67.690004 
L 66.602765 66.273769 
L 67.442824 66.181795 
L 67.722843 61.899682 
L 68.002862 60.325813 
L 68.282882 65.854525 
L 68.562901 67.259071 
L 68.842921 65.149005 
L 69.12294 68.656355 
L 69.40296 64.020374 
L 69.682979 61.48651 
L 70.243018 88.677091 
L 70.523037 103.269367 
L 70.803057 110.881944 
L 71.083076 110.439282 
L 71.363096 104.548511 
L 71.643115 96.083781 
L 71.923135 100.540315 
L 72.203154 95.526784 
L 72.483174 95.830139 
L 72.763193 98.317447 
L 73.043212 104.125358 
L 73.323232 101.869169 
L 73.603251 91.542144 
L 73.883271 89.683912 
L 74.16329 85.96997 
L 74.44331 87.557482 
L 74.723329 100.515209 
L 75.003349 102.183218 
L 75.283368 106.922428 
L 75.563387 98.978757 
L 75.843407 99.556786 
L 76.123426 97.144288 
L 76.963485 75.026748 
L 77.243504 77.882931 
L 77.803543 86.280634 
L 78.083562 87.104543 
L 78.923621 100.933324 
L 79.20364 97.977701 
L 79.48366 100.447964 
L 79.763679 96.440095 
L 80.043699 94.469445 
L 80.323718 95.61841 
L 80.603737 97.467136 
L 80.883757 94.180777 
L 81.163776 95.259297 
L 81.723815 99.308405 
L 82.283854 106.144452 
L 82.563874 107.59299 
L 82.843893 107.337855 
L 83.123912 106.66908 
L 83.403932 105.215611 
L 83.963971 89.127027 
L 84.24399 92.908468 
L 84.52401 92.869871 
L 84.804029 89.297529 
L 85.084049 88.610854 
L 85.364068 87.222533 
L 85.644088 86.901343 
L 85.924107 83.192104 
L 86.204126 82.402842 
L 86.484146 78.268645 
L 87.044185 90.71637 
L 87.324204 90.426726 
L 87.884243 95.577208 
L 88.444282 57.98947 
L 88.724301 53.604297 
L 89.004321 51.056626 
L 89.28434 51.55232 
L 89.56436 58.120935 
L 89.844379 70.923859 
L 90.124399 76.892725 
L 90.684438 82.152789 
L 90.964457 67.89334 
L 91.244476 65.726998 
L 91.804515 74.611721 
L 92.084535 75.538403 
L 92.364554 72.585923 
L 92.644574 73.66342 
L 93.204613 79.525979 
L 93.484632 86.892068 
L 94.044671 93.711727 
L 94.60471 95.453671 
L 94.884729 92.055997 
L 95.164749 91.3682 
L 95.444768 89.957853 
L 95.724788 89.502414 
L 96.004807 81.891356 
L 96.284826 77.950824 
L 96.564846 84.304853 
L 96.844865 84.253016 
L 97.124885 75.33212 
L 97.404904 76.891625 
L 97.684924 77.457908 
L 97.964943 80.024069 
L 98.244963 80.710324 
L 98.524982 84.424471 
L 98.805001 83.147413 
L 99.085021 83.315298 
L 99.64506 73.799064 
L 99.925079 73.204032 
L 100.205099 71.95154 
L 100.485118 81.236176 
L 100.765138 83.008471 
L 101.045157 85.615631 
L 101.325176 83.08425 
L 101.885215 90.97014 
L 102.165235 100.353561 
L 102.445254 102.692482 
L 102.725274 103.835748 
L 103.005293 106.100826 
L 103.285313 105.604895 
L 103.565332 110.822006 
L 103.845351 110.464946 
L 104.125371 108.884585 
L 104.40539 108.026096 
L 104.965429 101.446384 
L 105.245449 102.447761 
L 105.525468 108.592469 
L 106.365526 90.645672 
L 107.205585 115.889736 
L 107.485604 115.129112 
L 107.765624 116.300237 
L 108.045643 113.172098 
L 108.325663 108.580089 
L 108.605682 106.032274 
L 108.885702 108.499495 
L 109.165721 104.079317 
L 109.44574 104.403558 
L 109.72576 101.027629 
L 110.005779 102.92604 
L 110.565818 97.620375 
L 111.125857 100.05748 
L 111.405877 90.663642 
L 111.685896 97.493401 
L 111.965915 92.845956 
L 112.245935 93.348529 
L 112.525954 86.506452 
L 112.805974 91.158021 
L 113.085993 89.800061 
L 113.366013 93.978375 
L 113.646032 90.886869 
L 113.926052 86.329635 
L 114.206071 92.342179 
L 114.48609 89.502095 
L 114.76611 81.915225 
L 115.046129 87.432233 
L 115.326149 96.001248 
L 115.606168 93.222062 
L 115.886188 94.613782 
L 116.446227 101.332746 
L 116.726246 97.710628 
L 117.006265 104.011848 
L 117.286285 106.123796 
L 117.566304 107.325462 
L 117.846324 113.530236 
L 118.126343 114.458744 
L 118.406363 120.719541 
L 118.686382 117.729774 
L 118.966402 117.226368 
L 119.246421 116.311236 
L 119.52644 114.402907 
L 119.80646 110.019027 
L 120.366499 98.181906 
L 120.646518 97.846469 
L 120.926538 93.058953 
L 121.206557 92.71792 
L 121.486577 88.89513 
L 122.046615 94.857667 
L 122.326635 93.48026 
L 122.606654 93.626399 
L 122.886674 103.919433 
L 123.446713 110.215065 
L 123.726732 111.908723 
L 124.006752 115.088729 
L 124.286771 103.998864 
L 124.56679 87.989134 
L 125.126829 97.400724 
L 125.686868 90.989535 
L 125.966888 91.754235 
L 126.246907 94.658508 
L 126.526927 95.578779 
L 126.806946 95.361615 
L 127.086965 92.498179 
L 127.366985 86.796316 
L 127.647004 83.810741 
L 127.927024 78.4732 
L 128.207043 79.968221 
L 128.487063 78.207571 
L 128.767082 84.991683 
L 129.047102 84.956264 
L 129.327121 79.485887 
L 129.60714 80.447135 
L 129.88716 79.416213 
L 130.167179 85.929783 
L 130.727218 90.974551 
L 131.007238 84.968824 
L 131.287257 86.415445 
L 131.567277 85.006108 
L 132.127316 99.183403 
L 132.407335 96.595243 
L 132.687354 95.779095 
L 132.967374 100.064604 
L 133.247393 99.40454 
L 133.527413 95.222692 
L 133.807432 103.547221 
L 134.087452 105.028407 
L 134.367471 99.387123 
L 134.647491 98.741474 
L 135.207529 103.78607 
L 135.487549 110.890961 
L 135.767568 111.776216 
L 136.327607 105.044406 
L 136.607627 102.212414 
L 136.887646 101.941125 
L 137.167666 101.914522 
L 137.447685 102.393667 
L 138.007724 95.91341 
L 138.287743 99.095856 
L 138.847782 93.61097 
L 139.127802 96.741688 
L 139.407821 94.59363 
L 139.687841 89.940071 
L 139.96786 87.570788 
L 140.247879 94.879956 
L 140.527899 90.486575 
L 140.807918 102.121286 
L 141.087938 103.806304 
L 141.367957 106.374277 
L 141.647977 107.040753 
L 141.927996 109.214649 
L 142.208016 112.804529 
L 142.768054 106.448605 
L 143.048074 113.202521 
L 143.328093 125.560883 
L 143.608113 124.859778 
L 143.888132 126.874117 
L 144.168152 124.350149 
L 144.728191 108.924415 
L 145.00821 115.182101 
L 145.568249 117.572867 
L 145.848268 114.310511 
L 146.128288 107.512488 
L 146.408307 108.974522 
L 146.688327 115.921021 
L 146.968346 115.201134 
L 147.528385 107.490348 
L 147.808404 109.618905 
L 148.088424 103.570663 
L 148.368443 105.606744 
L 148.648463 105.631277 
L 148.928482 105.255509 
L 149.208502 105.370751 
L 149.488521 105.880535 
L 149.768541 109.769222 
L 150.04856 106.747774 
L 150.328579 96.231315 
L 150.608599 104.062705 
L 150.888618 102.993489 
L 151.168638 100.02028 
L 151.728677 89.213574 
L 152.008696 91.378543 
L 152.848754 101.543824 
L 153.128774 101.305587 
L 153.408793 102.48566 
L 153.688813 93.955026 
L 153.968832 93.995512 
L 154.528871 86.273207 
L 154.808891 85.681576 
L 155.08891 90.222628 
L 155.36893 85.214179 
L 155.648949 87.103358 
L 155.928968 95.287363 
L 156.208988 97.252362 
L 156.489007 94.648794 
L 156.769027 96.449305 
L 157.049046 101.180013 
L 157.329066 100.556817 
L 157.609085 97.01473 
L 157.889105 99.130874 
L 158.169124 96.049379 
L 158.449143 94.943075 
L 158.729163 95.149115 
L 159.009182 99.006368 
L 159.569221 93.690379 
L 159.849241 87.668514 
L 160.40928 100.046638 
L 160.689299 97.640513 
L 160.969318 90.156611 
L 161.249338 94.991759 
L 161.529357 90.365159 
L 161.809377 103.699262 
L 162.089396 107.096326 
L 162.369416 116.017745 
L 162.649435 115.765001 
L 162.929455 116.839789 
L 163.209474 114.020159 
L 163.769513 105.419094 
L 164.049532 103.507004 
L 164.329552 104.43383 
L 164.889591 107.668739 
L 165.44963 112.110409 
L 165.729649 112.546845 
L 166.009668 110.456893 
L 166.289688 104.960476 
L 166.569707 108.907492 
L 166.849727 104.514141 
L 167.129746 102.606637 
L 167.409766 102.449975 
L 167.689785 100.04888 
L 167.969805 103.119047 
L 168.249824 104.208008 
L 168.529843 104.100528 
L 169.369902 110.239075 
L 169.649921 108.067399 
L 169.929941 109.695676 
L 170.20996 103.027922 
L 170.48998 101.416262 
L 170.769999 104.355491 
L 171.050018 103.098421 
L 171.330038 105.405232 
L 171.610057 104.89458 
L 171.890077 106.011544 
L 172.170096 107.721586 
L 172.450116 106.762403 
L 172.730135 104.816221 
L 173.010155 103.704177 
L 173.290174 106.919057 
L 173.570193 105.405796 
L 173.850213 108.392202 
L 174.130232 104.368884 
L 174.410252 104.529326 
L 174.690271 108.167796 
L 174.970291 102.438753 
L 175.25031 111.485595 
L 175.53033 113.430372 
L 175.810349 109.862694 
L 176.090368 110.599836 
L 176.370388 109.302912 
L 176.650407 95.75824 
L 177.210446 129.576743 
L 177.490466 130.834 
L 177.770485 138.46164 
L 178.050505 140.893347 
L 178.330524 141.260516 
L 178.890563 144.176444 
L 179.450602 142.977731 
L 179.730621 143.068235 
L 180.010641 146.155645 
L 180.29066 147.6 
L 180.57068 146.271034 
L 180.850699 147.216876 
L 181.410738 146.01642 
L 181.690757 140.948558 
L 181.970777 140.273379 
L 182.250796 134.183261 
L 182.530816 134.445168 
L 182.810835 129.102832 
L 183.090855 129.332839 
L 183.370874 126.831199 
L 183.650894 130.016698 
L 183.930913 127.853834 
L 184.210932 130.335145 
L 184.490952 129.630178 
L 184.770971 127.152944 
L 185.33101 114.343203 
L 185.61103 111.938584 
L 185.891049 110.907793 
L 186.171069 110.486021 
L 186.731107 97.290493 
L 187.291146 92.783801 
L 187.851185 80.575778 
L 188.131205 77.123897 
L 188.411224 88.200141 
L 188.691244 81.876294 
L 188.971263 89.172426 
L 189.251282 78.356747 
L 189.811321 86.123424 
L 190.091341 96.129831 
L 190.37136 88.268203 
L 190.65138 90.913308 
L 191.211419 101.357724 
L 191.491438 108.007667 
L 191.771457 118.087101 
L 192.051477 115.946554 
L 192.331496 116.482339 
L 192.611516 114.778923 
L 192.891535 117.161351 
L 193.171555 112.31149 
L 193.451574 114.318065 
L 193.731594 113.395011 
L 194.011613 118.392476 
L 194.291632 119.394752 
L 194.571652 116.892385 
L 195.131691 125.342597 
L 195.41171 124.796934 
L 195.69173 122.461319 
L 195.971749 121.176159 
L 196.251769 121.613385 
L 196.811807 111.572058 
L 197.091827 118.587964 
L 197.371846 112.111259 
L 197.651866 97.94267 
L 197.931885 103.996402 
L 198.211905 100.608684 
L 198.491924 103.535413 
L 199.051963 95.585078 
L 199.331982 99.794265 
L 199.612002 95.091927 
L 199.892021 95.921594 
L 200.172041 95.873101 
L 200.45206 91.301236 
L 200.73208 95.75394 
L 201.012099 85.80898 
L 201.292119 90.636854 
L 201.572138 83.045776 
L 201.852158 85.18714 
L 202.692216 95.750506 
L 202.972235 102.624063 
L 203.252255 105.722386 
L 203.532274 114.442754 
L 203.812294 115.725465 
L 204.092313 116.169029 
L 204.372333 118.578196 
L 204.652352 118.078711 
L 204.932371 115.129616 
L 205.212391 119.592514 
L 205.49241 116.635265 
L 205.77243 115.078656 
L 206.052449 114.78593 
L 206.332469 117.099798 
L 206.612488 114.58007 
L 206.892508 118.426506 
L 207.172527 115.92183 
L 207.452546 120.582728 
L 207.732566 118.635702 
L 208.012585 111.555923 
L 208.292605 100.877595 
L 208.572624 100.310035 
L 208.852644 116.266697 
L 209.132663 113.735107 
L 209.692702 135.314261 
L 209.972721 142.76714 
L 210.252741 132.547084 
L 210.53276 134.014072 
L 210.53276 134.014072 
" clip-path="url(#p906de009db)" style="fill: none; stroke: #008000; stroke-width: 1.5; stroke-linecap: square"/>
   </g>
   <g id="patch_3">
    <path d="M 55.584 152.64 
L 55.584 41.76 
" style="fill: none; stroke: #000000; stroke-width: 0.8; stroke-linejoin: miter; stroke-linecap: square"/>
   </g>
   <g id="patch_4">
    <path d="M 217.911273 152.64 
L 217.911273 41.76 
" style="fill: none; stroke: #000000; stroke-width: 0.8; stroke-linejoin: miter; stroke-linecap: square"/>
   </g>
   <g id="patch_5">
    <path d="M 55.584 152.64 
L 217.911273 152.64 
" style="fill: none; stroke: #000000; stroke-width: 0.8; stroke-linejoin: miter; stroke-linecap: square"/>
   </g>
   <g id="patch_6">
    <path d="M 55.584 41.76 
L 217.911273 41.76 
" style="fill: none; stroke: #000000; stroke-width: 0.8; stroke-linejoin: miter; stroke-linecap: square"/>
   </g>
   <g id="text_9">
    <!-- No Prediction (FOSS) -->
    <g transform="translate(74.495761 35.76) scale(0.12 -0.12)">
     <defs>
      <path id="DejaVuSans-4e" d="M 628 4666 
L 1478 4666 
L 3547 763 
L 3547 4666 
L 4159 4666 
L 4159 0 
L 3309 0 
L 1241 3903 
L 1241 0 
L 628 0 
L 628 4666 
z
" transform="scale(0.015625)"/>
      <path id="DejaVuSans-6f" d="M 1959 3097 
Q 1497 3097 1228 2736 
Q 959 2375 959 1747 
Q 959 1119 1226 758 
Q 1494 397 1959 397 
Q 2419 397 2687 759 
Q 2956 1122 2956 1747 
Q 2956 2369 2687 2733 
Q 2419 3097 1959 3097 
z
M 1959 3584 
Q 2709 3584 3137 3096 
Q 3566 2609 3566 1747 
Q 3566 888 3137 398 
Q 2709 -91 1959 -91 
Q 1206 -91 779 398 
Q 353 888 353 1747 
Q 353 2609 779 3096 
Q 1206 3584 1959 3584 
z
" transform="scale(0.015625)"/>
      <path id="DejaVuSans-20" transform="scale(0.015625)"/>
      <path id="DejaVuSans-50" d="M 1259 4147 
L 1259 2394 
L 2053 2394 
Q 2494 2394 2734 2622 
Q 2975 2850 2975 3272 
Q 2975 3691 2734 3919 
Q 2494 4147 2053 4147 
L 1259 4147 
z
M 628 4666 
L 2053 4666 
Q 2838 4666 3239 4311 
Q 3641 3956 3641 3272 
Q 3641 2581 3239 2228 
Q 2838 1875 2053 1875 
L 1259 1875 
L 1259 0 
L 628 0 
L 628 4666 
z
" transform="scale(0.015625)"/>
      <path id="DejaVuSans-72" d="M 2631 2963 
Q 2534 3019 2420 3045 
Q 2306 3072 2169 3072 
Q 1681 3072 1420 2755 
Q 1159 2438 1159 1844 
L 1159 0 
L 581 0 
L 581 3500 
L 1159 3500 
L 1159 2956 
Q 1341 3275 1631 3429 
Q 1922 3584 2338 3584 
Q 2397 3584 2469 3576 
Q 2541 3569 2628 3553 
L 2631 2963 
z
" transform="scale(0.015625)"/>
      <path id="DejaVuSans-65" d="M 3597 1894 
L 3597 1613 
L 953 1613 
Q 991 1019 1311 708 
Q 1631 397 2203 397 
Q 2534 397 2845 478 
Q 3156 559 3463 722 
L 3463 178 
Q 3153 47 2828 -22 
Q 2503 -91 2169 -91 
Q 1331 -91 842 396 
Q 353 884 353 1716 
Q 353 2575 817 3079 
Q 1281 3584 2069 3584 
Q 2775 3584 3186 3129 
Q 3597 2675 3597 1894 
z
M 3022 2063 
Q 3016 2534 2758 2815 
Q 2500 3097 2075 3097 
Q 1594 3097 1305 2825 
Q 1016 2553 972 2059 
L 3022 2063 
z
" transform="scale(0.015625)"/>
      <path id="DejaVuSans-64" d="M 2906 2969 
L 2906 4863 
L 3481 4863 
L 3481 0 
L 2906 0 
L 2906 525 
Q 2725 213 2448 61 
Q 2172 -91 1784 -91 
Q 1150 -91 751 415 
Q 353 922 353 1747 
Q 353 2572 751 3078 
Q 1150 3584 1784 3584 
Q 2172 3584 2448 3432 
Q 2725 3281 2906 2969 
z
M 947 1747 
Q 947 1113 1208 752 
Q 1469 391 1925 391 
Q 2381 391 2643 752 
Q 2906 1113 2906 1747 
Q 2906 2381 2643 2742 
Q 2381 3103 1925 3103 
Q 1469 3103 1208 2742 
Q 947 2381 947 1747 
z
" transform="scale(0.015625)"/>
      <path id="DejaVuSans-69" d="M 603 3500 
L 1178 3500 
L 1178 0 
L 603 0 
L 603 3500 
z
M 603 4863 
L 1178 4863 
L 1178 4134 
L 603 4134 
L 603 4863 
z
" transform="scale(0.015625)"/>
      <path id="DejaVuSans-63" d="M 3122 3366 
L 3122 2828 
Q 2878 2963 2633 3030 
Q 2388 3097 2138 3097 
Q 1578 3097 1268 2742 
Q 959 2388 959 1747 
Q 959 1106 1268 751 
Q 1578 397 2138 397 
Q 2388 397 2633 464 
Q 2878 531 3122 666 
L 3122 134 
Q 2881 22 2623 -34 
Q 2366 -91 2075 -91 
Q 1284 -91 818 406 
Q 353 903 353 1747 
Q 353 2603 823 3093 
Q 1294 3584 2113 3584 
Q 2378 3584 2631 3529 
Q 2884 3475 3122 3366 
z
" transform="scale(0.015625)"/>
      <path id="DejaVuSans-74" d="M 1172 4494 
L 1172 3500 
L 2356 3500 
L 2356 3053 
L 1172 3053 
L 1172 1153 
Q 1172 725 1289 603 
Q 1406 481 1766 481 
L 2356 481 
L 2356 0 
L 1766 0 
Q 1100 0 847 248 
Q 594 497 594 1153 
L 594 3053 
L 172 3053 
L 172 3500 
L 594 3500 
L 594 4494 
L 1172 4494 
z
" transform="scale(0.015625)"/>
      <path id="DejaVuSans-6e" d="M 3513 2113 
L 3513 0 
L 2938 0 
L 2938 2094 
Q 2938 2591 2744 2837 
Q 2550 3084 2163 3084 
Q 1697 3084 1428 2787 
Q 1159 2491 1159 1978 
L 1159 0 
L 581 0 
L 581 3500 
L 1159 3500 
L 1159 2956 
Q 1366 3272 1645 3428 
Q 1925 3584 2291 3584 
Q 2894 3584 3203 3211 
Q 3513 2838 3513 2113 
z
" transform="scale(0.015625)"/>
      <path id="DejaVuSans-28" d="M 1984 4856 
Q 1566 4138 1362 3434 
Q 1159 2731 1159 2009 
Q 1159 1288 1364 580 
Q 1569 -128 1984 -844 
L 1484 -844 
Q 1016 -109 783 600 
Q 550 1309 550 2009 
Q 550 2706 781 3412 
Q 1013 4119 1484 4856 
L 1984 4856 
z
" transform="scale(0.015625)"/>
      <path id="DejaVuSans-46" d="M 628 4666 
L 3309 4666 
L 3309 4134 
L 1259 4134 
L 1259 2759 
L 3109 2759 
L 3109 2228 
L 1259 2228 
L 1259 0 
L 628 0 
L 628 4666 
z
" transform="scale(0.015625)"/>
      <path id="DejaVuSans-4f" d="M 2522 4238 
Q 1834 4238 1429 3725 
Q 1025 3213 1025 2328 
Q 1025 1447 1429 934 
Q 1834 422 2522 422 
Q 3209 422 3611 934 
Q 4013 1447 4013 2328 
Q 4013 3213 3611 3725 
Q 3209 4238 2522 4238 
z
M 2522 4750 
Q 3503 4750 4090 4092 
Q 4678 3434 4678 2328 
Q 4678 1225 4090 567 
Q 3503 -91 2522 -91 
Q 1538 -91 948 565 
Q 359 1222 359 2328 
Q 359 3434 948 4092 
Q 1538 4750 2522 4750 
z
" transform="scale(0.015625)"/>
      <path id="DejaVuSans-53" d="M 3425 4513 
L 3425 3897 
Q 3066 4069 2747 4153 
Q 2428 4238 2131 4238 
Q 1616 4238 1336 4038 
Q 1056 3838 1056 3469 
Q 1056 3159 1242 3001 
Q 1428 2844 1947 2747 
L 2328 2669 
Q 3034 2534 3370 2195 
Q 3706 1856 3706 1288 
Q 3706 609 3251 259 
Q 2797 -91 1919 -91 
Q 1588 -91 1214 -16 
Q 841 59 441 206 
L 441 856 
Q 825 641 1194 531 
Q 1563 422 1919 422 
Q 2459 422 2753 634 
Q 3047 847 3047 1241 
Q 3047 1584 2836 1778 
Q 2625 1972 2144 2069 
L 1759 2144 
Q 1053 2284 737 2584 
Q 422 2884 422 3419 
Q 422 4038 858 4394 
Q 1294 4750 2059 4750 
Q 2388 4750 2728 4690 
Q 3069 4631 3425 4513 
z
" transform="scale(0.015625)"/>
      <path id="DejaVuSans-29" d="M 513 4856 
L 1013 4856 
Q 1481 4119 1714 3412 
Q 1947 2706 1947 2009 
Q 1947 1309 1714 600 
Q 1481 -109 1013 -844 
L 513 -844 
Q 928 -128 1133 580 
Q 1338 1288 1338 2009 
Q 1338 2731 1133 3434 
Q 928 4138 513 4856 
z
" transform="scale(0.015625)"/>
     </defs>
     <use xlink:href="#DejaVuSans-4e"/>
     <use xlink:href="#DejaVuSans-6f" x="74.804688"/>
     <use xlink:href="#DejaVuSans-20" x="135.986328"/>
     <use xlink:href="#DejaVuSans-50" x="167.773438"/>
     <use xlink:href="#DejaVuSans-72" x="226.326172"/>
     <use xlink:href="#DejaVuSans-65" x="265.189453"/>
     <use xlink:href="#DejaVuSans-64" x="326.712891"/>
     <use xlink:href="#DejaVuSans-69" x="390.189453"/>
     <use xlink:href="#DejaVuSans-63" x="417.972656"/>
     <use xlink:href="#DejaVuSans-74" x="472.953125"/>
     <use xlink:href="#DejaVuSans-69" x="512.162109"/>
     <use xlink:href="#DejaVuSans-6f" x="539.945312"/>
     <use xlink:href="#DejaVuSans-6e" x="601.126953"/>
     <use xlink:href="#DejaVuSans-20" x="664.505859"/>
     <use xlink:href="#DejaVuSans-28" x="696.292969"/>
     <use xlink:href="#DejaVuSans-46" x="735.306641"/>
     <use xlink:href="#DejaVuSans-4f" x="792.826172"/>
     <use xlink:href="#DejaVuSans-53" x="871.537109"/>
     <use xlink:href="#DejaVuSans-53" x="935.013672"/>
     <use xlink:href="#DejaVuSans-29" x="998.490234"/>
    </g>
   </g>
  </g>
  <g id="axes_2">
   <g id="patch_7">
    <path d="M 250.376727 152.64 
L 412.704 152.64 
L 412.704 41.76 
L 250.376727 41.76 
z
" style="fill: #ffffff"/>
   </g>
   <g id="matplotlib.axis_3">
    <g id="xtick_4">
     <g id="line2d_10">
      <g>
       <use xlink:href="#md274774b3f" x="257.75524" y="152.64" style="stroke: #000000; stroke-width: 0.8"/>
      </g>
     </g>
     <g id="text_10">
      <!-- 0 -->
      <g transform="translate(254.57399 167.238437) scale(0.1 -0.1)">
       <use xlink:href="#DejaVuSans-30"/>
      </g>
     </g>
    </g>
    <g id="xtick_5">
     <g id="line2d_11">
      <g>
       <use xlink:href="#md274774b3f" x="313.759129" y="152.64" style="stroke: #000000; stroke-width: 0.8"/>
      </g>
     </g>
     <g id="text_11">
      <!-- 200 -->
      <g transform="translate(304.215379 167.238437) scale(0.1 -0.1)">
       <use xlink:href="#DejaVuSans-32"/>
       <use xlink:href="#DejaVuSans-30" x="63.623047"/>
       <use xlink:href="#DejaVuSans-30" x="127.246094"/>
      </g>
     </g>
    </g>
    <g id="xtick_6">
     <g id="line2d_12">
      <g>
       <use xlink:href="#md274774b3f" x="369.763018" y="152.64" style="stroke: #000000; stroke-width: 0.8"/>
      </g>
     </g>
     <g id="text_12">
      <!-- 400 -->
      <g transform="translate(360.219268 167.238437) scale(0.1 -0.1)">
       <use xlink:href="#DejaVuSans-34"/>
       <use xlink:href="#DejaVuSans-30" x="63.623047"/>
       <use xlink:href="#DejaVuSans-30" x="127.246094"/>
      </g>
     </g>
    </g>
   </g>
   <g id="matplotlib.axis_4">
    <g id="ytick_6">
     <g id="line2d_13">
      <g>
       <use xlink:href="#m3dec92e9e4" x="250.376727" y="147.6" style="stroke: #000000; stroke-width: 0.8"/>
      </g>
     </g>
     <g id="text_13">
      <!-- 0 -->
      <g transform="translate(237.014227 151.399219) scale(0.1 -0.1)">
       <use xlink:href="#DejaVuSans-30"/>
      </g>
     </g>
    </g>
    <g id="ytick_7">
     <g id="line2d_14">
      <g>
       <use xlink:href="#m3dec92e9e4" x="250.376727" y="106.192086" style="stroke: #000000; stroke-width: 0.8"/>
      </g>
     </g>
     <g id="text_14">
      <!-- 20 -->
      <g transform="translate(230.651727 109.991304) scale(0.1 -0.1)">
       <use xlink:href="#DejaVuSans-32"/>
       <use xlink:href="#DejaVuSans-30" x="63.623047"/>
      </g>
     </g>
    </g>
    <g id="ytick_8">
     <g id="line2d_15">
      <g>
       <use xlink:href="#m3dec92e9e4" x="250.376727" y="64.784171" style="stroke: #000000; stroke-width: 0.8"/>
      </g>
     </g>
     <g id="text_15">
      <!-- 40 -->
      <g transform="translate(230.651727 68.58339) scale(0.1 -0.1)">
       <use xlink:href="#DejaVuSans-34"/>
       <use xlink:href="#DejaVuSans-30" x="63.623047"/>
      </g>
     </g>
    </g>
   </g>
   <g id="line2d_16">
    <path d="M 257.75524 49.592113 
L 258.035259 46.8 
L 258.315279 49.968314 
L 258.875317 64.133303 
L 259.155337 64.75932 
L 259.435356 66.362171 
L 259.995395 65.147439 
L 260.275415 63.175178 
L 260.555434 62.174011 
L 260.835454 62.089423 
L 261.115473 103.424828 
L 261.395492 122.193495 
L 261.675512 99.523482 
L 261.955531 115.917966 
L 262.235551 123.240629 
L 262.51557 106.35237 
L 262.79559 99.910648 
L 263.075609 107.783013 
L 263.355629 111.845941 
L 263.635648 118.568477 
L 263.915667 117.663059 
L 264.195687 122.255305 
L 264.475706 57.967524 
L 265.035745 78.651384 
L 265.315765 89.71298 
L 265.595784 95.519109 
L 265.875804 95.169935 
L 266.155823 90.680114 
L 266.435842 84.253396 
L 266.715862 87.637891 
L 266.995881 83.85198 
L 267.275901 84.068965 
L 267.55592 85.959901 
L 267.83594 136.911584 
L 268.115959 129.935692 
L 268.395979 147.6 
L 268.675998 142.042468 
L 268.956018 143.786973 
L 269.236037 147.6 
L 270.916154 147.6 
L 271.196173 79.332621 
L 271.476193 72.347126 
L 271.756212 68.253246 
L 272.036231 70.434219 
L 272.59627 76.575584 
L 272.87629 77.440739 
L 273.716348 87.901661 
L 273.996368 85.689363 
L 274.276387 87.575595 
L 274.556406 147.6 
L 277.63662 147.6 
L 277.91664 92.315991 
L 278.196659 91.199054 
L 278.756698 78.966931 
L 279.036718 81.827234 
L 279.316737 81.820124 
L 279.596756 79.104968 
L 279.876776 78.579079 
L 280.156795 77.525995 
L 280.436815 77.244989 
L 280.716834 74.45711 
L 280.996854 73.863989 
L 281.276873 141.766304 
L 281.556893 147.6 
L 283.237009 147.6 
L 283.517029 137.650914 
L 283.797048 108.310411 
L 284.077068 97.691202 
L 284.357087 127.921669 
L 284.637106 65.143209 
L 284.917126 69.676324 
L 285.477165 73.671312 
L 285.757184 62.812807 
L 286.037204 61.196745 
L 286.597243 67.973227 
L 286.877262 68.64701 
L 287.157281 66.482937 
L 287.437301 67.209327 
L 287.71732 69.215922 
L 287.99734 140.795307 
L 288.277359 140.310137 
L 288.837398 134.650362 
L 289.117418 123.963234 
L 289.397437 138.078281 
L 289.677456 137.460713 
L 290.237495 147.6 
L 291.077554 147.6 
L 291.357573 75.312486 
L 291.637593 75.257204 
L 291.917612 68.48806 
L 292.197632 69.668697 
L 292.477651 70.111258 
L 292.75767 72.048269 
L 293.03769 72.551114 
L 293.317709 75.385281 
L 293.597729 74.424702 
L 293.877748 74.569816 
L 294.437787 67.320775 
L 294.717807 136.870019 
L 294.997826 143.567923 
L 295.277845 88.860445 
L 295.557865 128.570357 
L 295.837884 144.016619 
L 296.117904 142.130555 
L 296.677943 147.6 
L 297.79802 147.6 
L 298.07804 91.49034 
L 298.358059 95.468235 
L 298.638079 95.194605 
L 298.918098 93.98672 
L 299.198118 93.325556 
L 299.758157 88.331128 
L 300.038176 89.091021 
L 300.318195 93.762871 
L 301.158254 80.127901 
L 301.438273 147.6 
L 304.518487 147.6 
L 304.798507 89.463386 
L 305.358545 85.432261 
L 305.918584 87.268681 
L 306.198604 80.134903 
L 306.478623 85.340439 
L 306.758643 81.80889 
L 307.038662 81.503093 
L 307.318682 76.979169 
L 307.598701 80.518926 
L 307.87872 79.462066 
L 308.718779 143.834244 
L 308.998798 123.458569 
L 309.278818 123.295407 
L 309.558837 123.807052 
L 309.838857 135.457442 
L 310.118876 139.204775 
L 310.398895 138.898727 
L 310.958934 128.971039 
L 311.238954 135.853834 
L 311.518973 85.502056 
L 311.798993 90.309198 
L 312.079012 91.879179 
L 312.359032 92.800213 
L 312.639051 97.538095 
L 312.91907 98.233934 
L 313.19909 102.993335 
L 313.479109 100.723539 
L 313.759129 100.346791 
L 314.039148 99.639283 
L 314.319168 98.181412 
L 314.599187 94.850005 
L 314.879207 147.6 
L 315.159226 147.6 
L 315.439246 135.883194 
L 315.719265 98.229236 
L 315.999284 130.950507 
L 316.279304 147.6 
L 317.959421 147.6 
L 318.23944 95.005539 
L 318.519459 96.322948 
L 318.799479 98.71933 
L 319.079498 90.283527 
L 319.359518 78.100739 
L 319.919557 85.271126 
L 320.479596 80.382208 
L 320.759615 80.97249 
L 321.039634 83.167281 
L 321.319654 83.866986 
L 321.599673 147.6 
L 322.159712 147.6 
L 322.439732 142.234969 
L 322.719751 147.6 
L 322.999771 147.6 
L 323.27979 143.542672 
L 323.559809 132.756468 
L 323.839829 138.262913 
L 324.119848 137.922579 
L 324.399868 122.862496 
L 324.679887 131.110497 
L 324.959907 76.525448 
L 325.519946 80.380409 
L 325.799965 75.621465 
L 326.079984 76.880852 
L 326.360004 75.826072 
L 326.920043 86.618548 
L 327.200062 84.655389 
L 327.480082 84.026539 
L 327.760101 87.269387 
L 328.040121 86.803153 
L 328.32014 147.6 
L 331.400354 147.6 
L 331.680373 88.715397 
L 331.960393 88.666956 
L 332.240412 89.068863 
L 332.800451 84.104554 
L 333.080471 86.554026 
L 333.640509 83.032937 
L 333.920529 84.75773 
L 334.200548 83.190252 
L 334.480568 79.570774 
L 334.760587 77.790886 
L 335.040607 147.356534 
L 335.320626 147.6 
L 335.600646 141.016276 
L 336.160684 147.6 
L 338.120821 147.6 
L 338.40084 106.142293 
L 338.68086 107.665294 
L 338.960879 105.748147 
L 339.520918 94.013273 
L 339.800937 98.78152 
L 340.360976 100.603661 
L 340.640996 98.133348 
L 340.921015 92.968005 
L 341.201035 94.035347 
L 341.481054 99.356159 
L 341.761073 147.6 
L 342.041093 145.575793 
L 342.321112 119.749832 
L 342.601132 133.542839 
L 342.881151 137.615185 
L 343.161171 135.222243 
L 343.44119 130.50996 
L 343.72121 128.470405 
L 344.281248 147.6 
L 344.841287 147.6 
L 345.121307 84.381092 
L 345.401326 90.324968 
L 345.681346 89.592417 
L 345.961365 87.25505 
L 346.521404 79.03274 
L 346.801423 80.681162 
L 347.641482 88.41449 
L 347.921501 88.285858 
L 348.201521 89.127948 
L 348.48154 109.077487 
L 348.76156 114.981576 
L 349.041579 142.160068 
L 349.321598 126.681585 
L 349.601618 140.461414 
L 349.881637 147.6 
L 351.561754 147.6 
L 351.841773 88.22584 
L 352.121793 87.887645 
L 352.401812 84.967372 
L 352.681832 86.565469 
L 352.961851 84.242794 
L 353.241871 83.566806 
L 353.52189 83.5407 
L 353.80191 86.607821 
L 354.361948 82.439196 
L 354.641968 77.863244 
L 354.921987 83.265513 
L 355.202007 116.730613 
L 355.482026 130.415562 
L 356.042065 143.809544 
L 356.322085 144.775102 
L 356.602104 147.6 
L 358.282221 147.6 
L 358.56224 91.35563 
L 358.84226 89.795427 
L 359.122279 90.601946 
L 359.682318 93.068767 
L 360.242357 96.444791 
L 360.522376 96.778883 
L 360.802396 95.205386 
L 361.082415 91.008145 
L 361.362435 93.988527 
L 361.642454 90.739224 
L 361.922474 142.384247 
L 362.202493 147.6 
L 362.482512 147.6 
L 362.762532 139.687767 
L 363.042551 144.575839 
L 363.322571 142.69798 
L 363.60259 142.367808 
L 363.88261 144.258708 
L 364.162629 143.334705 
L 364.442649 132.846064 
L 365.002687 145.753758 
L 365.282707 88.309014 
L 365.562726 90.937648 
L 365.842746 89.579901 
L 366.122765 91.354584 
L 366.402785 90.956089 
L 366.682804 91.807419 
L 366.962824 93.088421 
L 367.242843 92.376853 
L 367.522862 90.880907 
L 367.802882 90.470894 
L 368.082901 92.500642 
L 368.362921 91.307475 
L 368.64294 137.371583 
L 368.92296 147.6 
L 371.723154 147.6 
L 372.003174 109.732761 
L 372.283193 110.67295 
L 372.563212 116.490253 
L 372.843232 118.32854 
L 373.123251 118.590779 
L 373.68329 120.81368 
L 374.243329 119.924302 
L 374.523349 119.959989 
L 374.803368 122.328357 
L 375.083387 123.439838 
L 375.363407 147.6 
L 375.643426 139.172841 
L 375.923446 142.758214 
L 376.203465 144.011903 
L 376.483485 144.411965 
L 376.763504 144.164474 
L 377.043524 144.956533 
L 377.323543 141.224245 
L 377.603562 144.608359 
L 377.883582 142.53116 
L 378.163601 143.024353 
L 378.443621 136.114426 
L 378.72364 108.422823 
L 379.00366 110.32142 
L 379.283679 109.766891 
L 379.563699 107.866104 
L 380.123737 98.152485 
L 380.403757 96.281698 
L 380.683776 95.536206 
L 380.963796 95.269976 
L 381.523835 85.177313 
L 381.803854 83.644547 
L 382.083874 147.6 
L 384.884068 147.6 
L 385.164088 145.492434 
L 385.444107 80.318164 
L 386.004146 88.251612 
L 386.284165 93.318862 
L 386.564185 100.991121 
L 386.844204 99.393289 
L 387.124224 99.759855 
L 387.404243 98.474723 
L 387.684263 100.294889 
L 387.964282 96.589934 
L 388.244301 98.130089 
L 388.524321 97.419769 
L 388.80434 147.6 
L 389.08436 144.343491 
L 389.364379 147.6 
L 389.644399 143.15979 
L 389.924418 143.842466 
L 390.204438 147.6 
L 391.884554 147.6 
L 392.164574 96.456354 
L 392.444593 85.643139 
L 392.724613 90.280264 
L 393.004632 87.69904 
L 393.284651 89.932063 
L 393.84469 83.883127 
L 394.12471 87.080576 
L 394.404729 83.500859 
L 394.684749 84.138326 
L 394.964768 84.109179 
L 395.244788 80.609487 
L 395.524807 147.6 
L 395.804826 138.42588 
L 396.084846 134.25172 
L 396.364865 127.000962 
L 396.644885 138.794379 
L 396.924904 139.996619 
L 397.204924 139.69379 
L 397.484943 147.6 
L 398.605021 147.6 
L 398.88504 99.524062 
L 399.16506 101.277142 
L 399.445079 100.993306 
L 399.725099 98.743477 
L 400.005118 102.132412 
L 400.285138 99.88542 
L 400.565157 98.702682 
L 400.845176 98.480224 
L 401.125196 100.238804 
L 401.405215 98.46234 
L 401.685235 101.240519 
L 401.965254 99.34277 
L 402.245274 145.254652 
L 402.525293 147.6 
L 402.805313 147.6 
L 403.085332 136.021175 
L 403.365351 141.287689 
L 403.645371 140.36053 
L 403.92539 141.630461 
L 404.20541 147.6 
L 404.485429 144.550386 
L 404.765449 138.075606 
L 405.325488 134.868994 
L 405.325488 134.868994 
" clip-path="url(#p8cb07410d8)" style="fill: none; stroke: #0000ff; stroke-width: 1.5; stroke-linecap: square"/>
   </g>
   <g id="patch_8">
    <path d="M 250.376727 152.64 
L 250.376727 41.76 
" style="fill: none; stroke: #000000; stroke-width: 0.8; stroke-linejoin: miter; stroke-linecap: square"/>
   </g>
   <g id="patch_9">
    <path d="M 412.704 152.64 
L 412.704 41.76 
" style="fill: none; stroke: #000000; stroke-width: 0.8; stroke-linejoin: miter; stroke-linecap: square"/>
   </g>
   <g id="patch_10">
    <path d="M 250.376727 152.64 
L 412.704 152.64 
" style="fill: none; stroke: #000000; stroke-width: 0.8; stroke-linejoin: miter; stroke-linecap: square"/>
   </g>
   <g id="patch_11">
    <path d="M 250.376727 41.76 
L 412.704 41.76 
" style="fill: none; stroke: #000000; stroke-width: 0.8; stroke-linejoin: miter; stroke-linecap: square"/>
   </g>
   <g id="text_16">
    <!-- RNN -->
    <g transform="translate(318.393801 35.76) scale(0.12 -0.12)">
     <defs>
      <path id="DejaVuSans-52" d="M 2841 2188 
Q 3044 2119 3236 1894 
Q 3428 1669 3622 1275 
L 4263 0 
L 3584 0 
L 2988 1197 
Q 2756 1666 2539 1819 
Q 2322 1972 1947 1972 
L 1259 1972 
L 1259 0 
L 628 0 
L 628 4666 
L 2053 4666 
Q 2853 4666 3247 4331 
Q 3641 3997 3641 3322 
Q 3641 2881 3436 2590 
Q 3231 2300 2841 2188 
z
M 1259 4147 
L 1259 2491 
L 2053 2491 
Q 2509 2491 2742 2702 
Q 2975 2913 2975 3322 
Q 2975 3731 2742 3939 
Q 2509 4147 2053 4147 
L 1259 4147 
z
" transform="scale(0.015625)"/>
     </defs>
     <use xlink:href="#DejaVuSans-52"/>
     <use xlink:href="#DejaVuSans-4e" x="69.482422"/>
     <use xlink:href="#DejaVuSans-4e" x="144.287109"/>
    </g>
   </g>
  </g>
  <g id="axes_3">
   <g id="patch_12">
    <path d="M 55.584 307.872 
L 217.911273 307.872 
L 217.911273 196.992 
L 55.584 196.992 
z
" style="fill: #ffffff"/>
   </g>
   <g id="matplotlib.axis_5">
    <g id="xtick_7">
     <g id="line2d_17">
      <g>
       <use xlink:href="#md274774b3f" x="62.962512" y="307.872" style="stroke: #000000; stroke-width: 0.8"/>
      </g>
     </g>
     <g id="text_17">
      <!-- 0 -->
      <g transform="translate(59.781262 322.470437) scale(0.1 -0.1)">
       <use xlink:href="#DejaVuSans-30"/>
      </g>
     </g>
    </g>
    <g id="xtick_8">
     <g id="line2d_18">
      <g>
       <use xlink:href="#md274774b3f" x="118.966402" y="307.872" style="stroke: #000000; stroke-width: 0.8"/>
      </g>
     </g>
     <g id="text_18">
      <!-- 200 -->
      <g transform="translate(109.422652 322.470437) scale(0.1 -0.1)">
       <use xlink:href="#DejaVuSans-32"/>
       <use xlink:href="#DejaVuSans-30" x="63.623047"/>
       <use xlink:href="#DejaVuSans-30" x="127.246094"/>
      </g>
     </g>
    </g>
    <g id="xtick_9">
     <g id="line2d_19">
      <g>
       <use xlink:href="#md274774b3f" x="174.970291" y="307.872" style="stroke: #000000; stroke-width: 0.8"/>
      </g>
     </g>
     <g id="text_19">
      <!-- 400 -->
      <g transform="translate(165.426541 322.470437) scale(0.1 -0.1)">
       <use xlink:href="#DejaVuSans-34"/>
       <use xlink:href="#DejaVuSans-30" x="63.623047"/>
       <use xlink:href="#DejaVuSans-30" x="127.246094"/>
      </g>
     </g>
    </g>
   </g>
   <g id="matplotlib.axis_6">
    <g id="ytick_9">
     <g id="line2d_20">
      <g>
       <use xlink:href="#m3dec92e9e4" x="55.584" y="302.832" style="stroke: #000000; stroke-width: 0.8"/>
      </g>
     </g>
     <g id="text_20">
      <!-- 0 -->
      <g transform="translate(42.2215 306.631219) scale(0.1 -0.1)">
       <use xlink:href="#DejaVuSans-30"/>
      </g>
     </g>
    </g>
    <g id="ytick_10">
     <g id="line2d_21">
      <g>
       <use xlink:href="#m3dec92e9e4" x="55.584" y="261.424086" style="stroke: #000000; stroke-width: 0.8"/>
      </g>
     </g>
     <g id="text_21">
      <!-- 20 -->
      <g transform="translate(35.859 265.223304) scale(0.1 -0.1)">
       <use xlink:href="#DejaVuSans-32"/>
       <use xlink:href="#DejaVuSans-30" x="63.623047"/>
      </g>
     </g>
    </g>
    <g id="ytick_11">
     <g id="line2d_22">
      <g>
       <use xlink:href="#m3dec92e9e4" x="55.584" y="220.016171" style="stroke: #000000; stroke-width: 0.8"/>
      </g>
     </g>
     <g id="text_22">
      <!-- 40 -->
      <g transform="translate(35.859 223.81539) scale(0.1 -0.1)">
       <use xlink:href="#DejaVuSans-34"/>
       <use xlink:href="#DejaVuSans-30" x="63.623047"/>
      </g>
     </g>
    </g>
   </g>
   <g id="line2d_23">
    <path d="M 62.962512 204.824113 
L 63.242532 202.032 
L 63.522551 205.200314 
L 64.08259 219.365303 
L 64.36261 219.99132 
L 64.642629 221.594171 
L 65.202668 220.379439 
L 65.482687 218.407178 
L 65.762707 217.406011 
L 66.042726 217.321423 
L 66.322746 288.162505 
L 66.602765 284.654346 
L 66.882785 285.082775 
L 67.162804 281.380348 
L 67.442824 280.592027 
L 68.002862 274.383614 
L 68.282882 281.073292 
L 68.562901 279.614543 
L 68.842921 288.517586 
L 69.12294 288.509044 
L 69.40296 295.475091 
L 69.682979 213.199524 
L 70.243018 233.883384 
L 70.523037 244.94498 
L 70.803057 250.751109 
L 71.083076 250.401935 
L 71.363096 245.912114 
L 71.643115 239.485396 
L 71.923135 242.869891 
L 72.203154 239.08398 
L 72.483174 239.300965 
L 72.763193 241.191901 
L 73.043212 284.061768 
L 73.603251 264.470151 
L 74.16329 282.268078 
L 74.44331 285.123647 
L 74.723329 302.832 
L 76.123426 302.832 
L 76.403446 234.564621 
L 76.683465 227.579126 
L 76.963485 223.485246 
L 77.243504 225.666219 
L 77.803543 231.807584 
L 78.083562 232.672739 
L 78.923621 243.133661 
L 79.20364 240.921363 
L 79.48366 242.807595 
L 79.763679 302.832 
L 82.843893 302.832 
L 83.123912 247.547991 
L 83.403932 246.431054 
L 83.963971 234.198931 
L 84.24399 237.059234 
L 84.52401 237.052124 
L 84.804029 234.336968 
L 85.084049 233.811079 
L 85.364068 232.757995 
L 85.644088 232.476989 
L 85.924107 229.68911 
L 86.204126 229.095989 
L 86.484146 302.832 
L 88.164263 302.832 
L 88.444282 300.732476 
L 89.004321 277.330696 
L 89.56436 255.126499 
L 89.844379 220.375209 
L 90.124399 224.908324 
L 90.684438 228.903312 
L 90.964457 218.044807 
L 91.244476 216.428745 
L 91.804515 223.205227 
L 92.084535 223.87901 
L 92.364554 221.714937 
L 92.644574 222.441327 
L 92.924593 224.447922 
L 93.204613 298.220904 
L 93.484632 299.966471 
L 93.764651 295.72411 
L 94.044671 295.093755 
L 94.32469 290.219721 
L 94.60471 282.339677 
L 94.884729 284.814851 
L 95.444768 290.935927 
L 95.724788 289.274633 
L 96.004807 282.958067 
L 96.284826 266.095074 
L 96.564846 230.544486 
L 96.844865 230.489204 
L 97.124885 223.72006 
L 97.404904 224.900697 
L 97.684924 225.343258 
L 97.964943 227.280269 
L 98.244963 227.783114 
L 98.524982 230.617281 
L 98.805001 229.656702 
L 99.085021 229.801816 
L 99.64506 222.552775 
L 99.925079 290.777427 
L 100.205099 295.772147 
L 100.485118 290.8004 
L 100.765138 294.276092 
L 101.045157 299.696388 
L 101.325176 300.459223 
L 101.605196 302.710685 
L 101.885215 302.832 
L 103.005293 302.832 
L 103.285313 246.72234 
L 103.565332 250.700235 
L 103.845351 250.426605 
L 104.125371 249.21872 
L 104.40539 248.557556 
L 104.965429 243.563128 
L 105.245449 244.323021 
L 105.525468 248.994871 
L 106.365526 235.359901 
L 106.645546 299.092002 
L 106.925565 302.832 
L 109.72576 302.832 
L 110.005779 244.695386 
L 110.565818 240.664261 
L 111.125857 242.500681 
L 111.405877 235.366903 
L 111.685896 240.572439 
L 111.965915 237.04089 
L 112.245935 236.735093 
L 112.525954 232.211169 
L 112.805974 235.750926 
L 113.085993 234.694066 
L 113.366013 276.292715 
L 113.646032 278.863698 
L 114.206071 291.619426 
L 114.48609 292.58386 
L 114.76611 302.017742 
L 115.046129 302.832 
L 116.446227 302.832 
L 116.726246 240.734056 
L 117.006265 245.541198 
L 117.286285 247.111179 
L 117.566304 248.032213 
L 117.846324 252.770095 
L 118.126343 253.465934 
L 118.406363 258.225335 
L 118.686382 255.955539 
L 118.966402 255.578791 
L 119.246421 254.871283 
L 119.52644 253.413412 
L 119.80646 250.082005 
L 120.086479 302.832 
L 120.646518 302.832 
L 121.206557 289.992149 
L 121.486577 295.335418 
L 121.766596 302.832 
L 123.166693 302.832 
L 123.446713 250.237539 
L 123.726732 251.554948 
L 124.006752 253.95133 
L 124.286771 245.515527 
L 124.56679 233.332739 
L 125.126829 240.503126 
L 125.686868 235.614208 
L 125.966888 236.20449 
L 126.246907 238.399281 
L 126.526927 239.098986 
L 126.806946 302.832 
L 127.366985 302.832 
L 127.647004 292.995378 
L 127.927024 302.585412 
L 128.207043 302.832 
L 129.60714 302.832 
L 129.88716 299.034577 
L 130.167179 231.757448 
L 130.727218 235.612409 
L 131.007238 230.853465 
L 131.287257 232.112852 
L 131.567277 231.058072 
L 132.127316 241.850548 
L 132.407335 239.887389 
L 132.687354 239.258539 
L 132.967374 242.501387 
L 133.247393 242.035153 
L 133.527413 302.832 
L 136.607627 302.832 
L 136.887646 243.947397 
L 137.167666 243.898956 
L 137.447685 244.300863 
L 138.007724 239.336554 
L 138.287743 241.786026 
L 138.847782 238.264937 
L 139.127802 239.98973 
L 139.407821 238.422252 
L 139.687841 234.802774 
L 139.96786 233.022886 
L 140.247879 300.420306 
L 140.527899 302.832 
L 141.087938 300.301057 
L 141.647977 292.256986 
L 141.927996 291.458848 
L 142.208016 300.810724 
L 142.488035 302.832 
L 143.048074 302.832 
L 143.328093 299.928106 
L 143.608113 261.374293 
L 143.888132 262.897294 
L 144.168152 260.980147 
L 144.728191 249.245273 
L 145.00821 254.01352 
L 145.568249 255.835661 
L 145.848268 253.365348 
L 146.128288 248.200005 
L 146.408307 249.267347 
L 146.688327 254.588159 
L 146.968346 302.832 
L 147.248366 302.832 
L 147.528385 297.220389 
L 147.808404 283.647544 
L 148.088424 283.905647 
L 148.368443 287.822646 
L 148.648463 295.72557 
L 149.208502 302.832 
L 149.488521 302.832 
L 150.04856 300.334529 
L 150.328579 239.613092 
L 150.608599 245.556968 
L 150.888618 244.824417 
L 151.168638 242.48705 
L 151.728677 234.26474 
L 152.008696 235.913162 
L 152.848754 243.64649 
L 153.128774 243.517858 
L 153.408793 244.359948 
L 153.688813 294.491752 
L 153.968832 291.279128 
L 154.248852 293.374076 
L 154.528871 286.109482 
L 154.808891 285.1834 
L 155.08891 287.894834 
L 155.36893 293.688762 
L 155.648949 302.832 
L 155.928968 302.468503 
L 156.208988 302.832 
L 156.769027 302.832 
L 157.049046 243.45784 
L 157.329066 243.119645 
L 157.609085 240.199372 
L 157.889105 241.797469 
L 158.169124 239.474794 
L 158.449143 238.798806 
L 158.729163 238.7727 
L 159.009182 241.839821 
L 159.569221 237.671196 
L 159.849241 233.095244 
L 160.12926 238.497513 
L 160.40928 285.878033 
L 160.689299 282.816052 
L 160.969318 271.53507 
L 161.249338 273.551166 
L 161.529357 291.187304 
L 161.809377 299.420129 
L 162.089396 302.832 
L 163.489493 302.832 
L 163.769513 246.58763 
L 164.049532 245.027427 
L 164.329552 245.833946 
L 164.889591 248.300767 
L 165.44963 251.676791 
L 165.729649 252.010883 
L 166.009668 250.437386 
L 166.289688 246.240145 
L 166.569707 249.220527 
L 166.849727 245.971224 
L 167.129746 302.832 
L 167.409766 296.428471 
L 167.689785 294.029038 
L 168.249824 298.030019 
L 168.529843 295.664677 
L 168.809863 295.982837 
L 169.089882 292.753129 
L 169.369902 293.362859 
L 169.649921 300.923915 
L 169.929941 302.832 
L 170.20996 302.832 
L 170.48998 243.541014 
L 170.769999 246.169648 
L 171.050018 244.811901 
L 171.330038 246.586584 
L 171.610057 246.188089 
L 171.890077 247.039419 
L 172.170096 248.320421 
L 172.450116 247.608853 
L 172.730135 246.112907 
L 173.010155 245.702894 
L 173.290174 247.732642 
L 173.570193 246.539475 
L 173.850213 302.832 
L 174.130232 299.656388 
L 174.410252 289.368024 
L 174.690271 286.248304 
L 174.970291 298.292972 
L 175.25031 302.039923 
L 175.53033 302.832 
L 176.930427 302.832 
L 177.210446 264.964761 
L 177.490466 265.90495 
L 177.770485 271.722253 
L 178.050505 273.56054 
L 178.330524 273.822779 
L 178.890563 276.04568 
L 179.450602 275.156302 
L 179.730621 275.191989 
L 180.010641 277.560357 
L 180.29066 278.671838 
L 180.57068 302.832 
L 182.530816 302.832 
L 182.810835 299.483323 
L 183.090855 293.585882 
L 183.370874 292.061955 
L 183.650894 297.159317 
L 183.930913 263.654823 
L 184.210932 265.55342 
L 184.490952 264.998891 
L 184.770971 263.098104 
L 185.33101 253.384485 
L 185.61103 251.513698 
L 185.891049 250.768206 
L 186.171069 250.501976 
L 186.731107 240.409313 
L 187.011127 238.876547 
L 187.291146 302.832 
L 190.37136 302.832 
L 190.65138 235.550164 
L 191.211419 243.483612 
L 191.491438 248.550862 
L 191.771457 256.223121 
L 192.051477 254.625289 
L 192.331496 254.991855 
L 192.611516 253.706723 
L 192.891535 255.526889 
L 193.171555 251.821934 
L 193.451574 253.362089 
L 193.731594 252.651769 
L 194.011613 302.832 
L 195.41171 302.832 
L 195.69173 301.29028 
L 195.971749 300.58396 
L 196.251769 301.827332 
L 196.531788 300.185633 
L 196.811807 293.168691 
L 197.091827 290.661779 
L 197.371846 251.688354 
L 197.651866 240.875139 
L 197.931885 245.512264 
L 198.211905 242.93104 
L 198.491924 245.164063 
L 199.051963 239.115127 
L 199.331982 242.312576 
L 199.612002 238.732859 
L 199.892021 239.370326 
L 200.172041 239.341179 
L 200.45206 235.841487 
L 200.73208 302.832 
L 201.292119 302.832 
L 201.572138 300.990352 
L 201.852158 302.832 
L 202.132177 301.189381 
L 202.412196 302.832 
L 203.812294 302.832 
L 204.092313 254.756062 
L 204.372333 256.509142 
L 204.652352 256.225306 
L 204.932371 253.975477 
L 205.212391 257.364412 
L 205.49241 255.11742 
L 205.77243 253.934682 
L 206.052449 253.712224 
L 206.332469 255.470804 
L 206.612488 253.69434 
L 206.892508 256.472519 
L 207.172527 254.57477 
L 207.452546 297.390528 
L 207.732566 302.021283 
L 208.012585 302.832 
L 208.292605 302.832 
L 208.572624 295.270873 
L 208.852644 295.216875 
L 209.132663 293.130196 
L 209.412683 298.313407 
L 209.692702 297.094577 
L 209.972721 290.493992 
L 210.252741 292.800846 
L 210.53276 296.771001 
L 210.53276 296.771001 
" clip-path="url(#p3ed68346c0)" style="fill: none; stroke: #ffa500; stroke-width: 1.5; stroke-linecap: square"/>
   </g>
   <g id="patch_13">
    <path d="M 55.584 307.872 
L 55.584 196.992 
" style="fill: none; stroke: #000000; stroke-width: 0.8; stroke-linejoin: miter; stroke-linecap: square"/>
   </g>
   <g id="patch_14">
    <path d="M 217.911273 307.872 
L 217.911273 196.992 
" style="fill: none; stroke: #000000; stroke-width: 0.8; stroke-linejoin: miter; stroke-linecap: square"/>
   </g>
   <g id="patch_15">
    <path d="M 55.584 307.872 
L 217.911273 307.872 
" style="fill: none; stroke: #000000; stroke-width: 0.8; stroke-linejoin: miter; stroke-linecap: square"/>
   </g>
   <g id="patch_16">
    <path d="M 55.584 196.992 
L 217.911273 196.992 
" style="fill: none; stroke: #000000; stroke-width: 0.8; stroke-linejoin: miter; stroke-linecap: square"/>
   </g>
   <g id="text_23">
    <!-- VAE -->
    <g transform="translate(125.130136 190.992) scale(0.12 -0.12)">
     <defs>
      <path id="DejaVuSans-56" d="M 1831 0 
L 50 4666 
L 709 4666 
L 2188 738 
L 3669 4666 
L 4325 4666 
L 2547 0 
L 1831 0 
z
" transform="scale(0.015625)"/>
      <path id="DejaVuSans-41" d="M 2188 4044 
L 1331 1722 
L 3047 1722 
L 2188 4044 
z
M 1831 4666 
L 2547 4666 
L 4325 0 
L 3669 0 
L 3244 1197 
L 1141 1197 
L 716 0 
L 50 0 
L 1831 4666 
z
" transform="scale(0.015625)"/>
      <path id="DejaVuSans-45" d="M 628 4666 
L 3578 4666 
L 3578 4134 
L 1259 4134 
L 1259 2753 
L 3481 2753 
L 3481 2222 
L 1259 2222 
L 1259 531 
L 3634 531 
L 3634 0 
L 628 0 
L 628 4666 
z
" transform="scale(0.015625)"/>
     </defs>
     <use xlink:href="#DejaVuSans-56"/>
     <use xlink:href="#DejaVuSans-41" x="62.033203"/>
     <use xlink:href="#DejaVuSans-45" x="130.441406"/>
    </g>
   </g>
  </g>
  <g id="axes_4">
   <g id="patch_17">
    <path d="M 250.376727 307.872 
L 412.704 307.872 
L 412.704 196.992 
L 250.376727 196.992 
z
" style="fill: #ffffff"/>
   </g>
   <g id="matplotlib.axis_7">
    <g id="xtick_10">
     <g id="line2d_24">
      <g>
       <use xlink:href="#md274774b3f" x="257.75524" y="307.872" style="stroke: #000000; stroke-width: 0.8"/>
      </g>
     </g>
     <g id="text_24">
      <!-- 0 -->
      <g transform="translate(254.57399 322.470437) scale(0.1 -0.1)">
       <use xlink:href="#DejaVuSans-30"/>
      </g>
     </g>
    </g>
    <g id="xtick_11">
     <g id="line2d_25">
      <g>
       <use xlink:href="#md274774b3f" x="313.759129" y="307.872" style="stroke: #000000; stroke-width: 0.8"/>
      </g>
     </g>
     <g id="text_25">
      <!-- 200 -->
      <g transform="translate(304.215379 322.470437) scale(0.1 -0.1)">
       <use xlink:href="#DejaVuSans-32"/>
       <use xlink:href="#DejaVuSans-30" x="63.623047"/>
       <use xlink:href="#DejaVuSans-30" x="127.246094"/>
      </g>
     </g>
    </g>
    <g id="xtick_12">
     <g id="line2d_26">
      <g>
       <use xlink:href="#md274774b3f" x="369.763018" y="307.872" style="stroke: #000000; stroke-width: 0.8"/>
      </g>
     </g>
     <g id="text_26">
      <!-- 400 -->
      <g transform="translate(360.219268 322.470437) scale(0.1 -0.1)">
       <use xlink:href="#DejaVuSans-34"/>
       <use xlink:href="#DejaVuSans-30" x="63.623047"/>
       <use xlink:href="#DejaVuSans-30" x="127.246094"/>
      </g>
     </g>
    </g>
   </g>
   <g id="matplotlib.axis_8">
    <g id="ytick_12">
     <g id="line2d_27">
      <g>
       <use xlink:href="#m3dec92e9e4" x="250.376727" y="306.032458" style="stroke: #000000; stroke-width: 0.8"/>
      </g>
     </g>
     <g id="text_27">
      <!-- 0 -->
      <g transform="translate(237.014227 309.831677) scale(0.1 -0.1)">
       <use xlink:href="#DejaVuSans-30"/>
      </g>
     </g>
    </g>
    <g id="ytick_13">
     <g id="line2d_28">
      <g>
       <use xlink:href="#m3dec92e9e4" x="250.376727" y="263.313345" style="stroke: #000000; stroke-width: 0.8"/>
      </g>
     </g>
     <g id="text_28">
      <!-- 20 -->
      <g transform="translate(230.651727 267.112564) scale(0.1 -0.1)">
       <use xlink:href="#DejaVuSans-32"/>
       <use xlink:href="#DejaVuSans-30" x="63.623047"/>
      </g>
     </g>
    </g>
    <g id="ytick_14">
     <g id="line2d_29">
      <g>
       <use xlink:href="#m3dec92e9e4" x="250.376727" y="220.594232" style="stroke: #000000; stroke-width: 0.8"/>
      </g>
     </g>
     <g id="text_29">
      <!-- 40 -->
      <g transform="translate(230.651727 224.393451) scale(0.1 -0.1)">
       <use xlink:href="#DejaVuSans-34"/>
       <use xlink:href="#DejaVuSans-30" x="63.623047"/>
      </g>
     </g>
    </g>
   </g>
   <g id="line2d_30">
    <path d="M 257.75524 204.92547 
L 258.035259 202.032 
L 258.315279 205.321427 
L 258.875317 219.926105 
L 259.155337 220.576224 
L 259.435356 222.226282 
L 259.995395 220.884617 
L 260.275415 218.931331 
L 260.555434 217.904269 
L 260.835454 217.817184 
L 261.115473 233.752964 
L 261.395492 221.588859 
L 261.675512 256.701687 
L 261.955531 210.36639 
L 262.235551 247.674034 
L 262.51557 212.624317 
L 263.075609 216.1461 
L 263.635648 237.403438 
L 263.915667 259.421115 
L 264.195687 228.350167 
L 264.475706 213.55129 
L 265.035745 234.878085 
L 265.315765 246.323463 
L 265.595784 252.294349 
L 265.875804 251.94715 
L 266.155823 247.326753 
L 266.435842 240.687485 
L 266.715862 244.182945 
L 266.995881 240.250608 
L 267.275901 240.488542 
L 267.55592 242.439449 
L 267.83594 270.186904 
L 268.115959 258.295742 
L 268.395979 256.429968 
L 268.675998 252.673629 
L 268.956018 229.695005 
L 269.236037 260.688416 
L 269.516056 248.7598 
L 269.796076 248.945406 
L 270.076095 253.792528 
L 270.356115 247.982993 
L 270.636134 262.5955 
L 270.916154 285.904812 
L 271.196173 235.576013 
L 271.476193 228.395614 
L 271.756212 224.171507 
L 272.036231 226.41174 
L 272.59627 232.998436 
L 272.87629 233.644665 
L 273.716348 244.491199 
L 273.996368 242.172972 
L 274.276387 244.11051 
L 274.556406 262.061173 
L 274.836426 251.175066 
L 275.116445 266.145699 
L 275.396465 252.896349 
L 275.676484 253.845324 
L 275.956504 246.464036 
L 276.516543 262.25109 
L 276.796562 274.214934 
L 277.076581 269.517914 
L 277.356601 272.274433 
L 277.63662 272.460665 
L 277.91664 248.990011 
L 278.196659 247.84999 
L 278.756698 235.23099 
L 279.036718 238.196944 
L 279.316737 238.166671 
L 279.596756 235.364722 
L 279.876776 234.826132 
L 280.156795 233.737209 
L 280.436815 233.485286 
L 280.716834 230.575963 
L 280.996854 229.95691 
L 281.276873 246.230865 
L 281.556893 245.359944 
L 282.116931 260.115593 
L 282.396951 263.157373 
L 282.67697 260.545183 
L 282.95699 252.256564 
L 283.517029 213.346223 
L 283.797048 224.681182 
L 284.077068 230.188372 
L 284.357087 245.101888 
L 284.637106 220.953427 
L 284.917126 225.635077 
L 285.477165 229.760782 
L 285.757184 218.576455 
L 286.037204 216.877295 
L 286.597243 223.845983 
L 286.877262 224.572821 
L 287.157281 222.257059 
L 287.437301 223.102188 
L 287.71732 225.169167 
L 287.99734 273.447195 
L 288.277359 242.199885 
L 288.557379 254.218205 
L 288.837398 260.6969 
L 289.117418 263.356517 
L 289.397437 251.629984 
L 289.677456 256.73103 
L 289.957476 256.238767 
L 290.237495 257.487577 
L 290.517515 258.045965 
L 290.797534 224.406039 
L 291.077554 232.257761 
L 291.357573 231.448742 
L 291.637593 231.408084 
L 291.917612 224.411025 
L 292.197632 225.634214 
L 292.477651 226.078375 
L 292.75767 228.091131 
L 293.03769 228.629392 
L 293.317709 231.542564 
L 293.597729 230.54091 
L 293.877748 230.672589 
L 294.437787 223.20858 
L 294.717807 237.721815 
L 294.997826 239.383518 
L 295.277845 239.583252 
L 295.557865 262.078566 
L 295.837884 236.503231 
L 296.117904 256.358026 
L 296.397923 255.46996 
L 296.677943 250.491159 
L 296.957962 282.832855 
L 297.237982 251.979492 
L 297.518001 274.677003 
L 297.79802 264.395044 
L 298.07804 248.155322 
L 298.358059 252.247337 
L 298.638079 251.967279 
L 298.918098 250.727731 
L 299.198118 250.054379 
L 299.758157 244.893615 
L 300.038176 245.679041 
L 300.318195 250.498611 
L 301.158254 236.422131 
L 301.438273 241.354294 
L 301.718293 241.336984 
L 302.278332 266.771895 
L 302.558351 264.719193 
L 302.83837 256.675724 
L 303.11839 255.592611 
L 303.398409 259.041107 
L 303.678429 284.185539 
L 303.958448 265.550161 
L 304.238468 264.257497 
L 304.518487 273.479678 
L 304.798507 246.054176 
L 305.358545 241.892705 
L 305.918584 243.804235 
L 306.198604 236.436226 
L 306.478623 241.793114 
L 306.758643 238.147913 
L 307.038662 238.542104 
L 307.318682 233.175556 
L 307.598701 236.82399 
L 307.87872 235.758881 
L 308.15874 254.128702 
L 308.438759 251.250781 
L 308.718779 281.589368 
L 308.998798 231.999114 
L 309.278818 258.298196 
L 309.558837 240.906525 
L 309.838857 264.488879 
L 310.118876 261.845848 
L 310.398895 238.781732 
L 310.678915 277.239669 
L 310.958934 244.821837 
L 311.238954 268.428051 
L 311.518973 241.963494 
L 311.798993 246.905825 
L 312.079012 248.56232 
L 312.359032 249.50484 
L 312.639051 254.371524 
L 312.91907 255.099795 
L 313.19909 260.010419 
L 313.479109 257.665411 
L 313.759129 257.270566 
L 314.039148 256.552787 
L 314.319168 255.055999 
L 314.599187 251.617525 
L 314.879207 261.209469 
L 315.159226 256.259134 
L 315.439246 246.518217 
L 315.719265 259.930995 
L 315.999284 238.682743 
L 316.279304 248.119507 
L 316.559323 231.977671 
L 317.399382 255.407009 
L 317.679401 260.221913 
L 317.959421 257.025117 
L 318.23944 251.771286 
L 318.519459 253.099699 
L 318.799479 255.59392 
L 319.079498 246.89564 
L 319.359518 234.338489 
L 319.919557 241.720423 
L 320.479596 236.691838 
L 320.759615 237.291628 
L 321.039634 239.569579 
L 321.319654 240.291389 
L 321.599673 244.562668 
L 321.879693 246.57683 
L 322.159712 263.634736 
L 322.439732 239.577572 
L 322.719751 229.517317 
L 322.999771 230.396876 
L 323.27979 254.253841 
L 323.559809 245.149253 
L 323.839829 254.390585 
L 324.119848 256.747245 
L 324.399868 237.210489 
L 324.679887 250.984959 
L 324.959907 232.723248 
L 325.519946 236.680086 
L 325.799965 231.969525 
L 326.079984 233.104174 
L 326.360004 231.998768 
L 326.920043 243.118658 
L 327.200062 241.088648 
L 327.480082 240.448506 
L 327.760101 243.809823 
L 328.040121 243.292106 
L 328.32014 246.957961 
L 328.600159 247.802065 
L 328.880179 261.773887 
L 329.160198 283.877873 
L 330.000257 238.931027 
L 330.280276 281.030512 
L 330.560296 274.565617 
L 330.840315 273.476572 
L 331.120334 262.339894 
L 331.400354 258.020137 
L 331.680373 245.281663 
L 331.960393 245.260797 
L 332.240412 245.636612 
L 332.800451 240.553856 
L 333.080471 243.049991 
L 333.640509 238.747948 
L 333.920529 241.203511 
L 334.200548 239.518692 
L 334.480568 235.868697 
L 334.760587 234.010362 
L 335.600646 264.793144 
L 335.880665 251.768191 
L 336.160684 264.33446 
L 336.440704 252.895256 
L 336.720723 256.920654 
L 337.000743 262.639942 
L 337.280762 261.001383 
L 337.560782 246.695476 
L 337.840801 265.839472 
L 338.120821 262.111422 
L 338.68086 264.83773 
L 338.960879 262.858068 
L 339.520918 250.758971 
L 339.800937 255.667156 
L 340.360976 257.542341 
L 340.640996 254.983528 
L 340.921015 249.651534 
L 341.201035 250.798273 
L 341.481054 256.246724 
L 341.761073 264.07834 
L 342.041093 259.249764 
L 342.321112 256.431488 
L 342.601132 257.960074 
L 342.881151 258.843301 
L 343.161171 235.951636 
L 343.44119 239.516368 
L 343.72121 259.632229 
L 344.001229 251.240621 
L 344.281248 257.839675 
L 344.561268 253.956557 
L 344.841287 262.917356 
L 345.121307 240.803203 
L 345.401326 246.945714 
L 345.681346 246.10708 
L 345.961365 243.775058 
L 346.521404 235.298873 
L 346.801423 236.996955 
L 347.641482 244.970042 
L 347.921501 244.783182 
L 348.201521 245.708767 
L 348.48154 260.290346 
L 348.76156 262.538702 
L 349.321598 229.750984 
L 349.601618 240.662166 
L 349.881637 260.910634 
L 350.161657 266.351781 
L 350.441676 260.165246 
L 350.721696 272.929618 
L 351.001715 245.257324 
L 351.281735 256.404336 
L 351.561754 245.116979 
L 352.121793 244.195888 
L 352.401812 241.41767 
L 352.681832 243.077457 
L 352.961851 240.660502 
L 353.241871 239.792778 
L 353.52189 239.954385 
L 353.80191 242.979801 
L 354.361948 238.810232 
L 354.641968 234.087013 
L 354.921987 239.74929 
L 355.202007 273.570973 
L 355.482026 264.680256 
L 355.762046 260.250797 
L 356.322085 234.532345 
L 356.882123 254.966005 
L 357.442162 248.375518 
L 357.722182 276.439765 
L 358.56224 248.00959 
L 358.84226 246.509853 
L 359.122279 247.236804 
L 359.682318 249.774088 
L 360.242357 253.25789 
L 360.522376 253.600206 
L 360.802396 251.960963 
L 361.082415 247.649876 
L 361.362435 250.745698 
L 361.642454 247.299795 
L 361.922474 248.780555 
L 362.482512 255.26415 
L 362.762532 256.709118 
L 363.042551 256.306569 
L 363.322571 260.549196 
L 363.60259 255.518852 
L 364.162629 263.257968 
L 364.442649 248.860865 
L 364.722668 262.442681 
L 365.002687 259.006552 
L 365.282707 244.86999 
L 365.562726 247.175359 
L 365.842746 246.189382 
L 366.122765 247.998718 
L 366.402785 247.59819 
L 366.682804 248.474276 
L 366.962824 249.815539 
L 367.242843 249.063208 
L 367.522862 247.53673 
L 367.802882 246.664504 
L 368.082901 249.186079 
L 368.362921 247.99916 
L 368.64294 265.59788 
L 368.92296 271.927451 
L 369.202979 257.263778 
L 369.763018 274.907276 
L 370.043037 257.596451 
L 370.323057 255.284408 
L 370.603076 273.541533 
L 371.163115 257.772911 
L 371.443135 259.594753 
L 371.723154 251.930526 
L 372.003174 266.957521 
L 372.283193 267.943644 
L 372.563212 273.926345 
L 372.843232 275.833642 
L 373.123251 276.121629 
L 373.68329 278.408723 
L 374.243329 277.468518 
L 374.523349 277.539504 
L 374.803368 279.961099 
L 375.083387 281.093971 
L 375.363407 279.634223 
L 375.643426 272.590749 
L 375.923446 272.391328 
L 376.203465 270.161104 
L 376.483485 275.310741 
L 376.763504 272.153844 
L 377.043524 265.588463 
L 377.323543 277.422567 
L 377.603562 268.421966 
L 377.883582 267.240481 
L 378.163601 264.548374 
L 378.443621 259.411798 
L 378.72364 265.606165 
L 379.00366 267.552369 
L 379.283679 266.999432 
L 379.563699 265.056426 
L 380.123737 255.00917 
L 380.403757 253.123119 
L 380.683776 252.314624 
L 380.963796 251.983809 
L 381.523835 241.633963 
L 381.803854 240.063673 
L 382.363893 251.793363 
L 382.643912 251.099383 
L 382.923932 247.90429 
L 383.203951 251.465782 
L 383.483971 283.673456 
L 383.76399 276.086127 
L 384.04401 262.339208 
L 384.324029 223.976994 
L 384.604049 254.004812 
L 384.884068 254.113353 
L 385.164088 262.456996 
L 385.444107 236.632051 
L 386.004146 244.824075 
L 386.284165 250.039925 
L 386.564185 257.945678 
L 386.844204 256.266751 
L 387.124224 256.686991 
L 387.404243 255.350925 
L 387.684263 257.219571 
L 387.964282 253.415607 
L 388.244301 254.989453 
L 388.524321 254.265461 
L 389.08436 265.107881 
L 389.364379 264.308273 
L 389.644399 270.876143 
L 389.924418 281.910137 
L 390.204438 266.448522 
L 390.484457 274.547513 
L 390.764476 264.600481 
L 391.044496 274.729481 
L 391.324515 297.211794 
L 391.604535 268.353936 
L 391.884554 256.041388 
L 392.164574 253.258556 
L 392.444593 242.145495 
L 392.724613 246.893709 
L 393.004632 244.23657 
L 393.284651 246.532135 
L 393.84469 240.29633 
L 394.12471 243.597785 
L 394.404729 239.90953 
L 394.684749 240.560274 
L 394.964768 240.522239 
L 395.244788 236.93632 
L 395.524807 267.726838 
L 395.804826 280.948064 
L 396.084846 251.969043 
L 396.364865 240.506973 
L 396.644885 223.848617 
L 397.204924 233.893264 
L 397.484943 240.178968 
L 397.764963 255.948064 
L 398.325001 261.426476 
L 398.605021 256.164957 
L 398.88504 256.441248 
L 399.16506 258.330866 
L 399.445079 257.939097 
L 399.725099 255.62599 
L 400.005118 259.126441 
L 400.285138 256.806938 
L 400.565157 255.586019 
L 400.845176 255.356421 
L 401.125196 257.171292 
L 401.405215 255.194956 
L 401.685235 258.211889 
L 402.245274 253.729314 
L 402.525293 253.988923 
L 402.805313 252.205069 
L 403.365351 275.694688 
L 403.645371 281.321122 
L 403.92539 294.971344 
L 404.20541 300.737886 
L 404.485429 299.386375 
L 404.765449 295.669049 
L 405.045468 295.061697 
L 405.325488 302.832 
L 405.325488 302.832 
" clip-path="url(#p802911009b)" style="fill: none; stroke: #ff0000; stroke-width: 1.5; stroke-linecap: square"/>
   </g>
   <g id="patch_18">
    <path d="M 250.376727 307.872 
L 250.376727 196.992 
" style="fill: none; stroke: #000000; stroke-width: 0.8; stroke-linejoin: miter; stroke-linecap: square"/>
   </g>
   <g id="patch_19">
    <path d="M 412.704 307.872 
L 412.704 196.992 
" style="fill: none; stroke: #000000; stroke-width: 0.8; stroke-linejoin: miter; stroke-linecap: square"/>
   </g>
   <g id="patch_20">
    <path d="M 250.376727 307.872 
L 412.704 307.872 
" style="fill: none; stroke: #000000; stroke-width: 0.8; stroke-linejoin: miter; stroke-linecap: square"/>
   </g>
   <g id="patch_21">
    <path d="M 250.376727 196.992 
L 412.704 196.992 
" style="fill: none; stroke: #000000; stroke-width: 0.8; stroke-linejoin: miter; stroke-linecap: square"/>
   </g>
   <g id="text_30">
    <!-- VRNN -->
    <g transform="translate(314.289426 190.992) scale(0.12 -0.12)">
     <use xlink:href="#DejaVuSans-56"/>
     <use xlink:href="#DejaVuSans-52" x="68.408203"/>
     <use xlink:href="#DejaVuSans-4e" x="137.890625"/>
     <use xlink:href="#DejaVuSans-4e" x="212.695312"/>
    </g>
   </g>
  </g>
  <g id="text_31">
   <!-- VMAF Scores Over Frames: Video #37 -->
   <g transform="translate(114.338063 16.318125) scale(0.12 -0.12)">
    <defs>
     <path id="DejaVuSans-4d" d="M 628 4666 
L 1569 4666 
L 2759 1491 
L 3956 4666 
L 4897 4666 
L 4897 0 
L 4281 0 
L 4281 4097 
L 3078 897 
L 2444 897 
L 1241 4097 
L 1241 0 
L 628 0 
L 628 4666 
z
" transform="scale(0.015625)"/>
     <path id="DejaVuSans-73" d="M 2834 3397 
L 2834 2853 
Q 2591 2978 2328 3040 
Q 2066 3103 1784 3103 
Q 1356 3103 1142 2972 
Q 928 2841 928 2578 
Q 928 2378 1081 2264 
Q 1234 2150 1697 2047 
L 1894 2003 
Q 2506 1872 2764 1633 
Q 3022 1394 3022 966 
Q 3022 478 2636 193 
Q 2250 -91 1575 -91 
Q 1294 -91 989 -36 
Q 684 19 347 128 
L 347 722 
Q 666 556 975 473 
Q 1284 391 1588 391 
Q 1994 391 2212 530 
Q 2431 669 2431 922 
Q 2431 1156 2273 1281 
Q 2116 1406 1581 1522 
L 1381 1569 
Q 847 1681 609 1914 
Q 372 2147 372 2553 
Q 372 3047 722 3315 
Q 1072 3584 1716 3584 
Q 2034 3584 2315 3537 
Q 2597 3491 2834 3397 
z
" transform="scale(0.015625)"/>
     <path id="DejaVuSans-76" d="M 191 3500 
L 800 3500 
L 1894 563 
L 2988 3500 
L 3597 3500 
L 2284 0 
L 1503 0 
L 191 3500 
z
" transform="scale(0.015625)"/>
     <path id="DejaVuSans-61" d="M 2194 1759 
Q 1497 1759 1228 1600 
Q 959 1441 959 1056 
Q 959 750 1161 570 
Q 1363 391 1709 391 
Q 2188 391 2477 730 
Q 2766 1069 2766 1631 
L 2766 1759 
L 2194 1759 
z
M 3341 1997 
L 3341 0 
L 2766 0 
L 2766 531 
Q 2569 213 2275 61 
Q 1981 -91 1556 -91 
Q 1019 -91 701 211 
Q 384 513 384 1019 
Q 384 1609 779 1909 
Q 1175 2209 1959 2209 
L 2766 2209 
L 2766 2266 
Q 2766 2663 2505 2880 
Q 2244 3097 1772 3097 
Q 1472 3097 1187 3025 
Q 903 2953 641 2809 
L 641 3341 
Q 956 3463 1253 3523 
Q 1550 3584 1831 3584 
Q 2591 3584 2966 3190 
Q 3341 2797 3341 1997 
z
" transform="scale(0.015625)"/>
     <path id="DejaVuSans-6d" d="M 3328 2828 
Q 3544 3216 3844 3400 
Q 4144 3584 4550 3584 
Q 5097 3584 5394 3201 
Q 5691 2819 5691 2113 
L 5691 0 
L 5113 0 
L 5113 2094 
Q 5113 2597 4934 2840 
Q 4756 3084 4391 3084 
Q 3944 3084 3684 2787 
Q 3425 2491 3425 1978 
L 3425 0 
L 2847 0 
L 2847 2094 
Q 2847 2600 2669 2842 
Q 2491 3084 2119 3084 
Q 1678 3084 1418 2786 
Q 1159 2488 1159 1978 
L 1159 0 
L 581 0 
L 581 3500 
L 1159 3500 
L 1159 2956 
Q 1356 3278 1631 3431 
Q 1906 3584 2284 3584 
Q 2666 3584 2933 3390 
Q 3200 3197 3328 2828 
z
" transform="scale(0.015625)"/>
     <path id="DejaVuSans-3a" d="M 750 794 
L 1409 794 
L 1409 0 
L 750 0 
L 750 794 
z
M 750 3309 
L 1409 3309 
L 1409 2516 
L 750 2516 
L 750 3309 
z
" transform="scale(0.015625)"/>
     <path id="DejaVuSans-23" d="M 3272 2816 
L 2363 2816 
L 2100 1772 
L 3016 1772 
L 3272 2816 
z
M 2803 4594 
L 2478 3297 
L 3391 3297 
L 3719 4594 
L 4219 4594 
L 3897 3297 
L 4872 3297 
L 4872 2816 
L 3775 2816 
L 3519 1772 
L 4513 1772 
L 4513 1294 
L 3397 1294 
L 3072 0 
L 2572 0 
L 2894 1294 
L 1978 1294 
L 1656 0 
L 1153 0 
L 1478 1294 
L 494 1294 
L 494 1772 
L 1594 1772 
L 1856 2816 
L 850 2816 
L 850 3297 
L 1978 3297 
L 2297 4594 
L 2803 4594 
z
" transform="scale(0.015625)"/>
     <path id="DejaVuSans-37" d="M 525 4666 
L 3525 4666 
L 3525 4397 
L 1831 0 
L 1172 0 
L 2766 4134 
L 525 4134 
L 525 4666 
z
" transform="scale(0.015625)"/>
    </defs>
    <use xlink:href="#DejaVuSans-56"/>
    <use xlink:href="#DejaVuSans-4d" x="68.408203"/>
    <use xlink:href="#DejaVuSans-41" x="154.6875"/>
    <use xlink:href="#DejaVuSans-46" x="223.095703"/>
    <use xlink:href="#DejaVuSans-20" x="280.615234"/>
    <use xlink:href="#DejaVuSans-53" x="312.402344"/>
    <use xlink:href="#DejaVuSans-63" x="375.878906"/>
    <use xlink:href="#DejaVuSans-6f" x="430.859375"/>
    <use xlink:href="#DejaVuSans-72" x="492.041016"/>
    <use xlink:href="#DejaVuSans-65" x="530.904297"/>
    <use xlink:href="#DejaVuSans-73" x="592.427734"/>
    <use xlink:href="#DejaVuSans-20" x="644.527344"/>
    <use xlink:href="#DejaVuSans-4f" x="676.314453"/>
    <use xlink:href="#DejaVuSans-76" x="755.025391"/>
    <use xlink:href="#DejaVuSans-65" x="814.205078"/>
    <use xlink:href="#DejaVuSans-72" x="875.728516"/>
    <use xlink:href="#DejaVuSans-20" x="916.841797"/>
    <use xlink:href="#DejaVuSans-46" x="948.628906"/>
    <use xlink:href="#DejaVuSans-72" x="998.898438"/>
    <use xlink:href="#DejaVuSans-61" x="1040.011719"/>
    <use xlink:href="#DejaVuSans-6d" x="1101.291016"/>
    <use xlink:href="#DejaVuSans-65" x="1198.703125"/>
    <use xlink:href="#DejaVuSans-73" x="1260.226562"/>
    <use xlink:href="#DejaVuSans-3a" x="1312.326172"/>
    <use xlink:href="#DejaVuSans-20" x="1346.017578"/>
    <use xlink:href="#DejaVuSans-56" x="1377.804688"/>
    <use xlink:href="#DejaVuSans-69" x="1443.962891"/>
    <use xlink:href="#DejaVuSans-64" x="1471.746094"/>
    <use xlink:href="#DejaVuSans-65" x="1535.222656"/>
    <use xlink:href="#DejaVuSans-6f" x="1596.746094"/>
    <use xlink:href="#DejaVuSans-20" x="1657.927734"/>
    <use xlink:href="#DejaVuSans-23" x="1689.714844"/>
    <use xlink:href="#DejaVuSans-33" x="1773.503906"/>
    <use xlink:href="#DejaVuSans-37" x="1837.126953"/>
   </g>
  </g>
  <g id="text_32">
   <!-- Video Frames -->
   <g transform="translate(187.847438 339.936375) scale(0.12 -0.12)">
    <use xlink:href="#DejaVuSans-56"/>
    <use xlink:href="#DejaVuSans-69" x="66.158203"/>
    <use xlink:href="#DejaVuSans-64" x="93.941406"/>
    <use xlink:href="#DejaVuSans-65" x="157.417969"/>
    <use xlink:href="#DejaVuSans-6f" x="218.941406"/>
    <use xlink:href="#DejaVuSans-20" x="280.123047"/>
    <use xlink:href="#DejaVuSans-46" x="311.910156"/>
    <use xlink:href="#DejaVuSans-72" x="362.179688"/>
    <use xlink:href="#DejaVuSans-61" x="403.292969"/>
    <use xlink:href="#DejaVuSans-6d" x="464.572266"/>
    <use xlink:href="#DejaVuSans-65" x="561.984375"/>
    <use xlink:href="#DejaVuSans-73" x="623.507812"/>
   </g>
  </g>
  <g id="text_33">
   <!-- Raw VMAF Scores -->
   <g transform="translate(16.318125 226.284562) rotate(-90) scale(0.12 -0.12)">
    <defs>
     <path id="DejaVuSans-77" d="M 269 3500 
L 844 3500 
L 1563 769 
L 2278 3500 
L 2956 3500 
L 3675 769 
L 4391 3500 
L 4966 3500 
L 4050 0 
L 3372 0 
L 2619 2869 
L 1863 0 
L 1184 0 
L 269 3500 
z
" transform="scale(0.015625)"/>
    </defs>
    <use xlink:href="#DejaVuSans-52"/>
    <use xlink:href="#DejaVuSans-61" x="67.232422"/>
    <use xlink:href="#DejaVuSans-77" x="128.511719"/>
    <use xlink:href="#DejaVuSans-20" x="210.298828"/>
    <use xlink:href="#DejaVuSans-56" x="242.085938"/>
    <use xlink:href="#DejaVuSans-4d" x="310.494141"/>
    <use xlink:href="#DejaVuSans-41" x="396.773438"/>
    <use xlink:href="#DejaVuSans-46" x="465.181641"/>
    <use xlink:href="#DejaVuSans-20" x="522.701172"/>
    <use xlink:href="#DejaVuSans-53" x="554.488281"/>
    <use xlink:href="#DejaVuSans-63" x="617.964844"/>
    <use xlink:href="#DejaVuSans-6f" x="672.945312"/>
    <use xlink:href="#DejaVuSans-72" x="734.126953"/>
    <use xlink:href="#DejaVuSans-65" x="772.990234"/>
    <use xlink:href="#DejaVuSans-73" x="834.513672"/>
   </g>
  </g>
 </g>
 <defs>
  <clipPath id="p906de009db">
   <rect x="55.584" y="41.76" width="162.327273" height="110.88"/>
  </clipPath>
  <clipPath id="p8cb07410d8">
   <rect x="250.376727" y="41.76" width="162.327273" height="110.88"/>
  </clipPath>
  <clipPath id="p3ed68346c0">
   <rect x="55.584" y="196.992" width="162.327273" height="110.88"/>
  </clipPath>
  <clipPath id="p802911009b">
   <rect x="250.376727" y="196.992" width="162.327273" height="110.88"/>
  </clipPath>
 </defs>
</svg>
