<?xml version="1.0" encoding="utf-8" standalone="no"?>
<!DOCTYPE svg PUBLIC "-//W3C//DTD SVG 1.1//EN"
  "http://www.w3.org/Graphics/SVG/1.1/DTD/svg11.dtd">
<svg xmlns:xlink="http://www.w3.org/1999/xlink" width="419.904pt" height="349.632pt" viewBox="0 0 419.904 349.632" xmlns="http://www.w3.org/2000/svg" version="1.1">
 <metadata>
  <rdf:RDF xmlns:dc="http://purl.org/dc/elements/1.1/" xmlns:cc="http://creativecommons.org/ns#" xmlns:rdf="http://www.w3.org/1999/02/22-rdf-syntax-ns#">
   <cc:Work>
    <dc:type rdf:resource="http://purl.org/dc/dcmitype/StillImage"/>
    <dc:date>2024-07-24T16:31:46.512414</dc:date>
    <dc:format>image/svg+xml</dc:format>
    <dc:creator>
     <cc:Agent>
      <dc:title>Matplotlib v3.7.2, https://matplotlib.org/</dc:title>
     </cc:Agent>
    </dc:creator>
   </cc:Work>
  </rdf:RDF>
 </metadata>
 <defs>
  <style type="text/css">*{stroke-linejoin: round; stroke-linecap: butt}</style>
 </defs>
 <g id="figure_1">
  <g id="patch_1">
   <path d="M 0 349.632 
L 419.904 349.632 
L 419.904 -0 
L 0 -0 
z
" style="fill: #ffffff"/>
  </g>
  <g id="axes_1">
   <g id="patch_2">
    <path d="M 55.584 152.64 
L 217.911273 152.64 
L 217.911273 41.76 
L 55.584 41.76 
z
" style="fill: #ffffff"/>
   </g>
   <g id="matplotlib.axis_1">
    <g id="xtick_1">
     <g id="line2d_1">
      <defs>
       <path id="m0501f173db" d="M 0 0 
L 0 3.5 
" style="stroke: #000000; stroke-width: 0.8"/>
      </defs>
      <g>
       <use xlink:href="#m0501f173db" x="62.962512" y="152.64" style="stroke: #000000; stroke-width: 0.8"/>
      </g>
     </g>
     <g id="text_1">
      <!-- 0 -->
      <g transform="translate(59.781262 167.238437) scale(0.1 -0.1)">
       <defs>
        <path id="DejaVuSans-30" d="M 2034 4250 
Q 1547 4250 1301 3770 
Q 1056 3291 1056 2328 
Q 1056 1369 1301 889 
Q 1547 409 2034 409 
Q 2525 409 2770 889 
Q 3016 1369 3016 2328 
Q 3016 3291 2770 3770 
Q 2525 4250 2034 4250 
z
M 2034 4750 
Q 2819 4750 3233 4129 
Q 3647 3509 3647 2328 
Q 3647 1150 3233 529 
Q 2819 -91 2034 -91 
Q 1250 -91 836 529 
Q 422 1150 422 2328 
Q 422 3509 836 4129 
Q 1250 4750 2034 4750 
z
" transform="scale(0.015625)"/>
       </defs>
       <use xlink:href="#DejaVuSans-30"/>
      </g>
     </g>
    </g>
    <g id="xtick_2">
     <g id="line2d_2">
      <g>
       <use xlink:href="#m0501f173db" x="97.201549" y="152.64" style="stroke: #000000; stroke-width: 0.8"/>
      </g>
     </g>
     <g id="text_2">
      <!-- 100 -->
      <g transform="translate(87.657799 167.238437) scale(0.1 -0.1)">
       <defs>
        <path id="DejaVuSans-31" d="M 794 531 
L 1825 531 
L 1825 4091 
L 703 3866 
L 703 4441 
L 1819 4666 
L 2450 4666 
L 2450 531 
L 3481 531 
L 3481 0 
L 794 0 
L 794 531 
z
" transform="scale(0.015625)"/>
       </defs>
       <use xlink:href="#DejaVuSans-31"/>
       <use xlink:href="#DejaVuSans-30" x="63.623047"/>
       <use xlink:href="#DejaVuSans-30" x="127.246094"/>
      </g>
     </g>
    </g>
    <g id="xtick_3">
     <g id="line2d_3">
      <g>
       <use xlink:href="#m0501f173db" x="131.440586" y="152.64" style="stroke: #000000; stroke-width: 0.8"/>
      </g>
     </g>
     <g id="text_3">
      <!-- 200 -->
      <g transform="translate(121.896836 167.238437) scale(0.1 -0.1)">
       <defs>
        <path id="DejaVuSans-32" d="M 1228 531 
L 3431 531 
L 3431 0 
L 469 0 
L 469 531 
Q 828 903 1448 1529 
Q 2069 2156 2228 2338 
Q 2531 2678 2651 2914 
Q 2772 3150 2772 3378 
Q 2772 3750 2511 3984 
Q 2250 4219 1831 4219 
Q 1534 4219 1204 4116 
Q 875 4013 500 3803 
L 500 4441 
Q 881 4594 1212 4672 
Q 1544 4750 1819 4750 
Q 2544 4750 2975 4387 
Q 3406 4025 3406 3419 
Q 3406 3131 3298 2873 
Q 3191 2616 2906 2266 
Q 2828 2175 2409 1742 
Q 1991 1309 1228 531 
z
" transform="scale(0.015625)"/>
       </defs>
       <use xlink:href="#DejaVuSans-32"/>
       <use xlink:href="#DejaVuSans-30" x="63.623047"/>
       <use xlink:href="#DejaVuSans-30" x="127.246094"/>
      </g>
     </g>
    </g>
    <g id="xtick_4">
     <g id="line2d_4">
      <g>
       <use xlink:href="#m0501f173db" x="165.679622" y="152.64" style="stroke: #000000; stroke-width: 0.8"/>
      </g>
     </g>
     <g id="text_4">
      <!-- 300 -->
      <g transform="translate(156.135872 167.238437) scale(0.1 -0.1)">
       <defs>
        <path id="DejaVuSans-33" d="M 2597 2516 
Q 3050 2419 3304 2112 
Q 3559 1806 3559 1356 
Q 3559 666 3084 287 
Q 2609 -91 1734 -91 
Q 1441 -91 1130 -33 
Q 819 25 488 141 
L 488 750 
Q 750 597 1062 519 
Q 1375 441 1716 441 
Q 2309 441 2620 675 
Q 2931 909 2931 1356 
Q 2931 1769 2642 2001 
Q 2353 2234 1838 2234 
L 1294 2234 
L 1294 2753 
L 1863 2753 
Q 2328 2753 2575 2939 
Q 2822 3125 2822 3475 
Q 2822 3834 2567 4026 
Q 2313 4219 1838 4219 
Q 1578 4219 1281 4162 
Q 984 4106 628 3988 
L 628 4550 
Q 988 4650 1302 4700 
Q 1616 4750 1894 4750 
Q 2613 4750 3031 4423 
Q 3450 4097 3450 3541 
Q 3450 3153 3228 2886 
Q 3006 2619 2597 2516 
z
" transform="scale(0.015625)"/>
       </defs>
       <use xlink:href="#DejaVuSans-33"/>
       <use xlink:href="#DejaVuSans-30" x="63.623047"/>
       <use xlink:href="#DejaVuSans-30" x="127.246094"/>
      </g>
     </g>
    </g>
    <g id="xtick_5">
     <g id="line2d_5">
      <g>
       <use xlink:href="#m0501f173db" x="199.918659" y="152.64" style="stroke: #000000; stroke-width: 0.8"/>
      </g>
     </g>
     <g id="text_5">
      <!-- 400 -->
      <g transform="translate(190.374909 167.238437) scale(0.1 -0.1)">
       <defs>
        <path id="DejaVuSans-34" d="M 2419 4116 
L 825 1625 
L 2419 1625 
L 2419 4116 
z
M 2253 4666 
L 3047 4666 
L 3047 1625 
L 3713 1625 
L 3713 1100 
L 3047 1100 
L 3047 0 
L 2419 0 
L 2419 1100 
L 313 1100 
L 313 1709 
L 2253 4666 
z
" transform="scale(0.015625)"/>
       </defs>
       <use xlink:href="#DejaVuSans-34"/>
       <use xlink:href="#DejaVuSans-30" x="63.623047"/>
       <use xlink:href="#DejaVuSans-30" x="127.246094"/>
      </g>
     </g>
    </g>
   </g>
   <g id="matplotlib.axis_2">
    <g id="ytick_1">
     <g id="line2d_6">
      <defs>
       <path id="m539bc39d9d" d="M 0 0 
L -3.5 0 
" style="stroke: #000000; stroke-width: 0.8"/>
      </defs>
      <g>
       <use xlink:href="#m539bc39d9d" x="55.584" y="147.6" style="stroke: #000000; stroke-width: 0.8"/>
      </g>
     </g>
     <g id="text_6">
      <!-- 0 -->
      <g transform="translate(42.2215 151.399219) scale(0.1 -0.1)">
       <use xlink:href="#DejaVuSans-30"/>
      </g>
     </g>
    </g>
    <g id="ytick_2">
     <g id="line2d_7">
      <g>
       <use xlink:href="#m539bc39d9d" x="55.584" y="104.201291" style="stroke: #000000; stroke-width: 0.8"/>
      </g>
     </g>
     <g id="text_7">
      <!-- 20 -->
      <g transform="translate(35.859 108.00051) scale(0.1 -0.1)">
       <use xlink:href="#DejaVuSans-32"/>
       <use xlink:href="#DejaVuSans-30" x="63.623047"/>
      </g>
     </g>
    </g>
    <g id="ytick_3">
     <g id="line2d_8">
      <g>
       <use xlink:href="#m539bc39d9d" x="55.584" y="60.802583" style="stroke: #000000; stroke-width: 0.8"/>
      </g>
     </g>
     <g id="text_8">
      <!-- 40 -->
      <g transform="translate(35.859 64.601801) scale(0.1 -0.1)">
       <use xlink:href="#DejaVuSans-34"/>
       <use xlink:href="#DejaVuSans-30" x="63.623047"/>
      </g>
     </g>
    </g>
   </g>
   <g id="line2d_9">
    <path d="M 62.962512 46.8 
L 63.304903 51.729301 
L 63.647293 63.657254 
L 63.989683 69.882478 
L 64.332074 79.610201 
L 64.674464 76.452734 
L 65.016855 77.710294 
L 65.359245 89.100242 
L 65.701635 88.100546 
L 66.386416 104.412391 
L 66.728806 108.147816 
L 67.071197 98.018672 
L 67.413587 103.115759 
L 67.755978 96.83218 
L 68.098368 100.619077 
L 68.440758 99.994344 
L 68.783149 97.405318 
L 69.125539 96.728923 
L 69.467929 93.95235 
L 69.81032 95.016957 
L 70.15271 94.694403 
L 70.4951 89.797451 
L 70.837491 90.958392 
L 71.179881 90.850356 
L 71.522272 96.830687 
L 71.864662 96.552874 
L 72.549443 99.865357 
L 72.891833 95.95091 
L 73.234223 99.693802 
L 73.576614 98.82727 
L 74.261394 91.374851 
L 74.946175 99.634463 
L 75.288566 92.129962 
L 75.630956 91.8957 
L 75.973346 91.846699 
L 76.315737 95.318361 
L 77.000517 99.408906 
L 77.342908 97.875385 
L 77.685298 94.331665 
L 78.027689 96.318656 
L 78.370079 95.333989 
L 78.712469 96.332439 
L 79.05486 98.958074 
L 79.39725 95.784669 
L 79.73964 102.030507 
L 80.082031 104.183524 
L 80.424421 98.924089 
L 80.766811 96.395072 
L 81.109202 98.43448 
L 81.451592 97.507049 
L 81.793983 93.858565 
L 82.136373 99.941999 
L 82.478763 100.716358 
L 82.821154 97.126948 
L 83.163544 79.037069 
L 83.505934 76.093866 
L 83.848325 85.28944 
L 84.875496 120.959056 
L 85.560277 132.818482 
L 85.902667 135.060698 
L 86.245057 129.331687 
L 86.929838 138.297999 
L 87.272228 137.201821 
L 87.614619 135.555676 
L 87.957009 125.562001 
L 88.2994 129.558152 
L 88.98418 140.810205 
L 89.326571 139.042608 
L 89.668961 135.401762 
L 90.011351 133.208823 
L 90.353742 134.454783 
L 90.696132 128.419261 
L 91.380913 132.517417 
L 91.723303 132.834375 
L 92.065694 129.263329 
L 92.408084 127.658675 
L 92.750474 128.573229 
L 93.092865 120.379093 
L 93.435255 118.531922 
L 94.120036 120.634097 
L 94.462426 124.91135 
L 94.804816 125.245742 
L 95.831988 131.462134 
L 96.174378 130.994254 
L 96.516768 128.20258 
L 97.201549 107.034533 
L 97.543939 111.458868 
L 97.88633 111.048269 
L 98.22872 123.292216 
L 98.571111 131.087957 
L 98.913501 135.013543 
L 99.255891 133.854683 
L 99.940672 122.695703 
L 100.283062 127.959328 
L 100.625453 118.451732 
L 101.310233 141.88572 
L 101.995014 146.700989 
L 102.337405 132.536176 
L 102.679795 135.682417 
L 103.022185 131.172866 
L 103.364576 134.733418 
L 103.706966 141.399587 
L 104.391747 142.418353 
L 104.734137 135.887309 
L 105.076527 136.55448 
L 105.418918 140.889948 
L 105.761308 137.179302 
L 106.103699 137.090484 
L 106.446089 137.709959 
L 106.788479 136.977302 
L 107.13087 129.704987 
L 107.47326 131.250207 
L 107.81565 137.126772 
L 108.158041 128.344609 
L 108.500431 125.475386 
L 108.842821 125.459409 
L 109.185212 125.711321 
L 109.527602 128.791759 
L 109.869993 128.669639 
L 110.212383 131.749101 
L 110.897164 135.228141 
L 111.239554 134.82643 
L 111.581944 132.026083 
L 111.924335 125.301798 
L 112.266725 126.068742 
L 112.609116 119.334334 
L 112.951506 121.599515 
L 113.293896 125.254931 
L 113.978677 128.460818 
L 114.321067 128.780217 
L 115.005848 121.479793 
L 115.348238 121.309891 
L 116.033019 127.288278 
L 116.37541 128.53177 
L 117.06019 121.883273 
L 117.402581 118.054728 
L 117.744971 118.576491 
L 118.087361 124.484531 
L 118.429752 124.26747 
L 118.772142 123.741953 
L 119.114532 127.744114 
L 119.456923 124.686825 
L 119.799313 127.788381 
L 120.141704 127.868755 
L 120.484094 124.725736 
L 120.826484 125.891584 
L 121.168875 130.003538 
L 121.511265 130.195137 
L 121.853655 129.249283 
L 122.196046 128.942576 
L 122.538436 130.310315 
L 122.880827 122.259819 
L 123.223217 119.990297 
L 123.565607 118.927966 
L 123.907998 123.701759 
L 124.250388 125.255394 
L 124.592778 129.088487 
L 124.935169 128.867954 
L 125.277559 132.85262 
L 125.619949 131.945213 
L 125.96234 131.386258 
L 126.30473 133.454386 
L 126.989511 129.079896 
L 127.331901 130.081519 
L 127.674292 122.455489 
L 128.016682 123.619894 
L 128.359072 123.420485 
L 128.701463 124.167811 
L 129.043853 125.546957 
L 129.386243 128.725624 
L 129.728634 128.083221 
L 130.755805 124.238282 
L 131.098195 120.070148 
L 131.440586 120.770441 
L 131.782976 119.312329 
L 132.125366 119.020392 
L 132.467757 121.072952 
L 132.810147 120.378203 
L 133.152538 121.178892 
L 133.494928 119.208393 
L 133.837318 118.428853 
L 134.179709 121.408042 
L 134.522099 122.015572 
L 134.864489 118.883595 
L 135.20688 127.872976 
L 136.234051 113.023287 
L 136.576441 115.48565 
L 136.918832 124.237655 
L 137.261222 111.912981 
L 137.603612 107.346385 
L 137.946003 105.922777 
L 138.288393 108.180339 
L 138.630783 99.860058 
L 138.973174 105.041189 
L 139.315564 107.352018 
L 139.657954 112.304863 
L 140.000345 115.481449 
L 140.342735 116.229148 
L 140.685126 117.661488 
L 141.027516 118.427748 
L 141.712297 124.896747 
L 142.054687 122.722749 
L 142.397077 121.806882 
L 143.081858 118.531623 
L 143.424249 116.274337 
L 143.766639 116.803627 
L 144.45142 121.044588 
L 144.79381 121.069983 
L 145.1362 116.341321 
L 145.478591 122.750168 
L 145.820981 120.23622 
L 146.163371 125.497845 
L 146.505762 121.143312 
L 146.848152 125.101723 
L 147.190543 137.418457 
L 147.532933 139.325016 
L 147.875323 147.6 
L 148.217714 147.6 
L 148.560104 144.200204 
L 148.902494 144.987038 
L 149.244885 142.22763 
L 149.587275 137.046851 
L 150.272056 146.413228 
L 150.614446 147.6 
L 150.956837 143.716918 
L 151.984008 137.49228 
L 152.326398 127.721404 
L 152.668788 132.52893 
L 153.011179 135.730668 
L 153.353569 140.58232 
L 153.69596 136.923866 
L 154.38074 134.65006 
L 154.723131 137.744887 
L 155.065521 139.226736 
L 155.407911 139.387636 
L 156.092692 136.681438 
L 156.435082 136.282116 
L 156.777473 135.444072 
L 157.119863 129.931108 
L 157.462254 133.180927 
L 157.804644 134.286435 
L 158.147034 134.16897 
L 158.489425 134.306565 
L 158.831815 136.311173 
L 159.174205 136.646823 
L 159.516596 136.264913 
L 159.858986 139.694728 
L 160.201376 139.311174 
L 160.886157 142.49486 
L 161.228548 143.412346 
L 161.570938 147.6 
L 161.913328 141.926437 
L 162.255719 144.158482 
L 162.598109 137.231124 
L 162.940499 141.829794 
L 163.28289 141.08318 
L 163.62528 141.388558 
L 163.96767 138.446058 
L 164.310061 139.06766 
L 164.652451 138.286657 
L 164.994842 139.997152 
L 165.337232 138.743671 
L 165.679622 139.827723 
L 166.022013 139.013986 
L 166.364403 139.227031 
L 166.706793 138.810627 
L 167.049184 141.448426 
L 167.391574 141.991214 
L 168.076355 143.939041 
L 168.418745 137.05603 
L 168.761136 142.278429 
L 169.103526 144.599823 
L 169.445916 142.858708 
L 169.788307 142.371794 
L 170.130697 140.08322 
L 170.473087 142.391927 
L 170.815478 134.596187 
L 171.157868 140.667349 
L 171.500259 134.729084 
L 171.842649 135.442835 
L 172.185039 132.228796 
L 172.52743 132.962132 
L 172.86982 132.619213 
L 173.21221 124.015308 
L 173.554601 120.242897 
L 173.896991 123.435234 
L 174.239381 124.768141 
L 174.581772 123.160987 
L 174.924162 125.897634 
L 175.266553 127.400928 
L 175.608943 132.032354 
L 176.293724 116.622807 
L 176.636114 116.033383 
L 177.663285 127.27911 
L 178.005676 129.291647 
L 178.348066 130.154209 
L 178.690456 129.853524 
L 179.032847 126.02617 
L 179.375237 124.384388 
L 179.717627 124.358859 
L 180.060018 118.982086 
L 180.402408 116.418175 
L 180.744798 126.976858 
L 181.429579 122.173964 
L 181.77197 127.687744 
L 182.11436 123.484527 
L 182.45675 125.16486 
L 182.799141 132.875886 
L 183.141531 137.966756 
L 183.483921 140.831524 
L 183.826312 145.988905 
L 184.853483 132.785493 
L 185.195873 138.436697 
L 185.538264 135.917578 
L 185.880654 128.838851 
L 186.565435 120.4158 
L 186.907825 119.363316 
L 187.250215 123.570981 
L 187.592606 121.071218 
L 187.934996 125.068927 
L 188.277387 122.48684 
L 188.619777 128.190622 
L 188.962167 128.095657 
L 189.304558 130.533289 
L 189.646948 128.891691 
L 189.989338 132.898347 
L 190.331729 131.894695 
L 190.674119 131.898469 
L 191.016509 129.456224 
L 191.70129 130.843559 
L 192.386071 139.226944 
L 192.728461 141.279262 
L 193.070852 140.382723 
L 193.413242 132.780936 
L 193.755632 134.872396 
L 194.098023 134.395385 
L 194.440413 124.835839 
L 194.782803 123.759386 
L 195.125194 128.274403 
L 195.809975 121.11277 
L 196.152365 117.892364 
L 196.494755 117.854167 
L 197.179536 124.405478 
L 197.521926 115.987855 
L 197.864317 116.162672 
L 198.206707 125.381612 
L 198.549098 124.826625 
L 198.891488 132.40335 
L 199.233878 126.861224 
L 199.918659 129.781935 
L 200.261049 128.518198 
L 200.60344 128.99513 
L 200.94583 120.800729 
L 201.630611 125.572734 
L 201.973001 131.586983 
L 202.315392 130.364498 
L 202.657782 139.441188 
L 203.000172 144.011784 
L 203.342563 139.744717 
L 203.684953 142.561651 
L 204.027343 140.896455 
L 204.369734 135.304601 
L 204.712124 138.143387 
L 205.054514 138.205115 
L 205.396905 141.346192 
L 205.739295 145.906146 
L 206.081686 143.78316 
L 206.424076 145.826941 
L 207.108857 147.6 
L 210.53276 147.6 
L 210.53276 147.6 
" clip-path="url(#p7beabd8696)" style="fill: none; stroke: #008000; stroke-width: 1.5; stroke-linecap: square"/>
   </g>
   <g id="patch_3">
    <path d="M 55.584 152.64 
L 55.584 41.76 
" style="fill: none; stroke: #000000; stroke-width: 0.8; stroke-linejoin: miter; stroke-linecap: square"/>
   </g>
   <g id="patch_4">
    <path d="M 217.911273 152.64 
L 217.911273 41.76 
" style="fill: none; stroke: #000000; stroke-width: 0.8; stroke-linejoin: miter; stroke-linecap: square"/>
   </g>
   <g id="patch_5">
    <path d="M 55.584 152.64 
L 217.911273 152.64 
" style="fill: none; stroke: #000000; stroke-width: 0.8; stroke-linejoin: miter; stroke-linecap: square"/>
   </g>
   <g id="patch_6">
    <path d="M 55.584 41.76 
L 217.911273 41.76 
" style="fill: none; stroke: #000000; stroke-width: 0.8; stroke-linejoin: miter; stroke-linecap: square"/>
   </g>
   <g id="text_9">
    <!-- No Prediction (FOSS) -->
    <g transform="translate(74.495761 35.76) scale(0.12 -0.12)">
     <defs>
      <path id="DejaVuSans-4e" d="M 628 4666 
L 1478 4666 
L 3547 763 
L 3547 4666 
L 4159 4666 
L 4159 0 
L 3309 0 
L 1241 3903 
L 1241 0 
L 628 0 
L 628 4666 
z
" transform="scale(0.015625)"/>
      <path id="DejaVuSans-6f" d="M 1959 3097 
Q 1497 3097 1228 2736 
Q 959 2375 959 1747 
Q 959 1119 1226 758 
Q 1494 397 1959 397 
Q 2419 397 2687 759 
Q 2956 1122 2956 1747 
Q 2956 2369 2687 2733 
Q 2419 3097 1959 3097 
z
M 1959 3584 
Q 2709 3584 3137 3096 
Q 3566 2609 3566 1747 
Q 3566 888 3137 398 
Q 2709 -91 1959 -91 
Q 1206 -91 779 398 
Q 353 888 353 1747 
Q 353 2609 779 3096 
Q 1206 3584 1959 3584 
z
" transform="scale(0.015625)"/>
      <path id="DejaVuSans-20" transform="scale(0.015625)"/>
      <path id="DejaVuSans-50" d="M 1259 4147 
L 1259 2394 
L 2053 2394 
Q 2494 2394 2734 2622 
Q 2975 2850 2975 3272 
Q 2975 3691 2734 3919 
Q 2494 4147 2053 4147 
L 1259 4147 
z
M 628 4666 
L 2053 4666 
Q 2838 4666 3239 4311 
Q 3641 3956 3641 3272 
Q 3641 2581 3239 2228 
Q 2838 1875 2053 1875 
L 1259 1875 
L 1259 0 
L 628 0 
L 628 4666 
z
" transform="scale(0.015625)"/>
      <path id="DejaVuSans-72" d="M 2631 2963 
Q 2534 3019 2420 3045 
Q 2306 3072 2169 3072 
Q 1681 3072 1420 2755 
Q 1159 2438 1159 1844 
L 1159 0 
L 581 0 
L 581 3500 
L 1159 3500 
L 1159 2956 
Q 1341 3275 1631 3429 
Q 1922 3584 2338 3584 
Q 2397 3584 2469 3576 
Q 2541 3569 2628 3553 
L 2631 2963 
z
" transform="scale(0.015625)"/>
      <path id="DejaVuSans-65" d="M 3597 1894 
L 3597 1613 
L 953 1613 
Q 991 1019 1311 708 
Q 1631 397 2203 397 
Q 2534 397 2845 478 
Q 3156 559 3463 722 
L 3463 178 
Q 3153 47 2828 -22 
Q 2503 -91 2169 -91 
Q 1331 -91 842 396 
Q 353 884 353 1716 
Q 353 2575 817 3079 
Q 1281 3584 2069 3584 
Q 2775 3584 3186 3129 
Q 3597 2675 3597 1894 
z
M 3022 2063 
Q 3016 2534 2758 2815 
Q 2500 3097 2075 3097 
Q 1594 3097 1305 2825 
Q 1016 2553 972 2059 
L 3022 2063 
z
" transform="scale(0.015625)"/>
      <path id="DejaVuSans-64" d="M 2906 2969 
L 2906 4863 
L 3481 4863 
L 3481 0 
L 2906 0 
L 2906 525 
Q 2725 213 2448 61 
Q 2172 -91 1784 -91 
Q 1150 -91 751 415 
Q 353 922 353 1747 
Q 353 2572 751 3078 
Q 1150 3584 1784 3584 
Q 2172 3584 2448 3432 
Q 2725 3281 2906 2969 
z
M 947 1747 
Q 947 1113 1208 752 
Q 1469 391 1925 391 
Q 2381 391 2643 752 
Q 2906 1113 2906 1747 
Q 2906 2381 2643 2742 
Q 2381 3103 1925 3103 
Q 1469 3103 1208 2742 
Q 947 2381 947 1747 
z
" transform="scale(0.015625)"/>
      <path id="DejaVuSans-69" d="M 603 3500 
L 1178 3500 
L 1178 0 
L 603 0 
L 603 3500 
z
M 603 4863 
L 1178 4863 
L 1178 4134 
L 603 4134 
L 603 4863 
z
" transform="scale(0.015625)"/>
      <path id="DejaVuSans-63" d="M 3122 3366 
L 3122 2828 
Q 2878 2963 2633 3030 
Q 2388 3097 2138 3097 
Q 1578 3097 1268 2742 
Q 959 2388 959 1747 
Q 959 1106 1268 751 
Q 1578 397 2138 397 
Q 2388 397 2633 464 
Q 2878 531 3122 666 
L 3122 134 
Q 2881 22 2623 -34 
Q 2366 -91 2075 -91 
Q 1284 -91 818 406 
Q 353 903 353 1747 
Q 353 2603 823 3093 
Q 1294 3584 2113 3584 
Q 2378 3584 2631 3529 
Q 2884 3475 3122 3366 
z
" transform="scale(0.015625)"/>
      <path id="DejaVuSans-74" d="M 1172 4494 
L 1172 3500 
L 2356 3500 
L 2356 3053 
L 1172 3053 
L 1172 1153 
Q 1172 725 1289 603 
Q 1406 481 1766 481 
L 2356 481 
L 2356 0 
L 1766 0 
Q 1100 0 847 248 
Q 594 497 594 1153 
L 594 3053 
L 172 3053 
L 172 3500 
L 594 3500 
L 594 4494 
L 1172 4494 
z
" transform="scale(0.015625)"/>
      <path id="DejaVuSans-6e" d="M 3513 2113 
L 3513 0 
L 2938 0 
L 2938 2094 
Q 2938 2591 2744 2837 
Q 2550 3084 2163 3084 
Q 1697 3084 1428 2787 
Q 1159 2491 1159 1978 
L 1159 0 
L 581 0 
L 581 3500 
L 1159 3500 
L 1159 2956 
Q 1366 3272 1645 3428 
Q 1925 3584 2291 3584 
Q 2894 3584 3203 3211 
Q 3513 2838 3513 2113 
z
" transform="scale(0.015625)"/>
      <path id="DejaVuSans-28" d="M 1984 4856 
Q 1566 4138 1362 3434 
Q 1159 2731 1159 2009 
Q 1159 1288 1364 580 
Q 1569 -128 1984 -844 
L 1484 -844 
Q 1016 -109 783 600 
Q 550 1309 550 2009 
Q 550 2706 781 3412 
Q 1013 4119 1484 4856 
L 1984 4856 
z
" transform="scale(0.015625)"/>
      <path id="DejaVuSans-46" d="M 628 4666 
L 3309 4666 
L 3309 4134 
L 1259 4134 
L 1259 2759 
L 3109 2759 
L 3109 2228 
L 1259 2228 
L 1259 0 
L 628 0 
L 628 4666 
z
" transform="scale(0.015625)"/>
      <path id="DejaVuSans-4f" d="M 2522 4238 
Q 1834 4238 1429 3725 
Q 1025 3213 1025 2328 
Q 1025 1447 1429 934 
Q 1834 422 2522 422 
Q 3209 422 3611 934 
Q 4013 1447 4013 2328 
Q 4013 3213 3611 3725 
Q 3209 4238 2522 4238 
z
M 2522 4750 
Q 3503 4750 4090 4092 
Q 4678 3434 4678 2328 
Q 4678 1225 4090 567 
Q 3503 -91 2522 -91 
Q 1538 -91 948 565 
Q 359 1222 359 2328 
Q 359 3434 948 4092 
Q 1538 4750 2522 4750 
z
" transform="scale(0.015625)"/>
      <path id="DejaVuSans-53" d="M 3425 4513 
L 3425 3897 
Q 3066 4069 2747 4153 
Q 2428 4238 2131 4238 
Q 1616 4238 1336 4038 
Q 1056 3838 1056 3469 
Q 1056 3159 1242 3001 
Q 1428 2844 1947 2747 
L 2328 2669 
Q 3034 2534 3370 2195 
Q 3706 1856 3706 1288 
Q 3706 609 3251 259 
Q 2797 -91 1919 -91 
Q 1588 -91 1214 -16 
Q 841 59 441 206 
L 441 856 
Q 825 641 1194 531 
Q 1563 422 1919 422 
Q 2459 422 2753 634 
Q 3047 847 3047 1241 
Q 3047 1584 2836 1778 
Q 2625 1972 2144 2069 
L 1759 2144 
Q 1053 2284 737 2584 
Q 422 2884 422 3419 
Q 422 4038 858 4394 
Q 1294 4750 2059 4750 
Q 2388 4750 2728 4690 
Q 3069 4631 3425 4513 
z
" transform="scale(0.015625)"/>
      <path id="DejaVuSans-29" d="M 513 4856 
L 1013 4856 
Q 1481 4119 1714 3412 
Q 1947 2706 1947 2009 
Q 1947 1309 1714 600 
Q 1481 -109 1013 -844 
L 513 -844 
Q 928 -128 1133 580 
Q 1338 1288 1338 2009 
Q 1338 2731 1133 3434 
Q 928 4138 513 4856 
z
" transform="scale(0.015625)"/>
     </defs>
     <use xlink:href="#DejaVuSans-4e"/>
     <use xlink:href="#DejaVuSans-6f" x="74.804688"/>
     <use xlink:href="#DejaVuSans-20" x="135.986328"/>
     <use xlink:href="#DejaVuSans-50" x="167.773438"/>
     <use xlink:href="#DejaVuSans-72" x="226.326172"/>
     <use xlink:href="#DejaVuSans-65" x="265.189453"/>
     <use xlink:href="#DejaVuSans-64" x="326.712891"/>
     <use xlink:href="#DejaVuSans-69" x="390.189453"/>
     <use xlink:href="#DejaVuSans-63" x="417.972656"/>
     <use xlink:href="#DejaVuSans-74" x="472.953125"/>
     <use xlink:href="#DejaVuSans-69" x="512.162109"/>
     <use xlink:href="#DejaVuSans-6f" x="539.945312"/>
     <use xlink:href="#DejaVuSans-6e" x="601.126953"/>
     <use xlink:href="#DejaVuSans-20" x="664.505859"/>
     <use xlink:href="#DejaVuSans-28" x="696.292969"/>
     <use xlink:href="#DejaVuSans-46" x="735.306641"/>
     <use xlink:href="#DejaVuSans-4f" x="792.826172"/>
     <use xlink:href="#DejaVuSans-53" x="871.537109"/>
     <use xlink:href="#DejaVuSans-53" x="935.013672"/>
     <use xlink:href="#DejaVuSans-29" x="998.490234"/>
    </g>
   </g>
  </g>
  <g id="axes_2">
   <g id="patch_7">
    <path d="M 250.376727 152.64 
L 412.704 152.64 
L 412.704 41.76 
L 250.376727 41.76 
z
" style="fill: #ffffff"/>
   </g>
   <g id="matplotlib.axis_3">
    <g id="xtick_6">
     <g id="line2d_10">
      <g>
       <use xlink:href="#m0501f173db" x="257.75524" y="152.64" style="stroke: #000000; stroke-width: 0.8"/>
      </g>
     </g>
     <g id="text_10">
      <!-- 0 -->
      <g transform="translate(254.57399 167.238437) scale(0.1 -0.1)">
       <use xlink:href="#DejaVuSans-30"/>
      </g>
     </g>
    </g>
    <g id="xtick_7">
     <g id="line2d_11">
      <g>
       <use xlink:href="#m0501f173db" x="291.994276" y="152.64" style="stroke: #000000; stroke-width: 0.8"/>
      </g>
     </g>
     <g id="text_11">
      <!-- 100 -->
      <g transform="translate(282.450526 167.238437) scale(0.1 -0.1)">
       <use xlink:href="#DejaVuSans-31"/>
       <use xlink:href="#DejaVuSans-30" x="63.623047"/>
       <use xlink:href="#DejaVuSans-30" x="127.246094"/>
      </g>
     </g>
    </g>
    <g id="xtick_8">
     <g id="line2d_12">
      <g>
       <use xlink:href="#m0501f173db" x="326.233313" y="152.64" style="stroke: #000000; stroke-width: 0.8"/>
      </g>
     </g>
     <g id="text_12">
      <!-- 200 -->
      <g transform="translate(316.689563 167.238437) scale(0.1 -0.1)">
       <use xlink:href="#DejaVuSans-32"/>
       <use xlink:href="#DejaVuSans-30" x="63.623047"/>
       <use xlink:href="#DejaVuSans-30" x="127.246094"/>
      </g>
     </g>
    </g>
    <g id="xtick_9">
     <g id="line2d_13">
      <g>
       <use xlink:href="#m0501f173db" x="360.47235" y="152.64" style="stroke: #000000; stroke-width: 0.8"/>
      </g>
     </g>
     <g id="text_13">
      <!-- 300 -->
      <g transform="translate(350.9286 167.238437) scale(0.1 -0.1)">
       <use xlink:href="#DejaVuSans-33"/>
       <use xlink:href="#DejaVuSans-30" x="63.623047"/>
       <use xlink:href="#DejaVuSans-30" x="127.246094"/>
      </g>
     </g>
    </g>
    <g id="xtick_10">
     <g id="line2d_14">
      <g>
       <use xlink:href="#m0501f173db" x="394.711386" y="152.64" style="stroke: #000000; stroke-width: 0.8"/>
      </g>
     </g>
     <g id="text_14">
      <!-- 400 -->
      <g transform="translate(385.167636 167.238437) scale(0.1 -0.1)">
       <use xlink:href="#DejaVuSans-34"/>
       <use xlink:href="#DejaVuSans-30" x="63.623047"/>
       <use xlink:href="#DejaVuSans-30" x="127.246094"/>
      </g>
     </g>
    </g>
   </g>
   <g id="matplotlib.axis_4">
    <g id="ytick_4">
     <g id="line2d_15">
      <g>
       <use xlink:href="#m539bc39d9d" x="250.376727" y="147.6" style="stroke: #000000; stroke-width: 0.8"/>
      </g>
     </g>
     <g id="text_15">
      <!-- 0 -->
      <g transform="translate(237.014227 151.399219) scale(0.1 -0.1)">
       <use xlink:href="#DejaVuSans-30"/>
      </g>
     </g>
    </g>
    <g id="ytick_5">
     <g id="line2d_16">
      <g>
       <use xlink:href="#m539bc39d9d" x="250.376727" y="104.287547" style="stroke: #000000; stroke-width: 0.8"/>
      </g>
     </g>
     <g id="text_16">
      <!-- 20 -->
      <g transform="translate(230.651727 108.086766) scale(0.1 -0.1)">
       <use xlink:href="#DejaVuSans-32"/>
       <use xlink:href="#DejaVuSans-30" x="63.623047"/>
      </g>
     </g>
    </g>
    <g id="ytick_6">
     <g id="line2d_17">
      <g>
       <use xlink:href="#m539bc39d9d" x="250.376727" y="60.975094" style="stroke: #000000; stroke-width: 0.8"/>
      </g>
     </g>
     <g id="text_17">
      <!-- 40 -->
      <g transform="translate(230.651727 64.774313) scale(0.1 -0.1)">
       <use xlink:href="#DejaVuSans-34"/>
       <use xlink:href="#DejaVuSans-30" x="63.623047"/>
      </g>
     </g>
    </g>
   </g>
   <g id="line2d_18">
    <path d="M 257.75524 46.8 
L 258.09763 51.924158 
L 258.44002 63.819648 
L 258.782411 70.046359 
L 259.124801 79.76474 
L 259.467192 76.579847 
L 259.809582 77.896232 
L 260.151972 89.162275 
L 260.494363 88.234601 
L 261.179143 104.520334 
L 261.521534 108.214867 
L 261.863924 147.6 
L 263.918266 147.6 
L 264.260657 141.549712 
L 264.603047 129.757723 
L 264.945437 132.247741 
L 265.287828 136.021083 
L 265.630218 136.503659 
L 265.972608 90.983029 
L 266.314999 96.944596 
L 266.657389 96.65816 
L 266.99978 97.931299 
L 267.34217 99.974127 
L 267.68456 96.033995 
L 268.026951 99.789276 
L 268.369341 98.911852 
L 269.054122 91.50311 
L 269.738902 99.727311 
L 270.081293 139.599285 
L 270.423683 141.138458 
L 270.766074 129.832809 
L 271.450854 147.6 
L 273.847587 147.6 
L 274.189977 95.834593 
L 274.532368 102.116019 
L 274.874758 104.257057 
L 275.217148 99.019228 
L 275.559539 96.504191 
L 275.901929 98.52107 
L 276.244319 97.596102 
L 276.58671 93.953284 
L 276.9291 100.006943 
L 277.271491 100.796604 
L 277.613881 97.217566 
L 277.956271 79.16868 
L 278.298662 138.529168 
L 278.641052 130.291387 
L 278.983442 141.902132 
L 279.668223 140.283095 
L 280.010613 145.836085 
L 280.353004 143.968794 
L 280.695394 145.44307 
L 281.037785 136.576225 
L 281.380175 137.27435 
L 281.722565 142.234475 
L 282.064956 141.845562 
L 282.407346 135.574399 
L 282.749736 125.610885 
L 283.092127 129.600661 
L 283.776908 140.826734 
L 284.119298 139.064231 
L 284.461688 135.414202 
L 284.804079 133.24273 
L 285.146469 134.484264 
L 285.488859 128.453496 
L 286.17364 132.5309 
L 286.51603 147.6 
L 287.543202 147.6 
L 287.885592 146.8714 
L 288.227982 147.6 
L 290.282324 147.6 
L 290.624715 131.510654 
L 290.967105 131.022893 
L 291.309496 128.22038 
L 291.994276 107.107302 
L 292.336667 111.530537 
L 292.679057 111.048376 
L 293.021447 123.329702 
L 293.363838 131.130836 
L 293.706228 135.034115 
L 294.048619 133.875282 
L 294.391009 127.64678 
L 294.733399 147.6 
L 295.07579 144.19155 
L 295.41818 147.6 
L 297.472522 147.6 
L 297.814913 141.92753 
L 298.157303 146.292232 
L 298.499693 147.6 
L 298.842084 141.967005 
L 299.184474 142.625853 
L 299.526864 135.789151 
L 299.869255 136.567684 
L 300.211645 140.897088 
L 300.554035 137.209583 
L 300.896426 137.111859 
L 301.238816 137.741468 
L 301.581207 137.016444 
L 301.923597 129.738516 
L 302.265987 131.286999 
L 302.608378 137.143664 
L 302.950768 146.737346 
L 303.293158 142.776777 
L 303.635549 147.6 
L 303.977939 146.733978 
L 304.32033 147.6 
L 304.66272 139.928429 
L 305.00511 147.6 
L 305.347501 143.519274 
L 305.689891 147.049603 
L 306.032281 147.585863 
L 306.717062 147.6 
L 307.059452 126.113348 
L 307.401843 119.38601 
L 307.744233 121.65316 
L 308.086624 125.295037 
L 308.771404 128.538612 
L 309.113795 128.811989 
L 309.798575 121.539538 
L 310.140966 121.357823 
L 310.825746 127.330653 
L 311.168137 147.6 
L 314.934431 147.6 
L 315.276821 124.77068 
L 315.619212 125.168643 
L 315.961602 130.039403 
L 316.303992 130.254881 
L 316.646383 129.280818 
L 316.988773 128.96943 
L 317.331163 130.33095 
L 317.673554 122.305289 
L 318.015944 120.067493 
L 318.358335 118.971324 
L 318.700725 123.679858 
L 319.043115 125.283737 
L 319.385506 147.6 
L 319.727896 144.165262 
L 320.070286 147.6 
L 323.1518 147.6 
L 323.49419 124.209229 
L 323.83658 125.599641 
L 324.178971 128.742958 
L 324.521361 128.110293 
L 325.548532 124.29345 
L 325.890923 120.119266 
L 326.233313 120.826084 
L 326.575703 119.354836 
L 326.918094 119.081966 
L 327.260484 121.128678 
L 327.602874 147.6 
L 329.314826 147.6 
L 329.657217 146.628731 
L 329.999607 147.6 
L 330.341997 147.6 
L 330.684388 145.795207 
L 331.026778 139.16922 
L 331.369168 136.02554 
L 332.053949 111.959707 
L 332.39634 107.411817 
L 332.73873 106.011004 
L 333.08112 108.262051 
L 333.423511 99.951565 
L 333.765901 105.145214 
L 334.108291 107.442658 
L 334.450682 112.631167 
L 334.793072 115.386549 
L 335.135462 116.285203 
L 335.477853 117.736178 
L 335.820243 147.6 
L 339.586537 147.6 
L 339.928928 116.422618 
L 340.271318 122.801591 
L 340.613708 120.283904 
L 340.956099 125.540996 
L 341.298489 121.194262 
L 341.640879 125.161605 
L 341.98327 137.447516 
L 342.32566 139.348874 
L 342.668051 147.6 
L 343.010441 147.6 
L 343.352831 144.201311 
L 343.695222 145.00255 
L 344.037612 147.6 
L 347.803906 147.6 
L 348.146296 140.704471 
L 348.488687 136.947484 
L 349.173468 134.683681 
L 349.515858 137.753072 
L 349.858248 139.212563 
L 350.200639 139.407146 
L 350.885419 136.712932 
L 351.22781 136.314994 
L 351.5702 135.456685 
L 351.91259 129.962465 
L 352.254981 147.6 
L 356.363665 147.6 
L 356.706056 141.944619 
L 357.048446 144.167668 
L 357.390836 137.258251 
L 357.733227 141.839795 
L 358.075617 141.089493 
L 358.418007 141.399476 
L 358.760398 138.460624 
L 359.102788 139.078816 
L 359.445179 138.323018 
L 359.787569 140.008979 
L 360.129959 138.762638 
L 360.47235 147.6 
L 364.238644 147.6 
L 364.581034 142.386666 
L 364.923424 140.09863 
L 365.265815 142.399892 
L 365.608205 134.615849 
L 365.950595 140.687268 
L 366.292986 134.749836 
L 366.635376 135.470322 
L 366.977767 132.270393 
L 367.320157 132.994876 
L 367.662547 132.648983 
L 368.004938 124.070846 
L 368.347328 120.239179 
L 368.689718 147.6 
L 372.456012 147.6 
L 372.798403 129.321941 
L 373.140793 130.19543 
L 373.483184 129.891056 
L 373.825574 126.063268 
L 374.167964 124.434737 
L 374.510355 124.394364 
L 374.852745 119.041644 
L 375.195135 116.476503 
L 375.537526 127.01209 
L 376.222306 122.223498 
L 376.564697 127.887866 
L 376.907087 147.6 
L 380.673381 147.6 
L 381.015772 125.030838 
L 381.358162 120.472319 
L 381.700552 119.419876 
L 382.042943 123.613102 
L 382.385333 121.147695 
L 382.727723 125.110613 
L 383.070114 122.539404 
L 383.412504 128.212387 
L 383.754895 128.143615 
L 384.097285 130.575612 
L 384.439675 128.923588 
L 384.782066 132.938466 
L 385.124456 147.6 
L 388.54836 147.6 
L 388.89075 146.055393 
L 389.23314 124.87893 
L 389.575531 123.569023 
L 389.917921 128.303261 
L 390.602702 121.161431 
L 390.945092 117.949908 
L 391.287483 117.916142 
L 391.972263 124.387629 
L 392.314654 116.048522 
L 392.657044 116.26419 
L 392.999434 125.421573 
L 393.341825 147.6 
L 393.684215 145.712225 
L 394.026606 147.6 
L 395.738557 147.6 
L 396.080948 135.742714 
L 396.423338 145.997043 
L 396.765728 147.6 
L 397.108119 147.6 
L 397.450509 139.453759 
L 397.7929 144.352413 
L 398.13529 139.745666 
L 398.47768 142.564992 
L 398.820071 140.908508 
L 399.162461 135.331514 
L 399.504851 138.16668 
L 399.847242 138.172611 
L 400.189632 141.331772 
L 400.532022 145.897201 
L 400.874413 143.783378 
L 401.559194 147.6 
L 405.325488 147.6 
L 405.325488 147.6 
" clip-path="url(#p325a6746c2)" style="fill: none; stroke: #0000ff; stroke-width: 1.5; stroke-linecap: square"/>
   </g>
   <g id="patch_8">
    <path d="M 250.376727 152.64 
L 250.376727 41.76 
" style="fill: none; stroke: #000000; stroke-width: 0.8; stroke-linejoin: miter; stroke-linecap: square"/>
   </g>
   <g id="patch_9">
    <path d="M 412.704 152.64 
L 412.704 41.76 
" style="fill: none; stroke: #000000; stroke-width: 0.8; stroke-linejoin: miter; stroke-linecap: square"/>
   </g>
   <g id="patch_10">
    <path d="M 250.376727 152.64 
L 412.704 152.64 
" style="fill: none; stroke: #000000; stroke-width: 0.8; stroke-linejoin: miter; stroke-linecap: square"/>
   </g>
   <g id="patch_11">
    <path d="M 250.376727 41.76 
L 412.704 41.76 
" style="fill: none; stroke: #000000; stroke-width: 0.8; stroke-linejoin: miter; stroke-linecap: square"/>
   </g>
   <g id="text_18">
    <!-- RNN -->
    <g transform="translate(318.393801 35.76) scale(0.12 -0.12)">
     <defs>
      <path id="DejaVuSans-52" d="M 2841 2188 
Q 3044 2119 3236 1894 
Q 3428 1669 3622 1275 
L 4263 0 
L 3584 0 
L 2988 1197 
Q 2756 1666 2539 1819 
Q 2322 1972 1947 1972 
L 1259 1972 
L 1259 0 
L 628 0 
L 628 4666 
L 2053 4666 
Q 2853 4666 3247 4331 
Q 3641 3997 3641 3322 
Q 3641 2881 3436 2590 
Q 3231 2300 2841 2188 
z
M 1259 4147 
L 1259 2491 
L 2053 2491 
Q 2509 2491 2742 2702 
Q 2975 2913 2975 3322 
Q 2975 3731 2742 3939 
Q 2509 4147 2053 4147 
L 1259 4147 
z
" transform="scale(0.015625)"/>
     </defs>
     <use xlink:href="#DejaVuSans-52"/>
     <use xlink:href="#DejaVuSans-4e" x="69.482422"/>
     <use xlink:href="#DejaVuSans-4e" x="144.287109"/>
    </g>
   </g>
  </g>
  <g id="axes_3">
   <g id="patch_12">
    <path d="M 55.584 307.872 
L 217.911273 307.872 
L 217.911273 196.992 
L 55.584 196.992 
z
" style="fill: #ffffff"/>
   </g>
   <g id="matplotlib.axis_5">
    <g id="xtick_11">
     <g id="line2d_19">
      <g>
       <use xlink:href="#m0501f173db" x="62.962512" y="307.872" style="stroke: #000000; stroke-width: 0.8"/>
      </g>
     </g>
     <g id="text_19">
      <!-- 0 -->
      <g transform="translate(59.781262 322.470437) scale(0.1 -0.1)">
       <use xlink:href="#DejaVuSans-30"/>
      </g>
     </g>
    </g>
    <g id="xtick_12">
     <g id="line2d_20">
      <g>
       <use xlink:href="#m0501f173db" x="97.201549" y="307.872" style="stroke: #000000; stroke-width: 0.8"/>
      </g>
     </g>
     <g id="text_20">
      <!-- 100 -->
      <g transform="translate(87.657799 322.470437) scale(0.1 -0.1)">
       <use xlink:href="#DejaVuSans-31"/>
       <use xlink:href="#DejaVuSans-30" x="63.623047"/>
       <use xlink:href="#DejaVuSans-30" x="127.246094"/>
      </g>
     </g>
    </g>
    <g id="xtick_13">
     <g id="line2d_21">
      <g>
       <use xlink:href="#m0501f173db" x="131.440586" y="307.872" style="stroke: #000000; stroke-width: 0.8"/>
      </g>
     </g>
     <g id="text_21">
      <!-- 200 -->
      <g transform="translate(121.896836 322.470437) scale(0.1 -0.1)">
       <use xlink:href="#DejaVuSans-32"/>
       <use xlink:href="#DejaVuSans-30" x="63.623047"/>
       <use xlink:href="#DejaVuSans-30" x="127.246094"/>
      </g>
     </g>
    </g>
    <g id="xtick_14">
     <g id="line2d_22">
      <g>
       <use xlink:href="#m0501f173db" x="165.679622" y="307.872" style="stroke: #000000; stroke-width: 0.8"/>
      </g>
     </g>
     <g id="text_22">
      <!-- 300 -->
      <g transform="translate(156.135872 322.470437) scale(0.1 -0.1)">
       <use xlink:href="#DejaVuSans-33"/>
       <use xlink:href="#DejaVuSans-30" x="63.623047"/>
       <use xlink:href="#DejaVuSans-30" x="127.246094"/>
      </g>
     </g>
    </g>
    <g id="xtick_15">
     <g id="line2d_23">
      <g>
       <use xlink:href="#m0501f173db" x="199.918659" y="307.872" style="stroke: #000000; stroke-width: 0.8"/>
      </g>
     </g>
     <g id="text_23">
      <!-- 400 -->
      <g transform="translate(190.374909 322.470437) scale(0.1 -0.1)">
       <use xlink:href="#DejaVuSans-34"/>
       <use xlink:href="#DejaVuSans-30" x="63.623047"/>
       <use xlink:href="#DejaVuSans-30" x="127.246094"/>
      </g>
     </g>
    </g>
   </g>
   <g id="matplotlib.axis_6">
    <g id="ytick_7">
     <g id="line2d_24">
      <g>
       <use xlink:href="#m539bc39d9d" x="55.584" y="302.832" style="stroke: #000000; stroke-width: 0.8"/>
      </g>
     </g>
     <g id="text_24">
      <!-- 0 -->
      <g transform="translate(42.2215 306.631219) scale(0.1 -0.1)">
       <use xlink:href="#DejaVuSans-30"/>
      </g>
     </g>
    </g>
    <g id="ytick_8">
     <g id="line2d_25">
      <g>
       <use xlink:href="#m539bc39d9d" x="55.584" y="259.519547" style="stroke: #000000; stroke-width: 0.8"/>
      </g>
     </g>
     <g id="text_25">
      <!-- 20 -->
      <g transform="translate(35.859 263.318766) scale(0.1 -0.1)">
       <use xlink:href="#DejaVuSans-32"/>
       <use xlink:href="#DejaVuSans-30" x="63.623047"/>
      </g>
     </g>
    </g>
    <g id="ytick_9">
     <g id="line2d_26">
      <g>
       <use xlink:href="#m539bc39d9d" x="55.584" y="216.207094" style="stroke: #000000; stroke-width: 0.8"/>
      </g>
     </g>
     <g id="text_26">
      <!-- 40 -->
      <g transform="translate(35.859 220.006313) scale(0.1 -0.1)">
       <use xlink:href="#DejaVuSans-34"/>
       <use xlink:href="#DejaVuSans-30" x="63.623047"/>
      </g>
     </g>
    </g>
   </g>
   <g id="line2d_27">
    <path d="M 62.962512 202.032 
L 63.304903 207.156158 
L 63.647293 219.051648 
L 63.989683 225.278359 
L 64.332074 234.99674 
L 64.674464 231.811847 
L 65.016855 233.128232 
L 65.359245 244.394275 
L 65.701635 243.466601 
L 66.386416 259.752334 
L 66.728806 263.446867 
L 67.071197 302.832 
L 68.440758 302.832 
L 68.783149 302.326022 
L 69.467929 302.822101 
L 70.837491 302.832 
L 71.179881 246.215029 
L 71.522272 252.176596 
L 71.864662 251.89016 
L 72.207052 253.163299 
L 72.549443 255.206127 
L 72.891833 251.265995 
L 73.234223 255.021276 
L 73.576614 254.143852 
L 74.261394 246.73511 
L 74.946175 254.959311 
L 75.288566 301.799228 
L 75.630956 296.845208 
L 75.973346 302.832 
L 76.315737 299.00167 
L 76.658127 301.587129 
L 77.000517 302.832 
L 79.05486 302.832 
L 79.39725 251.066593 
L 79.73964 257.348019 
L 80.082031 259.489057 
L 80.424421 254.251228 
L 80.766811 251.736191 
L 81.109202 253.75307 
L 81.451592 252.828102 
L 81.793983 249.185284 
L 82.136373 255.238943 
L 82.478763 256.028604 
L 82.821154 252.449566 
L 83.163544 234.40068 
L 83.505934 291.570838 
L 83.848325 289.9986 
L 84.190715 293.954745 
L 84.533105 295.510831 
L 84.875496 295.644632 
L 85.217886 298.35362 
L 85.560277 298.201466 
L 85.902667 297.096045 
L 86.245057 297.71296 
L 86.587448 298.686004 
L 86.929838 301.623671 
L 87.272228 299.598104 
L 87.957009 280.842885 
L 88.2994 284.832661 
L 88.98418 296.058734 
L 89.326571 294.296231 
L 89.668961 290.646202 
L 90.011351 288.47473 
L 90.353742 289.716264 
L 90.696132 283.685496 
L 91.380913 287.7629 
L 91.723303 302.832 
L 95.489597 302.832 
L 95.831988 286.742654 
L 96.174378 286.254893 
L 96.516768 283.45238 
L 97.201549 262.339302 
L 97.543939 266.762537 
L 97.88633 266.280376 
L 98.22872 278.561702 
L 98.571111 286.362836 
L 98.913501 290.266115 
L 99.255891 289.107282 
L 99.598282 282.87878 
L 99.940672 299.687771 
L 100.283062 291.649602 
L 100.625453 301.18497 
L 100.967843 302.832 
L 102.337405 302.832 
L 103.022185 299.728063 
L 103.364576 302.832 
L 103.706966 302.832 
L 104.049356 297.199005 
L 104.391747 297.857853 
L 104.734137 291.021151 
L 105.076527 291.799684 
L 105.418918 296.129088 
L 105.761308 292.441583 
L 106.103699 292.343859 
L 106.446089 292.973468 
L 106.788479 292.248444 
L 107.13087 284.970516 
L 107.47326 286.518999 
L 107.81565 292.375664 
L 108.158041 302.832 
L 108.500431 296.527119 
L 108.842821 301.817501 
L 109.185212 302.832 
L 111.924335 302.832 
L 112.266725 281.345348 
L 112.609116 274.61801 
L 112.951506 276.88516 
L 113.293896 280.527037 
L 113.978677 283.770612 
L 114.321067 284.043989 
L 115.005848 276.771538 
L 115.348238 276.589823 
L 116.033019 282.562653 
L 116.37541 302.832 
L 120.141704 302.832 
L 120.484094 280.00268 
L 120.826484 280.400643 
L 121.168875 285.271403 
L 121.511265 285.486881 
L 121.853655 284.512818 
L 122.196046 284.20143 
L 122.538436 285.56295 
L 122.880827 277.537289 
L 123.223217 275.299493 
L 123.565607 274.203324 
L 123.907998 278.911858 
L 124.250388 280.515737 
L 124.592778 302.832 
L 124.935169 302.832 
L 125.277559 297.043927 
L 125.619949 302.832 
L 128.359072 302.832 
L 128.701463 279.441229 
L 129.043853 280.831641 
L 129.386243 283.974958 
L 129.728634 283.342293 
L 130.755805 279.52545 
L 131.098195 275.351266 
L 131.440586 276.058084 
L 131.782976 274.586836 
L 132.125366 274.313966 
L 132.467757 276.360678 
L 132.810147 302.832 
L 133.837318 302.832 
L 134.179709 302.255624 
L 134.522099 301.440657 
L 134.864489 292.567603 
L 135.20688 292.870142 
L 135.54927 291.622913 
L 135.89166 298.340875 
L 136.234051 302.832 
L 136.576441 302.832 
L 136.918832 279.535594 
L 137.261222 267.191707 
L 137.603612 262.643817 
L 137.946003 261.243004 
L 138.288393 263.494051 
L 138.630783 255.183565 
L 138.973174 260.377214 
L 139.315564 262.674658 
L 139.657954 267.863167 
L 140.000345 270.618549 
L 140.342735 271.517203 
L 140.685126 272.968178 
L 141.027516 302.832 
L 144.79381 302.832 
L 145.1362 271.654618 
L 145.478591 278.033591 
L 145.820981 275.515904 
L 146.163371 280.772996 
L 146.505762 276.426262 
L 146.848152 280.393605 
L 147.190543 292.679516 
L 147.532933 294.580874 
L 147.875323 302.832 
L 148.217714 302.832 
L 148.560104 299.433311 
L 148.902494 300.23455 
L 149.244885 302.832 
L 153.011179 302.832 
L 153.353569 295.936471 
L 153.69596 292.179484 
L 154.38074 289.915681 
L 154.723131 292.985072 
L 155.065521 294.444563 
L 155.407911 294.639146 
L 156.092692 291.944932 
L 156.435082 291.546994 
L 156.777473 290.688685 
L 157.119863 285.194465 
L 157.462254 298.188595 
L 157.804644 302.832 
L 161.570938 302.832 
L 161.913328 297.176619 
L 162.255719 299.399668 
L 162.598109 292.490251 
L 162.940499 297.071795 
L 163.28289 296.321493 
L 163.62528 296.631476 
L 163.96767 293.692624 
L 164.310061 294.310816 
L 164.652451 293.555018 
L 164.994842 295.240979 
L 165.337232 293.994638 
L 165.679622 302.832 
L 169.445916 302.832 
L 169.788307 297.618666 
L 170.130697 295.33063 
L 170.473087 297.631892 
L 170.815478 289.847849 
L 171.157868 295.919268 
L 171.500259 289.981836 
L 171.842649 290.702322 
L 172.185039 287.502393 
L 172.52743 288.226876 
L 172.86982 287.880983 
L 173.21221 279.302846 
L 173.554601 275.471179 
L 173.896991 302.832 
L 177.663285 302.832 
L 178.005676 284.553941 
L 178.348066 285.42743 
L 178.690456 285.123056 
L 179.032847 281.295268 
L 179.375237 279.666737 
L 179.717627 279.626364 
L 180.060018 274.273644 
L 180.402408 271.708503 
L 180.744798 282.24409 
L 181.429579 277.455498 
L 181.77197 283.119866 
L 182.11436 302.832 
L 183.141531 302.832 
L 183.483921 302.470731 
L 183.826312 302.832 
L 185.880654 302.832 
L 186.223044 280.262838 
L 186.565435 275.704319 
L 186.907825 274.651876 
L 187.250215 278.845102 
L 187.592606 276.379695 
L 187.934996 280.342613 
L 188.277387 277.771404 
L 188.619777 283.444387 
L 188.962167 283.375615 
L 189.304558 285.807612 
L 189.646948 284.155588 
L 189.989338 288.170466 
L 190.331729 302.832 
L 193.070852 302.832 
L 193.413242 301.244053 
L 193.755632 298.439177 
L 194.098023 301.949478 
L 194.440413 280.11093 
L 194.782803 278.801023 
L 195.125194 283.535261 
L 195.809975 276.393431 
L 196.152365 273.181908 
L 196.494755 273.148142 
L 197.179536 279.619629 
L 197.521926 271.280522 
L 197.864317 271.49619 
L 198.206707 280.653573 
L 198.549098 302.832 
L 202.315392 302.832 
L 202.657782 294.685759 
L 203.000172 299.584413 
L 203.342563 294.977666 
L 203.684953 297.796992 
L 204.027343 296.140508 
L 204.369734 290.563514 
L 204.712124 293.39868 
L 205.054514 293.404611 
L 205.396905 296.563772 
L 205.739295 301.129201 
L 206.081686 299.015378 
L 206.766466 302.832 
L 210.53276 302.832 
L 210.53276 302.832 
" clip-path="url(#p90d7e80866)" style="fill: none; stroke: #ffa500; stroke-width: 1.5; stroke-linecap: square"/>
   </g>
   <g id="patch_13">
    <path d="M 55.584 307.872 
L 55.584 196.992 
" style="fill: none; stroke: #000000; stroke-width: 0.8; stroke-linejoin: miter; stroke-linecap: square"/>
   </g>
   <g id="patch_14">
    <path d="M 217.911273 307.872 
L 217.911273 196.992 
" style="fill: none; stroke: #000000; stroke-width: 0.8; stroke-linejoin: miter; stroke-linecap: square"/>
   </g>
   <g id="patch_15">
    <path d="M 55.584 307.872 
L 217.911273 307.872 
" style="fill: none; stroke: #000000; stroke-width: 0.8; stroke-linejoin: miter; stroke-linecap: square"/>
   </g>
   <g id="patch_16">
    <path d="M 55.584 196.992 
L 217.911273 196.992 
" style="fill: none; stroke: #000000; stroke-width: 0.8; stroke-linejoin: miter; stroke-linecap: square"/>
   </g>
   <g id="text_27">
    <!-- VAE -->
    <g transform="translate(125.130136 190.992) scale(0.12 -0.12)">
     <defs>
      <path id="DejaVuSans-56" d="M 1831 0 
L 50 4666 
L 709 4666 
L 2188 738 
L 3669 4666 
L 4325 4666 
L 2547 0 
L 1831 0 
z
" transform="scale(0.015625)"/>
      <path id="DejaVuSans-41" d="M 2188 4044 
L 1331 1722 
L 3047 1722 
L 2188 4044 
z
M 1831 4666 
L 2547 4666 
L 4325 0 
L 3669 0 
L 3244 1197 
L 1141 1197 
L 716 0 
L 50 0 
L 1831 4666 
z
" transform="scale(0.015625)"/>
      <path id="DejaVuSans-45" d="M 628 4666 
L 3578 4666 
L 3578 4134 
L 1259 4134 
L 1259 2753 
L 3481 2753 
L 3481 2222 
L 1259 2222 
L 1259 531 
L 3634 531 
L 3634 0 
L 628 0 
L 628 4666 
z
" transform="scale(0.015625)"/>
     </defs>
     <use xlink:href="#DejaVuSans-56"/>
     <use xlink:href="#DejaVuSans-41" x="62.033203"/>
     <use xlink:href="#DejaVuSans-45" x="130.441406"/>
    </g>
   </g>
  </g>
  <g id="axes_4">
   <g id="patch_17">
    <path d="M 250.376727 307.872 
L 412.704 307.872 
L 412.704 196.992 
L 250.376727 196.992 
z
" style="fill: #ffffff"/>
   </g>
   <g id="matplotlib.axis_7">
    <g id="xtick_16">
     <g id="line2d_28">
      <g>
       <use xlink:href="#m0501f173db" x="257.75524" y="307.872" style="stroke: #000000; stroke-width: 0.8"/>
      </g>
     </g>
     <g id="text_28">
      <!-- 0 -->
      <g transform="translate(254.57399 322.470437) scale(0.1 -0.1)">
       <use xlink:href="#DejaVuSans-30"/>
      </g>
     </g>
    </g>
    <g id="xtick_17">
     <g id="line2d_29">
      <g>
       <use xlink:href="#m0501f173db" x="291.994276" y="307.872" style="stroke: #000000; stroke-width: 0.8"/>
      </g>
     </g>
     <g id="text_29">
      <!-- 100 -->
      <g transform="translate(282.450526 322.470437) scale(0.1 -0.1)">
       <use xlink:href="#DejaVuSans-31"/>
       <use xlink:href="#DejaVuSans-30" x="63.623047"/>
       <use xlink:href="#DejaVuSans-30" x="127.246094"/>
      </g>
     </g>
    </g>
    <g id="xtick_18">
     <g id="line2d_30">
      <g>
       <use xlink:href="#m0501f173db" x="326.233313" y="307.872" style="stroke: #000000; stroke-width: 0.8"/>
      </g>
     </g>
     <g id="text_30">
      <!-- 200 -->
      <g transform="translate(316.689563 322.470437) scale(0.1 -0.1)">
       <use xlink:href="#DejaVuSans-32"/>
       <use xlink:href="#DejaVuSans-30" x="63.623047"/>
       <use xlink:href="#DejaVuSans-30" x="127.246094"/>
      </g>
     </g>
    </g>
    <g id="xtick_19">
     <g id="line2d_31">
      <g>
       <use xlink:href="#m0501f173db" x="360.47235" y="307.872" style="stroke: #000000; stroke-width: 0.8"/>
      </g>
     </g>
     <g id="text_31">
      <!-- 300 -->
      <g transform="translate(350.9286 322.470437) scale(0.1 -0.1)">
       <use xlink:href="#DejaVuSans-33"/>
       <use xlink:href="#DejaVuSans-30" x="63.623047"/>
       <use xlink:href="#DejaVuSans-30" x="127.246094"/>
      </g>
     </g>
    </g>
    <g id="xtick_20">
     <g id="line2d_32">
      <g>
       <use xlink:href="#m0501f173db" x="394.711386" y="307.872" style="stroke: #000000; stroke-width: 0.8"/>
      </g>
     </g>
     <g id="text_32">
      <!-- 400 -->
      <g transform="translate(385.167636 322.470437) scale(0.1 -0.1)">
       <use xlink:href="#DejaVuSans-34"/>
       <use xlink:href="#DejaVuSans-30" x="63.623047"/>
       <use xlink:href="#DejaVuSans-30" x="127.246094"/>
      </g>
     </g>
    </g>
   </g>
   <g id="matplotlib.axis_8">
    <g id="ytick_10">
     <g id="line2d_33">
      <g>
       <use xlink:href="#m539bc39d9d" x="250.376727" y="302.832" style="stroke: #000000; stroke-width: 0.8"/>
      </g>
     </g>
     <g id="text_33">
      <!-- 0 -->
      <g transform="translate(237.014227 306.631219) scale(0.1 -0.1)">
       <use xlink:href="#DejaVuSans-30"/>
      </g>
     </g>
    </g>
    <g id="ytick_11">
     <g id="line2d_34">
      <g>
       <use xlink:href="#m539bc39d9d" x="250.376727" y="259.433291" style="stroke: #000000; stroke-width: 0.8"/>
      </g>
     </g>
     <g id="text_34">
      <!-- 20 -->
      <g transform="translate(230.651727 263.23251) scale(0.1 -0.1)">
       <use xlink:href="#DejaVuSans-32"/>
       <use xlink:href="#DejaVuSans-30" x="63.623047"/>
      </g>
     </g>
    </g>
    <g id="ytick_12">
     <g id="line2d_35">
      <g>
       <use xlink:href="#m539bc39d9d" x="250.376727" y="216.034583" style="stroke: #000000; stroke-width: 0.8"/>
      </g>
     </g>
     <g id="text_35">
      <!-- 40 -->
      <g transform="translate(230.651727 219.833801) scale(0.1 -0.1)">
       <use xlink:href="#DejaVuSans-34"/>
       <use xlink:href="#DejaVuSans-30" x="63.623047"/>
      </g>
     </g>
    </g>
   </g>
   <g id="line2d_36">
    <path d="M 257.75524 202.032 
L 258.09763 206.961301 
L 258.44002 218.889254 
L 258.782411 225.114478 
L 259.124801 234.842201 
L 259.467192 231.684734 
L 259.809582 232.942294 
L 260.151972 244.332242 
L 260.494363 243.332546 
L 261.179143 259.644391 
L 261.521534 263.379816 
L 261.863924 275.197987 
L 262.206314 263.213442 
L 262.548705 280.009528 
L 262.891095 269.513498 
L 263.233486 263.364661 
L 263.575876 273.162256 
L 263.918266 274.378928 
L 264.260657 254.855938 
L 264.603047 253.100821 
L 264.945437 263.134452 
L 265.287828 254.381957 
L 265.630218 270.199825 
L 265.972608 246.082356 
L 266.314999 252.062687 
L 266.657389 251.784874 
L 267.34217 255.097357 
L 267.68456 251.18291 
L 268.026951 254.925802 
L 268.369341 254.05927 
L 269.054122 246.606851 
L 269.738902 254.866463 
L 270.081293 265.62865 
L 270.423683 261.770069 
L 271.108464 247.76912 
L 271.793245 275.714688 
L 272.135635 265.75831 
L 272.820416 255.859536 
L 273.162806 261.077957 
L 273.505197 250.830489 
L 273.847587 254.198997 
L 274.189977 251.016669 
L 274.532368 257.262507 
L 274.874758 259.415524 
L 275.217148 254.156089 
L 275.559539 251.627072 
L 275.901929 253.66648 
L 276.244319 252.739049 
L 276.58671 249.090565 
L 276.9291 255.173999 
L 277.271491 255.948358 
L 277.613881 252.358948 
L 277.956271 234.269069 
L 278.298662 265.36499 
L 278.641052 255.74283 
L 278.983442 268.604923 
L 279.325833 263.396754 
L 279.668223 277.942804 
L 280.010613 280.815466 
L 280.353004 290.475971 
L 280.695394 295.081841 
L 281.037785 287.787152 
L 281.380175 298.705644 
L 281.722565 297.052989 
L 282.064956 302.832 
L 282.749736 280.794001 
L 283.092127 284.790152 
L 283.776908 296.042205 
L 284.119298 294.274608 
L 284.461688 290.633762 
L 284.804079 288.440823 
L 285.146469 289.686783 
L 285.488859 283.651261 
L 286.17364 287.749417 
L 286.51603 288.715479 
L 286.858421 296.462725 
L 287.200811 281.439624 
L 287.543202 301.082822 
L 287.885592 282.286003 
L 288.227982 293.049031 
L 288.570373 279.506095 
L 288.912763 281.197173 
L 289.255153 278.536283 
L 289.597544 280.219775 
L 290.282324 293.109652 
L 290.624715 286.694134 
L 290.967105 286.226254 
L 291.309496 283.43458 
L 291.994276 262.266533 
L 292.336667 266.690868 
L 292.679057 266.280269 
L 293.021447 278.524216 
L 293.363838 286.319957 
L 293.706228 290.245543 
L 294.048619 289.086683 
L 294.391009 282.805811 
L 294.733399 287.95369 
L 295.07579 287.063075 
L 295.41818 297.637446 
L 295.76057 297.168191 
L 296.102961 302.832 
L 298.499693 302.832 
L 298.842084 297.172314 
L 299.184474 297.650353 
L 299.526864 291.119309 
L 299.869255 291.78648 
L 300.211645 296.121948 
L 300.554035 292.411302 
L 300.896426 292.322484 
L 301.238816 292.941959 
L 301.581207 292.209302 
L 301.923597 284.936987 
L 302.265987 286.482207 
L 302.608378 292.358772 
L 302.950768 286.255149 
L 303.293158 300.518196 
L 303.635549 292.263353 
L 303.977939 287.19367 
L 304.32033 288.926507 
L 305.00511 285.469624 
L 305.689891 295.717901 
L 306.032281 292.703017 
L 306.374672 295.868376 
L 306.717062 283.443894 
L 307.059452 281.300742 
L 307.401843 274.566334 
L 307.744233 276.831515 
L 308.086624 280.486931 
L 308.771404 283.692818 
L 309.113795 284.012217 
L 309.798575 276.711793 
L 310.140966 276.541891 
L 310.825746 282.520278 
L 311.168137 290.014211 
L 311.510527 286.791533 
L 311.852918 290.285279 
L 312.195308 285.854445 
L 312.537698 276.662774 
L 313.222479 289.923883 
L 313.564869 283.236207 
L 313.90726 285.427727 
L 314.24965 279.04464 
L 314.59204 283.13887 
L 314.934431 289.24409 
L 315.276821 279.957736 
L 315.619212 281.123584 
L 315.961602 285.235538 
L 316.303992 285.427137 
L 316.646383 284.481283 
L 316.988773 284.174576 
L 317.331163 285.542315 
L 317.673554 277.491819 
L 318.015944 275.222297 
L 318.358335 274.159966 
L 318.700725 278.933759 
L 319.043115 280.487394 
L 319.385506 290.229312 
L 319.727896 293.616612 
L 320.070286 302.372251 
L 320.412677 302.832 
L 320.755067 289.889366 
L 321.097457 288.93058 
L 321.439848 298.072969 
L 321.782238 290.102972 
L 322.124629 295.725626 
L 322.467019 285.141332 
L 322.809409 282.851536 
L 323.1518 286.754948 
L 323.49419 279.399811 
L 323.83658 280.778957 
L 324.178971 283.957624 
L 324.521361 283.315221 
L 325.548532 279.470282 
L 325.890923 275.302148 
L 326.233313 276.002441 
L 326.575703 274.544329 
L 326.918094 274.252392 
L 327.260484 276.304952 
L 327.602874 273.290388 
L 327.945265 273.891068 
L 328.287655 271.766595 
L 328.972436 285.678951 
L 329.314826 292.669485 
L 329.657217 278.535775 
L 329.999607 285.238213 
L 330.684388 272.573696 
L 331.026778 276.251319 
L 331.369168 271.192033 
L 331.711559 279.469655 
L 332.053949 267.144981 
L 332.39634 262.578385 
L 332.73873 261.154777 
L 333.08112 263.412339 
L 333.423511 255.092058 
L 333.765901 260.273189 
L 334.108291 262.584018 
L 334.450682 267.536863 
L 334.793072 270.713449 
L 335.135462 271.461148 
L 335.477853 272.893488 
L 335.820243 280.923687 
L 336.162634 280.833195 
L 336.505024 288.273354 
L 336.847414 282.280574 
L 337.189805 286.688036 
L 337.532195 278.355465 
L 337.874585 279.497651 
L 338.216976 274.467591 
L 338.559366 280.154944 
L 338.901757 281.666925 
L 339.244147 273.942627 
L 339.586537 276.964124 
L 339.928928 271.573321 
L 340.271318 277.982168 
L 340.613708 275.46822 
L 340.956099 280.729845 
L 341.298489 276.375312 
L 341.640879 280.333723 
L 341.98327 292.650457 
L 342.32566 294.557016 
L 342.668051 302.832 
L 343.010441 302.832 
L 343.352831 299.432204 
L 343.695222 300.219038 
L 344.037612 301.52719 
L 344.380002 294.7273 
L 344.722393 302.832 
L 345.407173 302.832 
L 346.091954 296.120186 
L 346.434345 290.958947 
L 346.776735 294.240655 
L 347.119125 283.68053 
L 347.803906 296.140932 
L 348.146296 295.81432 
L 348.488687 292.155866 
L 349.173468 289.88206 
L 349.515858 292.976887 
L 349.858248 294.458736 
L 350.200639 294.619636 
L 350.885419 291.913438 
L 351.22781 291.514116 
L 351.5702 290.676072 
L 351.91259 285.163108 
L 352.254981 294.831925 
L 352.597371 294.361694 
L 352.939762 284.920667 
L 353.282152 294.48928 
L 353.624542 293.42738 
L 353.966933 296.398701 
L 354.309323 290.41786 
L 354.994104 298.846655 
L 355.336494 295.61953 
L 355.678884 302.662563 
L 356.021275 300.732624 
L 356.363665 302.832 
L 356.706056 297.158437 
L 357.048446 299.390482 
L 357.390836 292.463124 
L 357.733227 297.061794 
L 358.075617 296.31518 
L 358.418007 296.620558 
L 358.760398 293.678058 
L 359.102788 294.29966 
L 359.445179 293.518657 
L 359.787569 295.229152 
L 360.129959 293.975671 
L 360.47235 296.75673 
L 360.81474 296.155093 
L 361.15713 294.566775 
L 361.499521 300.012386 
L 361.841911 296.127442 
L 362.184301 296.569864 
L 362.526692 299.90423 
L 362.869082 298.075248 
L 363.211473 297.252156 
L 363.553863 295.957124 
L 363.896253 294.058741 
L 364.238644 299.427445 
L 364.923424 295.31522 
L 365.265815 297.623927 
L 365.608205 289.828187 
L 365.950595 295.899349 
L 366.292986 289.961084 
L 366.635376 290.674835 
L 366.977767 287.460796 
L 367.320157 288.194132 
L 367.662547 287.851213 
L 368.004938 279.247308 
L 368.347328 275.474897 
L 368.689718 286.071265 
L 369.032109 285.461361 
L 369.374499 289.671611 
L 369.716889 289.03565 
L 370.05928 280.291681 
L 370.40167 291.209815 
L 370.744061 293.286567 
L 371.086451 287.685243 
L 371.428841 288.219509 
L 371.771232 282.577957 
L 372.456012 297.793262 
L 372.798403 284.523647 
L 373.140793 285.386209 
L 373.483184 285.085524 
L 373.825574 281.25817 
L 374.167964 279.616388 
L 374.510355 279.590859 
L 374.852745 274.214086 
L 375.195135 271.650175 
L 375.537526 282.208858 
L 376.222306 277.405964 
L 376.564697 282.919744 
L 376.907087 281.979522 
L 377.934258 295.340697 
L 378.276649 295.561942 
L 378.619039 302.816873 
L 378.961429 302.832 
L 379.30382 299.294931 
L 379.64621 289.158072 
L 379.9886 298.59815 
L 380.330991 295.892655 
L 381.015772 280.21779 
L 381.358162 275.6478 
L 381.700552 274.595316 
L 382.042943 278.802981 
L 382.385333 276.303218 
L 382.727723 280.300927 
L 383.070114 277.71884 
L 383.412504 283.422622 
L 383.754895 283.327657 
L 384.097285 285.765289 
L 384.439675 284.123691 
L 384.782066 288.130347 
L 385.124456 294.449105 
L 385.466846 293.740663 
L 385.809237 292.207169 
L 386.151627 289.687191 
L 386.836408 298.506802 
L 387.178798 297.839445 
L 387.521189 298.679898 
L 388.205969 289.105885 
L 388.54836 287.729991 
L 388.89075 295.576971 
L 389.23314 280.067839 
L 389.575531 278.991386 
L 389.917921 283.506403 
L 390.602702 276.34477 
L 390.945092 273.124364 
L 391.287483 273.086167 
L 391.972263 279.637478 
L 392.314654 271.219855 
L 392.657044 271.394672 
L 392.999434 280.613612 
L 393.684215 288.805934 
L 394.026606 285.06977 
L 394.368996 279.722309 
L 394.711386 292.880296 
L 395.053777 297.827198 
L 395.396167 296.54275 
L 395.738557 280.046834 
L 396.080948 289.456761 
L 396.423338 286.75617 
L 396.765728 287.414381 
L 397.108119 286.246943 
L 397.450509 294.673188 
L 397.7929 299.243784 
L 398.13529 294.976717 
L 398.47768 297.793651 
L 398.820071 296.128455 
L 399.162461 290.536601 
L 399.504851 293.375387 
L 399.847242 293.437115 
L 400.189632 296.578192 
L 400.532022 301.138146 
L 400.874413 299.01516 
L 401.559194 302.832 
L 405.325488 302.832 
L 405.325488 302.832 
" clip-path="url(#p75c3d8ff4a)" style="fill: none; stroke: #ff0000; stroke-width: 1.5; stroke-linecap: square"/>
   </g>
   <g id="patch_18">
    <path d="M 250.376727 307.872 
L 250.376727 196.992 
" style="fill: none; stroke: #000000; stroke-width: 0.8; stroke-linejoin: miter; stroke-linecap: square"/>
   </g>
   <g id="patch_19">
    <path d="M 412.704 307.872 
L 412.704 196.992 
" style="fill: none; stroke: #000000; stroke-width: 0.8; stroke-linejoin: miter; stroke-linecap: square"/>
   </g>
   <g id="patch_20">
    <path d="M 250.376727 307.872 
L 412.704 307.872 
" style="fill: none; stroke: #000000; stroke-width: 0.8; stroke-linejoin: miter; stroke-linecap: square"/>
   </g>
   <g id="patch_21">
    <path d="M 250.376727 196.992 
L 412.704 196.992 
" style="fill: none; stroke: #000000; stroke-width: 0.8; stroke-linejoin: miter; stroke-linecap: square"/>
   </g>
   <g id="text_36">
    <!-- VRNN -->
    <g transform="translate(314.289426 190.992) scale(0.12 -0.12)">
     <use xlink:href="#DejaVuSans-56"/>
     <use xlink:href="#DejaVuSans-52" x="68.408203"/>
     <use xlink:href="#DejaVuSans-4e" x="137.890625"/>
     <use xlink:href="#DejaVuSans-4e" x="212.695312"/>
    </g>
   </g>
  </g>
  <g id="text_37">
   <!-- VMAF Scores Over Frames: Video #6 -->
   <g transform="translate(118.155563 16.318125) scale(0.12 -0.12)">
    <defs>
     <path id="DejaVuSans-4d" d="M 628 4666 
L 1569 4666 
L 2759 1491 
L 3956 4666 
L 4897 4666 
L 4897 0 
L 4281 0 
L 4281 4097 
L 3078 897 
L 2444 897 
L 1241 4097 
L 1241 0 
L 628 0 
L 628 4666 
z
" transform="scale(0.015625)"/>
     <path id="DejaVuSans-73" d="M 2834 3397 
L 2834 2853 
Q 2591 2978 2328 3040 
Q 2066 3103 1784 3103 
Q 1356 3103 1142 2972 
Q 928 2841 928 2578 
Q 928 2378 1081 2264 
Q 1234 2150 1697 2047 
L 1894 2003 
Q 2506 1872 2764 1633 
Q 3022 1394 3022 966 
Q 3022 478 2636 193 
Q 2250 -91 1575 -91 
Q 1294 -91 989 -36 
Q 684 19 347 128 
L 347 722 
Q 666 556 975 473 
Q 1284 391 1588 391 
Q 1994 391 2212 530 
Q 2431 669 2431 922 
Q 2431 1156 2273 1281 
Q 2116 1406 1581 1522 
L 1381 1569 
Q 847 1681 609 1914 
Q 372 2147 372 2553 
Q 372 3047 722 3315 
Q 1072 3584 1716 3584 
Q 2034 3584 2315 3537 
Q 2597 3491 2834 3397 
z
" transform="scale(0.015625)"/>
     <path id="DejaVuSans-76" d="M 191 3500 
L 800 3500 
L 1894 563 
L 2988 3500 
L 3597 3500 
L 2284 0 
L 1503 0 
L 191 3500 
z
" transform="scale(0.015625)"/>
     <path id="DejaVuSans-61" d="M 2194 1759 
Q 1497 1759 1228 1600 
Q 959 1441 959 1056 
Q 959 750 1161 570 
Q 1363 391 1709 391 
Q 2188 391 2477 730 
Q 2766 1069 2766 1631 
L 2766 1759 
L 2194 1759 
z
M 3341 1997 
L 3341 0 
L 2766 0 
L 2766 531 
Q 2569 213 2275 61 
Q 1981 -91 1556 -91 
Q 1019 -91 701 211 
Q 384 513 384 1019 
Q 384 1609 779 1909 
Q 1175 2209 1959 2209 
L 2766 2209 
L 2766 2266 
Q 2766 2663 2505 2880 
Q 2244 3097 1772 3097 
Q 1472 3097 1187 3025 
Q 903 2953 641 2809 
L 641 3341 
Q 956 3463 1253 3523 
Q 1550 3584 1831 3584 
Q 2591 3584 2966 3190 
Q 3341 2797 3341 1997 
z
" transform="scale(0.015625)"/>
     <path id="DejaVuSans-6d" d="M 3328 2828 
Q 3544 3216 3844 3400 
Q 4144 3584 4550 3584 
Q 5097 3584 5394 3201 
Q 5691 2819 5691 2113 
L 5691 0 
L 5113 0 
L 5113 2094 
Q 5113 2597 4934 2840 
Q 4756 3084 4391 3084 
Q 3944 3084 3684 2787 
Q 3425 2491 3425 1978 
L 3425 0 
L 2847 0 
L 2847 2094 
Q 2847 2600 2669 2842 
Q 2491 3084 2119 3084 
Q 1678 3084 1418 2786 
Q 1159 2488 1159 1978 
L 1159 0 
L 581 0 
L 581 3500 
L 1159 3500 
L 1159 2956 
Q 1356 3278 1631 3431 
Q 1906 3584 2284 3584 
Q 2666 3584 2933 3390 
Q 3200 3197 3328 2828 
z
" transform="scale(0.015625)"/>
     <path id="DejaVuSans-3a" d="M 750 794 
L 1409 794 
L 1409 0 
L 750 0 
L 750 794 
z
M 750 3309 
L 1409 3309 
L 1409 2516 
L 750 2516 
L 750 3309 
z
" transform="scale(0.015625)"/>
     <path id="DejaVuSans-23" d="M 3272 2816 
L 2363 2816 
L 2100 1772 
L 3016 1772 
L 3272 2816 
z
M 2803 4594 
L 2478 3297 
L 3391 3297 
L 3719 4594 
L 4219 4594 
L 3897 3297 
L 4872 3297 
L 4872 2816 
L 3775 2816 
L 3519 1772 
L 4513 1772 
L 4513 1294 
L 3397 1294 
L 3072 0 
L 2572 0 
L 2894 1294 
L 1978 1294 
L 1656 0 
L 1153 0 
L 1478 1294 
L 494 1294 
L 494 1772 
L 1594 1772 
L 1856 2816 
L 850 2816 
L 850 3297 
L 1978 3297 
L 2297 4594 
L 2803 4594 
z
" transform="scale(0.015625)"/>
     <path id="DejaVuSans-36" d="M 2113 2584 
Q 1688 2584 1439 2293 
Q 1191 2003 1191 1497 
Q 1191 994 1439 701 
Q 1688 409 2113 409 
Q 2538 409 2786 701 
Q 3034 994 3034 1497 
Q 3034 2003 2786 2293 
Q 2538 2584 2113 2584 
z
M 3366 4563 
L 3366 3988 
Q 3128 4100 2886 4159 
Q 2644 4219 2406 4219 
Q 1781 4219 1451 3797 
Q 1122 3375 1075 2522 
Q 1259 2794 1537 2939 
Q 1816 3084 2150 3084 
Q 2853 3084 3261 2657 
Q 3669 2231 3669 1497 
Q 3669 778 3244 343 
Q 2819 -91 2113 -91 
Q 1303 -91 875 529 
Q 447 1150 447 2328 
Q 447 3434 972 4092 
Q 1497 4750 2381 4750 
Q 2619 4750 2861 4703 
Q 3103 4656 3366 4563 
z
" transform="scale(0.015625)"/>
    </defs>
    <use xlink:href="#DejaVuSans-56"/>
    <use xlink:href="#DejaVuSans-4d" x="68.408203"/>
    <use xlink:href="#DejaVuSans-41" x="154.6875"/>
    <use xlink:href="#DejaVuSans-46" x="223.095703"/>
    <use xlink:href="#DejaVuSans-20" x="280.615234"/>
    <use xlink:href="#DejaVuSans-53" x="312.402344"/>
    <use xlink:href="#DejaVuSans-63" x="375.878906"/>
    <use xlink:href="#DejaVuSans-6f" x="430.859375"/>
    <use xlink:href="#DejaVuSans-72" x="492.041016"/>
    <use xlink:href="#DejaVuSans-65" x="530.904297"/>
    <use xlink:href="#DejaVuSans-73" x="592.427734"/>
    <use xlink:href="#DejaVuSans-20" x="644.527344"/>
    <use xlink:href="#DejaVuSans-4f" x="676.314453"/>
    <use xlink:href="#DejaVuSans-76" x="755.025391"/>
    <use xlink:href="#DejaVuSans-65" x="814.205078"/>
    <use xlink:href="#DejaVuSans-72" x="875.728516"/>
    <use xlink:href="#DejaVuSans-20" x="916.841797"/>
    <use xlink:href="#DejaVuSans-46" x="948.628906"/>
    <use xlink:href="#DejaVuSans-72" x="998.898438"/>
    <use xlink:href="#DejaVuSans-61" x="1040.011719"/>
    <use xlink:href="#DejaVuSans-6d" x="1101.291016"/>
    <use xlink:href="#DejaVuSans-65" x="1198.703125"/>
    <use xlink:href="#DejaVuSans-73" x="1260.226562"/>
    <use xlink:href="#DejaVuSans-3a" x="1312.326172"/>
    <use xlink:href="#DejaVuSans-20" x="1346.017578"/>
    <use xlink:href="#DejaVuSans-56" x="1377.804688"/>
    <use xlink:href="#DejaVuSans-69" x="1443.962891"/>
    <use xlink:href="#DejaVuSans-64" x="1471.746094"/>
    <use xlink:href="#DejaVuSans-65" x="1535.222656"/>
    <use xlink:href="#DejaVuSans-6f" x="1596.746094"/>
    <use xlink:href="#DejaVuSans-20" x="1657.927734"/>
    <use xlink:href="#DejaVuSans-23" x="1689.714844"/>
    <use xlink:href="#DejaVuSans-36" x="1773.503906"/>
   </g>
  </g>
  <g id="text_38">
   <!-- Video Frames -->
   <g transform="translate(187.847438 339.936375) scale(0.12 -0.12)">
    <use xlink:href="#DejaVuSans-56"/>
    <use xlink:href="#DejaVuSans-69" x="66.158203"/>
    <use xlink:href="#DejaVuSans-64" x="93.941406"/>
    <use xlink:href="#DejaVuSans-65" x="157.417969"/>
    <use xlink:href="#DejaVuSans-6f" x="218.941406"/>
    <use xlink:href="#DejaVuSans-20" x="280.123047"/>
    <use xlink:href="#DejaVuSans-46" x="311.910156"/>
    <use xlink:href="#DejaVuSans-72" x="362.179688"/>
    <use xlink:href="#DejaVuSans-61" x="403.292969"/>
    <use xlink:href="#DejaVuSans-6d" x="464.572266"/>
    <use xlink:href="#DejaVuSans-65" x="561.984375"/>
    <use xlink:href="#DejaVuSans-73" x="623.507812"/>
   </g>
  </g>
  <g id="text_39">
   <!-- Raw VMAF Scores -->
   <g transform="translate(16.318125 226.284562) rotate(-90) scale(0.12 -0.12)">
    <defs>
     <path id="DejaVuSans-77" d="M 269 3500 
L 844 3500 
L 1563 769 
L 2278 3500 
L 2956 3500 
L 3675 769 
L 4391 3500 
L 4966 3500 
L 4050 0 
L 3372 0 
L 2619 2869 
L 1863 0 
L 1184 0 
L 269 3500 
z
" transform="scale(0.015625)"/>
    </defs>
    <use xlink:href="#DejaVuSans-52"/>
    <use xlink:href="#DejaVuSans-61" x="67.232422"/>
    <use xlink:href="#DejaVuSans-77" x="128.511719"/>
    <use xlink:href="#DejaVuSans-20" x="210.298828"/>
    <use xlink:href="#DejaVuSans-56" x="242.085938"/>
    <use xlink:href="#DejaVuSans-4d" x="310.494141"/>
    <use xlink:href="#DejaVuSans-41" x="396.773438"/>
    <use xlink:href="#DejaVuSans-46" x="465.181641"/>
    <use xlink:href="#DejaVuSans-20" x="522.701172"/>
    <use xlink:href="#DejaVuSans-53" x="554.488281"/>
    <use xlink:href="#DejaVuSans-63" x="617.964844"/>
    <use xlink:href="#DejaVuSans-6f" x="672.945312"/>
    <use xlink:href="#DejaVuSans-72" x="734.126953"/>
    <use xlink:href="#DejaVuSans-65" x="772.990234"/>
    <use xlink:href="#DejaVuSans-73" x="834.513672"/>
   </g>
  </g>
 </g>
 <defs>
  <clipPath id="p7beabd8696">
   <rect x="55.584" y="41.76" width="162.327273" height="110.88"/>
  </clipPath>
  <clipPath id="p325a6746c2">
   <rect x="250.376727" y="41.76" width="162.327273" height="110.88"/>
  </clipPath>
  <clipPath id="p90d7e80866">
   <rect x="55.584" y="196.992" width="162.327273" height="110.88"/>
  </clipPath>
  <clipPath id="p75c3d8ff4a">
   <rect x="250.376727" y="196.992" width="162.327273" height="110.88"/>
  </clipPath>
 </defs>
</svg>
