<?xml version="1.0" encoding="utf-8" standalone="no"?>
<!DOCTYPE svg PUBLIC "-//W3C//DTD SVG 1.1//EN"
  "http://www.w3.org/Graphics/SVG/1.1/DTD/svg11.dtd">
<svg xmlns:xlink="http://www.w3.org/1999/xlink" width="419.904pt" height="349.632pt" viewBox="0 0 419.904 349.632" xmlns="http://www.w3.org/2000/svg" version="1.1">
 <metadata>
  <rdf:RDF xmlns:dc="http://purl.org/dc/elements/1.1/" xmlns:cc="http://creativecommons.org/ns#" xmlns:rdf="http://www.w3.org/1999/02/22-rdf-syntax-ns#">
   <cc:Work>
    <dc:type rdf:resource="http://purl.org/dc/dcmitype/StillImage"/>
    <dc:date>2024-07-24T16:31:46.813524</dc:date>
    <dc:format>image/svg+xml</dc:format>
    <dc:creator>
     <cc:Agent>
      <dc:title>Matplotlib v3.7.2, https://matplotlib.org/</dc:title>
     </cc:Agent>
    </dc:creator>
   </cc:Work>
  </rdf:RDF>
 </metadata>
 <defs>
  <style type="text/css">*{stroke-linejoin: round; stroke-linecap: butt}</style>
 </defs>
 <g id="figure_1">
  <g id="patch_1">
   <path d="M 0 349.632 
L 419.904 349.632 
L 419.904 -0 
L 0 -0 
z
" style="fill: #ffffff"/>
  </g>
  <g id="axes_1">
   <g id="patch_2">
    <path d="M 55.584 152.64 
L 217.911273 152.64 
L 217.911273 41.76 
L 55.584 41.76 
z
" style="fill: #ffffff"/>
   </g>
   <g id="matplotlib.axis_1">
    <g id="xtick_1">
     <g id="line2d_1">
      <defs>
       <path id="m6065767783" d="M 0 0 
L 0 3.5 
" style="stroke: #000000; stroke-width: 0.8"/>
      </defs>
      <g>
       <use xlink:href="#m6065767783" x="62.962512" y="152.64" style="stroke: #000000; stroke-width: 0.8"/>
      </g>
     </g>
     <g id="text_1">
      <!-- 0 -->
      <g transform="translate(59.781262 167.238437) scale(0.1 -0.1)">
       <defs>
        <path id="DejaVuSans-30" d="M 2034 4250 
Q 1547 4250 1301 3770 
Q 1056 3291 1056 2328 
Q 1056 1369 1301 889 
Q 1547 409 2034 409 
Q 2525 409 2770 889 
Q 3016 1369 3016 2328 
Q 3016 3291 2770 3770 
Q 2525 4250 2034 4250 
z
M 2034 4750 
Q 2819 4750 3233 4129 
Q 3647 3509 3647 2328 
Q 3647 1150 3233 529 
Q 2819 -91 2034 -91 
Q 1250 -91 836 529 
Q 422 1150 422 2328 
Q 422 3509 836 4129 
Q 1250 4750 2034 4750 
z
" transform="scale(0.015625)"/>
       </defs>
       <use xlink:href="#DejaVuSans-30"/>
      </g>
     </g>
    </g>
    <g id="xtick_2">
     <g id="line2d_2">
      <g>
       <use xlink:href="#m6065767783" x="119.072873" y="152.64" style="stroke: #000000; stroke-width: 0.8"/>
      </g>
     </g>
     <g id="text_2">
      <!-- 100 -->
      <g transform="translate(109.529123 167.238437) scale(0.1 -0.1)">
       <defs>
        <path id="DejaVuSans-31" d="M 794 531 
L 1825 531 
L 1825 4091 
L 703 3866 
L 703 4441 
L 1819 4666 
L 2450 4666 
L 2450 531 
L 3481 531 
L 3481 0 
L 794 0 
L 794 531 
z
" transform="scale(0.015625)"/>
       </defs>
       <use xlink:href="#DejaVuSans-31"/>
       <use xlink:href="#DejaVuSans-30" x="63.623047"/>
       <use xlink:href="#DejaVuSans-30" x="127.246094"/>
      </g>
     </g>
    </g>
    <g id="xtick_3">
     <g id="line2d_3">
      <g>
       <use xlink:href="#m6065767783" x="175.183233" y="152.64" style="stroke: #000000; stroke-width: 0.8"/>
      </g>
     </g>
     <g id="text_3">
      <!-- 200 -->
      <g transform="translate(165.639483 167.238437) scale(0.1 -0.1)">
       <defs>
        <path id="DejaVuSans-32" d="M 1228 531 
L 3431 531 
L 3431 0 
L 469 0 
L 469 531 
Q 828 903 1448 1529 
Q 2069 2156 2228 2338 
Q 2531 2678 2651 2914 
Q 2772 3150 2772 3378 
Q 2772 3750 2511 3984 
Q 2250 4219 1831 4219 
Q 1534 4219 1204 4116 
Q 875 4013 500 3803 
L 500 4441 
Q 881 4594 1212 4672 
Q 1544 4750 1819 4750 
Q 2544 4750 2975 4387 
Q 3406 4025 3406 3419 
Q 3406 3131 3298 2873 
Q 3191 2616 2906 2266 
Q 2828 2175 2409 1742 
Q 1991 1309 1228 531 
z
" transform="scale(0.015625)"/>
       </defs>
       <use xlink:href="#DejaVuSans-32"/>
       <use xlink:href="#DejaVuSans-30" x="63.623047"/>
       <use xlink:href="#DejaVuSans-30" x="127.246094"/>
      </g>
     </g>
    </g>
   </g>
   <g id="matplotlib.axis_2">
    <g id="ytick_1">
     <g id="line2d_4">
      <defs>
       <path id="md8801240de" d="M 0 0 
L -3.5 0 
" style="stroke: #000000; stroke-width: 0.8"/>
      </defs>
      <g>
       <use xlink:href="#md8801240de" x="55.584" y="113.771698" style="stroke: #000000; stroke-width: 0.8"/>
      </g>
     </g>
     <g id="text_4">
      <!-- 20 -->
      <g transform="translate(35.859 117.570916) scale(0.1 -0.1)">
       <use xlink:href="#DejaVuSans-32"/>
       <use xlink:href="#DejaVuSans-30" x="63.623047"/>
      </g>
     </g>
    </g>
    <g id="ytick_2">
     <g id="line2d_5">
      <g>
       <use xlink:href="#md8801240de" x="55.584" y="70.775835" style="stroke: #000000; stroke-width: 0.8"/>
      </g>
     </g>
     <g id="text_5">
      <!-- 40 -->
      <g transform="translate(35.859 74.575053) scale(0.1 -0.1)">
       <defs>
        <path id="DejaVuSans-34" d="M 2419 4116 
L 825 1625 
L 2419 1625 
L 2419 4116 
z
M 2253 4666 
L 3047 4666 
L 3047 1625 
L 3713 1625 
L 3713 1100 
L 3047 1100 
L 3047 0 
L 2419 0 
L 2419 1100 
L 313 1100 
L 313 1709 
L 2253 4666 
z
" transform="scale(0.015625)"/>
       </defs>
       <use xlink:href="#DejaVuSans-34"/>
       <use xlink:href="#DejaVuSans-30" x="63.623047"/>
      </g>
     </g>
    </g>
   </g>
   <g id="line2d_6">
    <path d="M 62.962512 46.8 
L 63.523616 54.575393 
L 64.645823 60.694019 
L 65.206927 59.190879 
L 65.76803 64.480062 
L 66.329134 74.688725 
L 67.451341 79.478356 
L 68.012445 78.840627 
L 68.573548 72.88653 
L 69.134652 75.661377 
L 69.695756 80.535928 
L 70.256859 74.157446 
L 70.817963 82.407114 
L 71.379066 96.70662 
L 71.94017 93.786019 
L 72.501274 92.485237 
L 73.062377 100.985788 
L 73.623481 112.177946 
L 74.184584 110.482637 
L 74.745688 112.426817 
L 75.867895 96.358835 
L 76.428999 107.189756 
L 76.990103 106.392647 
L 77.551206 95.704492 
L 78.11231 96.798318 
L 78.673413 99.650076 
L 79.234517 94.216904 
L 79.795621 97.832697 
L 80.356724 98.880164 
L 80.917828 101.067977 
L 81.478931 100.073964 
L 82.040035 97.419773 
L 82.601139 97.547692 
L 83.162242 99.378351 
L 83.723346 104.010667 
L 84.284449 93.734847 
L 84.845553 93.167981 
L 85.406657 92.267661 
L 85.96776 98.678705 
L 86.528864 95.904077 
L 87.089967 90.040886 
L 87.651071 94.036468 
L 88.212175 89.052301 
L 88.773278 89.00131 
L 89.334382 84.9459 
L 89.895485 85.075306 
L 90.456589 89.759886 
L 91.017693 88.55666 
L 91.578796 81.1338 
L 92.1399 85.801145 
L 92.701003 96.638289 
L 93.262107 87.094065 
L 93.823211 87.491188 
L 94.384314 90.691194 
L 94.945418 81.982648 
L 96.067625 87.426361 
L 96.628729 87.863418 
L 97.189832 95.686894 
L 97.750936 98.27185 
L 98.312039 96.209756 
L 98.873143 96.333186 
L 99.434247 91.904973 
L 99.99535 92.86962 
L 100.556454 91.427522 
L 101.117557 98.56606 
L 101.678661 98.474101 
L 102.800868 97.921905 
L 103.361972 99.871423 
L 103.923076 100.486821 
L 104.484179 102.850452 
L 105.045283 102.770338 
L 105.606386 106.706893 
L 106.16749 103.339704 
L 106.728594 103.1785 
L 107.289697 99.695955 
L 107.850801 109.009553 
L 108.411904 101.55065 
L 108.973008 98.715271 
L 109.534112 102.892611 
L 110.095215 102.636481 
L 110.656319 109.909117 
L 111.217422 106.470168 
L 111.778526 104.799478 
L 112.33963 107.717809 
L 112.900733 113.615674 
L 113.461837 106.525914 
L 114.02294 103.043224 
L 114.584044 103.763669 
L 115.145148 105.117138 
L 115.706251 107.126797 
L 116.267355 107.330206 
L 116.828458 102.818633 
L 117.389562 102.374705 
L 117.950666 99.315906 
L 118.511769 94.620354 
L 119.072873 87.570821 
L 119.633976 91.738083 
L 120.19508 87.269151 
L 120.756184 89.301329 
L 121.317287 93.765144 
L 121.878391 95.156802 
L 122.439494 94.331849 
L 123.000598 90.927387 
L 123.561702 101.592214 
L 124.122805 115.802577 
L 125.245012 100.515594 
L 125.806116 111.275283 
L 126.36722 116.810452 
L 126.928323 116.8823 
L 127.489427 118.690553 
L 128.05053 119.079169 
L 128.611634 118.568634 
L 129.733841 108.376351 
L 130.294945 110.170646 
L 130.856049 108.904476 
L 131.417152 103.251498 
L 131.978256 107.92552 
L 132.539359 102.439194 
L 133.100463 100.458282 
L 133.661567 98.90387 
L 134.783774 109.829865 
L 135.344877 110.569112 
L 135.905981 120.427416 
L 136.467085 122.492658 
L 137.589292 112.899989 
L 138.150395 115.280663 
L 138.711499 108.72939 
L 139.272603 100.351182 
L 139.833706 95.15192 
L 140.39481 86.849838 
L 140.955913 98.770622 
L 142.078121 106.885009 
L 142.639224 103.300509 
L 143.200328 106.784924 
L 143.761431 89.894364 
L 144.322535 92.047567 
L 144.883639 94.857792 
L 145.444742 101.276122 
L 146.005846 104.016491 
L 146.566949 102.740991 
L 147.128053 99.541585 
L 148.25026 84.6506 
L 148.811364 82.851193 
L 149.372467 94.849386 
L 149.933571 93.186321 
L 150.494675 90.419823 
L 151.616882 104.696271 
L 152.177985 103.332719 
L 152.739089 104.739512 
L 153.300193 112.26692 
L 154.4224 115.737002 
L 154.983504 108.545551 
L 155.544607 107.87448 
L 156.105711 109.944363 
L 156.666814 99.074274 
L 157.227918 98.255873 
L 158.350125 90.007173 
L 158.911229 91.052245 
L 159.472332 93.687614 
L 160.59454 102.568414 
L 161.155643 112.084794 
L 161.716747 101.233098 
L 162.27785 99.966541 
L 162.838954 97.741989 
L 163.400058 96.967493 
L 163.961161 97.821623 
L 164.522265 109.320992 
L 165.083368 101.301173 
L 166.205576 99.078341 
L 166.766679 108.548077 
L 167.327783 112.220822 
L 167.888886 116.962902 
L 168.44999 119.971108 
L 169.011094 120.064385 
L 169.572197 115.346812 
L 170.133301 115.819515 
L 170.694404 107.312567 
L 171.255508 106.176984 
L 171.816612 112.634474 
L 172.377715 106.963696 
L 172.938819 103.677043 
L 173.499922 104.285858 
L 174.061026 99.024981 
L 174.62213 96.329302 
L 175.183233 96.00169 
L 175.744337 102.805149 
L 176.30544 117.284866 
L 176.866544 105.967046 
L 177.427648 107.14989 
L 177.988751 116.301374 
L 178.549855 106.875834 
L 179.110958 108.966923 
L 179.672062 116.125425 
L 180.233166 116.937797 
L 180.794269 113.862967 
L 181.355373 108.644989 
L 182.47758 107.722487 
L 183.038684 109.463338 
L 183.599787 103.392765 
L 184.160891 99.746929 
L 184.721995 101.010921 
L 185.283098 87.51604 
L 185.844202 77.287496 
L 186.405305 85.446776 
L 186.966409 103.229392 
L 187.527513 107.268825 
L 188.088616 109.340611 
L 188.64972 115.223416 
L 189.210823 114.851433 
L 189.771927 121.820749 
L 190.333031 121.813364 
L 190.894134 114.608866 
L 191.455238 119.862842 
L 192.016341 128.393348 
L 192.577445 125.601175 
L 193.138549 125.690125 
L 193.699652 133.248993 
L 194.821859 142.703917 
L 195.382963 144.118045 
L 195.944067 144.35518 
L 196.50517 147.6 
L 197.066274 143.711871 
L 197.627377 142.783668 
L 198.188481 136.35259 
L 198.749585 133.375784 
L 199.310688 128.078343 
L 199.871792 124.346784 
L 200.432895 127.203023 
L 200.993999 116.575576 
L 201.555103 117.423678 
L 202.116206 113.815371 
L 202.67731 113.641053 
L 203.238413 115.9346 
L 203.799517 115.483053 
L 204.360621 110.805804 
L 204.921724 112.253585 
L 205.482828 111.276598 
L 206.043931 111.051717 
L 206.605035 115.988087 
L 207.166139 118.0799 
L 207.727242 119.535656 
L 208.288346 116.703328 
L 208.84945 115.576496 
L 209.410553 111.41957 
L 209.971657 112.562723 
L 210.53276 112.522965 
L 210.53276 112.522965 
" clip-path="url(#p8bb0772c90)" style="fill: none; stroke: #008000; stroke-width: 1.5; stroke-linecap: square"/>
   </g>
   <g id="patch_3">
    <path d="M 55.584 152.64 
L 55.584 41.76 
" style="fill: none; stroke: #000000; stroke-width: 0.8; stroke-linejoin: miter; stroke-linecap: square"/>
   </g>
   <g id="patch_4">
    <path d="M 217.911273 152.64 
L 217.911273 41.76 
" style="fill: none; stroke: #000000; stroke-width: 0.8; stroke-linejoin: miter; stroke-linecap: square"/>
   </g>
   <g id="patch_5">
    <path d="M 55.584 152.64 
L 217.911273 152.64 
" style="fill: none; stroke: #000000; stroke-width: 0.8; stroke-linejoin: miter; stroke-linecap: square"/>
   </g>
   <g id="patch_6">
    <path d="M 55.584 41.76 
L 217.911273 41.76 
" style="fill: none; stroke: #000000; stroke-width: 0.8; stroke-linejoin: miter; stroke-linecap: square"/>
   </g>
   <g id="text_6">
    <!-- No Prediction (FOSS) -->
    <g transform="translate(74.495761 35.76) scale(0.12 -0.12)">
     <defs>
      <path id="DejaVuSans-4e" d="M 628 4666 
L 1478 4666 
L 3547 763 
L 3547 4666 
L 4159 4666 
L 4159 0 
L 3309 0 
L 1241 3903 
L 1241 0 
L 628 0 
L 628 4666 
z
" transform="scale(0.015625)"/>
      <path id="DejaVuSans-6f" d="M 1959 3097 
Q 1497 3097 1228 2736 
Q 959 2375 959 1747 
Q 959 1119 1226 758 
Q 1494 397 1959 397 
Q 2419 397 2687 759 
Q 2956 1122 2956 1747 
Q 2956 2369 2687 2733 
Q 2419 3097 1959 3097 
z
M 1959 3584 
Q 2709 3584 3137 3096 
Q 3566 2609 3566 1747 
Q 3566 888 3137 398 
Q 2709 -91 1959 -91 
Q 1206 -91 779 398 
Q 353 888 353 1747 
Q 353 2609 779 3096 
Q 1206 3584 1959 3584 
z
" transform="scale(0.015625)"/>
      <path id="DejaVuSans-20" transform="scale(0.015625)"/>
      <path id="DejaVuSans-50" d="M 1259 4147 
L 1259 2394 
L 2053 2394 
Q 2494 2394 2734 2622 
Q 2975 2850 2975 3272 
Q 2975 3691 2734 3919 
Q 2494 4147 2053 4147 
L 1259 4147 
z
M 628 4666 
L 2053 4666 
Q 2838 4666 3239 4311 
Q 3641 3956 3641 3272 
Q 3641 2581 3239 2228 
Q 2838 1875 2053 1875 
L 1259 1875 
L 1259 0 
L 628 0 
L 628 4666 
z
" transform="scale(0.015625)"/>
      <path id="DejaVuSans-72" d="M 2631 2963 
Q 2534 3019 2420 3045 
Q 2306 3072 2169 3072 
Q 1681 3072 1420 2755 
Q 1159 2438 1159 1844 
L 1159 0 
L 581 0 
L 581 3500 
L 1159 3500 
L 1159 2956 
Q 1341 3275 1631 3429 
Q 1922 3584 2338 3584 
Q 2397 3584 2469 3576 
Q 2541 3569 2628 3553 
L 2631 2963 
z
" transform="scale(0.015625)"/>
      <path id="DejaVuSans-65" d="M 3597 1894 
L 3597 1613 
L 953 1613 
Q 991 1019 1311 708 
Q 1631 397 2203 397 
Q 2534 397 2845 478 
Q 3156 559 3463 722 
L 3463 178 
Q 3153 47 2828 -22 
Q 2503 -91 2169 -91 
Q 1331 -91 842 396 
Q 353 884 353 1716 
Q 353 2575 817 3079 
Q 1281 3584 2069 3584 
Q 2775 3584 3186 3129 
Q 3597 2675 3597 1894 
z
M 3022 2063 
Q 3016 2534 2758 2815 
Q 2500 3097 2075 3097 
Q 1594 3097 1305 2825 
Q 1016 2553 972 2059 
L 3022 2063 
z
" transform="scale(0.015625)"/>
      <path id="DejaVuSans-64" d="M 2906 2969 
L 2906 4863 
L 3481 4863 
L 3481 0 
L 2906 0 
L 2906 525 
Q 2725 213 2448 61 
Q 2172 -91 1784 -91 
Q 1150 -91 751 415 
Q 353 922 353 1747 
Q 353 2572 751 3078 
Q 1150 3584 1784 3584 
Q 2172 3584 2448 3432 
Q 2725 3281 2906 2969 
z
M 947 1747 
Q 947 1113 1208 752 
Q 1469 391 1925 391 
Q 2381 391 2643 752 
Q 2906 1113 2906 1747 
Q 2906 2381 2643 2742 
Q 2381 3103 1925 3103 
Q 1469 3103 1208 2742 
Q 947 2381 947 1747 
z
" transform="scale(0.015625)"/>
      <path id="DejaVuSans-69" d="M 603 3500 
L 1178 3500 
L 1178 0 
L 603 0 
L 603 3500 
z
M 603 4863 
L 1178 4863 
L 1178 4134 
L 603 4134 
L 603 4863 
z
" transform="scale(0.015625)"/>
      <path id="DejaVuSans-63" d="M 3122 3366 
L 3122 2828 
Q 2878 2963 2633 3030 
Q 2388 3097 2138 3097 
Q 1578 3097 1268 2742 
Q 959 2388 959 1747 
Q 959 1106 1268 751 
Q 1578 397 2138 397 
Q 2388 397 2633 464 
Q 2878 531 3122 666 
L 3122 134 
Q 2881 22 2623 -34 
Q 2366 -91 2075 -91 
Q 1284 -91 818 406 
Q 353 903 353 1747 
Q 353 2603 823 3093 
Q 1294 3584 2113 3584 
Q 2378 3584 2631 3529 
Q 2884 3475 3122 3366 
z
" transform="scale(0.015625)"/>
      <path id="DejaVuSans-74" d="M 1172 4494 
L 1172 3500 
L 2356 3500 
L 2356 3053 
L 1172 3053 
L 1172 1153 
Q 1172 725 1289 603 
Q 1406 481 1766 481 
L 2356 481 
L 2356 0 
L 1766 0 
Q 1100 0 847 248 
Q 594 497 594 1153 
L 594 3053 
L 172 3053 
L 172 3500 
L 594 3500 
L 594 4494 
L 1172 4494 
z
" transform="scale(0.015625)"/>
      <path id="DejaVuSans-6e" d="M 3513 2113 
L 3513 0 
L 2938 0 
L 2938 2094 
Q 2938 2591 2744 2837 
Q 2550 3084 2163 3084 
Q 1697 3084 1428 2787 
Q 1159 2491 1159 1978 
L 1159 0 
L 581 0 
L 581 3500 
L 1159 3500 
L 1159 2956 
Q 1366 3272 1645 3428 
Q 1925 3584 2291 3584 
Q 2894 3584 3203 3211 
Q 3513 2838 3513 2113 
z
" transform="scale(0.015625)"/>
      <path id="DejaVuSans-28" d="M 1984 4856 
Q 1566 4138 1362 3434 
Q 1159 2731 1159 2009 
Q 1159 1288 1364 580 
Q 1569 -128 1984 -844 
L 1484 -844 
Q 1016 -109 783 600 
Q 550 1309 550 2009 
Q 550 2706 781 3412 
Q 1013 4119 1484 4856 
L 1984 4856 
z
" transform="scale(0.015625)"/>
      <path id="DejaVuSans-46" d="M 628 4666 
L 3309 4666 
L 3309 4134 
L 1259 4134 
L 1259 2759 
L 3109 2759 
L 3109 2228 
L 1259 2228 
L 1259 0 
L 628 0 
L 628 4666 
z
" transform="scale(0.015625)"/>
      <path id="DejaVuSans-4f" d="M 2522 4238 
Q 1834 4238 1429 3725 
Q 1025 3213 1025 2328 
Q 1025 1447 1429 934 
Q 1834 422 2522 422 
Q 3209 422 3611 934 
Q 4013 1447 4013 2328 
Q 4013 3213 3611 3725 
Q 3209 4238 2522 4238 
z
M 2522 4750 
Q 3503 4750 4090 4092 
Q 4678 3434 4678 2328 
Q 4678 1225 4090 567 
Q 3503 -91 2522 -91 
Q 1538 -91 948 565 
Q 359 1222 359 2328 
Q 359 3434 948 4092 
Q 1538 4750 2522 4750 
z
" transform="scale(0.015625)"/>
      <path id="DejaVuSans-53" d="M 3425 4513 
L 3425 3897 
Q 3066 4069 2747 4153 
Q 2428 4238 2131 4238 
Q 1616 4238 1336 4038 
Q 1056 3838 1056 3469 
Q 1056 3159 1242 3001 
Q 1428 2844 1947 2747 
L 2328 2669 
Q 3034 2534 3370 2195 
Q 3706 1856 3706 1288 
Q 3706 609 3251 259 
Q 2797 -91 1919 -91 
Q 1588 -91 1214 -16 
Q 841 59 441 206 
L 441 856 
Q 825 641 1194 531 
Q 1563 422 1919 422 
Q 2459 422 2753 634 
Q 3047 847 3047 1241 
Q 3047 1584 2836 1778 
Q 2625 1972 2144 2069 
L 1759 2144 
Q 1053 2284 737 2584 
Q 422 2884 422 3419 
Q 422 4038 858 4394 
Q 1294 4750 2059 4750 
Q 2388 4750 2728 4690 
Q 3069 4631 3425 4513 
z
" transform="scale(0.015625)"/>
      <path id="DejaVuSans-29" d="M 513 4856 
L 1013 4856 
Q 1481 4119 1714 3412 
Q 1947 2706 1947 2009 
Q 1947 1309 1714 600 
Q 1481 -109 1013 -844 
L 513 -844 
Q 928 -128 1133 580 
Q 1338 1288 1338 2009 
Q 1338 2731 1133 3434 
Q 928 4138 513 4856 
z
" transform="scale(0.015625)"/>
     </defs>
     <use xlink:href="#DejaVuSans-4e"/>
     <use xlink:href="#DejaVuSans-6f" x="74.804688"/>
     <use xlink:href="#DejaVuSans-20" x="135.986328"/>
     <use xlink:href="#DejaVuSans-50" x="167.773438"/>
     <use xlink:href="#DejaVuSans-72" x="226.326172"/>
     <use xlink:href="#DejaVuSans-65" x="265.189453"/>
     <use xlink:href="#DejaVuSans-64" x="326.712891"/>
     <use xlink:href="#DejaVuSans-69" x="390.189453"/>
     <use xlink:href="#DejaVuSans-63" x="417.972656"/>
     <use xlink:href="#DejaVuSans-74" x="472.953125"/>
     <use xlink:href="#DejaVuSans-69" x="512.162109"/>
     <use xlink:href="#DejaVuSans-6f" x="539.945312"/>
     <use xlink:href="#DejaVuSans-6e" x="601.126953"/>
     <use xlink:href="#DejaVuSans-20" x="664.505859"/>
     <use xlink:href="#DejaVuSans-28" x="696.292969"/>
     <use xlink:href="#DejaVuSans-46" x="735.306641"/>
     <use xlink:href="#DejaVuSans-4f" x="792.826172"/>
     <use xlink:href="#DejaVuSans-53" x="871.537109"/>
     <use xlink:href="#DejaVuSans-53" x="935.013672"/>
     <use xlink:href="#DejaVuSans-29" x="998.490234"/>
    </g>
   </g>
  </g>
  <g id="axes_2">
   <g id="patch_7">
    <path d="M 250.376727 152.64 
L 412.704 152.64 
L 412.704 41.76 
L 250.376727 41.76 
z
" style="fill: #ffffff"/>
   </g>
   <g id="matplotlib.axis_3">
    <g id="xtick_4">
     <g id="line2d_7">
      <g>
       <use xlink:href="#m6065767783" x="257.75524" y="152.64" style="stroke: #000000; stroke-width: 0.8"/>
      </g>
     </g>
     <g id="text_7">
      <!-- 0 -->
      <g transform="translate(254.57399 167.238437) scale(0.1 -0.1)">
       <use xlink:href="#DejaVuSans-30"/>
      </g>
     </g>
    </g>
    <g id="xtick_5">
     <g id="line2d_8">
      <g>
       <use xlink:href="#m6065767783" x="313.8656" y="152.64" style="stroke: #000000; stroke-width: 0.8"/>
      </g>
     </g>
     <g id="text_8">
      <!-- 100 -->
      <g transform="translate(304.32185 167.238437) scale(0.1 -0.1)">
       <use xlink:href="#DejaVuSans-31"/>
       <use xlink:href="#DejaVuSans-30" x="63.623047"/>
       <use xlink:href="#DejaVuSans-30" x="127.246094"/>
      </g>
     </g>
    </g>
    <g id="xtick_6">
     <g id="line2d_9">
      <g>
       <use xlink:href="#m6065767783" x="369.975961" y="152.64" style="stroke: #000000; stroke-width: 0.8"/>
      </g>
     </g>
     <g id="text_9">
      <!-- 200 -->
      <g transform="translate(360.432211 167.238437) scale(0.1 -0.1)">
       <use xlink:href="#DejaVuSans-32"/>
       <use xlink:href="#DejaVuSans-30" x="63.623047"/>
       <use xlink:href="#DejaVuSans-30" x="127.246094"/>
      </g>
     </g>
    </g>
   </g>
   <g id="matplotlib.axis_4">
    <g id="ytick_3">
     <g id="line2d_10">
      <g>
       <use xlink:href="#md8801240de" x="250.376727" y="147.6" style="stroke: #000000; stroke-width: 0.8"/>
      </g>
     </g>
     <g id="text_10">
      <!-- 0 -->
      <g transform="translate(237.014227 151.399219) scale(0.1 -0.1)">
       <use xlink:href="#DejaVuSans-30"/>
      </g>
     </g>
    </g>
    <g id="ytick_4">
     <g id="line2d_11">
      <g>
       <use xlink:href="#md8801240de" x="250.376727" y="108.19003" style="stroke: #000000; stroke-width: 0.8"/>
      </g>
     </g>
     <g id="text_11">
      <!-- 20 -->
      <g transform="translate(230.651727 111.989249) scale(0.1 -0.1)">
       <use xlink:href="#DejaVuSans-32"/>
       <use xlink:href="#DejaVuSans-30" x="63.623047"/>
      </g>
     </g>
    </g>
    <g id="ytick_5">
     <g id="line2d_12">
      <g>
       <use xlink:href="#md8801240de" x="250.376727" y="68.78006" style="stroke: #000000; stroke-width: 0.8"/>
      </g>
     </g>
     <g id="text_12">
      <!-- 40 -->
      <g transform="translate(230.651727 72.579278) scale(0.1 -0.1)">
       <use xlink:href="#DejaVuSans-34"/>
       <use xlink:href="#DejaVuSans-30" x="63.623047"/>
      </g>
     </g>
    </g>
   </g>
   <g id="line2d_13">
    <path d="M 257.75524 46.8 
L 258.316343 53.934586 
L 259.43855 59.558438 
L 259.999654 58.157153 
L 260.560758 63.001409 
L 261.121861 72.38871 
L 262.244069 76.74593 
L 262.805172 76.180237 
L 263.366276 70.721688 
L 263.927379 73.248951 
L 264.488483 111.974607 
L 265.049587 137.952102 
L 265.61069 124.128178 
L 266.171794 146.829752 
L 266.732897 147.6 
L 267.294001 142.681866 
L 267.855105 139.126998 
L 268.416208 142.550791 
L 268.977312 142.973825 
L 269.538415 144.226014 
L 270.099519 139.698295 
L 270.660623 146.796929 
L 271.221726 102.169869 
L 271.78283 101.435236 
L 272.343933 91.626624 
L 272.905037 92.624668 
L 273.466141 95.247372 
L 274.027244 89.630119 
L 274.588348 93.574326 
L 275.149451 94.538392 
L 275.710555 96.548707 
L 276.271659 95.622742 
L 276.832762 93.215875 
L 277.393866 93.291906 
L 277.954969 138.898834 
L 278.516073 146.608764 
L 279.077177 141.889202 
L 279.63828 140.031723 
L 280.760487 130.727076 
L 281.321591 135.003602 
L 281.882695 135.114155 
L 282.443798 144.408565 
L 283.004902 147.6 
L 283.566005 147.6 
L 284.127109 144.098215 
L 284.688213 81.844747 
L 285.249316 86.182799 
L 285.81042 85.078063 
L 286.371523 78.267308 
L 286.932627 82.574113 
L 287.493731 92.493894 
L 288.054834 83.727818 
L 288.615938 84.110966 
L 289.177042 87.037717 
L 289.738145 79.062767 
L 290.860352 84.038516 
L 291.421456 121.850806 
L 291.98256 127.572767 
L 292.543663 147.353412 
L 293.104767 147.6 
L 293.66587 146.179915 
L 294.226974 146.248565 
L 294.788078 147.6 
L 295.349181 147.6 
L 295.910285 143.424545 
L 296.471388 141.815998 
L 297.032492 141.684629 
L 297.593596 137.615037 
L 298.154699 95.442666 
L 298.715803 96.017723 
L 299.276906 98.140407 
L 299.83801 98.099389 
L 300.399114 101.701078 
L 300.960217 98.625195 
L 301.521321 98.498462 
L 302.082424 95.284441 
L 302.643528 103.828184 
L 303.204632 96.886679 
L 303.765735 94.399388 
L 304.326839 98.215317 
L 304.887942 125.571809 
L 305.449046 136.495567 
L 306.01015 143.378225 
L 306.571253 139.848467 
L 307.132357 132.838726 
L 307.69346 132.856628 
L 308.254564 127.312737 
L 308.815668 128.916287 
L 309.376771 125.362221 
L 309.937875 124.53937 
L 310.498978 136.250959 
L 311.060082 138.646368 
L 311.621186 98.135126 
L 312.182289 97.734271 
L 312.743393 94.936163 
L 313.304496 90.644376 
L 313.8656 84.167945 
L 314.426704 88.037277 
L 314.987807 83.895174 
L 315.548911 85.767144 
L 316.110015 89.85806 
L 316.671118 91.119227 
L 317.232222 90.375513 
L 317.793325 87.258319 
L 318.354429 141.826839 
L 318.915533 145.174326 
L 319.476636 141.97989 
L 320.03774 130.327473 
L 320.598843 141.270579 
L 321.159947 146.602926 
L 321.721051 145.135685 
L 322.282154 145.470758 
L 322.843258 141.833525 
L 323.404361 146.873599 
L 323.965465 146.029792 
L 324.526569 147.6 
L 325.087672 104.899045 
L 325.648776 103.714064 
L 326.209879 98.553602 
L 326.770983 102.856154 
L 327.332087 97.802208 
L 327.89319 95.904226 
L 328.454294 94.559014 
L 329.576501 104.587933 
L 330.137605 106.237603 
L 330.698708 114.319461 
L 331.259812 116.195809 
L 331.820915 147.6 
L 333.504226 147.6 
L 334.06533 142.239947 
L 334.626433 146.227343 
L 335.187537 147.6 
L 335.748641 147.463328 
L 336.309744 147.6 
L 336.870848 147.6 
L 337.431951 145.766788 
L 337.993055 141.695657 
L 338.554159 86.306732 
L 339.115262 88.289144 
L 339.676366 90.861407 
L 340.23747 96.749109 
L 340.798573 99.249009 
L 341.359677 98.071589 
L 341.92078 95.182306 
L 343.042988 81.51561 
L 343.604091 79.863469 
L 344.165195 90.854352 
L 344.726298 89.324881 
L 345.287402 145.879248 
L 345.848506 147.6 
L 349.776231 147.6 
L 350.337334 145.908081 
L 350.898438 146.252031 
L 351.459542 142.772576 
L 352.020645 93.983484 
L 353.142852 86.407897 
L 353.703956 87.358225 
L 354.26506 89.792681 
L 355.387267 97.919265 
L 355.94837 106.616861 
L 356.509474 96.683958 
L 357.070578 95.538931 
L 357.631681 93.508403 
L 358.192785 92.775056 
L 358.753888 147.6 
L 364.926028 147.6 
L 365.487132 102.262085 
L 366.048235 101.232939 
L 366.609339 107.149473 
L 367.170443 101.953461 
L 367.731546 98.930813 
L 368.29265 99.194308 
L 368.853753 94.60439 
L 369.414857 92.19869 
L 369.975961 91.895288 
L 370.537064 98.133212 
L 371.098168 111.415608 
L 371.659271 101.030724 
L 372.220375 141.864681 
L 372.781479 147.6 
L 378.392515 147.6 
L 378.953618 95.331215 
L 379.514722 96.477651 
L 380.075825 84.124404 
L 380.636929 77.937701 
L 381.198033 82.215809 
L 381.759136 98.881261 
L 382.32024 102.242539 
L 382.881343 104.113975 
L 383.442447 109.534205 
L 384.003551 109.184542 
L 384.564654 115.566889 
L 385.125758 115.567042 
L 385.686861 147.6 
L 386.809069 147.6 
L 387.370172 147.39696 
L 387.931276 147.6 
L 391.297897 147.6 
L 391.859001 143.721154 
L 392.420105 132.516027 
L 392.981208 128.884347 
L 393.542312 126.160941 
L 394.103416 121.309757 
L 394.664519 117.88877 
L 395.225623 120.515392 
L 395.786726 110.834019 
L 396.34783 111.543383 
L 396.908934 108.238364 
L 397.470037 108.079081 
L 398.031141 110.160913 
L 398.592244 109.763741 
L 399.153348 141.787609 
L 400.275555 147.6 
L 400.836659 144.548451 
L 401.397762 147.6 
L 403.081073 147.552227 
L 403.642177 146.851439 
L 404.20328 144.280782 
L 404.764384 140.876094 
L 405.325488 141.717674 
L 405.325488 141.717674 
" clip-path="url(#p22a1d3e0ff)" style="fill: none; stroke: #0000ff; stroke-width: 1.5; stroke-linecap: square"/>
   </g>
   <g id="patch_8">
    <path d="M 250.376727 152.64 
L 250.376727 41.76 
" style="fill: none; stroke: #000000; stroke-width: 0.8; stroke-linejoin: miter; stroke-linecap: square"/>
   </g>
   <g id="patch_9">
    <path d="M 412.704 152.64 
L 412.704 41.76 
" style="fill: none; stroke: #000000; stroke-width: 0.8; stroke-linejoin: miter; stroke-linecap: square"/>
   </g>
   <g id="patch_10">
    <path d="M 250.376727 152.64 
L 412.704 152.64 
" style="fill: none; stroke: #000000; stroke-width: 0.8; stroke-linejoin: miter; stroke-linecap: square"/>
   </g>
   <g id="patch_11">
    <path d="M 250.376727 41.76 
L 412.704 41.76 
" style="fill: none; stroke: #000000; stroke-width: 0.8; stroke-linejoin: miter; stroke-linecap: square"/>
   </g>
   <g id="text_13">
    <!-- RNN -->
    <g transform="translate(318.393801 35.76) scale(0.12 -0.12)">
     <defs>
      <path id="DejaVuSans-52" d="M 2841 2188 
Q 3044 2119 3236 1894 
Q 3428 1669 3622 1275 
L 4263 0 
L 3584 0 
L 2988 1197 
Q 2756 1666 2539 1819 
Q 2322 1972 1947 1972 
L 1259 1972 
L 1259 0 
L 628 0 
L 628 4666 
L 2053 4666 
Q 2853 4666 3247 4331 
Q 3641 3997 3641 3322 
Q 3641 2881 3436 2590 
Q 3231 2300 2841 2188 
z
M 1259 4147 
L 1259 2491 
L 2053 2491 
Q 2509 2491 2742 2702 
Q 2975 2913 2975 3322 
Q 2975 3731 2742 3939 
Q 2509 4147 2053 4147 
L 1259 4147 
z
" transform="scale(0.015625)"/>
     </defs>
     <use xlink:href="#DejaVuSans-52"/>
     <use xlink:href="#DejaVuSans-4e" x="69.482422"/>
     <use xlink:href="#DejaVuSans-4e" x="144.287109"/>
    </g>
   </g>
  </g>
  <g id="axes_3">
   <g id="patch_12">
    <path d="M 55.584 307.872 
L 217.911273 307.872 
L 217.911273 196.992 
L 55.584 196.992 
z
" style="fill: #ffffff"/>
   </g>
   <g id="matplotlib.axis_5">
    <g id="xtick_7">
     <g id="line2d_14">
      <g>
       <use xlink:href="#m6065767783" x="62.962512" y="307.872" style="stroke: #000000; stroke-width: 0.8"/>
      </g>
     </g>
     <g id="text_14">
      <!-- 0 -->
      <g transform="translate(59.781262 322.470437) scale(0.1 -0.1)">
       <use xlink:href="#DejaVuSans-30"/>
      </g>
     </g>
    </g>
    <g id="xtick_8">
     <g id="line2d_15">
      <g>
       <use xlink:href="#m6065767783" x="119.072873" y="307.872" style="stroke: #000000; stroke-width: 0.8"/>
      </g>
     </g>
     <g id="text_15">
      <!-- 100 -->
      <g transform="translate(109.529123 322.470437) scale(0.1 -0.1)">
       <use xlink:href="#DejaVuSans-31"/>
       <use xlink:href="#DejaVuSans-30" x="63.623047"/>
       <use xlink:href="#DejaVuSans-30" x="127.246094"/>
      </g>
     </g>
    </g>
    <g id="xtick_9">
     <g id="line2d_16">
      <g>
       <use xlink:href="#m6065767783" x="175.183233" y="307.872" style="stroke: #000000; stroke-width: 0.8"/>
      </g>
     </g>
     <g id="text_16">
      <!-- 200 -->
      <g transform="translate(165.639483 322.470437) scale(0.1 -0.1)">
       <use xlink:href="#DejaVuSans-32"/>
       <use xlink:href="#DejaVuSans-30" x="63.623047"/>
       <use xlink:href="#DejaVuSans-30" x="127.246094"/>
      </g>
     </g>
    </g>
   </g>
   <g id="matplotlib.axis_6">
    <g id="ytick_6">
     <g id="line2d_17">
      <g>
       <use xlink:href="#md8801240de" x="55.584" y="302.832" style="stroke: #000000; stroke-width: 0.8"/>
      </g>
     </g>
     <g id="text_17">
      <!-- 0 -->
      <g transform="translate(42.2215 306.631219) scale(0.1 -0.1)">
       <use xlink:href="#DejaVuSans-30"/>
      </g>
     </g>
    </g>
    <g id="ytick_7">
     <g id="line2d_18">
      <g>
       <use xlink:href="#md8801240de" x="55.584" y="263.42203" style="stroke: #000000; stroke-width: 0.8"/>
      </g>
     </g>
     <g id="text_18">
      <!-- 20 -->
      <g transform="translate(35.859 267.221249) scale(0.1 -0.1)">
       <use xlink:href="#DejaVuSans-32"/>
       <use xlink:href="#DejaVuSans-30" x="63.623047"/>
      </g>
     </g>
    </g>
    <g id="ytick_8">
     <g id="line2d_19">
      <g>
       <use xlink:href="#md8801240de" x="55.584" y="224.01206" style="stroke: #000000; stroke-width: 0.8"/>
      </g>
     </g>
     <g id="text_19">
      <!-- 40 -->
      <g transform="translate(35.859 227.811278) scale(0.1 -0.1)">
       <use xlink:href="#DejaVuSans-34"/>
       <use xlink:href="#DejaVuSans-30" x="63.623047"/>
      </g>
     </g>
    </g>
   </g>
   <g id="line2d_20">
    <path d="M 62.962512 202.032 
L 63.523616 209.166586 
L 64.645823 214.790438 
L 65.206927 213.389153 
L 65.76803 218.233409 
L 66.329134 227.62071 
L 67.451341 231.97793 
L 68.012445 231.412237 
L 68.573548 225.953688 
L 69.134652 228.480951 
L 69.695756 272.417773 
L 70.256859 281.192884 
L 70.817963 277.426406 
L 71.379066 283.474662 
L 71.94017 285.636502 
L 72.501274 295.366264 
L 73.062377 290.120267 
L 73.623481 297.381865 
L 74.184584 300.417609 
L 74.745688 302.028374 
L 75.306792 298.118556 
L 75.867895 297.952021 
L 76.428999 257.401869 
L 76.990103 256.667236 
L 77.551206 246.858624 
L 78.11231 247.856668 
L 78.673413 250.479372 
L 79.234517 244.862119 
L 79.795621 248.806326 
L 80.356724 249.770392 
L 80.917828 251.780707 
L 81.478931 250.854742 
L 82.040035 248.447875 
L 82.601139 248.523906 
L 83.162242 290.857046 
L 83.723346 297.160823 
L 84.284449 294.765731 
L 84.845553 288.255694 
L 85.406657 283.104886 
L 85.96776 289.603911 
L 86.528864 290.762145 
L 87.089967 298.990557 
L 87.651071 302.832 
L 89.334382 302.832 
L 89.895485 237.076747 
L 90.456589 241.414799 
L 91.017693 240.310063 
L 91.578796 233.499308 
L 92.1399 237.806113 
L 92.701003 247.725894 
L 93.262107 238.959818 
L 93.823211 239.342966 
L 94.384314 242.269717 
L 94.945418 234.294767 
L 96.067625 239.270516 
L 96.628729 273.386839 
L 97.189832 275.828348 
L 97.750936 293.692702 
L 98.312039 292.209397 
L 98.873143 283.225694 
L 99.99535 292.028894 
L 100.556454 292.444009 
L 101.117557 287.06013 
L 101.678661 287.388123 
L 102.239765 297.479693 
L 102.800868 301.759101 
L 103.361972 250.674666 
L 103.923076 251.249723 
L 104.484179 253.372407 
L 105.045283 253.331389 
L 105.606386 256.933078 
L 106.16749 253.857195 
L 106.728594 253.730462 
L 107.289697 250.516441 
L 107.850801 259.060184 
L 108.411904 252.118679 
L 108.973008 249.631388 
L 109.534112 253.447317 
L 110.095215 291.921379 
L 110.656319 296.490626 
L 111.217422 288.622997 
L 112.33963 291.80592 
L 112.900733 295.287235 
L 113.461837 291.720952 
L 114.02294 289.76219 
L 114.584044 293.817539 
L 115.145148 292.232976 
L 115.706251 296.399928 
L 116.267355 295.725222 
L 116.828458 253.367126 
L 117.389562 252.966271 
L 117.950666 250.168163 
L 118.511769 245.876376 
L 119.072873 239.399945 
L 119.633976 243.269277 
L 120.19508 239.127174 
L 120.756184 240.999144 
L 121.317287 245.09006 
L 121.878391 246.351227 
L 122.439494 245.607513 
L 123.000598 242.490319 
L 123.561702 295.229247 
L 124.122805 292.572944 
L 124.683909 295.42729 
L 125.245012 288.99114 
L 125.806116 302.832 
L 127.489427 302.832 
L 128.05053 302.485793 
L 128.611634 302.832 
L 129.733841 302.832 
L 130.294945 260.131045 
L 130.856049 258.946064 
L 131.417152 253.785602 
L 131.978256 258.088154 
L 132.539359 253.034208 
L 133.100463 251.136226 
L 133.661567 249.791014 
L 134.783774 259.819933 
L 135.344877 261.469603 
L 135.905981 269.551461 
L 136.467085 271.427809 
L 137.028188 302.832 
L 137.589292 302.832 
L 138.150395 300.72371 
L 138.711499 291.869297 
L 139.272603 286.03902 
L 139.833706 299.333975 
L 140.39481 302.832 
L 140.955913 302.832 
L 141.517017 302.178644 
L 142.078121 302.832 
L 143.200328 302.832 
L 143.761431 241.538732 
L 144.322535 243.521144 
L 144.883639 246.093407 
L 145.444742 251.981109 
L 146.005846 254.481009 
L 146.566949 253.303589 
L 147.128053 250.414306 
L 148.25026 236.74761 
L 148.811364 235.095469 
L 149.372467 246.086352 
L 149.933571 244.556881 
L 150.494675 301.581622 
L 151.055778 302.832 
L 156.666814 302.832 
L 157.227918 249.215484 
L 158.350125 241.639897 
L 158.911229 242.590225 
L 159.472332 245.024681 
L 160.59454 253.151265 
L 161.155643 261.848861 
L 161.716747 251.915958 
L 162.27785 250.770931 
L 162.838954 248.740403 
L 163.400058 248.007056 
L 163.961161 302.832 
L 164.522265 299.014849 
L 165.083368 302.832 
L 170.133301 302.832 
L 170.694404 257.494085 
L 171.255508 256.464939 
L 171.816612 262.381473 
L 172.377715 257.185461 
L 172.938819 254.162813 
L 173.499922 254.426308 
L 174.061026 249.83639 
L 174.62213 247.43069 
L 175.183233 247.127288 
L 175.744337 253.365212 
L 176.30544 266.647608 
L 176.866544 256.262724 
L 177.427648 295.824752 
L 177.988751 302.832 
L 178.549855 302.805444 
L 179.110958 294.085732 
L 179.672062 302.832 
L 183.038684 302.832 
L 183.599787 298.265295 
L 184.160891 250.563215 
L 184.721995 251.709651 
L 185.283098 239.356404 
L 185.844202 233.169701 
L 186.405305 237.447809 
L 186.966409 254.113261 
L 187.527513 257.474539 
L 188.088616 259.345975 
L 188.64972 264.766205 
L 189.210823 264.416542 
L 189.771927 270.798889 
L 190.333031 270.799042 
L 190.894134 302.832 
L 192.577445 302.832 
L 193.138549 301.313695 
L 193.699652 302.832 
L 197.066274 302.832 
L 197.627377 287.748027 
L 198.188481 284.116347 
L 198.749585 281.392941 
L 199.310688 276.541757 
L 199.871792 273.12077 
L 200.432895 275.747392 
L 200.993999 266.066019 
L 201.555103 266.775383 
L 202.116206 263.470364 
L 202.67731 263.311081 
L 203.238413 265.392913 
L 203.799517 264.995741 
L 204.360621 300.062553 
L 204.921724 301.08056 
L 205.482828 301.567986 
L 206.043931 300.209201 
L 206.605035 302.832 
L 207.727242 302.805554 
L 208.288346 294.948891 
L 208.84945 292.642215 
L 209.410553 286.695641 
L 209.971657 282.554709 
L 210.53276 281.373951 
L 210.53276 281.373951 
" clip-path="url(#p21722128c2)" style="fill: none; stroke: #ffa500; stroke-width: 1.5; stroke-linecap: square"/>
   </g>
   <g id="patch_13">
    <path d="M 55.584 307.872 
L 55.584 196.992 
" style="fill: none; stroke: #000000; stroke-width: 0.8; stroke-linejoin: miter; stroke-linecap: square"/>
   </g>
   <g id="patch_14">
    <path d="M 217.911273 307.872 
L 217.911273 196.992 
" style="fill: none; stroke: #000000; stroke-width: 0.8; stroke-linejoin: miter; stroke-linecap: square"/>
   </g>
   <g id="patch_15">
    <path d="M 55.584 307.872 
L 217.911273 307.872 
" style="fill: none; stroke: #000000; stroke-width: 0.8; stroke-linejoin: miter; stroke-linecap: square"/>
   </g>
   <g id="patch_16">
    <path d="M 55.584 196.992 
L 217.911273 196.992 
" style="fill: none; stroke: #000000; stroke-width: 0.8; stroke-linejoin: miter; stroke-linecap: square"/>
   </g>
   <g id="text_20">
    <!-- VAE -->
    <g transform="translate(125.130136 190.992) scale(0.12 -0.12)">
     <defs>
      <path id="DejaVuSans-56" d="M 1831 0 
L 50 4666 
L 709 4666 
L 2188 738 
L 3669 4666 
L 4325 4666 
L 2547 0 
L 1831 0 
z
" transform="scale(0.015625)"/>
      <path id="DejaVuSans-41" d="M 2188 4044 
L 1331 1722 
L 3047 1722 
L 2188 4044 
z
M 1831 4666 
L 2547 4666 
L 4325 0 
L 3669 0 
L 3244 1197 
L 1141 1197 
L 716 0 
L 50 0 
L 1831 4666 
z
" transform="scale(0.015625)"/>
      <path id="DejaVuSans-45" d="M 628 4666 
L 3578 4666 
L 3578 4134 
L 1259 4134 
L 1259 2753 
L 3481 2753 
L 3481 2222 
L 1259 2222 
L 1259 531 
L 3634 531 
L 3634 0 
L 628 0 
L 628 4666 
z
" transform="scale(0.015625)"/>
     </defs>
     <use xlink:href="#DejaVuSans-56"/>
     <use xlink:href="#DejaVuSans-41" x="62.033203"/>
     <use xlink:href="#DejaVuSans-45" x="130.441406"/>
    </g>
   </g>
  </g>
  <g id="axes_4">
   <g id="patch_17">
    <path d="M 250.376727 307.872 
L 412.704 307.872 
L 412.704 196.992 
L 250.376727 196.992 
z
" style="fill: #ffffff"/>
   </g>
   <g id="matplotlib.axis_7">
    <g id="xtick_10">
     <g id="line2d_21">
      <g>
       <use xlink:href="#m6065767783" x="257.75524" y="307.872" style="stroke: #000000; stroke-width: 0.8"/>
      </g>
     </g>
     <g id="text_21">
      <!-- 0 -->
      <g transform="translate(254.57399 322.470437) scale(0.1 -0.1)">
       <use xlink:href="#DejaVuSans-30"/>
      </g>
     </g>
    </g>
    <g id="xtick_11">
     <g id="line2d_22">
      <g>
       <use xlink:href="#m6065767783" x="313.8656" y="307.872" style="stroke: #000000; stroke-width: 0.8"/>
      </g>
     </g>
     <g id="text_22">
      <!-- 100 -->
      <g transform="translate(304.32185 322.470437) scale(0.1 -0.1)">
       <use xlink:href="#DejaVuSans-31"/>
       <use xlink:href="#DejaVuSans-30" x="63.623047"/>
       <use xlink:href="#DejaVuSans-30" x="127.246094"/>
      </g>
     </g>
    </g>
    <g id="xtick_12">
     <g id="line2d_23">
      <g>
       <use xlink:href="#m6065767783" x="369.975961" y="307.872" style="stroke: #000000; stroke-width: 0.8"/>
      </g>
     </g>
     <g id="text_23">
      <!-- 200 -->
      <g transform="translate(360.432211 322.470437) scale(0.1 -0.1)">
       <use xlink:href="#DejaVuSans-32"/>
       <use xlink:href="#DejaVuSans-30" x="63.623047"/>
       <use xlink:href="#DejaVuSans-30" x="127.246094"/>
      </g>
     </g>
    </g>
   </g>
   <g id="matplotlib.axis_8">
    <g id="ytick_9">
     <g id="line2d_24">
      <g>
       <use xlink:href="#md8801240de" x="250.376727" y="302.832" style="stroke: #000000; stroke-width: 0.8"/>
      </g>
     </g>
     <g id="text_24">
      <!-- 0 -->
      <g transform="translate(237.014227 306.631219) scale(0.1 -0.1)">
       <use xlink:href="#DejaVuSans-30"/>
      </g>
     </g>
    </g>
    <g id="ytick_10">
     <g id="line2d_25">
      <g>
       <use xlink:href="#md8801240de" x="250.376727" y="263.420532" style="stroke: #000000; stroke-width: 0.8"/>
      </g>
     </g>
     <g id="text_25">
      <!-- 20 -->
      <g transform="translate(230.651727 267.219751) scale(0.1 -0.1)">
       <use xlink:href="#DejaVuSans-32"/>
       <use xlink:href="#DejaVuSans-30" x="63.623047"/>
      </g>
     </g>
    </g>
    <g id="ytick_11">
     <g id="line2d_26">
      <g>
       <use xlink:href="#md8801240de" x="250.376727" y="224.009064" style="stroke: #000000; stroke-width: 0.8"/>
      </g>
     </g>
     <g id="text_26">
      <!-- 40 -->
      <g transform="translate(230.651727 227.808283) scale(0.1 -0.1)">
       <use xlink:href="#DejaVuSans-34"/>
       <use xlink:href="#DejaVuSans-30" x="63.623047"/>
      </g>
     </g>
    </g>
   </g>
   <g id="line2d_27">
    <path d="M 257.75524 202.032 
L 258.316343 209.15919 
L 259.43855 214.767729 
L 259.999654 213.3899 
L 260.560758 218.238145 
L 261.121861 227.595752 
L 262.244069 231.986091 
L 262.805172 231.401526 
L 263.366276 225.943799 
L 263.927379 228.487318 
L 264.488483 245.190005 
L 265.049587 247.159896 
L 265.61069 267.045264 
L 266.171794 271.848255 
L 266.732897 260.530006 
L 267.294001 268.016723 
L 267.855105 262.25748 
L 268.416208 280.387482 
L 268.977312 279.994394 
L 269.538415 264.928192 
L 270.099519 258.480693 
L 270.660623 257.362826 
L 271.221726 257.3873 
L 271.78283 256.656643 
L 272.343933 246.859518 
L 272.905037 247.862156 
L 273.466141 250.476174 
L 274.027244 245.495944 
L 274.588348 248.810303 
L 275.149451 249.770447 
L 275.710555 251.77587 
L 276.271659 250.864724 
L 276.832762 248.431803 
L 277.393866 248.549058 
L 277.954969 272.143993 
L 278.516073 252.072946 
L 279.077177 262.323258 
L 279.63828 262.446072 
L 280.199384 246.011673 
L 280.760487 242.733553 
L 281.321591 251.344013 
L 281.882695 251.539811 
L 282.443798 261.807858 
L 283.004902 255.320733 
L 283.566005 243.227261 
L 284.127109 251.346167 
L 284.688213 237.116445 
L 285.249316 241.41049 
L 285.81042 240.307572 
L 286.371523 233.503527 
L 286.932627 237.781774 
L 287.493731 247.715468 
L 288.054834 238.966908 
L 288.615938 239.330925 
L 289.177042 242.264159 
L 289.738145 234.28161 
L 290.860352 239.271502 
L 291.421456 253.553954 
L 291.98256 263.952664 
L 292.543663 262.554619 
L 293.104767 262.020448 
L 293.66587 247.931977 
L 294.226974 258.719248 
L 294.788078 260.971401 
L 295.349181 255.523853 
L 295.910285 258.073787 
L 296.471388 250.146521 
L 297.032492 261.361056 
L 297.593596 259.420574 
L 298.154699 250.679069 
L 298.715803 251.243163 
L 299.276906 253.409747 
L 299.83801 253.336312 
L 300.399114 256.944692 
L 300.960217 253.858212 
L 301.521321 253.710447 
L 302.082424 250.518228 
L 302.643528 259.055389 
L 303.204632 252.218305 
L 303.765735 249.6193 
L 304.326839 253.448392 
L 304.887942 261.809281 
L 305.449046 265.105772 
L 306.01015 271.600869 
L 306.571253 270.327417 
L 307.132357 265.291643 
L 307.69346 274.298351 
L 308.254564 277.518475 
L 308.815668 267.221327 
L 309.376771 261.870773 
L 309.937875 263.509659 
L 310.498978 269.071122 
L 311.060082 258.365887 
L 311.621186 253.380581 
L 312.182289 252.973661 
L 312.743393 250.169863 
L 313.304496 245.86576 
L 313.8656 239.403919 
L 314.426704 243.223773 
L 314.987807 239.127398 
L 315.548911 240.990161 
L 316.110015 245.081846 
L 316.671118 246.357487 
L 317.232222 245.601307 
L 317.793325 242.480661 
L 318.354429 279.80933 
L 318.915533 294.130933 
L 319.476636 291.598011 
L 320.03774 277.760574 
L 320.598843 302.832 
L 322.282154 302.832 
L 322.843258 294.868282 
L 323.404361 292.262635 
L 323.965465 284.299723 
L 324.526569 270.012634 
L 325.087672 260.119686 
L 325.648776 258.959071 
L 326.209879 253.77736 
L 326.770983 258.061727 
L 327.332087 253.032775 
L 327.89319 251.217004 
L 328.454294 249.792177 
L 329.576501 259.807314 
L 330.137605 260.484933 
L 330.698708 269.52139 
L 331.259812 271.414461 
L 331.820915 274.654854 
L 332.382019 267.851563 
L 332.943123 275.742068 
L 333.504226 258.262176 
L 334.06533 259.89601 
L 334.626433 270.632679 
L 335.187537 271.398485 
L 335.748641 274.208306 
L 336.309744 273.879023 
L 336.870848 272.106646 
L 337.431951 259.15522 
L 337.993055 256.71403 
L 338.554159 241.533758 
L 339.115262 243.507456 
L 339.676366 246.083404 
L 340.23747 251.966663 
L 340.798573 254.478578 
L 341.359677 253.309412 
L 341.92078 250.376727 
L 343.042988 236.727145 
L 343.604091 235.077747 
L 344.165195 246.075699 
L 344.726298 244.551277 
L 345.287402 255.33013 
L 345.848506 261.60199 
L 346.409609 277.838489 
L 346.970713 265.352433 
L 347.531816 268.036139 
L 348.09292 266.601097 
L 348.654024 277.007186 
L 349.215127 282.834304 
L 349.776231 267.508699 
L 350.337334 263.681968 
L 350.898438 264.954917 
L 351.459542 258.160542 
L 352.020645 249.1982 
L 353.142852 241.637161 
L 353.703956 242.59511 
L 354.26506 245.010779 
L 355.387267 253.151222 
L 355.94837 261.874259 
L 356.509474 251.927226 
L 357.070578 250.766257 
L 357.631681 248.727156 
L 358.192785 248.017228 
L 358.753888 266.295303 
L 359.314992 266.683183 
L 359.876096 262.297881 
L 360.437199 265.281928 
L 360.998303 258.56126 
L 361.559406 271.631346 
L 362.12051 267.95078 
L 362.681614 294.396025 
L 363.242717 279.096558 
L 363.803821 281.364903 
L 364.364924 290.405747 
L 364.926028 282.589791 
L 365.487132 257.499873 
L 366.048235 256.458959 
L 366.609339 262.378115 
L 367.170443 257.180087 
L 367.731546 254.167429 
L 368.29265 254.725489 
L 368.853753 249.903191 
L 369.414857 247.43224 
L 369.975961 247.13194 
L 370.537064 253.368221 
L 371.098168 266.640821 
L 371.659271 256.266523 
L 372.220375 272.049687 
L 372.781479 283.61725 
L 373.342582 272.083679 
L 373.903686 268.742854 
L 374.464789 272.582926 
L 375.025893 274.925463 
L 375.586997 283.928354 
L 376.1481 269.836534 
L 376.709204 273.128341 
L 377.270307 269.193079 
L 377.831411 275.134521 
L 378.392515 266.411587 
L 378.953618 250.564953 
L 379.514722 251.723571 
L 380.075825 239.353704 
L 380.636929 229.977874 
L 381.198033 237.456947 
L 381.759136 253.757096 
L 382.32024 257.459778 
L 382.881343 259.358847 
L 383.442447 264.751227 
L 384.003551 264.410255 
L 384.564654 270.798566 
L 385.125758 270.791797 
L 385.686861 275.161445 
L 386.247965 276.131475 
L 386.809069 284.268682 
L 387.370172 278.136045 
L 388.492379 294.38921 
L 389.614587 301.217334 
L 390.17569 297.756471 
L 390.736794 298.910724 
L 391.297897 299.113904 
L 392.420105 290.013889 
L 392.981208 284.118944 
L 393.542312 281.390303 
L 394.103416 276.534489 
L 394.664519 273.114015 
L 395.225623 275.732141 
L 395.786726 265.990662 
L 396.34783 266.768061 
L 396.908934 263.460564 
L 397.470037 263.300778 
L 398.031141 265.403122 
L 398.592244 264.989219 
L 399.153348 266.536874 
L 399.714452 270.929875 
L 400.275555 270.172404 
L 400.836659 271.059359 
L 401.397762 268.731899 
L 401.958866 267.737341 
L 402.51997 275.116035 
L 403.081073 270.18997 
L 403.642177 267.100282 
L 404.20328 264.955585 
L 404.764384 266.61546 
L 405.325488 265.850962 
L 405.325488 265.850962 
" clip-path="url(#p03768d9a6d)" style="fill: none; stroke: #ff0000; stroke-width: 1.5; stroke-linecap: square"/>
   </g>
   <g id="patch_18">
    <path d="M 250.376727 307.872 
L 250.376727 196.992 
" style="fill: none; stroke: #000000; stroke-width: 0.8; stroke-linejoin: miter; stroke-linecap: square"/>
   </g>
   <g id="patch_19">
    <path d="M 412.704 307.872 
L 412.704 196.992 
" style="fill: none; stroke: #000000; stroke-width: 0.8; stroke-linejoin: miter; stroke-linecap: square"/>
   </g>
   <g id="patch_20">
    <path d="M 250.376727 307.872 
L 412.704 307.872 
" style="fill: none; stroke: #000000; stroke-width: 0.8; stroke-linejoin: miter; stroke-linecap: square"/>
   </g>
   <g id="patch_21">
    <path d="M 250.376727 196.992 
L 412.704 196.992 
" style="fill: none; stroke: #000000; stroke-width: 0.8; stroke-linejoin: miter; stroke-linecap: square"/>
   </g>
   <g id="text_27">
    <!-- VRNN -->
    <g transform="translate(314.289426 190.992) scale(0.12 -0.12)">
     <use xlink:href="#DejaVuSans-56"/>
     <use xlink:href="#DejaVuSans-52" x="68.408203"/>
     <use xlink:href="#DejaVuSans-4e" x="137.890625"/>
     <use xlink:href="#DejaVuSans-4e" x="212.695312"/>
    </g>
   </g>
  </g>
  <g id="text_28">
   <!-- VMAF Scores Over Frames: Video #7 -->
   <g transform="translate(118.155563 16.318125) scale(0.12 -0.12)">
    <defs>
     <path id="DejaVuSans-4d" d="M 628 4666 
L 1569 4666 
L 2759 1491 
L 3956 4666 
L 4897 4666 
L 4897 0 
L 4281 0 
L 4281 4097 
L 3078 897 
L 2444 897 
L 1241 4097 
L 1241 0 
L 628 0 
L 628 4666 
z
" transform="scale(0.015625)"/>
     <path id="DejaVuSans-73" d="M 2834 3397 
L 2834 2853 
Q 2591 2978 2328 3040 
Q 2066 3103 1784 3103 
Q 1356 3103 1142 2972 
Q 928 2841 928 2578 
Q 928 2378 1081 2264 
Q 1234 2150 1697 2047 
L 1894 2003 
Q 2506 1872 2764 1633 
Q 3022 1394 3022 966 
Q 3022 478 2636 193 
Q 2250 -91 1575 -91 
Q 1294 -91 989 -36 
Q 684 19 347 128 
L 347 722 
Q 666 556 975 473 
Q 1284 391 1588 391 
Q 1994 391 2212 530 
Q 2431 669 2431 922 
Q 2431 1156 2273 1281 
Q 2116 1406 1581 1522 
L 1381 1569 
Q 847 1681 609 1914 
Q 372 2147 372 2553 
Q 372 3047 722 3315 
Q 1072 3584 1716 3584 
Q 2034 3584 2315 3537 
Q 2597 3491 2834 3397 
z
" transform="scale(0.015625)"/>
     <path id="DejaVuSans-76" d="M 191 3500 
L 800 3500 
L 1894 563 
L 2988 3500 
L 3597 3500 
L 2284 0 
L 1503 0 
L 191 3500 
z
" transform="scale(0.015625)"/>
     <path id="DejaVuSans-61" d="M 2194 1759 
Q 1497 1759 1228 1600 
Q 959 1441 959 1056 
Q 959 750 1161 570 
Q 1363 391 1709 391 
Q 2188 391 2477 730 
Q 2766 1069 2766 1631 
L 2766 1759 
L 2194 1759 
z
M 3341 1997 
L 3341 0 
L 2766 0 
L 2766 531 
Q 2569 213 2275 61 
Q 1981 -91 1556 -91 
Q 1019 -91 701 211 
Q 384 513 384 1019 
Q 384 1609 779 1909 
Q 1175 2209 1959 2209 
L 2766 2209 
L 2766 2266 
Q 2766 2663 2505 2880 
Q 2244 3097 1772 3097 
Q 1472 3097 1187 3025 
Q 903 2953 641 2809 
L 641 3341 
Q 956 3463 1253 3523 
Q 1550 3584 1831 3584 
Q 2591 3584 2966 3190 
Q 3341 2797 3341 1997 
z
" transform="scale(0.015625)"/>
     <path id="DejaVuSans-6d" d="M 3328 2828 
Q 3544 3216 3844 3400 
Q 4144 3584 4550 3584 
Q 5097 3584 5394 3201 
Q 5691 2819 5691 2113 
L 5691 0 
L 5113 0 
L 5113 2094 
Q 5113 2597 4934 2840 
Q 4756 3084 4391 3084 
Q 3944 3084 3684 2787 
Q 3425 2491 3425 1978 
L 3425 0 
L 2847 0 
L 2847 2094 
Q 2847 2600 2669 2842 
Q 2491 3084 2119 3084 
Q 1678 3084 1418 2786 
Q 1159 2488 1159 1978 
L 1159 0 
L 581 0 
L 581 3500 
L 1159 3500 
L 1159 2956 
Q 1356 3278 1631 3431 
Q 1906 3584 2284 3584 
Q 2666 3584 2933 3390 
Q 3200 3197 3328 2828 
z
" transform="scale(0.015625)"/>
     <path id="DejaVuSans-3a" d="M 750 794 
L 1409 794 
L 1409 0 
L 750 0 
L 750 794 
z
M 750 3309 
L 1409 3309 
L 1409 2516 
L 750 2516 
L 750 3309 
z
" transform="scale(0.015625)"/>
     <path id="DejaVuSans-23" d="M 3272 2816 
L 2363 2816 
L 2100 1772 
L 3016 1772 
L 3272 2816 
z
M 2803 4594 
L 2478 3297 
L 3391 3297 
L 3719 4594 
L 4219 4594 
L 3897 3297 
L 4872 3297 
L 4872 2816 
L 3775 2816 
L 3519 1772 
L 4513 1772 
L 4513 1294 
L 3397 1294 
L 3072 0 
L 2572 0 
L 2894 1294 
L 1978 1294 
L 1656 0 
L 1153 0 
L 1478 1294 
L 494 1294 
L 494 1772 
L 1594 1772 
L 1856 2816 
L 850 2816 
L 850 3297 
L 1978 3297 
L 2297 4594 
L 2803 4594 
z
" transform="scale(0.015625)"/>
     <path id="DejaVuSans-37" d="M 525 4666 
L 3525 4666 
L 3525 4397 
L 1831 0 
L 1172 0 
L 2766 4134 
L 525 4134 
L 525 4666 
z
" transform="scale(0.015625)"/>
    </defs>
    <use xlink:href="#DejaVuSans-56"/>
    <use xlink:href="#DejaVuSans-4d" x="68.408203"/>
    <use xlink:href="#DejaVuSans-41" x="154.6875"/>
    <use xlink:href="#DejaVuSans-46" x="223.095703"/>
    <use xlink:href="#DejaVuSans-20" x="280.615234"/>
    <use xlink:href="#DejaVuSans-53" x="312.402344"/>
    <use xlink:href="#DejaVuSans-63" x="375.878906"/>
    <use xlink:href="#DejaVuSans-6f" x="430.859375"/>
    <use xlink:href="#DejaVuSans-72" x="492.041016"/>
    <use xlink:href="#DejaVuSans-65" x="530.904297"/>
    <use xlink:href="#DejaVuSans-73" x="592.427734"/>
    <use xlink:href="#DejaVuSans-20" x="644.527344"/>
    <use xlink:href="#DejaVuSans-4f" x="676.314453"/>
    <use xlink:href="#DejaVuSans-76" x="755.025391"/>
    <use xlink:href="#DejaVuSans-65" x="814.205078"/>
    <use xlink:href="#DejaVuSans-72" x="875.728516"/>
    <use xlink:href="#DejaVuSans-20" x="916.841797"/>
    <use xlink:href="#DejaVuSans-46" x="948.628906"/>
    <use xlink:href="#DejaVuSans-72" x="998.898438"/>
    <use xlink:href="#DejaVuSans-61" x="1040.011719"/>
    <use xlink:href="#DejaVuSans-6d" x="1101.291016"/>
    <use xlink:href="#DejaVuSans-65" x="1198.703125"/>
    <use xlink:href="#DejaVuSans-73" x="1260.226562"/>
    <use xlink:href="#DejaVuSans-3a" x="1312.326172"/>
    <use xlink:href="#DejaVuSans-20" x="1346.017578"/>
    <use xlink:href="#DejaVuSans-56" x="1377.804688"/>
    <use xlink:href="#DejaVuSans-69" x="1443.962891"/>
    <use xlink:href="#DejaVuSans-64" x="1471.746094"/>
    <use xlink:href="#DejaVuSans-65" x="1535.222656"/>
    <use xlink:href="#DejaVuSans-6f" x="1596.746094"/>
    <use xlink:href="#DejaVuSans-20" x="1657.927734"/>
    <use xlink:href="#DejaVuSans-23" x="1689.714844"/>
    <use xlink:href="#DejaVuSans-37" x="1773.503906"/>
   </g>
  </g>
  <g id="text_29">
   <!-- Video Frames -->
   <g transform="translate(187.847438 339.936375) scale(0.12 -0.12)">
    <use xlink:href="#DejaVuSans-56"/>
    <use xlink:href="#DejaVuSans-69" x="66.158203"/>
    <use xlink:href="#DejaVuSans-64" x="93.941406"/>
    <use xlink:href="#DejaVuSans-65" x="157.417969"/>
    <use xlink:href="#DejaVuSans-6f" x="218.941406"/>
    <use xlink:href="#DejaVuSans-20" x="280.123047"/>
    <use xlink:href="#DejaVuSans-46" x="311.910156"/>
    <use xlink:href="#DejaVuSans-72" x="362.179688"/>
    <use xlink:href="#DejaVuSans-61" x="403.292969"/>
    <use xlink:href="#DejaVuSans-6d" x="464.572266"/>
    <use xlink:href="#DejaVuSans-65" x="561.984375"/>
    <use xlink:href="#DejaVuSans-73" x="623.507812"/>
   </g>
  </g>
  <g id="text_30">
   <!-- Raw VMAF Scores -->
   <g transform="translate(16.318125 226.284562) rotate(-90) scale(0.12 -0.12)">
    <defs>
     <path id="DejaVuSans-77" d="M 269 3500 
L 844 3500 
L 1563 769 
L 2278 3500 
L 2956 3500 
L 3675 769 
L 4391 3500 
L 4966 3500 
L 4050 0 
L 3372 0 
L 2619 2869 
L 1863 0 
L 1184 0 
L 269 3500 
z
" transform="scale(0.015625)"/>
    </defs>
    <use xlink:href="#DejaVuSans-52"/>
    <use xlink:href="#DejaVuSans-61" x="67.232422"/>
    <use xlink:href="#DejaVuSans-77" x="128.511719"/>
    <use xlink:href="#DejaVuSans-20" x="210.298828"/>
    <use xlink:href="#DejaVuSans-56" x="242.085938"/>
    <use xlink:href="#DejaVuSans-4d" x="310.494141"/>
    <use xlink:href="#DejaVuSans-41" x="396.773438"/>
    <use xlink:href="#DejaVuSans-46" x="465.181641"/>
    <use xlink:href="#DejaVuSans-20" x="522.701172"/>
    <use xlink:href="#DejaVuSans-53" x="554.488281"/>
    <use xlink:href="#DejaVuSans-63" x="617.964844"/>
    <use xlink:href="#DejaVuSans-6f" x="672.945312"/>
    <use xlink:href="#DejaVuSans-72" x="734.126953"/>
    <use xlink:href="#DejaVuSans-65" x="772.990234"/>
    <use xlink:href="#DejaVuSans-73" x="834.513672"/>
   </g>
  </g>
 </g>
 <defs>
  <clipPath id="p8bb0772c90">
   <rect x="55.584" y="41.76" width="162.327273" height="110.88"/>
  </clipPath>
  <clipPath id="p22a1d3e0ff">
   <rect x="250.376727" y="41.76" width="162.327273" height="110.88"/>
  </clipPath>
  <clipPath id="p21722128c2">
   <rect x="55.584" y="196.992" width="162.327273" height="110.88"/>
  </clipPath>
  <clipPath id="p03768d9a6d">
   <rect x="250.376727" y="196.992" width="162.327273" height="110.88"/>
  </clipPath>
 </defs>
</svg>
