<?xml version="1.0" encoding="utf-8" standalone="no"?>
<!DOCTYPE svg PUBLIC "-//W3C//DTD SVG 1.1//EN"
  "http://www.w3.org/Graphics/SVG/1.1/DTD/svg11.dtd">
<svg xmlns:xlink="http://www.w3.org/1999/xlink" width="428.753604pt" height="349.632pt" viewBox="0 0 428.753604 349.632" xmlns="http://www.w3.org/2000/svg" version="1.1">
 <metadata>
  <rdf:RDF xmlns:dc="http://purl.org/dc/elements/1.1/" xmlns:cc="http://creativecommons.org/ns#" xmlns:rdf="http://www.w3.org/1999/02/22-rdf-syntax-ns#">
   <cc:Work>
    <dc:type rdf:resource="http://purl.org/dc/dcmitype/StillImage"/>
    <dc:date>2024-07-24T16:31:56.351117</dc:date>
    <dc:format>image/svg+xml</dc:format>
    <dc:creator>
     <cc:Agent>
      <dc:title>Matplotlib v3.7.2, https://matplotlib.org/</dc:title>
     </cc:Agent>
    </dc:creator>
   </cc:Work>
  </rdf:RDF>
 </metadata>
 <defs>
  <style type="text/css">*{stroke-linejoin: round; stroke-linecap: butt}</style>
 </defs>
 <g id="figure_1">
  <g id="patch_1">
   <path d="M 0 349.632 
L 428.753604 349.632 
L 428.753604 -0 
L 0 -0 
z
" style="fill: #ffffff"/>
  </g>
  <g id="axes_1">
   <g id="patch_2">
    <path d="M 55.584 152.64 
L 217.911273 152.64 
L 217.911273 41.76 
L 55.584 41.76 
z
" style="fill: #ffffff"/>
   </g>
   <g id="matplotlib.axis_1">
    <g id="xtick_1">
     <g id="line2d_1">
      <defs>
       <path id="m7d4589219a" d="M 0 0 
L 0 3.5 
" style="stroke: #000000; stroke-width: 0.8"/>
      </defs>
      <g>
       <use xlink:href="#m7d4589219a" x="62.962512" y="152.64" style="stroke: #000000; stroke-width: 0.8"/>
      </g>
     </g>
     <g id="text_1">
      <!-- 0 -->
      <g transform="translate(59.781262 167.238437) scale(0.1 -0.1)">
       <defs>
        <path id="DejaVuSans-30" d="M 2034 4250 
Q 1547 4250 1301 3770 
Q 1056 3291 1056 2328 
Q 1056 1369 1301 889 
Q 1547 409 2034 409 
Q 2525 409 2770 889 
Q 3016 1369 3016 2328 
Q 3016 3291 2770 3770 
Q 2525 4250 2034 4250 
z
M 2034 4750 
Q 2819 4750 3233 4129 
Q 3647 3509 3647 2328 
Q 3647 1150 3233 529 
Q 2819 -91 2034 -91 
Q 1250 -91 836 529 
Q 422 1150 422 2328 
Q 422 3509 836 4129 
Q 1250 4750 2034 4750 
z
" transform="scale(0.015625)"/>
       </defs>
       <use xlink:href="#DejaVuSans-30"/>
      </g>
     </g>
    </g>
    <g id="xtick_2">
     <g id="line2d_2">
      <g>
       <use xlink:href="#m7d4589219a" x="114.380717" y="152.64" style="stroke: #000000; stroke-width: 0.8"/>
      </g>
     </g>
     <g id="text_2">
      <!-- 100 -->
      <g transform="translate(104.836967 167.238437) scale(0.1 -0.1)">
       <defs>
        <path id="DejaVuSans-31" d="M 794 531 
L 1825 531 
L 1825 4091 
L 703 3866 
L 703 4441 
L 1819 4666 
L 2450 4666 
L 2450 531 
L 3481 531 
L 3481 0 
L 794 0 
L 794 531 
z
" transform="scale(0.015625)"/>
       </defs>
       <use xlink:href="#DejaVuSans-31"/>
       <use xlink:href="#DejaVuSans-30" x="63.623047"/>
       <use xlink:href="#DejaVuSans-30" x="127.246094"/>
      </g>
     </g>
    </g>
    <g id="xtick_3">
     <g id="line2d_3">
      <g>
       <use xlink:href="#m7d4589219a" x="165.798922" y="152.64" style="stroke: #000000; stroke-width: 0.8"/>
      </g>
     </g>
     <g id="text_3">
      <!-- 200 -->
      <g transform="translate(156.255172 167.238437) scale(0.1 -0.1)">
       <defs>
        <path id="DejaVuSans-32" d="M 1228 531 
L 3431 531 
L 3431 0 
L 469 0 
L 469 531 
Q 828 903 1448 1529 
Q 2069 2156 2228 2338 
Q 2531 2678 2651 2914 
Q 2772 3150 2772 3378 
Q 2772 3750 2511 3984 
Q 2250 4219 1831 4219 
Q 1534 4219 1204 4116 
Q 875 4013 500 3803 
L 500 4441 
Q 881 4594 1212 4672 
Q 1544 4750 1819 4750 
Q 2544 4750 2975 4387 
Q 3406 4025 3406 3419 
Q 3406 3131 3298 2873 
Q 3191 2616 2906 2266 
Q 2828 2175 2409 1742 
Q 1991 1309 1228 531 
z
" transform="scale(0.015625)"/>
       </defs>
       <use xlink:href="#DejaVuSans-32"/>
       <use xlink:href="#DejaVuSans-30" x="63.623047"/>
       <use xlink:href="#DejaVuSans-30" x="127.246094"/>
      </g>
     </g>
    </g>
    <g id="xtick_4">
     <g id="line2d_4">
      <g>
       <use xlink:href="#m7d4589219a" x="217.217127" y="152.64" style="stroke: #000000; stroke-width: 0.8"/>
      </g>
     </g>
     <g id="text_4">
      <!-- 300 -->
      <g transform="translate(207.673377 167.238437) scale(0.1 -0.1)">
       <defs>
        <path id="DejaVuSans-33" d="M 2597 2516 
Q 3050 2419 3304 2112 
Q 3559 1806 3559 1356 
Q 3559 666 3084 287 
Q 2609 -91 1734 -91 
Q 1441 -91 1130 -33 
Q 819 25 488 141 
L 488 750 
Q 750 597 1062 519 
Q 1375 441 1716 441 
Q 2309 441 2620 675 
Q 2931 909 2931 1356 
Q 2931 1769 2642 2001 
Q 2353 2234 1838 2234 
L 1294 2234 
L 1294 2753 
L 1863 2753 
Q 2328 2753 2575 2939 
Q 2822 3125 2822 3475 
Q 2822 3834 2567 4026 
Q 2313 4219 1838 4219 
Q 1578 4219 1281 4162 
Q 984 4106 628 3988 
L 628 4550 
Q 988 4650 1302 4700 
Q 1616 4750 1894 4750 
Q 2613 4750 3031 4423 
Q 3450 4097 3450 3541 
Q 3450 3153 3228 2886 
Q 3006 2619 2597 2516 
z
" transform="scale(0.015625)"/>
       </defs>
       <use xlink:href="#DejaVuSans-33"/>
       <use xlink:href="#DejaVuSans-30" x="63.623047"/>
       <use xlink:href="#DejaVuSans-30" x="127.246094"/>
      </g>
     </g>
    </g>
   </g>
   <g id="matplotlib.axis_2">
    <g id="ytick_1">
     <g id="line2d_5">
      <defs>
       <path id="m946776f4b3" d="M 0 0 
L -3.5 0 
" style="stroke: #000000; stroke-width: 0.8"/>
      </defs>
      <g>
       <use xlink:href="#m946776f4b3" x="55.584" y="147.6" style="stroke: #000000; stroke-width: 0.8"/>
      </g>
     </g>
     <g id="text_5">
      <!-- 0 -->
      <g transform="translate(42.2215 151.399219) scale(0.1 -0.1)">
       <use xlink:href="#DejaVuSans-30"/>
      </g>
     </g>
    </g>
    <g id="ytick_2">
     <g id="line2d_6">
      <g>
       <use xlink:href="#m946776f4b3" x="55.584" y="124.515147" style="stroke: #000000; stroke-width: 0.8"/>
      </g>
     </g>
     <g id="text_6">
      <!-- 10 -->
      <g transform="translate(35.859 128.314366) scale(0.1 -0.1)">
       <use xlink:href="#DejaVuSans-31"/>
       <use xlink:href="#DejaVuSans-30" x="63.623047"/>
      </g>
     </g>
    </g>
    <g id="ytick_3">
     <g id="line2d_7">
      <g>
       <use xlink:href="#m946776f4b3" x="55.584" y="101.430294" style="stroke: #000000; stroke-width: 0.8"/>
      </g>
     </g>
     <g id="text_7">
      <!-- 20 -->
      <g transform="translate(35.859 105.229512) scale(0.1 -0.1)">
       <use xlink:href="#DejaVuSans-32"/>
       <use xlink:href="#DejaVuSans-30" x="63.623047"/>
      </g>
     </g>
    </g>
    <g id="ytick_4">
     <g id="line2d_8">
      <g>
       <use xlink:href="#m946776f4b3" x="55.584" y="78.34544" style="stroke: #000000; stroke-width: 0.8"/>
      </g>
     </g>
     <g id="text_8">
      <!-- 30 -->
      <g transform="translate(35.859 82.144659) scale(0.1 -0.1)">
       <use xlink:href="#DejaVuSans-33"/>
       <use xlink:href="#DejaVuSans-30" x="63.623047"/>
      </g>
     </g>
    </g>
    <g id="ytick_5">
     <g id="line2d_9">
      <g>
       <use xlink:href="#m946776f4b3" x="55.584" y="55.260587" style="stroke: #000000; stroke-width: 0.8"/>
      </g>
     </g>
     <g id="text_9">
      <!-- 40 -->
      <g transform="translate(35.859 59.059806) scale(0.1 -0.1)">
       <defs>
        <path id="DejaVuSans-34" d="M 2419 4116 
L 825 1625 
L 2419 1625 
L 2419 4116 
z
M 2253 4666 
L 3047 4666 
L 3047 1625 
L 3713 1625 
L 3713 1100 
L 3047 1100 
L 3047 0 
L 2419 0 
L 2419 1100 
L 313 1100 
L 313 1709 
L 2253 4666 
z
" transform="scale(0.015625)"/>
       </defs>
       <use xlink:href="#DejaVuSans-34"/>
       <use xlink:href="#DejaVuSans-30" x="63.623047"/>
      </g>
     </g>
    </g>
   </g>
   <g id="line2d_10">
    <path d="M 62.962512 46.8 
L 63.476694 50.20027 
L 63.990876 56.011484 
L 64.505059 65.690735 
L 65.019241 71.427455 
L 65.533423 83.092173 
L 66.561787 89.557947 
L 67.075969 98.744195 
L 67.590151 100.703451 
L 68.104333 106.429517 
L 68.618515 110.146356 
L 69.132697 112.251083 
L 69.646879 110.489646 
L 70.675243 115.39343 
L 71.189425 116.611634 
L 71.703607 111.844806 
L 72.217789 108.868605 
L 72.731971 113.533029 
L 73.246153 114.182791 
L 73.760335 112.859651 
L 74.274517 114.454057 
L 75.302882 115.696377 
L 75.817064 111.618334 
L 76.331246 113.154038 
L 76.845428 108.360789 
L 77.35961 106.04958 
L 77.873792 102.538163 
L 78.387974 102.405135 
L 78.902156 103.678343 
L 79.416338 103.726761 
L 79.93052 102.241156 
L 80.444702 102.659747 
L 81.473066 101.745189 
L 81.987248 100.965729 
L 82.50143 99.085011 
L 83.015612 98.842274 
L 83.529794 94.788283 
L 84.043976 101.777504 
L 84.558158 87.643377 
L 85.07234 88.169008 
L 85.586523 89.731869 
L 86.100705 91.937954 
L 86.614887 82.433061 
L 87.129069 67.039756 
L 87.643251 63.461306 
L 88.157433 62.720811 
L 89.699979 87.34441 
L 90.214161 91.883746 
L 90.728343 92.13012 
L 91.242525 92.789795 
L 91.756707 91.322009 
L 92.270889 89.292356 
L 92.785071 87.97917 
L 93.299253 87.632659 
L 93.813435 91.156906 
L 94.327617 89.020525 
L 94.841799 85.379231 
L 95.355981 95.362636 
L 95.870164 95.587903 
L 96.384346 94.513266 
L 96.898528 87.198472 
L 97.41271 81.527572 
L 97.926892 77.41914 
L 98.441074 79.156605 
L 98.955256 76.536899 
L 99.469438 79.402473 
L 99.98362 71.023149 
L 100.497802 70.054825 
L 101.011984 70.707567 
L 101.526166 72.456337 
L 102.040348 72.163425 
L 102.55453 72.88603 
L 103.068712 77.09817 
L 103.582894 77.971173 
L 104.097076 82.411454 
L 104.611258 90.706735 
L 105.12544 89.188968 
L 105.639622 90.064076 
L 106.153804 93.443876 
L 106.667987 83.851667 
L 107.182169 77.110802 
L 107.696351 74.358598 
L 108.210533 81.859036 
L 108.724715 87.231197 
L 109.238897 91.191349 
L 109.753079 89.197461 
L 110.267261 88.074351 
L 110.781443 86.110502 
L 111.295625 80.303853 
L 111.809807 81.350624 
L 112.323989 85.020266 
L 112.838171 81.378481 
L 113.352353 84.62353 
L 113.866535 95.421182 
L 114.380717 90.273082 
L 114.894899 90.165174 
L 115.409081 91.941133 
L 115.923263 94.912114 
L 116.437445 93.631558 
L 117.46581 101.809058 
L 117.979992 101.08346 
L 118.494174 104.378188 
L 119.008356 104.583721 
L 119.522538 105.909658 
L 120.03672 105.797855 
L 120.550902 111.321943 
L 121.065084 112.494845 
L 121.579266 111.797346 
L 122.60763 120.840899 
L 123.121812 120.834876 
L 124.150176 110.699162 
L 124.664358 109.166483 
L 125.17854 116.352673 
L 125.692722 116.8477 
L 126.206904 117.760953 
L 126.721086 119.137821 
L 127.235268 127.303379 
L 127.749451 128.45351 
L 128.263633 126.575673 
L 128.777815 126.61636 
L 129.291997 128.893148 
L 129.806179 125.109256 
L 130.320361 127.837089 
L 131.348725 121.717932 
L 131.862907 119.470188 
L 132.377089 123.814979 
L 132.891271 133.531382 
L 133.405453 128.490829 
L 133.919635 133.637978 
L 134.433817 136.257507 
L 134.947999 129.146328 
L 135.462181 124.304809 
L 136.490545 120.82194 
L 137.004727 119.375692 
L 137.518909 112.451937 
L 138.033091 116.868095 
L 139.061456 109.295423 
L 139.575638 116.387963 
L 140.604002 104.105955 
L 141.118184 114.52294 
L 141.632366 113.598447 
L 142.146548 109.326728 
L 142.66073 110.409678 
L 143.174912 118.73334 
L 143.689094 113.49146 
L 144.203276 112.572131 
L 144.717458 116.227073 
L 145.23164 117.568767 
L 145.745822 121.092598 
L 146.774186 110.614817 
L 147.288368 111.46274 
L 147.80255 115.652133 
L 148.316732 112.909957 
L 148.830915 114.967748 
L 149.345097 119.299858 
L 149.859279 116.059329 
L 150.887643 107.588972 
L 151.401825 113.403098 
L 151.916007 109.969055 
L 152.430189 114.572341 
L 152.944371 113.459483 
L 153.458553 116.399016 
L 153.972735 114.665627 
L 154.486917 111.597888 
L 155.515281 120.926142 
L 156.029463 121.82268 
L 156.543645 124.331207 
L 157.057827 127.832366 
L 157.572009 126.449951 
L 158.600373 121.89786 
L 159.114555 117.93953 
L 159.628738 118.437851 
L 160.14292 116.977924 
L 160.657102 116.256628 
L 161.171284 114.165531 
L 161.685466 118.627824 
L 162.199648 121.117851 
L 162.71383 124.280342 
L 163.228012 126.086124 
L 163.742194 129.986693 
L 164.256376 123.473344 
L 164.770558 122.439082 
L 165.28474 126.572252 
L 165.798922 118.738079 
L 166.313104 118.379313 
L 166.827286 122.313851 
L 167.341468 120.173719 
L 167.85565 125.909809 
L 168.369832 121.40878 
L 168.884014 126.305384 
L 169.398196 135.84616 
L 169.912378 142.365009 
L 170.426561 146.800114 
L 170.940743 147.6 
L 171.969107 147.6 
L 172.997471 139.968503 
L 173.511653 142.34188 
L 174.540017 137.021475 
L 175.054199 137.028617 
L 175.568381 132.443229 
L 176.082563 133.42524 
L 176.596745 131.042724 
L 177.110927 124.345191 
L 177.625109 124.805965 
L 178.139291 127.681144 
L 178.653473 126.423015 
L 179.681837 130.176278 
L 180.196019 128.589242 
L 180.710202 130.963942 
L 181.224384 132.358023 
L 181.738566 131.862407 
L 182.252748 128.911182 
L 182.76693 120.917989 
L 183.281112 115.082867 
L 183.795294 114.073445 
L 184.309476 101.584609 
L 184.823658 101.409152 
L 185.33784 108.050969 
L 185.852022 103.412463 
L 186.366204 106.49041 
L 186.880386 110.343859 
L 187.394568 121.270432 
L 187.90875 119.383322 
L 188.937114 122.785784 
L 189.451296 121.499222 
L 189.965478 117.741578 
L 190.47966 116.299642 
L 190.993842 116.815021 
L 191.508025 118.526922 
L 192.536389 114.902577 
L 193.050571 118.713699 
L 193.564753 119.574249 
L 194.078935 111.965927 
L 194.593117 111.149188 
L 195.107299 106.502043 
L 195.621481 113.221319 
L 196.135663 111.00313 
L 196.649845 99.594256 
L 197.164027 99.275149 
L 197.678209 94.562732 
L 198.192391 81.534463 
L 198.706573 89.783016 
L 199.220755 85.978032 
L 199.734937 87.646025 
L 200.249119 94.418699 
L 200.763301 91.06884 
L 201.277483 99.239795 
L 201.791666 100.534876 
L 202.305848 92.702906 
L 202.82003 92.168616 
L 203.334212 103.95263 
L 203.848394 105.825269 
L 204.362576 93.724895 
L 204.876758 94.160485 
L 205.39094 101.112147 
L 205.905122 113.662597 
L 206.419304 118.857922 
L 206.933486 126.13921 
L 207.447668 127.119965 
L 208.476032 123.85841 
L 208.990214 119.615479 
L 209.504396 113.075935 
L 210.018578 111.584254 
L 210.53276 117.790548 
L 210.53276 117.790548 
" clip-path="url(#pe5907146b7)" style="fill: none; stroke: #008000; stroke-width: 1.5; stroke-linecap: square"/>
   </g>
   <g id="patch_3">
    <path d="M 55.584 152.64 
L 55.584 41.76 
" style="fill: none; stroke: #000000; stroke-width: 0.8; stroke-linejoin: miter; stroke-linecap: square"/>
   </g>
   <g id="patch_4">
    <path d="M 217.911273 152.64 
L 217.911273 41.76 
" style="fill: none; stroke: #000000; stroke-width: 0.8; stroke-linejoin: miter; stroke-linecap: square"/>
   </g>
   <g id="patch_5">
    <path d="M 55.584 152.64 
L 217.911273 152.64 
" style="fill: none; stroke: #000000; stroke-width: 0.8; stroke-linejoin: miter; stroke-linecap: square"/>
   </g>
   <g id="patch_6">
    <path d="M 55.584 41.76 
L 217.911273 41.76 
" style="fill: none; stroke: #000000; stroke-width: 0.8; stroke-linejoin: miter; stroke-linecap: square"/>
   </g>
   <g id="text_10">
    <!-- No Prediction (FOSS) -->
    <g transform="translate(74.495761 35.76) scale(0.12 -0.12)">
     <defs>
      <path id="DejaVuSans-4e" d="M 628 4666 
L 1478 4666 
L 3547 763 
L 3547 4666 
L 4159 4666 
L 4159 0 
L 3309 0 
L 1241 3903 
L 1241 0 
L 628 0 
L 628 4666 
z
" transform="scale(0.015625)"/>
      <path id="DejaVuSans-6f" d="M 1959 3097 
Q 1497 3097 1228 2736 
Q 959 2375 959 1747 
Q 959 1119 1226 758 
Q 1494 397 1959 397 
Q 2419 397 2687 759 
Q 2956 1122 2956 1747 
Q 2956 2369 2687 2733 
Q 2419 3097 1959 3097 
z
M 1959 3584 
Q 2709 3584 3137 3096 
Q 3566 2609 3566 1747 
Q 3566 888 3137 398 
Q 2709 -91 1959 -91 
Q 1206 -91 779 398 
Q 353 888 353 1747 
Q 353 2609 779 3096 
Q 1206 3584 1959 3584 
z
" transform="scale(0.015625)"/>
      <path id="DejaVuSans-20" transform="scale(0.015625)"/>
      <path id="DejaVuSans-50" d="M 1259 4147 
L 1259 2394 
L 2053 2394 
Q 2494 2394 2734 2622 
Q 2975 2850 2975 3272 
Q 2975 3691 2734 3919 
Q 2494 4147 2053 4147 
L 1259 4147 
z
M 628 4666 
L 2053 4666 
Q 2838 4666 3239 4311 
Q 3641 3956 3641 3272 
Q 3641 2581 3239 2228 
Q 2838 1875 2053 1875 
L 1259 1875 
L 1259 0 
L 628 0 
L 628 4666 
z
" transform="scale(0.015625)"/>
      <path id="DejaVuSans-72" d="M 2631 2963 
Q 2534 3019 2420 3045 
Q 2306 3072 2169 3072 
Q 1681 3072 1420 2755 
Q 1159 2438 1159 1844 
L 1159 0 
L 581 0 
L 581 3500 
L 1159 3500 
L 1159 2956 
Q 1341 3275 1631 3429 
Q 1922 3584 2338 3584 
Q 2397 3584 2469 3576 
Q 2541 3569 2628 3553 
L 2631 2963 
z
" transform="scale(0.015625)"/>
      <path id="DejaVuSans-65" d="M 3597 1894 
L 3597 1613 
L 953 1613 
Q 991 1019 1311 708 
Q 1631 397 2203 397 
Q 2534 397 2845 478 
Q 3156 559 3463 722 
L 3463 178 
Q 3153 47 2828 -22 
Q 2503 -91 2169 -91 
Q 1331 -91 842 396 
Q 353 884 353 1716 
Q 353 2575 817 3079 
Q 1281 3584 2069 3584 
Q 2775 3584 3186 3129 
Q 3597 2675 3597 1894 
z
M 3022 2063 
Q 3016 2534 2758 2815 
Q 2500 3097 2075 3097 
Q 1594 3097 1305 2825 
Q 1016 2553 972 2059 
L 3022 2063 
z
" transform="scale(0.015625)"/>
      <path id="DejaVuSans-64" d="M 2906 2969 
L 2906 4863 
L 3481 4863 
L 3481 0 
L 2906 0 
L 2906 525 
Q 2725 213 2448 61 
Q 2172 -91 1784 -91 
Q 1150 -91 751 415 
Q 353 922 353 1747 
Q 353 2572 751 3078 
Q 1150 3584 1784 3584 
Q 2172 3584 2448 3432 
Q 2725 3281 2906 2969 
z
M 947 1747 
Q 947 1113 1208 752 
Q 1469 391 1925 391 
Q 2381 391 2643 752 
Q 2906 1113 2906 1747 
Q 2906 2381 2643 2742 
Q 2381 3103 1925 3103 
Q 1469 3103 1208 2742 
Q 947 2381 947 1747 
z
" transform="scale(0.015625)"/>
      <path id="DejaVuSans-69" d="M 603 3500 
L 1178 3500 
L 1178 0 
L 603 0 
L 603 3500 
z
M 603 4863 
L 1178 4863 
L 1178 4134 
L 603 4134 
L 603 4863 
z
" transform="scale(0.015625)"/>
      <path id="DejaVuSans-63" d="M 3122 3366 
L 3122 2828 
Q 2878 2963 2633 3030 
Q 2388 3097 2138 3097 
Q 1578 3097 1268 2742 
Q 959 2388 959 1747 
Q 959 1106 1268 751 
Q 1578 397 2138 397 
Q 2388 397 2633 464 
Q 2878 531 3122 666 
L 3122 134 
Q 2881 22 2623 -34 
Q 2366 -91 2075 -91 
Q 1284 -91 818 406 
Q 353 903 353 1747 
Q 353 2603 823 3093 
Q 1294 3584 2113 3584 
Q 2378 3584 2631 3529 
Q 2884 3475 3122 3366 
z
" transform="scale(0.015625)"/>
      <path id="DejaVuSans-74" d="M 1172 4494 
L 1172 3500 
L 2356 3500 
L 2356 3053 
L 1172 3053 
L 1172 1153 
Q 1172 725 1289 603 
Q 1406 481 1766 481 
L 2356 481 
L 2356 0 
L 1766 0 
Q 1100 0 847 248 
Q 594 497 594 1153 
L 594 3053 
L 172 3053 
L 172 3500 
L 594 3500 
L 594 4494 
L 1172 4494 
z
" transform="scale(0.015625)"/>
      <path id="DejaVuSans-6e" d="M 3513 2113 
L 3513 0 
L 2938 0 
L 2938 2094 
Q 2938 2591 2744 2837 
Q 2550 3084 2163 3084 
Q 1697 3084 1428 2787 
Q 1159 2491 1159 1978 
L 1159 0 
L 581 0 
L 581 3500 
L 1159 3500 
L 1159 2956 
Q 1366 3272 1645 3428 
Q 1925 3584 2291 3584 
Q 2894 3584 3203 3211 
Q 3513 2838 3513 2113 
z
" transform="scale(0.015625)"/>
      <path id="DejaVuSans-28" d="M 1984 4856 
Q 1566 4138 1362 3434 
Q 1159 2731 1159 2009 
Q 1159 1288 1364 580 
Q 1569 -128 1984 -844 
L 1484 -844 
Q 1016 -109 783 600 
Q 550 1309 550 2009 
Q 550 2706 781 3412 
Q 1013 4119 1484 4856 
L 1984 4856 
z
" transform="scale(0.015625)"/>
      <path id="DejaVuSans-46" d="M 628 4666 
L 3309 4666 
L 3309 4134 
L 1259 4134 
L 1259 2759 
L 3109 2759 
L 3109 2228 
L 1259 2228 
L 1259 0 
L 628 0 
L 628 4666 
z
" transform="scale(0.015625)"/>
      <path id="DejaVuSans-4f" d="M 2522 4238 
Q 1834 4238 1429 3725 
Q 1025 3213 1025 2328 
Q 1025 1447 1429 934 
Q 1834 422 2522 422 
Q 3209 422 3611 934 
Q 4013 1447 4013 2328 
Q 4013 3213 3611 3725 
Q 3209 4238 2522 4238 
z
M 2522 4750 
Q 3503 4750 4090 4092 
Q 4678 3434 4678 2328 
Q 4678 1225 4090 567 
Q 3503 -91 2522 -91 
Q 1538 -91 948 565 
Q 359 1222 359 2328 
Q 359 3434 948 4092 
Q 1538 4750 2522 4750 
z
" transform="scale(0.015625)"/>
      <path id="DejaVuSans-53" d="M 3425 4513 
L 3425 3897 
Q 3066 4069 2747 4153 
Q 2428 4238 2131 4238 
Q 1616 4238 1336 4038 
Q 1056 3838 1056 3469 
Q 1056 3159 1242 3001 
Q 1428 2844 1947 2747 
L 2328 2669 
Q 3034 2534 3370 2195 
Q 3706 1856 3706 1288 
Q 3706 609 3251 259 
Q 2797 -91 1919 -91 
Q 1588 -91 1214 -16 
Q 841 59 441 206 
L 441 856 
Q 825 641 1194 531 
Q 1563 422 1919 422 
Q 2459 422 2753 634 
Q 3047 847 3047 1241 
Q 3047 1584 2836 1778 
Q 2625 1972 2144 2069 
L 1759 2144 
Q 1053 2284 737 2584 
Q 422 2884 422 3419 
Q 422 4038 858 4394 
Q 1294 4750 2059 4750 
Q 2388 4750 2728 4690 
Q 3069 4631 3425 4513 
z
" transform="scale(0.015625)"/>
      <path id="DejaVuSans-29" d="M 513 4856 
L 1013 4856 
Q 1481 4119 1714 3412 
Q 1947 2706 1947 2009 
Q 1947 1309 1714 600 
Q 1481 -109 1013 -844 
L 513 -844 
Q 928 -128 1133 580 
Q 1338 1288 1338 2009 
Q 1338 2731 1133 3434 
Q 928 4138 513 4856 
z
" transform="scale(0.015625)"/>
     </defs>
     <use xlink:href="#DejaVuSans-4e"/>
     <use xlink:href="#DejaVuSans-6f" x="74.804688"/>
     <use xlink:href="#DejaVuSans-20" x="135.986328"/>
     <use xlink:href="#DejaVuSans-50" x="167.773438"/>
     <use xlink:href="#DejaVuSans-72" x="226.326172"/>
     <use xlink:href="#DejaVuSans-65" x="265.189453"/>
     <use xlink:href="#DejaVuSans-64" x="326.712891"/>
     <use xlink:href="#DejaVuSans-69" x="390.189453"/>
     <use xlink:href="#DejaVuSans-63" x="417.972656"/>
     <use xlink:href="#DejaVuSans-74" x="472.953125"/>
     <use xlink:href="#DejaVuSans-69" x="512.162109"/>
     <use xlink:href="#DejaVuSans-6f" x="539.945312"/>
     <use xlink:href="#DejaVuSans-6e" x="601.126953"/>
     <use xlink:href="#DejaVuSans-20" x="664.505859"/>
     <use xlink:href="#DejaVuSans-28" x="696.292969"/>
     <use xlink:href="#DejaVuSans-46" x="735.306641"/>
     <use xlink:href="#DejaVuSans-4f" x="792.826172"/>
     <use xlink:href="#DejaVuSans-53" x="871.537109"/>
     <use xlink:href="#DejaVuSans-53" x="935.013672"/>
     <use xlink:href="#DejaVuSans-29" x="998.490234"/>
    </g>
   </g>
  </g>
  <g id="axes_2">
   <g id="patch_7">
    <path d="M 250.376727 152.64 
L 412.704 152.64 
L 412.704 41.76 
L 250.376727 41.76 
z
" style="fill: #ffffff"/>
   </g>
   <g id="matplotlib.axis_3">
    <g id="xtick_5">
     <g id="line2d_11">
      <g>
       <use xlink:href="#m7d4589219a" x="257.75524" y="152.64" style="stroke: #000000; stroke-width: 0.8"/>
      </g>
     </g>
     <g id="text_11">
      <!-- 0 -->
      <g transform="translate(254.57399 167.238437) scale(0.1 -0.1)">
       <use xlink:href="#DejaVuSans-30"/>
      </g>
     </g>
    </g>
    <g id="xtick_6">
     <g id="line2d_12">
      <g>
       <use xlink:href="#m7d4589219a" x="309.173445" y="152.64" style="stroke: #000000; stroke-width: 0.8"/>
      </g>
     </g>
     <g id="text_12">
      <!-- 100 -->
      <g transform="translate(299.629695 167.238437) scale(0.1 -0.1)">
       <use xlink:href="#DejaVuSans-31"/>
       <use xlink:href="#DejaVuSans-30" x="63.623047"/>
       <use xlink:href="#DejaVuSans-30" x="127.246094"/>
      </g>
     </g>
    </g>
    <g id="xtick_7">
     <g id="line2d_13">
      <g>
       <use xlink:href="#m7d4589219a" x="360.591649" y="152.64" style="stroke: #000000; stroke-width: 0.8"/>
      </g>
     </g>
     <g id="text_13">
      <!-- 200 -->
      <g transform="translate(351.047899 167.238437) scale(0.1 -0.1)">
       <use xlink:href="#DejaVuSans-32"/>
       <use xlink:href="#DejaVuSans-30" x="63.623047"/>
       <use xlink:href="#DejaVuSans-30" x="127.246094"/>
      </g>
     </g>
    </g>
    <g id="xtick_8">
     <g id="line2d_14">
      <g>
       <use xlink:href="#m7d4589219a" x="412.009854" y="152.64" style="stroke: #000000; stroke-width: 0.8"/>
      </g>
     </g>
     <g id="text_14">
      <!-- 300 -->
      <g transform="translate(402.466104 167.238437) scale(0.1 -0.1)">
       <use xlink:href="#DejaVuSans-33"/>
       <use xlink:href="#DejaVuSans-30" x="63.623047"/>
       <use xlink:href="#DejaVuSans-30" x="127.246094"/>
      </g>
     </g>
    </g>
   </g>
   <g id="matplotlib.axis_4">
    <g id="ytick_6">
     <g id="line2d_15">
      <g>
       <use xlink:href="#m946776f4b3" x="250.376727" y="147.6" style="stroke: #000000; stroke-width: 0.8"/>
      </g>
     </g>
     <g id="text_15">
      <!-- 0 -->
      <g transform="translate(237.014227 151.399219) scale(0.1 -0.1)">
       <use xlink:href="#DejaVuSans-30"/>
      </g>
     </g>
    </g>
    <g id="ytick_7">
     <g id="line2d_16">
      <g>
       <use xlink:href="#m946776f4b3" x="250.376727" y="124.52164" style="stroke: #000000; stroke-width: 0.8"/>
      </g>
     </g>
     <g id="text_16">
      <!-- 10 -->
      <g transform="translate(230.651727 128.320859) scale(0.1 -0.1)">
       <use xlink:href="#DejaVuSans-31"/>
       <use xlink:href="#DejaVuSans-30" x="63.623047"/>
      </g>
     </g>
    </g>
    <g id="ytick_8">
     <g id="line2d_17">
      <g>
       <use xlink:href="#m946776f4b3" x="250.376727" y="101.44328" style="stroke: #000000; stroke-width: 0.8"/>
      </g>
     </g>
     <g id="text_17">
      <!-- 20 -->
      <g transform="translate(230.651727 105.242498) scale(0.1 -0.1)">
       <use xlink:href="#DejaVuSans-32"/>
       <use xlink:href="#DejaVuSans-30" x="63.623047"/>
      </g>
     </g>
    </g>
    <g id="ytick_9">
     <g id="line2d_18">
      <g>
       <use xlink:href="#m946776f4b3" x="250.376727" y="78.364919" style="stroke: #000000; stroke-width: 0.8"/>
      </g>
     </g>
     <g id="text_18">
      <!-- 30 -->
      <g transform="translate(230.651727 82.164138) scale(0.1 -0.1)">
       <use xlink:href="#DejaVuSans-33"/>
       <use xlink:href="#DejaVuSans-30" x="63.623047"/>
      </g>
     </g>
    </g>
    <g id="ytick_10">
     <g id="line2d_19">
      <g>
       <use xlink:href="#m946776f4b3" x="250.376727" y="55.286559" style="stroke: #000000; stroke-width: 0.8"/>
      </g>
     </g>
     <g id="text_19">
      <!-- 40 -->
      <g transform="translate(230.651727 59.085778) scale(0.1 -0.1)">
       <use xlink:href="#DejaVuSans-34"/>
       <use xlink:href="#DejaVuSans-30" x="63.623047"/>
      </g>
     </g>
    </g>
   </g>
   <g id="line2d_20">
    <path d="M 257.75524 46.8 
L 258.269422 49.598357 
L 258.783604 56.016156 
L 259.297786 65.73089 
L 259.811968 71.439367 
L 260.32615 83.107776 
L 261.354514 89.591575 
L 261.868696 98.744067 
L 262.382878 100.68969 
L 262.89706 106.42719 
L 263.411242 110.166318 
L 263.925424 147.6 
L 266.496334 147.6 
L 267.010517 143.963557 
L 267.524699 147.6 
L 268.038881 147.6 
L 268.553063 145.564288 
L 269.067245 146.038994 
L 269.581427 142.316281 
L 270.095609 115.690022 
L 270.609791 111.627892 
L 271.123973 113.149321 
L 271.638155 108.372179 
L 272.152337 106.069706 
L 272.666519 102.55291 
L 273.180701 102.424812 
L 273.694883 103.684045 
L 274.209065 103.711206 
L 274.723247 102.240358 
L 275.237429 102.664852 
L 275.751611 102.241015 
L 276.265793 147.6 
L 277.80834 147.6 
L 278.322522 136.394487 
L 278.836704 147.6 
L 281.921796 147.6 
L 282.435978 63.479047 
L 282.95016 62.729478 
L 284.492706 87.359099 
L 285.006888 91.905946 
L 285.52107 92.156178 
L 286.035252 92.807574 
L 286.549434 91.339509 
L 287.063616 89.324588 
L 287.577798 87.986706 
L 288.091981 87.683454 
L 288.606163 144.302322 
L 289.120345 147.6 
L 289.634527 142.859901 
L 290.148709 147.6 
L 294.262165 147.6 
L 294.776347 71.008752 
L 295.290529 70.156083 
L 295.804711 70.759047 
L 296.318893 72.484999 
L 296.833075 72.217763 
L 297.347257 72.897649 
L 297.861439 77.125217 
L 298.375622 78.004555 
L 298.889804 82.439395 
L 299.403986 90.724039 
L 299.918168 89.19372 
L 300.43235 90.296545 
L 301.460714 147.6 
L 306.602534 147.6 
L 307.116716 85.025747 
L 307.630898 81.387467 
L 308.14508 84.649552 
L 308.659262 95.442761 
L 309.173445 90.299259 
L 309.687627 90.251124 
L 310.201809 91.950792 
L 310.715991 94.922457 
L 311.230173 93.64113 
L 312.258537 101.797359 
L 312.772719 101.086677 
L 313.286901 136.059433 
L 313.801083 147.6 
L 314.315265 147.6 
L 314.829447 140.876466 
L 315.343629 147.6 
L 318.942903 147.6 
L 319.457085 109.183522 
L 319.971268 116.356057 
L 320.48545 116.789759 
L 320.999632 117.757179 
L 321.513814 119.492016 
L 322.027996 127.307027 
L 322.542178 128.47401 
L 323.05636 126.577539 
L 323.570542 126.608034 
L 324.084724 128.888947 
L 324.598906 124.868028 
L 325.113088 127.834384 
L 325.62727 147.6 
L 331.283273 147.6 
L 331.797455 119.395174 
L 332.311637 112.445948 
L 332.825819 116.885493 
L 333.854183 109.200159 
L 334.368365 116.382719 
L 335.396729 104.069609 
L 335.910911 114.763348 
L 336.425093 113.183945 
L 336.939275 109.327062 
L 337.453457 110.414697 
L 337.967639 147.6 
L 338.996003 147.6 
L 339.510185 144.402052 
L 340.024367 147.6 
L 340.538549 147.6 
L 341.052732 146.816956 
L 341.566914 147.6 
L 342.081096 141.918862 
L 342.595278 130.96389 
L 343.10946 130.123076 
L 343.623642 133.525805 
L 344.137824 119.313786 
L 344.652006 116.060086 
L 345.68037 107.586901 
L 346.194552 113.400667 
L 346.708734 109.993207 
L 347.222916 114.579383 
L 347.737098 113.464186 
L 348.25128 116.404 
L 348.765462 114.668484 
L 349.279644 111.596969 
L 349.793826 115.869715 
L 350.308008 146.410073 
L 350.82219 147.6 
L 352.364737 147.6 
L 353.393101 143.770012 
L 353.907283 147.6 
L 354.421465 147.6 
L 354.935647 135.857772 
L 355.449829 131.742399 
L 355.964011 141.007256 
L 356.478193 118.646692 
L 356.992375 121.130637 
L 357.506557 124.288241 
L 358.020739 126.200281 
L 358.534921 130.010394 
L 359.049103 123.483386 
L 359.563285 122.443027 
L 360.077467 126.582447 
L 360.591649 118.73313 
L 361.105831 118.361112 
L 361.620013 122.359643 
L 362.134196 120.231447 
L 362.648378 133.35314 
L 364.190924 142.529103 
L 364.705106 143.331311 
L 365.219288 147.6 
L 365.73347 147.387601 
L 366.247652 147.6 
L 367.276016 147.573785 
L 367.790198 146.483831 
L 368.30438 142.416245 
L 369.332744 137.025932 
L 369.846926 137.029451 
L 370.361108 132.448535 
L 370.87529 133.438657 
L 371.389472 131.046672 
L 371.903654 124.345755 
L 372.417836 124.821952 
L 372.932019 127.693389 
L 373.446201 126.435106 
L 374.474565 130.185254 
L 374.988747 146.61833 
L 375.502929 144.624313 
L 376.017111 139.791345 
L 376.531293 140.393041 
L 377.045475 143.669788 
L 377.559657 137.358276 
L 378.073839 133.697732 
L 378.588021 135.047511 
L 379.616385 129.502938 
L 380.130567 137.462023 
L 380.644749 137.990842 
L 381.158931 106.509857 
L 381.673113 110.343098 
L 382.187295 121.266038 
L 382.701477 119.351249 
L 383.729842 122.801072 
L 384.244024 121.495453 
L 384.758206 117.748508 
L 385.272388 116.275006 
L 385.78657 116.833931 
L 386.300752 118.545251 
L 386.814934 116.81482 
L 387.329116 139.105091 
L 387.843298 142.032535 
L 388.35748 146.029081 
L 388.871662 139.638023 
L 389.385844 141.896146 
L 389.900026 143.259154 
L 390.414208 140.298395 
L 390.92839 140.620287 
L 391.442572 145.897415 
L 391.956754 134.956276 
L 392.470936 131.310834 
L 392.985118 136.158734 
L 393.4993 89.804648 
L 394.013483 85.993748 
L 394.527665 87.668845 
L 395.041847 94.439717 
L 395.556029 91.085919 
L 396.070211 99.248987 
L 396.584393 100.549556 
L 397.098575 92.709872 
L 397.612757 92.178975 
L 398.126939 103.962984 
L 398.641121 105.840887 
L 399.155303 93.747251 
L 399.669485 136.252959 
L 400.183667 142.418804 
L 400.697849 144.834425 
L 401.212031 138.557208 
L 401.726213 146.629576 
L 402.240395 143.563897 
L 402.754577 144.079295 
L 403.268759 147.6 
L 403.782941 147.6 
L 404.297124 146.074303 
L 404.811306 145.696741 
L 405.325488 146.85867 
L 405.325488 146.85867 
" clip-path="url(#p615c463eea)" style="fill: none; stroke: #0000ff; stroke-width: 1.5; stroke-linecap: square"/>
   </g>
   <g id="patch_8">
    <path d="M 250.376727 152.64 
L 250.376727 41.76 
" style="fill: none; stroke: #000000; stroke-width: 0.8; stroke-linejoin: miter; stroke-linecap: square"/>
   </g>
   <g id="patch_9">
    <path d="M 412.704 152.64 
L 412.704 41.76 
" style="fill: none; stroke: #000000; stroke-width: 0.8; stroke-linejoin: miter; stroke-linecap: square"/>
   </g>
   <g id="patch_10">
    <path d="M 250.376727 152.64 
L 412.704 152.64 
" style="fill: none; stroke: #000000; stroke-width: 0.8; stroke-linejoin: miter; stroke-linecap: square"/>
   </g>
   <g id="patch_11">
    <path d="M 250.376727 41.76 
L 412.704 41.76 
" style="fill: none; stroke: #000000; stroke-width: 0.8; stroke-linejoin: miter; stroke-linecap: square"/>
   </g>
   <g id="text_20">
    <!-- RNN -->
    <g transform="translate(318.393801 35.76) scale(0.12 -0.12)">
     <defs>
      <path id="DejaVuSans-52" d="M 2841 2188 
Q 3044 2119 3236 1894 
Q 3428 1669 3622 1275 
L 4263 0 
L 3584 0 
L 2988 1197 
Q 2756 1666 2539 1819 
Q 2322 1972 1947 1972 
L 1259 1972 
L 1259 0 
L 628 0 
L 628 4666 
L 2053 4666 
Q 2853 4666 3247 4331 
Q 3641 3997 3641 3322 
Q 3641 2881 3436 2590 
Q 3231 2300 2841 2188 
z
M 1259 4147 
L 1259 2491 
L 2053 2491 
Q 2509 2491 2742 2702 
Q 2975 2913 2975 3322 
Q 2975 3731 2742 3939 
Q 2509 4147 2053 4147 
L 1259 4147 
z
" transform="scale(0.015625)"/>
     </defs>
     <use xlink:href="#DejaVuSans-52"/>
     <use xlink:href="#DejaVuSans-4e" x="69.482422"/>
     <use xlink:href="#DejaVuSans-4e" x="144.287109"/>
    </g>
   </g>
  </g>
  <g id="axes_3">
   <g id="patch_12">
    <path d="M 55.584 307.872 
L 217.911273 307.872 
L 217.911273 196.992 
L 55.584 196.992 
z
" style="fill: #ffffff"/>
   </g>
   <g id="matplotlib.axis_5">
    <g id="xtick_9">
     <g id="line2d_21">
      <g>
       <use xlink:href="#m7d4589219a" x="62.962512" y="307.872" style="stroke: #000000; stroke-width: 0.8"/>
      </g>
     </g>
     <g id="text_21">
      <!-- 0 -->
      <g transform="translate(59.781262 322.470437) scale(0.1 -0.1)">
       <use xlink:href="#DejaVuSans-30"/>
      </g>
     </g>
    </g>
    <g id="xtick_10">
     <g id="line2d_22">
      <g>
       <use xlink:href="#m7d4589219a" x="114.380717" y="307.872" style="stroke: #000000; stroke-width: 0.8"/>
      </g>
     </g>
     <g id="text_22">
      <!-- 100 -->
      <g transform="translate(104.836967 322.470437) scale(0.1 -0.1)">
       <use xlink:href="#DejaVuSans-31"/>
       <use xlink:href="#DejaVuSans-30" x="63.623047"/>
       <use xlink:href="#DejaVuSans-30" x="127.246094"/>
      </g>
     </g>
    </g>
    <g id="xtick_11">
     <g id="line2d_23">
      <g>
       <use xlink:href="#m7d4589219a" x="165.798922" y="307.872" style="stroke: #000000; stroke-width: 0.8"/>
      </g>
     </g>
     <g id="text_23">
      <!-- 200 -->
      <g transform="translate(156.255172 322.470437) scale(0.1 -0.1)">
       <use xlink:href="#DejaVuSans-32"/>
       <use xlink:href="#DejaVuSans-30" x="63.623047"/>
       <use xlink:href="#DejaVuSans-30" x="127.246094"/>
      </g>
     </g>
    </g>
    <g id="xtick_12">
     <g id="line2d_24">
      <g>
       <use xlink:href="#m7d4589219a" x="217.217127" y="307.872" style="stroke: #000000; stroke-width: 0.8"/>
      </g>
     </g>
     <g id="text_24">
      <!-- 300 -->
      <g transform="translate(207.673377 322.470437) scale(0.1 -0.1)">
       <use xlink:href="#DejaVuSans-33"/>
       <use xlink:href="#DejaVuSans-30" x="63.623047"/>
       <use xlink:href="#DejaVuSans-30" x="127.246094"/>
      </g>
     </g>
    </g>
   </g>
   <g id="matplotlib.axis_6">
    <g id="ytick_11">
     <g id="line2d_25">
      <g>
       <use xlink:href="#m946776f4b3" x="55.584" y="302.832" style="stroke: #000000; stroke-width: 0.8"/>
      </g>
     </g>
     <g id="text_25">
      <!-- 0 -->
      <g transform="translate(42.2215 306.631219) scale(0.1 -0.1)">
       <use xlink:href="#DejaVuSans-30"/>
      </g>
     </g>
    </g>
    <g id="ytick_12">
     <g id="line2d_26">
      <g>
       <use xlink:href="#m946776f4b3" x="55.584" y="279.75364" style="stroke: #000000; stroke-width: 0.8"/>
      </g>
     </g>
     <g id="text_26">
      <!-- 10 -->
      <g transform="translate(35.859 283.552859) scale(0.1 -0.1)">
       <use xlink:href="#DejaVuSans-31"/>
       <use xlink:href="#DejaVuSans-30" x="63.623047"/>
      </g>
     </g>
    </g>
    <g id="ytick_13">
     <g id="line2d_27">
      <g>
       <use xlink:href="#m946776f4b3" x="55.584" y="256.67528" style="stroke: #000000; stroke-width: 0.8"/>
      </g>
     </g>
     <g id="text_27">
      <!-- 20 -->
      <g transform="translate(35.859 260.474498) scale(0.1 -0.1)">
       <use xlink:href="#DejaVuSans-32"/>
       <use xlink:href="#DejaVuSans-30" x="63.623047"/>
      </g>
     </g>
    </g>
    <g id="ytick_14">
     <g id="line2d_28">
      <g>
       <use xlink:href="#m946776f4b3" x="55.584" y="233.596919" style="stroke: #000000; stroke-width: 0.8"/>
      </g>
     </g>
     <g id="text_28">
      <!-- 30 -->
      <g transform="translate(35.859 237.396138) scale(0.1 -0.1)">
       <use xlink:href="#DejaVuSans-33"/>
       <use xlink:href="#DejaVuSans-30" x="63.623047"/>
      </g>
     </g>
    </g>
    <g id="ytick_15">
     <g id="line2d_29">
      <g>
       <use xlink:href="#m946776f4b3" x="55.584" y="210.518559" style="stroke: #000000; stroke-width: 0.8"/>
      </g>
     </g>
     <g id="text_29">
      <!-- 40 -->
      <g transform="translate(35.859 214.317778) scale(0.1 -0.1)">
       <use xlink:href="#DejaVuSans-34"/>
       <use xlink:href="#DejaVuSans-30" x="63.623047"/>
      </g>
     </g>
    </g>
   </g>
   <g id="line2d_30">
    <path d="M 62.962512 202.032 
L 63.476694 204.830357 
L 63.990876 211.248156 
L 64.505059 220.96289 
L 65.019241 226.671367 
L 65.533423 238.339776 
L 66.561787 244.823575 
L 67.075969 253.976067 
L 67.590151 255.92169 
L 68.104333 261.65919 
L 68.618515 265.398318 
L 69.132697 302.832 
L 74.7887 302.832 
L 75.302882 270.922022 
L 75.817064 266.859892 
L 76.331246 268.381321 
L 76.845428 263.604179 
L 77.35961 261.301706 
L 77.873792 257.78491 
L 78.387974 257.656812 
L 78.902156 258.916045 
L 79.416338 258.943206 
L 79.93052 257.472358 
L 80.444702 257.896852 
L 80.958884 257.473015 
L 81.473066 302.832 
L 87.129069 302.832 
L 87.643251 218.711047 
L 88.157433 217.961478 
L 89.699979 242.591099 
L 90.214161 247.137946 
L 90.728343 247.388178 
L 91.242525 248.039574 
L 91.756707 246.571509 
L 92.270889 244.556588 
L 92.785071 243.218706 
L 93.299253 242.915454 
L 93.813435 302.832 
L 94.327617 301.864913 
L 94.841799 302.832 
L 99.469438 302.832 
L 99.98362 226.240752 
L 100.497802 225.388083 
L 101.011984 225.991047 
L 101.526166 227.716999 
L 102.040348 227.449763 
L 102.55453 228.129649 
L 103.068712 232.357217 
L 103.582894 233.236555 
L 104.097076 237.671395 
L 104.611258 245.956039 
L 105.12544 244.42572 
L 105.639622 245.528545 
L 106.153804 301.291026 
L 106.667987 295.069386 
L 107.182169 302.832 
L 110.781443 302.832 
L 111.295625 297.069347 
L 111.809807 298.835993 
L 112.323989 240.257747 
L 112.838171 236.619467 
L 113.352353 239.881552 
L 113.866535 250.674761 
L 114.380717 245.531259 
L 114.894899 245.483124 
L 115.409081 247.182792 
L 115.923263 250.154457 
L 116.437445 248.87313 
L 117.46581 257.029359 
L 117.979992 256.318677 
L 118.494174 295.428301 
L 119.008356 300.552917 
L 119.522538 302.832 
L 123.121812 302.832 
L 123.635994 301.156866 
L 124.150176 300.935046 
L 124.664358 264.415522 
L 125.17854 271.588057 
L 125.692722 272.021759 
L 126.206904 272.989179 
L 126.721086 274.724016 
L 127.235268 282.539027 
L 127.749451 283.70601 
L 128.263633 281.809539 
L 128.777815 281.840034 
L 129.291997 284.120947 
L 129.806179 280.100028 
L 130.320361 283.066384 
L 130.834543 302.832 
L 136.490545 302.832 
L 137.004727 274.627174 
L 137.518909 267.677948 
L 138.033091 272.117493 
L 139.061456 264.432159 
L 139.575638 271.614719 
L 140.604002 259.301609 
L 141.118184 269.995348 
L 141.632366 268.415945 
L 142.146548 264.559062 
L 142.66073 265.646697 
L 143.174912 302.832 
L 147.80255 302.832 
L 148.316732 293.997463 
L 148.830915 291.52091 
L 149.345097 274.545786 
L 149.859279 271.292086 
L 150.887643 262.818901 
L 151.401825 268.632667 
L 151.916007 265.225207 
L 152.430189 269.811383 
L 152.944371 268.696186 
L 153.458553 271.636 
L 153.972735 269.900484 
L 154.486917 266.828969 
L 155.001099 271.101715 
L 155.515281 302.832 
L 156.029463 301.623788 
L 156.543645 301.508578 
L 157.057827 300.903376 
L 157.572009 302.832 
L 159.114555 302.832 
L 159.628738 301.605431 
L 160.14292 295.483878 
L 160.657102 295.589969 
L 161.171284 291.777461 
L 161.685466 273.878692 
L 162.199648 276.362637 
L 162.71383 279.520241 
L 163.228012 281.432281 
L 163.742194 285.242394 
L 164.256376 278.715386 
L 164.770558 277.675027 
L 165.28474 281.814447 
L 165.798922 273.96513 
L 166.313104 273.593112 
L 166.827286 277.591643 
L 167.341468 275.463447 
L 167.85565 292.486843 
L 168.369832 289.585393 
L 168.884014 289.437726 
L 169.398196 292.729044 
L 169.912378 294.04322 
L 170.426561 292.433923 
L 170.940743 294.235311 
L 171.454925 295.155147 
L 171.969107 296.665797 
L 172.483289 296.107984 
L 172.997471 293.114538 
L 174.025835 294.979302 
L 174.540017 292.257932 
L 175.054199 292.261451 
L 175.568381 287.680535 
L 176.082563 288.670657 
L 176.596745 286.278672 
L 177.110927 279.577755 
L 177.625109 280.053952 
L 178.139291 282.925389 
L 178.653473 281.667106 
L 179.681837 285.417254 
L 180.196019 298.733775 
L 180.710202 299.319901 
L 181.224384 299.158391 
L 181.738566 298.864636 
L 182.252748 298.824168 
L 182.76693 297.203986 
L 183.281112 300.266863 
L 183.795294 300.565126 
L 184.309476 291.824647 
L 184.823658 289.314305 
L 185.33784 299.04936 
L 185.852022 300.901728 
L 186.366204 261.741857 
L 186.880386 265.575098 
L 187.394568 276.498038 
L 187.90875 274.583249 
L 188.937114 278.033072 
L 189.451296 276.727453 
L 189.965478 272.980508 
L 190.47966 271.507006 
L 190.993842 272.065931 
L 191.508025 273.777251 
L 192.022207 272.04682 
L 192.536389 293.662298 
L 193.050571 291.384033 
L 193.564753 284.828931 
L 194.078935 282.35365 
L 194.593117 292.148632 
L 195.107299 290.73908 
L 195.621481 298.96058 
L 196.135663 297.574288 
L 196.649845 298.390551 
L 197.164027 297.815076 
L 197.678209 299.168569 
L 198.192391 296.476469 
L 198.706573 245.036648 
L 199.220755 241.225748 
L 199.734937 242.900845 
L 200.249119 249.671717 
L 200.763301 246.317919 
L 201.277483 254.480987 
L 201.791666 255.781556 
L 202.305848 247.941872 
L 202.82003 247.410975 
L 203.334212 259.194984 
L 203.848394 261.072887 
L 204.362576 248.979251 
L 204.876758 292.169463 
L 205.39094 294.309134 
L 205.905122 298.778558 
L 206.419304 298.576927 
L 206.933486 300.891415 
L 207.447668 299.107028 
L 207.96185 299.912827 
L 208.476032 300.070404 
L 208.990214 298.276133 
L 209.504396 297.593699 
L 210.018578 302.058995 
L 210.53276 299.498509 
L 210.53276 299.498509 
" clip-path="url(#p9cdef587ae)" style="fill: none; stroke: #ffa500; stroke-width: 1.5; stroke-linecap: square"/>
   </g>
   <g id="patch_13">
    <path d="M 55.584 307.872 
L 55.584 196.992 
" style="fill: none; stroke: #000000; stroke-width: 0.8; stroke-linejoin: miter; stroke-linecap: square"/>
   </g>
   <g id="patch_14">
    <path d="M 217.911273 307.872 
L 217.911273 196.992 
" style="fill: none; stroke: #000000; stroke-width: 0.8; stroke-linejoin: miter; stroke-linecap: square"/>
   </g>
   <g id="patch_15">
    <path d="M 55.584 307.872 
L 217.911273 307.872 
" style="fill: none; stroke: #000000; stroke-width: 0.8; stroke-linejoin: miter; stroke-linecap: square"/>
   </g>
   <g id="patch_16">
    <path d="M 55.584 196.992 
L 217.911273 196.992 
" style="fill: none; stroke: #000000; stroke-width: 0.8; stroke-linejoin: miter; stroke-linecap: square"/>
   </g>
   <g id="text_30">
    <!-- VAE -->
    <g transform="translate(125.130136 190.992) scale(0.12 -0.12)">
     <defs>
      <path id="DejaVuSans-56" d="M 1831 0 
L 50 4666 
L 709 4666 
L 2188 738 
L 3669 4666 
L 4325 4666 
L 2547 0 
L 1831 0 
z
" transform="scale(0.015625)"/>
      <path id="DejaVuSans-41" d="M 2188 4044 
L 1331 1722 
L 3047 1722 
L 2188 4044 
z
M 1831 4666 
L 2547 4666 
L 4325 0 
L 3669 0 
L 3244 1197 
L 1141 1197 
L 716 0 
L 50 0 
L 1831 4666 
z
" transform="scale(0.015625)"/>
      <path id="DejaVuSans-45" d="M 628 4666 
L 3578 4666 
L 3578 4134 
L 1259 4134 
L 1259 2753 
L 3481 2753 
L 3481 2222 
L 1259 2222 
L 1259 531 
L 3634 531 
L 3634 0 
L 628 0 
L 628 4666 
z
" transform="scale(0.015625)"/>
     </defs>
     <use xlink:href="#DejaVuSans-56"/>
     <use xlink:href="#DejaVuSans-41" x="62.033203"/>
     <use xlink:href="#DejaVuSans-45" x="130.441406"/>
    </g>
   </g>
  </g>
  <g id="axes_4">
   <g id="patch_17">
    <path d="M 250.376727 307.872 
L 412.704 307.872 
L 412.704 196.992 
L 250.376727 196.992 
z
" style="fill: #ffffff"/>
   </g>
   <g id="matplotlib.axis_7">
    <g id="xtick_13">
     <g id="line2d_31">
      <g>
       <use xlink:href="#m7d4589219a" x="257.75524" y="307.872" style="stroke: #000000; stroke-width: 0.8"/>
      </g>
     </g>
     <g id="text_31">
      <!-- 0 -->
      <g transform="translate(254.57399 322.470437) scale(0.1 -0.1)">
       <use xlink:href="#DejaVuSans-30"/>
      </g>
     </g>
    </g>
    <g id="xtick_14">
     <g id="line2d_32">
      <g>
       <use xlink:href="#m7d4589219a" x="309.173445" y="307.872" style="stroke: #000000; stroke-width: 0.8"/>
      </g>
     </g>
     <g id="text_32">
      <!-- 100 -->
      <g transform="translate(299.629695 322.470437) scale(0.1 -0.1)">
       <use xlink:href="#DejaVuSans-31"/>
       <use xlink:href="#DejaVuSans-30" x="63.623047"/>
       <use xlink:href="#DejaVuSans-30" x="127.246094"/>
      </g>
     </g>
    </g>
    <g id="xtick_15">
     <g id="line2d_33">
      <g>
       <use xlink:href="#m7d4589219a" x="360.591649" y="307.872" style="stroke: #000000; stroke-width: 0.8"/>
      </g>
     </g>
     <g id="text_33">
      <!-- 200 -->
      <g transform="translate(351.047899 322.470437) scale(0.1 -0.1)">
       <use xlink:href="#DejaVuSans-32"/>
       <use xlink:href="#DejaVuSans-30" x="63.623047"/>
       <use xlink:href="#DejaVuSans-30" x="127.246094"/>
      </g>
     </g>
    </g>
    <g id="xtick_16">
     <g id="line2d_34">
      <g>
       <use xlink:href="#m7d4589219a" x="412.009854" y="307.872" style="stroke: #000000; stroke-width: 0.8"/>
      </g>
     </g>
     <g id="text_34">
      <!-- 300 -->
      <g transform="translate(402.466104 322.470437) scale(0.1 -0.1)">
       <use xlink:href="#DejaVuSans-33"/>
       <use xlink:href="#DejaVuSans-30" x="63.623047"/>
       <use xlink:href="#DejaVuSans-30" x="127.246094"/>
      </g>
     </g>
    </g>
   </g>
   <g id="matplotlib.axis_8">
    <g id="ytick_16">
     <g id="line2d_35">
      <g>
       <use xlink:href="#m946776f4b3" x="250.376727" y="302.832" style="stroke: #000000; stroke-width: 0.8"/>
      </g>
     </g>
     <g id="text_35">
      <!-- 0 -->
      <g transform="translate(237.014227 306.631219) scale(0.1 -0.1)">
       <use xlink:href="#DejaVuSans-30"/>
      </g>
     </g>
    </g>
    <g id="ytick_17">
     <g id="line2d_36">
      <g>
       <use xlink:href="#m946776f4b3" x="250.376727" y="279.747147" style="stroke: #000000; stroke-width: 0.8"/>
      </g>
     </g>
     <g id="text_36">
      <!-- 10 -->
      <g transform="translate(230.651727 283.546366) scale(0.1 -0.1)">
       <use xlink:href="#DejaVuSans-31"/>
       <use xlink:href="#DejaVuSans-30" x="63.623047"/>
      </g>
     </g>
    </g>
    <g id="ytick_18">
     <g id="line2d_37">
      <g>
       <use xlink:href="#m946776f4b3" x="250.376727" y="256.662294" style="stroke: #000000; stroke-width: 0.8"/>
      </g>
     </g>
     <g id="text_37">
      <!-- 20 -->
      <g transform="translate(230.651727 260.461512) scale(0.1 -0.1)">
       <use xlink:href="#DejaVuSans-32"/>
       <use xlink:href="#DejaVuSans-30" x="63.623047"/>
      </g>
     </g>
    </g>
    <g id="ytick_19">
     <g id="line2d_38">
      <g>
       <use xlink:href="#m946776f4b3" x="250.376727" y="233.57744" style="stroke: #000000; stroke-width: 0.8"/>
      </g>
     </g>
     <g id="text_38">
      <!-- 30 -->
      <g transform="translate(230.651727 237.376659) scale(0.1 -0.1)">
       <use xlink:href="#DejaVuSans-33"/>
       <use xlink:href="#DejaVuSans-30" x="63.623047"/>
      </g>
     </g>
    </g>
    <g id="ytick_20">
     <g id="line2d_39">
      <g>
       <use xlink:href="#m946776f4b3" x="250.376727" y="210.492587" style="stroke: #000000; stroke-width: 0.8"/>
      </g>
     </g>
     <g id="text_39">
      <!-- 40 -->
      <g transform="translate(230.651727 214.291806) scale(0.1 -0.1)">
       <use xlink:href="#DejaVuSans-34"/>
       <use xlink:href="#DejaVuSans-30" x="63.623047"/>
      </g>
     </g>
    </g>
   </g>
   <g id="line2d_40">
    <path d="M 257.75524 202.032 
L 258.269422 205.43227 
L 258.783604 211.243484 
L 259.297786 220.922735 
L 259.811968 226.659455 
L 260.32615 238.324173 
L 261.354514 244.789947 
L 261.868696 253.976195 
L 262.382878 255.935451 
L 262.89706 261.661517 
L 263.411242 265.378356 
L 263.925424 293.25891 
L 264.439606 285.8439 
L 264.953788 292.001351 
L 265.46797 293.803869 
L 265.982152 294.57284 
L 266.496334 292.96883 
L 267.010517 294.994395 
L 267.524699 283.130821 
L 268.038881 283.914789 
L 268.553063 294.983275 
L 269.067245 279.990427 
L 269.581427 286.752329 
L 270.095609 270.928377 
L 270.609791 266.850334 
L 271.123973 268.386038 
L 271.638155 263.592789 
L 272.152337 261.28158 
L 272.666519 257.770163 
L 273.180701 257.637135 
L 273.694883 258.910343 
L 274.209065 258.958761 
L 274.723247 257.473156 
L 275.237429 257.891747 
L 275.751611 257.469952 
L 276.265793 289.485407 
L 276.779975 285.724755 
L 277.294158 293.776071 
L 277.80834 289.807736 
L 278.322522 270.058854 
L 278.836704 279.510786 
L 279.350886 297.83569 
L 279.865068 250.97016 
L 280.37925 268.862934 
L 280.893432 278.425084 
L 281.407614 259.211138 
L 281.921796 253.990907 
L 282.435978 218.693306 
L 282.95016 217.952811 
L 284.492706 242.57641 
L 285.006888 247.115746 
L 285.52107 247.36212 
L 286.035252 248.021795 
L 286.549434 246.554009 
L 287.063616 244.524356 
L 287.577798 243.21117 
L 288.091981 242.864659 
L 288.606163 255.799675 
L 289.120345 250.925401 
L 289.634527 262.158578 
L 290.148709 276.987911 
L 290.662891 273.713221 
L 291.177073 273.457974 
L 291.691255 261.690724 
L 292.205437 242.153787 
L 292.719619 260.067843 
L 293.233801 267.083041 
L 293.747983 271.482255 
L 294.262165 268.833422 
L 294.776347 226.255149 
L 295.290529 225.286825 
L 295.804711 225.939567 
L 296.318893 227.688337 
L 296.833075 227.395425 
L 297.347257 228.11803 
L 297.861439 232.33017 
L 298.375622 233.203173 
L 298.889804 237.643454 
L 299.403986 245.938735 
L 299.918168 244.420968 
L 300.43235 245.296076 
L 300.946532 275.807901 
L 301.460714 268.218673 
L 301.974896 272.829745 
L 302.489078 256.199214 
L 303.00326 274.18122 
L 303.517442 256.490928 
L 304.031624 285.145387 
L 304.545806 270.562436 
L 305.059988 267.809916 
L 305.57417 272.540624 
L 306.088352 265.189698 
L 306.602534 256.174864 
L 307.116716 240.252266 
L 307.630898 236.610481 
L 308.14508 239.85553 
L 308.659262 250.653182 
L 309.173445 245.505082 
L 309.687627 245.397174 
L 310.201809 247.173133 
L 310.715991 250.144114 
L 311.230173 248.863558 
L 312.258537 257.041058 
L 312.772719 256.31546 
L 313.286901 271.833601 
L 313.801083 292.787822 
L 314.829447 271.537367 
L 315.343629 283.496826 
L 315.857811 292.661174 
L 316.371993 293.758593 
L 316.886175 302.832 
L 317.914539 293.351399 
L 318.428721 277.756411 
L 318.942903 292.397755 
L 319.457085 264.398483 
L 319.971268 271.584673 
L 320.48545 272.0797 
L 320.999632 272.992953 
L 321.513814 274.369821 
L 322.027996 282.535379 
L 322.542178 283.68551 
L 323.05636 281.807673 
L 323.570542 281.84836 
L 324.084724 284.125148 
L 324.598906 280.341256 
L 325.62727 285.972705 
L 326.141452 280.949951 
L 326.655634 292.976723 
L 327.169816 280.600848 
L 327.683998 292.35783 
L 328.712362 299.180883 
L 329.226544 291.103595 
L 329.740726 300.105446 
L 330.254909 296.097657 
L 330.769091 286.214158 
L 331.283273 270.416662 
L 331.797455 274.607692 
L 332.311637 267.683937 
L 332.825819 272.100095 
L 333.854183 264.527423 
L 334.368365 271.619963 
L 335.396729 259.337955 
L 335.910911 269.75494 
L 336.425093 268.830447 
L 336.939275 264.558728 
L 337.453457 265.641678 
L 337.967639 295.151501 
L 338.481821 285.942697 
L 338.996003 289.819888 
L 339.510185 301.63081 
L 340.024367 295.319 
L 340.538549 301.124164 
L 341.052732 294.037527 
L 341.566914 296.082961 
L 342.081096 287.771811 
L 342.595278 269.354401 
L 343.10946 277.122441 
L 343.623642 289.88767 
L 344.137824 274.531858 
L 344.652006 271.291329 
L 345.68037 262.820972 
L 346.194552 268.635098 
L 346.708734 265.201055 
L 347.222916 269.804341 
L 347.737098 268.691483 
L 348.25128 271.631016 
L 348.765462 269.897627 
L 349.279644 266.829888 
L 349.793826 271.099254 
L 350.308008 279.441734 
L 350.82219 285.385248 
L 351.336373 279.167643 
L 351.850555 283.276311 
L 352.364737 283.172244 
L 352.878919 280.085852 
L 353.393101 281.975135 
L 353.907283 277.712229 
L 354.421465 277.873095 
L 354.935647 278.379501 
L 355.449829 280.382056 
L 355.964011 278.812303 
L 356.478193 273.859824 
L 356.992375 276.349851 
L 357.506557 279.512342 
L 358.020739 281.318124 
L 358.534921 285.218693 
L 359.049103 278.705344 
L 359.563285 277.671082 
L 360.077467 281.804252 
L 360.591649 273.970079 
L 361.105831 273.611313 
L 361.620013 277.545851 
L 362.134196 275.405719 
L 362.648378 280.817984 
L 363.16256 280.857976 
L 363.676742 277.138521 
L 364.190924 280.433178 
L 364.705106 300.33517 
L 365.219288 302.832 
L 367.790198 302.832 
L 368.30438 300.866387 
L 368.818562 294.974299 
L 369.332744 292.253475 
L 369.846926 292.260617 
L 370.361108 287.675229 
L 370.87529 288.65724 
L 371.389472 286.274724 
L 371.903654 279.577191 
L 372.417836 280.037965 
L 372.932019 282.913144 
L 373.446201 281.655015 
L 374.474565 285.408278 
L 374.988747 289.18019 
L 375.502929 294.29018 
L 376.017111 292.427684 
L 376.531293 302.388771 
L 377.045475 295.109045 
L 377.559657 277.922947 
L 378.073839 280.724259 
L 378.588021 284.215162 
L 379.102203 264.444075 
L 379.616385 261.871922 
L 380.130567 267.951119 
L 380.644749 254.749536 
L 381.158931 261.72241 
L 381.673113 265.575859 
L 382.187295 276.502432 
L 382.701477 274.615322 
L 383.729842 278.017784 
L 384.244024 276.731222 
L 384.758206 272.973578 
L 385.272388 271.531642 
L 385.78657 272.047021 
L 386.300752 273.758922 
L 386.814934 272.02751 
L 387.329116 287.600912 
L 387.843298 282.603609 
L 388.35748 288.485694 
L 388.871662 285.675695 
L 389.385844 273.097529 
L 389.900026 265.115648 
L 390.414208 279.564751 
L 390.92839 277.915747 
L 391.442572 269.440258 
L 391.956754 257.21609 
L 392.470936 267.1799 
L 392.985118 279.310056 
L 393.4993 245.015016 
L 394.013483 241.210032 
L 394.527665 242.878025 
L 395.041847 249.650699 
L 395.556029 246.30084 
L 396.070211 254.471795 
L 396.584393 255.766876 
L 397.098575 247.934906 
L 397.612757 247.400616 
L 398.126939 259.18463 
L 398.641121 261.057269 
L 399.155303 248.956895 
L 399.669485 281.678811 
L 400.183667 286.293427 
L 400.697849 298.313759 
L 401.212031 297.774873 
L 401.726213 296.236849 
L 402.240395 301.063527 
L 403.268759 302.832 
L 404.811306 290.204336 
L 405.325488 294.784745 
L 405.325488 294.784745 
" clip-path="url(#p46ae9c7a64)" style="fill: none; stroke: #ff0000; stroke-width: 1.5; stroke-linecap: square"/>
   </g>
   <g id="patch_18">
    <path d="M 250.376727 307.872 
L 250.376727 196.992 
" style="fill: none; stroke: #000000; stroke-width: 0.8; stroke-linejoin: miter; stroke-linecap: square"/>
   </g>
   <g id="patch_19">
    <path d="M 412.704 307.872 
L 412.704 196.992 
" style="fill: none; stroke: #000000; stroke-width: 0.8; stroke-linejoin: miter; stroke-linecap: square"/>
   </g>
   <g id="patch_20">
    <path d="M 250.376727 307.872 
L 412.704 307.872 
" style="fill: none; stroke: #000000; stroke-width: 0.8; stroke-linejoin: miter; stroke-linecap: square"/>
   </g>
   <g id="patch_21">
    <path d="M 250.376727 196.992 
L 412.704 196.992 
" style="fill: none; stroke: #000000; stroke-width: 0.8; stroke-linejoin: miter; stroke-linecap: square"/>
   </g>
   <g id="text_40">
    <!-- VRNN -->
    <g transform="translate(314.289426 190.992) scale(0.12 -0.12)">
     <use xlink:href="#DejaVuSans-56"/>
     <use xlink:href="#DejaVuSans-52" x="68.408203"/>
     <use xlink:href="#DejaVuSans-4e" x="137.890625"/>
     <use xlink:href="#DejaVuSans-4e" x="212.695312"/>
    </g>
   </g>
  </g>
  <g id="text_41">
   <!-- VMAF Scores Over Frames: Video #33 -->
   <g transform="translate(114.338063 16.318125) scale(0.12 -0.12)">
    <defs>
     <path id="DejaVuSans-4d" d="M 628 4666 
L 1569 4666 
L 2759 1491 
L 3956 4666 
L 4897 4666 
L 4897 0 
L 4281 0 
L 4281 4097 
L 3078 897 
L 2444 897 
L 1241 4097 
L 1241 0 
L 628 0 
L 628 4666 
z
" transform="scale(0.015625)"/>
     <path id="DejaVuSans-73" d="M 2834 3397 
L 2834 2853 
Q 2591 2978 2328 3040 
Q 2066 3103 1784 3103 
Q 1356 3103 1142 2972 
Q 928 2841 928 2578 
Q 928 2378 1081 2264 
Q 1234 2150 1697 2047 
L 1894 2003 
Q 2506 1872 2764 1633 
Q 3022 1394 3022 966 
Q 3022 478 2636 193 
Q 2250 -91 1575 -91 
Q 1294 -91 989 -36 
Q 684 19 347 128 
L 347 722 
Q 666 556 975 473 
Q 1284 391 1588 391 
Q 1994 391 2212 530 
Q 2431 669 2431 922 
Q 2431 1156 2273 1281 
Q 2116 1406 1581 1522 
L 1381 1569 
Q 847 1681 609 1914 
Q 372 2147 372 2553 
Q 372 3047 722 3315 
Q 1072 3584 1716 3584 
Q 2034 3584 2315 3537 
Q 2597 3491 2834 3397 
z
" transform="scale(0.015625)"/>
     <path id="DejaVuSans-76" d="M 191 3500 
L 800 3500 
L 1894 563 
L 2988 3500 
L 3597 3500 
L 2284 0 
L 1503 0 
L 191 3500 
z
" transform="scale(0.015625)"/>
     <path id="DejaVuSans-61" d="M 2194 1759 
Q 1497 1759 1228 1600 
Q 959 1441 959 1056 
Q 959 750 1161 570 
Q 1363 391 1709 391 
Q 2188 391 2477 730 
Q 2766 1069 2766 1631 
L 2766 1759 
L 2194 1759 
z
M 3341 1997 
L 3341 0 
L 2766 0 
L 2766 531 
Q 2569 213 2275 61 
Q 1981 -91 1556 -91 
Q 1019 -91 701 211 
Q 384 513 384 1019 
Q 384 1609 779 1909 
Q 1175 2209 1959 2209 
L 2766 2209 
L 2766 2266 
Q 2766 2663 2505 2880 
Q 2244 3097 1772 3097 
Q 1472 3097 1187 3025 
Q 903 2953 641 2809 
L 641 3341 
Q 956 3463 1253 3523 
Q 1550 3584 1831 3584 
Q 2591 3584 2966 3190 
Q 3341 2797 3341 1997 
z
" transform="scale(0.015625)"/>
     <path id="DejaVuSans-6d" d="M 3328 2828 
Q 3544 3216 3844 3400 
Q 4144 3584 4550 3584 
Q 5097 3584 5394 3201 
Q 5691 2819 5691 2113 
L 5691 0 
L 5113 0 
L 5113 2094 
Q 5113 2597 4934 2840 
Q 4756 3084 4391 3084 
Q 3944 3084 3684 2787 
Q 3425 2491 3425 1978 
L 3425 0 
L 2847 0 
L 2847 2094 
Q 2847 2600 2669 2842 
Q 2491 3084 2119 3084 
Q 1678 3084 1418 2786 
Q 1159 2488 1159 1978 
L 1159 0 
L 581 0 
L 581 3500 
L 1159 3500 
L 1159 2956 
Q 1356 3278 1631 3431 
Q 1906 3584 2284 3584 
Q 2666 3584 2933 3390 
Q 3200 3197 3328 2828 
z
" transform="scale(0.015625)"/>
     <path id="DejaVuSans-3a" d="M 750 794 
L 1409 794 
L 1409 0 
L 750 0 
L 750 794 
z
M 750 3309 
L 1409 3309 
L 1409 2516 
L 750 2516 
L 750 3309 
z
" transform="scale(0.015625)"/>
     <path id="DejaVuSans-23" d="M 3272 2816 
L 2363 2816 
L 2100 1772 
L 3016 1772 
L 3272 2816 
z
M 2803 4594 
L 2478 3297 
L 3391 3297 
L 3719 4594 
L 4219 4594 
L 3897 3297 
L 4872 3297 
L 4872 2816 
L 3775 2816 
L 3519 1772 
L 4513 1772 
L 4513 1294 
L 3397 1294 
L 3072 0 
L 2572 0 
L 2894 1294 
L 1978 1294 
L 1656 0 
L 1153 0 
L 1478 1294 
L 494 1294 
L 494 1772 
L 1594 1772 
L 1856 2816 
L 850 2816 
L 850 3297 
L 1978 3297 
L 2297 4594 
L 2803 4594 
z
" transform="scale(0.015625)"/>
    </defs>
    <use xlink:href="#DejaVuSans-56"/>
    <use xlink:href="#DejaVuSans-4d" x="68.408203"/>
    <use xlink:href="#DejaVuSans-41" x="154.6875"/>
    <use xlink:href="#DejaVuSans-46" x="223.095703"/>
    <use xlink:href="#DejaVuSans-20" x="280.615234"/>
    <use xlink:href="#DejaVuSans-53" x="312.402344"/>
    <use xlink:href="#DejaVuSans-63" x="375.878906"/>
    <use xlink:href="#DejaVuSans-6f" x="430.859375"/>
    <use xlink:href="#DejaVuSans-72" x="492.041016"/>
    <use xlink:href="#DejaVuSans-65" x="530.904297"/>
    <use xlink:href="#DejaVuSans-73" x="592.427734"/>
    <use xlink:href="#DejaVuSans-20" x="644.527344"/>
    <use xlink:href="#DejaVuSans-4f" x="676.314453"/>
    <use xlink:href="#DejaVuSans-76" x="755.025391"/>
    <use xlink:href="#DejaVuSans-65" x="814.205078"/>
    <use xlink:href="#DejaVuSans-72" x="875.728516"/>
    <use xlink:href="#DejaVuSans-20" x="916.841797"/>
    <use xlink:href="#DejaVuSans-46" x="948.628906"/>
    <use xlink:href="#DejaVuSans-72" x="998.898438"/>
    <use xlink:href="#DejaVuSans-61" x="1040.011719"/>
    <use xlink:href="#DejaVuSans-6d" x="1101.291016"/>
    <use xlink:href="#DejaVuSans-65" x="1198.703125"/>
    <use xlink:href="#DejaVuSans-73" x="1260.226562"/>
    <use xlink:href="#DejaVuSans-3a" x="1312.326172"/>
    <use xlink:href="#DejaVuSans-20" x="1346.017578"/>
    <use xlink:href="#DejaVuSans-56" x="1377.804688"/>
    <use xlink:href="#DejaVuSans-69" x="1443.962891"/>
    <use xlink:href="#DejaVuSans-64" x="1471.746094"/>
    <use xlink:href="#DejaVuSans-65" x="1535.222656"/>
    <use xlink:href="#DejaVuSans-6f" x="1596.746094"/>
    <use xlink:href="#DejaVuSans-20" x="1657.927734"/>
    <use xlink:href="#DejaVuSans-23" x="1689.714844"/>
    <use xlink:href="#DejaVuSans-33" x="1773.503906"/>
    <use xlink:href="#DejaVuSans-33" x="1837.126953"/>
   </g>
  </g>
  <g id="text_42">
   <!-- Video Frames -->
   <g transform="translate(187.847438 339.936375) scale(0.12 -0.12)">
    <use xlink:href="#DejaVuSans-56"/>
    <use xlink:href="#DejaVuSans-69" x="66.158203"/>
    <use xlink:href="#DejaVuSans-64" x="93.941406"/>
    <use xlink:href="#DejaVuSans-65" x="157.417969"/>
    <use xlink:href="#DejaVuSans-6f" x="218.941406"/>
    <use xlink:href="#DejaVuSans-20" x="280.123047"/>
    <use xlink:href="#DejaVuSans-46" x="311.910156"/>
    <use xlink:href="#DejaVuSans-72" x="362.179688"/>
    <use xlink:href="#DejaVuSans-61" x="403.292969"/>
    <use xlink:href="#DejaVuSans-6d" x="464.572266"/>
    <use xlink:href="#DejaVuSans-65" x="561.984375"/>
    <use xlink:href="#DejaVuSans-73" x="623.507812"/>
   </g>
  </g>
  <g id="text_43">
   <!-- Raw VMAF Scores -->
   <g transform="translate(16.318125 226.284562) rotate(-90) scale(0.12 -0.12)">
    <defs>
     <path id="DejaVuSans-77" d="M 269 3500 
L 844 3500 
L 1563 769 
L 2278 3500 
L 2956 3500 
L 3675 769 
L 4391 3500 
L 4966 3500 
L 4050 0 
L 3372 0 
L 2619 2869 
L 1863 0 
L 1184 0 
L 269 3500 
z
" transform="scale(0.015625)"/>
    </defs>
    <use xlink:href="#DejaVuSans-52"/>
    <use xlink:href="#DejaVuSans-61" x="67.232422"/>
    <use xlink:href="#DejaVuSans-77" x="128.511719"/>
    <use xlink:href="#DejaVuSans-20" x="210.298828"/>
    <use xlink:href="#DejaVuSans-56" x="242.085938"/>
    <use xlink:href="#DejaVuSans-4d" x="310.494141"/>
    <use xlink:href="#DejaVuSans-41" x="396.773438"/>
    <use xlink:href="#DejaVuSans-46" x="465.181641"/>
    <use xlink:href="#DejaVuSans-20" x="522.701172"/>
    <use xlink:href="#DejaVuSans-53" x="554.488281"/>
    <use xlink:href="#DejaVuSans-63" x="617.964844"/>
    <use xlink:href="#DejaVuSans-6f" x="672.945312"/>
    <use xlink:href="#DejaVuSans-72" x="734.126953"/>
    <use xlink:href="#DejaVuSans-65" x="772.990234"/>
    <use xlink:href="#DejaVuSans-73" x="834.513672"/>
   </g>
  </g>
 </g>
 <defs>
  <clipPath id="pe5907146b7">
   <rect x="55.584" y="41.76" width="162.327273" height="110.88"/>
  </clipPath>
  <clipPath id="p615c463eea">
   <rect x="250.376727" y="41.76" width="162.327273" height="110.88"/>
  </clipPath>
  <clipPath id="p9cdef587ae">
   <rect x="55.584" y="196.992" width="162.327273" height="110.88"/>
  </clipPath>
  <clipPath id="p46ae9c7a64">
   <rect x="250.376727" y="196.992" width="162.327273" height="110.88"/>
  </clipPath>
 </defs>
</svg>
