<?xml version="1.0" encoding="utf-8" standalone="no"?>
<!DOCTYPE svg PUBLIC "-//W3C//DTD SVG 1.1//EN"
  "http://www.w3.org/Graphics/SVG/1.1/DTD/svg11.dtd">
<svg xmlns:xlink="http://www.w3.org/1999/xlink" width="419.904pt" height="349.632pt" viewBox="0 0 419.904 349.632" xmlns="http://www.w3.org/2000/svg" version="1.1">
 <metadata>
  <rdf:RDF xmlns:dc="http://purl.org/dc/elements/1.1/" xmlns:cc="http://creativecommons.org/ns#" xmlns:rdf="http://www.w3.org/1999/02/22-rdf-syntax-ns#">
   <cc:Work>
    <dc:type rdf:resource="http://purl.org/dc/dcmitype/StillImage"/>
    <dc:date>2024-07-24T16:31:54.764911</dc:date>
    <dc:format>image/svg+xml</dc:format>
    <dc:creator>
     <cc:Agent>
      <dc:title>Matplotlib v3.7.2, https://matplotlib.org/</dc:title>
     </cc:Agent>
    </dc:creator>
   </cc:Work>
  </rdf:RDF>
 </metadata>
 <defs>
  <style type="text/css">*{stroke-linejoin: round; stroke-linecap: butt}</style>
 </defs>
 <g id="figure_1">
  <g id="patch_1">
   <path d="M 0 349.632 
L 419.904 349.632 
L 419.904 -0 
L 0 -0 
z
" style="fill: #ffffff"/>
  </g>
  <g id="axes_1">
   <g id="patch_2">
    <path d="M 55.584 152.64 
L 217.911273 152.64 
L 217.911273 41.76 
L 55.584 41.76 
z
" style="fill: #ffffff"/>
   </g>
   <g id="matplotlib.axis_1">
    <g id="xtick_1">
     <g id="line2d_1">
      <defs>
       <path id="mac944704f8" d="M 0 0 
L 0 3.5 
" style="stroke: #000000; stroke-width: 0.8"/>
      </defs>
      <g>
       <use xlink:href="#mac944704f8" x="62.962512" y="152.64" style="stroke: #000000; stroke-width: 0.8"/>
      </g>
     </g>
     <g id="text_1">
      <!-- 0 -->
      <g transform="translate(59.781262 167.238437) scale(0.1 -0.1)">
       <defs>
        <path id="DejaVuSans-30" d="M 2034 4250 
Q 1547 4250 1301 3770 
Q 1056 3291 1056 2328 
Q 1056 1369 1301 889 
Q 1547 409 2034 409 
Q 2525 409 2770 889 
Q 3016 1369 3016 2328 
Q 3016 3291 2770 3770 
Q 2525 4250 2034 4250 
z
M 2034 4750 
Q 2819 4750 3233 4129 
Q 3647 3509 3647 2328 
Q 3647 1150 3233 529 
Q 2819 -91 2034 -91 
Q 1250 -91 836 529 
Q 422 1150 422 2328 
Q 422 3509 836 4129 
Q 1250 4750 2034 4750 
z
" transform="scale(0.015625)"/>
       </defs>
       <use xlink:href="#DejaVuSans-30"/>
      </g>
     </g>
    </g>
    <g id="xtick_2">
     <g id="line2d_2">
      <g>
       <use xlink:href="#mac944704f8" x="97.281175" y="152.64" style="stroke: #000000; stroke-width: 0.8"/>
      </g>
     </g>
     <g id="text_2">
      <!-- 50 -->
      <g transform="translate(90.918675 167.238437) scale(0.1 -0.1)">
       <defs>
        <path id="DejaVuSans-35" d="M 691 4666 
L 3169 4666 
L 3169 4134 
L 1269 4134 
L 1269 2991 
Q 1406 3038 1543 3061 
Q 1681 3084 1819 3084 
Q 2600 3084 3056 2656 
Q 3513 2228 3513 1497 
Q 3513 744 3044 326 
Q 2575 -91 1722 -91 
Q 1428 -91 1123 -41 
Q 819 9 494 109 
L 494 744 
Q 775 591 1075 516 
Q 1375 441 1709 441 
Q 2250 441 2565 725 
Q 2881 1009 2881 1497 
Q 2881 1984 2565 2268 
Q 2250 2553 1709 2553 
Q 1456 2553 1204 2497 
Q 953 2441 691 2322 
L 691 4666 
z
" transform="scale(0.015625)"/>
       </defs>
       <use xlink:href="#DejaVuSans-35"/>
       <use xlink:href="#DejaVuSans-30" x="63.623047"/>
      </g>
     </g>
    </g>
    <g id="xtick_3">
     <g id="line2d_3">
      <g>
       <use xlink:href="#mac944704f8" x="131.599837" y="152.64" style="stroke: #000000; stroke-width: 0.8"/>
      </g>
     </g>
     <g id="text_3">
      <!-- 100 -->
      <g transform="translate(122.056087 167.238437) scale(0.1 -0.1)">
       <defs>
        <path id="DejaVuSans-31" d="M 794 531 
L 1825 531 
L 1825 4091 
L 703 3866 
L 703 4441 
L 1819 4666 
L 2450 4666 
L 2450 531 
L 3481 531 
L 3481 0 
L 794 0 
L 794 531 
z
" transform="scale(0.015625)"/>
       </defs>
       <use xlink:href="#DejaVuSans-31"/>
       <use xlink:href="#DejaVuSans-30" x="63.623047"/>
       <use xlink:href="#DejaVuSans-30" x="127.246094"/>
      </g>
     </g>
    </g>
    <g id="xtick_4">
     <g id="line2d_4">
      <g>
       <use xlink:href="#mac944704f8" x="165.918499" y="152.64" style="stroke: #000000; stroke-width: 0.8"/>
      </g>
     </g>
     <g id="text_4">
      <!-- 150 -->
      <g transform="translate(156.374749 167.238437) scale(0.1 -0.1)">
       <use xlink:href="#DejaVuSans-31"/>
       <use xlink:href="#DejaVuSans-35" x="63.623047"/>
       <use xlink:href="#DejaVuSans-30" x="127.246094"/>
      </g>
     </g>
    </g>
    <g id="xtick_5">
     <g id="line2d_5">
      <g>
       <use xlink:href="#mac944704f8" x="200.237162" y="152.64" style="stroke: #000000; stroke-width: 0.8"/>
      </g>
     </g>
     <g id="text_5">
      <!-- 200 -->
      <g transform="translate(190.693412 167.238437) scale(0.1 -0.1)">
       <defs>
        <path id="DejaVuSans-32" d="M 1228 531 
L 3431 531 
L 3431 0 
L 469 0 
L 469 531 
Q 828 903 1448 1529 
Q 2069 2156 2228 2338 
Q 2531 2678 2651 2914 
Q 2772 3150 2772 3378 
Q 2772 3750 2511 3984 
Q 2250 4219 1831 4219 
Q 1534 4219 1204 4116 
Q 875 4013 500 3803 
L 500 4441 
Q 881 4594 1212 4672 
Q 1544 4750 1819 4750 
Q 2544 4750 2975 4387 
Q 3406 4025 3406 3419 
Q 3406 3131 3298 2873 
Q 3191 2616 2906 2266 
Q 2828 2175 2409 1742 
Q 1991 1309 1228 531 
z
" transform="scale(0.015625)"/>
       </defs>
       <use xlink:href="#DejaVuSans-32"/>
       <use xlink:href="#DejaVuSans-30" x="63.623047"/>
       <use xlink:href="#DejaVuSans-30" x="127.246094"/>
      </g>
     </g>
    </g>
   </g>
   <g id="matplotlib.axis_2">
    <g id="ytick_1">
     <g id="line2d_6">
      <defs>
       <path id="m221601dce3" d="M 0 0 
L -3.5 0 
" style="stroke: #000000; stroke-width: 0.8"/>
      </defs>
      <g>
       <use xlink:href="#m221601dce3" x="55.584" y="135.703683" style="stroke: #000000; stroke-width: 0.8"/>
      </g>
     </g>
     <g id="text_6">
      <!-- 10 -->
      <g transform="translate(35.859 139.502901) scale(0.1 -0.1)">
       <use xlink:href="#DejaVuSans-31"/>
       <use xlink:href="#DejaVuSans-30" x="63.623047"/>
      </g>
     </g>
    </g>
    <g id="ytick_2">
     <g id="line2d_7">
      <g>
       <use xlink:href="#m221601dce3" x="55.584" y="112.171437" style="stroke: #000000; stroke-width: 0.8"/>
      </g>
     </g>
     <g id="text_7">
      <!-- 20 -->
      <g transform="translate(35.859 115.970656) scale(0.1 -0.1)">
       <use xlink:href="#DejaVuSans-32"/>
       <use xlink:href="#DejaVuSans-30" x="63.623047"/>
      </g>
     </g>
    </g>
    <g id="ytick_3">
     <g id="line2d_8">
      <g>
       <use xlink:href="#m221601dce3" x="55.584" y="88.639191" style="stroke: #000000; stroke-width: 0.8"/>
      </g>
     </g>
     <g id="text_8">
      <!-- 30 -->
      <g transform="translate(35.859 92.43841) scale(0.1 -0.1)">
       <defs>
        <path id="DejaVuSans-33" d="M 2597 2516 
Q 3050 2419 3304 2112 
Q 3559 1806 3559 1356 
Q 3559 666 3084 287 
Q 2609 -91 1734 -91 
Q 1441 -91 1130 -33 
Q 819 25 488 141 
L 488 750 
Q 750 597 1062 519 
Q 1375 441 1716 441 
Q 2309 441 2620 675 
Q 2931 909 2931 1356 
Q 2931 1769 2642 2001 
Q 2353 2234 1838 2234 
L 1294 2234 
L 1294 2753 
L 1863 2753 
Q 2328 2753 2575 2939 
Q 2822 3125 2822 3475 
Q 2822 3834 2567 4026 
Q 2313 4219 1838 4219 
Q 1578 4219 1281 4162 
Q 984 4106 628 3988 
L 628 4550 
Q 988 4650 1302 4700 
Q 1616 4750 1894 4750 
Q 2613 4750 3031 4423 
Q 3450 4097 3450 3541 
Q 3450 3153 3228 2886 
Q 3006 2619 2597 2516 
z
" transform="scale(0.015625)"/>
       </defs>
       <use xlink:href="#DejaVuSans-33"/>
       <use xlink:href="#DejaVuSans-30" x="63.623047"/>
      </g>
     </g>
    </g>
    <g id="ytick_4">
     <g id="line2d_9">
      <g>
       <use xlink:href="#m221601dce3" x="55.584" y="65.106946" style="stroke: #000000; stroke-width: 0.8"/>
      </g>
     </g>
     <g id="text_9">
      <!-- 40 -->
      <g transform="translate(35.859 68.906165) scale(0.1 -0.1)">
       <defs>
        <path id="DejaVuSans-34" d="M 2419 4116 
L 825 1625 
L 2419 1625 
L 2419 4116 
z
M 2253 4666 
L 3047 4666 
L 3047 1625 
L 3713 1625 
L 3713 1100 
L 3047 1100 
L 3047 0 
L 2419 0 
L 2419 1100 
L 313 1100 
L 313 1709 
L 2253 4666 
z
" transform="scale(0.015625)"/>
       </defs>
       <use xlink:href="#DejaVuSans-34"/>
       <use xlink:href="#DejaVuSans-30" x="63.623047"/>
      </g>
     </g>
    </g>
   </g>
   <g id="line2d_10">
    <path d="M 62.962512 52.940412 
L 63.648886 46.8 
L 64.335259 48.813544 
L 65.021632 51.952197 
L 65.708005 59.68662 
L 66.394379 69.22775 
L 67.080752 71.18521 
L 67.767125 70.730343 
L 68.453498 71.196006 
L 69.139872 67.650986 
L 69.826245 67.697437 
L 70.512618 72.744731 
L 71.198991 82.303807 
L 71.885365 95.50688 
L 72.571738 104.636372 
L 73.258111 107.545026 
L 73.944484 107.332784 
L 74.630858 106.990044 
L 75.317231 108.257095 
L 76.003604 108.605483 
L 76.689977 114.59411 
L 77.376351 115.241178 
L 78.062724 114.79861 
L 78.749097 113.312951 
L 80.121844 110.077928 
L 80.808217 110.359167 
L 81.49459 112.163975 
L 82.180963 110.581038 
L 83.55371 97.741711 
L 84.240083 93.275397 
L 84.926456 95.793493 
L 85.61283 91.288009 
L 86.299203 84.402458 
L 86.985576 80.090524 
L 87.671949 88.684117 
L 88.358323 86.688128 
L 89.044696 95.259365 
L 89.731069 93.278084 
L 90.417442 102.702539 
L 91.103815 98.607832 
L 91.790189 96.848156 
L 92.476562 96.034953 
L 93.162935 99.583382 
L 93.849308 98.175982 
L 94.535682 99.702161 
L 95.908428 88.207791 
L 96.594801 83.947471 
L 97.281175 84.622536 
L 97.967548 85.889093 
L 98.653921 92.632936 
L 99.340294 104.127713 
L 100.026668 109.998877 
L 100.713041 119.527321 
L 101.399414 127.249185 
L 102.085787 130.652467 
L 102.772161 127.717399 
L 103.458534 124.260107 
L 104.144907 119.968131 
L 104.83128 118.735889 
L 105.517654 121.412413 
L 106.204027 115.489213 
L 106.8904 104.250928 
L 107.576773 98.750724 
L 108.263147 102.849117 
L 108.94952 111.498784 
L 109.635893 113.703636 
L 110.322266 104.115236 
L 111.00864 97.157921 
L 111.695013 84.381792 
L 112.381386 82.302551 
L 113.067759 94.029528 
L 113.754133 110.540302 
L 115.126879 119.209842 
L 115.813252 119.099121 
L 116.499626 108.997375 
L 117.185999 106.85884 
L 117.872372 100.818522 
L 118.558745 101.954736 
L 119.245119 108.082453 
L 119.931492 110.165332 
L 120.617865 108.08089 
L 121.304238 105.377393 
L 121.990612 104.519038 
L 122.676985 104.321421 
L 123.363358 106.972538 
L 124.049731 102.231031 
L 124.736105 103.368796 
L 125.422478 106.926947 
L 126.108851 108.677355 
L 126.795224 108.26723 
L 127.481598 113.074786 
L 128.167971 111.531122 
L 128.854344 115.971316 
L 129.540717 109.036563 
L 130.227091 110.374021 
L 130.913464 105.846624 
L 131.599837 103.648872 
L 132.28621 115.18379 
L 133.658957 108.717958 
L 134.34533 103.780883 
L 135.031703 113.926928 
L 135.718076 119.784086 
L 136.40445 111.086106 
L 137.090823 118.174379 
L 138.463569 129.02494 
L 139.149943 131.633578 
L 139.836316 138.041324 
L 140.522689 137.159682 
L 141.209062 141.035854 
L 141.895436 139.953241 
L 142.581809 134.019094 
L 143.268182 136.566714 
L 143.954555 137.42717 
L 146.013675 121.454506 
L 146.700048 114.357738 
L 147.386422 109.585876 
L 148.072795 109.716386 
L 148.759168 107.745817 
L 149.445541 107.793639 
L 150.818288 96.164738 
L 151.504661 89.829252 
L 152.191034 97.335281 
L 152.877408 94.540034 
L 153.563781 96.621066 
L 154.250154 100.251919 
L 154.936527 109.724411 
L 155.622901 97.506431 
L 156.309274 91.337345 
L 156.995647 88.462693 
L 158.368394 107.956261 
L 159.054767 115.348464 
L 159.74114 115.284718 
L 160.427513 115.912433 
L 161.113887 114.735776 
L 161.80026 116.195206 
L 162.486633 116.070777 
L 163.173006 124.656781 
L 163.85938 120.519063 
L 164.545753 118.793336 
L 165.232126 110.150657 
L 165.918499 105.599937 
L 166.604873 111.603136 
L 167.291246 115.634939 
L 167.977619 117.30734 
L 168.663992 118.420117 
L 169.350366 126.71468 
L 170.036739 127.922372 
L 170.723112 126.654108 
L 171.409485 137.538812 
L 172.095859 131.303325 
L 172.782232 131.358451 
L 174.154978 125.902222 
L 174.841352 135.967813 
L 175.527725 138.895371 
L 176.214098 139.012665 
L 176.900471 137.947715 
L 177.586845 143.404815 
L 178.273218 141.187955 
L 178.959591 147.6 
L 179.645964 139.075197 
L 180.332337 139.762369 
L 181.018711 136.728138 
L 181.705084 138.600088 
L 183.07783 135.048305 
L 183.764204 130.593131 
L 184.450577 121.981694 
L 185.13695 125.74494 
L 185.823323 120.445558 
L 186.509697 124.046749 
L 187.19607 126.680295 
L 188.568816 115.908845 
L 189.25519 117.961064 
L 189.941563 114.673976 
L 190.627936 119.138627 
L 191.314309 122.82973 
L 192.000683 118.852305 
L 192.687056 116.14525 
L 193.373429 114.456875 
L 194.059802 119.08987 
L 194.746176 124.828093 
L 195.432549 131.840785 
L 196.118922 123.782741 
L 196.805295 119.286953 
L 197.491669 115.84291 
L 198.178042 109.596459 
L 198.864415 111.599121 
L 199.550788 113.189374 
L 200.923535 122.375614 
L 201.609908 123.226491 
L 202.296281 122.680105 
L 202.982655 130.118196 
L 203.669028 127.33743 
L 204.355401 126.204631 
L 205.041774 124.367007 
L 205.728148 127.548957 
L 206.414521 127.10869 
L 207.100894 128.324349 
L 207.787267 128.679891 
L 208.473641 129.840487 
L 209.160014 127.684955 
L 209.846387 123.380721 
L 210.53276 122.778138 
L 210.53276 122.778138 
" clip-path="url(#p3bd9b86f5b)" style="fill: none; stroke: #008000; stroke-width: 1.5; stroke-linecap: square"/>
   </g>
   <g id="patch_3">
    <path d="M 55.584 152.64 
L 55.584 41.76 
" style="fill: none; stroke: #000000; stroke-width: 0.8; stroke-linejoin: miter; stroke-linecap: square"/>
   </g>
   <g id="patch_4">
    <path d="M 217.911273 152.64 
L 217.911273 41.76 
" style="fill: none; stroke: #000000; stroke-width: 0.8; stroke-linejoin: miter; stroke-linecap: square"/>
   </g>
   <g id="patch_5">
    <path d="M 55.584 152.64 
L 217.911273 152.64 
" style="fill: none; stroke: #000000; stroke-width: 0.8; stroke-linejoin: miter; stroke-linecap: square"/>
   </g>
   <g id="patch_6">
    <path d="M 55.584 41.76 
L 217.911273 41.76 
" style="fill: none; stroke: #000000; stroke-width: 0.8; stroke-linejoin: miter; stroke-linecap: square"/>
   </g>
   <g id="text_10">
    <!-- No Prediction (FOSS) -->
    <g transform="translate(74.495761 35.76) scale(0.12 -0.12)">
     <defs>
      <path id="DejaVuSans-4e" d="M 628 4666 
L 1478 4666 
L 3547 763 
L 3547 4666 
L 4159 4666 
L 4159 0 
L 3309 0 
L 1241 3903 
L 1241 0 
L 628 0 
L 628 4666 
z
" transform="scale(0.015625)"/>
      <path id="DejaVuSans-6f" d="M 1959 3097 
Q 1497 3097 1228 2736 
Q 959 2375 959 1747 
Q 959 1119 1226 758 
Q 1494 397 1959 397 
Q 2419 397 2687 759 
Q 2956 1122 2956 1747 
Q 2956 2369 2687 2733 
Q 2419 3097 1959 3097 
z
M 1959 3584 
Q 2709 3584 3137 3096 
Q 3566 2609 3566 1747 
Q 3566 888 3137 398 
Q 2709 -91 1959 -91 
Q 1206 -91 779 398 
Q 353 888 353 1747 
Q 353 2609 779 3096 
Q 1206 3584 1959 3584 
z
" transform="scale(0.015625)"/>
      <path id="DejaVuSans-20" transform="scale(0.015625)"/>
      <path id="DejaVuSans-50" d="M 1259 4147 
L 1259 2394 
L 2053 2394 
Q 2494 2394 2734 2622 
Q 2975 2850 2975 3272 
Q 2975 3691 2734 3919 
Q 2494 4147 2053 4147 
L 1259 4147 
z
M 628 4666 
L 2053 4666 
Q 2838 4666 3239 4311 
Q 3641 3956 3641 3272 
Q 3641 2581 3239 2228 
Q 2838 1875 2053 1875 
L 1259 1875 
L 1259 0 
L 628 0 
L 628 4666 
z
" transform="scale(0.015625)"/>
      <path id="DejaVuSans-72" d="M 2631 2963 
Q 2534 3019 2420 3045 
Q 2306 3072 2169 3072 
Q 1681 3072 1420 2755 
Q 1159 2438 1159 1844 
L 1159 0 
L 581 0 
L 581 3500 
L 1159 3500 
L 1159 2956 
Q 1341 3275 1631 3429 
Q 1922 3584 2338 3584 
Q 2397 3584 2469 3576 
Q 2541 3569 2628 3553 
L 2631 2963 
z
" transform="scale(0.015625)"/>
      <path id="DejaVuSans-65" d="M 3597 1894 
L 3597 1613 
L 953 1613 
Q 991 1019 1311 708 
Q 1631 397 2203 397 
Q 2534 397 2845 478 
Q 3156 559 3463 722 
L 3463 178 
Q 3153 47 2828 -22 
Q 2503 -91 2169 -91 
Q 1331 -91 842 396 
Q 353 884 353 1716 
Q 353 2575 817 3079 
Q 1281 3584 2069 3584 
Q 2775 3584 3186 3129 
Q 3597 2675 3597 1894 
z
M 3022 2063 
Q 3016 2534 2758 2815 
Q 2500 3097 2075 3097 
Q 1594 3097 1305 2825 
Q 1016 2553 972 2059 
L 3022 2063 
z
" transform="scale(0.015625)"/>
      <path id="DejaVuSans-64" d="M 2906 2969 
L 2906 4863 
L 3481 4863 
L 3481 0 
L 2906 0 
L 2906 525 
Q 2725 213 2448 61 
Q 2172 -91 1784 -91 
Q 1150 -91 751 415 
Q 353 922 353 1747 
Q 353 2572 751 3078 
Q 1150 3584 1784 3584 
Q 2172 3584 2448 3432 
Q 2725 3281 2906 2969 
z
M 947 1747 
Q 947 1113 1208 752 
Q 1469 391 1925 391 
Q 2381 391 2643 752 
Q 2906 1113 2906 1747 
Q 2906 2381 2643 2742 
Q 2381 3103 1925 3103 
Q 1469 3103 1208 2742 
Q 947 2381 947 1747 
z
" transform="scale(0.015625)"/>
      <path id="DejaVuSans-69" d="M 603 3500 
L 1178 3500 
L 1178 0 
L 603 0 
L 603 3500 
z
M 603 4863 
L 1178 4863 
L 1178 4134 
L 603 4134 
L 603 4863 
z
" transform="scale(0.015625)"/>
      <path id="DejaVuSans-63" d="M 3122 3366 
L 3122 2828 
Q 2878 2963 2633 3030 
Q 2388 3097 2138 3097 
Q 1578 3097 1268 2742 
Q 959 2388 959 1747 
Q 959 1106 1268 751 
Q 1578 397 2138 397 
Q 2388 397 2633 464 
Q 2878 531 3122 666 
L 3122 134 
Q 2881 22 2623 -34 
Q 2366 -91 2075 -91 
Q 1284 -91 818 406 
Q 353 903 353 1747 
Q 353 2603 823 3093 
Q 1294 3584 2113 3584 
Q 2378 3584 2631 3529 
Q 2884 3475 3122 3366 
z
" transform="scale(0.015625)"/>
      <path id="DejaVuSans-74" d="M 1172 4494 
L 1172 3500 
L 2356 3500 
L 2356 3053 
L 1172 3053 
L 1172 1153 
Q 1172 725 1289 603 
Q 1406 481 1766 481 
L 2356 481 
L 2356 0 
L 1766 0 
Q 1100 0 847 248 
Q 594 497 594 1153 
L 594 3053 
L 172 3053 
L 172 3500 
L 594 3500 
L 594 4494 
L 1172 4494 
z
" transform="scale(0.015625)"/>
      <path id="DejaVuSans-6e" d="M 3513 2113 
L 3513 0 
L 2938 0 
L 2938 2094 
Q 2938 2591 2744 2837 
Q 2550 3084 2163 3084 
Q 1697 3084 1428 2787 
Q 1159 2491 1159 1978 
L 1159 0 
L 581 0 
L 581 3500 
L 1159 3500 
L 1159 2956 
Q 1366 3272 1645 3428 
Q 1925 3584 2291 3584 
Q 2894 3584 3203 3211 
Q 3513 2838 3513 2113 
z
" transform="scale(0.015625)"/>
      <path id="DejaVuSans-28" d="M 1984 4856 
Q 1566 4138 1362 3434 
Q 1159 2731 1159 2009 
Q 1159 1288 1364 580 
Q 1569 -128 1984 -844 
L 1484 -844 
Q 1016 -109 783 600 
Q 550 1309 550 2009 
Q 550 2706 781 3412 
Q 1013 4119 1484 4856 
L 1984 4856 
z
" transform="scale(0.015625)"/>
      <path id="DejaVuSans-46" d="M 628 4666 
L 3309 4666 
L 3309 4134 
L 1259 4134 
L 1259 2759 
L 3109 2759 
L 3109 2228 
L 1259 2228 
L 1259 0 
L 628 0 
L 628 4666 
z
" transform="scale(0.015625)"/>
      <path id="DejaVuSans-4f" d="M 2522 4238 
Q 1834 4238 1429 3725 
Q 1025 3213 1025 2328 
Q 1025 1447 1429 934 
Q 1834 422 2522 422 
Q 3209 422 3611 934 
Q 4013 1447 4013 2328 
Q 4013 3213 3611 3725 
Q 3209 4238 2522 4238 
z
M 2522 4750 
Q 3503 4750 4090 4092 
Q 4678 3434 4678 2328 
Q 4678 1225 4090 567 
Q 3503 -91 2522 -91 
Q 1538 -91 948 565 
Q 359 1222 359 2328 
Q 359 3434 948 4092 
Q 1538 4750 2522 4750 
z
" transform="scale(0.015625)"/>
      <path id="DejaVuSans-53" d="M 3425 4513 
L 3425 3897 
Q 3066 4069 2747 4153 
Q 2428 4238 2131 4238 
Q 1616 4238 1336 4038 
Q 1056 3838 1056 3469 
Q 1056 3159 1242 3001 
Q 1428 2844 1947 2747 
L 2328 2669 
Q 3034 2534 3370 2195 
Q 3706 1856 3706 1288 
Q 3706 609 3251 259 
Q 2797 -91 1919 -91 
Q 1588 -91 1214 -16 
Q 841 59 441 206 
L 441 856 
Q 825 641 1194 531 
Q 1563 422 1919 422 
Q 2459 422 2753 634 
Q 3047 847 3047 1241 
Q 3047 1584 2836 1778 
Q 2625 1972 2144 2069 
L 1759 2144 
Q 1053 2284 737 2584 
Q 422 2884 422 3419 
Q 422 4038 858 4394 
Q 1294 4750 2059 4750 
Q 2388 4750 2728 4690 
Q 3069 4631 3425 4513 
z
" transform="scale(0.015625)"/>
      <path id="DejaVuSans-29" d="M 513 4856 
L 1013 4856 
Q 1481 4119 1714 3412 
Q 1947 2706 1947 2009 
Q 1947 1309 1714 600 
Q 1481 -109 1013 -844 
L 513 -844 
Q 928 -128 1133 580 
Q 1338 1288 1338 2009 
Q 1338 2731 1133 3434 
Q 928 4138 513 4856 
z
" transform="scale(0.015625)"/>
     </defs>
     <use xlink:href="#DejaVuSans-4e"/>
     <use xlink:href="#DejaVuSans-6f" x="74.804688"/>
     <use xlink:href="#DejaVuSans-20" x="135.986328"/>
     <use xlink:href="#DejaVuSans-50" x="167.773438"/>
     <use xlink:href="#DejaVuSans-72" x="226.326172"/>
     <use xlink:href="#DejaVuSans-65" x="265.189453"/>
     <use xlink:href="#DejaVuSans-64" x="326.712891"/>
     <use xlink:href="#DejaVuSans-69" x="390.189453"/>
     <use xlink:href="#DejaVuSans-63" x="417.972656"/>
     <use xlink:href="#DejaVuSans-74" x="472.953125"/>
     <use xlink:href="#DejaVuSans-69" x="512.162109"/>
     <use xlink:href="#DejaVuSans-6f" x="539.945312"/>
     <use xlink:href="#DejaVuSans-6e" x="601.126953"/>
     <use xlink:href="#DejaVuSans-20" x="664.505859"/>
     <use xlink:href="#DejaVuSans-28" x="696.292969"/>
     <use xlink:href="#DejaVuSans-46" x="735.306641"/>
     <use xlink:href="#DejaVuSans-4f" x="792.826172"/>
     <use xlink:href="#DejaVuSans-53" x="871.537109"/>
     <use xlink:href="#DejaVuSans-53" x="935.013672"/>
     <use xlink:href="#DejaVuSans-29" x="998.490234"/>
    </g>
   </g>
  </g>
  <g id="axes_2">
   <g id="patch_7">
    <path d="M 250.376727 152.64 
L 412.704 152.64 
L 412.704 41.76 
L 250.376727 41.76 
z
" style="fill: #ffffff"/>
   </g>
   <g id="matplotlib.axis_3">
    <g id="xtick_6">
     <g id="line2d_11">
      <g>
       <use xlink:href="#mac944704f8" x="257.75524" y="152.64" style="stroke: #000000; stroke-width: 0.8"/>
      </g>
     </g>
     <g id="text_11">
      <!-- 0 -->
      <g transform="translate(254.57399 167.238437) scale(0.1 -0.1)">
       <use xlink:href="#DejaVuSans-30"/>
      </g>
     </g>
    </g>
    <g id="xtick_7">
     <g id="line2d_12">
      <g>
       <use xlink:href="#mac944704f8" x="292.073902" y="152.64" style="stroke: #000000; stroke-width: 0.8"/>
      </g>
     </g>
     <g id="text_12">
      <!-- 50 -->
      <g transform="translate(285.711402 167.238437) scale(0.1 -0.1)">
       <use xlink:href="#DejaVuSans-35"/>
       <use xlink:href="#DejaVuSans-30" x="63.623047"/>
      </g>
     </g>
    </g>
    <g id="xtick_8">
     <g id="line2d_13">
      <g>
       <use xlink:href="#mac944704f8" x="326.392564" y="152.64" style="stroke: #000000; stroke-width: 0.8"/>
      </g>
     </g>
     <g id="text_13">
      <!-- 100 -->
      <g transform="translate(316.848814 167.238437) scale(0.1 -0.1)">
       <use xlink:href="#DejaVuSans-31"/>
       <use xlink:href="#DejaVuSans-30" x="63.623047"/>
       <use xlink:href="#DejaVuSans-30" x="127.246094"/>
      </g>
     </g>
    </g>
    <g id="xtick_9">
     <g id="line2d_14">
      <g>
       <use xlink:href="#mac944704f8" x="360.711227" y="152.64" style="stroke: #000000; stroke-width: 0.8"/>
      </g>
     </g>
     <g id="text_14">
      <!-- 150 -->
      <g transform="translate(351.167477 167.238437) scale(0.1 -0.1)">
       <use xlink:href="#DejaVuSans-31"/>
       <use xlink:href="#DejaVuSans-35" x="63.623047"/>
       <use xlink:href="#DejaVuSans-30" x="127.246094"/>
      </g>
     </g>
    </g>
    <g id="xtick_10">
     <g id="line2d_15">
      <g>
       <use xlink:href="#mac944704f8" x="395.029889" y="152.64" style="stroke: #000000; stroke-width: 0.8"/>
      </g>
     </g>
     <g id="text_15">
      <!-- 200 -->
      <g transform="translate(385.486139 167.238437) scale(0.1 -0.1)">
       <use xlink:href="#DejaVuSans-32"/>
       <use xlink:href="#DejaVuSans-30" x="63.623047"/>
       <use xlink:href="#DejaVuSans-30" x="127.246094"/>
      </g>
     </g>
    </g>
   </g>
   <g id="matplotlib.axis_4">
    <g id="ytick_5">
     <g id="line2d_16">
      <g>
       <use xlink:href="#m221601dce3" x="250.376727" y="147.6" style="stroke: #000000; stroke-width: 0.8"/>
      </g>
     </g>
     <g id="text_16">
      <!-- 0 -->
      <g transform="translate(237.014227 151.399219) scale(0.1 -0.1)">
       <use xlink:href="#DejaVuSans-30"/>
      </g>
     </g>
    </g>
    <g id="ytick_6">
     <g id="line2d_17">
      <g>
       <use xlink:href="#m221601dce3" x="250.376727" y="105.449216" style="stroke: #000000; stroke-width: 0.8"/>
      </g>
     </g>
     <g id="text_17">
      <!-- 20 -->
      <g transform="translate(230.651727 109.248435) scale(0.1 -0.1)">
       <use xlink:href="#DejaVuSans-32"/>
       <use xlink:href="#DejaVuSans-30" x="63.623047"/>
      </g>
     </g>
    </g>
    <g id="ytick_7">
     <g id="line2d_18">
      <g>
       <use xlink:href="#m221601dce3" x="250.376727" y="63.298432" style="stroke: #000000; stroke-width: 0.8"/>
      </g>
     </g>
     <g id="text_18">
      <!-- 40 -->
      <g transform="translate(230.651727 67.097651) scale(0.1 -0.1)">
       <use xlink:href="#DejaVuSans-34"/>
       <use xlink:href="#DejaVuSans-30" x="63.623047"/>
      </g>
     </g>
    </g>
   </g>
   <g id="line2d_19">
    <path d="M 257.75524 52.50945 
L 258.441613 46.8 
L 259.127986 48.681017 
L 259.814359 51.529267 
L 260.500733 58.419949 
L 261.187106 66.990746 
L 261.873479 68.733352 
L 262.559852 68.311545 
L 263.246226 68.73939 
L 263.932599 65.536696 
L 264.618972 65.625141 
L 265.305345 70.218997 
L 265.991719 108.876667 
L 266.678092 113.349082 
L 267.364465 125.8676 
L 268.050838 126.364005 
L 268.737212 120.114163 
L 269.423585 103.619845 
L 270.109958 109.138963 
L 271.482705 130.355398 
L 272.169078 129.875503 
L 273.541824 124.733105 
L 274.228198 104.896497 
L 274.914571 103.592849 
L 275.600944 103.805251 
L 276.287317 105.423255 
L 276.973691 103.692664 
L 279.03281 88.555542 
L 279.719184 90.775559 
L 280.405557 86.707422 
L 281.09193 80.622997 
L 281.778303 76.704424 
L 282.464677 120.183878 
L 283.15105 121.740007 
L 283.837423 128.024499 
L 284.523796 141.16583 
L 285.21017 142.248722 
L 285.896543 147.6 
L 286.582916 142.203602 
L 287.269289 140.856517 
L 287.955663 142.094128 
L 288.642036 146.675315 
L 289.328409 147.6 
L 290.014782 147.6 
L 290.701155 83.994233 
L 291.387529 80.16812 
L 292.073902 80.761441 
L 292.760275 81.911224 
L 293.446648 87.951878 
L 294.133022 97.689982 
L 294.819395 103.490501 
L 295.505768 112.042798 
L 296.192141 118.93808 
L 296.878515 122.00161 
L 297.564888 119.365304 
L 298.251261 116.268844 
L 298.937634 147.6 
L 299.624008 146.221985 
L 300.310381 147.6 
L 300.996754 147.6 
L 301.683127 146.712286 
L 302.369501 147.6 
L 305.114994 147.6 
L 306.48774 128.397447 
L 307.174113 78.705254 
L 307.860487 89.206308 
L 308.54686 103.998709 
L 309.919606 111.75652 
L 310.60598 111.660532 
L 311.292353 102.599033 
L 311.978726 100.707649 
L 312.665099 95.276181 
L 313.351473 96.294477 
L 314.037846 101.777358 
L 314.724219 103.657936 
L 315.410592 147.6 
L 316.096966 147.244559 
L 316.783339 117.661371 
L 317.469712 139.090393 
L 318.156085 137.072144 
L 318.842459 136.877043 
L 319.528832 136.474648 
L 320.215205 139.134795 
L 320.901578 139.333249 
L 321.587952 138.102187 
L 322.274325 138.332874 
L 322.960698 135.532136 
L 323.647071 108.816939 
L 324.333445 102.623069 
L 325.019818 103.833225 
L 325.706191 99.80459 
L 326.392564 97.822232 
L 327.078938 108.138735 
L 328.451684 102.347201 
L 329.138057 97.94441 
L 329.824431 107.015027 
L 330.510804 112.290229 
L 331.197177 104.464359 
L 331.88355 147.6 
L 332.569924 146.270099 
L 333.256297 147.6 
L 333.94267 132.46661 
L 334.629043 135.217118 
L 335.315416 147.6 
L 336.688163 147.6 
L 337.374536 146.250212 
L 338.060909 133.344034 
L 338.747283 140.7955 
L 339.433656 128.919348 
L 340.120029 119.685144 
L 341.492776 107.404521 
L 342.179149 103.11091 
L 342.865522 103.254085 
L 343.551895 101.494912 
L 344.238269 101.518763 
L 345.611015 91.099329 
L 346.297388 85.453152 
L 346.983762 92.158176 
L 347.670135 89.662152 
L 348.356508 136.97329 
L 349.042881 135.534827 
L 349.729255 141.554351 
L 350.415628 132.741533 
L 351.102001 126.158741 
L 351.788374 146.818465 
L 352.474748 147.6 
L 355.906614 147.6 
L 356.592987 109.052727 
L 357.27936 108.951185 
L 357.965734 116.630302 
L 358.652107 112.919193 
L 359.33848 111.374286 
L 360.024853 103.585115 
L 360.711227 99.550842 
L 361.3976 104.96949 
L 362.083973 108.530795 
L 362.770346 109.637196 
L 363.45672 111.041308 
L 364.143093 118.448326 
L 364.829466 147.6 
L 366.202213 147.6 
L 366.888586 140.741954 
L 367.574959 146.349504 
L 368.261332 145.583612 
L 368.947706 147.6 
L 369.634079 147.397512 
L 370.320452 147.6 
L 372.379572 147.6 
L 373.065945 131.440367 
L 373.752318 137.18318 
L 374.438692 129.536229 
L 375.125065 130.153555 
L 375.811438 127.434424 
L 376.497811 129.12061 
L 377.870558 125.95133 
L 378.556931 121.953242 
L 379.243304 114.244869 
L 379.929677 117.602322 
L 380.616051 112.865817 
L 381.302424 147.253388 
L 381.988797 127.518972 
L 382.67517 137.897092 
L 383.361544 131.98865 
L 384.047917 136.872092 
L 384.73429 136.835942 
L 385.420663 129.211971 
L 386.107037 132.37006 
L 386.79341 132.64639 
L 387.479783 134.416291 
L 388.166156 123.068585 
L 388.85253 125.612406 
L 389.538903 116.791353 
L 390.225276 123.075353 
L 390.911649 115.85729 
L 391.598023 111.818573 
L 392.284396 108.743618 
L 392.970769 103.163122 
L 393.657142 104.937286 
L 394.343516 106.356099 
L 395.716262 114.573638 
L 396.402635 115.346637 
L 397.089009 114.886456 
L 397.775382 147.6 
L 398.461755 147.6 
L 399.148128 140.266893 
L 399.834502 140.78711 
L 400.520875 134.497855 
L 401.207248 136.554492 
L 401.893621 141.853487 
L 402.579995 133.09064 
L 403.266368 135.383386 
L 403.952741 136.056175 
L 404.639114 133.598669 
L 405.325488 147.6 
L 405.325488 147.6 
" clip-path="url(#p5860aca937)" style="fill: none; stroke: #0000ff; stroke-width: 1.5; stroke-linecap: square"/>
   </g>
   <g id="patch_8">
    <path d="M 250.376727 152.64 
L 250.376727 41.76 
" style="fill: none; stroke: #000000; stroke-width: 0.8; stroke-linejoin: miter; stroke-linecap: square"/>
   </g>
   <g id="patch_9">
    <path d="M 412.704 152.64 
L 412.704 41.76 
" style="fill: none; stroke: #000000; stroke-width: 0.8; stroke-linejoin: miter; stroke-linecap: square"/>
   </g>
   <g id="patch_10">
    <path d="M 250.376727 152.64 
L 412.704 152.64 
" style="fill: none; stroke: #000000; stroke-width: 0.8; stroke-linejoin: miter; stroke-linecap: square"/>
   </g>
   <g id="patch_11">
    <path d="M 250.376727 41.76 
L 412.704 41.76 
" style="fill: none; stroke: #000000; stroke-width: 0.8; stroke-linejoin: miter; stroke-linecap: square"/>
   </g>
   <g id="text_19">
    <!-- RNN -->
    <g transform="translate(318.393801 35.76) scale(0.12 -0.12)">
     <defs>
      <path id="DejaVuSans-52" d="M 2841 2188 
Q 3044 2119 3236 1894 
Q 3428 1669 3622 1275 
L 4263 0 
L 3584 0 
L 2988 1197 
Q 2756 1666 2539 1819 
Q 2322 1972 1947 1972 
L 1259 1972 
L 1259 0 
L 628 0 
L 628 4666 
L 2053 4666 
Q 2853 4666 3247 4331 
Q 3641 3997 3641 3322 
Q 3641 2881 3436 2590 
Q 3231 2300 2841 2188 
z
M 1259 4147 
L 1259 2491 
L 2053 2491 
Q 2509 2491 2742 2702 
Q 2975 2913 2975 3322 
Q 2975 3731 2742 3939 
Q 2509 4147 2053 4147 
L 1259 4147 
z
" transform="scale(0.015625)"/>
     </defs>
     <use xlink:href="#DejaVuSans-52"/>
     <use xlink:href="#DejaVuSans-4e" x="69.482422"/>
     <use xlink:href="#DejaVuSans-4e" x="144.287109"/>
    </g>
   </g>
  </g>
  <g id="axes_3">
   <g id="patch_12">
    <path d="M 55.584 307.872 
L 217.911273 307.872 
L 217.911273 196.992 
L 55.584 196.992 
z
" style="fill: #ffffff"/>
   </g>
   <g id="matplotlib.axis_5">
    <g id="xtick_11">
     <g id="line2d_20">
      <g>
       <use xlink:href="#mac944704f8" x="62.962512" y="307.872" style="stroke: #000000; stroke-width: 0.8"/>
      </g>
     </g>
     <g id="text_20">
      <!-- 0 -->
      <g transform="translate(59.781262 322.470437) scale(0.1 -0.1)">
       <use xlink:href="#DejaVuSans-30"/>
      </g>
     </g>
    </g>
    <g id="xtick_12">
     <g id="line2d_21">
      <g>
       <use xlink:href="#mac944704f8" x="97.281175" y="307.872" style="stroke: #000000; stroke-width: 0.8"/>
      </g>
     </g>
     <g id="text_21">
      <!-- 50 -->
      <g transform="translate(90.918675 322.470437) scale(0.1 -0.1)">
       <use xlink:href="#DejaVuSans-35"/>
       <use xlink:href="#DejaVuSans-30" x="63.623047"/>
      </g>
     </g>
    </g>
    <g id="xtick_13">
     <g id="line2d_22">
      <g>
       <use xlink:href="#mac944704f8" x="131.599837" y="307.872" style="stroke: #000000; stroke-width: 0.8"/>
      </g>
     </g>
     <g id="text_22">
      <!-- 100 -->
      <g transform="translate(122.056087 322.470437) scale(0.1 -0.1)">
       <use xlink:href="#DejaVuSans-31"/>
       <use xlink:href="#DejaVuSans-30" x="63.623047"/>
       <use xlink:href="#DejaVuSans-30" x="127.246094"/>
      </g>
     </g>
    </g>
    <g id="xtick_14">
     <g id="line2d_23">
      <g>
       <use xlink:href="#mac944704f8" x="165.918499" y="307.872" style="stroke: #000000; stroke-width: 0.8"/>
      </g>
     </g>
     <g id="text_23">
      <!-- 150 -->
      <g transform="translate(156.374749 322.470437) scale(0.1 -0.1)">
       <use xlink:href="#DejaVuSans-31"/>
       <use xlink:href="#DejaVuSans-35" x="63.623047"/>
       <use xlink:href="#DejaVuSans-30" x="127.246094"/>
      </g>
     </g>
    </g>
    <g id="xtick_15">
     <g id="line2d_24">
      <g>
       <use xlink:href="#mac944704f8" x="200.237162" y="307.872" style="stroke: #000000; stroke-width: 0.8"/>
      </g>
     </g>
     <g id="text_24">
      <!-- 200 -->
      <g transform="translate(190.693412 322.470437) scale(0.1 -0.1)">
       <use xlink:href="#DejaVuSans-32"/>
       <use xlink:href="#DejaVuSans-30" x="63.623047"/>
       <use xlink:href="#DejaVuSans-30" x="127.246094"/>
      </g>
     </g>
    </g>
   </g>
   <g id="matplotlib.axis_6">
    <g id="ytick_8">
     <g id="line2d_25">
      <g>
       <use xlink:href="#m221601dce3" x="55.584" y="302.832" style="stroke: #000000; stroke-width: 0.8"/>
      </g>
     </g>
     <g id="text_25">
      <!-- 0 -->
      <g transform="translate(42.2215 306.631219) scale(0.1 -0.1)">
       <use xlink:href="#DejaVuSans-30"/>
      </g>
     </g>
    </g>
    <g id="ytick_9">
     <g id="line2d_26">
      <g>
       <use xlink:href="#m221601dce3" x="55.584" y="260.681216" style="stroke: #000000; stroke-width: 0.8"/>
      </g>
     </g>
     <g id="text_26">
      <!-- 20 -->
      <g transform="translate(35.859 264.480435) scale(0.1 -0.1)">
       <use xlink:href="#DejaVuSans-32"/>
       <use xlink:href="#DejaVuSans-30" x="63.623047"/>
      </g>
     </g>
    </g>
    <g id="ytick_10">
     <g id="line2d_27">
      <g>
       <use xlink:href="#m221601dce3" x="55.584" y="218.530432" style="stroke: #000000; stroke-width: 0.8"/>
      </g>
     </g>
     <g id="text_27">
      <!-- 40 -->
      <g transform="translate(35.859 222.329651) scale(0.1 -0.1)">
       <use xlink:href="#DejaVuSans-34"/>
       <use xlink:href="#DejaVuSans-30" x="63.623047"/>
      </g>
     </g>
    </g>
   </g>
   <g id="line2d_28">
    <path d="M 62.962512 207.74145 
L 63.648886 202.032 
L 64.335259 203.913017 
L 65.021632 206.761267 
L 65.708005 213.651949 
L 66.394379 222.222746 
L 67.080752 223.965352 
L 67.767125 223.543545 
L 68.453498 223.97139 
L 69.139872 220.768696 
L 69.826245 220.857141 
L 70.512618 225.450997 
L 71.198991 293.365282 
L 71.885365 294.763158 
L 72.571738 296.779782 
L 73.258111 296.114002 
L 74.630858 290.157097 
L 75.317231 292.853407 
L 76.003604 291.959292 
L 76.689977 297.067318 
L 77.376351 300.846363 
L 78.062724 298.324536 
L 78.749097 301.256273 
L 79.43547 260.128497 
L 80.121844 258.824849 
L 80.808217 259.037251 
L 81.49459 260.655255 
L 82.180963 258.924664 
L 84.240083 243.787542 
L 84.926456 246.007559 
L 85.61283 241.939422 
L 86.299203 235.854997 
L 86.985576 231.936424 
L 87.671949 285.777616 
L 88.358323 286.072155 
L 89.044696 287.767 
L 89.731069 286.730864 
L 90.417442 290.584411 
L 91.103815 290.3433 
L 91.790189 296.110115 
L 92.476562 295.719791 
L 93.162935 300.678426 
L 93.849308 302.832 
L 95.222055 302.832 
L 95.908428 239.226233 
L 96.594801 235.40012 
L 97.281175 235.993441 
L 97.967548 237.143224 
L 98.653921 243.183878 
L 99.340294 252.921982 
L 100.026668 258.722501 
L 100.713041 267.274798 
L 101.399414 274.17008 
L 102.085787 277.23361 
L 102.772161 274.597304 
L 103.458534 271.500844 
L 104.144907 302.832 
L 110.322266 302.832 
L 111.00864 302.177021 
L 111.695013 290.456132 
L 112.381386 233.937254 
L 113.067759 244.438308 
L 113.754133 259.230709 
L 115.126879 266.98852 
L 115.813252 266.892532 
L 116.499626 257.831033 
L 117.185999 255.939649 
L 117.872372 250.508181 
L 118.558745 251.526477 
L 119.245119 257.009358 
L 119.931492 258.889936 
L 120.617865 302.832 
L 125.422478 302.832 
L 126.108851 302.635672 
L 126.795224 302.832 
L 127.481598 302.442025 
L 128.167971 302.832 
L 128.854344 264.048939 
L 129.540717 257.855069 
L 130.227091 259.065225 
L 130.913464 255.03659 
L 131.599837 253.054232 
L 132.28621 263.370735 
L 133.658957 257.579201 
L 134.34533 253.17641 
L 135.031703 262.247027 
L 135.718076 267.522229 
L 136.40445 259.696359 
L 137.090823 302.832 
L 144.640929 302.832 
L 145.327302 274.917144 
L 146.700048 262.636521 
L 147.386422 258.34291 
L 148.072795 258.486085 
L 148.759168 256.726912 
L 149.445541 256.750763 
L 150.818288 246.331329 
L 151.504661 240.685152 
L 152.191034 247.390176 
L 152.877408 244.894152 
L 153.563781 301.080159 
L 154.250154 300.793885 
L 154.936527 302.832 
L 161.113887 302.832 
L 161.80026 264.284727 
L 162.486633 264.183185 
L 163.173006 271.862302 
L 163.85938 268.151193 
L 164.545753 266.606286 
L 165.232126 258.817115 
L 165.918499 254.782842 
L 166.604873 260.20149 
L 167.291246 263.762795 
L 167.977619 264.869196 
L 168.663992 266.273308 
L 169.350366 273.680326 
L 170.036739 302.832 
L 171.409485 302.832 
L 172.095859 302.495538 
L 172.782232 301.557856 
L 173.468605 294.327883 
L 174.154978 289.549601 
L 174.841352 282.031486 
L 175.527725 277.468967 
L 176.214098 274.945863 
L 176.900471 288.200997 
L 177.586845 295.423591 
L 178.273218 286.672367 
L 178.959591 292.41518 
L 179.645964 284.768229 
L 180.332337 285.385555 
L 181.018711 282.666424 
L 181.705084 284.35261 
L 183.07783 281.18333 
L 183.764204 277.185242 
L 184.450577 269.476869 
L 185.13695 272.834322 
L 185.823323 268.097817 
L 186.509697 277.451824 
L 187.19607 291.952512 
L 187.882443 300.578356 
L 188.568816 302.832 
L 194.059802 302.832 
L 194.746176 272.023353 
L 195.432549 278.307353 
L 196.118922 271.08929 
L 196.805295 267.050573 
L 197.491669 263.975618 
L 198.178042 258.395122 
L 198.864415 260.169286 
L 199.550788 261.588099 
L 200.923535 269.805638 
L 201.609908 270.578637 
L 202.296281 270.118456 
L 202.982655 302.832 
L 206.414521 302.832 
L 207.100894 299.007556 
L 207.787267 302.832 
L 208.473641 301.2824 
L 209.160014 298.975357 
L 209.846387 297.552568 
L 210.53276 296.55245 
L 210.53276 296.55245 
" clip-path="url(#pb6a89d8131)" style="fill: none; stroke: #ffa500; stroke-width: 1.5; stroke-linecap: square"/>
   </g>
   <g id="patch_13">
    <path d="M 55.584 307.872 
L 55.584 196.992 
" style="fill: none; stroke: #000000; stroke-width: 0.8; stroke-linejoin: miter; stroke-linecap: square"/>
   </g>
   <g id="patch_14">
    <path d="M 217.911273 307.872 
L 217.911273 196.992 
" style="fill: none; stroke: #000000; stroke-width: 0.8; stroke-linejoin: miter; stroke-linecap: square"/>
   </g>
   <g id="patch_15">
    <path d="M 55.584 307.872 
L 217.911273 307.872 
" style="fill: none; stroke: #000000; stroke-width: 0.8; stroke-linejoin: miter; stroke-linecap: square"/>
   </g>
   <g id="patch_16">
    <path d="M 55.584 196.992 
L 217.911273 196.992 
" style="fill: none; stroke: #000000; stroke-width: 0.8; stroke-linejoin: miter; stroke-linecap: square"/>
   </g>
   <g id="text_28">
    <!-- VAE -->
    <g transform="translate(125.130136 190.992) scale(0.12 -0.12)">
     <defs>
      <path id="DejaVuSans-56" d="M 1831 0 
L 50 4666 
L 709 4666 
L 2188 738 
L 3669 4666 
L 4325 4666 
L 2547 0 
L 1831 0 
z
" transform="scale(0.015625)"/>
      <path id="DejaVuSans-41" d="M 2188 4044 
L 1331 1722 
L 3047 1722 
L 2188 4044 
z
M 1831 4666 
L 2547 4666 
L 4325 0 
L 3669 0 
L 3244 1197 
L 1141 1197 
L 716 0 
L 50 0 
L 1831 4666 
z
" transform="scale(0.015625)"/>
      <path id="DejaVuSans-45" d="M 628 4666 
L 3578 4666 
L 3578 4134 
L 1259 4134 
L 1259 2753 
L 3481 2753 
L 3481 2222 
L 1259 2222 
L 1259 531 
L 3634 531 
L 3634 0 
L 628 0 
L 628 4666 
z
" transform="scale(0.015625)"/>
     </defs>
     <use xlink:href="#DejaVuSans-56"/>
     <use xlink:href="#DejaVuSans-41" x="62.033203"/>
     <use xlink:href="#DejaVuSans-45" x="130.441406"/>
    </g>
   </g>
  </g>
  <g id="axes_4">
   <g id="patch_17">
    <path d="M 250.376727 307.872 
L 412.704 307.872 
L 412.704 196.992 
L 250.376727 196.992 
z
" style="fill: #ffffff"/>
   </g>
   <g id="matplotlib.axis_7">
    <g id="xtick_16">
     <g id="line2d_29">
      <g>
       <use xlink:href="#mac944704f8" x="257.75524" y="307.872" style="stroke: #000000; stroke-width: 0.8"/>
      </g>
     </g>
     <g id="text_29">
      <!-- 0 -->
      <g transform="translate(254.57399 322.470437) scale(0.1 -0.1)">
       <use xlink:href="#DejaVuSans-30"/>
      </g>
     </g>
    </g>
    <g id="xtick_17">
     <g id="line2d_30">
      <g>
       <use xlink:href="#mac944704f8" x="292.073902" y="307.872" style="stroke: #000000; stroke-width: 0.8"/>
      </g>
     </g>
     <g id="text_30">
      <!-- 50 -->
      <g transform="translate(285.711402 322.470437) scale(0.1 -0.1)">
       <use xlink:href="#DejaVuSans-35"/>
       <use xlink:href="#DejaVuSans-30" x="63.623047"/>
      </g>
     </g>
    </g>
    <g id="xtick_18">
     <g id="line2d_31">
      <g>
       <use xlink:href="#mac944704f8" x="326.392564" y="307.872" style="stroke: #000000; stroke-width: 0.8"/>
      </g>
     </g>
     <g id="text_31">
      <!-- 100 -->
      <g transform="translate(316.848814 322.470437) scale(0.1 -0.1)">
       <use xlink:href="#DejaVuSans-31"/>
       <use xlink:href="#DejaVuSans-30" x="63.623047"/>
       <use xlink:href="#DejaVuSans-30" x="127.246094"/>
      </g>
     </g>
    </g>
    <g id="xtick_19">
     <g id="line2d_32">
      <g>
       <use xlink:href="#mac944704f8" x="360.711227" y="307.872" style="stroke: #000000; stroke-width: 0.8"/>
      </g>
     </g>
     <g id="text_32">
      <!-- 150 -->
      <g transform="translate(351.167477 322.470437) scale(0.1 -0.1)">
       <use xlink:href="#DejaVuSans-31"/>
       <use xlink:href="#DejaVuSans-35" x="63.623047"/>
       <use xlink:href="#DejaVuSans-30" x="127.246094"/>
      </g>
     </g>
    </g>
    <g id="xtick_20">
     <g id="line2d_33">
      <g>
       <use xlink:href="#mac944704f8" x="395.029889" y="307.872" style="stroke: #000000; stroke-width: 0.8"/>
      </g>
     </g>
     <g id="text_33">
      <!-- 200 -->
      <g transform="translate(385.486139 322.470437) scale(0.1 -0.1)">
       <use xlink:href="#DejaVuSans-32"/>
       <use xlink:href="#DejaVuSans-30" x="63.623047"/>
       <use xlink:href="#DejaVuSans-30" x="127.246094"/>
      </g>
     </g>
    </g>
   </g>
   <g id="matplotlib.axis_8">
    <g id="ytick_11">
     <g id="line2d_34">
      <g>
       <use xlink:href="#m221601dce3" x="250.376727" y="302.832" style="stroke: #000000; stroke-width: 0.8"/>
      </g>
     </g>
     <g id="text_34">
      <!-- 0 -->
      <g transform="translate(237.014227 306.631219) scale(0.1 -0.1)">
       <use xlink:href="#DejaVuSans-30"/>
      </g>
     </g>
    </g>
    <g id="ytick_12">
     <g id="line2d_35">
      <g>
       <use xlink:href="#m221601dce3" x="250.376727" y="260.638185" style="stroke: #000000; stroke-width: 0.8"/>
      </g>
     </g>
     <g id="text_35">
      <!-- 20 -->
      <g transform="translate(230.651727 264.437404) scale(0.1 -0.1)">
       <use xlink:href="#DejaVuSans-32"/>
       <use xlink:href="#DejaVuSans-30" x="63.623047"/>
      </g>
     </g>
    </g>
    <g id="ytick_13">
     <g id="line2d_36">
      <g>
       <use xlink:href="#m221601dce3" x="250.376727" y="218.444371" style="stroke: #000000; stroke-width: 0.8"/>
      </g>
     </g>
     <g id="text_36">
      <!-- 40 -->
      <g transform="translate(230.651727 222.243589) scale(0.1 -0.1)">
       <use xlink:href="#DejaVuSans-34"/>
       <use xlink:href="#DejaVuSans-30" x="63.623047"/>
      </g>
     </g>
    </g>
   </g>
   <g id="line2d_37">
    <path d="M 257.75524 207.536945 
L 258.441613 202.032 
L 259.127986 203.837163 
L 259.814359 206.650999 
L 260.500733 213.584991 
L 261.187106 222.138716 
L 261.873479 223.893598 
L 262.559852 223.485806 
L 263.246226 223.903278 
L 263.932599 220.72513 
L 264.618972 220.766773 
L 265.305345 225.291726 
L 265.991719 253.129623 
L 266.678092 253.649096 
L 267.364465 264.581368 
L 268.050838 273.54771 
L 268.737212 268.07324 
L 269.423585 268.535954 
L 270.109958 271.886491 
L 270.796331 262.991349 
L 271.482705 276.037839 
L 272.169078 274.52125 
L 272.855451 267.568102 
L 273.541824 270.092437 
L 274.228198 260.077305 
L 274.914571 258.761333 
L 275.600944 259.013466 
L 276.287317 260.631496 
L 276.973691 259.212376 
L 278.346437 247.701783 
L 279.03281 243.697685 
L 279.719184 245.955185 
L 280.405557 241.915971 
L 281.09193 235.743001 
L 281.778303 231.877307 
L 282.464677 254.496139 
L 283.15105 257.370616 
L 283.837423 262.215677 
L 284.523796 250.690532 
L 285.21017 249.220573 
L 285.896543 255.189787 
L 286.582916 255.15153 
L 287.269289 253.848217 
L 287.955663 266.268003 
L 288.642036 264.525575 
L 289.328409 266.451061 
L 290.014782 254.581609 
L 290.701155 239.154523 
L 291.387529 235.335101 
L 292.073902 235.940304 
L 292.760275 237.075786 
L 293.446648 243.121712 
L 294.133022 253.426902 
L 294.819395 258.690462 
L 295.505768 267.232813 
L 296.192141 274.155546 
L 296.878515 277.206625 
L 297.564888 274.575304 
L 298.251261 271.475806 
L 298.937634 277.445359 
L 299.624008 270.93178 
L 300.310381 269.180036 
L 300.996754 271.603491 
L 301.683127 285.493435 
L 302.369501 262.138245 
L 303.055874 268.746474 
L 303.742247 262.646527 
L 304.42862 272.322309 
L 305.114994 276.688793 
L 305.801367 261.421182 
L 306.48774 259.442518 
L 307.174113 233.860413 
L 307.860487 244.373771 
L 308.54686 259.175855 
L 309.919606 266.94819 
L 310.60598 266.848927 
L 311.292353 257.792605 
L 311.978726 255.875386 
L 312.665099 250.460177 
L 313.351473 251.478805 
L 314.037846 256.972368 
L 314.724219 258.839691 
L 315.410592 259.423744 
L 316.096966 259.05886 
L 316.783339 253.827564 
L 317.469712 257.265376 
L 318.156085 264.730287 
L 318.842459 268.841684 
L 319.528832 262.947489 
L 320.215205 269.145908 
L 320.901578 262.721045 
L 321.587952 258.308028 
L 322.274325 267.711616 
L 322.960698 271.942041 
L 323.647071 264.044817 
L 324.333445 257.827738 
L 325.019818 259.026782 
L 325.706191 254.967923 
L 326.392564 252.997615 
L 327.078938 263.338792 
L 328.451684 257.542104 
L 329.138057 253.115965 
L 329.824431 262.212002 
L 330.510804 267.463005 
L 331.197177 259.665175 
L 332.569924 277.421442 
L 333.256297 278.427123 
L 333.94267 280.708222 
L 334.629043 277.859186 
L 335.315416 292.823182 
L 336.00179 283.935962 
L 336.688163 283.430845 
L 337.374536 286.609982 
L 338.060909 282.654426 
L 338.747283 295.393669 
L 340.120029 274.874838 
L 341.492776 262.598227 
L 342.179149 258.320203 
L 342.865522 258.437206 
L 343.551895 256.67057 
L 344.238269 256.713443 
L 345.611015 246.28801 
L 346.297388 240.60818 
L 346.983762 247.337414 
L 347.670135 244.831446 
L 348.356508 249.651235 
L 349.042881 257.193541 
L 349.729255 275.089706 
L 350.415628 270.803232 
L 351.102001 259.72697 
L 351.788374 244.538448 
L 352.474748 246.475756 
L 353.161121 268.518346 
L 353.847494 269.221042 
L 354.533867 266.684624 
L 355.220241 274.938747 
L 355.906614 278.081912 
L 356.592987 264.245537 
L 357.27936 264.133985 
L 357.965734 271.831428 
L 358.652107 268.121921 
L 359.33848 266.574788 
L 360.024853 258.826535 
L 360.711227 254.746766 
L 361.3976 260.128697 
L 362.083973 263.743251 
L 362.770346 265.242577 
L 363.45672 266.240193 
L 364.143093 273.676357 
L 365.515839 280.643541 
L 366.202213 288.173116 
L 366.888586 290.139364 
L 367.574959 286.511177 
L 368.261332 279.572067 
L 368.947706 278.725267 
L 369.634079 285.643656 
L 370.320452 302.832 
L 372.379572 302.832 
L 373.065945 286.651801 
L 373.752318 292.400267 
L 374.438692 284.757691 
L 375.125065 285.373748 
L 375.811438 282.653528 
L 376.497811 284.331751 
L 377.870558 281.14754 
L 378.556931 277.153429 
L 379.243304 269.433184 
L 379.929677 272.806974 
L 380.616051 268.056023 
L 381.302424 272.409998 
L 381.988797 277.529958 
L 382.67517 271.454433 
L 383.361544 264.262322 
L 384.047917 267.664694 
L 384.73429 263.139983 
L 385.420663 265.368608 
L 386.107037 263.945877 
L 386.79341 267.820121 
L 387.479783 269.591312 
L 388.166156 266.982681 
L 388.85253 271.802534 
L 389.538903 271.985011 
L 390.225276 278.271964 
L 390.911649 271.047842 
L 391.598023 267.017321 
L 392.284396 263.9297 
L 392.970769 258.32969 
L 393.657142 260.125098 
L 394.343516 261.550776 
L 395.716262 269.786338 
L 396.402635 270.549158 
L 397.089009 270.059317 
L 397.775382 282.288631 
L 398.461755 280.571223 
L 399.148128 282.179069 
L 399.834502 278.200998 
L 400.520875 280.425857 
L 401.207248 280.296725 
L 401.893621 283.250304 
L 402.579995 283.462408 
L 403.266368 288.132624 
L 403.952741 284.753974 
L 404.639114 279.812856 
L 405.325488 282.528577 
L 405.325488 282.528577 
" clip-path="url(#p2201f03d51)" style="fill: none; stroke: #ff0000; stroke-width: 1.5; stroke-linecap: square"/>
   </g>
   <g id="patch_18">
    <path d="M 250.376727 307.872 
L 250.376727 196.992 
" style="fill: none; stroke: #000000; stroke-width: 0.8; stroke-linejoin: miter; stroke-linecap: square"/>
   </g>
   <g id="patch_19">
    <path d="M 412.704 307.872 
L 412.704 196.992 
" style="fill: none; stroke: #000000; stroke-width: 0.8; stroke-linejoin: miter; stroke-linecap: square"/>
   </g>
   <g id="patch_20">
    <path d="M 250.376727 307.872 
L 412.704 307.872 
" style="fill: none; stroke: #000000; stroke-width: 0.8; stroke-linejoin: miter; stroke-linecap: square"/>
   </g>
   <g id="patch_21">
    <path d="M 250.376727 196.992 
L 412.704 196.992 
" style="fill: none; stroke: #000000; stroke-width: 0.8; stroke-linejoin: miter; stroke-linecap: square"/>
   </g>
   <g id="text_37">
    <!-- VRNN -->
    <g transform="translate(314.289426 190.992) scale(0.12 -0.12)">
     <use xlink:href="#DejaVuSans-56"/>
     <use xlink:href="#DejaVuSans-52" x="68.408203"/>
     <use xlink:href="#DejaVuSans-4e" x="137.890625"/>
     <use xlink:href="#DejaVuSans-4e" x="212.695312"/>
    </g>
   </g>
  </g>
  <g id="text_38">
   <!-- VMAF Scores Over Frames: Video #28 -->
   <g transform="translate(114.338063 16.318125) scale(0.12 -0.12)">
    <defs>
     <path id="DejaVuSans-4d" d="M 628 4666 
L 1569 4666 
L 2759 1491 
L 3956 4666 
L 4897 4666 
L 4897 0 
L 4281 0 
L 4281 4097 
L 3078 897 
L 2444 897 
L 1241 4097 
L 1241 0 
L 628 0 
L 628 4666 
z
" transform="scale(0.015625)"/>
     <path id="DejaVuSans-73" d="M 2834 3397 
L 2834 2853 
Q 2591 2978 2328 3040 
Q 2066 3103 1784 3103 
Q 1356 3103 1142 2972 
Q 928 2841 928 2578 
Q 928 2378 1081 2264 
Q 1234 2150 1697 2047 
L 1894 2003 
Q 2506 1872 2764 1633 
Q 3022 1394 3022 966 
Q 3022 478 2636 193 
Q 2250 -91 1575 -91 
Q 1294 -91 989 -36 
Q 684 19 347 128 
L 347 722 
Q 666 556 975 473 
Q 1284 391 1588 391 
Q 1994 391 2212 530 
Q 2431 669 2431 922 
Q 2431 1156 2273 1281 
Q 2116 1406 1581 1522 
L 1381 1569 
Q 847 1681 609 1914 
Q 372 2147 372 2553 
Q 372 3047 722 3315 
Q 1072 3584 1716 3584 
Q 2034 3584 2315 3537 
Q 2597 3491 2834 3397 
z
" transform="scale(0.015625)"/>
     <path id="DejaVuSans-76" d="M 191 3500 
L 800 3500 
L 1894 563 
L 2988 3500 
L 3597 3500 
L 2284 0 
L 1503 0 
L 191 3500 
z
" transform="scale(0.015625)"/>
     <path id="DejaVuSans-61" d="M 2194 1759 
Q 1497 1759 1228 1600 
Q 959 1441 959 1056 
Q 959 750 1161 570 
Q 1363 391 1709 391 
Q 2188 391 2477 730 
Q 2766 1069 2766 1631 
L 2766 1759 
L 2194 1759 
z
M 3341 1997 
L 3341 0 
L 2766 0 
L 2766 531 
Q 2569 213 2275 61 
Q 1981 -91 1556 -91 
Q 1019 -91 701 211 
Q 384 513 384 1019 
Q 384 1609 779 1909 
Q 1175 2209 1959 2209 
L 2766 2209 
L 2766 2266 
Q 2766 2663 2505 2880 
Q 2244 3097 1772 3097 
Q 1472 3097 1187 3025 
Q 903 2953 641 2809 
L 641 3341 
Q 956 3463 1253 3523 
Q 1550 3584 1831 3584 
Q 2591 3584 2966 3190 
Q 3341 2797 3341 1997 
z
" transform="scale(0.015625)"/>
     <path id="DejaVuSans-6d" d="M 3328 2828 
Q 3544 3216 3844 3400 
Q 4144 3584 4550 3584 
Q 5097 3584 5394 3201 
Q 5691 2819 5691 2113 
L 5691 0 
L 5113 0 
L 5113 2094 
Q 5113 2597 4934 2840 
Q 4756 3084 4391 3084 
Q 3944 3084 3684 2787 
Q 3425 2491 3425 1978 
L 3425 0 
L 2847 0 
L 2847 2094 
Q 2847 2600 2669 2842 
Q 2491 3084 2119 3084 
Q 1678 3084 1418 2786 
Q 1159 2488 1159 1978 
L 1159 0 
L 581 0 
L 581 3500 
L 1159 3500 
L 1159 2956 
Q 1356 3278 1631 3431 
Q 1906 3584 2284 3584 
Q 2666 3584 2933 3390 
Q 3200 3197 3328 2828 
z
" transform="scale(0.015625)"/>
     <path id="DejaVuSans-3a" d="M 750 794 
L 1409 794 
L 1409 0 
L 750 0 
L 750 794 
z
M 750 3309 
L 1409 3309 
L 1409 2516 
L 750 2516 
L 750 3309 
z
" transform="scale(0.015625)"/>
     <path id="DejaVuSans-23" d="M 3272 2816 
L 2363 2816 
L 2100 1772 
L 3016 1772 
L 3272 2816 
z
M 2803 4594 
L 2478 3297 
L 3391 3297 
L 3719 4594 
L 4219 4594 
L 3897 3297 
L 4872 3297 
L 4872 2816 
L 3775 2816 
L 3519 1772 
L 4513 1772 
L 4513 1294 
L 3397 1294 
L 3072 0 
L 2572 0 
L 2894 1294 
L 1978 1294 
L 1656 0 
L 1153 0 
L 1478 1294 
L 494 1294 
L 494 1772 
L 1594 1772 
L 1856 2816 
L 850 2816 
L 850 3297 
L 1978 3297 
L 2297 4594 
L 2803 4594 
z
" transform="scale(0.015625)"/>
     <path id="DejaVuSans-38" d="M 2034 2216 
Q 1584 2216 1326 1975 
Q 1069 1734 1069 1313 
Q 1069 891 1326 650 
Q 1584 409 2034 409 
Q 2484 409 2743 651 
Q 3003 894 3003 1313 
Q 3003 1734 2745 1975 
Q 2488 2216 2034 2216 
z
M 1403 2484 
Q 997 2584 770 2862 
Q 544 3141 544 3541 
Q 544 4100 942 4425 
Q 1341 4750 2034 4750 
Q 2731 4750 3128 4425 
Q 3525 4100 3525 3541 
Q 3525 3141 3298 2862 
Q 3072 2584 2669 2484 
Q 3125 2378 3379 2068 
Q 3634 1759 3634 1313 
Q 3634 634 3220 271 
Q 2806 -91 2034 -91 
Q 1263 -91 848 271 
Q 434 634 434 1313 
Q 434 1759 690 2068 
Q 947 2378 1403 2484 
z
M 1172 3481 
Q 1172 3119 1398 2916 
Q 1625 2713 2034 2713 
Q 2441 2713 2670 2916 
Q 2900 3119 2900 3481 
Q 2900 3844 2670 4047 
Q 2441 4250 2034 4250 
Q 1625 4250 1398 4047 
Q 1172 3844 1172 3481 
z
" transform="scale(0.015625)"/>
    </defs>
    <use xlink:href="#DejaVuSans-56"/>
    <use xlink:href="#DejaVuSans-4d" x="68.408203"/>
    <use xlink:href="#DejaVuSans-41" x="154.6875"/>
    <use xlink:href="#DejaVuSans-46" x="223.095703"/>
    <use xlink:href="#DejaVuSans-20" x="280.615234"/>
    <use xlink:href="#DejaVuSans-53" x="312.402344"/>
    <use xlink:href="#DejaVuSans-63" x="375.878906"/>
    <use xlink:href="#DejaVuSans-6f" x="430.859375"/>
    <use xlink:href="#DejaVuSans-72" x="492.041016"/>
    <use xlink:href="#DejaVuSans-65" x="530.904297"/>
    <use xlink:href="#DejaVuSans-73" x="592.427734"/>
    <use xlink:href="#DejaVuSans-20" x="644.527344"/>
    <use xlink:href="#DejaVuSans-4f" x="676.314453"/>
    <use xlink:href="#DejaVuSans-76" x="755.025391"/>
    <use xlink:href="#DejaVuSans-65" x="814.205078"/>
    <use xlink:href="#DejaVuSans-72" x="875.728516"/>
    <use xlink:href="#DejaVuSans-20" x="916.841797"/>
    <use xlink:href="#DejaVuSans-46" x="948.628906"/>
    <use xlink:href="#DejaVuSans-72" x="998.898438"/>
    <use xlink:href="#DejaVuSans-61" x="1040.011719"/>
    <use xlink:href="#DejaVuSans-6d" x="1101.291016"/>
    <use xlink:href="#DejaVuSans-65" x="1198.703125"/>
    <use xlink:href="#DejaVuSans-73" x="1260.226562"/>
    <use xlink:href="#DejaVuSans-3a" x="1312.326172"/>
    <use xlink:href="#DejaVuSans-20" x="1346.017578"/>
    <use xlink:href="#DejaVuSans-56" x="1377.804688"/>
    <use xlink:href="#DejaVuSans-69" x="1443.962891"/>
    <use xlink:href="#DejaVuSans-64" x="1471.746094"/>
    <use xlink:href="#DejaVuSans-65" x="1535.222656"/>
    <use xlink:href="#DejaVuSans-6f" x="1596.746094"/>
    <use xlink:href="#DejaVuSans-20" x="1657.927734"/>
    <use xlink:href="#DejaVuSans-23" x="1689.714844"/>
    <use xlink:href="#DejaVuSans-32" x="1773.503906"/>
    <use xlink:href="#DejaVuSans-38" x="1837.126953"/>
   </g>
  </g>
  <g id="text_39">
   <!-- Video Frames -->
   <g transform="translate(187.847438 339.936375) scale(0.12 -0.12)">
    <use xlink:href="#DejaVuSans-56"/>
    <use xlink:href="#DejaVuSans-69" x="66.158203"/>
    <use xlink:href="#DejaVuSans-64" x="93.941406"/>
    <use xlink:href="#DejaVuSans-65" x="157.417969"/>
    <use xlink:href="#DejaVuSans-6f" x="218.941406"/>
    <use xlink:href="#DejaVuSans-20" x="280.123047"/>
    <use xlink:href="#DejaVuSans-46" x="311.910156"/>
    <use xlink:href="#DejaVuSans-72" x="362.179688"/>
    <use xlink:href="#DejaVuSans-61" x="403.292969"/>
    <use xlink:href="#DejaVuSans-6d" x="464.572266"/>
    <use xlink:href="#DejaVuSans-65" x="561.984375"/>
    <use xlink:href="#DejaVuSans-73" x="623.507812"/>
   </g>
  </g>
  <g id="text_40">
   <!-- Raw VMAF Scores -->
   <g transform="translate(16.318125 226.284562) rotate(-90) scale(0.12 -0.12)">
    <defs>
     <path id="DejaVuSans-77" d="M 269 3500 
L 844 3500 
L 1563 769 
L 2278 3500 
L 2956 3500 
L 3675 769 
L 4391 3500 
L 4966 3500 
L 4050 0 
L 3372 0 
L 2619 2869 
L 1863 0 
L 1184 0 
L 269 3500 
z
" transform="scale(0.015625)"/>
    </defs>
    <use xlink:href="#DejaVuSans-52"/>
    <use xlink:href="#DejaVuSans-61" x="67.232422"/>
    <use xlink:href="#DejaVuSans-77" x="128.511719"/>
    <use xlink:href="#DejaVuSans-20" x="210.298828"/>
    <use xlink:href="#DejaVuSans-56" x="242.085938"/>
    <use xlink:href="#DejaVuSans-4d" x="310.494141"/>
    <use xlink:href="#DejaVuSans-41" x="396.773438"/>
    <use xlink:href="#DejaVuSans-46" x="465.181641"/>
    <use xlink:href="#DejaVuSans-20" x="522.701172"/>
    <use xlink:href="#DejaVuSans-53" x="554.488281"/>
    <use xlink:href="#DejaVuSans-63" x="617.964844"/>
    <use xlink:href="#DejaVuSans-6f" x="672.945312"/>
    <use xlink:href="#DejaVuSans-72" x="734.126953"/>
    <use xlink:href="#DejaVuSans-65" x="772.990234"/>
    <use xlink:href="#DejaVuSans-73" x="834.513672"/>
   </g>
  </g>
 </g>
 <defs>
  <clipPath id="p3bd9b86f5b">
   <rect x="55.584" y="41.76" width="162.327273" height="110.88"/>
  </clipPath>
  <clipPath id="p5860aca937">
   <rect x="250.376727" y="41.76" width="162.327273" height="110.88"/>
  </clipPath>
  <clipPath id="pb6a89d8131">
   <rect x="55.584" y="196.992" width="162.327273" height="110.88"/>
  </clipPath>
  <clipPath id="p2201f03d51">
   <rect x="250.376727" y="196.992" width="162.327273" height="110.88"/>
  </clipPath>
 </defs>
</svg>
