<?xml version="1.0" encoding="utf-8" standalone="no"?>
<!DOCTYPE svg PUBLIC "-//W3C//DTD SVG 1.1//EN"
  "http://www.w3.org/Graphics/SVG/1.1/DTD/svg11.dtd">
<svg xmlns:xlink="http://www.w3.org/1999/xlink" width="419.904pt" height="349.632pt" viewBox="0 0 419.904 349.632" xmlns="http://www.w3.org/2000/svg" version="1.1">
 <metadata>
  <rdf:RDF xmlns:dc="http://purl.org/dc/elements/1.1/" xmlns:cc="http://creativecommons.org/ns#" xmlns:rdf="http://www.w3.org/1999/02/22-rdf-syntax-ns#">
   <cc:Work>
    <dc:type rdf:resource="http://purl.org/dc/dcmitype/StillImage"/>
    <dc:date>2024-07-24T16:31:51.960282</dc:date>
    <dc:format>image/svg+xml</dc:format>
    <dc:creator>
     <cc:Agent>
      <dc:title>Matplotlib v3.7.2, https://matplotlib.org/</dc:title>
     </cc:Agent>
    </dc:creator>
   </cc:Work>
  </rdf:RDF>
 </metadata>
 <defs>
  <style type="text/css">*{stroke-linejoin: round; stroke-linecap: butt}</style>
 </defs>
 <g id="figure_1">
  <g id="patch_1">
   <path d="M 0 349.632 
L 419.904 349.632 
L 419.904 -0 
L 0 -0 
z
" style="fill: #ffffff"/>
  </g>
  <g id="axes_1">
   <g id="patch_2">
    <path d="M 55.584 152.64 
L 217.911273 152.64 
L 217.911273 41.76 
L 55.584 41.76 
z
" style="fill: #ffffff"/>
   </g>
   <g id="matplotlib.axis_1">
    <g id="xtick_1">
     <g id="line2d_1">
      <defs>
       <path id="m8c5647ade4" d="M 0 0 
L 0 3.5 
" style="stroke: #000000; stroke-width: 0.8"/>
      </defs>
      <g>
       <use xlink:href="#m8c5647ade4" x="62.962512" y="152.64" style="stroke: #000000; stroke-width: 0.8"/>
      </g>
     </g>
     <g id="text_1">
      <!-- 0 -->
      <g transform="translate(59.781262 167.238437) scale(0.1 -0.1)">
       <defs>
        <path id="DejaVuSans-30" d="M 2034 4250 
Q 1547 4250 1301 3770 
Q 1056 3291 1056 2328 
Q 1056 1369 1301 889 
Q 1547 409 2034 409 
Q 2525 409 2770 889 
Q 3016 1369 3016 2328 
Q 3016 3291 2770 3770 
Q 2525 4250 2034 4250 
z
M 2034 4750 
Q 2819 4750 3233 4129 
Q 3647 3509 3647 2328 
Q 3647 1150 3233 529 
Q 2819 -91 2034 -91 
Q 1250 -91 836 529 
Q 422 1150 422 2328 
Q 422 3509 836 4129 
Q 1250 4750 2034 4750 
z
" transform="scale(0.015625)"/>
       </defs>
       <use xlink:href="#DejaVuSans-30"/>
      </g>
     </g>
    </g>
    <g id="xtick_2">
     <g id="line2d_2">
      <g>
       <use xlink:href="#m8c5647ade4" x="99.220559" y="152.64" style="stroke: #000000; stroke-width: 0.8"/>
      </g>
     </g>
     <g id="text_2">
      <!-- 100 -->
      <g transform="translate(89.676809 167.238437) scale(0.1 -0.1)">
       <defs>
        <path id="DejaVuSans-31" d="M 794 531 
L 1825 531 
L 1825 4091 
L 703 3866 
L 703 4441 
L 1819 4666 
L 2450 4666 
L 2450 531 
L 3481 531 
L 3481 0 
L 794 0 
L 794 531 
z
" transform="scale(0.015625)"/>
       </defs>
       <use xlink:href="#DejaVuSans-31"/>
       <use xlink:href="#DejaVuSans-30" x="63.623047"/>
       <use xlink:href="#DejaVuSans-30" x="127.246094"/>
      </g>
     </g>
    </g>
    <g id="xtick_3">
     <g id="line2d_3">
      <g>
       <use xlink:href="#m8c5647ade4" x="135.478605" y="152.64" style="stroke: #000000; stroke-width: 0.8"/>
      </g>
     </g>
     <g id="text_3">
      <!-- 200 -->
      <g transform="translate(125.934855 167.238437) scale(0.1 -0.1)">
       <defs>
        <path id="DejaVuSans-32" d="M 1228 531 
L 3431 531 
L 3431 0 
L 469 0 
L 469 531 
Q 828 903 1448 1529 
Q 2069 2156 2228 2338 
Q 2531 2678 2651 2914 
Q 2772 3150 2772 3378 
Q 2772 3750 2511 3984 
Q 2250 4219 1831 4219 
Q 1534 4219 1204 4116 
Q 875 4013 500 3803 
L 500 4441 
Q 881 4594 1212 4672 
Q 1544 4750 1819 4750 
Q 2544 4750 2975 4387 
Q 3406 4025 3406 3419 
Q 3406 3131 3298 2873 
Q 3191 2616 2906 2266 
Q 2828 2175 2409 1742 
Q 1991 1309 1228 531 
z
" transform="scale(0.015625)"/>
       </defs>
       <use xlink:href="#DejaVuSans-32"/>
       <use xlink:href="#DejaVuSans-30" x="63.623047"/>
       <use xlink:href="#DejaVuSans-30" x="127.246094"/>
      </g>
     </g>
    </g>
    <g id="xtick_4">
     <g id="line2d_4">
      <g>
       <use xlink:href="#m8c5647ade4" x="171.736651" y="152.64" style="stroke: #000000; stroke-width: 0.8"/>
      </g>
     </g>
     <g id="text_4">
      <!-- 300 -->
      <g transform="translate(162.192901 167.238437) scale(0.1 -0.1)">
       <defs>
        <path id="DejaVuSans-33" d="M 2597 2516 
Q 3050 2419 3304 2112 
Q 3559 1806 3559 1356 
Q 3559 666 3084 287 
Q 2609 -91 1734 -91 
Q 1441 -91 1130 -33 
Q 819 25 488 141 
L 488 750 
Q 750 597 1062 519 
Q 1375 441 1716 441 
Q 2309 441 2620 675 
Q 2931 909 2931 1356 
Q 2931 1769 2642 2001 
Q 2353 2234 1838 2234 
L 1294 2234 
L 1294 2753 
L 1863 2753 
Q 2328 2753 2575 2939 
Q 2822 3125 2822 3475 
Q 2822 3834 2567 4026 
Q 2313 4219 1838 4219 
Q 1578 4219 1281 4162 
Q 984 4106 628 3988 
L 628 4550 
Q 988 4650 1302 4700 
Q 1616 4750 1894 4750 
Q 2613 4750 3031 4423 
Q 3450 4097 3450 3541 
Q 3450 3153 3228 2886 
Q 3006 2619 2597 2516 
z
" transform="scale(0.015625)"/>
       </defs>
       <use xlink:href="#DejaVuSans-33"/>
       <use xlink:href="#DejaVuSans-30" x="63.623047"/>
       <use xlink:href="#DejaVuSans-30" x="127.246094"/>
      </g>
     </g>
    </g>
    <g id="xtick_5">
     <g id="line2d_5">
      <g>
       <use xlink:href="#m8c5647ade4" x="207.994697" y="152.64" style="stroke: #000000; stroke-width: 0.8"/>
      </g>
     </g>
     <g id="text_5">
      <!-- 400 -->
      <g transform="translate(198.450947 167.238437) scale(0.1 -0.1)">
       <defs>
        <path id="DejaVuSans-34" d="M 2419 4116 
L 825 1625 
L 2419 1625 
L 2419 4116 
z
M 2253 4666 
L 3047 4666 
L 3047 1625 
L 3713 1625 
L 3713 1100 
L 3047 1100 
L 3047 0 
L 2419 0 
L 2419 1100 
L 313 1100 
L 313 1709 
L 2253 4666 
z
" transform="scale(0.015625)"/>
       </defs>
       <use xlink:href="#DejaVuSans-34"/>
       <use xlink:href="#DejaVuSans-30" x="63.623047"/>
       <use xlink:href="#DejaVuSans-30" x="127.246094"/>
      </g>
     </g>
    </g>
   </g>
   <g id="matplotlib.axis_2">
    <g id="ytick_1">
     <g id="line2d_6">
      <defs>
       <path id="m31c6bc90d9" d="M 0 0 
L -3.5 0 
" style="stroke: #000000; stroke-width: 0.8"/>
      </defs>
      <g>
       <use xlink:href="#m31c6bc90d9" x="55.584" y="136.739876" style="stroke: #000000; stroke-width: 0.8"/>
      </g>
     </g>
     <g id="text_6">
      <!-- 10 -->
      <g transform="translate(35.859 140.539095) scale(0.1 -0.1)">
       <use xlink:href="#DejaVuSans-31"/>
       <use xlink:href="#DejaVuSans-30" x="63.623047"/>
      </g>
     </g>
    </g>
    <g id="ytick_2">
     <g id="line2d_7">
      <g>
       <use xlink:href="#m31c6bc90d9" x="55.584" y="110.934252" style="stroke: #000000; stroke-width: 0.8"/>
      </g>
     </g>
     <g id="text_7">
      <!-- 20 -->
      <g transform="translate(35.859 114.733471) scale(0.1 -0.1)">
       <use xlink:href="#DejaVuSans-32"/>
       <use xlink:href="#DejaVuSans-30" x="63.623047"/>
      </g>
     </g>
    </g>
    <g id="ytick_3">
     <g id="line2d_8">
      <g>
       <use xlink:href="#m31c6bc90d9" x="55.584" y="85.128629" style="stroke: #000000; stroke-width: 0.8"/>
      </g>
     </g>
     <g id="text_8">
      <!-- 30 -->
      <g transform="translate(35.859 88.927847) scale(0.1 -0.1)">
       <use xlink:href="#DejaVuSans-33"/>
       <use xlink:href="#DejaVuSans-30" x="63.623047"/>
      </g>
     </g>
    </g>
    <g id="ytick_4">
     <g id="line2d_9">
      <g>
       <use xlink:href="#m31c6bc90d9" x="55.584" y="59.323005" style="stroke: #000000; stroke-width: 0.8"/>
      </g>
     </g>
     <g id="text_9">
      <!-- 40 -->
      <g transform="translate(35.859 63.122223) scale(0.1 -0.1)">
       <use xlink:href="#DejaVuSans-34"/>
       <use xlink:href="#DejaVuSans-30" x="63.623047"/>
      </g>
     </g>
    </g>
   </g>
   <g id="line2d_10">
    <path d="M 62.962512 49.196744 
L 63.325093 46.8 
L 63.687673 53.48464 
L 64.775415 80.468863 
L 65.137995 81.870085 
L 65.863156 95.561024 
L 66.588317 101.683411 
L 66.950897 100.855845 
L 67.313478 110.271693 
L 67.676058 113.846265 
L 68.038639 114.191947 
L 68.401219 118.719123 
L 68.7638 119.995541 
L 69.12638 122.684699 
L 69.488961 126.447956 
L 69.851541 125.091669 
L 70.214122 130.678956 
L 70.576702 131.746336 
L 70.939283 127.479902 
L 71.301863 130.113696 
L 71.664443 130.930215 
L 72.027024 131.381467 
L 72.389604 133.660607 
L 73.114765 130.487573 
L 73.477346 130.925459 
L 73.839926 129.701248 
L 74.202507 126.469429 
L 74.565087 126.356449 
L 74.927668 128.217778 
L 75.290248 126.34767 
L 75.652829 122.73608 
L 76.015409 128.06136 
L 76.377989 129.825631 
L 76.74057 137.152936 
L 77.10315 131.957155 
L 77.828311 128.646889 
L 78.190892 124.318574 
L 78.553472 130.161772 
L 78.916053 118.193382 
L 79.278633 117.905755 
L 79.641214 122.421664 
L 80.003794 121.383424 
L 80.366375 122.347765 
L 80.728955 126.073808 
L 81.091535 127.927116 
L 81.454116 133.643934 
L 81.816696 132.32521 
L 82.179277 133.797653 
L 82.541857 122.313433 
L 82.904438 128.316779 
L 83.267018 126.694353 
L 83.629599 110.161536 
L 83.992179 120.206569 
L 84.35476 120.663109 
L 84.71734 122.116085 
L 85.079921 116.579026 
L 85.805081 110.692456 
L 86.167662 99.014694 
L 86.530242 92.918892 
L 86.892823 84.919835 
L 87.255403 82.266839 
L 87.617984 83.550078 
L 87.980564 86.923092 
L 88.343145 88.272301 
L 88.705725 91.811279 
L 89.068306 91.915002 
L 89.793467 108.839974 
L 90.156047 107.767711 
L 90.518627 105.686196 
L 90.881208 96.944982 
L 91.606369 105.15802 
L 91.968949 105.063125 
L 92.33153 100.127838 
L 92.69411 100.414964 
L 93.056691 103.932005 
L 93.419271 105.341949 
L 93.781852 105.311937 
L 94.144432 104.337912 
L 94.507013 100.574239 
L 94.869593 98.769182 
L 95.232173 100.646407 
L 95.594754 91.609466 
L 95.957334 95.012577 
L 96.319915 87.634262 
L 96.682495 86.965496 
L 97.045076 89.158473 
L 97.407656 90.55431 
L 97.770237 93.301855 
L 98.132817 97.393918 
L 98.495398 95.004498 
L 98.857978 96.296301 
L 99.220559 95.225167 
L 99.583139 92.692216 
L 100.3083 85.982673 
L 101.033461 102.631703 
L 101.396041 105.69896 
L 101.758622 110.192139 
L 102.483783 124.218895 
L 102.846363 124.834015 
L 103.208944 129.128667 
L 103.571524 138.980176 
L 103.934105 140.4268 
L 104.296685 140.846157 
L 104.659265 139.040595 
L 105.747007 113.046634 
L 106.109587 96.166966 
L 106.472168 87.704342 
L 107.197329 119.975304 
L 107.559909 123.473876 
L 107.92249 124.147111 
L 108.28507 122.729386 
L 108.647651 123.3788 
L 109.010231 122.495471 
L 109.735392 130.853193 
L 110.097972 130.696978 
L 111.910875 112.626559 
L 112.273455 115.945261 
L 112.998616 118.636472 
L 113.361197 121.256801 
L 113.723777 121.628304 
L 114.448938 123.905583 
L 114.811518 123.651731 
L 115.174099 120.044721 
L 115.536679 119.67903 
L 115.89926 121.551525 
L 116.624421 115.438645 
L 116.987001 123.076387 
L 117.349582 126.188924 
L 117.712162 122.582046 
L 118.437323 132.478052 
L 119.525064 139.473417 
L 119.887645 140.967317 
L 120.612806 146.523849 
L 120.975386 147.6 
L 121.337967 144.50707 
L 121.700547 140.105678 
L 122.063128 137.152722 
L 122.425708 123.231677 
L 122.788289 117.086976 
L 123.150869 121.272349 
L 123.51345 121.072389 
L 123.87603 114.296464 
L 124.23861 110.347525 
L 124.601191 114.034388 
L 124.963771 120.828836 
L 125.326352 123.263065 
L 126.051513 124.105765 
L 126.414093 128.808205 
L 126.776674 135.057858 
L 127.139254 130.837885 
L 127.501835 129.695927 
L 127.864415 129.729466 
L 128.226996 123.892121 
L 128.589576 123.049226 
L 128.952156 120.189643 
L 129.314737 118.884248 
L 129.677317 118.977793 
L 130.039898 111.54357 
L 130.402478 108.41598 
L 130.765059 94.14964 
L 131.127639 103.54548 
L 131.49022 103.480574 
L 131.8528 104.915261 
L 132.215381 104.063962 
L 132.940542 115.423205 
L 133.303122 118.889135 
L 133.665702 114.963351 
L 134.028283 106.157355 
L 134.390863 106.59795 
L 134.753444 109.649651 
L 135.116024 107.371407 
L 135.478605 108.943165 
L 135.841185 107.355665 
L 136.203766 108.015345 
L 136.566346 107.589449 
L 136.928927 115.618523 
L 137.291507 113.711149 
L 137.654088 116.030618 
L 138.016668 99.89256 
L 138.379248 106.468935 
L 138.741829 102.754584 
L 139.104409 102.853877 
L 139.82957 112.966628 
L 140.192151 117.211832 
L 140.554731 127.837731 
L 141.642473 131.329454 
L 142.005053 128.200793 
L 142.367634 131.016759 
L 143.092794 121.822675 
L 143.817955 113.099747 
L 144.180536 107.659666 
L 144.543116 111.551412 
L 144.905697 107.197933 
L 145.268277 100.384952 
L 145.630858 96.906669 
L 145.993438 98.097671 
L 146.356019 102.557011 
L 146.718599 103.551165 
L 147.08118 98.974437 
L 147.44376 99.120892 
L 147.80634 93.09052 
L 148.168921 93.036277 
L 149.256662 84.243761 
L 149.981823 62.710377 
L 151.069565 91.888136 
L 151.432145 89.440764 
L 151.794726 91.530612 
L 152.157306 80.000267 
L 152.519886 100.902037 
L 152.882467 108.114206 
L 153.245047 106.773227 
L 153.607628 107.884299 
L 153.970208 108.416764 
L 154.332789 113.763374 
L 154.695369 113.691209 
L 155.05795 123.207123 
L 155.42053 122.069198 
L 155.783111 123.917428 
L 156.145691 127.484075 
L 156.508272 126.806716 
L 156.870852 131.851512 
L 157.233432 129.054943 
L 157.596013 131.334153 
L 157.958593 129.856198 
L 158.683754 123.919542 
L 159.046335 113.604334 
L 159.771496 118.661942 
L 160.134076 119.680354 
L 160.496657 120.170699 
L 160.859237 118.212731 
L 161.221818 100.586502 
L 161.584398 105.010063 
L 161.946978 118.920835 
L 162.309559 119.384601 
L 163.03472 129.578041 
L 163.3973 130.151409 
L 163.759881 127.822882 
L 164.122461 119.478556 
L 164.485042 119.406437 
L 165.572783 135.902448 
L 165.935364 135.734556 
L 166.660524 139.538044 
L 167.023105 139.73009 
L 167.385685 137.575501 
L 167.748266 136.753997 
L 168.110846 137.886701 
L 168.473427 137.289309 
L 168.836007 140.717067 
L 169.198588 141.408999 
L 169.561168 138.866861 
L 169.923749 125.966018 
L 170.286329 102.561538 
L 170.64891 102.246812 
L 171.01149 91.491191 
L 171.37407 94.499644 
L 172.099231 122.180036 
L 172.824392 127.723789 
L 173.186973 126.713651 
L 173.549553 125.054945 
L 173.912134 124.51585 
L 174.274714 134.773611 
L 174.637295 134.392715 
L 174.999875 134.768693 
L 175.725036 125.767756 
L 176.450197 109.445165 
L 176.812777 104.959585 
L 177.175358 103.070835 
L 177.537938 105.53128 
L 177.900519 106.943026 
L 178.263099 120.714416 
L 178.98826 128.71521 
L 179.350841 136.336769 
L 179.713421 129.840521 
L 180.076002 116.773861 
L 180.438582 109.426825 
L 180.801162 115.514116 
L 181.163743 96.935584 
L 181.526323 102.734939 
L 181.888904 97.853936 
L 182.251484 100.171903 
L 182.614065 106.380615 
L 182.976645 102.321705 
L 183.339226 114.255622 
L 183.701806 119.20456 
L 184.064387 121.135595 
L 184.426967 125.14079 
L 184.789548 124.308556 
L 185.152128 125.854904 
L 185.514708 122.644202 
L 185.877289 111.642702 
L 186.239869 107.956508 
L 186.60245 99.314065 
L 186.96503 96.195886 
L 187.327611 95.323649 
L 187.690191 104.676412 
L 188.052772 101.428413 
L 188.415352 107.599768 
L 188.777933 100.812889 
L 189.140513 104.369485 
L 189.865674 92.068999 
L 190.228254 94.338669 
L 190.590835 95.054269 
L 190.953415 99.007066 
L 191.315996 98.034687 
L 191.678576 97.903976 
L 192.403737 73.777803 
L 193.128898 81.540279 
L 193.854059 99.718382 
L 194.21664 91.549703 
L 194.57922 97.583145 
L 194.9418 96.13762 
L 195.304381 98.150933 
L 196.029542 110.541976 
L 196.392122 109.914295 
L 196.754703 109.527374 
L 197.117283 111.851531 
L 197.479864 103.936614 
L 197.842444 116.886557 
L 198.205025 122.360474 
L 198.567605 120.493308 
L 198.930186 122.516456 
L 199.292766 132.252126 
L 199.655346 131.235851 
L 200.017927 126.004933 
L 200.380507 126.128026 
L 200.743088 121.908685 
L 201.468249 124.732881 
L 201.830829 130.48498 
L 202.19341 129.443468 
L 202.55599 124.312319 
L 203.281151 129.969758 
L 203.643732 132.796836 
L 204.006312 127.377185 
L 204.368892 128.684785 
L 204.731473 124.444134 
L 205.094053 123.041887 
L 206.181795 103.578194 
L 206.544375 105.183319 
L 206.906956 109.739124 
L 207.269536 116.990489 
L 207.632117 119.234097 
L 207.994697 120.344051 
L 208.719858 115.583928 
L 209.082438 114.86239 
L 209.445019 114.625556 
L 209.807599 111.846104 
L 210.17018 114.557948 
L 210.53276 116.19693 
L 210.53276 116.19693 
" clip-path="url(#p2782134f2b)" style="fill: none; stroke: #008000; stroke-width: 1.5; stroke-linecap: square"/>
   </g>
   <g id="patch_3">
    <path d="M 55.584 152.64 
L 55.584 41.76 
" style="fill: none; stroke: #000000; stroke-width: 0.8; stroke-linejoin: miter; stroke-linecap: square"/>
   </g>
   <g id="patch_4">
    <path d="M 217.911273 152.64 
L 217.911273 41.76 
" style="fill: none; stroke: #000000; stroke-width: 0.8; stroke-linejoin: miter; stroke-linecap: square"/>
   </g>
   <g id="patch_5">
    <path d="M 55.584 152.64 
L 217.911273 152.64 
" style="fill: none; stroke: #000000; stroke-width: 0.8; stroke-linejoin: miter; stroke-linecap: square"/>
   </g>
   <g id="patch_6">
    <path d="M 55.584 41.76 
L 217.911273 41.76 
" style="fill: none; stroke: #000000; stroke-width: 0.8; stroke-linejoin: miter; stroke-linecap: square"/>
   </g>
   <g id="text_10">
    <!-- No Prediction (FOSS) -->
    <g transform="translate(74.495761 35.76) scale(0.12 -0.12)">
     <defs>
      <path id="DejaVuSans-4e" d="M 628 4666 
L 1478 4666 
L 3547 763 
L 3547 4666 
L 4159 4666 
L 4159 0 
L 3309 0 
L 1241 3903 
L 1241 0 
L 628 0 
L 628 4666 
z
" transform="scale(0.015625)"/>
      <path id="DejaVuSans-6f" d="M 1959 3097 
Q 1497 3097 1228 2736 
Q 959 2375 959 1747 
Q 959 1119 1226 758 
Q 1494 397 1959 397 
Q 2419 397 2687 759 
Q 2956 1122 2956 1747 
Q 2956 2369 2687 2733 
Q 2419 3097 1959 3097 
z
M 1959 3584 
Q 2709 3584 3137 3096 
Q 3566 2609 3566 1747 
Q 3566 888 3137 398 
Q 2709 -91 1959 -91 
Q 1206 -91 779 398 
Q 353 888 353 1747 
Q 353 2609 779 3096 
Q 1206 3584 1959 3584 
z
" transform="scale(0.015625)"/>
      <path id="DejaVuSans-20" transform="scale(0.015625)"/>
      <path id="DejaVuSans-50" d="M 1259 4147 
L 1259 2394 
L 2053 2394 
Q 2494 2394 2734 2622 
Q 2975 2850 2975 3272 
Q 2975 3691 2734 3919 
Q 2494 4147 2053 4147 
L 1259 4147 
z
M 628 4666 
L 2053 4666 
Q 2838 4666 3239 4311 
Q 3641 3956 3641 3272 
Q 3641 2581 3239 2228 
Q 2838 1875 2053 1875 
L 1259 1875 
L 1259 0 
L 628 0 
L 628 4666 
z
" transform="scale(0.015625)"/>
      <path id="DejaVuSans-72" d="M 2631 2963 
Q 2534 3019 2420 3045 
Q 2306 3072 2169 3072 
Q 1681 3072 1420 2755 
Q 1159 2438 1159 1844 
L 1159 0 
L 581 0 
L 581 3500 
L 1159 3500 
L 1159 2956 
Q 1341 3275 1631 3429 
Q 1922 3584 2338 3584 
Q 2397 3584 2469 3576 
Q 2541 3569 2628 3553 
L 2631 2963 
z
" transform="scale(0.015625)"/>
      <path id="DejaVuSans-65" d="M 3597 1894 
L 3597 1613 
L 953 1613 
Q 991 1019 1311 708 
Q 1631 397 2203 397 
Q 2534 397 2845 478 
Q 3156 559 3463 722 
L 3463 178 
Q 3153 47 2828 -22 
Q 2503 -91 2169 -91 
Q 1331 -91 842 396 
Q 353 884 353 1716 
Q 353 2575 817 3079 
Q 1281 3584 2069 3584 
Q 2775 3584 3186 3129 
Q 3597 2675 3597 1894 
z
M 3022 2063 
Q 3016 2534 2758 2815 
Q 2500 3097 2075 3097 
Q 1594 3097 1305 2825 
Q 1016 2553 972 2059 
L 3022 2063 
z
" transform="scale(0.015625)"/>
      <path id="DejaVuSans-64" d="M 2906 2969 
L 2906 4863 
L 3481 4863 
L 3481 0 
L 2906 0 
L 2906 525 
Q 2725 213 2448 61 
Q 2172 -91 1784 -91 
Q 1150 -91 751 415 
Q 353 922 353 1747 
Q 353 2572 751 3078 
Q 1150 3584 1784 3584 
Q 2172 3584 2448 3432 
Q 2725 3281 2906 2969 
z
M 947 1747 
Q 947 1113 1208 752 
Q 1469 391 1925 391 
Q 2381 391 2643 752 
Q 2906 1113 2906 1747 
Q 2906 2381 2643 2742 
Q 2381 3103 1925 3103 
Q 1469 3103 1208 2742 
Q 947 2381 947 1747 
z
" transform="scale(0.015625)"/>
      <path id="DejaVuSans-69" d="M 603 3500 
L 1178 3500 
L 1178 0 
L 603 0 
L 603 3500 
z
M 603 4863 
L 1178 4863 
L 1178 4134 
L 603 4134 
L 603 4863 
z
" transform="scale(0.015625)"/>
      <path id="DejaVuSans-63" d="M 3122 3366 
L 3122 2828 
Q 2878 2963 2633 3030 
Q 2388 3097 2138 3097 
Q 1578 3097 1268 2742 
Q 959 2388 959 1747 
Q 959 1106 1268 751 
Q 1578 397 2138 397 
Q 2388 397 2633 464 
Q 2878 531 3122 666 
L 3122 134 
Q 2881 22 2623 -34 
Q 2366 -91 2075 -91 
Q 1284 -91 818 406 
Q 353 903 353 1747 
Q 353 2603 823 3093 
Q 1294 3584 2113 3584 
Q 2378 3584 2631 3529 
Q 2884 3475 3122 3366 
z
" transform="scale(0.015625)"/>
      <path id="DejaVuSans-74" d="M 1172 4494 
L 1172 3500 
L 2356 3500 
L 2356 3053 
L 1172 3053 
L 1172 1153 
Q 1172 725 1289 603 
Q 1406 481 1766 481 
L 2356 481 
L 2356 0 
L 1766 0 
Q 1100 0 847 248 
Q 594 497 594 1153 
L 594 3053 
L 172 3053 
L 172 3500 
L 594 3500 
L 594 4494 
L 1172 4494 
z
" transform="scale(0.015625)"/>
      <path id="DejaVuSans-6e" d="M 3513 2113 
L 3513 0 
L 2938 0 
L 2938 2094 
Q 2938 2591 2744 2837 
Q 2550 3084 2163 3084 
Q 1697 3084 1428 2787 
Q 1159 2491 1159 1978 
L 1159 0 
L 581 0 
L 581 3500 
L 1159 3500 
L 1159 2956 
Q 1366 3272 1645 3428 
Q 1925 3584 2291 3584 
Q 2894 3584 3203 3211 
Q 3513 2838 3513 2113 
z
" transform="scale(0.015625)"/>
      <path id="DejaVuSans-28" d="M 1984 4856 
Q 1566 4138 1362 3434 
Q 1159 2731 1159 2009 
Q 1159 1288 1364 580 
Q 1569 -128 1984 -844 
L 1484 -844 
Q 1016 -109 783 600 
Q 550 1309 550 2009 
Q 550 2706 781 3412 
Q 1013 4119 1484 4856 
L 1984 4856 
z
" transform="scale(0.015625)"/>
      <path id="DejaVuSans-46" d="M 628 4666 
L 3309 4666 
L 3309 4134 
L 1259 4134 
L 1259 2759 
L 3109 2759 
L 3109 2228 
L 1259 2228 
L 1259 0 
L 628 0 
L 628 4666 
z
" transform="scale(0.015625)"/>
      <path id="DejaVuSans-4f" d="M 2522 4238 
Q 1834 4238 1429 3725 
Q 1025 3213 1025 2328 
Q 1025 1447 1429 934 
Q 1834 422 2522 422 
Q 3209 422 3611 934 
Q 4013 1447 4013 2328 
Q 4013 3213 3611 3725 
Q 3209 4238 2522 4238 
z
M 2522 4750 
Q 3503 4750 4090 4092 
Q 4678 3434 4678 2328 
Q 4678 1225 4090 567 
Q 3503 -91 2522 -91 
Q 1538 -91 948 565 
Q 359 1222 359 2328 
Q 359 3434 948 4092 
Q 1538 4750 2522 4750 
z
" transform="scale(0.015625)"/>
      <path id="DejaVuSans-53" d="M 3425 4513 
L 3425 3897 
Q 3066 4069 2747 4153 
Q 2428 4238 2131 4238 
Q 1616 4238 1336 4038 
Q 1056 3838 1056 3469 
Q 1056 3159 1242 3001 
Q 1428 2844 1947 2747 
L 2328 2669 
Q 3034 2534 3370 2195 
Q 3706 1856 3706 1288 
Q 3706 609 3251 259 
Q 2797 -91 1919 -91 
Q 1588 -91 1214 -16 
Q 841 59 441 206 
L 441 856 
Q 825 641 1194 531 
Q 1563 422 1919 422 
Q 2459 422 2753 634 
Q 3047 847 3047 1241 
Q 3047 1584 2836 1778 
Q 2625 1972 2144 2069 
L 1759 2144 
Q 1053 2284 737 2584 
Q 422 2884 422 3419 
Q 422 4038 858 4394 
Q 1294 4750 2059 4750 
Q 2388 4750 2728 4690 
Q 3069 4631 3425 4513 
z
" transform="scale(0.015625)"/>
      <path id="DejaVuSans-29" d="M 513 4856 
L 1013 4856 
Q 1481 4119 1714 3412 
Q 1947 2706 1947 2009 
Q 1947 1309 1714 600 
Q 1481 -109 1013 -844 
L 513 -844 
Q 928 -128 1133 580 
Q 1338 1288 1338 2009 
Q 1338 2731 1133 3434 
Q 928 4138 513 4856 
z
" transform="scale(0.015625)"/>
     </defs>
     <use xlink:href="#DejaVuSans-4e"/>
     <use xlink:href="#DejaVuSans-6f" x="74.804688"/>
     <use xlink:href="#DejaVuSans-20" x="135.986328"/>
     <use xlink:href="#DejaVuSans-50" x="167.773438"/>
     <use xlink:href="#DejaVuSans-72" x="226.326172"/>
     <use xlink:href="#DejaVuSans-65" x="265.189453"/>
     <use xlink:href="#DejaVuSans-64" x="326.712891"/>
     <use xlink:href="#DejaVuSans-69" x="390.189453"/>
     <use xlink:href="#DejaVuSans-63" x="417.972656"/>
     <use xlink:href="#DejaVuSans-74" x="472.953125"/>
     <use xlink:href="#DejaVuSans-69" x="512.162109"/>
     <use xlink:href="#DejaVuSans-6f" x="539.945312"/>
     <use xlink:href="#DejaVuSans-6e" x="601.126953"/>
     <use xlink:href="#DejaVuSans-20" x="664.505859"/>
     <use xlink:href="#DejaVuSans-28" x="696.292969"/>
     <use xlink:href="#DejaVuSans-46" x="735.306641"/>
     <use xlink:href="#DejaVuSans-4f" x="792.826172"/>
     <use xlink:href="#DejaVuSans-53" x="871.537109"/>
     <use xlink:href="#DejaVuSans-53" x="935.013672"/>
     <use xlink:href="#DejaVuSans-29" x="998.490234"/>
    </g>
   </g>
  </g>
  <g id="axes_2">
   <g id="patch_7">
    <path d="M 250.376727 152.64 
L 412.704 152.64 
L 412.704 41.76 
L 250.376727 41.76 
z
" style="fill: #ffffff"/>
   </g>
   <g id="matplotlib.axis_3">
    <g id="xtick_6">
     <g id="line2d_11">
      <g>
       <use xlink:href="#m8c5647ade4" x="257.75524" y="152.64" style="stroke: #000000; stroke-width: 0.8"/>
      </g>
     </g>
     <g id="text_11">
      <!-- 0 -->
      <g transform="translate(254.57399 167.238437) scale(0.1 -0.1)">
       <use xlink:href="#DejaVuSans-30"/>
      </g>
     </g>
    </g>
    <g id="xtick_7">
     <g id="line2d_12">
      <g>
       <use xlink:href="#m8c5647ade4" x="294.013286" y="152.64" style="stroke: #000000; stroke-width: 0.8"/>
      </g>
     </g>
     <g id="text_12">
      <!-- 100 -->
      <g transform="translate(284.469536 167.238437) scale(0.1 -0.1)">
       <use xlink:href="#DejaVuSans-31"/>
       <use xlink:href="#DejaVuSans-30" x="63.623047"/>
       <use xlink:href="#DejaVuSans-30" x="127.246094"/>
      </g>
     </g>
    </g>
    <g id="xtick_8">
     <g id="line2d_13">
      <g>
       <use xlink:href="#m8c5647ade4" x="330.271332" y="152.64" style="stroke: #000000; stroke-width: 0.8"/>
      </g>
     </g>
     <g id="text_13">
      <!-- 200 -->
      <g transform="translate(320.727582 167.238437) scale(0.1 -0.1)">
       <use xlink:href="#DejaVuSans-32"/>
       <use xlink:href="#DejaVuSans-30" x="63.623047"/>
       <use xlink:href="#DejaVuSans-30" x="127.246094"/>
      </g>
     </g>
    </g>
    <g id="xtick_9">
     <g id="line2d_14">
      <g>
       <use xlink:href="#m8c5647ade4" x="366.529378" y="152.64" style="stroke: #000000; stroke-width: 0.8"/>
      </g>
     </g>
     <g id="text_14">
      <!-- 300 -->
      <g transform="translate(356.985628 167.238437) scale(0.1 -0.1)">
       <use xlink:href="#DejaVuSans-33"/>
       <use xlink:href="#DejaVuSans-30" x="63.623047"/>
       <use xlink:href="#DejaVuSans-30" x="127.246094"/>
      </g>
     </g>
    </g>
    <g id="xtick_10">
     <g id="line2d_15">
      <g>
       <use xlink:href="#m8c5647ade4" x="402.787424" y="152.64" style="stroke: #000000; stroke-width: 0.8"/>
      </g>
     </g>
     <g id="text_15">
      <!-- 400 -->
      <g transform="translate(393.243674 167.238437) scale(0.1 -0.1)">
       <use xlink:href="#DejaVuSans-34"/>
       <use xlink:href="#DejaVuSans-30" x="63.623047"/>
       <use xlink:href="#DejaVuSans-30" x="127.246094"/>
      </g>
     </g>
    </g>
   </g>
   <g id="matplotlib.axis_4">
    <g id="ytick_5">
     <g id="line2d_16">
      <g>
       <use xlink:href="#m31c6bc90d9" x="250.376727" y="147.6" style="stroke: #000000; stroke-width: 0.8"/>
      </g>
     </g>
     <g id="text_16">
      <!-- 0 -->
      <g transform="translate(237.014227 151.399219) scale(0.1 -0.1)">
       <use xlink:href="#DejaVuSans-30"/>
      </g>
     </g>
    </g>
    <g id="ytick_6">
     <g id="line2d_17">
      <g>
       <use xlink:href="#m31c6bc90d9" x="250.376727" y="125.119944" style="stroke: #000000; stroke-width: 0.8"/>
      </g>
     </g>
     <g id="text_17">
      <!-- 10 -->
      <g transform="translate(230.651727 128.919163) scale(0.1 -0.1)">
       <use xlink:href="#DejaVuSans-31"/>
       <use xlink:href="#DejaVuSans-30" x="63.623047"/>
      </g>
     </g>
    </g>
    <g id="ytick_7">
     <g id="line2d_18">
      <g>
       <use xlink:href="#m31c6bc90d9" x="250.376727" y="102.639888" style="stroke: #000000; stroke-width: 0.8"/>
      </g>
     </g>
     <g id="text_18">
      <!-- 20 -->
      <g transform="translate(230.651727 106.439107) scale(0.1 -0.1)">
       <use xlink:href="#DejaVuSans-32"/>
       <use xlink:href="#DejaVuSans-30" x="63.623047"/>
      </g>
     </g>
    </g>
    <g id="ytick_8">
     <g id="line2d_19">
      <g>
       <use xlink:href="#m31c6bc90d9" x="250.376727" y="80.159832" style="stroke: #000000; stroke-width: 0.8"/>
      </g>
     </g>
     <g id="text_19">
      <!-- 30 -->
      <g transform="translate(230.651727 83.959051) scale(0.1 -0.1)">
       <use xlink:href="#DejaVuSans-33"/>
       <use xlink:href="#DejaVuSans-30" x="63.623047"/>
      </g>
     </g>
    </g>
    <g id="ytick_9">
     <g id="line2d_20">
      <g>
       <use xlink:href="#m31c6bc90d9" x="250.376727" y="57.679776" style="stroke: #000000; stroke-width: 0.8"/>
      </g>
     </g>
     <g id="text_20">
      <!-- 40 -->
      <g transform="translate(230.651727 61.478995) scale(0.1 -0.1)">
       <use xlink:href="#DejaVuSans-34"/>
       <use xlink:href="#DejaVuSans-30" x="63.623047"/>
      </g>
     </g>
    </g>
   </g>
   <g id="line2d_21">
    <path d="M 257.75524 48.844442 
L 258.11782 46.8 
L 258.480401 52.595179 
L 259.568142 76.085212 
L 259.930722 77.462828 
L 260.655883 89.255946 
L 261.381044 94.612687 
L 261.743625 93.856346 
L 262.106205 147.6 
L 265.73201 147.6 
L 266.09459 144.165733 
L 266.457171 120.040074 
L 266.819751 120.389711 
L 267.182332 122.332359 
L 267.544912 121.192184 
L 267.907493 119.655373 
L 268.270073 120.05554 
L 268.632654 118.971602 
L 268.995234 116.184675 
L 269.357814 116.078495 
L 269.720395 117.206459 
L 270.082975 116.102557 
L 270.445556 112.947598 
L 270.808136 139.581769 
L 271.170717 131.089082 
L 271.533297 141.800505 
L 271.895878 141.501898 
L 272.258458 140.685863 
L 272.983619 147.6 
L 273.70878 141.197487 
L 274.07136 144.069599 
L 274.433941 140.593162 
L 274.796521 132.490543 
L 275.159102 112.582826 
L 275.521682 115.816537 
L 275.884263 117.431866 
L 276.246843 122.398218 
L 276.609424 121.284977 
L 276.972004 122.578126 
L 277.334585 112.550225 
L 277.697165 117.775485 
L 278.059746 116.477538 
L 278.422326 101.975018 
L 278.784906 110.719416 
L 279.147487 111.133451 
L 279.510067 145.825537 
L 279.872648 147.6 
L 280.235228 147.475148 
L 280.597809 143.75799 
L 280.960389 147.6 
L 283.498452 147.6 
L 283.861033 86.086537 
L 284.586194 100.825581 
L 284.948774 99.883417 
L 285.311355 98.063749 
L 285.673935 90.485034 
L 286.399096 97.610378 
L 286.761677 97.546955 
L 287.124257 93.222318 
L 287.486838 93.476163 
L 287.849418 96.522483 
L 288.211998 145.991676 
L 288.574579 147.6 
L 288.937159 147.6 
L 289.29974 138.946251 
L 289.66232 142.183444 
L 290.024901 133.333064 
L 290.387481 132.511971 
L 290.750062 136.140726 
L 291.112642 130.954326 
L 291.475223 131.172375 
L 291.837803 125.727618 
L 292.200384 129.741205 
L 292.562964 87.282977 
L 292.925544 90.854656 
L 293.288125 88.74836 
L 293.650705 89.827749 
L 294.013286 89.042159 
L 294.375866 86.753077 
L 295.101027 80.90528 
L 295.826188 95.401135 
L 296.188769 98.088596 
L 296.551349 101.998238 
L 296.91393 144.683581 
L 297.27651 130.037225 
L 298.364251 145.91472 
L 298.726832 141.932942 
L 299.089412 144.863368 
L 299.451993 144.058231 
L 299.814573 137.06532 
L 300.177154 132.864006 
L 300.539734 133.554863 
L 300.902315 137.979754 
L 301.264895 82.399032 
L 301.990056 110.518595 
L 302.352636 113.572937 
L 302.715217 114.156137 
L 303.077797 112.900588 
L 303.440378 113.466775 
L 303.802958 112.708559 
L 304.528119 119.966124 
L 304.8907 119.850113 
L 305.25328 116.641108 
L 305.615861 146.044324 
L 305.978441 147.6 
L 309.604246 147.6 
L 309.966826 110.562455 
L 310.329407 110.246853 
L 310.691987 111.894525 
L 311.417148 106.553158 
L 311.779728 113.213863 
L 312.142309 115.939725 
L 312.504889 112.792288 
L 313.23005 121.405101 
L 313.955211 125.248989 
L 314.317792 144.866306 
L 315.042953 147.6 
L 315.405533 144.468503 
L 315.768114 144.48029 
L 316.130694 142.248357 
L 316.493274 139.042672 
L 316.855855 132.786284 
L 317.218435 131.152339 
L 317.581016 144.478566 
L 317.943596 146.032886 
L 318.306177 146.369691 
L 318.668757 105.548032 
L 319.031338 102.132266 
L 319.393918 105.346134 
L 319.756499 111.271796 
L 320.119079 113.394859 
L 320.84424 114.106753 
L 321.20682 118.206774 
L 321.569401 123.67904 
L 321.931981 119.978847 
L 322.294562 118.9759 
L 322.657142 119.017589 
L 323.019723 135.246173 
L 323.382303 132.931058 
L 323.744884 146.440695 
L 324.107464 147.6 
L 324.470045 147.6 
L 324.832625 143.363539 
L 325.195206 135.506699 
L 325.557786 134.213833 
L 325.920366 135.141895 
L 326.282947 131.98661 
L 326.645527 121.531689 
L 327.008108 138.819247 
L 327.370688 101.864724 
L 327.733269 106.527022 
L 328.095849 109.578117 
L 328.45843 106.140927 
L 328.82101 98.486806 
L 329.183591 98.614584 
L 329.546171 101.519911 
L 329.908752 99.531099 
L 330.271332 100.892262 
L 330.633912 99.52636 
L 330.996493 100.07267 
L 331.359073 99.73825 
L 331.721654 141.889083 
L 332.084234 130.353542 
L 332.446815 134.830056 
L 332.809395 129.844667 
L 333.171976 140.442863 
L 333.534556 139.678826 
L 333.897137 134.712269 
L 334.259717 145.609841 
L 334.622298 147.6 
L 335.710039 147.6 
L 336.072619 119.282878 
L 336.4352 120.40065 
L 336.79778 117.694145 
L 337.160361 120.102942 
L 337.885522 112.1282 
L 338.610683 104.52166 
L 338.973263 99.784912 
L 339.335844 103.175954 
L 339.698424 99.39645 
L 340.061004 93.42099 
L 340.423585 147.6 
L 341.148746 147.6 
L 341.511326 147.0399 
L 342.236487 134.651755 
L 342.599068 135.918144 
L 342.961648 125.415943 
L 343.324229 121.577649 
L 343.686809 111.747163 
L 344.04939 130.39435 
L 344.41197 136.809717 
L 344.77455 60.617798 
L 345.862292 86.041835 
L 346.224872 83.940503 
L 346.587453 85.734735 
L 346.950033 75.679208 
L 347.312614 93.882193 
L 347.675194 100.176209 
L 348.037775 99.007093 
L 348.400355 99.986515 
L 348.762936 100.448534 
L 349.125516 147.6 
L 353.113901 147.6 
L 353.476482 114.346995 
L 353.839062 104.9766 
L 354.926803 110.302804 
L 355.289384 110.690212 
L 355.651964 108.977879 
L 356.014545 93.602274 
L 356.377125 97.466296 
L 356.739706 109.576228 
L 357.102286 109.969834 
L 357.464867 114.538822 
L 357.827447 147.108813 
L 358.190028 147.075866 
L 358.552608 143.15133 
L 358.915188 142.142852 
L 359.277769 141.588707 
L 360.00293 147.6 
L 361.815832 147.6 
L 362.178413 125.854822 
L 362.540993 125.109925 
L 362.903574 126.1207 
L 363.266154 125.590332 
L 363.628735 128.594057 
L 363.991315 129.20404 
L 364.353895 126.986569 
L 364.716476 115.741694 
L 365.079056 95.351777 
L 365.441637 95.065292 
L 365.804217 85.699435 
L 366.166798 88.325955 
L 366.529378 138.632665 
L 366.891959 147.6 
L 369.430022 147.6 
L 369.792602 145.162254 
L 370.155183 144.72795 
L 370.517763 139.893567 
L 370.880344 108.396439 
L 371.242924 101.331452 
L 371.605505 97.417342 
L 371.968085 95.804622 
L 372.330666 97.996095 
L 372.693246 99.160009 
L 373.055827 111.169282 
L 373.780987 118.117769 
L 374.143568 124.742113 
L 374.506148 119.103323 
L 374.868729 107.609671 
L 375.231309 147.6 
L 375.59389 147.6 
L 375.95647 139.585026 
L 376.319051 135.879013 
L 376.681631 135.381863 
L 377.044212 137.277388 
L 377.769373 126.215125 
L 378.131953 126.720131 
L 378.494533 131.292039 
L 378.857114 133.405564 
L 379.219694 133.970405 
L 379.582275 114.290125 
L 379.944855 115.631463 
L 380.307436 112.836619 
L 380.670016 103.270267 
L 381.032597 100.034018 
L 381.395177 92.499656 
L 381.757758 89.796776 
L 382.120338 88.995416 
L 382.482919 97.188409 
L 382.845499 94.392281 
L 383.208079 99.712639 
L 383.57066 93.825813 
L 383.93324 147.6 
L 384.295821 147.6 
L 384.658401 146.031899 
L 385.020982 143.562899 
L 385.383562 144.157591 
L 385.746143 147.6 
L 387.921625 147.6 
L 388.284206 83.941519 
L 388.646786 92.859679 
L 389.009367 85.839097 
L 389.371947 90.989012 
L 389.734528 89.788645 
L 390.097108 91.493341 
L 390.822269 102.216051 
L 391.54743 101.403184 
L 391.910011 103.45626 
L 392.272591 96.544219 
L 392.635171 144.63393 
L 392.997752 135.86218 
L 393.360332 140.580441 
L 393.722913 137.175805 
L 394.448074 147.6 
L 394.810654 147.586224 
L 395.173235 145.141048 
L 395.535815 144.468103 
L 395.898396 141.147385 
L 396.260976 141.611839 
L 396.623557 141.540326 
L 396.986137 118.779626 
L 397.348717 114.294379 
L 398.073878 119.214856 
L 398.436459 121.694229 
L 398.799039 116.940787 
L 399.16162 118.136088 
L 399.5242 114.399354 
L 399.886781 113.218872 
L 400.611942 100.736299 
L 400.974522 96.219146 
L 401.337103 144.242646 
L 401.699683 139.503062 
L 402.062263 147.6 
L 404.237746 147.6 
L 404.600327 144.980172 
L 404.962907 147.6 
L 405.325488 147.6 
L 405.325488 147.6 
" clip-path="url(#p5689a1fca8)" style="fill: none; stroke: #0000ff; stroke-width: 1.5; stroke-linecap: square"/>
   </g>
   <g id="patch_8">
    <path d="M 250.376727 152.64 
L 250.376727 41.76 
" style="fill: none; stroke: #000000; stroke-width: 0.8; stroke-linejoin: miter; stroke-linecap: square"/>
   </g>
   <g id="patch_9">
    <path d="M 412.704 152.64 
L 412.704 41.76 
" style="fill: none; stroke: #000000; stroke-width: 0.8; stroke-linejoin: miter; stroke-linecap: square"/>
   </g>
   <g id="patch_10">
    <path d="M 250.376727 152.64 
L 412.704 152.64 
" style="fill: none; stroke: #000000; stroke-width: 0.8; stroke-linejoin: miter; stroke-linecap: square"/>
   </g>
   <g id="patch_11">
    <path d="M 250.376727 41.76 
L 412.704 41.76 
" style="fill: none; stroke: #000000; stroke-width: 0.8; stroke-linejoin: miter; stroke-linecap: square"/>
   </g>
   <g id="text_21">
    <!-- RNN -->
    <g transform="translate(318.393801 35.76) scale(0.12 -0.12)">
     <defs>
      <path id="DejaVuSans-52" d="M 2841 2188 
Q 3044 2119 3236 1894 
Q 3428 1669 3622 1275 
L 4263 0 
L 3584 0 
L 2988 1197 
Q 2756 1666 2539 1819 
Q 2322 1972 1947 1972 
L 1259 1972 
L 1259 0 
L 628 0 
L 628 4666 
L 2053 4666 
Q 2853 4666 3247 4331 
Q 3641 3997 3641 3322 
Q 3641 2881 3436 2590 
Q 3231 2300 2841 2188 
z
M 1259 4147 
L 1259 2491 
L 2053 2491 
Q 2509 2491 2742 2702 
Q 2975 2913 2975 3322 
Q 2975 3731 2742 3939 
Q 2509 4147 2053 4147 
L 1259 4147 
z
" transform="scale(0.015625)"/>
     </defs>
     <use xlink:href="#DejaVuSans-52"/>
     <use xlink:href="#DejaVuSans-4e" x="69.482422"/>
     <use xlink:href="#DejaVuSans-4e" x="144.287109"/>
    </g>
   </g>
  </g>
  <g id="axes_3">
   <g id="patch_12">
    <path d="M 55.584 307.872 
L 217.911273 307.872 
L 217.911273 196.992 
L 55.584 196.992 
z
" style="fill: #ffffff"/>
   </g>
   <g id="matplotlib.axis_5">
    <g id="xtick_11">
     <g id="line2d_22">
      <g>
       <use xlink:href="#m8c5647ade4" x="62.962512" y="307.872" style="stroke: #000000; stroke-width: 0.8"/>
      </g>
     </g>
     <g id="text_22">
      <!-- 0 -->
      <g transform="translate(59.781262 322.470437) scale(0.1 -0.1)">
       <use xlink:href="#DejaVuSans-30"/>
      </g>
     </g>
    </g>
    <g id="xtick_12">
     <g id="line2d_23">
      <g>
       <use xlink:href="#m8c5647ade4" x="99.220559" y="307.872" style="stroke: #000000; stroke-width: 0.8"/>
      </g>
     </g>
     <g id="text_23">
      <!-- 100 -->
      <g transform="translate(89.676809 322.470437) scale(0.1 -0.1)">
       <use xlink:href="#DejaVuSans-31"/>
       <use xlink:href="#DejaVuSans-30" x="63.623047"/>
       <use xlink:href="#DejaVuSans-30" x="127.246094"/>
      </g>
     </g>
    </g>
    <g id="xtick_13">
     <g id="line2d_24">
      <g>
       <use xlink:href="#m8c5647ade4" x="135.478605" y="307.872" style="stroke: #000000; stroke-width: 0.8"/>
      </g>
     </g>
     <g id="text_24">
      <!-- 200 -->
      <g transform="translate(125.934855 322.470437) scale(0.1 -0.1)">
       <use xlink:href="#DejaVuSans-32"/>
       <use xlink:href="#DejaVuSans-30" x="63.623047"/>
       <use xlink:href="#DejaVuSans-30" x="127.246094"/>
      </g>
     </g>
    </g>
    <g id="xtick_14">
     <g id="line2d_25">
      <g>
       <use xlink:href="#m8c5647ade4" x="171.736651" y="307.872" style="stroke: #000000; stroke-width: 0.8"/>
      </g>
     </g>
     <g id="text_25">
      <!-- 300 -->
      <g transform="translate(162.192901 322.470437) scale(0.1 -0.1)">
       <use xlink:href="#DejaVuSans-33"/>
       <use xlink:href="#DejaVuSans-30" x="63.623047"/>
       <use xlink:href="#DejaVuSans-30" x="127.246094"/>
      </g>
     </g>
    </g>
    <g id="xtick_15">
     <g id="line2d_26">
      <g>
       <use xlink:href="#m8c5647ade4" x="207.994697" y="307.872" style="stroke: #000000; stroke-width: 0.8"/>
      </g>
     </g>
     <g id="text_26">
      <!-- 400 -->
      <g transform="translate(198.450947 322.470437) scale(0.1 -0.1)">
       <use xlink:href="#DejaVuSans-34"/>
       <use xlink:href="#DejaVuSans-30" x="63.623047"/>
       <use xlink:href="#DejaVuSans-30" x="127.246094"/>
      </g>
     </g>
    </g>
   </g>
   <g id="matplotlib.axis_6">
    <g id="ytick_10">
     <g id="line2d_27">
      <g>
       <use xlink:href="#m31c6bc90d9" x="55.584" y="302.832" style="stroke: #000000; stroke-width: 0.8"/>
      </g>
     </g>
     <g id="text_27">
      <!-- 0 -->
      <g transform="translate(42.2215 306.631219) scale(0.1 -0.1)">
       <use xlink:href="#DejaVuSans-30"/>
      </g>
     </g>
    </g>
    <g id="ytick_11">
     <g id="line2d_28">
      <g>
       <use xlink:href="#m31c6bc90d9" x="55.584" y="280.351944" style="stroke: #000000; stroke-width: 0.8"/>
      </g>
     </g>
     <g id="text_28">
      <!-- 10 -->
      <g transform="translate(35.859 284.151163) scale(0.1 -0.1)">
       <use xlink:href="#DejaVuSans-31"/>
       <use xlink:href="#DejaVuSans-30" x="63.623047"/>
      </g>
     </g>
    </g>
    <g id="ytick_12">
     <g id="line2d_29">
      <g>
       <use xlink:href="#m31c6bc90d9" x="55.584" y="257.871888" style="stroke: #000000; stroke-width: 0.8"/>
      </g>
     </g>
     <g id="text_29">
      <!-- 20 -->
      <g transform="translate(35.859 261.671107) scale(0.1 -0.1)">
       <use xlink:href="#DejaVuSans-32"/>
       <use xlink:href="#DejaVuSans-30" x="63.623047"/>
      </g>
     </g>
    </g>
    <g id="ytick_13">
     <g id="line2d_30">
      <g>
       <use xlink:href="#m31c6bc90d9" x="55.584" y="235.391832" style="stroke: #000000; stroke-width: 0.8"/>
      </g>
     </g>
     <g id="text_30">
      <!-- 30 -->
      <g transform="translate(35.859 239.191051) scale(0.1 -0.1)">
       <use xlink:href="#DejaVuSans-33"/>
       <use xlink:href="#DejaVuSans-30" x="63.623047"/>
      </g>
     </g>
    </g>
    <g id="ytick_14">
     <g id="line2d_31">
      <g>
       <use xlink:href="#m31c6bc90d9" x="55.584" y="212.911776" style="stroke: #000000; stroke-width: 0.8"/>
      </g>
     </g>
     <g id="text_31">
      <!-- 40 -->
      <g transform="translate(35.859 216.710995) scale(0.1 -0.1)">
       <use xlink:href="#DejaVuSans-34"/>
       <use xlink:href="#DejaVuSans-30" x="63.623047"/>
      </g>
     </g>
    </g>
   </g>
   <g id="line2d_32">
    <path d="M 62.962512 204.076442 
L 63.325093 202.032 
L 63.687673 207.827179 
L 64.775415 231.317212 
L 65.137995 232.694828 
L 65.863156 244.487946 
L 66.588317 249.844687 
L 66.950897 249.088346 
L 67.313478 302.832 
L 67.676058 302.311088 
L 68.038639 302.832 
L 71.301863 302.832 
L 71.664443 275.272074 
L 72.027024 275.621711 
L 72.389604 277.564359 
L 72.752185 276.424184 
L 73.114765 274.887373 
L 73.477346 275.28754 
L 73.839926 274.203602 
L 74.202507 271.416675 
L 74.565087 271.310495 
L 74.927668 272.438459 
L 75.290248 271.334557 
L 75.652829 268.179598 
L 76.015409 302.832 
L 76.377989 302.832 
L 76.74057 301.670505 
L 77.10315 295.706823 
L 77.465731 291.722075 
L 77.828311 294.755768 
L 78.190892 291.835827 
L 78.553472 291.87193 
L 78.916053 292.243664 
L 79.278633 295.999383 
L 79.641214 297.231308 
L 80.003794 295.22717 
L 80.366375 267.814826 
L 80.728955 271.048537 
L 81.091535 272.663866 
L 81.454116 277.630218 
L 81.816696 276.516977 
L 82.179277 277.810126 
L 82.541857 267.782225 
L 82.904438 273.007485 
L 83.267018 271.709538 
L 83.629599 257.207018 
L 83.992179 265.951416 
L 84.35476 266.365451 
L 84.71734 293.475097 
L 85.079921 293.143723 
L 85.442501 291.601045 
L 85.805081 290.613847 
L 86.892823 294.15836 
L 87.255403 294.316903 
L 87.617984 298.228476 
L 87.980564 296.447217 
L 88.343145 295.736094 
L 88.705725 296.776606 
L 89.068306 241.318537 
L 89.793467 256.057581 
L 90.156047 255.115417 
L 90.518627 253.295749 
L 90.881208 245.717034 
L 91.606369 252.842378 
L 91.968949 252.778955 
L 92.33153 248.454318 
L 92.69411 248.708163 
L 93.056691 251.754483 
L 93.419271 302.832 
L 97.407656 302.832 
L 97.770237 242.514977 
L 98.132817 246.086656 
L 98.495398 243.98036 
L 98.857978 245.059749 
L 99.220559 244.274159 
L 99.583139 241.985077 
L 100.3083 236.13728 
L 101.033461 250.633135 
L 101.396041 253.320596 
L 101.758622 257.230238 
L 102.121202 299.917346 
L 102.483783 299.009909 
L 102.846363 290.61774 
L 103.208944 288.714006 
L 103.571524 294.251828 
L 103.934105 294.492558 
L 104.296685 295.226844 
L 104.659265 293.669588 
L 105.021846 292.608666 
L 105.384426 295.473507 
L 105.747007 289.91398 
L 106.109587 298.2835 
L 106.472168 237.631032 
L 107.197329 265.750595 
L 107.559909 268.804937 
L 107.92249 269.388137 
L 108.28507 268.132588 
L 108.647651 268.698775 
L 109.010231 267.940559 
L 109.735392 275.198124 
L 110.097972 275.082113 
L 110.460553 271.873108 
L 110.823133 302.832 
L 114.811518 302.832 
L 115.174099 265.794455 
L 115.536679 265.478853 
L 115.89926 267.126525 
L 116.624421 261.785158 
L 116.987001 268.445863 
L 117.349582 271.171725 
L 117.712162 268.024288 
L 118.437323 276.637101 
L 119.162484 280.480989 
L 119.525064 302.105379 
L 119.887645 302.341348 
L 120.250225 302.29182 
L 120.612806 302.832 
L 120.975386 302.653834 
L 121.337967 302.832 
L 121.700547 299.980538 
L 122.063128 302.832 
L 122.425708 302.832 
L 122.788289 298.716172 
L 123.150869 299.079 
L 123.51345 298.269738 
L 123.87603 260.780032 
L 124.23861 257.364266 
L 124.601191 260.578134 
L 124.963771 266.503796 
L 125.326352 268.626859 
L 126.051513 269.338753 
L 126.414093 273.438774 
L 126.776674 278.91104 
L 127.139254 275.210847 
L 127.501835 274.2079 
L 127.864415 274.249589 
L 128.226996 290.863229 
L 129.314737 300.621057 
L 129.677317 298.326035 
L 130.039898 294.097098 
L 130.402478 287.604509 
L 130.765059 288.000659 
L 131.127639 296.69601 
L 131.49022 294.468221 
L 131.8528 298.814603 
L 132.215381 299.560644 
L 132.577961 257.096724 
L 132.940542 261.759022 
L 133.303122 264.810117 
L 133.665702 261.372927 
L 134.028283 253.718806 
L 134.390863 253.846584 
L 134.753444 256.751911 
L 135.116024 254.763099 
L 135.478605 256.124262 
L 135.841185 254.75836 
L 136.203766 255.30467 
L 136.566346 254.97025 
L 136.928927 291.873285 
L 137.291507 292.428612 
L 137.654088 287.001738 
L 138.379248 291.562865 
L 138.741829 291.7572 
L 139.104409 301.361528 
L 139.46699 302.832 
L 140.917312 302.832 
L 141.279892 274.514878 
L 141.642473 275.63265 
L 142.005053 272.926145 
L 142.367634 275.334942 
L 143.092794 267.3602 
L 143.817955 259.75366 
L 144.180536 255.016912 
L 144.543116 258.407954 
L 144.905697 254.62845 
L 145.268277 248.65299 
L 145.630858 302.832 
L 147.08118 302.832 
L 147.44376 302.010192 
L 147.80634 290.630669 
L 148.168921 284.667647 
L 148.531501 289.969816 
L 148.894082 285.854493 
L 149.256662 291.236969 
L 149.619243 294.696173 
L 149.981823 215.849798 
L 151.069565 241.273835 
L 151.432145 239.172503 
L 151.794726 240.966735 
L 152.157306 230.911208 
L 152.519886 249.114193 
L 152.882467 255.408209 
L 153.245047 254.239093 
L 153.607628 255.218515 
L 153.970208 255.680534 
L 154.332789 302.832 
L 158.321174 302.832 
L 158.683754 269.578995 
L 159.046335 260.2086 
L 160.134076 265.534804 
L 160.496657 265.922212 
L 160.859237 264.209879 
L 161.221818 248.834274 
L 161.584398 252.698296 
L 161.946978 264.808228 
L 162.309559 265.201834 
L 162.672139 269.770822 
L 163.03472 302.832 
L 163.3973 302.033023 
L 163.759881 300.430577 
L 164.122461 300.039635 
L 164.485042 298.51669 
L 165.210203 302.832 
L 167.023105 302.832 
L 167.385685 281.086822 
L 167.748266 280.341925 
L 168.110846 281.3527 
L 168.473427 280.822332 
L 168.836007 283.826057 
L 169.198588 284.43604 
L 169.561168 282.218569 
L 169.923749 270.973694 
L 170.286329 250.583777 
L 170.64891 250.297292 
L 171.01149 240.931435 
L 171.37407 243.557955 
L 171.736651 302.006236 
L 172.099231 299.437882 
L 172.824392 299.855441 
L 173.186973 300.448066 
L 173.549553 300.255621 
L 173.912134 301.646647 
L 174.274714 301.281476 
L 174.637295 301.230296 
L 174.999875 299.80491 
L 175.362456 300.526477 
L 175.725036 299.489967 
L 176.087616 263.628439 
L 176.450197 256.563452 
L 176.812777 252.649342 
L 177.175358 251.036622 
L 177.537938 253.228095 
L 177.900519 254.392009 
L 178.263099 266.401282 
L 178.98826 273.349769 
L 179.350841 279.974113 
L 179.713421 274.335323 
L 180.076002 262.841671 
L 180.438582 302.832 
L 180.801162 299.670398 
L 181.163743 300.212759 
L 181.526323 299.112434 
L 181.888904 290.298018 
L 182.251484 292.223493 
L 182.614065 291.751144 
L 182.976645 290.049566 
L 183.339226 293.033267 
L 183.701806 293.586146 
L 184.064387 290.064126 
L 184.426967 293.710749 
L 184.789548 269.522125 
L 185.152128 270.863463 
L 185.514708 268.068619 
L 185.877289 258.502267 
L 186.239869 255.266018 
L 186.60245 247.731656 
L 186.96503 245.028776 
L 187.327611 244.227416 
L 187.690191 252.420409 
L 188.052772 249.624281 
L 188.415352 254.944639 
L 188.777933 249.057813 
L 189.140513 302.832 
L 189.503094 300.121328 
L 189.865674 299.874634 
L 190.228254 290.562161 
L 190.590835 286.855458 
L 190.953415 286.144297 
L 191.315996 286.597863 
L 191.678576 290.316092 
L 192.403737 301.676345 
L 192.766318 302.832 
L 193.128898 302.832 
L 193.491479 239.173519 
L 193.854059 248.091679 
L 194.21664 241.071097 
L 194.57922 246.221012 
L 194.9418 245.020645 
L 195.304381 246.725341 
L 196.029542 257.448051 
L 196.754703 256.635184 
L 197.117283 258.68826 
L 197.479864 251.776219 
L 197.842444 295.602619 
L 198.205025 292.475263 
L 198.567605 297.077708 
L 198.930186 296.045109 
L 199.292766 302.794404 
L 200.380507 302.832 
L 201.105668 302.832 
L 201.830829 299.163997 
L 202.19341 274.011626 
L 202.55599 269.526379 
L 203.281151 274.446856 
L 203.643732 276.926229 
L 204.006312 272.172787 
L 204.368892 273.368088 
L 204.731473 269.631354 
L 205.094053 268.450872 
L 205.819214 255.968299 
L 206.181795 251.451146 
L 206.544375 300.453477 
L 206.906956 299.473077 
L 207.269536 298.848453 
L 207.632117 298.929219 
L 207.994697 297.436299 
L 208.357278 297.59071 
L 208.719858 295.85027 
L 209.082438 296.672716 
L 209.445019 297.072178 
L 209.807599 294.091185 
L 210.17018 295.63019 
L 210.53276 295.022087 
L 210.53276 295.022087 
" clip-path="url(#p31b225ffb6)" style="fill: none; stroke: #ffa500; stroke-width: 1.5; stroke-linecap: square"/>
   </g>
   <g id="patch_13">
    <path d="M 55.584 307.872 
L 55.584 196.992 
" style="fill: none; stroke: #000000; stroke-width: 0.8; stroke-linejoin: miter; stroke-linecap: square"/>
   </g>
   <g id="patch_14">
    <path d="M 217.911273 307.872 
L 217.911273 196.992 
" style="fill: none; stroke: #000000; stroke-width: 0.8; stroke-linejoin: miter; stroke-linecap: square"/>
   </g>
   <g id="patch_15">
    <path d="M 55.584 307.872 
L 217.911273 307.872 
" style="fill: none; stroke: #000000; stroke-width: 0.8; stroke-linejoin: miter; stroke-linecap: square"/>
   </g>
   <g id="patch_16">
    <path d="M 55.584 196.992 
L 217.911273 196.992 
" style="fill: none; stroke: #000000; stroke-width: 0.8; stroke-linejoin: miter; stroke-linecap: square"/>
   </g>
   <g id="text_32">
    <!-- VAE -->
    <g transform="translate(125.130136 190.992) scale(0.12 -0.12)">
     <defs>
      <path id="DejaVuSans-56" d="M 1831 0 
L 50 4666 
L 709 4666 
L 2188 738 
L 3669 4666 
L 4325 4666 
L 2547 0 
L 1831 0 
z
" transform="scale(0.015625)"/>
      <path id="DejaVuSans-41" d="M 2188 4044 
L 1331 1722 
L 3047 1722 
L 2188 4044 
z
M 1831 4666 
L 2547 4666 
L 4325 0 
L 3669 0 
L 3244 1197 
L 1141 1197 
L 716 0 
L 50 0 
L 1831 4666 
z
" transform="scale(0.015625)"/>
      <path id="DejaVuSans-45" d="M 628 4666 
L 3578 4666 
L 3578 4134 
L 1259 4134 
L 1259 2753 
L 3481 2753 
L 3481 2222 
L 1259 2222 
L 1259 531 
L 3634 531 
L 3634 0 
L 628 0 
L 628 4666 
z
" transform="scale(0.015625)"/>
     </defs>
     <use xlink:href="#DejaVuSans-56"/>
     <use xlink:href="#DejaVuSans-41" x="62.033203"/>
     <use xlink:href="#DejaVuSans-45" x="130.441406"/>
    </g>
   </g>
  </g>
  <g id="axes_4">
   <g id="patch_17">
    <path d="M 250.376727 307.872 
L 412.704 307.872 
L 412.704 196.992 
L 250.376727 196.992 
z
" style="fill: #ffffff"/>
   </g>
   <g id="matplotlib.axis_7">
    <g id="xtick_16">
     <g id="line2d_33">
      <g>
       <use xlink:href="#m8c5647ade4" x="257.75524" y="307.872" style="stroke: #000000; stroke-width: 0.8"/>
      </g>
     </g>
     <g id="text_33">
      <!-- 0 -->
      <g transform="translate(254.57399 322.470437) scale(0.1 -0.1)">
       <use xlink:href="#DejaVuSans-30"/>
      </g>
     </g>
    </g>
    <g id="xtick_17">
     <g id="line2d_34">
      <g>
       <use xlink:href="#m8c5647ade4" x="294.013286" y="307.872" style="stroke: #000000; stroke-width: 0.8"/>
      </g>
     </g>
     <g id="text_34">
      <!-- 100 -->
      <g transform="translate(284.469536 322.470437) scale(0.1 -0.1)">
       <use xlink:href="#DejaVuSans-31"/>
       <use xlink:href="#DejaVuSans-30" x="63.623047"/>
       <use xlink:href="#DejaVuSans-30" x="127.246094"/>
      </g>
     </g>
    </g>
    <g id="xtick_18">
     <g id="line2d_35">
      <g>
       <use xlink:href="#m8c5647ade4" x="330.271332" y="307.872" style="stroke: #000000; stroke-width: 0.8"/>
      </g>
     </g>
     <g id="text_35">
      <!-- 200 -->
      <g transform="translate(320.727582 322.470437) scale(0.1 -0.1)">
       <use xlink:href="#DejaVuSans-32"/>
       <use xlink:href="#DejaVuSans-30" x="63.623047"/>
       <use xlink:href="#DejaVuSans-30" x="127.246094"/>
      </g>
     </g>
    </g>
    <g id="xtick_19">
     <g id="line2d_36">
      <g>
       <use xlink:href="#m8c5647ade4" x="366.529378" y="307.872" style="stroke: #000000; stroke-width: 0.8"/>
      </g>
     </g>
     <g id="text_36">
      <!-- 300 -->
      <g transform="translate(356.985628 322.470437) scale(0.1 -0.1)">
       <use xlink:href="#DejaVuSans-33"/>
       <use xlink:href="#DejaVuSans-30" x="63.623047"/>
       <use xlink:href="#DejaVuSans-30" x="127.246094"/>
      </g>
     </g>
    </g>
    <g id="xtick_20">
     <g id="line2d_37">
      <g>
       <use xlink:href="#m8c5647ade4" x="402.787424" y="307.872" style="stroke: #000000; stroke-width: 0.8"/>
      </g>
     </g>
     <g id="text_37">
      <!-- 400 -->
      <g transform="translate(393.243674 322.470437) scale(0.1 -0.1)">
       <use xlink:href="#DejaVuSans-34"/>
       <use xlink:href="#DejaVuSans-30" x="63.623047"/>
       <use xlink:href="#DejaVuSans-30" x="127.246094"/>
      </g>
     </g>
    </g>
   </g>
   <g id="matplotlib.axis_8">
    <g id="ytick_15">
     <g id="line2d_38">
      <g>
       <use xlink:href="#m31c6bc90d9" x="250.376727" y="302.832" style="stroke: #000000; stroke-width: 0.8"/>
      </g>
     </g>
     <g id="text_38">
      <!-- 0 -->
      <g transform="translate(237.014227 306.631219) scale(0.1 -0.1)">
       <use xlink:href="#DejaVuSans-30"/>
      </g>
     </g>
    </g>
    <g id="ytick_16">
     <g id="line2d_39">
      <g>
       <use xlink:href="#m31c6bc90d9" x="250.376727" y="280.358497" style="stroke: #000000; stroke-width: 0.8"/>
      </g>
     </g>
     <g id="text_39">
      <!-- 10 -->
      <g transform="translate(230.651727 284.157715) scale(0.1 -0.1)">
       <use xlink:href="#DejaVuSans-31"/>
       <use xlink:href="#DejaVuSans-30" x="63.623047"/>
      </g>
     </g>
    </g>
    <g id="ytick_17">
     <g id="line2d_40">
      <g>
       <use xlink:href="#m31c6bc90d9" x="250.376727" y="257.884993" style="stroke: #000000; stroke-width: 0.8"/>
      </g>
     </g>
     <g id="text_40">
      <!-- 20 -->
      <g transform="translate(230.651727 261.684212) scale(0.1 -0.1)">
       <use xlink:href="#DejaVuSans-32"/>
       <use xlink:href="#DejaVuSans-30" x="63.623047"/>
      </g>
     </g>
    </g>
    <g id="ytick_18">
     <g id="line2d_41">
      <g>
       <use xlink:href="#m31c6bc90d9" x="250.376727" y="235.41149" style="stroke: #000000; stroke-width: 0.8"/>
      </g>
     </g>
     <g id="text_41">
      <!-- 30 -->
      <g transform="translate(230.651727 239.210709) scale(0.1 -0.1)">
       <use xlink:href="#DejaVuSans-33"/>
       <use xlink:href="#DejaVuSans-30" x="63.623047"/>
      </g>
     </g>
    </g>
    <g id="ytick_19">
     <g id="line2d_42">
      <g>
       <use xlink:href="#m31c6bc90d9" x="250.376727" y="212.937987" style="stroke: #000000; stroke-width: 0.8"/>
      </g>
     </g>
     <g id="text_42">
      <!-- 40 -->
      <g transform="translate(230.651727 216.737205) scale(0.1 -0.1)">
       <use xlink:href="#DejaVuSans-34"/>
       <use xlink:href="#DejaVuSans-30" x="63.623047"/>
      </g>
     </g>
    </g>
   </g>
   <g id="line2d_43">
    <path d="M 257.75524 204.119267 
L 258.11782 202.032 
L 258.480401 207.853494 
L 259.568142 231.353411 
L 259.930722 232.573702 
L 260.655883 244.496815 
L 261.381044 249.828656 
L 261.743625 249.107949 
L 262.106205 272.435297 
L 262.468786 275.272846 
L 262.831366 268.822331 
L 263.193947 277.610169 
L 263.556527 269.53646 
L 264.281688 277.120611 
L 264.644268 276.387069 
L 265.006849 284.175448 
L 265.369429 277.791757 
L 265.73201 287.927471 
L 266.09459 280.162757 
L 266.457171 275.299001 
L 266.819751 275.691986 
L 267.182332 277.676835 
L 267.907493 274.913515 
L 268.270073 275.294859 
L 268.632654 274.228723 
L 268.995234 271.414209 
L 269.357814 271.315817 
L 269.720395 272.936804 
L 270.082975 271.308172 
L 270.445556 268.162924 
L 270.808136 277.817685 
L 271.170717 283.939562 
L 271.533297 270.963278 
L 271.895878 271.136014 
L 272.258458 290.295673 
L 272.621039 273.292699 
L 272.983619 283.656479 
L 273.3462 280.59132 
L 273.70878 275.380209 
L 274.07136 285.330177 
L 274.433941 284.689201 
L 274.796521 281.681804 
L 275.159102 267.82475 
L 275.521682 271.069672 
L 275.884263 272.683674 
L 276.246843 277.662315 
L 276.609424 276.513869 
L 276.972004 277.796185 
L 277.334585 267.794851 
L 277.697165 273.023022 
L 278.059746 271.61009 
L 278.422326 257.212053 
L 278.784906 265.960033 
L 279.147487 266.357623 
L 279.872648 282.205771 
L 280.235228 270.278708 
L 280.597809 265.576521 
L 280.960389 269.549142 
L 281.32297 261.950846 
L 281.68555 258.207825 
L 282.048131 262.548839 
L 282.410711 254.997712 
L 282.773292 275.34277 
L 283.135872 276.056064 
L 283.498452 261.498265 
L 283.861033 241.321581 
L 284.586194 256.061136 
L 284.948774 255.127328 
L 285.311355 253.314586 
L 285.673935 245.702071 
L 286.399096 252.85461 
L 286.761677 252.771968 
L 287.124257 248.473944 
L 287.486838 248.723996 
L 287.849418 251.786903 
L 288.211998 275.835924 
L 288.574579 269.953062 
L 288.937159 271.226708 
L 289.29974 274.65567 
L 289.66232 270.98341 
L 290.024901 275.261663 
L 290.387481 257.923855 
L 290.750062 267.822428 
L 291.112642 243.78325 
L 291.475223 250.530369 
L 291.837803 253.462363 
L 292.200384 282.580128 
L 292.562964 242.529359 
L 292.925544 246.093038 
L 293.288125 244.012149 
L 293.650705 245.13715 
L 294.013286 244.204325 
L 294.375866 241.998438 
L 295.101027 236.155257 
L 295.826188 250.654501 
L 296.188769 253.325702 
L 296.551349 257.238705 
L 296.91393 278.592344 
L 297.27651 281.391132 
L 297.63909 282.662963 
L 298.001671 287.558149 
L 298.364251 295.465685 
L 298.726832 298.11165 
L 299.089412 299.608151 
L 299.451993 294.930244 
L 299.814573 284.88506 
L 300.177154 279.469137 
L 300.539734 280.542705 
L 300.902315 274.904946 
L 301.264895 237.654618 
L 301.990056 265.75863 
L 302.352636 268.805453 
L 302.715217 269.391757 
L 303.077797 268.157095 
L 303.440378 268.722654 
L 303.802958 267.953384 
L 304.528119 275.231924 
L 304.8907 275.095881 
L 305.25328 271.885253 
L 305.615861 273.381636 
L 305.978441 287.210021 
L 306.341022 279.75438 
L 306.703602 282.188651 
L 307.066182 272.999845 
L 307.428763 270.606913 
L 308.153924 279.052471 
L 308.516504 282.233155 
L 308.879085 276.187592 
L 309.241665 275.70814 
L 309.604246 278.223201 
L 309.966826 265.819084 
L 310.329407 265.500612 
L 310.691987 267.131323 
L 311.417148 261.807761 
L 311.779728 268.459289 
L 312.142309 271.169924 
L 312.504889 268.02878 
L 313.23005 276.646975 
L 313.955211 280.483906 
L 314.317792 294.305436 
L 314.680372 294.389125 
L 315.405533 298.814531 
L 315.768114 299.966622 
L 316.130694 290.744307 
L 316.493274 298.568588 
L 316.855855 287.50797 
L 317.218435 263.471771 
L 317.581016 283.35428 
L 317.943596 277.737727 
L 318.306177 284.271574 
L 318.668757 260.813064 
L 319.031338 257.374027 
L 319.393918 260.584827 
L 319.756499 266.50195 
L 320.119079 268.621862 
L 320.84424 269.35575 
L 321.20682 273.450993 
L 321.569401 278.893667 
L 321.931981 275.218593 
L 322.294562 274.224089 
L 322.657142 274.253298 
L 323.019723 282.707434 
L 323.382303 286.002643 
L 323.744884 277.464869 
L 324.107464 281.799529 
L 324.470045 278.81868 
L 324.832625 282.760716 
L 325.195206 277.494653 
L 325.557786 266.217229 
L 325.920366 260.018495 
L 326.282947 277.344564 
L 326.645527 272.74666 
L 327.370688 257.107502 
L 327.733269 261.794315 
L 328.095849 264.812711 
L 328.45843 261.39384 
L 328.82101 253.724907 
L 329.183591 254.108611 
L 329.546171 256.766265 
L 329.908752 254.782196 
L 330.271332 256.151003 
L 330.633912 254.768487 
L 330.996493 255.342986 
L 331.359073 254.972083 
L 331.721654 269.771497 
L 332.084234 278.519252 
L 332.446815 268.399026 
L 332.809395 271.76004 
L 333.171976 253.318497 
L 333.534556 254.219536 
L 333.897137 268.010059 
L 334.259717 263.090868 
L 334.622298 265.400371 
L 334.984878 268.689197 
L 335.347458 278.976145 
L 335.710039 284.022676 
L 336.072619 274.568576 
L 336.4352 275.646688 
L 336.79778 272.922012 
L 337.160361 275.37437 
L 337.885522 267.367461 
L 338.610683 259.770871 
L 338.973263 255.033234 
L 339.335844 258.422463 
L 339.698424 254.631122 
L 340.061004 248.697859 
L 340.423585 268.77817 
L 340.786165 260.291506 
L 341.148746 260.555985 
L 341.511326 268.928356 
L 341.873907 262.070452 
L 342.236487 251.78308 
L 342.599068 259.792263 
L 343.686809 245.8175 
L 344.04939 244.549637 
L 344.41197 252.649723 
L 344.77455 215.887969 
L 345.862292 241.298184 
L 346.224872 239.166826 
L 346.587453 240.986825 
L 346.950033 230.945322 
L 347.312614 249.148176 
L 347.675194 255.429082 
L 348.037775 254.261256 
L 348.400355 255.228861 
L 348.762936 255.692573 
L 349.125516 268.997123 
L 349.488096 266.490118 
L 349.850677 289.879255 
L 350.213257 277.432098 
L 350.575838 271.698907 
L 350.938418 273.637838 
L 351.300999 271.661817 
L 351.663579 279.830043 
L 352.02616 272.044579 
L 352.38874 278.522065 
L 352.751321 276.196098 
L 353.113901 274.597207 
L 353.476482 269.193573 
L 353.839062 260.210304 
L 354.564223 264.614855 
L 354.926803 265.501765 
L 355.289384 265.928795 
L 355.651964 264.223647 
L 356.014545 248.873384 
L 356.377125 252.725758 
L 356.739706 264.840318 
L 357.102286 265.2442 
L 357.464867 269.77329 
L 357.827447 294.160356 
L 358.190028 280.473855 
L 358.552608 282.301473 
L 359.277769 277.923079 
L 360.00293 283.876029 
L 360.728091 289.041231 
L 361.090671 291.179217 
L 361.815832 302.832 
L 362.178413 281.086222 
L 362.540993 280.370794 
L 362.903574 281.357239 
L 363.266154 280.836985 
L 363.628735 283.822138 
L 363.991315 284.424724 
L 364.353895 282.210837 
L 364.716476 270.9758 
L 365.079056 250.593395 
L 365.441637 250.319309 
L 365.804217 240.952494 
L 366.166798 243.572484 
L 366.891959 296.366679 
L 367.254539 275.453205 
L 367.9797 283.670406 
L 368.342281 282.15764 
L 368.704861 275.751696 
L 369.067441 286.871686 
L 369.430022 283.061798 
L 369.792602 280.995517 
L 370.155183 272.895217 
L 370.517763 279.842752 
L 370.880344 263.605307 
L 371.242924 256.588182 
L 371.605505 252.681797 
L 371.968085 251.03693 
L 372.330666 253.179673 
L 372.693246 254.409129 
L 373.055827 266.402305 
L 373.780987 273.370006 
L 374.143568 280.00744 
L 374.506148 274.350012 
L 374.868729 262.97057 
L 375.231309 275.766899 
L 375.59389 274.512491 
L 375.95647 262.572371 
L 376.319051 269.937223 
L 376.681631 267.814014 
L 377.044212 257.39626 
L 377.406792 265.279171 
L 377.769373 267.600866 
L 378.131953 272.931669 
L 378.494533 284.923939 
L 378.857114 283.861406 
L 379.219694 286.295133 
L 379.582275 269.532356 
L 379.944855 270.879034 
L 380.307436 268.08291 
L 380.670016 258.501965 
L 381.032597 255.291747 
L 381.395177 247.765249 
L 381.757758 245.049701 
L 382.120338 244.29009 
L 382.482919 252.435189 
L 382.845499 249.606584 
L 383.208079 254.981071 
L 383.57066 249.070539 
L 383.93324 280.91081 
L 384.295821 254.372621 
L 384.658401 262.590134 
L 385.020982 253.139574 
L 385.383562 264.769857 
L 385.746143 257.809489 
L 386.108723 253.659087 
L 386.471304 265.413696 
L 386.833884 258.944988 
L 387.196465 236.946752 
L 387.559045 260.314289 
L 387.921625 229.517113 
L 388.646786 248.117359 
L 389.009367 241.00345 
L 389.371947 246.257832 
L 389.734528 244.998958 
L 390.097108 246.752305 
L 390.822269 257.543369 
L 391.18485 256.996737 
L 391.54743 256.659776 
L 391.910011 258.68383 
L 392.272591 251.790916 
L 392.635171 269.492376 
L 392.997752 267.234604 
L 393.360332 266.497545 
L 393.722913 281.384176 
L 394.085493 281.065075 
L 394.448074 277.433719 
L 395.173235 287.49823 
L 395.535815 288.139358 
L 395.898396 286.890319 
L 396.260976 289.082985 
L 396.623557 285.768945 
L 396.986137 274.004228 
L 397.348717 269.535633 
L 398.073878 274.462562 
L 398.436459 276.924597 
L 398.799039 272.204752 
L 399.16162 273.343509 
L 399.5242 269.650427 
L 399.886781 268.429244 
L 400.974522 251.478777 
L 401.337103 287.800966 
L 401.699683 261.231215 
L 402.062263 266.867952 
L 402.424844 279.485954 
L 402.787424 268.920758 
L 403.150005 274.110099 
L 403.512585 268.606194 
L 404.237746 274.36195 
L 404.600327 275.268956 
L 404.962907 270.208278 
L 405.325488 274.750079 
L 405.325488 274.750079 
" clip-path="url(#p5901706468)" style="fill: none; stroke: #ff0000; stroke-width: 1.5; stroke-linecap: square"/>
   </g>
   <g id="patch_18">
    <path d="M 250.376727 307.872 
L 250.376727 196.992 
" style="fill: none; stroke: #000000; stroke-width: 0.8; stroke-linejoin: miter; stroke-linecap: square"/>
   </g>
   <g id="patch_19">
    <path d="M 412.704 307.872 
L 412.704 196.992 
" style="fill: none; stroke: #000000; stroke-width: 0.8; stroke-linejoin: miter; stroke-linecap: square"/>
   </g>
   <g id="patch_20">
    <path d="M 250.376727 307.872 
L 412.704 307.872 
" style="fill: none; stroke: #000000; stroke-width: 0.8; stroke-linejoin: miter; stroke-linecap: square"/>
   </g>
   <g id="patch_21">
    <path d="M 250.376727 196.992 
L 412.704 196.992 
" style="fill: none; stroke: #000000; stroke-width: 0.8; stroke-linejoin: miter; stroke-linecap: square"/>
   </g>
   <g id="text_43">
    <!-- VRNN -->
    <g transform="translate(314.289426 190.992) scale(0.12 -0.12)">
     <use xlink:href="#DejaVuSans-56"/>
     <use xlink:href="#DejaVuSans-52" x="68.408203"/>
     <use xlink:href="#DejaVuSans-4e" x="137.890625"/>
     <use xlink:href="#DejaVuSans-4e" x="212.695312"/>
    </g>
   </g>
  </g>
  <g id="text_44">
   <!-- VMAF Scores Over Frames: Video #20 -->
   <g transform="translate(114.338063 16.318125) scale(0.12 -0.12)">
    <defs>
     <path id="DejaVuSans-4d" d="M 628 4666 
L 1569 4666 
L 2759 1491 
L 3956 4666 
L 4897 4666 
L 4897 0 
L 4281 0 
L 4281 4097 
L 3078 897 
L 2444 897 
L 1241 4097 
L 1241 0 
L 628 0 
L 628 4666 
z
" transform="scale(0.015625)"/>
     <path id="DejaVuSans-73" d="M 2834 3397 
L 2834 2853 
Q 2591 2978 2328 3040 
Q 2066 3103 1784 3103 
Q 1356 3103 1142 2972 
Q 928 2841 928 2578 
Q 928 2378 1081 2264 
Q 1234 2150 1697 2047 
L 1894 2003 
Q 2506 1872 2764 1633 
Q 3022 1394 3022 966 
Q 3022 478 2636 193 
Q 2250 -91 1575 -91 
Q 1294 -91 989 -36 
Q 684 19 347 128 
L 347 722 
Q 666 556 975 473 
Q 1284 391 1588 391 
Q 1994 391 2212 530 
Q 2431 669 2431 922 
Q 2431 1156 2273 1281 
Q 2116 1406 1581 1522 
L 1381 1569 
Q 847 1681 609 1914 
Q 372 2147 372 2553 
Q 372 3047 722 3315 
Q 1072 3584 1716 3584 
Q 2034 3584 2315 3537 
Q 2597 3491 2834 3397 
z
" transform="scale(0.015625)"/>
     <path id="DejaVuSans-76" d="M 191 3500 
L 800 3500 
L 1894 563 
L 2988 3500 
L 3597 3500 
L 2284 0 
L 1503 0 
L 191 3500 
z
" transform="scale(0.015625)"/>
     <path id="DejaVuSans-61" d="M 2194 1759 
Q 1497 1759 1228 1600 
Q 959 1441 959 1056 
Q 959 750 1161 570 
Q 1363 391 1709 391 
Q 2188 391 2477 730 
Q 2766 1069 2766 1631 
L 2766 1759 
L 2194 1759 
z
M 3341 1997 
L 3341 0 
L 2766 0 
L 2766 531 
Q 2569 213 2275 61 
Q 1981 -91 1556 -91 
Q 1019 -91 701 211 
Q 384 513 384 1019 
Q 384 1609 779 1909 
Q 1175 2209 1959 2209 
L 2766 2209 
L 2766 2266 
Q 2766 2663 2505 2880 
Q 2244 3097 1772 3097 
Q 1472 3097 1187 3025 
Q 903 2953 641 2809 
L 641 3341 
Q 956 3463 1253 3523 
Q 1550 3584 1831 3584 
Q 2591 3584 2966 3190 
Q 3341 2797 3341 1997 
z
" transform="scale(0.015625)"/>
     <path id="DejaVuSans-6d" d="M 3328 2828 
Q 3544 3216 3844 3400 
Q 4144 3584 4550 3584 
Q 5097 3584 5394 3201 
Q 5691 2819 5691 2113 
L 5691 0 
L 5113 0 
L 5113 2094 
Q 5113 2597 4934 2840 
Q 4756 3084 4391 3084 
Q 3944 3084 3684 2787 
Q 3425 2491 3425 1978 
L 3425 0 
L 2847 0 
L 2847 2094 
Q 2847 2600 2669 2842 
Q 2491 3084 2119 3084 
Q 1678 3084 1418 2786 
Q 1159 2488 1159 1978 
L 1159 0 
L 581 0 
L 581 3500 
L 1159 3500 
L 1159 2956 
Q 1356 3278 1631 3431 
Q 1906 3584 2284 3584 
Q 2666 3584 2933 3390 
Q 3200 3197 3328 2828 
z
" transform="scale(0.015625)"/>
     <path id="DejaVuSans-3a" d="M 750 794 
L 1409 794 
L 1409 0 
L 750 0 
L 750 794 
z
M 750 3309 
L 1409 3309 
L 1409 2516 
L 750 2516 
L 750 3309 
z
" transform="scale(0.015625)"/>
     <path id="DejaVuSans-23" d="M 3272 2816 
L 2363 2816 
L 2100 1772 
L 3016 1772 
L 3272 2816 
z
M 2803 4594 
L 2478 3297 
L 3391 3297 
L 3719 4594 
L 4219 4594 
L 3897 3297 
L 4872 3297 
L 4872 2816 
L 3775 2816 
L 3519 1772 
L 4513 1772 
L 4513 1294 
L 3397 1294 
L 3072 0 
L 2572 0 
L 2894 1294 
L 1978 1294 
L 1656 0 
L 1153 0 
L 1478 1294 
L 494 1294 
L 494 1772 
L 1594 1772 
L 1856 2816 
L 850 2816 
L 850 3297 
L 1978 3297 
L 2297 4594 
L 2803 4594 
z
" transform="scale(0.015625)"/>
    </defs>
    <use xlink:href="#DejaVuSans-56"/>
    <use xlink:href="#DejaVuSans-4d" x="68.408203"/>
    <use xlink:href="#DejaVuSans-41" x="154.6875"/>
    <use xlink:href="#DejaVuSans-46" x="223.095703"/>
    <use xlink:href="#DejaVuSans-20" x="280.615234"/>
    <use xlink:href="#DejaVuSans-53" x="312.402344"/>
    <use xlink:href="#DejaVuSans-63" x="375.878906"/>
    <use xlink:href="#DejaVuSans-6f" x="430.859375"/>
    <use xlink:href="#DejaVuSans-72" x="492.041016"/>
    <use xlink:href="#DejaVuSans-65" x="530.904297"/>
    <use xlink:href="#DejaVuSans-73" x="592.427734"/>
    <use xlink:href="#DejaVuSans-20" x="644.527344"/>
    <use xlink:href="#DejaVuSans-4f" x="676.314453"/>
    <use xlink:href="#DejaVuSans-76" x="755.025391"/>
    <use xlink:href="#DejaVuSans-65" x="814.205078"/>
    <use xlink:href="#DejaVuSans-72" x="875.728516"/>
    <use xlink:href="#DejaVuSans-20" x="916.841797"/>
    <use xlink:href="#DejaVuSans-46" x="948.628906"/>
    <use xlink:href="#DejaVuSans-72" x="998.898438"/>
    <use xlink:href="#DejaVuSans-61" x="1040.011719"/>
    <use xlink:href="#DejaVuSans-6d" x="1101.291016"/>
    <use xlink:href="#DejaVuSans-65" x="1198.703125"/>
    <use xlink:href="#DejaVuSans-73" x="1260.226562"/>
    <use xlink:href="#DejaVuSans-3a" x="1312.326172"/>
    <use xlink:href="#DejaVuSans-20" x="1346.017578"/>
    <use xlink:href="#DejaVuSans-56" x="1377.804688"/>
    <use xlink:href="#DejaVuSans-69" x="1443.962891"/>
    <use xlink:href="#DejaVuSans-64" x="1471.746094"/>
    <use xlink:href="#DejaVuSans-65" x="1535.222656"/>
    <use xlink:href="#DejaVuSans-6f" x="1596.746094"/>
    <use xlink:href="#DejaVuSans-20" x="1657.927734"/>
    <use xlink:href="#DejaVuSans-23" x="1689.714844"/>
    <use xlink:href="#DejaVuSans-32" x="1773.503906"/>
    <use xlink:href="#DejaVuSans-30" x="1837.126953"/>
   </g>
  </g>
  <g id="text_45">
   <!-- Video Frames -->
   <g transform="translate(187.847438 339.936375) scale(0.12 -0.12)">
    <use xlink:href="#DejaVuSans-56"/>
    <use xlink:href="#DejaVuSans-69" x="66.158203"/>
    <use xlink:href="#DejaVuSans-64" x="93.941406"/>
    <use xlink:href="#DejaVuSans-65" x="157.417969"/>
    <use xlink:href="#DejaVuSans-6f" x="218.941406"/>
    <use xlink:href="#DejaVuSans-20" x="280.123047"/>
    <use xlink:href="#DejaVuSans-46" x="311.910156"/>
    <use xlink:href="#DejaVuSans-72" x="362.179688"/>
    <use xlink:href="#DejaVuSans-61" x="403.292969"/>
    <use xlink:href="#DejaVuSans-6d" x="464.572266"/>
    <use xlink:href="#DejaVuSans-65" x="561.984375"/>
    <use xlink:href="#DejaVuSans-73" x="623.507812"/>
   </g>
  </g>
  <g id="text_46">
   <!-- Raw VMAF Scores -->
   <g transform="translate(16.318125 226.284562) rotate(-90) scale(0.12 -0.12)">
    <defs>
     <path id="DejaVuSans-77" d="M 269 3500 
L 844 3500 
L 1563 769 
L 2278 3500 
L 2956 3500 
L 3675 769 
L 4391 3500 
L 4966 3500 
L 4050 0 
L 3372 0 
L 2619 2869 
L 1863 0 
L 1184 0 
L 269 3500 
z
" transform="scale(0.015625)"/>
    </defs>
    <use xlink:href="#DejaVuSans-52"/>
    <use xlink:href="#DejaVuSans-61" x="67.232422"/>
    <use xlink:href="#DejaVuSans-77" x="128.511719"/>
    <use xlink:href="#DejaVuSans-20" x="210.298828"/>
    <use xlink:href="#DejaVuSans-56" x="242.085938"/>
    <use xlink:href="#DejaVuSans-4d" x="310.494141"/>
    <use xlink:href="#DejaVuSans-41" x="396.773438"/>
    <use xlink:href="#DejaVuSans-46" x="465.181641"/>
    <use xlink:href="#DejaVuSans-20" x="522.701172"/>
    <use xlink:href="#DejaVuSans-53" x="554.488281"/>
    <use xlink:href="#DejaVuSans-63" x="617.964844"/>
    <use xlink:href="#DejaVuSans-6f" x="672.945312"/>
    <use xlink:href="#DejaVuSans-72" x="734.126953"/>
    <use xlink:href="#DejaVuSans-65" x="772.990234"/>
    <use xlink:href="#DejaVuSans-73" x="834.513672"/>
   </g>
  </g>
 </g>
 <defs>
  <clipPath id="p2782134f2b">
   <rect x="55.584" y="41.76" width="162.327273" height="110.88"/>
  </clipPath>
  <clipPath id="p5689a1fca8">
   <rect x="250.376727" y="41.76" width="162.327273" height="110.88"/>
  </clipPath>
  <clipPath id="p31b225ffb6">
   <rect x="55.584" y="196.992" width="162.327273" height="110.88"/>
  </clipPath>
  <clipPath id="p5901706468">
   <rect x="250.376727" y="196.992" width="162.327273" height="110.88"/>
  </clipPath>
 </defs>
</svg>
