<?xml version="1.0" encoding="utf-8" standalone="no"?>
<!DOCTYPE svg PUBLIC "-//W3C//DTD SVG 1.1//EN"
  "http://www.w3.org/Graphics/SVG/1.1/DTD/svg11.dtd">
<svg xmlns:xlink="http://www.w3.org/1999/xlink" width="419.904pt" height="349.632pt" viewBox="0 0 419.904 349.632" xmlns="http://www.w3.org/2000/svg" version="1.1">
 <metadata>
  <rdf:RDF xmlns:dc="http://purl.org/dc/elements/1.1/" xmlns:cc="http://creativecommons.org/ns#" xmlns:rdf="http://www.w3.org/1999/02/22-rdf-syntax-ns#">
   <cc:Work>
    <dc:type rdf:resource="http://purl.org/dc/dcmitype/StillImage"/>
    <dc:date>2024-07-24T16:31:58.456336</dc:date>
    <dc:format>image/svg+xml</dc:format>
    <dc:creator>
     <cc:Agent>
      <dc:title>Matplotlib v3.7.2, https://matplotlib.org/</dc:title>
     </cc:Agent>
    </dc:creator>
   </cc:Work>
  </rdf:RDF>
 </metadata>
 <defs>
  <style type="text/css">*{stroke-linejoin: round; stroke-linecap: butt}</style>
 </defs>
 <g id="figure_1">
  <g id="patch_1">
   <path d="M 0 349.632 
L 419.904 349.632 
L 419.904 -0 
L 0 -0 
z
" style="fill: #ffffff"/>
  </g>
  <g id="axes_1">
   <g id="patch_2">
    <path d="M 55.584 152.64 
L 217.911273 152.64 
L 217.911273 41.76 
L 55.584 41.76 
z
" style="fill: #ffffff"/>
   </g>
   <g id="matplotlib.axis_1">
    <g id="xtick_1">
     <g id="line2d_1">
      <defs>
       <path id="m45ca2c7e5f" d="M 0 0 
L 0 3.5 
" style="stroke: #000000; stroke-width: 0.8"/>
      </defs>
      <g>
       <use xlink:href="#m45ca2c7e5f" x="62.962512" y="152.64" style="stroke: #000000; stroke-width: 0.8"/>
      </g>
     </g>
     <g id="text_1">
      <!-- 0 -->
      <g transform="translate(59.781262 167.238437) scale(0.1 -0.1)">
       <defs>
        <path id="DejaVuSans-30" d="M 2034 4250 
Q 1547 4250 1301 3770 
Q 1056 3291 1056 2328 
Q 1056 1369 1301 889 
Q 1547 409 2034 409 
Q 2525 409 2770 889 
Q 3016 1369 3016 2328 
Q 3016 3291 2770 3770 
Q 2525 4250 2034 4250 
z
M 2034 4750 
Q 2819 4750 3233 4129 
Q 3647 3509 3647 2328 
Q 3647 1150 3233 529 
Q 2819 -91 2034 -91 
Q 1250 -91 836 529 
Q 422 1150 422 2328 
Q 422 3509 836 4129 
Q 1250 4750 2034 4750 
z
" transform="scale(0.015625)"/>
       </defs>
       <use xlink:href="#DejaVuSans-30"/>
      </g>
     </g>
    </g>
    <g id="xtick_2">
     <g id="line2d_2">
      <g>
       <use xlink:href="#m45ca2c7e5f" x="107.145221" y="152.64" style="stroke: #000000; stroke-width: 0.8"/>
      </g>
     </g>
     <g id="text_2">
      <!-- 50 -->
      <g transform="translate(100.782721 167.238437) scale(0.1 -0.1)">
       <defs>
        <path id="DejaVuSans-35" d="M 691 4666 
L 3169 4666 
L 3169 4134 
L 1269 4134 
L 1269 2991 
Q 1406 3038 1543 3061 
Q 1681 3084 1819 3084 
Q 2600 3084 3056 2656 
Q 3513 2228 3513 1497 
Q 3513 744 3044 326 
Q 2575 -91 1722 -91 
Q 1428 -91 1123 -41 
Q 819 9 494 109 
L 494 744 
Q 775 591 1075 516 
Q 1375 441 1709 441 
Q 2250 441 2565 725 
Q 2881 1009 2881 1497 
Q 2881 1984 2565 2268 
Q 2250 2553 1709 2553 
Q 1456 2553 1204 2497 
Q 953 2441 691 2322 
L 691 4666 
z
" transform="scale(0.015625)"/>
       </defs>
       <use xlink:href="#DejaVuSans-35"/>
       <use xlink:href="#DejaVuSans-30" x="63.623047"/>
      </g>
     </g>
    </g>
    <g id="xtick_3">
     <g id="line2d_3">
      <g>
       <use xlink:href="#m45ca2c7e5f" x="151.32793" y="152.64" style="stroke: #000000; stroke-width: 0.8"/>
      </g>
     </g>
     <g id="text_3">
      <!-- 100 -->
      <g transform="translate(141.78418 167.238437) scale(0.1 -0.1)">
       <defs>
        <path id="DejaVuSans-31" d="M 794 531 
L 1825 531 
L 1825 4091 
L 703 3866 
L 703 4441 
L 1819 4666 
L 2450 4666 
L 2450 531 
L 3481 531 
L 3481 0 
L 794 0 
L 794 531 
z
" transform="scale(0.015625)"/>
       </defs>
       <use xlink:href="#DejaVuSans-31"/>
       <use xlink:href="#DejaVuSans-30" x="63.623047"/>
       <use xlink:href="#DejaVuSans-30" x="127.246094"/>
      </g>
     </g>
    </g>
    <g id="xtick_4">
     <g id="line2d_4">
      <g>
       <use xlink:href="#m45ca2c7e5f" x="195.510639" y="152.64" style="stroke: #000000; stroke-width: 0.8"/>
      </g>
     </g>
     <g id="text_4">
      <!-- 150 -->
      <g transform="translate(185.966889 167.238437) scale(0.1 -0.1)">
       <use xlink:href="#DejaVuSans-31"/>
       <use xlink:href="#DejaVuSans-35" x="63.623047"/>
       <use xlink:href="#DejaVuSans-30" x="127.246094"/>
      </g>
     </g>
    </g>
   </g>
   <g id="matplotlib.axis_2">
    <g id="ytick_1">
     <g id="line2d_5">
      <defs>
       <path id="mb91f86bff6" d="M 0 0 
L -3.5 0 
" style="stroke: #000000; stroke-width: 0.8"/>
      </defs>
      <g>
       <use xlink:href="#mb91f86bff6" x="55.584" y="141.091887" style="stroke: #000000; stroke-width: 0.8"/>
      </g>
     </g>
     <g id="text_5">
      <!-- 10 -->
      <g transform="translate(35.859 144.891106) scale(0.1 -0.1)">
       <use xlink:href="#DejaVuSans-31"/>
       <use xlink:href="#DejaVuSans-30" x="63.623047"/>
      </g>
     </g>
    </g>
    <g id="ytick_2">
     <g id="line2d_6">
      <g>
       <use xlink:href="#mb91f86bff6" x="55.584" y="115.742696" style="stroke: #000000; stroke-width: 0.8"/>
      </g>
     </g>
     <g id="text_6">
      <!-- 20 -->
      <g transform="translate(35.859 119.541915) scale(0.1 -0.1)">
       <defs>
        <path id="DejaVuSans-32" d="M 1228 531 
L 3431 531 
L 3431 0 
L 469 0 
L 469 531 
Q 828 903 1448 1529 
Q 2069 2156 2228 2338 
Q 2531 2678 2651 2914 
Q 2772 3150 2772 3378 
Q 2772 3750 2511 3984 
Q 2250 4219 1831 4219 
Q 1534 4219 1204 4116 
Q 875 4013 500 3803 
L 500 4441 
Q 881 4594 1212 4672 
Q 1544 4750 1819 4750 
Q 2544 4750 2975 4387 
Q 3406 4025 3406 3419 
Q 3406 3131 3298 2873 
Q 3191 2616 2906 2266 
Q 2828 2175 2409 1742 
Q 1991 1309 1228 531 
z
" transform="scale(0.015625)"/>
       </defs>
       <use xlink:href="#DejaVuSans-32"/>
       <use xlink:href="#DejaVuSans-30" x="63.623047"/>
      </g>
     </g>
    </g>
    <g id="ytick_3">
     <g id="line2d_7">
      <g>
       <use xlink:href="#mb91f86bff6" x="55.584" y="90.393505" style="stroke: #000000; stroke-width: 0.8"/>
      </g>
     </g>
     <g id="text_7">
      <!-- 30 -->
      <g transform="translate(35.859 94.192724) scale(0.1 -0.1)">
       <defs>
        <path id="DejaVuSans-33" d="M 2597 2516 
Q 3050 2419 3304 2112 
Q 3559 1806 3559 1356 
Q 3559 666 3084 287 
Q 2609 -91 1734 -91 
Q 1441 -91 1130 -33 
Q 819 25 488 141 
L 488 750 
Q 750 597 1062 519 
Q 1375 441 1716 441 
Q 2309 441 2620 675 
Q 2931 909 2931 1356 
Q 2931 1769 2642 2001 
Q 2353 2234 1838 2234 
L 1294 2234 
L 1294 2753 
L 1863 2753 
Q 2328 2753 2575 2939 
Q 2822 3125 2822 3475 
Q 2822 3834 2567 4026 
Q 2313 4219 1838 4219 
Q 1578 4219 1281 4162 
Q 984 4106 628 3988 
L 628 4550 
Q 988 4650 1302 4700 
Q 1616 4750 1894 4750 
Q 2613 4750 3031 4423 
Q 3450 4097 3450 3541 
Q 3450 3153 3228 2886 
Q 3006 2619 2597 2516 
z
" transform="scale(0.015625)"/>
       </defs>
       <use xlink:href="#DejaVuSans-33"/>
       <use xlink:href="#DejaVuSans-30" x="63.623047"/>
      </g>
     </g>
    </g>
    <g id="ytick_4">
     <g id="line2d_8">
      <g>
       <use xlink:href="#mb91f86bff6" x="55.584" y="65.044315" style="stroke: #000000; stroke-width: 0.8"/>
      </g>
     </g>
     <g id="text_8">
      <!-- 40 -->
      <g transform="translate(35.859 68.843533) scale(0.1 -0.1)">
       <defs>
        <path id="DejaVuSans-34" d="M 2419 4116 
L 825 1625 
L 2419 1625 
L 2419 4116 
z
M 2253 4666 
L 3047 4666 
L 3047 1625 
L 3713 1625 
L 3713 1100 
L 3047 1100 
L 3047 0 
L 2419 0 
L 2419 1100 
L 313 1100 
L 313 1709 
L 2253 4666 
z
" transform="scale(0.015625)"/>
       </defs>
       <use xlink:href="#DejaVuSans-34"/>
       <use xlink:href="#DejaVuSans-30" x="63.623047"/>
      </g>
     </g>
    </g>
   </g>
   <g id="line2d_9">
    <path d="M 62.962512 47.707225 
L 63.846167 46.8 
L 64.729821 57.249872 
L 65.613475 71.736118 
L 66.497129 88.690666 
L 67.380783 95.532846 
L 68.264437 113.5111 
L 69.148092 121.93491 
L 70.031746 117.119025 
L 70.9154 121.60953 
L 71.799054 120.926461 
L 72.682708 119.863128 
L 73.566363 115.302733 
L 74.450017 109.344089 
L 76.217325 116.321517 
L 77.100979 125.187635 
L 77.984633 126.59019 
L 78.868288 123.434632 
L 79.751942 122.757121 
L 82.402904 119.462913 
L 83.286559 117.015859 
L 84.170213 120.760885 
L 85.053867 123.459702 
L 85.937521 124.341623 
L 87.704829 123.12925 
L 88.588484 121.041521 
L 89.472138 120.551007 
L 91.239446 119.048487 
L 92.1231 117.500944 
L 93.006754 118.219484 
L 93.890409 120.050018 
L 94.774063 120.061481 
L 95.657717 120.44076 
L 96.541371 119.155463 
L 97.425025 118.330397 
L 98.30868 118.232521 
L 99.192334 118.012777 
L 100.075988 118.888338 
L 100.959642 118.261511 
L 101.843296 117.099795 
L 102.72695 116.428939 
L 103.610605 116.181298 
L 104.494259 117.126245 
L 105.377913 117.520665 
L 106.261567 116.512655 
L 107.145221 117.769595 
L 108.028876 117.809798 
L 108.91253 117.662479 
L 109.796184 114.859142 
L 110.679838 107.731457 
L 112.447146 87.118562 
L 113.330801 87.815705 
L 114.214455 92.378641 
L 115.098109 93.280223 
L 115.981763 85.794399 
L 116.865417 83.709717 
L 117.749072 80.052465 
L 119.51638 76.217967 
L 121.283688 89.002385 
L 122.167342 82.426244 
L 123.050997 88.489697 
L 123.934651 82.395349 
L 124.818305 87.313819 
L 125.701959 83.51465 
L 126.585613 80.501303 
L 127.469267 83.205124 
L 128.352922 79.188017 
L 129.236576 88.286655 
L 130.12023 87.569727 
L 131.003884 94.476423 
L 131.887538 93.733548 
L 132.771193 95.652177 
L 133.654847 97.069582 
L 134.538501 98.134114 
L 135.422155 93.907283 
L 136.305809 98.259415 
L 137.189463 98.585436 
L 138.956772 100.035111 
L 139.840426 101.917699 
L 140.72408 100.316375 
L 141.607734 103.521332 
L 142.491389 99.692666 
L 143.375043 92.201521 
L 144.258697 87.057491 
L 145.142351 91.397914 
L 146.026005 94.4818 
L 146.909659 88.019766 
L 147.793314 85.510802 
L 148.676968 85.719287 
L 149.560622 83.883151 
L 150.444276 77.761238 
L 151.32793 79.638117 
L 152.211585 84.596244 
L 153.095239 84.299017 
L 153.978893 86.25983 
L 154.862547 86.952654 
L 155.746201 87.825024 
L 156.629855 85.466239 
L 157.51351 86.697076 
L 158.397164 85.78196 
L 159.280818 87.016243 
L 160.164472 84.972986 
L 161.048126 83.877541 
L 161.93178 82.366322 
L 162.815435 90.284149 
L 163.699089 91.060166 
L 164.582743 95.602995 
L 165.466397 95.323264 
L 166.350051 97.494021 
L 167.233706 98.849506 
L 168.11736 104.749609 
L 169.884668 114.247089 
L 170.768322 109.163111 
L 171.651976 108.205864 
L 172.535631 108.965676 
L 173.419285 109.208684 
L 174.302939 106.002913 
L 175.186593 109.254107 
L 176.070247 108.982244 
L 176.953902 110.035125 
L 177.837556 108.033221 
L 178.72121 107.442385 
L 179.604864 112.031889 
L 180.488518 112.676377 
L 181.372172 111.51362 
L 182.255827 117.674003 
L 183.139481 111.730778 
L 184.023135 112.264569 
L 184.906789 111.097591 
L 185.790443 120.826142 
L 186.674097 119.253924 
L 187.557752 115.993975 
L 188.441406 121.023571 
L 189.32506 118.554527 
L 190.208714 119.16565 
L 191.092368 114.119423 
L 192.859677 131.700977 
L 193.743331 132.905173 
L 194.626985 124.461492 
L 196.394293 125.28764 
L 197.277948 141.892936 
L 198.161602 139.300629 
L 199.045256 144.728707 
L 199.92891 147.6 
L 200.812564 145.344411 
L 201.696219 136.302753 
L 202.579873 131.659562 
L 203.463527 122.862328 
L 204.347181 127.287785 
L 205.230835 118.110087 
L 206.114489 125.992563 
L 206.998144 130.0054 
L 207.881798 125.975969 
L 208.765452 129.370887 
L 209.649106 130.431224 
L 210.53276 126.687153 
L 210.53276 126.687153 
" clip-path="url(#p8808bf2335)" style="fill: none; stroke: #008000; stroke-width: 1.5; stroke-linecap: square"/>
   </g>
   <g id="patch_3">
    <path d="M 55.584 152.64 
L 55.584 41.76 
" style="fill: none; stroke: #000000; stroke-width: 0.8; stroke-linejoin: miter; stroke-linecap: square"/>
   </g>
   <g id="patch_4">
    <path d="M 217.911273 152.64 
L 217.911273 41.76 
" style="fill: none; stroke: #000000; stroke-width: 0.8; stroke-linejoin: miter; stroke-linecap: square"/>
   </g>
   <g id="patch_5">
    <path d="M 55.584 152.64 
L 217.911273 152.64 
" style="fill: none; stroke: #000000; stroke-width: 0.8; stroke-linejoin: miter; stroke-linecap: square"/>
   </g>
   <g id="patch_6">
    <path d="M 55.584 41.76 
L 217.911273 41.76 
" style="fill: none; stroke: #000000; stroke-width: 0.8; stroke-linejoin: miter; stroke-linecap: square"/>
   </g>
   <g id="text_9">
    <!-- No Prediction (FOSS) -->
    <g transform="translate(74.495761 35.76) scale(0.12 -0.12)">
     <defs>
      <path id="DejaVuSans-4e" d="M 628 4666 
L 1478 4666 
L 3547 763 
L 3547 4666 
L 4159 4666 
L 4159 0 
L 3309 0 
L 1241 3903 
L 1241 0 
L 628 0 
L 628 4666 
z
" transform="scale(0.015625)"/>
      <path id="DejaVuSans-6f" d="M 1959 3097 
Q 1497 3097 1228 2736 
Q 959 2375 959 1747 
Q 959 1119 1226 758 
Q 1494 397 1959 397 
Q 2419 397 2687 759 
Q 2956 1122 2956 1747 
Q 2956 2369 2687 2733 
Q 2419 3097 1959 3097 
z
M 1959 3584 
Q 2709 3584 3137 3096 
Q 3566 2609 3566 1747 
Q 3566 888 3137 398 
Q 2709 -91 1959 -91 
Q 1206 -91 779 398 
Q 353 888 353 1747 
Q 353 2609 779 3096 
Q 1206 3584 1959 3584 
z
" transform="scale(0.015625)"/>
      <path id="DejaVuSans-20" transform="scale(0.015625)"/>
      <path id="DejaVuSans-50" d="M 1259 4147 
L 1259 2394 
L 2053 2394 
Q 2494 2394 2734 2622 
Q 2975 2850 2975 3272 
Q 2975 3691 2734 3919 
Q 2494 4147 2053 4147 
L 1259 4147 
z
M 628 4666 
L 2053 4666 
Q 2838 4666 3239 4311 
Q 3641 3956 3641 3272 
Q 3641 2581 3239 2228 
Q 2838 1875 2053 1875 
L 1259 1875 
L 1259 0 
L 628 0 
L 628 4666 
z
" transform="scale(0.015625)"/>
      <path id="DejaVuSans-72" d="M 2631 2963 
Q 2534 3019 2420 3045 
Q 2306 3072 2169 3072 
Q 1681 3072 1420 2755 
Q 1159 2438 1159 1844 
L 1159 0 
L 581 0 
L 581 3500 
L 1159 3500 
L 1159 2956 
Q 1341 3275 1631 3429 
Q 1922 3584 2338 3584 
Q 2397 3584 2469 3576 
Q 2541 3569 2628 3553 
L 2631 2963 
z
" transform="scale(0.015625)"/>
      <path id="DejaVuSans-65" d="M 3597 1894 
L 3597 1613 
L 953 1613 
Q 991 1019 1311 708 
Q 1631 397 2203 397 
Q 2534 397 2845 478 
Q 3156 559 3463 722 
L 3463 178 
Q 3153 47 2828 -22 
Q 2503 -91 2169 -91 
Q 1331 -91 842 396 
Q 353 884 353 1716 
Q 353 2575 817 3079 
Q 1281 3584 2069 3584 
Q 2775 3584 3186 3129 
Q 3597 2675 3597 1894 
z
M 3022 2063 
Q 3016 2534 2758 2815 
Q 2500 3097 2075 3097 
Q 1594 3097 1305 2825 
Q 1016 2553 972 2059 
L 3022 2063 
z
" transform="scale(0.015625)"/>
      <path id="DejaVuSans-64" d="M 2906 2969 
L 2906 4863 
L 3481 4863 
L 3481 0 
L 2906 0 
L 2906 525 
Q 2725 213 2448 61 
Q 2172 -91 1784 -91 
Q 1150 -91 751 415 
Q 353 922 353 1747 
Q 353 2572 751 3078 
Q 1150 3584 1784 3584 
Q 2172 3584 2448 3432 
Q 2725 3281 2906 2969 
z
M 947 1747 
Q 947 1113 1208 752 
Q 1469 391 1925 391 
Q 2381 391 2643 752 
Q 2906 1113 2906 1747 
Q 2906 2381 2643 2742 
Q 2381 3103 1925 3103 
Q 1469 3103 1208 2742 
Q 947 2381 947 1747 
z
" transform="scale(0.015625)"/>
      <path id="DejaVuSans-69" d="M 603 3500 
L 1178 3500 
L 1178 0 
L 603 0 
L 603 3500 
z
M 603 4863 
L 1178 4863 
L 1178 4134 
L 603 4134 
L 603 4863 
z
" transform="scale(0.015625)"/>
      <path id="DejaVuSans-63" d="M 3122 3366 
L 3122 2828 
Q 2878 2963 2633 3030 
Q 2388 3097 2138 3097 
Q 1578 3097 1268 2742 
Q 959 2388 959 1747 
Q 959 1106 1268 751 
Q 1578 397 2138 397 
Q 2388 397 2633 464 
Q 2878 531 3122 666 
L 3122 134 
Q 2881 22 2623 -34 
Q 2366 -91 2075 -91 
Q 1284 -91 818 406 
Q 353 903 353 1747 
Q 353 2603 823 3093 
Q 1294 3584 2113 3584 
Q 2378 3584 2631 3529 
Q 2884 3475 3122 3366 
z
" transform="scale(0.015625)"/>
      <path id="DejaVuSans-74" d="M 1172 4494 
L 1172 3500 
L 2356 3500 
L 2356 3053 
L 1172 3053 
L 1172 1153 
Q 1172 725 1289 603 
Q 1406 481 1766 481 
L 2356 481 
L 2356 0 
L 1766 0 
Q 1100 0 847 248 
Q 594 497 594 1153 
L 594 3053 
L 172 3053 
L 172 3500 
L 594 3500 
L 594 4494 
L 1172 4494 
z
" transform="scale(0.015625)"/>
      <path id="DejaVuSans-6e" d="M 3513 2113 
L 3513 0 
L 2938 0 
L 2938 2094 
Q 2938 2591 2744 2837 
Q 2550 3084 2163 3084 
Q 1697 3084 1428 2787 
Q 1159 2491 1159 1978 
L 1159 0 
L 581 0 
L 581 3500 
L 1159 3500 
L 1159 2956 
Q 1366 3272 1645 3428 
Q 1925 3584 2291 3584 
Q 2894 3584 3203 3211 
Q 3513 2838 3513 2113 
z
" transform="scale(0.015625)"/>
      <path id="DejaVuSans-28" d="M 1984 4856 
Q 1566 4138 1362 3434 
Q 1159 2731 1159 2009 
Q 1159 1288 1364 580 
Q 1569 -128 1984 -844 
L 1484 -844 
Q 1016 -109 783 600 
Q 550 1309 550 2009 
Q 550 2706 781 3412 
Q 1013 4119 1484 4856 
L 1984 4856 
z
" transform="scale(0.015625)"/>
      <path id="DejaVuSans-46" d="M 628 4666 
L 3309 4666 
L 3309 4134 
L 1259 4134 
L 1259 2759 
L 3109 2759 
L 3109 2228 
L 1259 2228 
L 1259 0 
L 628 0 
L 628 4666 
z
" transform="scale(0.015625)"/>
      <path id="DejaVuSans-4f" d="M 2522 4238 
Q 1834 4238 1429 3725 
Q 1025 3213 1025 2328 
Q 1025 1447 1429 934 
Q 1834 422 2522 422 
Q 3209 422 3611 934 
Q 4013 1447 4013 2328 
Q 4013 3213 3611 3725 
Q 3209 4238 2522 4238 
z
M 2522 4750 
Q 3503 4750 4090 4092 
Q 4678 3434 4678 2328 
Q 4678 1225 4090 567 
Q 3503 -91 2522 -91 
Q 1538 -91 948 565 
Q 359 1222 359 2328 
Q 359 3434 948 4092 
Q 1538 4750 2522 4750 
z
" transform="scale(0.015625)"/>
      <path id="DejaVuSans-53" d="M 3425 4513 
L 3425 3897 
Q 3066 4069 2747 4153 
Q 2428 4238 2131 4238 
Q 1616 4238 1336 4038 
Q 1056 3838 1056 3469 
Q 1056 3159 1242 3001 
Q 1428 2844 1947 2747 
L 2328 2669 
Q 3034 2534 3370 2195 
Q 3706 1856 3706 1288 
Q 3706 609 3251 259 
Q 2797 -91 1919 -91 
Q 1588 -91 1214 -16 
Q 841 59 441 206 
L 441 856 
Q 825 641 1194 531 
Q 1563 422 1919 422 
Q 2459 422 2753 634 
Q 3047 847 3047 1241 
Q 3047 1584 2836 1778 
Q 2625 1972 2144 2069 
L 1759 2144 
Q 1053 2284 737 2584 
Q 422 2884 422 3419 
Q 422 4038 858 4394 
Q 1294 4750 2059 4750 
Q 2388 4750 2728 4690 
Q 3069 4631 3425 4513 
z
" transform="scale(0.015625)"/>
      <path id="DejaVuSans-29" d="M 513 4856 
L 1013 4856 
Q 1481 4119 1714 3412 
Q 1947 2706 1947 2009 
Q 1947 1309 1714 600 
Q 1481 -109 1013 -844 
L 513 -844 
Q 928 -128 1133 580 
Q 1338 1288 1338 2009 
Q 1338 2731 1133 3434 
Q 928 4138 513 4856 
z
" transform="scale(0.015625)"/>
     </defs>
     <use xlink:href="#DejaVuSans-4e"/>
     <use xlink:href="#DejaVuSans-6f" x="74.804688"/>
     <use xlink:href="#DejaVuSans-20" x="135.986328"/>
     <use xlink:href="#DejaVuSans-50" x="167.773438"/>
     <use xlink:href="#DejaVuSans-72" x="226.326172"/>
     <use xlink:href="#DejaVuSans-65" x="265.189453"/>
     <use xlink:href="#DejaVuSans-64" x="326.712891"/>
     <use xlink:href="#DejaVuSans-69" x="390.189453"/>
     <use xlink:href="#DejaVuSans-63" x="417.972656"/>
     <use xlink:href="#DejaVuSans-74" x="472.953125"/>
     <use xlink:href="#DejaVuSans-69" x="512.162109"/>
     <use xlink:href="#DejaVuSans-6f" x="539.945312"/>
     <use xlink:href="#DejaVuSans-6e" x="601.126953"/>
     <use xlink:href="#DejaVuSans-20" x="664.505859"/>
     <use xlink:href="#DejaVuSans-28" x="696.292969"/>
     <use xlink:href="#DejaVuSans-46" x="735.306641"/>
     <use xlink:href="#DejaVuSans-4f" x="792.826172"/>
     <use xlink:href="#DejaVuSans-53" x="871.537109"/>
     <use xlink:href="#DejaVuSans-53" x="935.013672"/>
     <use xlink:href="#DejaVuSans-29" x="998.490234"/>
    </g>
   </g>
  </g>
  <g id="axes_2">
   <g id="patch_7">
    <path d="M 250.376727 152.64 
L 412.704 152.64 
L 412.704 41.76 
L 250.376727 41.76 
z
" style="fill: #ffffff"/>
   </g>
   <g id="matplotlib.axis_3">
    <g id="xtick_5">
     <g id="line2d_10">
      <g>
       <use xlink:href="#m45ca2c7e5f" x="257.75524" y="152.64" style="stroke: #000000; stroke-width: 0.8"/>
      </g>
     </g>
     <g id="text_10">
      <!-- 0 -->
      <g transform="translate(254.57399 167.238437) scale(0.1 -0.1)">
       <use xlink:href="#DejaVuSans-30"/>
      </g>
     </g>
    </g>
    <g id="xtick_6">
     <g id="line2d_11">
      <g>
       <use xlink:href="#m45ca2c7e5f" x="301.937949" y="152.64" style="stroke: #000000; stroke-width: 0.8"/>
      </g>
     </g>
     <g id="text_11">
      <!-- 50 -->
      <g transform="translate(295.575449 167.238437) scale(0.1 -0.1)">
       <use xlink:href="#DejaVuSans-35"/>
       <use xlink:href="#DejaVuSans-30" x="63.623047"/>
      </g>
     </g>
    </g>
    <g id="xtick_7">
     <g id="line2d_12">
      <g>
       <use xlink:href="#m45ca2c7e5f" x="346.120658" y="152.64" style="stroke: #000000; stroke-width: 0.8"/>
      </g>
     </g>
     <g id="text_12">
      <!-- 100 -->
      <g transform="translate(336.576908 167.238437) scale(0.1 -0.1)">
       <use xlink:href="#DejaVuSans-31"/>
       <use xlink:href="#DejaVuSans-30" x="63.623047"/>
       <use xlink:href="#DejaVuSans-30" x="127.246094"/>
      </g>
     </g>
    </g>
    <g id="xtick_8">
     <g id="line2d_13">
      <g>
       <use xlink:href="#m45ca2c7e5f" x="390.303367" y="152.64" style="stroke: #000000; stroke-width: 0.8"/>
      </g>
     </g>
     <g id="text_13">
      <!-- 150 -->
      <g transform="translate(380.759617 167.238437) scale(0.1 -0.1)">
       <use xlink:href="#DejaVuSans-31"/>
       <use xlink:href="#DejaVuSans-35" x="63.623047"/>
       <use xlink:href="#DejaVuSans-30" x="127.246094"/>
      </g>
     </g>
    </g>
   </g>
   <g id="matplotlib.axis_4">
    <g id="ytick_5">
     <g id="line2d_14">
      <g>
       <use xlink:href="#mb91f86bff6" x="250.376727" y="147.6" style="stroke: #000000; stroke-width: 0.8"/>
      </g>
     </g>
     <g id="text_14">
      <!-- 0 -->
      <g transform="translate(237.014227 151.399219) scale(0.1 -0.1)">
       <use xlink:href="#DejaVuSans-30"/>
      </g>
     </g>
    </g>
    <g id="ytick_6">
     <g id="line2d_15">
      <g>
       <use xlink:href="#mb91f86bff6" x="250.376727" y="104.888809" style="stroke: #000000; stroke-width: 0.8"/>
      </g>
     </g>
     <g id="text_15">
      <!-- 20 -->
      <g transform="translate(230.651727 108.688028) scale(0.1 -0.1)">
       <use xlink:href="#DejaVuSans-32"/>
       <use xlink:href="#DejaVuSans-30" x="63.623047"/>
      </g>
     </g>
    </g>
    <g id="ytick_7">
     <g id="line2d_16">
      <g>
       <use xlink:href="#mb91f86bff6" x="250.376727" y="62.177618" style="stroke: #000000; stroke-width: 0.8"/>
      </g>
     </g>
     <g id="text_16">
      <!-- 40 -->
      <g transform="translate(230.651727 65.976836) scale(0.1 -0.1)">
       <use xlink:href="#DejaVuSans-34"/>
       <use xlink:href="#DejaVuSans-30" x="63.623047"/>
      </g>
     </g>
    </g>
   </g>
   <g id="line2d_17">
    <path d="M 257.75524 47.567159 
L 258.638894 46.8 
L 259.522548 55.618862 
L 260.406202 67.834768 
L 261.289856 82.105207 
L 262.173511 87.867291 
L 263.057165 103.004854 
L 263.940819 110.09059 
L 264.824473 106.046259 
L 265.708127 109.845669 
L 266.591781 109.262364 
L 267.475436 108.347548 
L 268.35909 147.6 
L 269.242744 131.937601 
L 270.126398 142.579848 
L 271.010052 147.6 
L 278.079286 147.6 
L 278.96294 109.124928 
L 279.846594 111.381818 
L 280.730248 112.123258 
L 282.497557 111.116782 
L 283.381211 109.362556 
L 284.264865 108.937759 
L 286.032173 107.686368 
L 286.915828 106.384313 
L 287.799482 106.96327 
L 288.683136 108.500175 
L 289.56679 147.6 
L 290.450444 147.6 
L 291.334098 144.145946 
L 292.217753 147.149489 
L 293.101407 140.242754 
L 293.985061 139.484141 
L 294.868715 147.6 
L 298.403332 147.6 
L 299.286986 144.526861 
L 300.17064 107.123693 
L 301.054294 105.546313 
L 301.937949 106.545125 
L 302.821603 106.62031 
L 303.705257 106.516434 
L 304.588911 104.118743 
L 305.472565 98.143236 
L 307.239874 80.763145 
L 308.123528 81.362238 
L 309.007182 85.202772 
L 309.890836 85.956644 
L 310.77449 147.6 
L 311.658145 133.646916 
L 312.541799 131.114356 
L 313.425453 132.664458 
L 314.309107 140.898706 
L 315.192761 141.885076 
L 316.076415 111.211428 
L 316.96007 141.094199 
L 317.843724 108.225704 
L 318.727378 105.871117 
L 319.611032 97.54888 
L 320.494686 138.535066 
L 321.378341 75.19387 
L 322.261995 77.467453 
L 323.145649 74.12589 
L 324.029303 81.751537 
L 324.912957 81.148107 
L 325.796611 86.967898 
L 326.680266 86.365713 
L 327.56392 87.94787 
L 328.447574 89.160575 
L 329.331228 90.059646 
L 330.214882 86.487267 
L 331.098537 90.145954 
L 331.982191 134.239568 
L 332.865845 130.570196 
L 333.749499 147.6 
L 334.633153 136.262398 
L 335.516807 132.475916 
L 336.400462 141.772436 
L 337.284116 143.259253 
L 338.16777 146.508789 
L 339.051424 147.6 
L 339.935078 147.6 
L 340.818733 146.5273 
L 341.702387 147.6 
L 342.586041 79.032248 
L 343.469695 79.594406 
L 344.353349 78.088942 
L 345.237003 72.911021 
L 346.120658 74.482107 
L 347.004312 78.674324 
L 347.887966 78.414646 
L 348.77162 80.024209 
L 349.655274 80.609434 
L 350.538928 81.387002 
L 351.422583 79.375524 
L 352.306237 80.421308 
L 353.189891 129.019058 
L 354.073545 147.6 
L 362.910087 147.6 
L 363.793741 99.388451 
L 364.677395 103.626151 
L 365.56105 99.333945 
L 366.444704 98.5504 
L 367.328358 99.205769 
L 368.212012 99.388237 
L 369.095666 96.7002 
L 369.97932 99.424662 
L 370.862975 99.178961 
L 371.746629 100.071937 
L 372.630283 98.397899 
L 373.513937 97.918193 
L 374.397591 114.835754 
L 375.281246 119.203744 
L 376.1649 139.970432 
L 377.048554 147.6 
L 381.466825 147.6 
L 382.350479 144.100303 
L 383.234133 144.103965 
L 384.117787 143.302229 
L 385.001441 107.770078 
L 385.885096 103.516255 
L 387.652404 118.341512 
L 388.536058 119.787104 
L 389.419712 112.226241 
L 391.187021 112.907068 
L 392.070675 126.911026 
L 392.954329 124.725774 
L 393.837983 129.304742 
L 394.721637 131.719595 
L 395.605292 147.6 
L 396.488946 147.6 
L 397.3726 131.650591 
L 398.256254 147.6 
L 399.139908 143.140305 
L 400.023563 145.066699 
L 400.907217 142.469504 
L 401.790871 147.6 
L 405.325488 147.6 
L 405.325488 147.6 
" clip-path="url(#p9db3589c83)" style="fill: none; stroke: #0000ff; stroke-width: 1.5; stroke-linecap: square"/>
   </g>
   <g id="patch_8">
    <path d="M 250.376727 152.64 
L 250.376727 41.76 
" style="fill: none; stroke: #000000; stroke-width: 0.8; stroke-linejoin: miter; stroke-linecap: square"/>
   </g>
   <g id="patch_9">
    <path d="M 412.704 152.64 
L 412.704 41.76 
" style="fill: none; stroke: #000000; stroke-width: 0.8; stroke-linejoin: miter; stroke-linecap: square"/>
   </g>
   <g id="patch_10">
    <path d="M 250.376727 152.64 
L 412.704 152.64 
" style="fill: none; stroke: #000000; stroke-width: 0.8; stroke-linejoin: miter; stroke-linecap: square"/>
   </g>
   <g id="patch_11">
    <path d="M 250.376727 41.76 
L 412.704 41.76 
" style="fill: none; stroke: #000000; stroke-width: 0.8; stroke-linejoin: miter; stroke-linecap: square"/>
   </g>
   <g id="text_17">
    <!-- RNN -->
    <g transform="translate(318.393801 35.76) scale(0.12 -0.12)">
     <defs>
      <path id="DejaVuSans-52" d="M 2841 2188 
Q 3044 2119 3236 1894 
Q 3428 1669 3622 1275 
L 4263 0 
L 3584 0 
L 2988 1197 
Q 2756 1666 2539 1819 
Q 2322 1972 1947 1972 
L 1259 1972 
L 1259 0 
L 628 0 
L 628 4666 
L 2053 4666 
Q 2853 4666 3247 4331 
Q 3641 3997 3641 3322 
Q 3641 2881 3436 2590 
Q 3231 2300 2841 2188 
z
M 1259 4147 
L 1259 2491 
L 2053 2491 
Q 2509 2491 2742 2702 
Q 2975 2913 2975 3322 
Q 2975 3731 2742 3939 
Q 2509 4147 2053 4147 
L 1259 4147 
z
" transform="scale(0.015625)"/>
     </defs>
     <use xlink:href="#DejaVuSans-52"/>
     <use xlink:href="#DejaVuSans-4e" x="69.482422"/>
     <use xlink:href="#DejaVuSans-4e" x="144.287109"/>
    </g>
   </g>
  </g>
  <g id="axes_3">
   <g id="patch_12">
    <path d="M 55.584 307.872 
L 217.911273 307.872 
L 217.911273 196.992 
L 55.584 196.992 
z
" style="fill: #ffffff"/>
   </g>
   <g id="matplotlib.axis_5">
    <g id="xtick_9">
     <g id="line2d_18">
      <g>
       <use xlink:href="#m45ca2c7e5f" x="62.962512" y="307.872" style="stroke: #000000; stroke-width: 0.8"/>
      </g>
     </g>
     <g id="text_18">
      <!-- 0 -->
      <g transform="translate(59.781262 322.470437) scale(0.1 -0.1)">
       <use xlink:href="#DejaVuSans-30"/>
      </g>
     </g>
    </g>
    <g id="xtick_10">
     <g id="line2d_19">
      <g>
       <use xlink:href="#m45ca2c7e5f" x="107.145221" y="307.872" style="stroke: #000000; stroke-width: 0.8"/>
      </g>
     </g>
     <g id="text_19">
      <!-- 50 -->
      <g transform="translate(100.782721 322.470437) scale(0.1 -0.1)">
       <use xlink:href="#DejaVuSans-35"/>
       <use xlink:href="#DejaVuSans-30" x="63.623047"/>
      </g>
     </g>
    </g>
    <g id="xtick_11">
     <g id="line2d_20">
      <g>
       <use xlink:href="#m45ca2c7e5f" x="151.32793" y="307.872" style="stroke: #000000; stroke-width: 0.8"/>
      </g>
     </g>
     <g id="text_20">
      <!-- 100 -->
      <g transform="translate(141.78418 322.470437) scale(0.1 -0.1)">
       <use xlink:href="#DejaVuSans-31"/>
       <use xlink:href="#DejaVuSans-30" x="63.623047"/>
       <use xlink:href="#DejaVuSans-30" x="127.246094"/>
      </g>
     </g>
    </g>
    <g id="xtick_12">
     <g id="line2d_21">
      <g>
       <use xlink:href="#m45ca2c7e5f" x="195.510639" y="307.872" style="stroke: #000000; stroke-width: 0.8"/>
      </g>
     </g>
     <g id="text_21">
      <!-- 150 -->
      <g transform="translate(185.966889 322.470437) scale(0.1 -0.1)">
       <use xlink:href="#DejaVuSans-31"/>
       <use xlink:href="#DejaVuSans-35" x="63.623047"/>
       <use xlink:href="#DejaVuSans-30" x="127.246094"/>
      </g>
     </g>
    </g>
   </g>
   <g id="matplotlib.axis_6">
    <g id="ytick_8">
     <g id="line2d_22">
      <g>
       <use xlink:href="#mb91f86bff6" x="55.584" y="302.832" style="stroke: #000000; stroke-width: 0.8"/>
      </g>
     </g>
     <g id="text_22">
      <!-- 0 -->
      <g transform="translate(42.2215 306.631219) scale(0.1 -0.1)">
       <use xlink:href="#DejaVuSans-30"/>
      </g>
     </g>
    </g>
    <g id="ytick_9">
     <g id="line2d_23">
      <g>
       <use xlink:href="#mb91f86bff6" x="55.584" y="260.120809" style="stroke: #000000; stroke-width: 0.8"/>
      </g>
     </g>
     <g id="text_23">
      <!-- 20 -->
      <g transform="translate(35.859 263.920028) scale(0.1 -0.1)">
       <use xlink:href="#DejaVuSans-32"/>
       <use xlink:href="#DejaVuSans-30" x="63.623047"/>
      </g>
     </g>
    </g>
    <g id="ytick_10">
     <g id="line2d_24">
      <g>
       <use xlink:href="#mb91f86bff6" x="55.584" y="217.409618" style="stroke: #000000; stroke-width: 0.8"/>
      </g>
     </g>
     <g id="text_24">
      <!-- 40 -->
      <g transform="translate(35.859 221.208836) scale(0.1 -0.1)">
       <use xlink:href="#DejaVuSans-34"/>
       <use xlink:href="#DejaVuSans-30" x="63.623047"/>
      </g>
     </g>
    </g>
   </g>
   <g id="line2d_25">
    <path d="M 62.962512 202.799159 
L 63.846167 202.032 
L 64.729821 210.850862 
L 65.613475 223.066768 
L 66.497129 237.337207 
L 67.380783 243.099291 
L 68.264437 258.236854 
L 69.148092 265.32259 
L 70.031746 261.278259 
L 70.9154 265.077669 
L 71.799054 264.494364 
L 72.682708 263.579548 
L 73.566363 302.832 
L 83.286559 302.832 
L 84.170213 264.356928 
L 85.053867 266.613818 
L 85.937521 267.355258 
L 87.704829 266.348782 
L 88.588484 264.594556 
L 89.472138 264.169759 
L 91.239446 262.918368 
L 92.1231 261.616313 
L 93.006754 262.19527 
L 93.890409 263.732175 
L 94.774063 302.832 
L 104.494259 302.832 
L 105.377913 262.355693 
L 106.261567 260.778313 
L 107.145221 261.777125 
L 108.028876 261.85231 
L 108.91253 261.748434 
L 109.796184 259.350743 
L 110.679838 253.375236 
L 112.447146 235.995145 
L 113.330801 236.594238 
L 114.214455 240.434772 
L 115.098109 241.188644 
L 115.981763 302.832 
L 116.865417 302.832 
L 117.749072 296.752124 
L 118.632726 292.520335 
L 119.51638 284.938467 
L 120.400034 288.65314 
L 121.283688 294.681282 
L 122.167342 295.03378 
L 123.050997 294.520195 
L 123.934651 301.420421 
L 124.818305 302.832 
L 125.701959 302.832 
L 126.585613 230.42587 
L 127.469267 232.699453 
L 128.352922 229.35789 
L 129.236576 236.983537 
L 130.12023 236.380107 
L 131.003884 242.199898 
L 131.887538 241.597713 
L 132.771193 243.17987 
L 133.654847 244.392575 
L 134.538501 245.291646 
L 135.422155 241.719267 
L 136.305809 245.377954 
L 137.189463 290.081616 
L 138.073118 290.317119 
L 138.956772 285.823229 
L 139.840426 278.898775 
L 140.72408 277.901657 
L 141.607734 277.652407 
L 142.491389 278.268228 
L 143.375043 284.270767 
L 144.258697 280.083904 
L 145.142351 287.978357 
L 146.026005 297.866228 
L 146.909659 299.571393 
L 147.793314 234.264248 
L 148.676968 234.826406 
L 149.560622 233.320942 
L 150.444276 228.143021 
L 151.32793 229.714107 
L 152.211585 233.906324 
L 153.095239 233.646646 
L 153.978893 235.256209 
L 154.862547 235.841434 
L 155.746201 236.619002 
L 156.629855 234.607524 
L 157.51351 235.653308 
L 158.397164 296.135487 
L 159.280818 287.137467 
L 160.164472 291.362548 
L 161.048126 290.463228 
L 161.93178 293.391859 
L 162.815435 296.713188 
L 163.699089 295.277731 
L 164.582743 298.674952 
L 165.466397 292.838147 
L 166.350051 297.788073 
L 167.233706 297.507072 
L 168.11736 295.245049 
L 169.001014 254.620451 
L 169.884668 258.858151 
L 170.768322 254.565945 
L 171.651976 253.7824 
L 172.535631 254.437769 
L 173.419285 254.620237 
L 174.302939 251.9322 
L 175.186593 254.656662 
L 176.070247 254.410961 
L 176.953902 255.303937 
L 177.837556 253.629899 
L 178.72121 253.150193 
L 179.604864 288.16373 
L 180.488518 292.691483 
L 181.372172 291.789775 
L 182.255827 296.002451 
L 183.139481 294.586004 
L 184.023135 290.523564 
L 184.906789 290.303821 
L 185.790443 291.987366 
L 186.674097 285.342901 
L 187.557752 280.58377 
L 188.441406 281.848511 
L 189.32506 291.947378 
L 190.208714 263.002078 
L 191.092368 258.748255 
L 192.859677 273.573512 
L 193.743331 275.019104 
L 194.626985 267.458241 
L 196.394293 268.139068 
L 197.277948 282.143026 
L 198.161602 279.957774 
L 199.045256 284.536742 
L 199.92891 286.951595 
L 200.812564 302.832 
L 210.53276 302.832 
L 210.53276 302.832 
" clip-path="url(#p0cbe0356e1)" style="fill: none; stroke: #ffa500; stroke-width: 1.5; stroke-linecap: square"/>
   </g>
   <g id="patch_13">
    <path d="M 55.584 307.872 
L 55.584 196.992 
" style="fill: none; stroke: #000000; stroke-width: 0.8; stroke-linejoin: miter; stroke-linecap: square"/>
   </g>
   <g id="patch_14">
    <path d="M 217.911273 307.872 
L 217.911273 196.992 
" style="fill: none; stroke: #000000; stroke-width: 0.8; stroke-linejoin: miter; stroke-linecap: square"/>
   </g>
   <g id="patch_15">
    <path d="M 55.584 307.872 
L 217.911273 307.872 
" style="fill: none; stroke: #000000; stroke-width: 0.8; stroke-linejoin: miter; stroke-linecap: square"/>
   </g>
   <g id="patch_16">
    <path d="M 55.584 196.992 
L 217.911273 196.992 
" style="fill: none; stroke: #000000; stroke-width: 0.8; stroke-linejoin: miter; stroke-linecap: square"/>
   </g>
   <g id="text_25">
    <!-- VAE -->
    <g transform="translate(125.130136 190.992) scale(0.12 -0.12)">
     <defs>
      <path id="DejaVuSans-56" d="M 1831 0 
L 50 4666 
L 709 4666 
L 2188 738 
L 3669 4666 
L 4325 4666 
L 2547 0 
L 1831 0 
z
" transform="scale(0.015625)"/>
      <path id="DejaVuSans-41" d="M 2188 4044 
L 1331 1722 
L 3047 1722 
L 2188 4044 
z
M 1831 4666 
L 2547 4666 
L 4325 0 
L 3669 0 
L 3244 1197 
L 1141 1197 
L 716 0 
L 50 0 
L 1831 4666 
z
" transform="scale(0.015625)"/>
      <path id="DejaVuSans-45" d="M 628 4666 
L 3578 4666 
L 3578 4134 
L 1259 4134 
L 1259 2753 
L 3481 2753 
L 3481 2222 
L 1259 2222 
L 1259 531 
L 3634 531 
L 3634 0 
L 628 0 
L 628 4666 
z
" transform="scale(0.015625)"/>
     </defs>
     <use xlink:href="#DejaVuSans-56"/>
     <use xlink:href="#DejaVuSans-41" x="62.033203"/>
     <use xlink:href="#DejaVuSans-45" x="130.441406"/>
    </g>
   </g>
  </g>
  <g id="axes_4">
   <g id="patch_17">
    <path d="M 250.376727 307.872 
L 412.704 307.872 
L 412.704 196.992 
L 250.376727 196.992 
z
" style="fill: #ffffff"/>
   </g>
   <g id="matplotlib.axis_7">
    <g id="xtick_13">
     <g id="line2d_26">
      <g>
       <use xlink:href="#m45ca2c7e5f" x="257.75524" y="307.872" style="stroke: #000000; stroke-width: 0.8"/>
      </g>
     </g>
     <g id="text_26">
      <!-- 0 -->
      <g transform="translate(254.57399 322.470437) scale(0.1 -0.1)">
       <use xlink:href="#DejaVuSans-30"/>
      </g>
     </g>
    </g>
    <g id="xtick_14">
     <g id="line2d_27">
      <g>
       <use xlink:href="#m45ca2c7e5f" x="301.937949" y="307.872" style="stroke: #000000; stroke-width: 0.8"/>
      </g>
     </g>
     <g id="text_27">
      <!-- 50 -->
      <g transform="translate(295.575449 322.470437) scale(0.1 -0.1)">
       <use xlink:href="#DejaVuSans-35"/>
       <use xlink:href="#DejaVuSans-30" x="63.623047"/>
      </g>
     </g>
    </g>
    <g id="xtick_15">
     <g id="line2d_28">
      <g>
       <use xlink:href="#m45ca2c7e5f" x="346.120658" y="307.872" style="stroke: #000000; stroke-width: 0.8"/>
      </g>
     </g>
     <g id="text_28">
      <!-- 100 -->
      <g transform="translate(336.576908 322.470437) scale(0.1 -0.1)">
       <use xlink:href="#DejaVuSans-31"/>
       <use xlink:href="#DejaVuSans-30" x="63.623047"/>
       <use xlink:href="#DejaVuSans-30" x="127.246094"/>
      </g>
     </g>
    </g>
    <g id="xtick_16">
     <g id="line2d_29">
      <g>
       <use xlink:href="#m45ca2c7e5f" x="390.303367" y="307.872" style="stroke: #000000; stroke-width: 0.8"/>
      </g>
     </g>
     <g id="text_29">
      <!-- 150 -->
      <g transform="translate(380.759617 322.470437) scale(0.1 -0.1)">
       <use xlink:href="#DejaVuSans-31"/>
       <use xlink:href="#DejaVuSans-35" x="63.623047"/>
       <use xlink:href="#DejaVuSans-30" x="127.246094"/>
      </g>
     </g>
    </g>
   </g>
   <g id="matplotlib.axis_8">
    <g id="ytick_11">
     <g id="line2d_30">
      <g>
       <use xlink:href="#mb91f86bff6" x="250.376727" y="302.832" style="stroke: #000000; stroke-width: 0.8"/>
      </g>
     </g>
     <g id="text_30">
      <!-- 0 -->
      <g transform="translate(237.014227 306.631219) scale(0.1 -0.1)">
       <use xlink:href="#DejaVuSans-30"/>
      </g>
     </g>
    </g>
    <g id="ytick_12">
     <g id="line2d_31">
      <g>
       <use xlink:href="#mb91f86bff6" x="250.376727" y="260.1176" style="stroke: #000000; stroke-width: 0.8"/>
      </g>
     </g>
     <g id="text_31">
      <!-- 20 -->
      <g transform="translate(230.651727 263.916819) scale(0.1 -0.1)">
       <use xlink:href="#DejaVuSans-32"/>
       <use xlink:href="#DejaVuSans-30" x="63.623047"/>
      </g>
     </g>
    </g>
    <g id="ytick_13">
     <g id="line2d_32">
      <g>
       <use xlink:href="#mb91f86bff6" x="250.376727" y="217.4032" style="stroke: #000000; stroke-width: 0.8"/>
      </g>
     </g>
     <g id="text_32">
      <!-- 40 -->
      <g transform="translate(230.651727 221.202419) scale(0.1 -0.1)">
       <use xlink:href="#DejaVuSans-34"/>
       <use xlink:href="#DejaVuSans-30" x="63.623047"/>
      </g>
     </g>
    </g>
   </g>
   <g id="line2d_33">
    <path d="M 257.75524 202.796355 
L 258.638894 202.032 
L 259.522548 210.836226 
L 260.406202 223.041178 
L 261.289856 237.325723 
L 262.173511 243.090397 
L 263.057165 258.237436 
L 263.940819 265.334664 
L 264.824473 261.277185 
L 265.708127 265.060525 
L 266.591781 264.485026 
L 267.475436 263.589147 
L 268.35909 280.620881 
L 269.242744 264.210964 
L 270.126398 260.828246 
L 271.010052 264.695558 
L 271.893707 272.681212 
L 272.777361 271.880362 
L 273.661015 273.73705 
L 274.544669 280.16624 
L 275.428323 276.40619 
L 276.311977 281.726994 
L 277.195632 270.851274 
L 278.079286 275.899789 
L 278.96294 264.345525 
L 279.846594 266.619332 
L 280.730248 267.362368 
L 282.497557 266.340919 
L 283.381211 264.581966 
L 284.264865 264.168698 
L 286.032173 262.902794 
L 286.915828 261.598959 
L 287.799482 262.204344 
L 288.683136 263.746605 
L 289.56679 277.954491 
L 290.450444 272.610635 
L 291.334098 274.943155 
L 292.217753 267.135747 
L 293.101407 275.310264 
L 293.985061 302.832 
L 294.868715 277.106939 
L 295.752369 282.114724 
L 296.636024 271.312811 
L 297.519678 267.451336 
L 298.403332 268.559456 
L 299.286986 271.682167 
L 300.17064 261.615575 
L 301.054294 260.766306 
L 301.937949 261.825302 
L 302.821603 261.859175 
L 303.705257 261.735055 
L 304.588911 259.373188 
L 305.472565 253.367971 
L 307.239874 236.001195 
L 308.123528 236.588552 
L 309.007182 240.432916 
L 309.890836 241.192517 
L 310.77449 245.679058 
L 311.658145 254.370388 
L 312.541799 259.914499 
L 313.425453 266.75628 
L 315.192761 233.059815 
L 316.076415 250.465354 
L 317.843724 275.369071 
L 318.727378 258.571386 
L 319.611032 255.438024 
L 320.494686 255.632744 
L 321.378341 230.426022 
L 322.261995 232.704045 
L 323.145649 229.319552 
L 324.029303 236.985337 
L 324.912957 236.38131 
L 325.796611 242.20034 
L 326.680266 241.574452 
L 327.56392 243.190936 
L 328.447574 244.385128 
L 329.331228 245.282017 
L 330.214882 241.720828 
L 331.098537 245.387586 
L 331.982191 267.892422 
L 332.865845 263.405759 
L 333.749499 278.736155 
L 334.633153 264.643643 
L 335.516807 288.818717 
L 336.400462 288.659134 
L 337.284116 286.82392 
L 338.16777 275.073693 
L 339.051424 268.530733 
L 339.935078 281.208777 
L 340.818733 279.5998 
L 341.702387 269.014189 
L 342.586041 234.646625 
L 343.469695 234.822277 
L 344.353349 233.275296 
L 345.237003 228.117462 
L 346.120658 229.69877 
L 347.004312 233.876091 
L 347.887966 233.625672 
L 348.77162 235.277696 
L 349.655274 235.861414 
L 350.538928 236.596403 
L 351.422583 234.609079 
L 352.306237 235.646084 
L 353.189891 252.401542 
L 354.073545 245.315422 
L 354.957199 251.418774 
L 355.840854 266.885714 
L 356.724508 270.328646 
L 357.608162 265.001033 
L 358.491816 266.344905 
L 359.37547 273.832521 
L 360.259124 260.318249 
L 361.142779 270.508179 
L 362.026433 282.446414 
L 362.910087 255.426294 
L 363.793741 254.61921 
L 364.677395 258.857521 
L 365.56105 254.574168 
L 366.444704 253.767669 
L 367.328358 254.407825 
L 368.212012 254.612564 
L 369.095666 251.911638 
L 369.97932 254.650834 
L 370.862975 254.421784 
L 371.746629 255.308858 
L 372.630283 253.622213 
L 373.513937 253.124422 
L 374.397591 270.18794 
L 375.281246 276.894751 
L 376.1649 259.821433 
L 377.048554 276.951915 
L 377.932208 274.286537 
L 378.815862 260.216535 
L 379.699516 265.301898 
L 380.583171 273.811394 
L 381.466825 273.466049 
L 382.350479 267.786005 
L 384.117787 280.813852 
L 385.001441 263.001507 
L 385.885096 258.74996 
L 387.652404 273.562771 
L 388.536058 274.57733 
L 389.419712 267.46336 
L 391.187021 268.159406 
L 392.070675 282.1497 
L 392.954329 279.96563 
L 393.837983 284.538894 
L 394.721637 286.958015 
L 395.605292 276.899611 
L 397.3726 279.997292 
L 398.256254 269.752948 
L 399.139908 267.080538 
L 400.023563 268.350435 
L 400.907217 268.828102 
L 401.790871 284.138694 
L 402.674525 285.649816 
L 403.558179 281.416055 
L 404.441833 289.502865 
L 405.325488 285.344977 
L 405.325488 285.344977 
" clip-path="url(#pd6e7b6cc28)" style="fill: none; stroke: #ff0000; stroke-width: 1.5; stroke-linecap: square"/>
   </g>
   <g id="patch_18">
    <path d="M 250.376727 307.872 
L 250.376727 196.992 
" style="fill: none; stroke: #000000; stroke-width: 0.8; stroke-linejoin: miter; stroke-linecap: square"/>
   </g>
   <g id="patch_19">
    <path d="M 412.704 307.872 
L 412.704 196.992 
" style="fill: none; stroke: #000000; stroke-width: 0.8; stroke-linejoin: miter; stroke-linecap: square"/>
   </g>
   <g id="patch_20">
    <path d="M 250.376727 307.872 
L 412.704 307.872 
" style="fill: none; stroke: #000000; stroke-width: 0.8; stroke-linejoin: miter; stroke-linecap: square"/>
   </g>
   <g id="patch_21">
    <path d="M 250.376727 196.992 
L 412.704 196.992 
" style="fill: none; stroke: #000000; stroke-width: 0.8; stroke-linejoin: miter; stroke-linecap: square"/>
   </g>
   <g id="text_33">
    <!-- VRNN -->
    <g transform="translate(314.289426 190.992) scale(0.12 -0.12)">
     <use xlink:href="#DejaVuSans-56"/>
     <use xlink:href="#DejaVuSans-52" x="68.408203"/>
     <use xlink:href="#DejaVuSans-4e" x="137.890625"/>
     <use xlink:href="#DejaVuSans-4e" x="212.695312"/>
    </g>
   </g>
  </g>
  <g id="text_34">
   <!-- VMAF Scores Over Frames: Video #39 -->
   <g transform="translate(114.338063 16.318125) scale(0.12 -0.12)">
    <defs>
     <path id="DejaVuSans-4d" d="M 628 4666 
L 1569 4666 
L 2759 1491 
L 3956 4666 
L 4897 4666 
L 4897 0 
L 4281 0 
L 4281 4097 
L 3078 897 
L 2444 897 
L 1241 4097 
L 1241 0 
L 628 0 
L 628 4666 
z
" transform="scale(0.015625)"/>
     <path id="DejaVuSans-73" d="M 2834 3397 
L 2834 2853 
Q 2591 2978 2328 3040 
Q 2066 3103 1784 3103 
Q 1356 3103 1142 2972 
Q 928 2841 928 2578 
Q 928 2378 1081 2264 
Q 1234 2150 1697 2047 
L 1894 2003 
Q 2506 1872 2764 1633 
Q 3022 1394 3022 966 
Q 3022 478 2636 193 
Q 2250 -91 1575 -91 
Q 1294 -91 989 -36 
Q 684 19 347 128 
L 347 722 
Q 666 556 975 473 
Q 1284 391 1588 391 
Q 1994 391 2212 530 
Q 2431 669 2431 922 
Q 2431 1156 2273 1281 
Q 2116 1406 1581 1522 
L 1381 1569 
Q 847 1681 609 1914 
Q 372 2147 372 2553 
Q 372 3047 722 3315 
Q 1072 3584 1716 3584 
Q 2034 3584 2315 3537 
Q 2597 3491 2834 3397 
z
" transform="scale(0.015625)"/>
     <path id="DejaVuSans-76" d="M 191 3500 
L 800 3500 
L 1894 563 
L 2988 3500 
L 3597 3500 
L 2284 0 
L 1503 0 
L 191 3500 
z
" transform="scale(0.015625)"/>
     <path id="DejaVuSans-61" d="M 2194 1759 
Q 1497 1759 1228 1600 
Q 959 1441 959 1056 
Q 959 750 1161 570 
Q 1363 391 1709 391 
Q 2188 391 2477 730 
Q 2766 1069 2766 1631 
L 2766 1759 
L 2194 1759 
z
M 3341 1997 
L 3341 0 
L 2766 0 
L 2766 531 
Q 2569 213 2275 61 
Q 1981 -91 1556 -91 
Q 1019 -91 701 211 
Q 384 513 384 1019 
Q 384 1609 779 1909 
Q 1175 2209 1959 2209 
L 2766 2209 
L 2766 2266 
Q 2766 2663 2505 2880 
Q 2244 3097 1772 3097 
Q 1472 3097 1187 3025 
Q 903 2953 641 2809 
L 641 3341 
Q 956 3463 1253 3523 
Q 1550 3584 1831 3584 
Q 2591 3584 2966 3190 
Q 3341 2797 3341 1997 
z
" transform="scale(0.015625)"/>
     <path id="DejaVuSans-6d" d="M 3328 2828 
Q 3544 3216 3844 3400 
Q 4144 3584 4550 3584 
Q 5097 3584 5394 3201 
Q 5691 2819 5691 2113 
L 5691 0 
L 5113 0 
L 5113 2094 
Q 5113 2597 4934 2840 
Q 4756 3084 4391 3084 
Q 3944 3084 3684 2787 
Q 3425 2491 3425 1978 
L 3425 0 
L 2847 0 
L 2847 2094 
Q 2847 2600 2669 2842 
Q 2491 3084 2119 3084 
Q 1678 3084 1418 2786 
Q 1159 2488 1159 1978 
L 1159 0 
L 581 0 
L 581 3500 
L 1159 3500 
L 1159 2956 
Q 1356 3278 1631 3431 
Q 1906 3584 2284 3584 
Q 2666 3584 2933 3390 
Q 3200 3197 3328 2828 
z
" transform="scale(0.015625)"/>
     <path id="DejaVuSans-3a" d="M 750 794 
L 1409 794 
L 1409 0 
L 750 0 
L 750 794 
z
M 750 3309 
L 1409 3309 
L 1409 2516 
L 750 2516 
L 750 3309 
z
" transform="scale(0.015625)"/>
     <path id="DejaVuSans-23" d="M 3272 2816 
L 2363 2816 
L 2100 1772 
L 3016 1772 
L 3272 2816 
z
M 2803 4594 
L 2478 3297 
L 3391 3297 
L 3719 4594 
L 4219 4594 
L 3897 3297 
L 4872 3297 
L 4872 2816 
L 3775 2816 
L 3519 1772 
L 4513 1772 
L 4513 1294 
L 3397 1294 
L 3072 0 
L 2572 0 
L 2894 1294 
L 1978 1294 
L 1656 0 
L 1153 0 
L 1478 1294 
L 494 1294 
L 494 1772 
L 1594 1772 
L 1856 2816 
L 850 2816 
L 850 3297 
L 1978 3297 
L 2297 4594 
L 2803 4594 
z
" transform="scale(0.015625)"/>
     <path id="DejaVuSans-39" d="M 703 97 
L 703 672 
Q 941 559 1184 500 
Q 1428 441 1663 441 
Q 2288 441 2617 861 
Q 2947 1281 2994 2138 
Q 2813 1869 2534 1725 
Q 2256 1581 1919 1581 
Q 1219 1581 811 2004 
Q 403 2428 403 3163 
Q 403 3881 828 4315 
Q 1253 4750 1959 4750 
Q 2769 4750 3195 4129 
Q 3622 3509 3622 2328 
Q 3622 1225 3098 567 
Q 2575 -91 1691 -91 
Q 1453 -91 1209 -44 
Q 966 3 703 97 
z
M 1959 2075 
Q 2384 2075 2632 2365 
Q 2881 2656 2881 3163 
Q 2881 3666 2632 3958 
Q 2384 4250 1959 4250 
Q 1534 4250 1286 3958 
Q 1038 3666 1038 3163 
Q 1038 2656 1286 2365 
Q 1534 2075 1959 2075 
z
" transform="scale(0.015625)"/>
    </defs>
    <use xlink:href="#DejaVuSans-56"/>
    <use xlink:href="#DejaVuSans-4d" x="68.408203"/>
    <use xlink:href="#DejaVuSans-41" x="154.6875"/>
    <use xlink:href="#DejaVuSans-46" x="223.095703"/>
    <use xlink:href="#DejaVuSans-20" x="280.615234"/>
    <use xlink:href="#DejaVuSans-53" x="312.402344"/>
    <use xlink:href="#DejaVuSans-63" x="375.878906"/>
    <use xlink:href="#DejaVuSans-6f" x="430.859375"/>
    <use xlink:href="#DejaVuSans-72" x="492.041016"/>
    <use xlink:href="#DejaVuSans-65" x="530.904297"/>
    <use xlink:href="#DejaVuSans-73" x="592.427734"/>
    <use xlink:href="#DejaVuSans-20" x="644.527344"/>
    <use xlink:href="#DejaVuSans-4f" x="676.314453"/>
    <use xlink:href="#DejaVuSans-76" x="755.025391"/>
    <use xlink:href="#DejaVuSans-65" x="814.205078"/>
    <use xlink:href="#DejaVuSans-72" x="875.728516"/>
    <use xlink:href="#DejaVuSans-20" x="916.841797"/>
    <use xlink:href="#DejaVuSans-46" x="948.628906"/>
    <use xlink:href="#DejaVuSans-72" x="998.898438"/>
    <use xlink:href="#DejaVuSans-61" x="1040.011719"/>
    <use xlink:href="#DejaVuSans-6d" x="1101.291016"/>
    <use xlink:href="#DejaVuSans-65" x="1198.703125"/>
    <use xlink:href="#DejaVuSans-73" x="1260.226562"/>
    <use xlink:href="#DejaVuSans-3a" x="1312.326172"/>
    <use xlink:href="#DejaVuSans-20" x="1346.017578"/>
    <use xlink:href="#DejaVuSans-56" x="1377.804688"/>
    <use xlink:href="#DejaVuSans-69" x="1443.962891"/>
    <use xlink:href="#DejaVuSans-64" x="1471.746094"/>
    <use xlink:href="#DejaVuSans-65" x="1535.222656"/>
    <use xlink:href="#DejaVuSans-6f" x="1596.746094"/>
    <use xlink:href="#DejaVuSans-20" x="1657.927734"/>
    <use xlink:href="#DejaVuSans-23" x="1689.714844"/>
    <use xlink:href="#DejaVuSans-33" x="1773.503906"/>
    <use xlink:href="#DejaVuSans-39" x="1837.126953"/>
   </g>
  </g>
  <g id="text_35">
   <!-- Video Frames -->
   <g transform="translate(187.847438 339.936375) scale(0.12 -0.12)">
    <use xlink:href="#DejaVuSans-56"/>
    <use xlink:href="#DejaVuSans-69" x="66.158203"/>
    <use xlink:href="#DejaVuSans-64" x="93.941406"/>
    <use xlink:href="#DejaVuSans-65" x="157.417969"/>
    <use xlink:href="#DejaVuSans-6f" x="218.941406"/>
    <use xlink:href="#DejaVuSans-20" x="280.123047"/>
    <use xlink:href="#DejaVuSans-46" x="311.910156"/>
    <use xlink:href="#DejaVuSans-72" x="362.179688"/>
    <use xlink:href="#DejaVuSans-61" x="403.292969"/>
    <use xlink:href="#DejaVuSans-6d" x="464.572266"/>
    <use xlink:href="#DejaVuSans-65" x="561.984375"/>
    <use xlink:href="#DejaVuSans-73" x="623.507812"/>
   </g>
  </g>
  <g id="text_36">
   <!-- Raw VMAF Scores -->
   <g transform="translate(16.318125 226.284562) rotate(-90) scale(0.12 -0.12)">
    <defs>
     <path id="DejaVuSans-77" d="M 269 3500 
L 844 3500 
L 1563 769 
L 2278 3500 
L 2956 3500 
L 3675 769 
L 4391 3500 
L 4966 3500 
L 4050 0 
L 3372 0 
L 2619 2869 
L 1863 0 
L 1184 0 
L 269 3500 
z
" transform="scale(0.015625)"/>
    </defs>
    <use xlink:href="#DejaVuSans-52"/>
    <use xlink:href="#DejaVuSans-61" x="67.232422"/>
    <use xlink:href="#DejaVuSans-77" x="128.511719"/>
    <use xlink:href="#DejaVuSans-20" x="210.298828"/>
    <use xlink:href="#DejaVuSans-56" x="242.085938"/>
    <use xlink:href="#DejaVuSans-4d" x="310.494141"/>
    <use xlink:href="#DejaVuSans-41" x="396.773438"/>
    <use xlink:href="#DejaVuSans-46" x="465.181641"/>
    <use xlink:href="#DejaVuSans-20" x="522.701172"/>
    <use xlink:href="#DejaVuSans-53" x="554.488281"/>
    <use xlink:href="#DejaVuSans-63" x="617.964844"/>
    <use xlink:href="#DejaVuSans-6f" x="672.945312"/>
    <use xlink:href="#DejaVuSans-72" x="734.126953"/>
    <use xlink:href="#DejaVuSans-65" x="772.990234"/>
    <use xlink:href="#DejaVuSans-73" x="834.513672"/>
   </g>
  </g>
 </g>
 <defs>
  <clipPath id="p8808bf2335">
   <rect x="55.584" y="41.76" width="162.327273" height="110.88"/>
  </clipPath>
  <clipPath id="p9db3589c83">
   <rect x="250.376727" y="41.76" width="162.327273" height="110.88"/>
  </clipPath>
  <clipPath id="p0cbe0356e1">
   <rect x="55.584" y="196.992" width="162.327273" height="110.88"/>
  </clipPath>
  <clipPath id="pd6e7b6cc28">
   <rect x="250.376727" y="196.992" width="162.327273" height="110.88"/>
  </clipPath>
 </defs>
</svg>
