<?xml version="1.0" encoding="utf-8" standalone="no"?>
<!DOCTYPE svg PUBLIC "-//W3C//DTD SVG 1.1//EN"
  "http://www.w3.org/Graphics/SVG/1.1/DTD/svg11.dtd">
<svg xmlns:xlink="http://www.w3.org/1999/xlink" width="428.485335pt" height="349.632pt" viewBox="0 0 428.485335 349.632" xmlns="http://www.w3.org/2000/svg" version="1.1">
 <metadata>
  <rdf:RDF xmlns:dc="http://purl.org/dc/elements/1.1/" xmlns:cc="http://creativecommons.org/ns#" xmlns:rdf="http://www.w3.org/1999/02/22-rdf-syntax-ns#">
   <cc:Work>
    <dc:type rdf:resource="http://purl.org/dc/dcmitype/StillImage"/>
    <dc:date>2024-07-24T16:31:54.445971</dc:date>
    <dc:format>image/svg+xml</dc:format>
    <dc:creator>
     <cc:Agent>
      <dc:title>Matplotlib v3.7.2, https://matplotlib.org/</dc:title>
     </cc:Agent>
    </dc:creator>
   </cc:Work>
  </rdf:RDF>
 </metadata>
 <defs>
  <style type="text/css">*{stroke-linejoin: round; stroke-linecap: butt}</style>
 </defs>
 <g id="figure_1">
  <g id="patch_1">
   <path d="M 0 349.632 
L 428.485335 349.632 
L 428.485335 -0 
L 0 -0 
z
" style="fill: #ffffff"/>
  </g>
  <g id="axes_1">
   <g id="patch_2">
    <path d="M 55.584 152.64 
L 217.911273 152.64 
L 217.911273 41.76 
L 55.584 41.76 
z
" style="fill: #ffffff"/>
   </g>
   <g id="matplotlib.axis_1">
    <g id="xtick_1">
     <g id="line2d_1">
      <defs>
       <path id="m55ada10bc6" d="M 0 0 
L 0 3.5 
" style="stroke: #000000; stroke-width: 0.8"/>
      </defs>
      <g>
       <use xlink:href="#m55ada10bc6" x="62.962512" y="152.64" style="stroke: #000000; stroke-width: 0.8"/>
      </g>
     </g>
     <g id="text_1">
      <!-- 0 -->
      <g transform="translate(59.781262 167.238437) scale(0.1 -0.1)">
       <defs>
        <path id="DejaVuSans-30" d="M 2034 4250 
Q 1547 4250 1301 3770 
Q 1056 3291 1056 2328 
Q 1056 1369 1301 889 
Q 1547 409 2034 409 
Q 2525 409 2770 889 
Q 3016 1369 3016 2328 
Q 3016 3291 2770 3770 
Q 2525 4250 2034 4250 
z
M 2034 4750 
Q 2819 4750 3233 4129 
Q 3647 3509 3647 2328 
Q 3647 1150 3233 529 
Q 2819 -91 2034 -91 
Q 1250 -91 836 529 
Q 422 1150 422 2328 
Q 422 3509 836 4129 
Q 1250 4750 2034 4750 
z
" transform="scale(0.015625)"/>
       </defs>
       <use xlink:href="#DejaVuSans-30"/>
      </g>
     </g>
    </g>
    <g id="xtick_2">
     <g id="line2d_2">
      <g>
       <use xlink:href="#m55ada10bc6" x="114.291294" y="152.64" style="stroke: #000000; stroke-width: 0.8"/>
      </g>
     </g>
     <g id="text_2">
      <!-- 200 -->
      <g transform="translate(104.747544 167.238437) scale(0.1 -0.1)">
       <defs>
        <path id="DejaVuSans-32" d="M 1228 531 
L 3431 531 
L 3431 0 
L 469 0 
L 469 531 
Q 828 903 1448 1529 
Q 2069 2156 2228 2338 
Q 2531 2678 2651 2914 
Q 2772 3150 2772 3378 
Q 2772 3750 2511 3984 
Q 2250 4219 1831 4219 
Q 1534 4219 1204 4116 
Q 875 4013 500 3803 
L 500 4441 
Q 881 4594 1212 4672 
Q 1544 4750 1819 4750 
Q 2544 4750 2975 4387 
Q 3406 4025 3406 3419 
Q 3406 3131 3298 2873 
Q 3191 2616 2906 2266 
Q 2828 2175 2409 1742 
Q 1991 1309 1228 531 
z
" transform="scale(0.015625)"/>
       </defs>
       <use xlink:href="#DejaVuSans-32"/>
       <use xlink:href="#DejaVuSans-30" x="63.623047"/>
       <use xlink:href="#DejaVuSans-30" x="127.246094"/>
      </g>
     </g>
    </g>
    <g id="xtick_3">
     <g id="line2d_3">
      <g>
       <use xlink:href="#m55ada10bc6" x="165.620076" y="152.64" style="stroke: #000000; stroke-width: 0.8"/>
      </g>
     </g>
     <g id="text_3">
      <!-- 400 -->
      <g transform="translate(156.076326 167.238437) scale(0.1 -0.1)">
       <defs>
        <path id="DejaVuSans-34" d="M 2419 4116 
L 825 1625 
L 2419 1625 
L 2419 4116 
z
M 2253 4666 
L 3047 4666 
L 3047 1625 
L 3713 1625 
L 3713 1100 
L 3047 1100 
L 3047 0 
L 2419 0 
L 2419 1100 
L 313 1100 
L 313 1709 
L 2253 4666 
z
" transform="scale(0.015625)"/>
       </defs>
       <use xlink:href="#DejaVuSans-34"/>
       <use xlink:href="#DejaVuSans-30" x="63.623047"/>
       <use xlink:href="#DejaVuSans-30" x="127.246094"/>
      </g>
     </g>
    </g>
    <g id="xtick_4">
     <g id="line2d_4">
      <g>
       <use xlink:href="#m55ada10bc6" x="216.948858" y="152.64" style="stroke: #000000; stroke-width: 0.8"/>
      </g>
     </g>
     <g id="text_4">
      <!-- 600 -->
      <g transform="translate(207.405108 167.238437) scale(0.1 -0.1)">
       <defs>
        <path id="DejaVuSans-36" d="M 2113 2584 
Q 1688 2584 1439 2293 
Q 1191 2003 1191 1497 
Q 1191 994 1439 701 
Q 1688 409 2113 409 
Q 2538 409 2786 701 
Q 3034 994 3034 1497 
Q 3034 2003 2786 2293 
Q 2538 2584 2113 2584 
z
M 3366 4563 
L 3366 3988 
Q 3128 4100 2886 4159 
Q 2644 4219 2406 4219 
Q 1781 4219 1451 3797 
Q 1122 3375 1075 2522 
Q 1259 2794 1537 2939 
Q 1816 3084 2150 3084 
Q 2853 3084 3261 2657 
Q 3669 2231 3669 1497 
Q 3669 778 3244 343 
Q 2819 -91 2113 -91 
Q 1303 -91 875 529 
Q 447 1150 447 2328 
Q 447 3434 972 4092 
Q 1497 4750 2381 4750 
Q 2619 4750 2861 4703 
Q 3103 4656 3366 4563 
z
" transform="scale(0.015625)"/>
       </defs>
       <use xlink:href="#DejaVuSans-36"/>
       <use xlink:href="#DejaVuSans-30" x="63.623047"/>
       <use xlink:href="#DejaVuSans-30" x="127.246094"/>
      </g>
     </g>
    </g>
   </g>
   <g id="matplotlib.axis_2">
    <g id="ytick_1">
     <g id="line2d_5">
      <defs>
       <path id="m95abeceae2" d="M 0 0 
L -3.5 0 
" style="stroke: #000000; stroke-width: 0.8"/>
      </defs>
      <g>
       <use xlink:href="#m95abeceae2" x="55.584" y="146.781448" style="stroke: #000000; stroke-width: 0.8"/>
      </g>
     </g>
     <g id="text_5">
      <!-- 10 -->
      <g transform="translate(35.859 150.580667) scale(0.1 -0.1)">
       <defs>
        <path id="DejaVuSans-31" d="M 794 531 
L 1825 531 
L 1825 4091 
L 703 3866 
L 703 4441 
L 1819 4666 
L 2450 4666 
L 2450 531 
L 3481 531 
L 3481 0 
L 794 0 
L 794 531 
z
" transform="scale(0.015625)"/>
       </defs>
       <use xlink:href="#DejaVuSans-31"/>
       <use xlink:href="#DejaVuSans-30" x="63.623047"/>
      </g>
     </g>
    </g>
    <g id="ytick_2">
     <g id="line2d_6">
      <g>
       <use xlink:href="#m95abeceae2" x="55.584" y="118.159751" style="stroke: #000000; stroke-width: 0.8"/>
      </g>
     </g>
     <g id="text_6">
      <!-- 20 -->
      <g transform="translate(35.859 121.958969) scale(0.1 -0.1)">
       <use xlink:href="#DejaVuSans-32"/>
       <use xlink:href="#DejaVuSans-30" x="63.623047"/>
      </g>
     </g>
    </g>
    <g id="ytick_3">
     <g id="line2d_7">
      <g>
       <use xlink:href="#m95abeceae2" x="55.584" y="89.538053" style="stroke: #000000; stroke-width: 0.8"/>
      </g>
     </g>
     <g id="text_7">
      <!-- 30 -->
      <g transform="translate(35.859 93.337272) scale(0.1 -0.1)">
       <defs>
        <path id="DejaVuSans-33" d="M 2597 2516 
Q 3050 2419 3304 2112 
Q 3559 1806 3559 1356 
Q 3559 666 3084 287 
Q 2609 -91 1734 -91 
Q 1441 -91 1130 -33 
Q 819 25 488 141 
L 488 750 
Q 750 597 1062 519 
Q 1375 441 1716 441 
Q 2309 441 2620 675 
Q 2931 909 2931 1356 
Q 2931 1769 2642 2001 
Q 2353 2234 1838 2234 
L 1294 2234 
L 1294 2753 
L 1863 2753 
Q 2328 2753 2575 2939 
Q 2822 3125 2822 3475 
Q 2822 3834 2567 4026 
Q 2313 4219 1838 4219 
Q 1578 4219 1281 4162 
Q 984 4106 628 3988 
L 628 4550 
Q 988 4650 1302 4700 
Q 1616 4750 1894 4750 
Q 2613 4750 3031 4423 
Q 3450 4097 3450 3541 
Q 3450 3153 3228 2886 
Q 3006 2619 2597 2516 
z
" transform="scale(0.015625)"/>
       </defs>
       <use xlink:href="#DejaVuSans-33"/>
       <use xlink:href="#DejaVuSans-30" x="63.623047"/>
      </g>
     </g>
    </g>
    <g id="ytick_4">
     <g id="line2d_8">
      <g>
       <use xlink:href="#m95abeceae2" x="55.584" y="60.916356" style="stroke: #000000; stroke-width: 0.8"/>
      </g>
     </g>
     <g id="text_8">
      <!-- 40 -->
      <g transform="translate(35.859 64.715574) scale(0.1 -0.1)">
       <use xlink:href="#DejaVuSans-34"/>
       <use xlink:href="#DejaVuSans-30" x="63.623047"/>
      </g>
     </g>
    </g>
   </g>
   <g id="line2d_9">
    <path d="M 62.962512 55.753147 
L 63.219156 54.780353 
L 63.732444 66.495145 
L 64.245732 71.658588 
L 64.502376 65.840707 
L 64.75902 63.69679 
L 65.015664 52.440046 
L 65.272308 46.8 
L 65.528951 50.989598 
L 65.785595 69.10375 
L 66.042239 77.295923 
L 66.555527 82.673148 
L 66.812171 85.446845 
L 67.068815 90.843583 
L 67.325459 89.056985 
L 67.582103 92.672945 
L 67.838747 88.493765 
L 68.095391 89.340695 
L 68.352034 86.938613 
L 68.608678 63.110229 
L 68.865322 55.250427 
L 69.37861 64.850585 
L 69.635254 56.41989 
L 70.148542 78.706996 
L 70.405186 71.672232 
L 70.66183 70.327007 
L 70.918474 72.672558 
L 71.175117 60.756904 
L 71.431761 66.755276 
L 71.945049 81.537301 
L 72.201693 78.889937 
L 72.458337 88.780941 
L 72.971625 95.596122 
L 73.228269 100.718684 
L 73.741557 99.147198 
L 73.998201 101.581073 
L 74.254844 98.326506 
L 74.511488 97.733742 
L 75.024776 87.557569 
L 75.28142 96.90336 
L 75.538064 99.442491 
L 75.794708 99.644749 
L 76.051352 102.679102 
L 76.307996 94.491722 
L 76.56464 100.419296 
L 77.077927 97.576923 
L 77.334571 91.700193 
L 77.591215 91.837343 
L 77.847859 88.623696 
L 78.104503 97.726128 
L 78.361147 100.320883 
L 78.617791 119.884909 
L 78.874435 110.985665 
L 79.131079 93.956353 
L 79.387723 85.739636 
L 79.644367 91.939394 
L 79.90101 95.318709 
L 80.157654 96.510115 
L 80.414298 96.42749 
L 80.670942 97.878653 
L 80.927586 98.10131 
L 81.18423 93.683042 
L 81.440874 96.807744 
L 81.697518 95.219097 
L 81.954162 91.701152 
L 82.210806 91.874528 
L 82.46745 96.389091 
L 83.237381 123.454098 
L 83.494025 120.342833 
L 83.750669 109.321602 
L 84.007313 104.896218 
L 84.263957 112.372169 
L 84.520601 112.336314 
L 84.777245 105.230766 
L 85.033889 106.750275 
L 85.80382 124.330483 
L 86.060464 137.991665 
L 86.573752 123.672258 
L 87.08704 137.638573 
L 87.343684 136.160262 
L 87.856972 129.77692 
L 88.113616 123.50199 
L 88.370259 121.031288 
L 88.626903 122.060545 
L 88.883547 122.599122 
L 89.140191 111.988732 
L 89.396835 119.787793 
L 89.653479 133.93826 
L 89.910123 133.925237 
L 90.166767 139.597817 
L 90.423411 136.202631 
L 90.680055 136.499318 
L 90.936699 130.381393 
L 91.449986 135.716835 
L 91.963274 128.439179 
L 92.219918 127.257876 
L 92.476562 128.577742 
L 92.733206 125.309723 
L 92.98985 124.711815 
L 93.246494 126.793841 
L 93.503138 119.551169 
L 93.759782 116.273046 
L 94.016425 115.969384 
L 94.273069 115.385979 
L 94.529713 106.018106 
L 94.786357 117.131722 
L 95.043001 118.782055 
L 95.299645 113.314252 
L 95.556289 113.943371 
L 95.812933 112.014074 
L 96.326221 96.811897 
L 96.582865 104.114966 
L 96.839508 102.871288 
L 97.096152 87.976679 
L 97.352796 91.006154 
L 97.60944 104.904313 
L 97.866084 108.930899 
L 98.122728 108.21819 
L 98.379372 110.471722 
L 98.636016 106.496486 
L 98.89266 115.400659 
L 99.149304 118.595496 
L 99.405948 131.946917 
L 99.662591 132.173635 
L 99.919235 129.772441 
L 100.175879 143.621112 
L 100.432523 147.214806 
L 100.689167 140.000971 
L 100.945811 139.050699 
L 101.459099 122.197705 
L 101.715743 119.077219 
L 101.972387 107.881948 
L 102.229031 105.831636 
L 102.485674 104.816166 
L 102.742318 104.421831 
L 102.998962 103.152582 
L 103.255606 107.98496 
L 103.51225 110.171501 
L 103.768894 113.474465 
L 104.025538 108.01418 
L 104.538826 132.9705 
L 104.79547 134.901228 
L 105.052114 133.017589 
L 105.308757 133.765196 
L 105.565401 135.607457 
L 106.078689 119.570171 
L 106.335333 115.003009 
L 106.591977 115.974908 
L 106.848621 114.285131 
L 107.361909 122.935404 
L 107.618553 123.94812 
L 107.875197 118.339406 
L 108.13184 116.044991 
L 108.388484 114.885738 
L 108.645128 116.852724 
L 108.901772 115.017575 
L 109.158416 121.946521 
L 109.41506 121.68224 
L 109.671704 127.786567 
L 109.928348 123.2814 
L 110.184992 121.167027 
L 110.441636 121.800179 
L 110.954923 129.105206 
L 111.211567 128.683285 
L 111.468211 125.372762 
L 111.724855 125.322763 
L 112.238143 132.687008 
L 112.751431 133.061669 
L 113.008075 126.609574 
L 113.264719 128.213477 
L 113.778006 121.780547 
L 114.03465 120.583754 
L 114.291294 116.506785 
L 114.547938 115.160703 
L 115.061226 128.169631 
L 115.31787 140.790918 
L 115.574514 147.186431 
L 115.831158 147.6 
L 116.087802 144.567869 
L 116.344446 139.741232 
L 116.601089 127.670618 
L 116.857733 127.306487 
L 117.114377 126.052421 
L 117.627665 107.6283 
L 117.884309 108.995527 
L 118.140953 128.32596 
L 118.397597 112.130404 
L 118.654241 110.037998 
L 119.167529 99.458789 
L 119.680816 117.305968 
L 119.93746 120.161472 
L 120.194104 116.470272 
L 120.450748 131.810554 
L 120.707392 135.38043 
L 120.964036 134.605872 
L 121.22068 133.341672 
L 121.477324 134.444028 
L 121.733968 140.960596 
L 121.990612 144.232062 
L 122.247255 140.487903 
L 122.760543 109.641753 
L 123.017187 112.362162 
L 123.273831 116.740644 
L 123.530475 117.761789 
L 123.787119 112.900929 
L 124.300407 121.058164 
L 124.557051 118.223963 
L 125.070338 137.47397 
L 125.326982 139.400974 
L 125.583626 138.814673 
L 125.84027 137.818967 
L 126.353558 133.807988 
L 126.610202 133.456265 
L 126.866846 131.380728 
L 127.12349 128.091016 
L 127.380134 128.539269 
L 128.150065 105.832772 
L 128.406709 110.588608 
L 128.663353 110.475217 
L 129.176641 89.63233 
L 129.433285 85.372074 
L 129.689929 93.609183 
L 129.946573 97.481579 
L 130.203217 96.407049 
L 130.459861 99.807538 
L 130.716504 99.708112 
L 130.973148 99.195243 
L 131.229792 100.31553 
L 131.486436 98.056981 
L 131.74308 90.940711 
L 131.999724 95.626203 
L 132.256368 98.230022 
L 132.769656 113.065655 
L 133.0263 117.110471 
L 133.539587 135.101222 
L 133.796231 129.42963 
L 134.309519 127.140807 
L 134.566163 136.827686 
L 134.822807 138.166995 
L 135.336095 119.605916 
L 135.592739 115.500351 
L 135.849383 120.952415 
L 136.106027 129.064139 
L 136.36267 126.144643 
L 136.619314 118.045613 
L 136.875958 121.065222 
L 137.389246 109.752293 
L 137.64589 112.870241 
L 137.902534 104.606075 
L 138.672466 110.965847 
L 138.92911 106.384046 
L 139.185754 113.410704 
L 139.699041 99.900281 
L 139.955685 107.511483 
L 140.212329 107.428383 
L 140.468973 108.365778 
L 140.982261 104.980381 
L 141.238905 106.616251 
L 141.495549 105.974226 
L 141.752193 106.452343 
L 142.008837 107.889278 
L 142.26548 114.625858 
L 142.522124 112.382438 
L 142.778768 106.871611 
L 143.035412 107.542303 
L 143.292056 107.234142 
L 143.5487 109.532381 
L 144.061988 110.826912 
L 144.318632 116.962024 
L 144.575276 116.855846 
L 144.83192 117.088584 
L 145.088563 114.98881 
L 145.601851 107.805525 
L 145.858495 108.234055 
L 146.115139 105.947559 
L 146.371783 110.604258 
L 146.628427 107.778157 
L 146.885071 112.841398 
L 147.141715 108.047207 
L 147.655003 116.555035 
L 147.911646 116.191073 
L 148.16829 115.27258 
L 148.424934 118.118424 
L 148.681578 118.6838 
L 149.194866 113.864221 
L 149.45151 112.601357 
L 149.708154 108.162907 
L 149.964798 108.986594 
L 150.221442 111.51462 
L 150.734729 104.687626 
L 150.991373 106.096778 
L 151.248017 101.871137 
L 151.761305 108.216762 
L 152.017949 105.860584 
L 152.274593 101.229679 
L 152.531237 101.195891 
L 152.787881 103.482747 
L 153.301169 113.529424 
L 153.814456 119.574352 
L 154.0711 121.726063 
L 154.584388 110.923327 
L 154.841032 111.310922 
L 155.097676 116.26194 
L 155.35432 112.065836 
L 155.610964 111.69319 
L 155.867608 109.974652 
L 156.124252 106.375033 
L 156.380895 94.12389 
L 156.637539 94.619126 
L 156.894183 91.965342 
L 157.150827 91.214592 
L 157.407471 95.221 
L 157.664115 89.162545 
L 157.920759 89.804367 
L 158.177403 94.954626 
L 158.434047 94.683782 
L 158.690691 96.176741 
L 158.947335 107.668104 
L 159.203978 108.93693 
L 159.460622 112.038254 
L 159.717266 108.895182 
L 159.97391 115.92488 
L 160.487198 113.384298 
L 161.000486 102.252899 
L 161.513774 88.860789 
L 161.770418 77.967947 
L 162.027061 94.700497 
L 162.283705 87.93533 
L 162.540349 94.048876 
L 162.796993 96.023584 
L 163.053637 105.633367 
L 163.310281 105.417325 
L 164.080213 94.587636 
L 164.336857 92.769984 
L 164.593501 93.49008 
L 164.850144 101.778932 
L 165.106788 101.304665 
L 165.363432 107.5408 
L 165.620076 107.862316 
L 165.87672 110.629182 
L 166.133364 110.770204 
L 167.15994 131.31995 
L 167.416584 141.951299 
L 167.673227 143.466434 
L 167.929871 143.512029 
L 168.443159 139.015331 
L 168.699803 129.792813 
L 168.956447 128.151608 
L 169.469735 106.375371 
L 169.726379 99.579054 
L 169.983023 111.579954 
L 170.49631 119.13247 
L 170.752954 114.197575 
L 171.009598 120.253952 
L 171.266242 115.642764 
L 171.522886 119.071137 
L 171.77953 116.714175 
L 172.036174 117.047723 
L 172.292818 113.214663 
L 172.549462 116.047143 
L 172.806106 121.463507 
L 173.319393 135.719231 
L 173.576037 117.605826 
L 173.832681 116.950988 
L 174.089325 99.082207 
L 174.345969 94.481833 
L 174.859257 75.15875 
L 175.372545 66.907215 
L 175.629189 77.195833 
L 175.885833 65.490226 
L 176.39912 84.089747 
L 176.655764 102.338807 
L 176.912408 112.29325 
L 177.169052 117.647434 
L 177.425696 120.649051 
L 177.938984 118.802316 
L 178.195628 116.50317 
L 178.452272 107.56982 
L 178.708916 107.915361 
L 179.222203 96.581441 
L 179.478847 95.181857 
L 179.735491 89.001405 
L 179.992135 75.140286 
L 180.505423 91.402219 
L 180.762067 90.058699 
L 181.018711 91.594531 
L 181.275355 90.38808 
L 181.531999 90.190854 
L 181.788642 93.315081 
L 182.045286 95.061491 
L 182.30193 101.559985 
L 183.328506 90.667122 
L 183.58515 97.330061 
L 183.841794 96.253385 
L 184.098438 93.522445 
L 184.611725 73.83536 
L 184.868369 80.008476 
L 185.381657 84.700254 
L 185.638301 89.676499 
L 185.894945 91.089432 
L 186.151589 88.342539 
L 186.408233 91.283462 
L 186.664877 87.830597 
L 186.921521 94.612025 
L 188.20474 112.322793 
L 188.718028 109.004351 
L 188.974672 109.96124 
L 189.231316 112.290889 
L 189.48796 120.234729 
L 189.744604 121.643598 
L 190.001248 114.739747 
L 190.514535 124.269009 
L 190.771179 112.646462 
L 191.541111 93.168661 
L 191.797755 106.345475 
L 192.311043 116.317361 
L 192.567687 118.123925 
L 192.824331 126.507715 
L 193.080974 125.500292 
L 193.337618 126.431902 
L 193.850906 115.418559 
L 194.10755 115.791397 
L 194.364194 93.995513 
L 194.620838 103.772977 
L 195.134126 114.317491 
L 195.39077 115.46002 
L 195.647414 114.542875 
L 195.904057 115.812096 
L 196.160701 120.574017 
L 196.417345 116.700602 
L 196.673989 127.02144 
L 196.930633 118.469538 
L 197.187277 118.918134 
L 197.443921 115.270951 
L 197.700565 109.736356 
L 197.957209 108.212159 
L 198.213853 102.758681 
L 198.470497 104.353686 
L 198.72714 119.832277 
L 198.983784 115.706336 
L 199.240428 133.140902 
L 199.497072 128.734855 
L 199.753716 130.277293 
L 200.01036 128.218878 
L 200.267004 133.064193 
L 200.523648 124.048922 
L 200.780292 120.019795 
L 201.036936 108.962663 
L 201.29358 108.262101 
L 201.550223 109.686477 
L 201.806867 122.274017 
L 202.320155 134.150075 
L 202.576799 137.396622 
L 203.090087 115.632775 
L 203.603375 122.331266 
L 203.860019 122.995052 
L 204.116663 112.150634 
L 204.373307 107.842359 
L 204.62995 110.335804 
L 204.886594 106.351326 
L 205.143238 107.003362 
L 205.399882 108.662396 
L 205.656526 106.07545 
L 205.91317 106.942847 
L 206.683102 116.65868 
L 207.19639 107.664684 
L 207.453033 111.15842 
L 207.966321 112.30459 
L 208.222965 113.562763 
L 208.479609 111.641709 
L 208.736253 107.878508 
L 209.249541 110.156094 
L 209.506185 113.910385 
L 209.762829 110.767528 
L 210.019473 113.097711 
L 210.53276 110.505416 
L 210.53276 110.505416 
" clip-path="url(#pbec8c10e46)" style="fill: none; stroke: #008000; stroke-width: 1.5; stroke-linecap: square"/>
   </g>
   <g id="patch_3">
    <path d="M 55.584 152.64 
L 55.584 41.76 
" style="fill: none; stroke: #000000; stroke-width: 0.8; stroke-linejoin: miter; stroke-linecap: square"/>
   </g>
   <g id="patch_4">
    <path d="M 217.911273 152.64 
L 217.911273 41.76 
" style="fill: none; stroke: #000000; stroke-width: 0.8; stroke-linejoin: miter; stroke-linecap: square"/>
   </g>
   <g id="patch_5">
    <path d="M 55.584 152.64 
L 217.911273 152.64 
" style="fill: none; stroke: #000000; stroke-width: 0.8; stroke-linejoin: miter; stroke-linecap: square"/>
   </g>
   <g id="patch_6">
    <path d="M 55.584 41.76 
L 217.911273 41.76 
" style="fill: none; stroke: #000000; stroke-width: 0.8; stroke-linejoin: miter; stroke-linecap: square"/>
   </g>
   <g id="text_9">
    <!-- No Prediction (FOSS) -->
    <g transform="translate(74.495761 35.76) scale(0.12 -0.12)">
     <defs>
      <path id="DejaVuSans-4e" d="M 628 4666 
L 1478 4666 
L 3547 763 
L 3547 4666 
L 4159 4666 
L 4159 0 
L 3309 0 
L 1241 3903 
L 1241 0 
L 628 0 
L 628 4666 
z
" transform="scale(0.015625)"/>
      <path id="DejaVuSans-6f" d="M 1959 3097 
Q 1497 3097 1228 2736 
Q 959 2375 959 1747 
Q 959 1119 1226 758 
Q 1494 397 1959 397 
Q 2419 397 2687 759 
Q 2956 1122 2956 1747 
Q 2956 2369 2687 2733 
Q 2419 3097 1959 3097 
z
M 1959 3584 
Q 2709 3584 3137 3096 
Q 3566 2609 3566 1747 
Q 3566 888 3137 398 
Q 2709 -91 1959 -91 
Q 1206 -91 779 398 
Q 353 888 353 1747 
Q 353 2609 779 3096 
Q 1206 3584 1959 3584 
z
" transform="scale(0.015625)"/>
      <path id="DejaVuSans-20" transform="scale(0.015625)"/>
      <path id="DejaVuSans-50" d="M 1259 4147 
L 1259 2394 
L 2053 2394 
Q 2494 2394 2734 2622 
Q 2975 2850 2975 3272 
Q 2975 3691 2734 3919 
Q 2494 4147 2053 4147 
L 1259 4147 
z
M 628 4666 
L 2053 4666 
Q 2838 4666 3239 4311 
Q 3641 3956 3641 3272 
Q 3641 2581 3239 2228 
Q 2838 1875 2053 1875 
L 1259 1875 
L 1259 0 
L 628 0 
L 628 4666 
z
" transform="scale(0.015625)"/>
      <path id="DejaVuSans-72" d="M 2631 2963 
Q 2534 3019 2420 3045 
Q 2306 3072 2169 3072 
Q 1681 3072 1420 2755 
Q 1159 2438 1159 1844 
L 1159 0 
L 581 0 
L 581 3500 
L 1159 3500 
L 1159 2956 
Q 1341 3275 1631 3429 
Q 1922 3584 2338 3584 
Q 2397 3584 2469 3576 
Q 2541 3569 2628 3553 
L 2631 2963 
z
" transform="scale(0.015625)"/>
      <path id="DejaVuSans-65" d="M 3597 1894 
L 3597 1613 
L 953 1613 
Q 991 1019 1311 708 
Q 1631 397 2203 397 
Q 2534 397 2845 478 
Q 3156 559 3463 722 
L 3463 178 
Q 3153 47 2828 -22 
Q 2503 -91 2169 -91 
Q 1331 -91 842 396 
Q 353 884 353 1716 
Q 353 2575 817 3079 
Q 1281 3584 2069 3584 
Q 2775 3584 3186 3129 
Q 3597 2675 3597 1894 
z
M 3022 2063 
Q 3016 2534 2758 2815 
Q 2500 3097 2075 3097 
Q 1594 3097 1305 2825 
Q 1016 2553 972 2059 
L 3022 2063 
z
" transform="scale(0.015625)"/>
      <path id="DejaVuSans-64" d="M 2906 2969 
L 2906 4863 
L 3481 4863 
L 3481 0 
L 2906 0 
L 2906 525 
Q 2725 213 2448 61 
Q 2172 -91 1784 -91 
Q 1150 -91 751 415 
Q 353 922 353 1747 
Q 353 2572 751 3078 
Q 1150 3584 1784 3584 
Q 2172 3584 2448 3432 
Q 2725 3281 2906 2969 
z
M 947 1747 
Q 947 1113 1208 752 
Q 1469 391 1925 391 
Q 2381 391 2643 752 
Q 2906 1113 2906 1747 
Q 2906 2381 2643 2742 
Q 2381 3103 1925 3103 
Q 1469 3103 1208 2742 
Q 947 2381 947 1747 
z
" transform="scale(0.015625)"/>
      <path id="DejaVuSans-69" d="M 603 3500 
L 1178 3500 
L 1178 0 
L 603 0 
L 603 3500 
z
M 603 4863 
L 1178 4863 
L 1178 4134 
L 603 4134 
L 603 4863 
z
" transform="scale(0.015625)"/>
      <path id="DejaVuSans-63" d="M 3122 3366 
L 3122 2828 
Q 2878 2963 2633 3030 
Q 2388 3097 2138 3097 
Q 1578 3097 1268 2742 
Q 959 2388 959 1747 
Q 959 1106 1268 751 
Q 1578 397 2138 397 
Q 2388 397 2633 464 
Q 2878 531 3122 666 
L 3122 134 
Q 2881 22 2623 -34 
Q 2366 -91 2075 -91 
Q 1284 -91 818 406 
Q 353 903 353 1747 
Q 353 2603 823 3093 
Q 1294 3584 2113 3584 
Q 2378 3584 2631 3529 
Q 2884 3475 3122 3366 
z
" transform="scale(0.015625)"/>
      <path id="DejaVuSans-74" d="M 1172 4494 
L 1172 3500 
L 2356 3500 
L 2356 3053 
L 1172 3053 
L 1172 1153 
Q 1172 725 1289 603 
Q 1406 481 1766 481 
L 2356 481 
L 2356 0 
L 1766 0 
Q 1100 0 847 248 
Q 594 497 594 1153 
L 594 3053 
L 172 3053 
L 172 3500 
L 594 3500 
L 594 4494 
L 1172 4494 
z
" transform="scale(0.015625)"/>
      <path id="DejaVuSans-6e" d="M 3513 2113 
L 3513 0 
L 2938 0 
L 2938 2094 
Q 2938 2591 2744 2837 
Q 2550 3084 2163 3084 
Q 1697 3084 1428 2787 
Q 1159 2491 1159 1978 
L 1159 0 
L 581 0 
L 581 3500 
L 1159 3500 
L 1159 2956 
Q 1366 3272 1645 3428 
Q 1925 3584 2291 3584 
Q 2894 3584 3203 3211 
Q 3513 2838 3513 2113 
z
" transform="scale(0.015625)"/>
      <path id="DejaVuSans-28" d="M 1984 4856 
Q 1566 4138 1362 3434 
Q 1159 2731 1159 2009 
Q 1159 1288 1364 580 
Q 1569 -128 1984 -844 
L 1484 -844 
Q 1016 -109 783 600 
Q 550 1309 550 2009 
Q 550 2706 781 3412 
Q 1013 4119 1484 4856 
L 1984 4856 
z
" transform="scale(0.015625)"/>
      <path id="DejaVuSans-46" d="M 628 4666 
L 3309 4666 
L 3309 4134 
L 1259 4134 
L 1259 2759 
L 3109 2759 
L 3109 2228 
L 1259 2228 
L 1259 0 
L 628 0 
L 628 4666 
z
" transform="scale(0.015625)"/>
      <path id="DejaVuSans-4f" d="M 2522 4238 
Q 1834 4238 1429 3725 
Q 1025 3213 1025 2328 
Q 1025 1447 1429 934 
Q 1834 422 2522 422 
Q 3209 422 3611 934 
Q 4013 1447 4013 2328 
Q 4013 3213 3611 3725 
Q 3209 4238 2522 4238 
z
M 2522 4750 
Q 3503 4750 4090 4092 
Q 4678 3434 4678 2328 
Q 4678 1225 4090 567 
Q 3503 -91 2522 -91 
Q 1538 -91 948 565 
Q 359 1222 359 2328 
Q 359 3434 948 4092 
Q 1538 4750 2522 4750 
z
" transform="scale(0.015625)"/>
      <path id="DejaVuSans-53" d="M 3425 4513 
L 3425 3897 
Q 3066 4069 2747 4153 
Q 2428 4238 2131 4238 
Q 1616 4238 1336 4038 
Q 1056 3838 1056 3469 
Q 1056 3159 1242 3001 
Q 1428 2844 1947 2747 
L 2328 2669 
Q 3034 2534 3370 2195 
Q 3706 1856 3706 1288 
Q 3706 609 3251 259 
Q 2797 -91 1919 -91 
Q 1588 -91 1214 -16 
Q 841 59 441 206 
L 441 856 
Q 825 641 1194 531 
Q 1563 422 1919 422 
Q 2459 422 2753 634 
Q 3047 847 3047 1241 
Q 3047 1584 2836 1778 
Q 2625 1972 2144 2069 
L 1759 2144 
Q 1053 2284 737 2584 
Q 422 2884 422 3419 
Q 422 4038 858 4394 
Q 1294 4750 2059 4750 
Q 2388 4750 2728 4690 
Q 3069 4631 3425 4513 
z
" transform="scale(0.015625)"/>
      <path id="DejaVuSans-29" d="M 513 4856 
L 1013 4856 
Q 1481 4119 1714 3412 
Q 1947 2706 1947 2009 
Q 1947 1309 1714 600 
Q 1481 -109 1013 -844 
L 513 -844 
Q 928 -128 1133 580 
Q 1338 1288 1338 2009 
Q 1338 2731 1133 3434 
Q 928 4138 513 4856 
z
" transform="scale(0.015625)"/>
     </defs>
     <use xlink:href="#DejaVuSans-4e"/>
     <use xlink:href="#DejaVuSans-6f" x="74.804688"/>
     <use xlink:href="#DejaVuSans-20" x="135.986328"/>
     <use xlink:href="#DejaVuSans-50" x="167.773438"/>
     <use xlink:href="#DejaVuSans-72" x="226.326172"/>
     <use xlink:href="#DejaVuSans-65" x="265.189453"/>
     <use xlink:href="#DejaVuSans-64" x="326.712891"/>
     <use xlink:href="#DejaVuSans-69" x="390.189453"/>
     <use xlink:href="#DejaVuSans-63" x="417.972656"/>
     <use xlink:href="#DejaVuSans-74" x="472.953125"/>
     <use xlink:href="#DejaVuSans-69" x="512.162109"/>
     <use xlink:href="#DejaVuSans-6f" x="539.945312"/>
     <use xlink:href="#DejaVuSans-6e" x="601.126953"/>
     <use xlink:href="#DejaVuSans-20" x="664.505859"/>
     <use xlink:href="#DejaVuSans-28" x="696.292969"/>
     <use xlink:href="#DejaVuSans-46" x="735.306641"/>
     <use xlink:href="#DejaVuSans-4f" x="792.826172"/>
     <use xlink:href="#DejaVuSans-53" x="871.537109"/>
     <use xlink:href="#DejaVuSans-53" x="935.013672"/>
     <use xlink:href="#DejaVuSans-29" x="998.490234"/>
    </g>
   </g>
  </g>
  <g id="axes_2">
   <g id="patch_7">
    <path d="M 250.376727 152.64 
L 412.704 152.64 
L 412.704 41.76 
L 250.376727 41.76 
z
" style="fill: #ffffff"/>
   </g>
   <g id="matplotlib.axis_3">
    <g id="xtick_5">
     <g id="line2d_10">
      <g>
       <use xlink:href="#m55ada10bc6" x="257.75524" y="152.64" style="stroke: #000000; stroke-width: 0.8"/>
      </g>
     </g>
     <g id="text_10">
      <!-- 0 -->
      <g transform="translate(254.57399 167.238437) scale(0.1 -0.1)">
       <use xlink:href="#DejaVuSans-30"/>
      </g>
     </g>
    </g>
    <g id="xtick_6">
     <g id="line2d_11">
      <g>
       <use xlink:href="#m55ada10bc6" x="309.084022" y="152.64" style="stroke: #000000; stroke-width: 0.8"/>
      </g>
     </g>
     <g id="text_11">
      <!-- 200 -->
      <g transform="translate(299.540272 167.238437) scale(0.1 -0.1)">
       <use xlink:href="#DejaVuSans-32"/>
       <use xlink:href="#DejaVuSans-30" x="63.623047"/>
       <use xlink:href="#DejaVuSans-30" x="127.246094"/>
      </g>
     </g>
    </g>
    <g id="xtick_7">
     <g id="line2d_12">
      <g>
       <use xlink:href="#m55ada10bc6" x="360.412803" y="152.64" style="stroke: #000000; stroke-width: 0.8"/>
      </g>
     </g>
     <g id="text_12">
      <!-- 400 -->
      <g transform="translate(350.869053 167.238437) scale(0.1 -0.1)">
       <use xlink:href="#DejaVuSans-34"/>
       <use xlink:href="#DejaVuSans-30" x="63.623047"/>
       <use xlink:href="#DejaVuSans-30" x="127.246094"/>
      </g>
     </g>
    </g>
    <g id="xtick_8">
     <g id="line2d_13">
      <g>
       <use xlink:href="#m55ada10bc6" x="411.741585" y="152.64" style="stroke: #000000; stroke-width: 0.8"/>
      </g>
     </g>
     <g id="text_13">
      <!-- 600 -->
      <g transform="translate(402.197835 167.238437) scale(0.1 -0.1)">
       <use xlink:href="#DejaVuSans-36"/>
       <use xlink:href="#DejaVuSans-30" x="63.623047"/>
       <use xlink:href="#DejaVuSans-30" x="127.246094"/>
      </g>
     </g>
    </g>
   </g>
   <g id="matplotlib.axis_4">
    <g id="ytick_5">
     <g id="line2d_14">
      <g>
       <use xlink:href="#m95abeceae2" x="250.376727" y="147.6" style="stroke: #000000; stroke-width: 0.8"/>
      </g>
     </g>
     <g id="text_14">
      <!-- 0 -->
      <g transform="translate(237.014227 151.399219) scale(0.1 -0.1)">
       <use xlink:href="#DejaVuSans-30"/>
      </g>
     </g>
    </g>
    <g id="ytick_6">
     <g id="line2d_15">
      <g>
       <use xlink:href="#m95abeceae2" x="250.376727" y="125.229895" style="stroke: #000000; stroke-width: 0.8"/>
      </g>
     </g>
     <g id="text_15">
      <!-- 10 -->
      <g transform="translate(230.651727 129.029114) scale(0.1 -0.1)">
       <use xlink:href="#DejaVuSans-31"/>
       <use xlink:href="#DejaVuSans-30" x="63.623047"/>
      </g>
     </g>
    </g>
    <g id="ytick_7">
     <g id="line2d_16">
      <g>
       <use xlink:href="#m95abeceae2" x="250.376727" y="102.85979" style="stroke: #000000; stroke-width: 0.8"/>
      </g>
     </g>
     <g id="text_16">
      <!-- 20 -->
      <g transform="translate(230.651727 106.659009) scale(0.1 -0.1)">
       <use xlink:href="#DejaVuSans-32"/>
       <use xlink:href="#DejaVuSans-30" x="63.623047"/>
      </g>
     </g>
    </g>
    <g id="ytick_8">
     <g id="line2d_17">
      <g>
       <use xlink:href="#m95abeceae2" x="250.376727" y="80.489685" style="stroke: #000000; stroke-width: 0.8"/>
      </g>
     </g>
     <g id="text_17">
      <!-- 30 -->
      <g transform="translate(230.651727 84.288903) scale(0.1 -0.1)">
       <use xlink:href="#DejaVuSans-33"/>
       <use xlink:href="#DejaVuSans-30" x="63.623047"/>
      </g>
     </g>
    </g>
    <g id="ytick_9">
     <g id="line2d_18">
      <g>
       <use xlink:href="#m95abeceae2" x="250.376727" y="58.11958" style="stroke: #000000; stroke-width: 0.8"/>
      </g>
     </g>
     <g id="text_18">
      <!-- 40 -->
      <g transform="translate(230.651727 61.918798) scale(0.1 -0.1)">
       <use xlink:href="#DejaVuSans-34"/>
       <use xlink:href="#DejaVuSans-30" x="63.623047"/>
      </g>
     </g>
    </g>
   </g>
   <g id="line2d_19">
    <path d="M 257.75524 54.072711 
L 258.011884 53.312797 
L 258.525171 62.445781 
L 259.038459 66.520834 
L 259.295103 61.988646 
L 259.551747 60.280594 
L 259.808391 51.495892 
L 260.065035 46.8 
L 260.321679 50.380286 
L 260.578323 64.511978 
L 261.09161 139.08339 
L 261.348254 146.096814 
L 261.861542 130.811999 
L 262.118186 124.002062 
L 262.37483 110.285777 
L 262.631474 108.500958 
L 262.888118 124.042282 
L 263.144762 129.080562 
L 263.65805 144.429481 
L 263.914693 56.429979 
L 264.171337 61.342251 
L 264.427981 54.596281 
L 264.941269 72.023041 
L 265.197913 66.519529 
L 265.454557 65.474103 
L 265.711201 67.296969 
L 265.967845 57.964801 
L 266.224489 62.684349 
L 266.737777 74.167604 
L 266.99442 143.627338 
L 267.251064 144.546669 
L 267.507708 138.345228 
L 267.764352 146.789972 
L 268.020996 147.6 
L 269.304216 147.6 
L 269.56086 145.684953 
L 269.817503 134.602182 
L 270.074147 86.253626 
L 270.330791 88.247176 
L 270.587435 88.387786 
L 270.844079 90.749011 
L 271.100723 84.362972 
L 271.357367 88.979292 
L 271.870655 86.774185 
L 272.127299 82.184184 
L 272.383943 82.295205 
L 272.640586 79.769009 
L 272.89723 86.99086 
L 273.153874 144.298161 
L 273.410518 137.332213 
L 273.667162 147.6 
L 273.923806 146.010094 
L 274.18045 140.232545 
L 274.437094 145.245732 
L 274.693738 136.517644 
L 274.950382 134.740722 
L 275.207026 143.753295 
L 275.463669 147.6 
L 275.976957 147.6 
L 276.233601 86.194064 
L 276.490245 84.907919 
L 276.746889 82.188828 
L 277.003533 82.308625 
L 277.260177 85.843681 
L 278.030109 107.007883 
L 278.286752 104.551422 
L 278.543396 95.970193 
L 278.80004 92.495635 
L 279.056684 98.31454 
L 279.569972 147.6 
L 279.826616 147.6 
L 280.08326 145.656917 
L 280.339904 145.903912 
L 280.596548 145.856512 
L 280.853192 146.77831 
L 281.109835 145.974054 
L 281.366479 144.430076 
L 281.623123 147.6 
L 282.136411 147.6 
L 282.393055 114.359234 
L 282.649699 111.932442 
L 282.906343 107.035315 
L 283.162987 105.112752 
L 283.676275 106.45303 
L 283.932918 98.032236 
L 284.189562 104.135707 
L 284.446206 115.166842 
L 284.70285 115.177875 
L 284.959494 119.605988 
L 285.216138 116.964823 
L 285.472782 147.6 
L 285.729426 147.6 
L 285.98607 144.583233 
L 286.242714 144.169086 
L 286.499358 144.88756 
L 286.756001 147.568483 
L 287.012645 144.258971 
L 287.525933 147.6 
L 287.782577 146.280665 
L 288.039221 141.747173 
L 288.295865 140.208421 
L 288.552509 101.394984 
L 288.809153 101.146493 
L 289.065797 100.699585 
L 289.322441 93.375053 
L 289.579084 102.058153 
L 289.835728 103.357346 
L 290.092372 99.064464 
L 290.349016 99.557501 
L 290.60566 98.045052 
L 291.118948 86.172754 
L 291.375592 91.629205 
L 291.632236 146.625084 
L 291.88888 135.232844 
L 292.145524 142.398939 
L 292.402167 140.682797 
L 292.658811 141.25406 
L 292.915455 147.6 
L 294.455319 147.6 
L 294.711963 111.93984 
L 294.968607 122.756104 
L 295.22525 125.578808 
L 295.481894 119.924634 
L 295.738538 119.184555 
L 296.251826 106.026884 
L 296.50847 103.580767 
L 296.765114 94.832951 
L 297.021758 93.231008 
L 297.535046 92.130951 
L 297.79169 147.6 
L 298.304977 147.6 
L 298.561621 141.363521 
L 298.818265 142.761445 
L 299.074909 136.072074 
L 299.331553 137.15383 
L 299.588197 144.671597 
L 299.844841 144.196914 
L 300.101485 141.577082 
L 300.358129 141.492494 
L 300.614773 139.009898 
L 300.871416 103.944872 
L 301.12806 100.390023 
L 301.384704 101.137936 
L 301.641348 99.818243 
L 302.154636 106.592211 
L 302.41128 107.379377 
L 302.667924 103.005187 
L 302.924568 101.202192 
L 303.181212 100.302381 
L 303.437856 101.851513 
L 303.694499 100.415764 
L 303.951143 147.6 
L 304.464431 147.6 
L 304.721075 139.276912 
L 304.977719 144.073503 
L 305.234363 139.721012 
L 305.491007 146.465753 
L 305.747651 147.6 
L 306.774226 147.6 
L 307.03087 114.213233 
L 307.544158 114.50942 
L 307.800802 109.432641 
L 308.057446 110.721855 
L 308.570734 105.695653 
L 308.827378 104.758258 
L 309.084022 101.563518 
L 309.340665 100.506482 
L 309.853953 110.699827 
L 310.110597 121.688392 
L 310.367241 145.25472 
L 310.623885 147.6 
L 310.880529 146.998548 
L 311.137173 147.6 
L 311.393817 145.980176 
L 311.650461 134.6557 
L 311.907105 135.677864 
L 312.163748 133.231225 
L 312.677036 117.206333 
L 312.93368 104.153569 
L 313.190324 98.147274 
L 313.446968 96.526334 
L 313.960256 88.238631 
L 314.473544 102.201149 
L 314.730188 104.401428 
L 314.986831 101.023327 
L 315.243475 113.526015 
L 315.500119 116.330137 
L 315.756763 115.700557 
L 316.013407 114.721934 
L 316.270051 147.6 
L 317.809914 147.6 
L 318.066558 143.422522 
L 318.323202 144.160833 
L 318.579846 142.333484 
L 318.83649 143.087795 
L 319.093134 140.577917 
L 319.349778 102.900738 
L 319.863066 117.951486 
L 320.11971 119.428195 
L 320.376354 119.012954 
L 320.632997 118.223301 
L 321.146285 115.095656 
L 321.402929 114.820072 
L 321.659573 113.193141 
L 321.916217 110.615035 
L 322.172861 110.95265 
L 322.686149 137.861222 
L 322.942793 130.819314 
L 323.199437 131.572457 
L 323.45608 128.600783 
L 323.969368 137.695631 
L 324.226012 137.323245 
L 324.7393 130.430747 
L 325.252588 140.359725 
L 325.509232 88.431137 
L 325.765876 88.041492 
L 326.02252 88.906652 
L 326.279163 87.130036 
L 326.535807 81.583449 
L 326.792451 85.253906 
L 327.049095 87.204432 
L 327.562383 98.88064 
L 327.819027 102.038753 
L 328.845603 135.674188 
L 329.35889 129.793844 
L 329.615534 128.209765 
L 329.872178 121.321896 
L 330.128822 121.136199 
L 330.385466 137.730097 
L 330.64211 144.578696 
L 330.898754 144.396142 
L 331.155398 147.6 
L 331.412042 147.6 
L 331.668686 105.129071 
L 331.92533 99.461075 
L 332.181973 96.279827 
L 332.438617 98.728018 
L 332.695261 92.271518 
L 333.465193 97.230621 
L 333.721837 93.678074 
L 333.978481 99.133684 
L 334.491769 88.586162 
L 334.748413 129.911598 
L 335.005056 137.30906 
L 335.2617 122.696729 
L 335.518344 121.744684 
L 336.288276 130.826092 
L 336.801564 140.861104 
L 337.058208 138.942015 
L 337.571496 147.444199 
L 337.828139 94.556613 
L 338.084783 94.307652 
L 338.341427 96.110083 
L 338.854715 97.134405 
L 339.111359 101.92565 
L 339.368003 101.84316 
L 339.624647 102.030121 
L 339.881291 100.39079 
L 340.394579 94.771717 
L 340.651222 95.09958 
L 341.16451 131.283966 
L 341.421154 130.852688 
L 341.677798 142.311783 
L 341.934442 135.184028 
L 342.191086 134.493127 
L 342.44773 130.273743 
L 342.704374 132.735678 
L 342.961018 131.258676 
L 343.217662 130.487785 
L 343.474305 131.267448 
L 343.730949 134.313292 
L 343.987593 99.493109 
L 344.244237 98.499201 
L 344.500881 95.050129 
L 344.757525 95.686972 
L 345.014169 97.665841 
L 345.527457 92.477198 
L 345.784101 93.450848 
L 346.040745 90.138728 
L 346.554032 95.075577 
L 346.810676 93.234432 
L 347.06732 98.345547 
L 347.323964 136.505162 
L 347.837252 141.112403 
L 348.093896 130.699591 
L 348.35054 131.151497 
L 348.607184 140.059208 
L 348.863828 142.56427 
L 349.120471 141.507925 
L 349.377115 141.015156 
L 349.633759 136.469027 
L 349.890403 136.198277 
L 350.147047 98.100971 
L 350.403691 97.794178 
L 350.660335 96.46332 
L 350.916979 93.638217 
L 351.173623 83.972341 
L 351.430267 84.464591 
L 351.686911 82.380312 
L 351.943554 81.77591 
L 352.200198 84.936989 
L 352.456842 80.193905 
L 352.713486 80.830384 
L 352.97013 84.929341 
L 353.226774 122.676195 
L 353.483418 117.954275 
L 353.996706 127.642694 
L 354.25335 127.859246 
L 354.509994 130.039365 
L 354.766637 133.643497 
L 355.279925 147.6 
L 356.049857 147.6 
L 356.306501 79.9673 
L 356.563145 71.46447 
L 356.819789 82.326877 
L 357.076433 79.216338 
L 357.333077 84.030734 
L 357.58972 85.538998 
L 357.846364 93.074732 
L 358.103008 92.893349 
L 358.87294 84.411341 
L 359.129584 83.050661 
L 359.386228 147.6 
L 359.642872 141.250597 
L 359.899516 144.781541 
L 360.15616 144.413714 
L 360.412803 138.400384 
L 360.669447 128.236974 
L 360.926091 129.035978 
L 361.182735 128.153811 
L 361.439379 136.035559 
L 361.696023 137.166834 
L 361.952667 144.709948 
L 362.209311 145.902176 
L 362.465955 122.655997 
L 362.722599 122.664306 
L 363.235886 119.155861 
L 363.49253 111.892523 
L 363.749174 110.644817 
L 364.262462 93.646291 
L 364.519106 88.335265 
L 364.77575 97.702096 
L 365.289038 103.62446 
L 365.545682 141.710372 
L 365.802326 142.008747 
L 366.058969 139.778816 
L 366.572257 122.788963 
L 366.828901 104.944668 
L 367.085545 114.740508 
L 367.342189 134.345288 
L 367.855477 146.578688 
L 368.112121 147.6 
L 368.368765 147.6 
L 368.625409 101.926545 
L 368.882052 87.956944 
L 369.138696 84.352595 
L 369.651984 69.241016 
L 370.165272 62.794209 
L 370.421916 70.157837 
L 370.67856 61.69356 
L 371.191848 76.21925 
L 371.448492 90.475438 
L 371.705135 136.652267 
L 371.961779 145.358853 
L 372.218423 147.6 
L 373.501643 147.6 
L 374.014931 139.144668 
L 374.271575 124.406389 
L 374.528218 128.227961 
L 374.784862 69.208286 
L 375.29815 81.933279 
L 375.554794 80.80432 
L 375.811438 82.073862 
L 376.068082 81.152451 
L 376.324726 80.985321 
L 376.58137 83.439465 
L 376.838014 84.685578 
L 377.094658 89.799322 
L 377.607945 85.267798 
L 377.864589 120.133287 
L 378.121233 111.124665 
L 378.377877 128.550551 
L 378.634521 124.376887 
L 378.891165 145.941219 
L 379.147809 147.6 
L 379.917741 121.579492 
L 380.174384 120.215258 
L 380.431028 131.262674 
L 380.687672 128.304402 
L 380.944316 79.559133 
L 381.20096 81.858371 
L 381.457604 79.251846 
L 381.714248 84.479467 
L 382.997467 98.30482 
L 383.510755 95.687467 
L 383.767399 96.454079 
L 384.024043 136.404921 
L 384.280687 140.398687 
L 384.537331 138.825865 
L 384.793975 147.6 
L 385.050619 142.368934 
L 385.563907 139.416582 
L 385.82055 139.701241 
L 386.077194 137.016571 
L 386.590482 120.782045 
L 386.847126 125.130088 
L 387.10377 101.430586 
L 387.360414 102.836234 
L 387.617058 109.092432 
L 387.873702 108.572967 
L 388.130346 109.322256 
L 388.643633 100.714797 
L 388.900277 100.993255 
L 389.156921 83.980663 
L 389.413565 91.634742 
L 389.926853 99.835607 
L 390.183497 130.653518 
L 390.440141 147.6 
L 390.696785 141.343426 
L 390.953429 132.347159 
L 391.210073 132.091596 
L 391.466716 140.41587 
L 391.72336 123.681971 
L 391.980004 135.145862 
L 392.236648 137.361733 
L 392.493292 132.839115 
L 392.749936 130.351202 
L 393.00658 126.128287 
L 393.263224 92.092544 
L 393.519868 104.17451 
L 393.776512 100.934491 
L 394.033156 114.475129 
L 394.289799 111.12613 
L 394.546443 112.326212 
L 394.803087 110.714392 
L 395.059731 114.49247 
L 395.316375 107.468725 
L 395.573019 104.317466 
L 395.829663 95.682427 
L 396.086307 95.124487 
L 396.342951 103.15321 
L 396.599595 135.097006 
L 396.856239 139.951531 
L 397.112883 126.125668 
L 397.369526 130.73965 
L 397.62617 127.952484 
L 397.882814 123.128646 
L 398.139458 127.854436 
L 398.396102 143.254934 
L 398.652746 147.220187 
L 398.90939 147.6 
L 399.166034 147.6 
L 399.422678 96.747223 
L 399.679322 88.35721 
L 399.935966 94.148124 
L 400.192609 95.439771 
L 400.449253 93.375861 
L 400.705897 94.088375 
L 401.475829 101.699423 
L 401.989117 94.65907 
L 402.245761 97.38028 
L 402.502405 142.815668 
L 402.759049 147.6 
L 403.015692 147.6 
L 403.272336 143.890755 
L 403.52898 137.232362 
L 403.785624 135.741059 
L 404.042268 133.456479 
L 404.298912 135.285962 
L 404.8122 142.875112 
L 405.068844 147.6 
L 405.325488 147.6 
L 405.325488 147.6 
" clip-path="url(#p460f373bc3)" style="fill: none; stroke: #0000ff; stroke-width: 1.5; stroke-linecap: square"/>
   </g>
   <g id="patch_8">
    <path d="M 250.376727 152.64 
L 250.376727 41.76 
" style="fill: none; stroke: #000000; stroke-width: 0.8; stroke-linejoin: miter; stroke-linecap: square"/>
   </g>
   <g id="patch_9">
    <path d="M 412.704 152.64 
L 412.704 41.76 
" style="fill: none; stroke: #000000; stroke-width: 0.8; stroke-linejoin: miter; stroke-linecap: square"/>
   </g>
   <g id="patch_10">
    <path d="M 250.376727 152.64 
L 412.704 152.64 
" style="fill: none; stroke: #000000; stroke-width: 0.8; stroke-linejoin: miter; stroke-linecap: square"/>
   </g>
   <g id="patch_11">
    <path d="M 250.376727 41.76 
L 412.704 41.76 
" style="fill: none; stroke: #000000; stroke-width: 0.8; stroke-linejoin: miter; stroke-linecap: square"/>
   </g>
   <g id="text_19">
    <!-- RNN -->
    <g transform="translate(318.393801 35.76) scale(0.12 -0.12)">
     <defs>
      <path id="DejaVuSans-52" d="M 2841 2188 
Q 3044 2119 3236 1894 
Q 3428 1669 3622 1275 
L 4263 0 
L 3584 0 
L 2988 1197 
Q 2756 1666 2539 1819 
Q 2322 1972 1947 1972 
L 1259 1972 
L 1259 0 
L 628 0 
L 628 4666 
L 2053 4666 
Q 2853 4666 3247 4331 
Q 3641 3997 3641 3322 
Q 3641 2881 3436 2590 
Q 3231 2300 2841 2188 
z
M 1259 4147 
L 1259 2491 
L 2053 2491 
Q 2509 2491 2742 2702 
Q 2975 2913 2975 3322 
Q 2975 3731 2742 3939 
Q 2509 4147 2053 4147 
L 1259 4147 
z
" transform="scale(0.015625)"/>
     </defs>
     <use xlink:href="#DejaVuSans-52"/>
     <use xlink:href="#DejaVuSans-4e" x="69.482422"/>
     <use xlink:href="#DejaVuSans-4e" x="144.287109"/>
    </g>
   </g>
  </g>
  <g id="axes_3">
   <g id="patch_12">
    <path d="M 55.584 307.872 
L 217.911273 307.872 
L 217.911273 196.992 
L 55.584 196.992 
z
" style="fill: #ffffff"/>
   </g>
   <g id="matplotlib.axis_5">
    <g id="xtick_9">
     <g id="line2d_20">
      <g>
       <use xlink:href="#m55ada10bc6" x="62.962512" y="307.872" style="stroke: #000000; stroke-width: 0.8"/>
      </g>
     </g>
     <g id="text_20">
      <!-- 0 -->
      <g transform="translate(59.781262 322.470437) scale(0.1 -0.1)">
       <use xlink:href="#DejaVuSans-30"/>
      </g>
     </g>
    </g>
    <g id="xtick_10">
     <g id="line2d_21">
      <g>
       <use xlink:href="#m55ada10bc6" x="114.291294" y="307.872" style="stroke: #000000; stroke-width: 0.8"/>
      </g>
     </g>
     <g id="text_21">
      <!-- 200 -->
      <g transform="translate(104.747544 322.470437) scale(0.1 -0.1)">
       <use xlink:href="#DejaVuSans-32"/>
       <use xlink:href="#DejaVuSans-30" x="63.623047"/>
       <use xlink:href="#DejaVuSans-30" x="127.246094"/>
      </g>
     </g>
    </g>
    <g id="xtick_11">
     <g id="line2d_22">
      <g>
       <use xlink:href="#m55ada10bc6" x="165.620076" y="307.872" style="stroke: #000000; stroke-width: 0.8"/>
      </g>
     </g>
     <g id="text_22">
      <!-- 400 -->
      <g transform="translate(156.076326 322.470437) scale(0.1 -0.1)">
       <use xlink:href="#DejaVuSans-34"/>
       <use xlink:href="#DejaVuSans-30" x="63.623047"/>
       <use xlink:href="#DejaVuSans-30" x="127.246094"/>
      </g>
     </g>
    </g>
    <g id="xtick_12">
     <g id="line2d_23">
      <g>
       <use xlink:href="#m55ada10bc6" x="216.948858" y="307.872" style="stroke: #000000; stroke-width: 0.8"/>
      </g>
     </g>
     <g id="text_23">
      <!-- 600 -->
      <g transform="translate(207.405108 322.470437) scale(0.1 -0.1)">
       <use xlink:href="#DejaVuSans-36"/>
       <use xlink:href="#DejaVuSans-30" x="63.623047"/>
       <use xlink:href="#DejaVuSans-30" x="127.246094"/>
      </g>
     </g>
    </g>
   </g>
   <g id="matplotlib.axis_6">
    <g id="ytick_10">
     <g id="line2d_24">
      <g>
       <use xlink:href="#m95abeceae2" x="55.584" y="302.832" style="stroke: #000000; stroke-width: 0.8"/>
      </g>
     </g>
     <g id="text_24">
      <!-- 0 -->
      <g transform="translate(42.2215 306.631219) scale(0.1 -0.1)">
       <use xlink:href="#DejaVuSans-30"/>
      </g>
     </g>
    </g>
    <g id="ytick_11">
     <g id="line2d_25">
      <g>
       <use xlink:href="#m95abeceae2" x="55.584" y="280.461895" style="stroke: #000000; stroke-width: 0.8"/>
      </g>
     </g>
     <g id="text_25">
      <!-- 10 -->
      <g transform="translate(35.859 284.261114) scale(0.1 -0.1)">
       <use xlink:href="#DejaVuSans-31"/>
       <use xlink:href="#DejaVuSans-30" x="63.623047"/>
      </g>
     </g>
    </g>
    <g id="ytick_12">
     <g id="line2d_26">
      <g>
       <use xlink:href="#m95abeceae2" x="55.584" y="258.09179" style="stroke: #000000; stroke-width: 0.8"/>
      </g>
     </g>
     <g id="text_26">
      <!-- 20 -->
      <g transform="translate(35.859 261.891009) scale(0.1 -0.1)">
       <use xlink:href="#DejaVuSans-32"/>
       <use xlink:href="#DejaVuSans-30" x="63.623047"/>
      </g>
     </g>
    </g>
    <g id="ytick_13">
     <g id="line2d_27">
      <g>
       <use xlink:href="#m95abeceae2" x="55.584" y="235.721685" style="stroke: #000000; stroke-width: 0.8"/>
      </g>
     </g>
     <g id="text_27">
      <!-- 30 -->
      <g transform="translate(35.859 239.520903) scale(0.1 -0.1)">
       <use xlink:href="#DejaVuSans-33"/>
       <use xlink:href="#DejaVuSans-30" x="63.623047"/>
      </g>
     </g>
    </g>
    <g id="ytick_14">
     <g id="line2d_28">
      <g>
       <use xlink:href="#m95abeceae2" x="55.584" y="213.35158" style="stroke: #000000; stroke-width: 0.8"/>
      </g>
     </g>
     <g id="text_28">
      <!-- 40 -->
      <g transform="translate(35.859 217.150798) scale(0.1 -0.1)">
       <use xlink:href="#DejaVuSans-34"/>
       <use xlink:href="#DejaVuSans-30" x="63.623047"/>
      </g>
     </g>
    </g>
   </g>
   <g id="line2d_29">
    <path d="M 62.962512 209.304711 
L 63.219156 208.544797 
L 63.732444 217.677781 
L 64.245732 221.752834 
L 64.502376 217.220646 
L 64.75902 215.512594 
L 65.015664 206.727892 
L 65.272308 202.032 
L 65.528951 205.612286 
L 65.785595 219.743978 
L 66.042239 302.832 
L 67.582103 302.832 
L 67.838747 297.954807 
L 68.095391 279.148244 
L 68.352034 276.237023 
L 68.608678 270.714527 
L 68.865322 272.066665 
L 69.121966 211.661979 
L 69.37861 216.574251 
L 69.635254 209.828281 
L 70.148542 227.255041 
L 70.405186 221.751529 
L 70.66183 220.706103 
L 70.918474 222.528969 
L 71.175117 213.196801 
L 71.431761 217.916349 
L 71.945049 229.399604 
L 72.201693 302.832 
L 75.024776 302.832 
L 75.28142 241.485626 
L 75.538064 243.479176 
L 75.794708 243.619786 
L 76.051352 245.981011 
L 76.307996 239.594972 
L 76.56464 244.211292 
L 77.077927 242.006185 
L 77.334571 237.416184 
L 77.591215 237.527205 
L 77.847859 235.001009 
L 78.104503 242.22286 
L 78.361147 280.353507 
L 78.617791 286.337815 
L 78.874435 289.304191 
L 79.131079 272.910922 
L 79.644367 298.289643 
L 79.90101 302.090901 
L 80.157654 301.490344 
L 80.414298 302.832 
L 80.927586 302.832 
L 81.18423 302.362941 
L 81.440874 241.426064 
L 81.697518 240.139919 
L 81.954162 237.420828 
L 82.210806 237.540625 
L 82.46745 241.075681 
L 83.237381 262.239883 
L 83.494025 259.783422 
L 83.750669 251.202193 
L 84.007313 247.727635 
L 84.263957 253.54654 
L 84.520601 295.292527 
L 84.777245 302.701137 
L 85.033889 298.520252 
L 85.290533 301.844682 
L 85.547176 302.832 
L 87.343684 302.832 
L 87.600328 269.591234 
L 87.856972 267.164442 
L 88.113616 262.267315 
L 88.370259 260.344752 
L 88.883547 261.68503 
L 89.140191 253.264236 
L 89.396835 259.367707 
L 89.653479 270.398842 
L 89.910123 270.409875 
L 90.166767 274.837988 
L 90.423411 272.196823 
L 90.680055 302.832 
L 93.503138 302.815381 
L 93.759782 256.626984 
L 94.016425 256.378493 
L 94.273069 255.931585 
L 94.529713 248.607053 
L 94.786357 257.290153 
L 95.043001 258.589346 
L 95.299645 254.296464 
L 95.556289 254.789501 
L 95.812933 253.277052 
L 96.326221 241.404754 
L 96.582865 246.861205 
L 96.839508 302.832 
L 99.662591 302.832 
L 99.919235 267.17184 
L 100.175879 277.988104 
L 100.432523 280.810808 
L 100.689167 275.156634 
L 100.945811 274.416555 
L 101.459099 261.258884 
L 101.715743 258.812767 
L 101.972387 250.064951 
L 102.229031 248.463008 
L 102.742318 247.362951 
L 102.998962 302.832 
L 105.052114 302.832 
L 105.308757 301.763049 
L 105.565401 302.832 
L 105.822045 302.832 
L 106.078689 259.176872 
L 106.335333 255.622023 
L 106.591977 256.369936 
L 106.848621 255.050243 
L 107.361909 261.824211 
L 107.618553 262.611377 
L 107.875197 258.237187 
L 108.13184 256.434192 
L 108.388484 255.534381 
L 108.645128 257.083513 
L 108.901772 255.647764 
L 109.158416 302.832 
L 109.671704 302.832 
L 110.184992 300.482566 
L 110.441636 300.402034 
L 110.69828 302.105466 
L 110.954923 302.832 
L 111.724855 302.832 
L 111.981499 298.865487 
L 112.238143 269.445233 
L 112.751431 269.74142 
L 113.008075 264.664641 
L 113.264719 265.953855 
L 113.778006 260.927653 
L 114.03465 259.990258 
L 114.291294 256.795518 
L 114.547938 255.738482 
L 115.061226 265.931827 
L 115.31787 286.130712 
L 115.574514 286.998243 
L 115.831158 294.543851 
L 116.087802 292.795214 
L 116.344446 294.921083 
L 116.601089 293.707147 
L 116.857733 294.059559 
L 117.114377 292.982087 
L 117.371021 292.86045 
L 117.884309 284.132109 
L 118.140953 259.340013 
L 118.397597 253.379274 
L 118.654241 251.758334 
L 119.167529 243.470631 
L 119.680816 257.433149 
L 119.93746 259.633428 
L 120.194104 256.255327 
L 120.450748 268.758015 
L 120.707392 271.562137 
L 120.964036 270.932557 
L 121.22068 269.953934 
L 121.477324 301.79498 
L 121.733968 302.832 
L 122.503899 302.832 
L 122.760543 301.052463 
L 123.017187 302.832 
L 123.273831 293.345252 
L 123.530475 295.776845 
L 123.787119 295.002336 
L 124.300407 289.720917 
L 124.557051 258.132738 
L 125.070338 273.183486 
L 125.326982 274.660195 
L 125.583626 274.244954 
L 125.84027 273.455301 
L 126.353558 270.327656 
L 126.610202 270.052072 
L 126.866846 268.425141 
L 127.12349 265.847035 
L 127.380134 266.18465 
L 127.636778 300.848993 
L 127.893421 300.857055 
L 128.150065 294.669381 
L 128.406709 296.278029 
L 128.663353 285.598335 
L 128.919997 283.895236 
L 129.176641 286.958328 
L 129.433285 283.890163 
L 129.689929 283.720327 
L 129.946573 284.525541 
L 130.203217 290.521337 
L 130.459861 293.798627 
L 130.716504 243.663137 
L 130.973148 243.273492 
L 131.229792 244.138652 
L 131.486436 242.362036 
L 131.74308 236.815449 
L 131.999724 240.485906 
L 132.256368 242.436432 
L 132.769656 254.11264 
L 133.0263 257.270753 
L 133.539587 271.329852 
L 133.796231 297.507045 
L 134.309519 287.609638 
L 134.566163 289.559414 
L 134.822807 287.938047 
L 135.336095 277.799103 
L 135.849383 291.741604 
L 136.106027 291.464571 
L 136.36267 294.992059 
L 136.619314 290.403201 
L 136.875958 260.361071 
L 137.132602 254.693075 
L 137.389246 251.511827 
L 137.64589 253.960018 
L 137.902534 247.503518 
L 138.672466 252.462621 
L 138.92911 248.910074 
L 139.185754 254.365684 
L 139.699041 243.818162 
L 139.955685 302.742848 
L 140.468973 302.832 
L 140.725617 300.923879 
L 141.238905 301.372832 
L 141.752193 294.771794 
L 142.008837 295.823932 
L 142.26548 295.160566 
L 142.522124 287.542398 
L 142.778768 283.790171 
L 143.035412 249.788613 
L 143.292056 249.539652 
L 143.5487 251.342083 
L 144.061988 252.366405 
L 144.318632 257.15765 
L 144.575276 257.07516 
L 144.83192 257.262121 
L 145.088563 255.62279 
L 145.601851 250.003717 
L 145.858495 250.33158 
L 146.115139 277.648035 
L 146.371783 278.711202 
L 146.628427 281.147366 
L 146.885071 281.785008 
L 147.141715 281.333345 
L 147.398359 279.957619 
L 147.655003 285.519713 
L 147.911646 286.513706 
L 148.424934 284.209912 
L 148.938222 280.368484 
L 149.194866 254.725109 
L 149.45151 253.731201 
L 149.708154 250.282129 
L 149.964798 250.918972 
L 150.221442 252.897841 
L 150.734729 247.709198 
L 150.991373 248.682848 
L 151.248017 245.370728 
L 151.761305 250.307577 
L 152.017949 248.466432 
L 152.274593 275.176302 
L 152.531237 287.627749 
L 152.787881 287.783266 
L 153.044525 289.546325 
L 153.814456 301.28834 
L 154.0711 302.832 
L 154.584388 301.746133 
L 154.841032 299.981225 
L 155.097676 301.045573 
L 155.35432 253.332971 
L 155.610964 253.026178 
L 155.867608 251.69532 
L 156.124252 248.870217 
L 156.380895 239.204341 
L 156.637539 239.696591 
L 156.894183 237.612312 
L 157.150827 237.00791 
L 157.407471 240.168989 
L 157.664115 235.425905 
L 157.920759 236.062384 
L 158.177403 240.161341 
L 158.434047 285.506058 
L 158.690691 287.140373 
L 158.947335 289.545079 
L 159.203978 290.064231 
L 159.717266 299.581921 
L 159.97391 302.832 
L 161.25713 302.832 
L 161.513774 235.1993 
L 161.770418 226.69647 
L 162.027061 237.558877 
L 162.283705 234.448338 
L 162.540349 239.262734 
L 162.796993 240.770998 
L 163.053637 248.306732 
L 163.310281 248.125349 
L 164.080213 239.643341 
L 164.336857 238.282661 
L 164.593501 285.312675 
L 164.850144 281.611707 
L 165.106788 282.580453 
L 165.363432 281.682441 
L 165.620076 284.110821 
L 166.133364 297.400373 
L 166.646652 302.832 
L 166.903296 302.832 
L 167.15994 301.844879 
L 167.416584 302.338911 
L 167.673227 277.887997 
L 167.929871 277.896306 
L 168.443159 274.387861 
L 168.699803 267.124523 
L 168.956447 265.876817 
L 169.469735 248.878291 
L 169.726379 243.567265 
L 169.983023 252.934096 
L 170.49631 258.85646 
L 170.752954 299.029773 
L 171.009598 292.04839 
L 171.266242 289.421203 
L 171.522886 288.411942 
L 172.036174 273.533345 
L 172.549462 297.644706 
L 172.806106 301.692433 
L 173.06275 302.832 
L 173.576037 302.763037 
L 173.832681 257.158545 
L 174.089325 243.188944 
L 174.345969 239.584595 
L 174.859257 224.473016 
L 175.372545 218.026209 
L 175.629189 225.389837 
L 175.885833 216.92556 
L 176.39912 231.45125 
L 176.655764 245.707438 
L 176.912408 294.822451 
L 177.169052 297.674662 
L 177.425696 302.832 
L 177.938984 302.832 
L 178.195628 302.186376 
L 178.708916 300.528888 
L 178.965559 302.832 
L 179.478847 302.832 
L 179.735491 296.738301 
L 179.992135 224.440286 
L 180.505423 237.165279 
L 180.762067 236.03632 
L 181.018711 237.305862 
L 181.275355 236.384451 
L 181.531999 236.217321 
L 181.788642 238.671465 
L 182.045286 239.917578 
L 182.30193 245.031322 
L 182.815218 240.499798 
L 183.071862 302.832 
L 185.381657 302.832 
L 185.638301 297.894191 
L 185.894945 298.536562 
L 186.151589 234.791133 
L 186.408233 237.090371 
L 186.664877 234.483846 
L 186.921521 239.711467 
L 188.20474 253.53682 
L 188.718028 250.919467 
L 188.974672 251.686079 
L 189.231316 299.902147 
L 189.48796 302.832 
L 191.027823 302.832 
L 191.541111 295.838904 
L 191.797755 302.832 
L 192.054399 302.409435 
L 192.311043 256.662586 
L 192.567687 258.068234 
L 192.824331 264.324432 
L 193.080974 263.804967 
L 193.337618 264.554256 
L 193.850906 255.946797 
L 194.10755 256.225255 
L 194.364194 239.212663 
L 194.620838 246.866742 
L 195.134126 255.067607 
L 195.39077 286.536924 
L 195.647414 296.220381 
L 196.160701 299.142065 
L 196.417345 299.316039 
L 197.187277 296.529655 
L 197.443921 291.746957 
L 197.700565 292.371732 
L 198.213853 300.269066 
L 198.470497 247.324544 
L 198.72714 259.40651 
L 198.983784 256.166491 
L 199.240428 269.707129 
L 199.497072 266.35813 
L 199.753716 267.558212 
L 200.01036 265.946392 
L 200.267004 269.72447 
L 200.523648 262.700725 
L 200.780292 259.549466 
L 201.036936 250.914427 
L 201.29358 250.356487 
L 201.806867 277.879134 
L 202.063511 281.897642 
L 202.320155 291.548378 
L 202.576799 293.480081 
L 202.833443 293.979073 
L 203.090087 301.132308 
L 203.346731 296.330335 
L 203.603375 301.672676 
L 203.860019 299.340959 
L 204.116663 302.832 
L 204.373307 302.832 
L 204.62995 251.979223 
L 204.886594 243.58921 
L 205.143238 249.380124 
L 205.399882 250.671771 
L 205.656526 248.607861 
L 205.91317 249.320375 
L 206.683102 256.931423 
L 207.19639 249.89107 
L 207.453033 252.61228 
L 207.709677 289.962691 
L 207.966321 293.950896 
L 208.222965 292.47508 
L 208.479609 292.55999 
L 208.736253 288.197826 
L 208.992897 287.710406 
L 209.249541 285.469868 
L 209.506185 286.276263 
L 209.762829 291.605782 
L 210.019473 293.725636 
L 210.276116 297.078877 
L 210.53276 294.675345 
L 210.53276 294.675345 
" clip-path="url(#p17f6fe39b9)" style="fill: none; stroke: #ffa500; stroke-width: 1.5; stroke-linecap: square"/>
   </g>
   <g id="patch_13">
    <path d="M 55.584 307.872 
L 55.584 196.992 
" style="fill: none; stroke: #000000; stroke-width: 0.8; stroke-linejoin: miter; stroke-linecap: square"/>
   </g>
   <g id="patch_14">
    <path d="M 217.911273 307.872 
L 217.911273 196.992 
" style="fill: none; stroke: #000000; stroke-width: 0.8; stroke-linejoin: miter; stroke-linecap: square"/>
   </g>
   <g id="patch_15">
    <path d="M 55.584 307.872 
L 217.911273 307.872 
" style="fill: none; stroke: #000000; stroke-width: 0.8; stroke-linejoin: miter; stroke-linecap: square"/>
   </g>
   <g id="patch_16">
    <path d="M 55.584 196.992 
L 217.911273 196.992 
" style="fill: none; stroke: #000000; stroke-width: 0.8; stroke-linejoin: miter; stroke-linecap: square"/>
   </g>
   <g id="text_29">
    <!-- VAE -->
    <g transform="translate(125.130136 190.992) scale(0.12 -0.12)">
     <defs>
      <path id="DejaVuSans-56" d="M 1831 0 
L 50 4666 
L 709 4666 
L 2188 738 
L 3669 4666 
L 4325 4666 
L 2547 0 
L 1831 0 
z
" transform="scale(0.015625)"/>
      <path id="DejaVuSans-41" d="M 2188 4044 
L 1331 1722 
L 3047 1722 
L 2188 4044 
z
M 1831 4666 
L 2547 4666 
L 4325 0 
L 3669 0 
L 3244 1197 
L 1141 1197 
L 716 0 
L 50 0 
L 1831 4666 
z
" transform="scale(0.015625)"/>
      <path id="DejaVuSans-45" d="M 628 4666 
L 3578 4666 
L 3578 4134 
L 1259 4134 
L 1259 2753 
L 3481 2753 
L 3481 2222 
L 1259 2222 
L 1259 531 
L 3634 531 
L 3634 0 
L 628 0 
L 628 4666 
z
" transform="scale(0.015625)"/>
     </defs>
     <use xlink:href="#DejaVuSans-56"/>
     <use xlink:href="#DejaVuSans-41" x="62.033203"/>
     <use xlink:href="#DejaVuSans-45" x="130.441406"/>
    </g>
   </g>
  </g>
  <g id="axes_4">
   <g id="patch_17">
    <path d="M 250.376727 307.872 
L 412.704 307.872 
L 412.704 196.992 
L 250.376727 196.992 
z
" style="fill: #ffffff"/>
   </g>
   <g id="matplotlib.axis_7">
    <g id="xtick_13">
     <g id="line2d_30">
      <g>
       <use xlink:href="#m55ada10bc6" x="257.75524" y="307.872" style="stroke: #000000; stroke-width: 0.8"/>
      </g>
     </g>
     <g id="text_30">
      <!-- 0 -->
      <g transform="translate(254.57399 322.470437) scale(0.1 -0.1)">
       <use xlink:href="#DejaVuSans-30"/>
      </g>
     </g>
    </g>
    <g id="xtick_14">
     <g id="line2d_31">
      <g>
       <use xlink:href="#m55ada10bc6" x="309.084022" y="307.872" style="stroke: #000000; stroke-width: 0.8"/>
      </g>
     </g>
     <g id="text_31">
      <!-- 200 -->
      <g transform="translate(299.540272 322.470437) scale(0.1 -0.1)">
       <use xlink:href="#DejaVuSans-32"/>
       <use xlink:href="#DejaVuSans-30" x="63.623047"/>
       <use xlink:href="#DejaVuSans-30" x="127.246094"/>
      </g>
     </g>
    </g>
    <g id="xtick_15">
     <g id="line2d_32">
      <g>
       <use xlink:href="#m55ada10bc6" x="360.412803" y="307.872" style="stroke: #000000; stroke-width: 0.8"/>
      </g>
     </g>
     <g id="text_32">
      <!-- 400 -->
      <g transform="translate(350.869053 322.470437) scale(0.1 -0.1)">
       <use xlink:href="#DejaVuSans-34"/>
       <use xlink:href="#DejaVuSans-30" x="63.623047"/>
       <use xlink:href="#DejaVuSans-30" x="127.246094"/>
      </g>
     </g>
    </g>
    <g id="xtick_16">
     <g id="line2d_33">
      <g>
       <use xlink:href="#m55ada10bc6" x="411.741585" y="307.872" style="stroke: #000000; stroke-width: 0.8"/>
      </g>
     </g>
     <g id="text_33">
      <!-- 600 -->
      <g transform="translate(402.197835 322.470437) scale(0.1 -0.1)">
       <use xlink:href="#DejaVuSans-36"/>
       <use xlink:href="#DejaVuSans-30" x="63.623047"/>
       <use xlink:href="#DejaVuSans-30" x="127.246094"/>
      </g>
     </g>
    </g>
   </g>
   <g id="matplotlib.axis_8">
    <g id="ytick_15">
     <g id="line2d_34">
      <g>
       <use xlink:href="#m95abeceae2" x="250.376727" y="307.262315" style="stroke: #000000; stroke-width: 0.8"/>
      </g>
     </g>
     <g id="text_34">
      <!-- 0 -->
      <g transform="translate(237.014227 311.061534) scale(0.1 -0.1)">
       <use xlink:href="#DejaVuSans-30"/>
      </g>
     </g>
    </g>
    <g id="ytick_16">
     <g id="line2d_35">
      <g>
       <use xlink:href="#m95abeceae2" x="250.376727" y="283.842435" style="stroke: #000000; stroke-width: 0.8"/>
      </g>
     </g>
     <g id="text_35">
      <!-- 10 -->
      <g transform="translate(230.651727 287.641654) scale(0.1 -0.1)">
       <use xlink:href="#DejaVuSans-31"/>
       <use xlink:href="#DejaVuSans-30" x="63.623047"/>
      </g>
     </g>
    </g>
    <g id="ytick_17">
     <g id="line2d_36">
      <g>
       <use xlink:href="#m95abeceae2" x="250.376727" y="260.422555" style="stroke: #000000; stroke-width: 0.8"/>
      </g>
     </g>
     <g id="text_36">
      <!-- 20 -->
      <g transform="translate(230.651727 264.221774) scale(0.1 -0.1)">
       <use xlink:href="#DejaVuSans-32"/>
       <use xlink:href="#DejaVuSans-30" x="63.623047"/>
      </g>
     </g>
    </g>
    <g id="ytick_18">
     <g id="line2d_37">
      <g>
       <use xlink:href="#m95abeceae2" x="250.376727" y="237.002675" style="stroke: #000000; stroke-width: 0.8"/>
      </g>
     </g>
     <g id="text_37">
      <!-- 30 -->
      <g transform="translate(230.651727 240.801894) scale(0.1 -0.1)">
       <use xlink:href="#DejaVuSans-33"/>
       <use xlink:href="#DejaVuSans-30" x="63.623047"/>
      </g>
     </g>
    </g>
    <g id="ytick_19">
     <g id="line2d_38">
      <g>
       <use xlink:href="#m95abeceae2" x="250.376727" y="213.582795" style="stroke: #000000; stroke-width: 0.8"/>
      </g>
     </g>
     <g id="text_38">
      <!-- 40 -->
      <g transform="translate(230.651727 217.382014) scale(0.1 -0.1)">
       <use xlink:href="#DejaVuSans-34"/>
       <use xlink:href="#DejaVuSans-30" x="63.623047"/>
      </g>
     </g>
    </g>
   </g>
   <g id="line2d_39">
    <path d="M 257.75524 209.357968 
L 258.011884 208.561973 
L 258.525171 218.147674 
L 259.038459 222.372693 
L 259.295103 217.612176 
L 259.551747 215.857903 
L 259.808391 206.647002 
L 260.065035 202.032 
L 260.321679 205.460165 
L 260.834967 241.145062 
L 261.09161 233.223629 
L 261.348254 248.119577 
L 261.604898 241.69092 
L 261.861542 243.931671 
L 262.118186 255.06119 
L 262.37483 248.947364 
L 262.631474 257.090705 
L 262.888118 254.386175 
L 263.144762 228.74417 
L 263.401406 235.498327 
L 263.65805 232.658833 
L 263.914693 212.271371 
L 264.171337 216.802003 
L 264.427981 209.903534 
L 264.941269 228.140096 
L 265.197913 222.383857 
L 265.454557 221.283118 
L 265.711201 223.20238 
L 265.967845 213.452323 
L 266.224489 218.360528 
L 266.99442 241.971299 
L 267.251064 239.409489 
L 267.507708 254.244789 
L 267.764352 260.424661 
L 268.020996 254.988792 
L 268.27764 262.883052 
L 268.534284 255.987626 
L 268.790928 263.14583 
L 269.047572 264.231876 
L 269.56086 253.316608 
L 269.817503 240.902722 
L 270.330791 245.107043 
L 270.587435 245.272541 
L 270.844079 247.755419 
L 271.100723 241.056045 
L 271.357367 245.906319 
L 271.870655 243.58053 
L 272.127299 238.77186 
L 272.383943 238.884083 
L 272.640586 236.254497 
L 273.410518 255.85228 
L 273.667162 257.423773 
L 273.923806 267.662483 
L 274.437094 256.282518 
L 274.693738 279.16356 
L 274.950382 273.755416 
L 275.207026 275.091152 
L 275.463669 246.381862 
L 275.720313 281.282958 
L 276.233601 242.951144 
L 276.490245 241.651224 
L 276.746889 238.772644 
L 277.003533 238.91451 
L 277.260177 242.608579 
L 278.030109 264.754687 
L 278.286752 262.208876 
L 278.543396 253.190686 
L 278.80004 249.569588 
L 279.056684 255.686831 
L 279.313328 264.785185 
L 279.569972 259.917306 
L 279.826616 260.253061 
L 280.08326 264.042158 
L 280.339904 271.643514 
L 280.596548 271.120609 
L 280.853192 276.733684 
L 281.366479 264.877705 
L 281.879767 290.029162 
L 282.136411 287.312482 
L 282.393055 272.469503 
L 282.649699 269.928375 
L 282.906343 264.793876 
L 283.162987 262.772208 
L 283.419631 263.614404 
L 283.676275 264.055098 
L 283.932918 255.373081 
L 284.189562 261.754711 
L 284.446206 273.333417 
L 284.70285 273.322761 
L 284.959494 277.964385 
L 285.216138 275.186253 
L 285.472782 277.529244 
L 285.729426 274.417545 
L 285.98607 286.532607 
L 286.499358 276.754715 
L 286.756001 279.732619 
L 287.012645 280.75951 
L 287.269289 269.936141 
L 287.782577 265.371483 
L 288.039221 269.170138 
L 288.295865 292.62349 
L 288.552509 258.878747 
L 288.809153 258.630274 
L 289.065797 258.152899 
L 289.322441 250.48758 
L 289.579084 259.581365 
L 289.835728 260.93176 
L 290.092372 256.457696 
L 290.349016 256.972477 
L 290.60566 255.393817 
L 291.118948 242.954542 
L 291.375592 248.930324 
L 291.632236 275.935214 
L 291.88888 248.200945 
L 292.145524 257.23432 
L 292.402167 260.997398 
L 292.658811 257.294167 
L 292.915455 264.379601 
L 293.172099 261.088122 
L 293.428743 283.035684 
L 293.685387 282.652754 
L 293.942031 275.517338 
L 294.198675 275.427684 
L 294.455319 282.343036 
L 294.711963 269.92471 
L 294.968607 281.256471 
L 295.22525 284.197033 
L 295.481894 278.294268 
L 295.738538 277.516702 
L 296.251826 263.726636 
L 296.50847 261.173279 
L 296.765114 252.01268 
L 297.021758 250.334999 
L 297.278402 249.504085 
L 297.535046 249.181418 
L 297.79169 258.069686 
L 298.048333 255.686816 
L 298.304977 261.01027 
L 298.561621 271.124187 
L 298.818265 270.585008 
L 299.331553 280.979376 
L 299.588197 281.703964 
L 299.844841 290.716156 
L 300.358129 276.01556 
L 300.614773 283.71034 
L 300.871416 261.57664 
L 301.12806 257.839532 
L 301.384704 258.634794 
L 301.641348 257.252124 
L 302.154636 264.330263 
L 302.41128 265.158924 
L 302.667924 260.569559 
L 302.924568 258.69214 
L 303.181212 257.743574 
L 303.437856 259.353072 
L 303.694499 257.85145 
L 303.951143 292.706064 
L 304.207787 265.664222 
L 304.721075 275.584578 
L 305.234363 286.521808 
L 305.491007 295.124368 
L 305.747651 294.961145 
L 306.004295 294.187422 
L 306.260939 291.361135 
L 306.517582 290.343803 
L 306.774226 283.036744 
L 307.03087 272.309573 
L 307.544158 272.616141 
L 307.800802 267.336675 
L 308.057446 268.649078 
L 308.570734 263.385294 
L 308.827378 262.406011 
L 309.084022 259.070006 
L 309.340665 257.968566 
L 309.853953 268.613201 
L 310.367241 295.376504 
L 310.623885 301.075668 
L 310.880529 292.713785 
L 311.137173 288.955335 
L 311.650461 269.393824 
L 311.907105 277.574338 
L 312.163748 275.622149 
L 312.420392 268.6074 
L 312.677036 246.966272 
L 312.93368 280.323633 
L 313.190324 255.489005 
L 313.446968 253.776881 
L 313.960256 245.120378 
L 314.473544 259.723942 
L 314.730188 262.060476 
L 314.986831 259.040129 
L 315.243475 271.592409 
L 315.500119 274.513482 
L 315.756763 273.879696 
L 316.013407 272.845256 
L 316.270051 291.7048 
L 316.526695 292.937721 
L 316.783339 302.832 
L 317.039983 294.768107 
L 317.809914 263.214638 
L 318.066558 267.703032 
L 318.323202 265.036353 
L 318.579846 265.264344 
L 318.83649 266.390355 
L 319.093134 270.213693 
L 319.349778 260.475098 
L 319.863066 276.226534 
L 320.11971 277.803317 
L 320.376354 277.323572 
L 320.632997 276.50883 
L 321.146285 273.226822 
L 321.402929 272.939022 
L 321.659573 271.240701 
L 321.916217 268.548874 
L 322.172861 268.91566 
L 322.686149 271.8129 
L 322.942793 262.452504 
L 323.199437 273.489363 
L 323.969368 252.788777 
L 324.226012 252.601894 
L 324.482656 253.251437 
L 324.7393 254.227439 
L 324.995944 261.095027 
L 325.252588 255.602444 
L 325.509232 245.324388 
L 325.765876 244.90473 
L 326.02252 245.821412 
L 326.279163 243.97334 
L 326.535807 238.150408 
L 326.792451 241.984341 
L 327.049095 244.114932 
L 327.562383 256.25428 
L 327.819027 259.563975 
L 328.332315 274.285019 
L 328.588959 276.824218 
L 328.845603 271.594644 
L 329.102246 281.622338 
L 329.35889 283.283869 
L 329.615534 286.488366 
L 329.872178 274.76244 
L 330.128822 285.24208 
L 330.385466 274.245369 
L 330.64211 281.021824 
L 330.898754 275.531436 
L 331.155398 265.981125 
L 331.412042 274.311003 
L 331.668686 262.799975 
L 332.181973 253.543101 
L 332.438617 256.094381 
L 332.695261 249.332176 
L 333.465193 254.536099 
L 333.721837 250.787012 
L 333.978481 256.536619 
L 334.491769 245.481632 
L 334.748413 259.127211 
L 335.005056 254.823567 
L 335.2617 264.553918 
L 335.518344 260.728711 
L 335.774988 265.855265 
L 336.031632 257.523361 
L 336.288276 256.489491 
L 336.54492 254.253873 
L 336.801564 254.029136 
L 337.058208 265.183489 
L 337.314852 255.329052 
L 337.571496 264.531472 
L 337.828139 251.734763 
L 338.084783 251.482608 
L 338.341427 253.363157 
L 338.854715 254.422415 
L 339.111359 259.442508 
L 339.368003 259.355627 
L 339.624647 259.546066 
L 339.881291 257.827913 
L 340.394579 251.950147 
L 340.651222 252.300794 
L 340.907866 255.29543 
L 341.16451 265.634425 
L 341.421154 264.781133 
L 341.677798 272.570215 
L 341.934442 273.451292 
L 342.191086 267.05674 
L 342.44773 266.159128 
L 342.704374 269.754956 
L 342.961018 288.245516 
L 343.217662 273.97485 
L 343.474305 273.996209 
L 343.987593 256.907711 
L 344.244237 255.874365 
L 344.500881 252.242576 
L 344.757525 252.916563 
L 345.014169 254.985136 
L 345.527457 249.398907 
L 345.784101 250.551954 
L 346.040745 247.094297 
L 346.554032 252.286643 
L 346.810676 250.358686 
L 347.06732 256.402076 
L 347.323964 253.600108 
L 347.580608 263.646177 
L 347.837252 261.826366 
L 348.35054 279.21403 
L 348.607184 266.892676 
L 348.863828 268.035986 
L 349.120471 263.809119 
L 349.377115 265.200724 
L 349.633759 267.742902 
L 349.890403 271.419524 
L 350.147047 255.436172 
L 350.403691 255.131252 
L 350.660335 253.725048 
L 350.916979 250.779637 
L 351.173623 240.755064 
L 351.430267 241.160294 
L 351.686911 238.988819 
L 351.943554 238.374513 
L 352.200198 241.652781 
L 352.456842 236.695413 
L 352.713486 237.220588 
L 352.97013 241.434819 
L 353.483418 255.606662 
L 353.740062 276.152993 
L 353.996706 267.103938 
L 354.509994 277.042792 
L 354.766637 266.779774 
L 355.023281 267.090652 
L 355.279925 273.335174 
L 355.793213 253.950464 
L 356.563145 227.535364 
L 356.819789 241.226877 
L 357.076433 235.691237 
L 357.333077 240.693683 
L 357.58972 242.3095 
L 357.846364 250.172765 
L 358.103008 249.995987 
L 358.87294 241.134527 
L 359.129584 239.647222 
L 359.386228 240.620079 
L 359.642872 245.189525 
L 360.15616 258.381367 
L 360.412803 255.435395 
L 360.669447 267.025661 
L 361.182735 269.802304 
L 361.439379 275.401138 
L 361.696023 278.162346 
L 361.952667 277.814943 
L 362.209311 284.216687 
L 362.465955 281.129905 
L 362.722599 281.167213 
L 363.235886 277.487762 
L 363.49253 269.94138 
L 363.749174 268.598454 
L 364.262462 250.779914 
L 364.519106 245.218786 
L 364.77575 255.038596 
L 365.802326 271.69048 
L 366.058969 268.778384 
L 366.315613 270.330361 
L 366.572257 267.148585 
L 366.828901 270.208508 
L 367.085545 270.007748 
L 367.342189 263.382046 
L 368.112121 283.876862 
L 368.625409 259.433477 
L 368.882052 244.812238 
L 369.138696 241.047953 
L 369.651984 225.236722 
L 370.165272 218.484852 
L 370.421916 226.903578 
L 370.67856 217.325392 
L 371.191848 232.544565 
L 371.705135 267.056178 
L 371.961779 269.125289 
L 372.218423 265.93856 
L 372.475067 274.451796 
L 372.731711 268.740685 
L 372.988355 272.378425 
L 373.244999 258.85848 
L 373.501643 264.113036 
L 374.014931 252.920826 
L 374.271575 261.007635 
L 374.528218 248.942783 
L 374.784862 225.221613 
L 375.29815 238.52804 
L 375.554794 237.428697 
L 375.811438 238.6854 
L 376.068082 237.698215 
L 376.324726 237.536833 
L 376.58137 240.093251 
L 376.838014 241.522262 
L 377.094658 246.839694 
L 377.607945 242.023324 
L 377.864589 260.321955 
L 378.121233 256.837473 
L 378.377877 264.010537 
L 378.634521 258.074394 
L 378.891165 267.263687 
L 379.404453 248.688879 
L 379.661097 259.743648 
L 379.917741 237.165488 
L 380.174384 267.476255 
L 380.431028 243.568267 
L 380.687672 258.217623 
L 380.944316 236.024438 
L 381.20096 238.430866 
L 381.457604 235.605539 
L 381.714248 241.154483 
L 382.997467 255.646429 
L 383.510755 252.931093 
L 383.767399 253.714073 
L 384.024043 252.087387 
L 384.280687 265.926906 
L 384.537331 271.79582 
L 384.793975 273.665708 
L 385.050619 264.824909 
L 385.307263 275.649264 
L 385.563907 262.992908 
L 385.82055 255.892916 
L 386.077194 252.906336 
L 386.333838 256.338676 
L 386.590482 253.370998 
L 386.847126 266.022312 
L 387.10377 258.915008 
L 387.360414 260.39324 
L 387.617058 267.253328 
L 387.873702 266.428998 
L 388.130346 267.191294 
L 388.643633 258.179558 
L 388.900277 258.484635 
L 389.156921 240.650019 
L 389.413565 248.650489 
L 390.440141 264.945199 
L 390.696785 271.570491 
L 390.953429 271.435644 
L 391.210073 264.907809 
L 391.466716 264.618437 
L 391.72336 274.625406 
L 391.980004 267.978886 
L 392.236648 271.844257 
L 392.493292 267.940939 
L 392.749936 255.974715 
L 393.00658 260.422567 
L 393.263224 249.125657 
L 393.519868 261.79111 
L 393.776512 258.415033 
L 394.033156 272.680975 
L 394.289799 269.0757 
L 394.546443 270.337809 
L 394.803087 268.653498 
L 395.059731 272.618207 
L 395.316375 265.241406 
L 395.573019 261.944548 
L 395.829663 252.896982 
L 396.086307 252.323743 
L 396.342951 289.496854 
L 396.599595 270.615791 
L 396.856239 274.807357 
L 397.112883 285.593659 
L 397.369526 279.213018 
L 397.62617 281.834031 
L 397.882814 265.291902 
L 398.139458 271.007029 
L 398.396102 268.050586 
L 398.652746 273.105856 
L 398.90939 274.474589 
L 399.422678 254.020562 
L 399.679322 250.760239 
L 399.935966 251.293772 
L 400.192609 252.651286 
L 400.449253 250.534501 
L 400.705897 251.244255 
L 401.475829 259.194295 
L 401.989117 251.834902 
L 402.245761 254.693673 
L 402.502405 272.577283 
L 402.759049 257.002351 
L 403.015692 267.009923 
L 403.272336 268.83462 
L 403.52898 264.470702 
L 403.785624 257.656967 
L 404.042268 263.268525 
L 404.298912 256.845293 
L 404.555556 247.020866 
L 405.068844 257.22143 
L 405.325488 259.98999 
L 405.325488 259.98999 
" clip-path="url(#pa193c093eb)" style="fill: none; stroke: #ff0000; stroke-width: 1.5; stroke-linecap: square"/>
   </g>
   <g id="patch_18">
    <path d="M 250.376727 307.872 
L 250.376727 196.992 
" style="fill: none; stroke: #000000; stroke-width: 0.8; stroke-linejoin: miter; stroke-linecap: square"/>
   </g>
   <g id="patch_19">
    <path d="M 412.704 307.872 
L 412.704 196.992 
" style="fill: none; stroke: #000000; stroke-width: 0.8; stroke-linejoin: miter; stroke-linecap: square"/>
   </g>
   <g id="patch_20">
    <path d="M 250.376727 307.872 
L 412.704 307.872 
" style="fill: none; stroke: #000000; stroke-width: 0.8; stroke-linejoin: miter; stroke-linecap: square"/>
   </g>
   <g id="patch_21">
    <path d="M 250.376727 196.992 
L 412.704 196.992 
" style="fill: none; stroke: #000000; stroke-width: 0.8; stroke-linejoin: miter; stroke-linecap: square"/>
   </g>
   <g id="text_39">
    <!-- VRNN -->
    <g transform="translate(314.289426 190.992) scale(0.12 -0.12)">
     <use xlink:href="#DejaVuSans-56"/>
     <use xlink:href="#DejaVuSans-52" x="68.408203"/>
     <use xlink:href="#DejaVuSans-4e" x="137.890625"/>
     <use xlink:href="#DejaVuSans-4e" x="212.695312"/>
    </g>
   </g>
  </g>
  <g id="text_40">
   <!-- VMAF Scores Over Frames: Video #27 -->
   <g transform="translate(114.338063 16.318125) scale(0.12 -0.12)">
    <defs>
     <path id="DejaVuSans-4d" d="M 628 4666 
L 1569 4666 
L 2759 1491 
L 3956 4666 
L 4897 4666 
L 4897 0 
L 4281 0 
L 4281 4097 
L 3078 897 
L 2444 897 
L 1241 4097 
L 1241 0 
L 628 0 
L 628 4666 
z
" transform="scale(0.015625)"/>
     <path id="DejaVuSans-73" d="M 2834 3397 
L 2834 2853 
Q 2591 2978 2328 3040 
Q 2066 3103 1784 3103 
Q 1356 3103 1142 2972 
Q 928 2841 928 2578 
Q 928 2378 1081 2264 
Q 1234 2150 1697 2047 
L 1894 2003 
Q 2506 1872 2764 1633 
Q 3022 1394 3022 966 
Q 3022 478 2636 193 
Q 2250 -91 1575 -91 
Q 1294 -91 989 -36 
Q 684 19 347 128 
L 347 722 
Q 666 556 975 473 
Q 1284 391 1588 391 
Q 1994 391 2212 530 
Q 2431 669 2431 922 
Q 2431 1156 2273 1281 
Q 2116 1406 1581 1522 
L 1381 1569 
Q 847 1681 609 1914 
Q 372 2147 372 2553 
Q 372 3047 722 3315 
Q 1072 3584 1716 3584 
Q 2034 3584 2315 3537 
Q 2597 3491 2834 3397 
z
" transform="scale(0.015625)"/>
     <path id="DejaVuSans-76" d="M 191 3500 
L 800 3500 
L 1894 563 
L 2988 3500 
L 3597 3500 
L 2284 0 
L 1503 0 
L 191 3500 
z
" transform="scale(0.015625)"/>
     <path id="DejaVuSans-61" d="M 2194 1759 
Q 1497 1759 1228 1600 
Q 959 1441 959 1056 
Q 959 750 1161 570 
Q 1363 391 1709 391 
Q 2188 391 2477 730 
Q 2766 1069 2766 1631 
L 2766 1759 
L 2194 1759 
z
M 3341 1997 
L 3341 0 
L 2766 0 
L 2766 531 
Q 2569 213 2275 61 
Q 1981 -91 1556 -91 
Q 1019 -91 701 211 
Q 384 513 384 1019 
Q 384 1609 779 1909 
Q 1175 2209 1959 2209 
L 2766 2209 
L 2766 2266 
Q 2766 2663 2505 2880 
Q 2244 3097 1772 3097 
Q 1472 3097 1187 3025 
Q 903 2953 641 2809 
L 641 3341 
Q 956 3463 1253 3523 
Q 1550 3584 1831 3584 
Q 2591 3584 2966 3190 
Q 3341 2797 3341 1997 
z
" transform="scale(0.015625)"/>
     <path id="DejaVuSans-6d" d="M 3328 2828 
Q 3544 3216 3844 3400 
Q 4144 3584 4550 3584 
Q 5097 3584 5394 3201 
Q 5691 2819 5691 2113 
L 5691 0 
L 5113 0 
L 5113 2094 
Q 5113 2597 4934 2840 
Q 4756 3084 4391 3084 
Q 3944 3084 3684 2787 
Q 3425 2491 3425 1978 
L 3425 0 
L 2847 0 
L 2847 2094 
Q 2847 2600 2669 2842 
Q 2491 3084 2119 3084 
Q 1678 3084 1418 2786 
Q 1159 2488 1159 1978 
L 1159 0 
L 581 0 
L 581 3500 
L 1159 3500 
L 1159 2956 
Q 1356 3278 1631 3431 
Q 1906 3584 2284 3584 
Q 2666 3584 2933 3390 
Q 3200 3197 3328 2828 
z
" transform="scale(0.015625)"/>
     <path id="DejaVuSans-3a" d="M 750 794 
L 1409 794 
L 1409 0 
L 750 0 
L 750 794 
z
M 750 3309 
L 1409 3309 
L 1409 2516 
L 750 2516 
L 750 3309 
z
" transform="scale(0.015625)"/>
     <path id="DejaVuSans-23" d="M 3272 2816 
L 2363 2816 
L 2100 1772 
L 3016 1772 
L 3272 2816 
z
M 2803 4594 
L 2478 3297 
L 3391 3297 
L 3719 4594 
L 4219 4594 
L 3897 3297 
L 4872 3297 
L 4872 2816 
L 3775 2816 
L 3519 1772 
L 4513 1772 
L 4513 1294 
L 3397 1294 
L 3072 0 
L 2572 0 
L 2894 1294 
L 1978 1294 
L 1656 0 
L 1153 0 
L 1478 1294 
L 494 1294 
L 494 1772 
L 1594 1772 
L 1856 2816 
L 850 2816 
L 850 3297 
L 1978 3297 
L 2297 4594 
L 2803 4594 
z
" transform="scale(0.015625)"/>
     <path id="DejaVuSans-37" d="M 525 4666 
L 3525 4666 
L 3525 4397 
L 1831 0 
L 1172 0 
L 2766 4134 
L 525 4134 
L 525 4666 
z
" transform="scale(0.015625)"/>
    </defs>
    <use xlink:href="#DejaVuSans-56"/>
    <use xlink:href="#DejaVuSans-4d" x="68.408203"/>
    <use xlink:href="#DejaVuSans-41" x="154.6875"/>
    <use xlink:href="#DejaVuSans-46" x="223.095703"/>
    <use xlink:href="#DejaVuSans-20" x="280.615234"/>
    <use xlink:href="#DejaVuSans-53" x="312.402344"/>
    <use xlink:href="#DejaVuSans-63" x="375.878906"/>
    <use xlink:href="#DejaVuSans-6f" x="430.859375"/>
    <use xlink:href="#DejaVuSans-72" x="492.041016"/>
    <use xlink:href="#DejaVuSans-65" x="530.904297"/>
    <use xlink:href="#DejaVuSans-73" x="592.427734"/>
    <use xlink:href="#DejaVuSans-20" x="644.527344"/>
    <use xlink:href="#DejaVuSans-4f" x="676.314453"/>
    <use xlink:href="#DejaVuSans-76" x="755.025391"/>
    <use xlink:href="#DejaVuSans-65" x="814.205078"/>
    <use xlink:href="#DejaVuSans-72" x="875.728516"/>
    <use xlink:href="#DejaVuSans-20" x="916.841797"/>
    <use xlink:href="#DejaVuSans-46" x="948.628906"/>
    <use xlink:href="#DejaVuSans-72" x="998.898438"/>
    <use xlink:href="#DejaVuSans-61" x="1040.011719"/>
    <use xlink:href="#DejaVuSans-6d" x="1101.291016"/>
    <use xlink:href="#DejaVuSans-65" x="1198.703125"/>
    <use xlink:href="#DejaVuSans-73" x="1260.226562"/>
    <use xlink:href="#DejaVuSans-3a" x="1312.326172"/>
    <use xlink:href="#DejaVuSans-20" x="1346.017578"/>
    <use xlink:href="#DejaVuSans-56" x="1377.804688"/>
    <use xlink:href="#DejaVuSans-69" x="1443.962891"/>
    <use xlink:href="#DejaVuSans-64" x="1471.746094"/>
    <use xlink:href="#DejaVuSans-65" x="1535.222656"/>
    <use xlink:href="#DejaVuSans-6f" x="1596.746094"/>
    <use xlink:href="#DejaVuSans-20" x="1657.927734"/>
    <use xlink:href="#DejaVuSans-23" x="1689.714844"/>
    <use xlink:href="#DejaVuSans-32" x="1773.503906"/>
    <use xlink:href="#DejaVuSans-37" x="1837.126953"/>
   </g>
  </g>
  <g id="text_41">
   <!-- Video Frames -->
   <g transform="translate(187.847438 339.936375) scale(0.12 -0.12)">
    <use xlink:href="#DejaVuSans-56"/>
    <use xlink:href="#DejaVuSans-69" x="66.158203"/>
    <use xlink:href="#DejaVuSans-64" x="93.941406"/>
    <use xlink:href="#DejaVuSans-65" x="157.417969"/>
    <use xlink:href="#DejaVuSans-6f" x="218.941406"/>
    <use xlink:href="#DejaVuSans-20" x="280.123047"/>
    <use xlink:href="#DejaVuSans-46" x="311.910156"/>
    <use xlink:href="#DejaVuSans-72" x="362.179688"/>
    <use xlink:href="#DejaVuSans-61" x="403.292969"/>
    <use xlink:href="#DejaVuSans-6d" x="464.572266"/>
    <use xlink:href="#DejaVuSans-65" x="561.984375"/>
    <use xlink:href="#DejaVuSans-73" x="623.507812"/>
   </g>
  </g>
  <g id="text_42">
   <!-- Raw VMAF Scores -->
   <g transform="translate(16.318125 226.284562) rotate(-90) scale(0.12 -0.12)">
    <defs>
     <path id="DejaVuSans-77" d="M 269 3500 
L 844 3500 
L 1563 769 
L 2278 3500 
L 2956 3500 
L 3675 769 
L 4391 3500 
L 4966 3500 
L 4050 0 
L 3372 0 
L 2619 2869 
L 1863 0 
L 1184 0 
L 269 3500 
z
" transform="scale(0.015625)"/>
    </defs>
    <use xlink:href="#DejaVuSans-52"/>
    <use xlink:href="#DejaVuSans-61" x="67.232422"/>
    <use xlink:href="#DejaVuSans-77" x="128.511719"/>
    <use xlink:href="#DejaVuSans-20" x="210.298828"/>
    <use xlink:href="#DejaVuSans-56" x="242.085938"/>
    <use xlink:href="#DejaVuSans-4d" x="310.494141"/>
    <use xlink:href="#DejaVuSans-41" x="396.773438"/>
    <use xlink:href="#DejaVuSans-46" x="465.181641"/>
    <use xlink:href="#DejaVuSans-20" x="522.701172"/>
    <use xlink:href="#DejaVuSans-53" x="554.488281"/>
    <use xlink:href="#DejaVuSans-63" x="617.964844"/>
    <use xlink:href="#DejaVuSans-6f" x="672.945312"/>
    <use xlink:href="#DejaVuSans-72" x="734.126953"/>
    <use xlink:href="#DejaVuSans-65" x="772.990234"/>
    <use xlink:href="#DejaVuSans-73" x="834.513672"/>
   </g>
  </g>
 </g>
 <defs>
  <clipPath id="pbec8c10e46">
   <rect x="55.584" y="41.76" width="162.327273" height="110.88"/>
  </clipPath>
  <clipPath id="p460f373bc3">
   <rect x="250.376727" y="41.76" width="162.327273" height="110.88"/>
  </clipPath>
  <clipPath id="p17f6fe39b9">
   <rect x="55.584" y="196.992" width="162.327273" height="110.88"/>
  </clipPath>
  <clipPath id="pa193c093eb">
   <rect x="250.376727" y="196.992" width="162.327273" height="110.88"/>
  </clipPath>
 </defs>
</svg>
