<?xml version="1.0" encoding="utf-8" standalone="no"?>
<!DOCTYPE svg PUBLIC "-//W3C//DTD SVG 1.1//EN"
  "http://www.w3.org/Graphics/SVG/1.1/DTD/svg11.dtd">
<svg xmlns:xlink="http://www.w3.org/1999/xlink" width="419.904pt" height="349.632pt" viewBox="0 0 419.904 349.632" xmlns="http://www.w3.org/2000/svg" version="1.1">
 <metadata>
  <rdf:RDF xmlns:dc="http://purl.org/dc/elements/1.1/" xmlns:cc="http://creativecommons.org/ns#" xmlns:rdf="http://www.w3.org/1999/02/22-rdf-syntax-ns#">
   <cc:Work>
    <dc:type rdf:resource="http://purl.org/dc/dcmitype/StillImage"/>
    <dc:date>2024-07-24T16:31:44.759946</dc:date>
    <dc:format>image/svg+xml</dc:format>
    <dc:creator>
     <cc:Agent>
      <dc:title>Matplotlib v3.7.2, https://matplotlib.org/</dc:title>
     </cc:Agent>
    </dc:creator>
   </cc:Work>
  </rdf:RDF>
 </metadata>
 <defs>
  <style type="text/css">*{stroke-linejoin: round; stroke-linecap: butt}</style>
 </defs>
 <g id="figure_1">
  <g id="patch_1">
   <path d="M 0 349.632 
L 419.904 349.632 
L 419.904 -0 
L 0 -0 
z
" style="fill: #ffffff"/>
  </g>
  <g id="axes_1">
   <g id="patch_2">
    <path d="M 55.584 152.64 
L 217.911273 152.64 
L 217.911273 41.76 
L 55.584 41.76 
z
" style="fill: #ffffff"/>
   </g>
   <g id="matplotlib.axis_1">
    <g id="xtick_1">
     <g id="line2d_1">
      <defs>
       <path id="m3b70cf8927" d="M 0 0 
L 0 3.5 
" style="stroke: #000000; stroke-width: 0.8"/>
      </defs>
      <g>
       <use xlink:href="#m3b70cf8927" x="62.962512" y="152.64" style="stroke: #000000; stroke-width: 0.8"/>
      </g>
     </g>
     <g id="text_1">
      <!-- 0 -->
      <g transform="translate(59.781262 167.238437) scale(0.1 -0.1)">
       <defs>
        <path id="DejaVuSans-30" d="M 2034 4250 
Q 1547 4250 1301 3770 
Q 1056 3291 1056 2328 
Q 1056 1369 1301 889 
Q 1547 409 2034 409 
Q 2525 409 2770 889 
Q 3016 1369 3016 2328 
Q 3016 3291 2770 3770 
Q 2525 4250 2034 4250 
z
M 2034 4750 
Q 2819 4750 3233 4129 
Q 3647 3509 3647 2328 
Q 3647 1150 3233 529 
Q 2819 -91 2034 -91 
Q 1250 -91 836 529 
Q 422 1150 422 2328 
Q 422 3509 836 4129 
Q 1250 4750 2034 4750 
z
" transform="scale(0.015625)"/>
       </defs>
       <use xlink:href="#DejaVuSans-30"/>
      </g>
     </g>
    </g>
    <g id="xtick_2">
     <g id="line2d_2">
      <g>
       <use xlink:href="#m3b70cf8927" x="107.013333" y="152.64" style="stroke: #000000; stroke-width: 0.8"/>
      </g>
     </g>
     <g id="text_2">
      <!-- 100 -->
      <g transform="translate(97.469583 167.238437) scale(0.1 -0.1)">
       <defs>
        <path id="DejaVuSans-31" d="M 794 531 
L 1825 531 
L 1825 4091 
L 703 3866 
L 703 4441 
L 1819 4666 
L 2450 4666 
L 2450 531 
L 3481 531 
L 3481 0 
L 794 0 
L 794 531 
z
" transform="scale(0.015625)"/>
       </defs>
       <use xlink:href="#DejaVuSans-31"/>
       <use xlink:href="#DejaVuSans-30" x="63.623047"/>
       <use xlink:href="#DejaVuSans-30" x="127.246094"/>
      </g>
     </g>
    </g>
    <g id="xtick_3">
     <g id="line2d_3">
      <g>
       <use xlink:href="#m3b70cf8927" x="151.064153" y="152.64" style="stroke: #000000; stroke-width: 0.8"/>
      </g>
     </g>
     <g id="text_3">
      <!-- 200 -->
      <g transform="translate(141.520403 167.238437) scale(0.1 -0.1)">
       <defs>
        <path id="DejaVuSans-32" d="M 1228 531 
L 3431 531 
L 3431 0 
L 469 0 
L 469 531 
Q 828 903 1448 1529 
Q 2069 2156 2228 2338 
Q 2531 2678 2651 2914 
Q 2772 3150 2772 3378 
Q 2772 3750 2511 3984 
Q 2250 4219 1831 4219 
Q 1534 4219 1204 4116 
Q 875 4013 500 3803 
L 500 4441 
Q 881 4594 1212 4672 
Q 1544 4750 1819 4750 
Q 2544 4750 2975 4387 
Q 3406 4025 3406 3419 
Q 3406 3131 3298 2873 
Q 3191 2616 2906 2266 
Q 2828 2175 2409 1742 
Q 1991 1309 1228 531 
z
" transform="scale(0.015625)"/>
       </defs>
       <use xlink:href="#DejaVuSans-32"/>
       <use xlink:href="#DejaVuSans-30" x="63.623047"/>
       <use xlink:href="#DejaVuSans-30" x="127.246094"/>
      </g>
     </g>
    </g>
    <g id="xtick_4">
     <g id="line2d_4">
      <g>
       <use xlink:href="#m3b70cf8927" x="195.114973" y="152.64" style="stroke: #000000; stroke-width: 0.8"/>
      </g>
     </g>
     <g id="text_4">
      <!-- 300 -->
      <g transform="translate(185.571223 167.238437) scale(0.1 -0.1)">
       <defs>
        <path id="DejaVuSans-33" d="M 2597 2516 
Q 3050 2419 3304 2112 
Q 3559 1806 3559 1356 
Q 3559 666 3084 287 
Q 2609 -91 1734 -91 
Q 1441 -91 1130 -33 
Q 819 25 488 141 
L 488 750 
Q 750 597 1062 519 
Q 1375 441 1716 441 
Q 2309 441 2620 675 
Q 2931 909 2931 1356 
Q 2931 1769 2642 2001 
Q 2353 2234 1838 2234 
L 1294 2234 
L 1294 2753 
L 1863 2753 
Q 2328 2753 2575 2939 
Q 2822 3125 2822 3475 
Q 2822 3834 2567 4026 
Q 2313 4219 1838 4219 
Q 1578 4219 1281 4162 
Q 984 4106 628 3988 
L 628 4550 
Q 988 4650 1302 4700 
Q 1616 4750 1894 4750 
Q 2613 4750 3031 4423 
Q 3450 4097 3450 3541 
Q 3450 3153 3228 2886 
Q 3006 2619 2597 2516 
z
" transform="scale(0.015625)"/>
       </defs>
       <use xlink:href="#DejaVuSans-33"/>
       <use xlink:href="#DejaVuSans-30" x="63.623047"/>
       <use xlink:href="#DejaVuSans-30" x="127.246094"/>
      </g>
     </g>
    </g>
   </g>
   <g id="matplotlib.axis_2">
    <g id="ytick_1">
     <g id="line2d_5">
      <defs>
       <path id="m416087edcd" d="M 0 0 
L -3.5 0 
" style="stroke: #000000; stroke-width: 0.8"/>
      </defs>
      <g>
       <use xlink:href="#m416087edcd" x="55.584" y="133.272583" style="stroke: #000000; stroke-width: 0.8"/>
      </g>
     </g>
     <g id="text_5">
      <!-- 10 -->
      <g transform="translate(35.859 137.071802) scale(0.1 -0.1)">
       <use xlink:href="#DejaVuSans-31"/>
       <use xlink:href="#DejaVuSans-30" x="63.623047"/>
      </g>
     </g>
    </g>
    <g id="ytick_2">
     <g id="line2d_6">
      <g>
       <use xlink:href="#m416087edcd" x="55.584" y="107.330132" style="stroke: #000000; stroke-width: 0.8"/>
      </g>
     </g>
     <g id="text_6">
      <!-- 20 -->
      <g transform="translate(35.859 111.12935) scale(0.1 -0.1)">
       <use xlink:href="#DejaVuSans-32"/>
       <use xlink:href="#DejaVuSans-30" x="63.623047"/>
      </g>
     </g>
    </g>
    <g id="ytick_3">
     <g id="line2d_7">
      <g>
       <use xlink:href="#m416087edcd" x="55.584" y="81.38768" style="stroke: #000000; stroke-width: 0.8"/>
      </g>
     </g>
     <g id="text_7">
      <!-- 30 -->
      <g transform="translate(35.859 85.186899) scale(0.1 -0.1)">
       <use xlink:href="#DejaVuSans-33"/>
       <use xlink:href="#DejaVuSans-30" x="63.623047"/>
      </g>
     </g>
    </g>
    <g id="ytick_4">
     <g id="line2d_8">
      <g>
       <use xlink:href="#m416087edcd" x="55.584" y="55.445229" style="stroke: #000000; stroke-width: 0.8"/>
      </g>
     </g>
     <g id="text_8">
      <!-- 40 -->
      <g transform="translate(35.859 59.244447) scale(0.1 -0.1)">
       <defs>
        <path id="DejaVuSans-34" d="M 2419 4116 
L 825 1625 
L 2419 1625 
L 2419 4116 
z
M 2253 4666 
L 3047 4666 
L 3047 1625 
L 3713 1625 
L 3713 1100 
L 3047 1100 
L 3047 0 
L 2419 0 
L 2419 1100 
L 313 1100 
L 313 1709 
L 2253 4666 
z
" transform="scale(0.015625)"/>
       </defs>
       <use xlink:href="#DejaVuSans-34"/>
       <use xlink:href="#DejaVuSans-30" x="63.623047"/>
      </g>
     </g>
    </g>
   </g>
   <g id="line2d_9">
    <path d="M 62.962512 53.294555 
L 63.403021 46.8 
L 63.843529 52.543552 
L 64.284037 62.50391 
L 64.724545 79.757218 
L 65.165053 83.938648 
L 65.605562 91.216429 
L 66.04607 87.042058 
L 66.486578 92.161404 
L 66.927086 87.198475 
L 67.367594 87.066955 
L 67.808103 82.840419 
L 68.248611 89.849026 
L 68.689119 87.048196 
L 69.129627 87.802291 
L 69.570135 87.906318 
L 70.010644 84.919008 
L 70.451152 84.13738 
L 70.89166 86.941541 
L 71.332168 94.208997 
L 71.772676 92.993451 
L 72.213185 90.633816 
L 73.094201 94.783931 
L 73.534709 102.011561 
L 73.975217 100.436789 
L 74.415726 101.584628 
L 74.856234 102.058703 
L 75.296742 101.398982 
L 75.73725 100.995714 
L 76.177758 103.838981 
L 76.618267 103.77613 
L 77.058775 101.591918 
L 77.499283 97.1145 
L 77.939791 104.008644 
L 78.380299 106.02373 
L 78.820808 97.926875 
L 79.261316 94.163048 
L 79.701824 95.336218 
L 80.142332 95.129355 
L 80.582841 94.60854 
L 81.023349 91.568852 
L 81.463857 99.940865 
L 81.904365 94.263713 
L 82.785382 117.613136 
L 83.22589 113.314518 
L 83.666398 114.133898 
L 84.106906 115.931772 
L 84.547414 115.775126 
L 84.987923 114.582814 
L 85.428431 115.154479 
L 85.868939 119.92913 
L 86.309447 112.150776 
L 86.749955 111.981307 
L 87.190464 112.287153 
L 87.630972 109.515168 
L 88.07148 114.479617 
L 88.511988 113.505066 
L 89.393005 109.778611 
L 89.833513 115.373324 
L 90.714529 129.279386 
L 91.155037 128.853634 
L 91.595546 128.685491 
L 92.036054 125.395085 
L 92.476562 123.684686 
L 92.91707 116.800572 
L 93.798087 109.208251 
L 94.238595 109.584225 
L 94.679103 107.133768 
L 95.119611 110.170952 
L 95.560119 105.506219 
L 96.000628 112.291107 
L 96.441136 110.743479 
L 96.881644 113.572493 
L 97.322152 111.380459 
L 97.76266 110.923854 
L 98.203169 106.993658 
L 98.643677 104.312228 
L 99.084185 106.591371 
L 99.524693 107.123085 
L 99.965201 105.769016 
L 100.40571 107.195384 
L 100.846218 107.420022 
L 101.286726 109.544956 
L 101.727234 109.524985 
L 102.167742 116.409476 
L 103.489267 122.563088 
L 103.929775 126.376467 
L 104.370283 116.288929 
L 104.810792 115.901928 
L 105.2513 112.510092 
L 105.691808 110.857026 
L 106.132316 105.518791 
L 107.013333 100.641716 
L 107.453841 104.103848 
L 107.894349 109.565964 
L 108.334857 111.25317 
L 108.775365 117.167359 
L 109.215874 118.078987 
L 109.656382 115.910315 
L 110.09689 116.908669 
L 110.537398 113.187802 
L 111.418415 123.565914 
L 111.858923 123.588492 
L 112.299431 116.394691 
L 112.739939 105.229989 
L 113.180448 109.380024 
L 113.620956 110.257032 
L 114.501972 115.349169 
L 114.94248 113.559545 
L 115.382989 115.333578 
L 115.823497 109.817206 
L 116.264005 114.589974 
L 117.145021 119.84269 
L 117.58553 118.597867 
L 118.026038 116.514943 
L 118.466546 123.070751 
L 118.907054 124.043455 
L 119.347562 122.370128 
L 119.788071 125.304476 
L 120.669087 128.887165 
L 121.109595 127.803769 
L 121.550103 125.679147 
L 121.990612 120.644592 
L 122.43112 119.605047 
L 122.871628 115.324085 
L 123.312136 115.326929 
L 124.193153 119.583219 
L 125.074169 115.938052 
L 125.514677 112.084421 
L 125.955185 113.022852 
L 126.395694 112.386528 
L 126.836202 119.432944 
L 127.27671 116.337239 
L 127.717218 116.642315 
L 128.157726 113.412887 
L 128.598235 113.69738 
L 129.038743 111.591748 
L 129.479251 110.637986 
L 130.360267 118.93198 
L 130.800776 116.076749 
L 131.241284 119.074324 
L 131.681792 120.792331 
L 132.1223 120.381574 
L 132.562808 129.991737 
L 133.003317 132.105235 
L 133.443825 128.604722 
L 133.884333 128.049532 
L 134.324841 134.186095 
L 134.765349 137.724482 
L 135.205858 137.206286 
L 135.646366 138.415843 
L 136.086874 137.092895 
L 136.527382 136.285179 
L 136.96789 135.078718 
L 137.408399 129.166526 
L 137.848907 127.734495 
L 138.289415 127.658144 
L 138.729923 128.256709 
L 139.170431 129.417566 
L 139.61094 140.546193 
L 140.051448 144.782276 
L 140.491956 147.6 
L 141.372972 131.478006 
L 141.813481 135.863536 
L 142.253989 137.227614 
L 142.694497 133.102398 
L 143.135005 130.935607 
L 143.575514 129.97432 
L 144.016022 138.980789 
L 144.45653 141.068202 
L 144.897038 142.009516 
L 145.337546 139.341283 
L 145.778055 142.594661 
L 146.218563 143.038715 
L 146.659071 141.204021 
L 147.099579 141.786351 
L 147.540087 142.896582 
L 147.980596 139.77345 
L 148.421104 138.921581 
L 148.861612 134.014011 
L 149.30212 132.454706 
L 150.183137 134.496636 
L 150.623645 135.773524 
L 151.504661 129.584885 
L 151.945169 133.243548 
L 152.385678 129.552711 
L 152.826186 133.376283 
L 153.266694 134.432177 
L 153.707202 139.196706 
L 154.14771 135.900917 
L 154.588219 135.132434 
L 155.028727 129.870075 
L 155.469235 128.528459 
L 155.909743 126.453241 
L 156.350251 128.073016 
L 156.79076 127.784569 
L 157.231268 125.22676 
L 157.671776 129.358044 
L 158.112284 128.340511 
L 158.552792 129.171341 
L 158.993301 127.247579 
L 159.433809 124.74395 
L 159.874317 127.014058 
L 160.314825 130.231254 
L 160.755333 126.921466 
L 161.195842 124.594576 
L 161.63635 124.595277 
L 162.076858 119.912257 
L 162.517366 119.72199 
L 162.957874 120.661968 
L 163.398383 126.518526 
L 163.838891 130.051034 
L 164.279399 127.063177 
L 164.719907 128.868429 
L 165.160415 126.366752 
L 165.600924 129.273832 
L 166.041432 126.021071 
L 166.48194 119.478567 
L 166.922448 120.943231 
L 167.362956 121.111257 
L 167.803465 125.02155 
L 168.243973 125.431124 
L 168.684481 129.1217 
L 169.124989 125.885372 
L 169.565497 129.173217 
L 170.006006 128.745431 
L 170.446514 130.114308 
L 170.887022 127.121239 
L 171.32753 127.409462 
L 171.768038 127.310455 
L 172.208547 125.372814 
L 172.649055 127.926389 
L 173.089563 121.037807 
L 173.530071 123.456369 
L 173.970579 129.039922 
L 174.411088 127.53155 
L 174.851596 131.862959 
L 175.292104 134.054027 
L 175.732612 130.48466 
L 176.173121 130.759089 
L 176.613629 133.573765 
L 177.054137 132.234452 
L 177.494645 129.154598 
L 177.935153 128.536887 
L 178.375662 128.621462 
L 178.81617 127.308639 
L 179.256678 123.402046 
L 179.697186 124.31617 
L 180.137694 127.766908 
L 180.578203 126.657071 
L 181.018711 125.183971 
L 181.459219 128.953489 
L 181.899727 131.149684 
L 182.340235 130.81397 
L 182.780744 131.408522 
L 183.221252 131.145323 
L 183.66176 130.372168 
L 184.102268 127.90033 
L 184.542776 131.043917 
L 184.983285 128.815297 
L 185.423793 131.836152 
L 185.864301 124.893384 
L 186.304809 121.971198 
L 186.745317 122.060715 
L 187.185826 124.320985 
L 187.626334 122.200978 
L 188.066842 122.45909 
L 188.50735 120.58495 
L 188.947858 117.760652 
L 189.388367 116.702587 
L 189.828875 116.436088 
L 190.269383 117.762666 
L 190.709891 120.81879 
L 191.150399 117.41636 
L 191.590908 115.957107 
L 192.031416 117.485263 
L 192.471924 117.204335 
L 192.912432 121.858569 
L 193.35294 121.570867 
L 193.793449 117.706381 
L 194.233957 122.942603 
L 194.674465 120.23185 
L 195.114973 124.030632 
L 195.555481 123.708675 
L 195.99599 124.434192 
L 196.436498 124.583572 
L 196.877006 118.628858 
L 197.317514 117.472172 
L 197.758022 121.319817 
L 198.198531 119.053082 
L 198.639039 119.269198 
L 199.079547 126.80553 
L 199.520055 130.052054 
L 199.960563 128.555288 
L 200.401072 129.877152 
L 200.84158 125.192156 
L 201.282088 122.229276 
L 201.722596 121.535951 
L 202.163104 121.681774 
L 202.603613 120.354262 
L 203.044121 122.474414 
L 203.484629 120.60057 
L 203.925137 120.380552 
L 204.365645 120.776398 
L 204.806154 123.117213 
L 205.246662 124.443594 
L 205.68717 123.060021 
L 206.127678 122.078755 
L 206.568187 128.863508 
L 207.008695 128.396126 
L 207.449203 125.752741 
L 207.889711 121.269922 
L 208.330219 123.16061 
L 208.770728 120.569914 
L 209.211236 122.222892 
L 209.651744 121.231288 
L 210.092252 121.514325 
L 210.53276 119.561839 
L 210.53276 119.561839 
" clip-path="url(#p75d2bb1965)" style="fill: none; stroke: #008000; stroke-width: 1.5; stroke-linecap: square"/>
   </g>
   <g id="patch_3">
    <path d="M 55.584 152.64 
L 55.584 41.76 
" style="fill: none; stroke: #000000; stroke-width: 0.8; stroke-linejoin: miter; stroke-linecap: square"/>
   </g>
   <g id="patch_4">
    <path d="M 217.911273 152.64 
L 217.911273 41.76 
" style="fill: none; stroke: #000000; stroke-width: 0.8; stroke-linejoin: miter; stroke-linecap: square"/>
   </g>
   <g id="patch_5">
    <path d="M 55.584 152.64 
L 217.911273 152.64 
" style="fill: none; stroke: #000000; stroke-width: 0.8; stroke-linejoin: miter; stroke-linecap: square"/>
   </g>
   <g id="patch_6">
    <path d="M 55.584 41.76 
L 217.911273 41.76 
" style="fill: none; stroke: #000000; stroke-width: 0.8; stroke-linejoin: miter; stroke-linecap: square"/>
   </g>
   <g id="text_9">
    <!-- No Prediction (FOSS) -->
    <g transform="translate(74.495761 35.76) scale(0.12 -0.12)">
     <defs>
      <path id="DejaVuSans-4e" d="M 628 4666 
L 1478 4666 
L 3547 763 
L 3547 4666 
L 4159 4666 
L 4159 0 
L 3309 0 
L 1241 3903 
L 1241 0 
L 628 0 
L 628 4666 
z
" transform="scale(0.015625)"/>
      <path id="DejaVuSans-6f" d="M 1959 3097 
Q 1497 3097 1228 2736 
Q 959 2375 959 1747 
Q 959 1119 1226 758 
Q 1494 397 1959 397 
Q 2419 397 2687 759 
Q 2956 1122 2956 1747 
Q 2956 2369 2687 2733 
Q 2419 3097 1959 3097 
z
M 1959 3584 
Q 2709 3584 3137 3096 
Q 3566 2609 3566 1747 
Q 3566 888 3137 398 
Q 2709 -91 1959 -91 
Q 1206 -91 779 398 
Q 353 888 353 1747 
Q 353 2609 779 3096 
Q 1206 3584 1959 3584 
z
" transform="scale(0.015625)"/>
      <path id="DejaVuSans-20" transform="scale(0.015625)"/>
      <path id="DejaVuSans-50" d="M 1259 4147 
L 1259 2394 
L 2053 2394 
Q 2494 2394 2734 2622 
Q 2975 2850 2975 3272 
Q 2975 3691 2734 3919 
Q 2494 4147 2053 4147 
L 1259 4147 
z
M 628 4666 
L 2053 4666 
Q 2838 4666 3239 4311 
Q 3641 3956 3641 3272 
Q 3641 2581 3239 2228 
Q 2838 1875 2053 1875 
L 1259 1875 
L 1259 0 
L 628 0 
L 628 4666 
z
" transform="scale(0.015625)"/>
      <path id="DejaVuSans-72" d="M 2631 2963 
Q 2534 3019 2420 3045 
Q 2306 3072 2169 3072 
Q 1681 3072 1420 2755 
Q 1159 2438 1159 1844 
L 1159 0 
L 581 0 
L 581 3500 
L 1159 3500 
L 1159 2956 
Q 1341 3275 1631 3429 
Q 1922 3584 2338 3584 
Q 2397 3584 2469 3576 
Q 2541 3569 2628 3553 
L 2631 2963 
z
" transform="scale(0.015625)"/>
      <path id="DejaVuSans-65" d="M 3597 1894 
L 3597 1613 
L 953 1613 
Q 991 1019 1311 708 
Q 1631 397 2203 397 
Q 2534 397 2845 478 
Q 3156 559 3463 722 
L 3463 178 
Q 3153 47 2828 -22 
Q 2503 -91 2169 -91 
Q 1331 -91 842 396 
Q 353 884 353 1716 
Q 353 2575 817 3079 
Q 1281 3584 2069 3584 
Q 2775 3584 3186 3129 
Q 3597 2675 3597 1894 
z
M 3022 2063 
Q 3016 2534 2758 2815 
Q 2500 3097 2075 3097 
Q 1594 3097 1305 2825 
Q 1016 2553 972 2059 
L 3022 2063 
z
" transform="scale(0.015625)"/>
      <path id="DejaVuSans-64" d="M 2906 2969 
L 2906 4863 
L 3481 4863 
L 3481 0 
L 2906 0 
L 2906 525 
Q 2725 213 2448 61 
Q 2172 -91 1784 -91 
Q 1150 -91 751 415 
Q 353 922 353 1747 
Q 353 2572 751 3078 
Q 1150 3584 1784 3584 
Q 2172 3584 2448 3432 
Q 2725 3281 2906 2969 
z
M 947 1747 
Q 947 1113 1208 752 
Q 1469 391 1925 391 
Q 2381 391 2643 752 
Q 2906 1113 2906 1747 
Q 2906 2381 2643 2742 
Q 2381 3103 1925 3103 
Q 1469 3103 1208 2742 
Q 947 2381 947 1747 
z
" transform="scale(0.015625)"/>
      <path id="DejaVuSans-69" d="M 603 3500 
L 1178 3500 
L 1178 0 
L 603 0 
L 603 3500 
z
M 603 4863 
L 1178 4863 
L 1178 4134 
L 603 4134 
L 603 4863 
z
" transform="scale(0.015625)"/>
      <path id="DejaVuSans-63" d="M 3122 3366 
L 3122 2828 
Q 2878 2963 2633 3030 
Q 2388 3097 2138 3097 
Q 1578 3097 1268 2742 
Q 959 2388 959 1747 
Q 959 1106 1268 751 
Q 1578 397 2138 397 
Q 2388 397 2633 464 
Q 2878 531 3122 666 
L 3122 134 
Q 2881 22 2623 -34 
Q 2366 -91 2075 -91 
Q 1284 -91 818 406 
Q 353 903 353 1747 
Q 353 2603 823 3093 
Q 1294 3584 2113 3584 
Q 2378 3584 2631 3529 
Q 2884 3475 3122 3366 
z
" transform="scale(0.015625)"/>
      <path id="DejaVuSans-74" d="M 1172 4494 
L 1172 3500 
L 2356 3500 
L 2356 3053 
L 1172 3053 
L 1172 1153 
Q 1172 725 1289 603 
Q 1406 481 1766 481 
L 2356 481 
L 2356 0 
L 1766 0 
Q 1100 0 847 248 
Q 594 497 594 1153 
L 594 3053 
L 172 3053 
L 172 3500 
L 594 3500 
L 594 4494 
L 1172 4494 
z
" transform="scale(0.015625)"/>
      <path id="DejaVuSans-6e" d="M 3513 2113 
L 3513 0 
L 2938 0 
L 2938 2094 
Q 2938 2591 2744 2837 
Q 2550 3084 2163 3084 
Q 1697 3084 1428 2787 
Q 1159 2491 1159 1978 
L 1159 0 
L 581 0 
L 581 3500 
L 1159 3500 
L 1159 2956 
Q 1366 3272 1645 3428 
Q 1925 3584 2291 3584 
Q 2894 3584 3203 3211 
Q 3513 2838 3513 2113 
z
" transform="scale(0.015625)"/>
      <path id="DejaVuSans-28" d="M 1984 4856 
Q 1566 4138 1362 3434 
Q 1159 2731 1159 2009 
Q 1159 1288 1364 580 
Q 1569 -128 1984 -844 
L 1484 -844 
Q 1016 -109 783 600 
Q 550 1309 550 2009 
Q 550 2706 781 3412 
Q 1013 4119 1484 4856 
L 1984 4856 
z
" transform="scale(0.015625)"/>
      <path id="DejaVuSans-46" d="M 628 4666 
L 3309 4666 
L 3309 4134 
L 1259 4134 
L 1259 2759 
L 3109 2759 
L 3109 2228 
L 1259 2228 
L 1259 0 
L 628 0 
L 628 4666 
z
" transform="scale(0.015625)"/>
      <path id="DejaVuSans-4f" d="M 2522 4238 
Q 1834 4238 1429 3725 
Q 1025 3213 1025 2328 
Q 1025 1447 1429 934 
Q 1834 422 2522 422 
Q 3209 422 3611 934 
Q 4013 1447 4013 2328 
Q 4013 3213 3611 3725 
Q 3209 4238 2522 4238 
z
M 2522 4750 
Q 3503 4750 4090 4092 
Q 4678 3434 4678 2328 
Q 4678 1225 4090 567 
Q 3503 -91 2522 -91 
Q 1538 -91 948 565 
Q 359 1222 359 2328 
Q 359 3434 948 4092 
Q 1538 4750 2522 4750 
z
" transform="scale(0.015625)"/>
      <path id="DejaVuSans-53" d="M 3425 4513 
L 3425 3897 
Q 3066 4069 2747 4153 
Q 2428 4238 2131 4238 
Q 1616 4238 1336 4038 
Q 1056 3838 1056 3469 
Q 1056 3159 1242 3001 
Q 1428 2844 1947 2747 
L 2328 2669 
Q 3034 2534 3370 2195 
Q 3706 1856 3706 1288 
Q 3706 609 3251 259 
Q 2797 -91 1919 -91 
Q 1588 -91 1214 -16 
Q 841 59 441 206 
L 441 856 
Q 825 641 1194 531 
Q 1563 422 1919 422 
Q 2459 422 2753 634 
Q 3047 847 3047 1241 
Q 3047 1584 2836 1778 
Q 2625 1972 2144 2069 
L 1759 2144 
Q 1053 2284 737 2584 
Q 422 2884 422 3419 
Q 422 4038 858 4394 
Q 1294 4750 2059 4750 
Q 2388 4750 2728 4690 
Q 3069 4631 3425 4513 
z
" transform="scale(0.015625)"/>
      <path id="DejaVuSans-29" d="M 513 4856 
L 1013 4856 
Q 1481 4119 1714 3412 
Q 1947 2706 1947 2009 
Q 1947 1309 1714 600 
Q 1481 -109 1013 -844 
L 513 -844 
Q 928 -128 1133 580 
Q 1338 1288 1338 2009 
Q 1338 2731 1133 3434 
Q 928 4138 513 4856 
z
" transform="scale(0.015625)"/>
     </defs>
     <use xlink:href="#DejaVuSans-4e"/>
     <use xlink:href="#DejaVuSans-6f" x="74.804688"/>
     <use xlink:href="#DejaVuSans-20" x="135.986328"/>
     <use xlink:href="#DejaVuSans-50" x="167.773438"/>
     <use xlink:href="#DejaVuSans-72" x="226.326172"/>
     <use xlink:href="#DejaVuSans-65" x="265.189453"/>
     <use xlink:href="#DejaVuSans-64" x="326.712891"/>
     <use xlink:href="#DejaVuSans-69" x="390.189453"/>
     <use xlink:href="#DejaVuSans-63" x="417.972656"/>
     <use xlink:href="#DejaVuSans-74" x="472.953125"/>
     <use xlink:href="#DejaVuSans-69" x="512.162109"/>
     <use xlink:href="#DejaVuSans-6f" x="539.945312"/>
     <use xlink:href="#DejaVuSans-6e" x="601.126953"/>
     <use xlink:href="#DejaVuSans-20" x="664.505859"/>
     <use xlink:href="#DejaVuSans-28" x="696.292969"/>
     <use xlink:href="#DejaVuSans-46" x="735.306641"/>
     <use xlink:href="#DejaVuSans-4f" x="792.826172"/>
     <use xlink:href="#DejaVuSans-53" x="871.537109"/>
     <use xlink:href="#DejaVuSans-53" x="935.013672"/>
     <use xlink:href="#DejaVuSans-29" x="998.490234"/>
    </g>
   </g>
  </g>
  <g id="axes_2">
   <g id="patch_7">
    <path d="M 250.376727 152.64 
L 412.704 152.64 
L 412.704 41.76 
L 250.376727 41.76 
z
" style="fill: #ffffff"/>
   </g>
   <g id="matplotlib.axis_3">
    <g id="xtick_5">
     <g id="line2d_10">
      <g>
       <use xlink:href="#m3b70cf8927" x="257.75524" y="152.64" style="stroke: #000000; stroke-width: 0.8"/>
      </g>
     </g>
     <g id="text_10">
      <!-- 0 -->
      <g transform="translate(254.57399 167.238437) scale(0.1 -0.1)">
       <use xlink:href="#DejaVuSans-30"/>
      </g>
     </g>
    </g>
    <g id="xtick_6">
     <g id="line2d_11">
      <g>
       <use xlink:href="#m3b70cf8927" x="301.80606" y="152.64" style="stroke: #000000; stroke-width: 0.8"/>
      </g>
     </g>
     <g id="text_11">
      <!-- 100 -->
      <g transform="translate(292.26231 167.238437) scale(0.1 -0.1)">
       <use xlink:href="#DejaVuSans-31"/>
       <use xlink:href="#DejaVuSans-30" x="63.623047"/>
       <use xlink:href="#DejaVuSans-30" x="127.246094"/>
      </g>
     </g>
    </g>
    <g id="xtick_7">
     <g id="line2d_12">
      <g>
       <use xlink:href="#m3b70cf8927" x="345.85688" y="152.64" style="stroke: #000000; stroke-width: 0.8"/>
      </g>
     </g>
     <g id="text_12">
      <!-- 200 -->
      <g transform="translate(336.31313 167.238437) scale(0.1 -0.1)">
       <use xlink:href="#DejaVuSans-32"/>
       <use xlink:href="#DejaVuSans-30" x="63.623047"/>
       <use xlink:href="#DejaVuSans-30" x="127.246094"/>
      </g>
     </g>
    </g>
    <g id="xtick_8">
     <g id="line2d_13">
      <g>
       <use xlink:href="#m3b70cf8927" x="389.907701" y="152.64" style="stroke: #000000; stroke-width: 0.8"/>
      </g>
     </g>
     <g id="text_13">
      <!-- 300 -->
      <g transform="translate(380.363951 167.238437) scale(0.1 -0.1)">
       <use xlink:href="#DejaVuSans-33"/>
       <use xlink:href="#DejaVuSans-30" x="63.623047"/>
       <use xlink:href="#DejaVuSans-30" x="127.246094"/>
      </g>
     </g>
    </g>
   </g>
   <g id="matplotlib.axis_4">
    <g id="ytick_5">
     <g id="line2d_14">
      <g>
       <use xlink:href="#m416087edcd" x="250.376727" y="147.6" style="stroke: #000000; stroke-width: 0.8"/>
      </g>
     </g>
     <g id="text_14">
      <!-- 0 -->
      <g transform="translate(237.014227 151.399219) scale(0.1 -0.1)">
       <use xlink:href="#DejaVuSans-30"/>
      </g>
     </g>
    </g>
    <g id="ytick_6">
     <g id="line2d_15">
      <g>
       <use xlink:href="#m416087edcd" x="250.376727" y="124.334454" style="stroke: #000000; stroke-width: 0.8"/>
      </g>
     </g>
     <g id="text_15">
      <!-- 10 -->
      <g transform="translate(230.651727 128.133673) scale(0.1 -0.1)">
       <use xlink:href="#DejaVuSans-31"/>
       <use xlink:href="#DejaVuSans-30" x="63.623047"/>
      </g>
     </g>
    </g>
    <g id="ytick_7">
     <g id="line2d_16">
      <g>
       <use xlink:href="#m416087edcd" x="250.376727" y="101.068909" style="stroke: #000000; stroke-width: 0.8"/>
      </g>
     </g>
     <g id="text_16">
      <!-- 20 -->
      <g transform="translate(230.651727 104.868128) scale(0.1 -0.1)">
       <use xlink:href="#DejaVuSans-32"/>
       <use xlink:href="#DejaVuSans-30" x="63.623047"/>
      </g>
     </g>
    </g>
    <g id="ytick_8">
     <g id="line2d_17">
      <g>
       <use xlink:href="#m416087edcd" x="250.376727" y="77.803363" style="stroke: #000000; stroke-width: 0.8"/>
      </g>
     </g>
     <g id="text_17">
      <!-- 30 -->
      <g transform="translate(230.651727 81.602582) scale(0.1 -0.1)">
       <use xlink:href="#DejaVuSans-33"/>
       <use xlink:href="#DejaVuSans-30" x="63.623047"/>
      </g>
     </g>
    </g>
    <g id="ytick_9">
     <g id="line2d_18">
      <g>
       <use xlink:href="#m416087edcd" x="250.376727" y="54.537818" style="stroke: #000000; stroke-width: 0.8"/>
      </g>
     </g>
     <g id="text_18">
      <!-- 40 -->
      <g transform="translate(230.651727 58.337037) scale(0.1 -0.1)">
       <use xlink:href="#DejaVuSans-34"/>
       <use xlink:href="#DejaVuSans-30" x="63.623047"/>
      </g>
     </g>
    </g>
   </g>
   <g id="line2d_19">
    <path d="M 257.75524 52.607515 
L 258.195748 46.8 
L 258.636256 51.926191 
L 259.076764 60.406808 
L 259.517272 76.332341 
L 259.957781 80.11238 
L 260.398289 87.061345 
L 260.838797 82.924061 
L 261.279305 87.573334 
L 261.719813 83.035659 
L 262.160322 82.897229 
L 262.60083 79.101139 
L 263.041338 147.6 
L 263.481846 141.268126 
L 263.922355 147.6 
L 267.886928 147.6 
L 268.327437 96.321044 
L 268.767945 94.891737 
L 269.208453 95.912003 
L 269.648961 95.236579 
L 270.089469 95.719837 
L 270.529978 95.247804 
L 270.970486 97.931813 
L 271.410994 97.887427 
L 271.851502 95.899931 
L 272.29201 91.90743 
L 272.732519 98.089574 
L 273.173027 99.904848 
L 273.613535 130.75363 
L 274.054043 129.570803 
L 274.494551 132.216626 
L 274.93506 142.514156 
L 275.375568 142.770487 
L 275.816076 146.695014 
L 276.256584 147.6 
L 277.578109 147.6 
L 278.018617 147.213145 
L 278.459125 147.6 
L 278.899633 108.786295 
L 279.340142 108.654863 
L 279.78065 107.580779 
L 280.221158 108.087798 
L 280.661666 112.362177 
L 281.102174 105.388646 
L 281.542683 104.83705 
L 281.983191 105.498338 
L 282.423699 103.048842 
L 282.864207 107.482831 
L 283.304715 106.618575 
L 283.745224 105.098855 
L 284.185732 147.6 
L 285.947765 147.6 
L 286.388273 146.963013 
L 286.828781 147.552913 
L 287.269289 147.6 
L 287.709797 147.123731 
L 288.150306 147.6 
L 289.031322 147.6 
L 289.47183 100.880416 
L 289.912338 103.610353 
L 290.352847 99.439169 
L 290.793355 105.511144 
L 291.233863 104.144686 
L 291.674371 106.669484 
L 292.114879 104.686508 
L 292.555388 104.293944 
L 292.995896 100.753047 
L 293.436404 98.355218 
L 293.876912 100.419372 
L 294.317421 100.886356 
L 294.757929 126.382988 
L 295.198437 132.701408 
L 295.638945 131.577954 
L 296.079453 129.329809 
L 296.519962 124.002062 
L 296.96047 134.033076 
L 297.400978 136.079521 
L 297.841486 135.793613 
L 298.281994 138.398528 
L 298.722503 139.269239 
L 299.163011 138.016785 
L 299.603519 138.425425 
L 300.044027 105.724517 
L 300.484535 104.2336 
L 300.925044 99.47132 
L 301.80606 95.065719 
L 302.246568 98.176816 
L 302.687076 103.07184 
L 303.127585 104.612675 
L 303.568093 109.884361 
L 304.008601 110.717463 
L 304.449109 108.76628 
L 304.889617 109.662462 
L 305.330126 134.698422 
L 305.770634 121.802772 
L 306.211142 134.733625 
L 306.65165 129.087552 
L 307.092158 129.83137 
L 308.413683 119.778128 
L 308.854191 129.563388 
L 309.294699 132.294333 
L 309.735208 136.423527 
L 310.175716 136.382078 
L 310.616224 103.292574 
L 311.056732 107.523213 
L 311.937749 112.303529 
L 312.378257 111.192125 
L 312.818765 109.313886 
L 313.259273 115.188247 
L 313.699781 116.054787 
L 314.14029 114.556502 
L 314.580798 117.20034 
L 315.461814 120.403971 
L 315.902322 137.609712 
L 316.342831 129.44116 
L 316.783339 116.876561 
L 317.223847 128.648217 
L 317.664355 124.710805 
L 318.104863 123.260117 
L 318.545372 129.175158 
L 318.98588 140.751533 
L 319.426388 144.452542 
L 320.307404 126.389007 
L 320.747913 127.227925 
L 321.188421 105.615443 
L 321.628929 111.953967 
L 322.069437 109.145236 
L 322.509945 109.391039 
L 322.950454 106.544951 
L 323.390962 106.848294 
L 323.83147 104.909078 
L 324.271978 104.030441 
L 325.152995 111.480692 
L 325.593503 108.915575 
L 326.034011 111.612256 
L 326.474519 134.052108 
L 326.915028 126.092208 
L 327.355536 134.21006 
L 327.796044 135.299464 
L 328.236552 138.577396 
L 328.67706 140.10925 
L 329.117569 139.836318 
L 329.558077 136.871408 
L 329.998585 136.917788 
L 330.439093 137.458314 
L 330.879601 136.946083 
L 331.32011 134.10513 
L 331.760618 125.951305 
L 332.201126 120.669212 
L 332.641634 119.376597 
L 333.082142 119.307466 
L 333.522651 119.820406 
L 333.963159 120.908091 
L 334.403667 130.847702 
L 334.844175 134.654483 
L 335.284683 137.148498 
L 336.1657 122.745546 
L 336.606208 126.656012 
L 337.046716 147.6 
L 337.487224 144.589245 
L 337.927733 139.164046 
L 338.368241 138.132752 
L 338.808749 147.6 
L 339.689765 147.6 
L 340.130274 145.558081 
L 340.570782 147.6 
L 341.892306 147.6 
L 342.332815 132.97522 
L 342.773323 130.16343 
L 343.213831 129.40284 
L 343.654339 124.969844 
L 344.094847 123.601434 
L 345.416372 126.575762 
L 346.297388 121.01056 
L 346.737897 124.312464 
L 347.178405 121.002698 
L 347.618913 141.324815 
L 348.059421 147.6 
L 352.464503 147.6 
L 352.905011 119.895174 
L 353.34552 120.652949 
L 353.786028 118.942213 
L 354.226536 116.67878 
L 354.667044 118.728947 
L 355.107552 121.608033 
L 355.548061 118.640182 
L 355.988569 116.553197 
L 356.429077 116.554214 
L 356.869585 112.352701 
L 357.310093 111.9829 
L 357.750602 113.043025 
L 358.19111 147.6 
L 360.834159 147.6 
L 361.274667 144.624502 
L 361.715176 143.391186 
L 362.155684 140.982597 
L 362.596192 139.277009 
L 363.0367 138.181991 
L 363.477208 120.602943 
L 363.917717 117.520051 
L 364.358225 120.678944 
L 364.798733 120.304904 
L 365.239241 121.504864 
L 365.679749 118.801268 
L 366.120258 119.074973 
L 366.560766 118.985927 
L 367.001274 117.256775 
L 367.441782 119.373833 
L 367.88229 113.382325 
L 368.322799 115.524695 
L 368.763307 147.6 
L 369.644323 147.6 
L 370.084831 143.979637 
L 370.52534 139.149 
L 370.965848 142.749971 
L 371.406356 144.392549 
L 371.846864 145.190246 
L 372.287372 146.875383 
L 372.727881 147.142765 
L 373.168389 147.6 
L 373.608897 147.6 
L 374.049405 115.47933 
L 374.489913 116.29028 
L 374.930422 119.390608 
L 375.37093 118.400538 
L 375.811438 117.06792 
L 376.251946 120.453289 
L 376.692454 122.450604 
L 377.132963 122.122322 
L 377.573471 122.653589 
L 378.013979 122.417348 
L 378.454487 121.718521 
L 378.894995 119.507901 
L 379.335504 147.6 
L 380.21652 147.6 
L 380.657028 143.899331 
L 381.097536 147.6 
L 381.538045 147.6 
L 381.978553 146.71955 
L 382.419061 146.993318 
L 382.859569 145.865979 
L 383.300077 139.085364 
L 384.181094 147.43602 
L 384.621602 109.226156 
L 385.06211 110.407201 
L 385.502618 113.158643 
L 385.943127 110.119153 
L 386.383635 108.797328 
L 386.824143 110.166237 
L 387.264651 109.929096 
L 387.705159 114.12205 
L 388.145668 113.839416 
L 388.586176 110.370967 
L 389.026684 115.084913 
L 389.467192 112.62703 
L 389.907701 147.6 
L 390.348209 147.6 
L 390.788717 141.793248 
L 391.669733 147.6 
L 394.753291 147.6 
L 395.193799 121.296467 
L 395.634307 117.08811 
L 396.074815 114.433953 
L 396.515324 113.818419 
L 396.955832 113.958936 
L 397.39634 112.750393 
L 397.836848 114.64583 
L 398.277356 113.007803 
L 398.717865 112.76311 
L 399.158373 113.15412 
L 399.598881 115.242659 
L 400.039389 116.415919 
L 400.479897 145.938349 
L 400.920406 147.6 
L 404.884979 147.6 
L 405.325488 147.119278 
L 405.325488 147.119278 
" clip-path="url(#p0987c1336d)" style="fill: none; stroke: #0000ff; stroke-width: 1.5; stroke-linecap: square"/>
   </g>
   <g id="patch_8">
    <path d="M 250.376727 152.64 
L 250.376727 41.76 
" style="fill: none; stroke: #000000; stroke-width: 0.8; stroke-linejoin: miter; stroke-linecap: square"/>
   </g>
   <g id="patch_9">
    <path d="M 412.704 152.64 
L 412.704 41.76 
" style="fill: none; stroke: #000000; stroke-width: 0.8; stroke-linejoin: miter; stroke-linecap: square"/>
   </g>
   <g id="patch_10">
    <path d="M 250.376727 152.64 
L 412.704 152.64 
" style="fill: none; stroke: #000000; stroke-width: 0.8; stroke-linejoin: miter; stroke-linecap: square"/>
   </g>
   <g id="patch_11">
    <path d="M 250.376727 41.76 
L 412.704 41.76 
" style="fill: none; stroke: #000000; stroke-width: 0.8; stroke-linejoin: miter; stroke-linecap: square"/>
   </g>
   <g id="text_19">
    <!-- RNN -->
    <g transform="translate(318.393801 35.76) scale(0.12 -0.12)">
     <defs>
      <path id="DejaVuSans-52" d="M 2841 2188 
Q 3044 2119 3236 1894 
Q 3428 1669 3622 1275 
L 4263 0 
L 3584 0 
L 2988 1197 
Q 2756 1666 2539 1819 
Q 2322 1972 1947 1972 
L 1259 1972 
L 1259 0 
L 628 0 
L 628 4666 
L 2053 4666 
Q 2853 4666 3247 4331 
Q 3641 3997 3641 3322 
Q 3641 2881 3436 2590 
Q 3231 2300 2841 2188 
z
M 1259 4147 
L 1259 2491 
L 2053 2491 
Q 2509 2491 2742 2702 
Q 2975 2913 2975 3322 
Q 2975 3731 2742 3939 
Q 2509 4147 2053 4147 
L 1259 4147 
z
" transform="scale(0.015625)"/>
     </defs>
     <use xlink:href="#DejaVuSans-52"/>
     <use xlink:href="#DejaVuSans-4e" x="69.482422"/>
     <use xlink:href="#DejaVuSans-4e" x="144.287109"/>
    </g>
   </g>
  </g>
  <g id="axes_3">
   <g id="patch_12">
    <path d="M 55.584 307.872 
L 217.911273 307.872 
L 217.911273 196.992 
L 55.584 196.992 
z
" style="fill: #ffffff"/>
   </g>
   <g id="matplotlib.axis_5">
    <g id="xtick_9">
     <g id="line2d_20">
      <g>
       <use xlink:href="#m3b70cf8927" x="62.962512" y="307.872" style="stroke: #000000; stroke-width: 0.8"/>
      </g>
     </g>
     <g id="text_20">
      <!-- 0 -->
      <g transform="translate(59.781262 322.470437) scale(0.1 -0.1)">
       <use xlink:href="#DejaVuSans-30"/>
      </g>
     </g>
    </g>
    <g id="xtick_10">
     <g id="line2d_21">
      <g>
       <use xlink:href="#m3b70cf8927" x="107.013333" y="307.872" style="stroke: #000000; stroke-width: 0.8"/>
      </g>
     </g>
     <g id="text_21">
      <!-- 100 -->
      <g transform="translate(97.469583 322.470437) scale(0.1 -0.1)">
       <use xlink:href="#DejaVuSans-31"/>
       <use xlink:href="#DejaVuSans-30" x="63.623047"/>
       <use xlink:href="#DejaVuSans-30" x="127.246094"/>
      </g>
     </g>
    </g>
    <g id="xtick_11">
     <g id="line2d_22">
      <g>
       <use xlink:href="#m3b70cf8927" x="151.064153" y="307.872" style="stroke: #000000; stroke-width: 0.8"/>
      </g>
     </g>
     <g id="text_22">
      <!-- 200 -->
      <g transform="translate(141.520403 322.470437) scale(0.1 -0.1)">
       <use xlink:href="#DejaVuSans-32"/>
       <use xlink:href="#DejaVuSans-30" x="63.623047"/>
       <use xlink:href="#DejaVuSans-30" x="127.246094"/>
      </g>
     </g>
    </g>
    <g id="xtick_12">
     <g id="line2d_23">
      <g>
       <use xlink:href="#m3b70cf8927" x="195.114973" y="307.872" style="stroke: #000000; stroke-width: 0.8"/>
      </g>
     </g>
     <g id="text_23">
      <!-- 300 -->
      <g transform="translate(185.571223 322.470437) scale(0.1 -0.1)">
       <use xlink:href="#DejaVuSans-33"/>
       <use xlink:href="#DejaVuSans-30" x="63.623047"/>
       <use xlink:href="#DejaVuSans-30" x="127.246094"/>
      </g>
     </g>
    </g>
   </g>
   <g id="matplotlib.axis_6">
    <g id="ytick_10">
     <g id="line2d_24">
      <g>
       <use xlink:href="#m416087edcd" x="55.584" y="302.832" style="stroke: #000000; stroke-width: 0.8"/>
      </g>
     </g>
     <g id="text_24">
      <!-- 0 -->
      <g transform="translate(42.2215 306.631219) scale(0.1 -0.1)">
       <use xlink:href="#DejaVuSans-30"/>
      </g>
     </g>
    </g>
    <g id="ytick_11">
     <g id="line2d_25">
      <g>
       <use xlink:href="#m416087edcd" x="55.584" y="279.566454" style="stroke: #000000; stroke-width: 0.8"/>
      </g>
     </g>
     <g id="text_25">
      <!-- 10 -->
      <g transform="translate(35.859 283.365673) scale(0.1 -0.1)">
       <use xlink:href="#DejaVuSans-31"/>
       <use xlink:href="#DejaVuSans-30" x="63.623047"/>
      </g>
     </g>
    </g>
    <g id="ytick_12">
     <g id="line2d_26">
      <g>
       <use xlink:href="#m416087edcd" x="55.584" y="256.300909" style="stroke: #000000; stroke-width: 0.8"/>
      </g>
     </g>
     <g id="text_26">
      <!-- 20 -->
      <g transform="translate(35.859 260.100128) scale(0.1 -0.1)">
       <use xlink:href="#DejaVuSans-32"/>
       <use xlink:href="#DejaVuSans-30" x="63.623047"/>
      </g>
     </g>
    </g>
    <g id="ytick_13">
     <g id="line2d_27">
      <g>
       <use xlink:href="#m416087edcd" x="55.584" y="233.035363" style="stroke: #000000; stroke-width: 0.8"/>
      </g>
     </g>
     <g id="text_27">
      <!-- 30 -->
      <g transform="translate(35.859 236.834582) scale(0.1 -0.1)">
       <use xlink:href="#DejaVuSans-33"/>
       <use xlink:href="#DejaVuSans-30" x="63.623047"/>
      </g>
     </g>
    </g>
    <g id="ytick_14">
     <g id="line2d_28">
      <g>
       <use xlink:href="#m416087edcd" x="55.584" y="209.769818" style="stroke: #000000; stroke-width: 0.8"/>
      </g>
     </g>
     <g id="text_28">
      <!-- 40 -->
      <g transform="translate(35.859 213.569037) scale(0.1 -0.1)">
       <use xlink:href="#DejaVuSans-34"/>
       <use xlink:href="#DejaVuSans-30" x="63.623047"/>
      </g>
     </g>
    </g>
   </g>
   <g id="line2d_29">
    <path d="M 62.962512 207.839515 
L 63.403021 202.032 
L 63.843529 207.158191 
L 64.284037 215.638808 
L 64.724545 231.564341 
L 65.165053 235.34438 
L 65.605562 242.293345 
L 66.04607 238.156061 
L 66.486578 242.805334 
L 66.927086 238.267659 
L 67.367594 238.129229 
L 67.808103 234.333139 
L 68.248611 302.832 
L 71.772676 302.832 
L 72.213185 302.441164 
L 72.653693 299.493052 
L 73.094201 302.832 
L 73.534709 251.553044 
L 73.975217 250.123737 
L 74.415726 251.144003 
L 74.856234 250.468579 
L 75.296742 250.951837 
L 75.73725 250.479804 
L 76.177758 253.163813 
L 76.618267 253.119427 
L 77.058775 251.131931 
L 77.499283 247.13943 
L 77.939791 253.321574 
L 78.380299 255.136848 
L 78.820808 302.832 
L 83.666398 302.832 
L 84.106906 264.018295 
L 84.547414 263.886863 
L 84.987923 262.812779 
L 85.428431 263.319798 
L 85.868939 267.594177 
L 86.309447 260.620646 
L 86.749955 260.06905 
L 87.190464 260.730338 
L 87.630972 258.280842 
L 88.07148 262.714831 
L 88.511988 261.850575 
L 88.952496 260.330855 
L 89.393005 302.832 
L 94.238595 302.832 
L 94.679103 256.112416 
L 95.119611 258.842353 
L 95.560119 254.671169 
L 96.000628 260.743144 
L 96.441136 259.376686 
L 96.881644 261.901484 
L 97.322152 259.918508 
L 97.76266 259.525944 
L 98.203169 255.985047 
L 98.643677 253.587218 
L 99.084185 255.651372 
L 99.524693 256.118356 
L 99.965201 299.154657 
L 100.40571 296.993528 
L 100.846218 291.829503 
L 101.286726 289.562996 
L 101.727234 294.446476 
L 102.167742 296.961782 
L 102.608251 294.202912 
L 103.048759 295.120286 
L 103.489267 292.121041 
L 103.929775 294.708518 
L 104.370283 292.583504 
L 104.810792 294.638524 
L 105.2513 260.956517 
L 105.691808 259.4656 
L 106.132316 254.70332 
L 107.013333 250.297719 
L 107.453841 253.408816 
L 107.894349 258.30384 
L 108.334857 259.844675 
L 108.775365 265.116361 
L 109.215874 265.949463 
L 109.656382 263.99828 
L 110.09689 264.894462 
L 110.537398 290.761046 
L 111.418415 280.536986 
L 111.858923 287.394664 
L 112.739939 292.468009 
L 113.180448 296.661991 
L 113.620956 298.491647 
L 114.061464 302.832 
L 114.94248 302.832 
L 115.382989 300.869891 
L 115.823497 258.524574 
L 116.264005 262.755213 
L 117.145021 267.535529 
L 117.58553 266.424125 
L 118.026038 264.545886 
L 118.466546 270.420247 
L 118.907054 271.286787 
L 119.347562 269.788502 
L 119.788071 272.43234 
L 120.669087 275.635971 
L 121.109595 296.63324 
L 121.550103 291.767674 
L 121.990612 285.090998 
L 122.43112 286.032094 
L 122.871628 284.309848 
L 123.312136 283.949935 
L 123.752644 285.814791 
L 124.193153 288.269076 
L 125.074169 289.292074 
L 125.514677 286.837272 
L 125.955185 291.267091 
L 126.395694 260.847443 
L 126.836202 267.185967 
L 127.27671 264.377236 
L 127.717218 264.623039 
L 128.157726 261.776951 
L 128.598235 262.080294 
L 129.038743 260.141078 
L 129.479251 259.262441 
L 130.360267 266.712692 
L 130.800776 264.147575 
L 131.241284 266.844256 
L 131.681792 288.790215 
L 132.1223 285.185181 
L 132.562808 292.534944 
L 133.003317 294.887917 
L 133.443825 294.195422 
L 134.324841 295.495273 
L 135.646366 292.497389 
L 136.086874 293.147796 
L 136.527382 291.047615 
L 136.96789 281.183305 
L 137.408399 275.901212 
L 137.848907 274.608597 
L 138.289415 274.539466 
L 138.729923 275.052406 
L 139.170431 276.140091 
L 139.61094 286.079702 
L 140.051448 289.886483 
L 140.491956 292.380498 
L 141.372972 277.977546 
L 141.813481 281.888012 
L 142.253989 302.496153 
L 142.694497 301.961748 
L 143.135005 302.832 
L 143.575514 301.310619 
L 144.016022 300.936263 
L 144.45653 302.832 
L 145.778055 302.832 
L 146.218563 301.957122 
L 146.659071 302.485678 
L 147.099579 302.832 
L 147.540087 288.20722 
L 147.980596 285.39543 
L 148.421104 284.63484 
L 148.861612 280.201844 
L 149.30212 278.833434 
L 150.623645 281.807762 
L 151.504661 276.24256 
L 151.945169 279.544464 
L 152.385678 276.234698 
L 152.826186 300.724432 
L 153.266694 297.560316 
L 153.707202 297.967765 
L 154.588219 302.832 
L 155.028727 302.832 
L 155.469235 301.973701 
L 155.909743 302.832 
L 157.671776 302.832 
L 158.112284 275.127174 
L 158.552792 275.884949 
L 158.993301 274.174213 
L 159.433809 271.91078 
L 159.874317 273.960947 
L 160.314825 276.840033 
L 160.755333 273.872182 
L 161.195842 271.785197 
L 161.63635 271.786214 
L 162.076858 267.584701 
L 162.517366 267.2149 
L 162.957874 268.275025 
L 163.398383 302.832 
L 165.600924 302.832 
L 166.041432 302.141858 
L 166.48194 298.218782 
L 166.922448 296.24602 
L 167.362956 295.387986 
L 167.803465 298.626748 
L 168.243973 300.612067 
L 168.684481 275.834943 
L 169.124989 272.752051 
L 169.565497 275.910944 
L 170.006006 275.536904 
L 170.446514 276.736864 
L 170.887022 274.033268 
L 171.32753 274.306973 
L 171.768038 274.217927 
L 172.208547 272.488775 
L 172.649055 274.605833 
L 173.089563 268.614325 
L 173.530071 270.756695 
L 173.970579 302.832 
L 178.81617 302.832 
L 179.256678 270.71133 
L 179.697186 271.52228 
L 180.137694 274.622608 
L 180.578203 273.632538 
L 181.018711 272.29992 
L 181.459219 275.685289 
L 181.899727 277.682604 
L 182.340235 277.354322 
L 182.780744 277.885589 
L 183.221252 277.649348 
L 183.66176 276.950521 
L 184.102268 274.739901 
L 184.542776 302.832 
L 189.388367 302.832 
L 189.828875 264.458156 
L 190.269383 265.639201 
L 190.709891 268.390643 
L 191.150399 265.351153 
L 191.590908 264.029328 
L 192.031416 265.398237 
L 192.471924 265.161096 
L 192.912432 269.35405 
L 193.35294 269.071416 
L 193.793449 265.602967 
L 194.233957 270.316913 
L 194.674465 267.85903 
L 195.114973 302.832 
L 199.960563 302.832 
L 200.401072 276.528467 
L 200.84158 272.32011 
L 201.282088 269.665953 
L 201.722596 269.050419 
L 202.163104 269.190936 
L 202.603613 267.982393 
L 203.044121 269.87783 
L 203.484629 268.239803 
L 203.925137 267.99511 
L 204.365645 268.38612 
L 204.806154 270.474659 
L 205.246662 271.647919 
L 205.68717 302.832 
L 206.568187 302.832 
L 207.008695 299.808147 
L 207.449203 302.832 
L 207.889711 302.832 
L 208.330219 302.355259 
L 208.770728 302.832 
L 209.651744 302.832 
L 210.092252 295.841455 
L 210.53276 302.832 
L 210.53276 302.832 
" clip-path="url(#p5e6cd339f8)" style="fill: none; stroke: #ffa500; stroke-width: 1.5; stroke-linecap: square"/>
   </g>
   <g id="patch_13">
    <path d="M 55.584 307.872 
L 55.584 196.992 
" style="fill: none; stroke: #000000; stroke-width: 0.8; stroke-linejoin: miter; stroke-linecap: square"/>
   </g>
   <g id="patch_14">
    <path d="M 217.911273 307.872 
L 217.911273 196.992 
" style="fill: none; stroke: #000000; stroke-width: 0.8; stroke-linejoin: miter; stroke-linecap: square"/>
   </g>
   <g id="patch_15">
    <path d="M 55.584 307.872 
L 217.911273 307.872 
" style="fill: none; stroke: #000000; stroke-width: 0.8; stroke-linejoin: miter; stroke-linecap: square"/>
   </g>
   <g id="patch_16">
    <path d="M 55.584 196.992 
L 217.911273 196.992 
" style="fill: none; stroke: #000000; stroke-width: 0.8; stroke-linejoin: miter; stroke-linecap: square"/>
   </g>
   <g id="text_29">
    <!-- VAE -->
    <g transform="translate(125.130136 190.992) scale(0.12 -0.12)">
     <defs>
      <path id="DejaVuSans-56" d="M 1831 0 
L 50 4666 
L 709 4666 
L 2188 738 
L 3669 4666 
L 4325 4666 
L 2547 0 
L 1831 0 
z
" transform="scale(0.015625)"/>
      <path id="DejaVuSans-41" d="M 2188 4044 
L 1331 1722 
L 3047 1722 
L 2188 4044 
z
M 1831 4666 
L 2547 4666 
L 4325 0 
L 3669 0 
L 3244 1197 
L 1141 1197 
L 716 0 
L 50 0 
L 1831 4666 
z
" transform="scale(0.015625)"/>
      <path id="DejaVuSans-45" d="M 628 4666 
L 3578 4666 
L 3578 4134 
L 1259 4134 
L 1259 2753 
L 3481 2753 
L 3481 2222 
L 1259 2222 
L 1259 531 
L 3634 531 
L 3634 0 
L 628 0 
L 628 4666 
z
" transform="scale(0.015625)"/>
     </defs>
     <use xlink:href="#DejaVuSans-56"/>
     <use xlink:href="#DejaVuSans-41" x="62.033203"/>
     <use xlink:href="#DejaVuSans-45" x="130.441406"/>
    </g>
   </g>
  </g>
  <g id="axes_4">
   <g id="patch_17">
    <path d="M 250.376727 307.872 
L 412.704 307.872 
L 412.704 196.992 
L 250.376727 196.992 
z
" style="fill: #ffffff"/>
   </g>
   <g id="matplotlib.axis_7">
    <g id="xtick_13">
     <g id="line2d_30">
      <g>
       <use xlink:href="#m3b70cf8927" x="257.75524" y="307.872" style="stroke: #000000; stroke-width: 0.8"/>
      </g>
     </g>
     <g id="text_30">
      <!-- 0 -->
      <g transform="translate(254.57399 322.470437) scale(0.1 -0.1)">
       <use xlink:href="#DejaVuSans-30"/>
      </g>
     </g>
    </g>
    <g id="xtick_14">
     <g id="line2d_31">
      <g>
       <use xlink:href="#m3b70cf8927" x="301.80606" y="307.872" style="stroke: #000000; stroke-width: 0.8"/>
      </g>
     </g>
     <g id="text_31">
      <!-- 100 -->
      <g transform="translate(292.26231 322.470437) scale(0.1 -0.1)">
       <use xlink:href="#DejaVuSans-31"/>
       <use xlink:href="#DejaVuSans-30" x="63.623047"/>
       <use xlink:href="#DejaVuSans-30" x="127.246094"/>
      </g>
     </g>
    </g>
    <g id="xtick_15">
     <g id="line2d_32">
      <g>
       <use xlink:href="#m3b70cf8927" x="345.85688" y="307.872" style="stroke: #000000; stroke-width: 0.8"/>
      </g>
     </g>
     <g id="text_32">
      <!-- 200 -->
      <g transform="translate(336.31313 322.470437) scale(0.1 -0.1)">
       <use xlink:href="#DejaVuSans-32"/>
       <use xlink:href="#DejaVuSans-30" x="63.623047"/>
       <use xlink:href="#DejaVuSans-30" x="127.246094"/>
      </g>
     </g>
    </g>
    <g id="xtick_16">
     <g id="line2d_33">
      <g>
       <use xlink:href="#m3b70cf8927" x="389.907701" y="307.872" style="stroke: #000000; stroke-width: 0.8"/>
      </g>
     </g>
     <g id="text_33">
      <!-- 300 -->
      <g transform="translate(380.363951 322.470437) scale(0.1 -0.1)">
       <use xlink:href="#DejaVuSans-33"/>
       <use xlink:href="#DejaVuSans-30" x="63.623047"/>
       <use xlink:href="#DejaVuSans-30" x="127.246094"/>
      </g>
     </g>
    </g>
   </g>
   <g id="matplotlib.axis_8">
    <g id="ytick_15">
     <g id="line2d_34">
      <g>
       <use xlink:href="#m416087edcd" x="250.376727" y="303.659252" style="stroke: #000000; stroke-width: 0.8"/>
      </g>
     </g>
     <g id="text_34">
      <!-- 0 -->
      <g transform="translate(237.014227 307.458471) scale(0.1 -0.1)">
       <use xlink:href="#DejaVuSans-30"/>
      </g>
     </g>
    </g>
    <g id="ytick_16">
     <g id="line2d_35">
      <g>
       <use xlink:href="#m416087edcd" x="250.376727" y="280.206339" style="stroke: #000000; stroke-width: 0.8"/>
      </g>
     </g>
     <g id="text_35">
      <!-- 10 -->
      <g transform="translate(230.651727 284.005558) scale(0.1 -0.1)">
       <use xlink:href="#DejaVuSans-31"/>
       <use xlink:href="#DejaVuSans-30" x="63.623047"/>
      </g>
     </g>
    </g>
    <g id="ytick_17">
     <g id="line2d_36">
      <g>
       <use xlink:href="#m416087edcd" x="250.376727" y="256.753426" style="stroke: #000000; stroke-width: 0.8"/>
      </g>
     </g>
     <g id="text_36">
      <!-- 20 -->
      <g transform="translate(230.651727 260.552644) scale(0.1 -0.1)">
       <use xlink:href="#DejaVuSans-32"/>
       <use xlink:href="#DejaVuSans-30" x="63.623047"/>
      </g>
     </g>
    </g>
    <g id="ytick_18">
     <g id="line2d_37">
      <g>
       <use xlink:href="#m416087edcd" x="250.376727" y="233.300512" style="stroke: #000000; stroke-width: 0.8"/>
      </g>
     </g>
     <g id="text_37">
      <!-- 30 -->
      <g transform="translate(230.651727 237.099731) scale(0.1 -0.1)">
       <use xlink:href="#DejaVuSans-33"/>
       <use xlink:href="#DejaVuSans-30" x="63.623047"/>
      </g>
     </g>
    </g>
    <g id="ytick_19">
     <g id="line2d_38">
      <g>
       <use xlink:href="#m416087edcd" x="250.376727" y="209.847599" style="stroke: #000000; stroke-width: 0.8"/>
      </g>
     </g>
     <g id="text_38">
      <!-- 40 -->
      <g transform="translate(230.651727 213.646818) scale(0.1 -0.1)">
       <use xlink:href="#DejaVuSans-34"/>
       <use xlink:href="#DejaVuSans-30" x="63.623047"/>
      </g>
     </g>
    </g>
   </g>
   <g id="line2d_39">
    <path d="M 257.75524 207.903313 
L 258.195748 202.032 
L 258.636256 207.224379 
L 259.076764 216.228902 
L 259.517272 231.826515 
L 259.957781 235.606679 
L 260.398289 242.186057 
L 260.838797 238.412274 
L 261.279305 243.040348 
L 261.719813 238.553681 
L 262.160322 238.434782 
L 262.60083 234.61384 
L 263.041338 258.75016 
L 263.481846 254.104306 
L 263.922355 259.716202 
L 264.362863 259.951671 
L 264.803371 253.104786 
L 265.243879 249.088176 
L 265.684387 248.079047 
L 266.124896 253.559094 
L 266.565404 255.554083 
L 267.005912 254.775254 
L 267.44642 252.781457 
L 267.886928 249.774871 
L 268.327437 251.945245 
L 268.767945 250.521595 
L 269.208453 251.559283 
L 269.648961 251.987864 
L 270.089469 251.391452 
L 270.529978 251.026883 
L 270.970486 253.597299 
L 271.410994 253.54048 
L 271.851502 251.565873 
L 272.29201 247.518126 
L 272.732519 253.750681 
L 273.173027 255.572391 
L 273.613535 262.261652 
L 274.054043 265.944915 
L 274.494551 266.25156 
L 274.93506 267.466304 
L 275.375568 269.017301 
L 275.816076 261.782919 
L 276.256584 257.961537 
L 276.697092 258.546087 
L 277.137601 279.575308 
L 277.578109 272.108264 
L 278.018617 267.490029 
L 278.459125 269.843088 
L 278.899633 264.529619 
L 279.340142 264.388006 
L 279.78065 263.310112 
L 280.221158 263.826918 
L 280.661666 268.143375 
L 281.102174 261.111462 
L 281.542683 260.958256 
L 281.983191 261.234752 
L 282.423699 258.728778 
L 282.864207 263.216819 
L 283.304715 262.335789 
L 283.745224 260.808453 
L 284.185732 265.809179 
L 284.62624 273.311715 
L 285.066748 270.608544 
L 285.507256 277.239278 
L 285.947765 280.150861 
L 287.269289 274.256675 
L 287.709797 268.313904 
L 288.150306 269.219409 
L 288.590814 260.744729 
L 289.47183 256.575906 
L 289.912338 259.32163 
L 290.352847 255.104543 
L 290.793355 261.238326 
L 291.233863 259.839215 
L 291.674371 262.396745 
L 292.114879 260.415068 
L 292.555388 260.00228 
L 292.995896 256.449241 
L 293.436404 254.025132 
L 293.876912 256.085559 
L 294.317421 256.566248 
L 294.757929 256.613233 
L 295.198437 259.282461 
L 295.638945 257.684124 
L 296.079453 261.732031 
L 296.519962 258.802012 
L 296.96047 273.472778 
L 297.400978 268.629765 
L 297.841486 273.160467 
L 298.281994 276.424517 
L 298.722503 277.035057 
L 299.163011 272.860715 
L 299.603519 270.314561 
L 300.044027 261.436297 
L 300.484535 259.941866 
L 300.925044 255.115908 
L 301.80606 250.706856 
L 302.246568 253.836749 
L 302.687076 258.774699 
L 303.127585 260.299994 
L 303.568093 265.646634 
L 304.008601 266.470779 
L 304.449109 264.510221 
L 304.889617 265.412769 
L 305.330126 272.260117 
L 305.770634 274.921011 
L 306.211142 276.128267 
L 306.65165 274.268612 
L 307.092158 266.302488 
L 307.532667 262.815954 
L 307.973175 261.960685 
L 308.413683 263.25713 
L 308.854191 261.781224 
L 309.294699 267.470727 
L 309.735208 265.157224 
L 310.175716 265.22872 
L 310.616224 259.001831 
L 311.056732 263.316585 
L 311.937749 268.06523 
L 312.378257 266.939865 
L 312.818765 265.056826 
L 313.259273 270.983514 
L 313.699781 271.862874 
L 314.14029 270.350125 
L 314.580798 273.002882 
L 315.461814 276.241762 
L 315.902322 284.106141 
L 316.342831 275.605942 
L 316.783339 286.031632 
L 317.223847 274.46967 
L 317.664355 259.537366 
L 318.104863 264.454115 
L 318.545372 264.869925 
L 318.98588 269.995644 
L 319.426388 269.87966 
L 319.866896 267.062824 
L 320.307404 268.698618 
L 320.747913 262.000347 
L 321.188421 261.324591 
L 321.628929 267.694805 
L 322.069437 264.896176 
L 322.509945 265.171975 
L 322.950454 262.252456 
L 323.390962 262.509648 
L 323.83147 260.60608 
L 324.271978 259.743846 
L 325.152995 267.241916 
L 325.593503 264.660683 
L 326.034011 267.370599 
L 326.474519 271.462769 
L 326.915028 278.48728 
L 327.355536 279.150381 
L 328.236552 285.747653 
L 328.67706 279.58323 
L 329.558077 302.832 
L 329.998585 292.799242 
L 330.879601 283.262268 
L 331.32011 288.571925 
L 332.201126 276.494315 
L 332.641634 275.199707 
L 333.082142 275.130683 
L 333.522651 275.671807 
L 333.963159 276.721264 
L 334.403667 286.781945 
L 334.844175 290.611517 
L 335.284683 293.158841 
L 336.1657 278.583977 
L 336.606208 282.548654 
L 337.046716 290.780249 
L 337.487224 287.568947 
L 337.927733 288.054662 
L 338.368241 287.25351 
L 338.808749 290.631954 
L 339.249257 296.977686 
L 339.689765 294.103238 
L 340.130274 296.876714 
L 340.570782 296.707912 
L 341.01129 294.896955 
L 341.451798 295.286398 
L 341.892306 293.568385 
L 342.332815 288.906781 
L 342.773323 286.083358 
L 343.213831 285.313237 
L 343.654339 280.876616 
L 344.094847 279.466948 
L 344.975864 281.312927 
L 345.416372 282.46728 
L 346.297388 276.872526 
L 346.737897 280.18009 
L 347.178405 276.84344 
L 347.618913 287.794426 
L 348.059421 284.879074 
L 348.499929 284.287737 
L 348.940438 287.75695 
L 349.380946 290.230862 
L 349.821454 286.145154 
L 350.261962 283.766815 
L 350.70247 286.701729 
L 351.142979 282.660386 
L 351.583487 277.482034 
L 352.023995 277.004972 
L 352.464503 280.269061 
L 352.905011 275.747567 
L 353.34552 276.498668 
L 353.786028 274.759517 
L 354.226536 272.496147 
L 354.667044 274.548406 
L 355.107552 277.456867 
L 355.548061 274.4647 
L 355.988569 272.361107 
L 356.429077 272.36174 
L 356.869585 268.128121 
L 357.310093 267.956113 
L 357.750602 268.805887 
L 358.19111 287.983327 
L 358.631618 293.600305 
L 359.072126 283.926801 
L 359.512635 283.980623 
L 359.953143 280.482588 
L 360.393651 280.930565 
L 360.834159 276.429013 
L 361.274667 280.420396 
L 361.715176 274.444842 
L 362.596192 282.886355 
L 363.0367 280.284388 
L 363.917717 273.528033 
L 364.358225 276.500364 
L 364.798733 276.11363 
L 365.239241 277.351144 
L 365.679749 274.645301 
L 366.120258 274.905866 
L 366.560766 274.81636 
L 367.001274 273.064662 
L 367.441782 275.373186 
L 367.88229 269.145659 
L 368.322799 271.332127 
L 368.763307 289.879064 
L 369.203815 283.966003 
L 369.644323 290.693436 
L 370.084831 286.074936 
L 370.52534 285.568873 
L 371.406356 293.871296 
L 371.846864 290.440775 
L 372.287372 294.33645 
L 372.727881 284.721571 
L 373.168389 291.942667 
L 373.608897 284.941435 
L 374.049405 271.283017 
L 374.489913 272.109418 
L 374.930422 275.229009 
L 375.37093 274.225677 
L 375.811438 272.893941 
L 376.251946 276.301722 
L 376.692454 278.287161 
L 377.132963 277.983664 
L 377.573471 278.52116 
L 378.013979 278.283219 
L 378.454487 277.584259 
L 378.894995 275.349628 
L 379.335504 297.078311 
L 379.776012 282.180528 
L 380.21652 285.550217 
L 380.657028 272.343234 
L 381.097536 277.863529 
L 381.538045 275.238304 
L 381.978553 285.334637 
L 382.419061 275.259486 
L 382.859569 271.816015 
L 383.300077 276.167011 
L 383.740586 268.382829 
L 384.181094 272.219677 
L 384.621602 264.985539 
L 385.06211 266.184813 
L 385.502618 268.94766 
L 385.943127 265.87174 
L 386.383635 264.552523 
L 386.824143 265.934031 
L 387.264651 265.680062 
L 387.705159 269.887657 
L 388.145668 269.627565 
L 388.586176 266.13393 
L 389.026684 270.867663 
L 389.467192 268.417045 
L 389.907701 280.362899 
L 390.348209 275.53692 
L 390.788717 273.753905 
L 391.229225 288.42359 
L 391.669733 278.754275 
L 392.110242 272.071687 
L 392.55075 275.412932 
L 392.991258 273.791128 
L 393.431766 275.811523 
L 393.872274 276.240937 
L 394.312783 279.037725 
L 394.753291 276.669194 
L 395.193799 277.136747 
L 395.634307 272.90134 
L 396.074815 270.22279 
L 396.515324 269.595999 
L 396.955832 269.727828 
L 397.39634 268.52771 
L 397.836848 270.444404 
L 398.277356 268.750381 
L 398.717865 268.551477 
L 399.158373 268.909336 
L 399.598881 271.025518 
L 400.039389 272.224614 
L 400.479897 276.017323 
L 400.920406 274.706016 
L 401.360914 280.563304 
L 401.801422 283.412526 
L 402.24193 278.221538 
L 403.122947 275.290993 
L 403.563455 276.00716 
L 404.003963 277.660084 
L 404.444471 276.671919 
L 404.884979 275.997948 
L 405.325488 273.603889 
L 405.325488 273.603889 
" clip-path="url(#p251ec2b624)" style="fill: none; stroke: #ff0000; stroke-width: 1.5; stroke-linecap: square"/>
   </g>
   <g id="patch_18">
    <path d="M 250.376727 307.872 
L 250.376727 196.992 
" style="fill: none; stroke: #000000; stroke-width: 0.8; stroke-linejoin: miter; stroke-linecap: square"/>
   </g>
   <g id="patch_19">
    <path d="M 412.704 307.872 
L 412.704 196.992 
" style="fill: none; stroke: #000000; stroke-width: 0.8; stroke-linejoin: miter; stroke-linecap: square"/>
   </g>
   <g id="patch_20">
    <path d="M 250.376727 307.872 
L 412.704 307.872 
" style="fill: none; stroke: #000000; stroke-width: 0.8; stroke-linejoin: miter; stroke-linecap: square"/>
   </g>
   <g id="patch_21">
    <path d="M 250.376727 196.992 
L 412.704 196.992 
" style="fill: none; stroke: #000000; stroke-width: 0.8; stroke-linejoin: miter; stroke-linecap: square"/>
   </g>
   <g id="text_39">
    <!-- VRNN -->
    <g transform="translate(314.289426 190.992) scale(0.12 -0.12)">
     <use xlink:href="#DejaVuSans-56"/>
     <use xlink:href="#DejaVuSans-52" x="68.408203"/>
     <use xlink:href="#DejaVuSans-4e" x="137.890625"/>
     <use xlink:href="#DejaVuSans-4e" x="212.695312"/>
    </g>
   </g>
  </g>
  <g id="text_40">
   <!-- VMAF Scores Over Frames: Video #1 -->
   <g transform="translate(118.155563 16.318125) scale(0.12 -0.12)">
    <defs>
     <path id="DejaVuSans-4d" d="M 628 4666 
L 1569 4666 
L 2759 1491 
L 3956 4666 
L 4897 4666 
L 4897 0 
L 4281 0 
L 4281 4097 
L 3078 897 
L 2444 897 
L 1241 4097 
L 1241 0 
L 628 0 
L 628 4666 
z
" transform="scale(0.015625)"/>
     <path id="DejaVuSans-73" d="M 2834 3397 
L 2834 2853 
Q 2591 2978 2328 3040 
Q 2066 3103 1784 3103 
Q 1356 3103 1142 2972 
Q 928 2841 928 2578 
Q 928 2378 1081 2264 
Q 1234 2150 1697 2047 
L 1894 2003 
Q 2506 1872 2764 1633 
Q 3022 1394 3022 966 
Q 3022 478 2636 193 
Q 2250 -91 1575 -91 
Q 1294 -91 989 -36 
Q 684 19 347 128 
L 347 722 
Q 666 556 975 473 
Q 1284 391 1588 391 
Q 1994 391 2212 530 
Q 2431 669 2431 922 
Q 2431 1156 2273 1281 
Q 2116 1406 1581 1522 
L 1381 1569 
Q 847 1681 609 1914 
Q 372 2147 372 2553 
Q 372 3047 722 3315 
Q 1072 3584 1716 3584 
Q 2034 3584 2315 3537 
Q 2597 3491 2834 3397 
z
" transform="scale(0.015625)"/>
     <path id="DejaVuSans-76" d="M 191 3500 
L 800 3500 
L 1894 563 
L 2988 3500 
L 3597 3500 
L 2284 0 
L 1503 0 
L 191 3500 
z
" transform="scale(0.015625)"/>
     <path id="DejaVuSans-61" d="M 2194 1759 
Q 1497 1759 1228 1600 
Q 959 1441 959 1056 
Q 959 750 1161 570 
Q 1363 391 1709 391 
Q 2188 391 2477 730 
Q 2766 1069 2766 1631 
L 2766 1759 
L 2194 1759 
z
M 3341 1997 
L 3341 0 
L 2766 0 
L 2766 531 
Q 2569 213 2275 61 
Q 1981 -91 1556 -91 
Q 1019 -91 701 211 
Q 384 513 384 1019 
Q 384 1609 779 1909 
Q 1175 2209 1959 2209 
L 2766 2209 
L 2766 2266 
Q 2766 2663 2505 2880 
Q 2244 3097 1772 3097 
Q 1472 3097 1187 3025 
Q 903 2953 641 2809 
L 641 3341 
Q 956 3463 1253 3523 
Q 1550 3584 1831 3584 
Q 2591 3584 2966 3190 
Q 3341 2797 3341 1997 
z
" transform="scale(0.015625)"/>
     <path id="DejaVuSans-6d" d="M 3328 2828 
Q 3544 3216 3844 3400 
Q 4144 3584 4550 3584 
Q 5097 3584 5394 3201 
Q 5691 2819 5691 2113 
L 5691 0 
L 5113 0 
L 5113 2094 
Q 5113 2597 4934 2840 
Q 4756 3084 4391 3084 
Q 3944 3084 3684 2787 
Q 3425 2491 3425 1978 
L 3425 0 
L 2847 0 
L 2847 2094 
Q 2847 2600 2669 2842 
Q 2491 3084 2119 3084 
Q 1678 3084 1418 2786 
Q 1159 2488 1159 1978 
L 1159 0 
L 581 0 
L 581 3500 
L 1159 3500 
L 1159 2956 
Q 1356 3278 1631 3431 
Q 1906 3584 2284 3584 
Q 2666 3584 2933 3390 
Q 3200 3197 3328 2828 
z
" transform="scale(0.015625)"/>
     <path id="DejaVuSans-3a" d="M 750 794 
L 1409 794 
L 1409 0 
L 750 0 
L 750 794 
z
M 750 3309 
L 1409 3309 
L 1409 2516 
L 750 2516 
L 750 3309 
z
" transform="scale(0.015625)"/>
     <path id="DejaVuSans-23" d="M 3272 2816 
L 2363 2816 
L 2100 1772 
L 3016 1772 
L 3272 2816 
z
M 2803 4594 
L 2478 3297 
L 3391 3297 
L 3719 4594 
L 4219 4594 
L 3897 3297 
L 4872 3297 
L 4872 2816 
L 3775 2816 
L 3519 1772 
L 4513 1772 
L 4513 1294 
L 3397 1294 
L 3072 0 
L 2572 0 
L 2894 1294 
L 1978 1294 
L 1656 0 
L 1153 0 
L 1478 1294 
L 494 1294 
L 494 1772 
L 1594 1772 
L 1856 2816 
L 850 2816 
L 850 3297 
L 1978 3297 
L 2297 4594 
L 2803 4594 
z
" transform="scale(0.015625)"/>
    </defs>
    <use xlink:href="#DejaVuSans-56"/>
    <use xlink:href="#DejaVuSans-4d" x="68.408203"/>
    <use xlink:href="#DejaVuSans-41" x="154.6875"/>
    <use xlink:href="#DejaVuSans-46" x="223.095703"/>
    <use xlink:href="#DejaVuSans-20" x="280.615234"/>
    <use xlink:href="#DejaVuSans-53" x="312.402344"/>
    <use xlink:href="#DejaVuSans-63" x="375.878906"/>
    <use xlink:href="#DejaVuSans-6f" x="430.859375"/>
    <use xlink:href="#DejaVuSans-72" x="492.041016"/>
    <use xlink:href="#DejaVuSans-65" x="530.904297"/>
    <use xlink:href="#DejaVuSans-73" x="592.427734"/>
    <use xlink:href="#DejaVuSans-20" x="644.527344"/>
    <use xlink:href="#DejaVuSans-4f" x="676.314453"/>
    <use xlink:href="#DejaVuSans-76" x="755.025391"/>
    <use xlink:href="#DejaVuSans-65" x="814.205078"/>
    <use xlink:href="#DejaVuSans-72" x="875.728516"/>
    <use xlink:href="#DejaVuSans-20" x="916.841797"/>
    <use xlink:href="#DejaVuSans-46" x="948.628906"/>
    <use xlink:href="#DejaVuSans-72" x="998.898438"/>
    <use xlink:href="#DejaVuSans-61" x="1040.011719"/>
    <use xlink:href="#DejaVuSans-6d" x="1101.291016"/>
    <use xlink:href="#DejaVuSans-65" x="1198.703125"/>
    <use xlink:href="#DejaVuSans-73" x="1260.226562"/>
    <use xlink:href="#DejaVuSans-3a" x="1312.326172"/>
    <use xlink:href="#DejaVuSans-20" x="1346.017578"/>
    <use xlink:href="#DejaVuSans-56" x="1377.804688"/>
    <use xlink:href="#DejaVuSans-69" x="1443.962891"/>
    <use xlink:href="#DejaVuSans-64" x="1471.746094"/>
    <use xlink:href="#DejaVuSans-65" x="1535.222656"/>
    <use xlink:href="#DejaVuSans-6f" x="1596.746094"/>
    <use xlink:href="#DejaVuSans-20" x="1657.927734"/>
    <use xlink:href="#DejaVuSans-23" x="1689.714844"/>
    <use xlink:href="#DejaVuSans-31" x="1773.503906"/>
   </g>
  </g>
  <g id="text_41">
   <!-- Video Frames -->
   <g transform="translate(187.847438 339.936375) scale(0.12 -0.12)">
    <use xlink:href="#DejaVuSans-56"/>
    <use xlink:href="#DejaVuSans-69" x="66.158203"/>
    <use xlink:href="#DejaVuSans-64" x="93.941406"/>
    <use xlink:href="#DejaVuSans-65" x="157.417969"/>
    <use xlink:href="#DejaVuSans-6f" x="218.941406"/>
    <use xlink:href="#DejaVuSans-20" x="280.123047"/>
    <use xlink:href="#DejaVuSans-46" x="311.910156"/>
    <use xlink:href="#DejaVuSans-72" x="362.179688"/>
    <use xlink:href="#DejaVuSans-61" x="403.292969"/>
    <use xlink:href="#DejaVuSans-6d" x="464.572266"/>
    <use xlink:href="#DejaVuSans-65" x="561.984375"/>
    <use xlink:href="#DejaVuSans-73" x="623.507812"/>
   </g>
  </g>
  <g id="text_42">
   <!-- Raw VMAF Scores -->
   <g transform="translate(16.318125 226.284562) rotate(-90) scale(0.12 -0.12)">
    <defs>
     <path id="DejaVuSans-77" d="M 269 3500 
L 844 3500 
L 1563 769 
L 2278 3500 
L 2956 3500 
L 3675 769 
L 4391 3500 
L 4966 3500 
L 4050 0 
L 3372 0 
L 2619 2869 
L 1863 0 
L 1184 0 
L 269 3500 
z
" transform="scale(0.015625)"/>
    </defs>
    <use xlink:href="#DejaVuSans-52"/>
    <use xlink:href="#DejaVuSans-61" x="67.232422"/>
    <use xlink:href="#DejaVuSans-77" x="128.511719"/>
    <use xlink:href="#DejaVuSans-20" x="210.298828"/>
    <use xlink:href="#DejaVuSans-56" x="242.085938"/>
    <use xlink:href="#DejaVuSans-4d" x="310.494141"/>
    <use xlink:href="#DejaVuSans-41" x="396.773438"/>
    <use xlink:href="#DejaVuSans-46" x="465.181641"/>
    <use xlink:href="#DejaVuSans-20" x="522.701172"/>
    <use xlink:href="#DejaVuSans-53" x="554.488281"/>
    <use xlink:href="#DejaVuSans-63" x="617.964844"/>
    <use xlink:href="#DejaVuSans-6f" x="672.945312"/>
    <use xlink:href="#DejaVuSans-72" x="734.126953"/>
    <use xlink:href="#DejaVuSans-65" x="772.990234"/>
    <use xlink:href="#DejaVuSans-73" x="834.513672"/>
   </g>
  </g>
 </g>
 <defs>
  <clipPath id="p75d2bb1965">
   <rect x="55.584" y="41.76" width="162.327273" height="110.88"/>
  </clipPath>
  <clipPath id="p0987c1336d">
   <rect x="250.376727" y="41.76" width="162.327273" height="110.88"/>
  </clipPath>
  <clipPath id="p5e6cd339f8">
   <rect x="55.584" y="196.992" width="162.327273" height="110.88"/>
  </clipPath>
  <clipPath id="p251ec2b624">
   <rect x="250.376727" y="196.992" width="162.327273" height="110.88"/>
  </clipPath>
 </defs>
</svg>
