<?xml version="1.0" encoding="utf-8" standalone="no"?>
<!DOCTYPE svg PUBLIC "-//W3C//DTD SVG 1.1//EN"
  "http://www.w3.org/Graphics/SVG/1.1/DTD/svg11.dtd">
<svg xmlns:xlink="http://www.w3.org/1999/xlink" width="428.753604pt" height="349.632pt" viewBox="0 0 428.753604 349.632" xmlns="http://www.w3.org/2000/svg" version="1.1">
 <metadata>
  <rdf:RDF xmlns:dc="http://purl.org/dc/elements/1.1/" xmlns:cc="http://creativecommons.org/ns#" xmlns:rdf="http://www.w3.org/1999/02/22-rdf-syntax-ns#">
   <cc:Work>
    <dc:type rdf:resource="http://purl.org/dc/dcmitype/StillImage"/>
    <dc:date>2024-07-24T16:31:50.047609</dc:date>
    <dc:format>image/svg+xml</dc:format>
    <dc:creator>
     <cc:Agent>
      <dc:title>Matplotlib v3.7.2, https://matplotlib.org/</dc:title>
     </cc:Agent>
    </dc:creator>
   </cc:Work>
  </rdf:RDF>
 </metadata>
 <defs>
  <style type="text/css">*{stroke-linejoin: round; stroke-linecap: butt}</style>
 </defs>
 <g id="figure_1">
  <g id="patch_1">
   <path d="M 0 349.632 
L 428.753604 349.632 
L 428.753604 -0 
L 0 -0 
z
" style="fill: #ffffff"/>
  </g>
  <g id="axes_1">
   <g id="patch_2">
    <path d="M 55.584 152.64 
L 217.911273 152.64 
L 217.911273 41.76 
L 55.584 41.76 
z
" style="fill: #ffffff"/>
   </g>
   <g id="matplotlib.axis_1">
    <g id="xtick_1">
     <g id="line2d_1">
      <defs>
       <path id="m8231a7871f" d="M 0 0 
L 0 3.5 
" style="stroke: #000000; stroke-width: 0.8"/>
      </defs>
      <g>
       <use xlink:href="#m8231a7871f" x="62.962512" y="152.64" style="stroke: #000000; stroke-width: 0.8"/>
      </g>
     </g>
     <g id="text_1">
      <!-- 0 -->
      <g transform="translate(59.781262 167.238437) scale(0.1 -0.1)">
       <defs>
        <path id="DejaVuSans-30" d="M 2034 4250 
Q 1547 4250 1301 3770 
Q 1056 3291 1056 2328 
Q 1056 1369 1301 889 
Q 1547 409 2034 409 
Q 2525 409 2770 889 
Q 3016 1369 3016 2328 
Q 3016 3291 2770 3770 
Q 2525 4250 2034 4250 
z
M 2034 4750 
Q 2819 4750 3233 4129 
Q 3647 3509 3647 2328 
Q 3647 1150 3233 529 
Q 2819 -91 2034 -91 
Q 1250 -91 836 529 
Q 422 1150 422 2328 
Q 422 3509 836 4129 
Q 1250 4750 2034 4750 
z
" transform="scale(0.015625)"/>
       </defs>
       <use xlink:href="#DejaVuSans-30"/>
      </g>
     </g>
    </g>
    <g id="xtick_2">
     <g id="line2d_2">
      <g>
       <use xlink:href="#m8231a7871f" x="114.380717" y="152.64" style="stroke: #000000; stroke-width: 0.8"/>
      </g>
     </g>
     <g id="text_2">
      <!-- 100 -->
      <g transform="translate(104.836967 167.238437) scale(0.1 -0.1)">
       <defs>
        <path id="DejaVuSans-31" d="M 794 531 
L 1825 531 
L 1825 4091 
L 703 3866 
L 703 4441 
L 1819 4666 
L 2450 4666 
L 2450 531 
L 3481 531 
L 3481 0 
L 794 0 
L 794 531 
z
" transform="scale(0.015625)"/>
       </defs>
       <use xlink:href="#DejaVuSans-31"/>
       <use xlink:href="#DejaVuSans-30" x="63.623047"/>
       <use xlink:href="#DejaVuSans-30" x="127.246094"/>
      </g>
     </g>
    </g>
    <g id="xtick_3">
     <g id="line2d_3">
      <g>
       <use xlink:href="#m8231a7871f" x="165.798922" y="152.64" style="stroke: #000000; stroke-width: 0.8"/>
      </g>
     </g>
     <g id="text_3">
      <!-- 200 -->
      <g transform="translate(156.255172 167.238437) scale(0.1 -0.1)">
       <defs>
        <path id="DejaVuSans-32" d="M 1228 531 
L 3431 531 
L 3431 0 
L 469 0 
L 469 531 
Q 828 903 1448 1529 
Q 2069 2156 2228 2338 
Q 2531 2678 2651 2914 
Q 2772 3150 2772 3378 
Q 2772 3750 2511 3984 
Q 2250 4219 1831 4219 
Q 1534 4219 1204 4116 
Q 875 4013 500 3803 
L 500 4441 
Q 881 4594 1212 4672 
Q 1544 4750 1819 4750 
Q 2544 4750 2975 4387 
Q 3406 4025 3406 3419 
Q 3406 3131 3298 2873 
Q 3191 2616 2906 2266 
Q 2828 2175 2409 1742 
Q 1991 1309 1228 531 
z
" transform="scale(0.015625)"/>
       </defs>
       <use xlink:href="#DejaVuSans-32"/>
       <use xlink:href="#DejaVuSans-30" x="63.623047"/>
       <use xlink:href="#DejaVuSans-30" x="127.246094"/>
      </g>
     </g>
    </g>
    <g id="xtick_4">
     <g id="line2d_4">
      <g>
       <use xlink:href="#m8231a7871f" x="217.217127" y="152.64" style="stroke: #000000; stroke-width: 0.8"/>
      </g>
     </g>
     <g id="text_4">
      <!-- 300 -->
      <g transform="translate(207.673377 167.238437) scale(0.1 -0.1)">
       <defs>
        <path id="DejaVuSans-33" d="M 2597 2516 
Q 3050 2419 3304 2112 
Q 3559 1806 3559 1356 
Q 3559 666 3084 287 
Q 2609 -91 1734 -91 
Q 1441 -91 1130 -33 
Q 819 25 488 141 
L 488 750 
Q 750 597 1062 519 
Q 1375 441 1716 441 
Q 2309 441 2620 675 
Q 2931 909 2931 1356 
Q 2931 1769 2642 2001 
Q 2353 2234 1838 2234 
L 1294 2234 
L 1294 2753 
L 1863 2753 
Q 2328 2753 2575 2939 
Q 2822 3125 2822 3475 
Q 2822 3834 2567 4026 
Q 2313 4219 1838 4219 
Q 1578 4219 1281 4162 
Q 984 4106 628 3988 
L 628 4550 
Q 988 4650 1302 4700 
Q 1616 4750 1894 4750 
Q 2613 4750 3031 4423 
Q 3450 4097 3450 3541 
Q 3450 3153 3228 2886 
Q 3006 2619 2597 2516 
z
" transform="scale(0.015625)"/>
       </defs>
       <use xlink:href="#DejaVuSans-33"/>
       <use xlink:href="#DejaVuSans-30" x="63.623047"/>
       <use xlink:href="#DejaVuSans-30" x="127.246094"/>
      </g>
     </g>
    </g>
   </g>
   <g id="matplotlib.axis_2">
    <g id="ytick_1">
     <g id="line2d_5">
      <defs>
       <path id="m1d73768808" d="M 0 0 
L -3.5 0 
" style="stroke: #000000; stroke-width: 0.8"/>
      </defs>
      <g>
       <use xlink:href="#m1d73768808" x="55.584" y="147.6" style="stroke: #000000; stroke-width: 0.8"/>
      </g>
     </g>
     <g id="text_5">
      <!-- 0 -->
      <g transform="translate(42.2215 151.399219) scale(0.1 -0.1)">
       <use xlink:href="#DejaVuSans-30"/>
      </g>
     </g>
    </g>
    <g id="ytick_2">
     <g id="line2d_6">
      <g>
       <use xlink:href="#m1d73768808" x="55.584" y="107.514464" style="stroke: #000000; stroke-width: 0.8"/>
      </g>
     </g>
     <g id="text_6">
      <!-- 20 -->
      <g transform="translate(35.859 111.313682) scale(0.1 -0.1)">
       <use xlink:href="#DejaVuSans-32"/>
       <use xlink:href="#DejaVuSans-30" x="63.623047"/>
      </g>
     </g>
    </g>
    <g id="ytick_3">
     <g id="line2d_7">
      <g>
       <use xlink:href="#m1d73768808" x="55.584" y="67.428927" style="stroke: #000000; stroke-width: 0.8"/>
      </g>
     </g>
     <g id="text_7">
      <!-- 40 -->
      <g transform="translate(35.859 71.228146) scale(0.1 -0.1)">
       <defs>
        <path id="DejaVuSans-34" d="M 2419 4116 
L 825 1625 
L 2419 1625 
L 2419 4116 
z
M 2253 4666 
L 3047 4666 
L 3047 1625 
L 3713 1625 
L 3713 1100 
L 3047 1100 
L 3047 0 
L 2419 0 
L 2419 1100 
L 313 1100 
L 313 1709 
L 2253 4666 
z
" transform="scale(0.015625)"/>
       </defs>
       <use xlink:href="#DejaVuSans-34"/>
       <use xlink:href="#DejaVuSans-30" x="63.623047"/>
      </g>
     </g>
    </g>
   </g>
   <g id="line2d_8">
    <path d="M 62.962512 46.8 
L 63.476694 69.335732 
L 63.990876 111.213318 
L 65.019241 138.031194 
L 65.533423 144.253032 
L 66.561787 140.087832 
L 67.590151 122.50343 
L 68.104333 107.983043 
L 69.132697 88.46255 
L 69.646879 87.042622 
L 70.161061 91.787925 
L 70.675243 100.202072 
L 71.189425 104.069144 
L 71.703607 113.787397 
L 72.217789 112.403055 
L 72.731971 124.099179 
L 73.246153 126.548507 
L 73.760335 126.006843 
L 74.274517 127.582255 
L 74.7887 132.638619 
L 75.302882 142.307988 
L 75.817064 147.6 
L 83.015612 147.6 
L 83.529794 146.06651 
L 84.043976 146.416549 
L 84.558158 145.573508 
L 85.07234 143.602103 
L 85.586523 138.536586 
L 86.100705 137.61807 
L 87.129069 142.460158 
L 87.643251 139.358187 
L 88.157433 138.530531 
L 88.671615 139.466635 
L 89.185797 144.178713 
L 89.699979 144.968032 
L 90.214161 146.478306 
L 90.728343 146.105295 
L 91.242525 146.623965 
L 91.756707 147.6 
L 92.270889 147.6 
L 92.785071 146.354242 
L 93.299253 146.633674 
L 93.813435 145.712987 
L 94.841799 146.115665 
L 95.355981 143.756136 
L 95.870164 144.777381 
L 96.384346 147.6 
L 106.153804 147.6 
L 106.667987 146.559357 
L 107.182169 147.6 
L 109.753079 147.6 
L 110.267261 144.036464 
L 110.781443 144.778762 
L 111.295625 144.840762 
L 111.809807 145.461906 
L 112.323989 143.772423 
L 112.838171 141.343009 
L 113.352353 137.007617 
L 113.866535 136.891019 
L 114.380717 134.694213 
L 114.894899 138.168729 
L 115.409081 137.228914 
L 115.923263 136.831093 
L 116.437445 138.925594 
L 116.951627 140.249269 
L 117.46581 142.878255 
L 117.979992 143.897822 
L 118.494174 141.681749 
L 119.008356 144.396145 
L 119.522538 143.699339 
L 120.03672 143.583068 
L 120.550902 139.611708 
L 121.065084 139.774548 
L 121.579266 141.826153 
L 122.093448 143.306186 
L 122.60763 145.211189 
L 123.121812 144.572055 
L 123.635994 144.783917 
L 124.150176 145.387216 
L 124.664358 144.742054 
L 125.17854 142.222996 
L 125.692722 143.534567 
L 126.206904 140.143689 
L 126.721086 146.360299 
L 127.235268 147.6 
L 127.749451 146.888438 
L 128.263633 145.031162 
L 128.777815 142.620376 
L 129.291997 142.039551 
L 129.806179 141.644416 
L 130.320361 141.459279 
L 130.834543 141.864776 
L 131.348725 143.566341 
L 131.862907 141.785954 
L 132.377089 144.819399 
L 132.891271 144.111131 
L 133.405453 145.702707 
L 133.919635 146.314862 
L 134.433817 147.6 
L 135.462181 147.6 
L 135.976363 145.395019 
L 136.490545 147.6 
L 137.004727 145.012294 
L 137.518909 146.727075 
L 138.033091 147.6 
L 139.061456 147.6 
L 139.575638 146.644475 
L 140.08982 145.445932 
L 140.604002 144.788922 
L 141.118184 147.6 
L 153.972735 147.6 
L 154.486917 143.735217 
L 155.001099 144.230688 
L 155.515281 147.6 
L 188.422932 147.6 
L 188.937114 144.459671 
L 189.451296 147.6 
L 204.362576 147.6 
L 204.876758 145.835072 
L 205.39094 146.960461 
L 205.905122 147.6 
L 210.53276 147.6 
L 210.53276 147.6 
" clip-path="url(#p3eea492702)" style="fill: none; stroke: #008000; stroke-width: 1.5; stroke-linecap: square"/>
   </g>
   <g id="patch_3">
    <path d="M 55.584 152.64 
L 55.584 41.76 
" style="fill: none; stroke: #000000; stroke-width: 0.8; stroke-linejoin: miter; stroke-linecap: square"/>
   </g>
   <g id="patch_4">
    <path d="M 217.911273 152.64 
L 217.911273 41.76 
" style="fill: none; stroke: #000000; stroke-width: 0.8; stroke-linejoin: miter; stroke-linecap: square"/>
   </g>
   <g id="patch_5">
    <path d="M 55.584 152.64 
L 217.911273 152.64 
" style="fill: none; stroke: #000000; stroke-width: 0.8; stroke-linejoin: miter; stroke-linecap: square"/>
   </g>
   <g id="patch_6">
    <path d="M 55.584 41.76 
L 217.911273 41.76 
" style="fill: none; stroke: #000000; stroke-width: 0.8; stroke-linejoin: miter; stroke-linecap: square"/>
   </g>
   <g id="text_8">
    <!-- No Prediction (FOSS) -->
    <g transform="translate(74.495761 35.76) scale(0.12 -0.12)">
     <defs>
      <path id="DejaVuSans-4e" d="M 628 4666 
L 1478 4666 
L 3547 763 
L 3547 4666 
L 4159 4666 
L 4159 0 
L 3309 0 
L 1241 3903 
L 1241 0 
L 628 0 
L 628 4666 
z
" transform="scale(0.015625)"/>
      <path id="DejaVuSans-6f" d="M 1959 3097 
Q 1497 3097 1228 2736 
Q 959 2375 959 1747 
Q 959 1119 1226 758 
Q 1494 397 1959 397 
Q 2419 397 2687 759 
Q 2956 1122 2956 1747 
Q 2956 2369 2687 2733 
Q 2419 3097 1959 3097 
z
M 1959 3584 
Q 2709 3584 3137 3096 
Q 3566 2609 3566 1747 
Q 3566 888 3137 398 
Q 2709 -91 1959 -91 
Q 1206 -91 779 398 
Q 353 888 353 1747 
Q 353 2609 779 3096 
Q 1206 3584 1959 3584 
z
" transform="scale(0.015625)"/>
      <path id="DejaVuSans-20" transform="scale(0.015625)"/>
      <path id="DejaVuSans-50" d="M 1259 4147 
L 1259 2394 
L 2053 2394 
Q 2494 2394 2734 2622 
Q 2975 2850 2975 3272 
Q 2975 3691 2734 3919 
Q 2494 4147 2053 4147 
L 1259 4147 
z
M 628 4666 
L 2053 4666 
Q 2838 4666 3239 4311 
Q 3641 3956 3641 3272 
Q 3641 2581 3239 2228 
Q 2838 1875 2053 1875 
L 1259 1875 
L 1259 0 
L 628 0 
L 628 4666 
z
" transform="scale(0.015625)"/>
      <path id="DejaVuSans-72" d="M 2631 2963 
Q 2534 3019 2420 3045 
Q 2306 3072 2169 3072 
Q 1681 3072 1420 2755 
Q 1159 2438 1159 1844 
L 1159 0 
L 581 0 
L 581 3500 
L 1159 3500 
L 1159 2956 
Q 1341 3275 1631 3429 
Q 1922 3584 2338 3584 
Q 2397 3584 2469 3576 
Q 2541 3569 2628 3553 
L 2631 2963 
z
" transform="scale(0.015625)"/>
      <path id="DejaVuSans-65" d="M 3597 1894 
L 3597 1613 
L 953 1613 
Q 991 1019 1311 708 
Q 1631 397 2203 397 
Q 2534 397 2845 478 
Q 3156 559 3463 722 
L 3463 178 
Q 3153 47 2828 -22 
Q 2503 -91 2169 -91 
Q 1331 -91 842 396 
Q 353 884 353 1716 
Q 353 2575 817 3079 
Q 1281 3584 2069 3584 
Q 2775 3584 3186 3129 
Q 3597 2675 3597 1894 
z
M 3022 2063 
Q 3016 2534 2758 2815 
Q 2500 3097 2075 3097 
Q 1594 3097 1305 2825 
Q 1016 2553 972 2059 
L 3022 2063 
z
" transform="scale(0.015625)"/>
      <path id="DejaVuSans-64" d="M 2906 2969 
L 2906 4863 
L 3481 4863 
L 3481 0 
L 2906 0 
L 2906 525 
Q 2725 213 2448 61 
Q 2172 -91 1784 -91 
Q 1150 -91 751 415 
Q 353 922 353 1747 
Q 353 2572 751 3078 
Q 1150 3584 1784 3584 
Q 2172 3584 2448 3432 
Q 2725 3281 2906 2969 
z
M 947 1747 
Q 947 1113 1208 752 
Q 1469 391 1925 391 
Q 2381 391 2643 752 
Q 2906 1113 2906 1747 
Q 2906 2381 2643 2742 
Q 2381 3103 1925 3103 
Q 1469 3103 1208 2742 
Q 947 2381 947 1747 
z
" transform="scale(0.015625)"/>
      <path id="DejaVuSans-69" d="M 603 3500 
L 1178 3500 
L 1178 0 
L 603 0 
L 603 3500 
z
M 603 4863 
L 1178 4863 
L 1178 4134 
L 603 4134 
L 603 4863 
z
" transform="scale(0.015625)"/>
      <path id="DejaVuSans-63" d="M 3122 3366 
L 3122 2828 
Q 2878 2963 2633 3030 
Q 2388 3097 2138 3097 
Q 1578 3097 1268 2742 
Q 959 2388 959 1747 
Q 959 1106 1268 751 
Q 1578 397 2138 397 
Q 2388 397 2633 464 
Q 2878 531 3122 666 
L 3122 134 
Q 2881 22 2623 -34 
Q 2366 -91 2075 -91 
Q 1284 -91 818 406 
Q 353 903 353 1747 
Q 353 2603 823 3093 
Q 1294 3584 2113 3584 
Q 2378 3584 2631 3529 
Q 2884 3475 3122 3366 
z
" transform="scale(0.015625)"/>
      <path id="DejaVuSans-74" d="M 1172 4494 
L 1172 3500 
L 2356 3500 
L 2356 3053 
L 1172 3053 
L 1172 1153 
Q 1172 725 1289 603 
Q 1406 481 1766 481 
L 2356 481 
L 2356 0 
L 1766 0 
Q 1100 0 847 248 
Q 594 497 594 1153 
L 594 3053 
L 172 3053 
L 172 3500 
L 594 3500 
L 594 4494 
L 1172 4494 
z
" transform="scale(0.015625)"/>
      <path id="DejaVuSans-6e" d="M 3513 2113 
L 3513 0 
L 2938 0 
L 2938 2094 
Q 2938 2591 2744 2837 
Q 2550 3084 2163 3084 
Q 1697 3084 1428 2787 
Q 1159 2491 1159 1978 
L 1159 0 
L 581 0 
L 581 3500 
L 1159 3500 
L 1159 2956 
Q 1366 3272 1645 3428 
Q 1925 3584 2291 3584 
Q 2894 3584 3203 3211 
Q 3513 2838 3513 2113 
z
" transform="scale(0.015625)"/>
      <path id="DejaVuSans-28" d="M 1984 4856 
Q 1566 4138 1362 3434 
Q 1159 2731 1159 2009 
Q 1159 1288 1364 580 
Q 1569 -128 1984 -844 
L 1484 -844 
Q 1016 -109 783 600 
Q 550 1309 550 2009 
Q 550 2706 781 3412 
Q 1013 4119 1484 4856 
L 1984 4856 
z
" transform="scale(0.015625)"/>
      <path id="DejaVuSans-46" d="M 628 4666 
L 3309 4666 
L 3309 4134 
L 1259 4134 
L 1259 2759 
L 3109 2759 
L 3109 2228 
L 1259 2228 
L 1259 0 
L 628 0 
L 628 4666 
z
" transform="scale(0.015625)"/>
      <path id="DejaVuSans-4f" d="M 2522 4238 
Q 1834 4238 1429 3725 
Q 1025 3213 1025 2328 
Q 1025 1447 1429 934 
Q 1834 422 2522 422 
Q 3209 422 3611 934 
Q 4013 1447 4013 2328 
Q 4013 3213 3611 3725 
Q 3209 4238 2522 4238 
z
M 2522 4750 
Q 3503 4750 4090 4092 
Q 4678 3434 4678 2328 
Q 4678 1225 4090 567 
Q 3503 -91 2522 -91 
Q 1538 -91 948 565 
Q 359 1222 359 2328 
Q 359 3434 948 4092 
Q 1538 4750 2522 4750 
z
" transform="scale(0.015625)"/>
      <path id="DejaVuSans-53" d="M 3425 4513 
L 3425 3897 
Q 3066 4069 2747 4153 
Q 2428 4238 2131 4238 
Q 1616 4238 1336 4038 
Q 1056 3838 1056 3469 
Q 1056 3159 1242 3001 
Q 1428 2844 1947 2747 
L 2328 2669 
Q 3034 2534 3370 2195 
Q 3706 1856 3706 1288 
Q 3706 609 3251 259 
Q 2797 -91 1919 -91 
Q 1588 -91 1214 -16 
Q 841 59 441 206 
L 441 856 
Q 825 641 1194 531 
Q 1563 422 1919 422 
Q 2459 422 2753 634 
Q 3047 847 3047 1241 
Q 3047 1584 2836 1778 
Q 2625 1972 2144 2069 
L 1759 2144 
Q 1053 2284 737 2584 
Q 422 2884 422 3419 
Q 422 4038 858 4394 
Q 1294 4750 2059 4750 
Q 2388 4750 2728 4690 
Q 3069 4631 3425 4513 
z
" transform="scale(0.015625)"/>
      <path id="DejaVuSans-29" d="M 513 4856 
L 1013 4856 
Q 1481 4119 1714 3412 
Q 1947 2706 1947 2009 
Q 1947 1309 1714 600 
Q 1481 -109 1013 -844 
L 513 -844 
Q 928 -128 1133 580 
Q 1338 1288 1338 2009 
Q 1338 2731 1133 3434 
Q 928 4138 513 4856 
z
" transform="scale(0.015625)"/>
     </defs>
     <use xlink:href="#DejaVuSans-4e"/>
     <use xlink:href="#DejaVuSans-6f" x="74.804688"/>
     <use xlink:href="#DejaVuSans-20" x="135.986328"/>
     <use xlink:href="#DejaVuSans-50" x="167.773438"/>
     <use xlink:href="#DejaVuSans-72" x="226.326172"/>
     <use xlink:href="#DejaVuSans-65" x="265.189453"/>
     <use xlink:href="#DejaVuSans-64" x="326.712891"/>
     <use xlink:href="#DejaVuSans-69" x="390.189453"/>
     <use xlink:href="#DejaVuSans-63" x="417.972656"/>
     <use xlink:href="#DejaVuSans-74" x="472.953125"/>
     <use xlink:href="#DejaVuSans-69" x="512.162109"/>
     <use xlink:href="#DejaVuSans-6f" x="539.945312"/>
     <use xlink:href="#DejaVuSans-6e" x="601.126953"/>
     <use xlink:href="#DejaVuSans-20" x="664.505859"/>
     <use xlink:href="#DejaVuSans-28" x="696.292969"/>
     <use xlink:href="#DejaVuSans-46" x="735.306641"/>
     <use xlink:href="#DejaVuSans-4f" x="792.826172"/>
     <use xlink:href="#DejaVuSans-53" x="871.537109"/>
     <use xlink:href="#DejaVuSans-53" x="935.013672"/>
     <use xlink:href="#DejaVuSans-29" x="998.490234"/>
    </g>
   </g>
  </g>
  <g id="axes_2">
   <g id="patch_7">
    <path d="M 250.376727 152.64 
L 412.704 152.64 
L 412.704 41.76 
L 250.376727 41.76 
z
" style="fill: #ffffff"/>
   </g>
   <g id="matplotlib.axis_3">
    <g id="xtick_5">
     <g id="line2d_9">
      <g>
       <use xlink:href="#m8231a7871f" x="257.75524" y="152.64" style="stroke: #000000; stroke-width: 0.8"/>
      </g>
     </g>
     <g id="text_9">
      <!-- 0 -->
      <g transform="translate(254.57399 167.238437) scale(0.1 -0.1)">
       <use xlink:href="#DejaVuSans-30"/>
      </g>
     </g>
    </g>
    <g id="xtick_6">
     <g id="line2d_10">
      <g>
       <use xlink:href="#m8231a7871f" x="309.173445" y="152.64" style="stroke: #000000; stroke-width: 0.8"/>
      </g>
     </g>
     <g id="text_10">
      <!-- 100 -->
      <g transform="translate(299.629695 167.238437) scale(0.1 -0.1)">
       <use xlink:href="#DejaVuSans-31"/>
       <use xlink:href="#DejaVuSans-30" x="63.623047"/>
       <use xlink:href="#DejaVuSans-30" x="127.246094"/>
      </g>
     </g>
    </g>
    <g id="xtick_7">
     <g id="line2d_11">
      <g>
       <use xlink:href="#m8231a7871f" x="360.591649" y="152.64" style="stroke: #000000; stroke-width: 0.8"/>
      </g>
     </g>
     <g id="text_11">
      <!-- 200 -->
      <g transform="translate(351.047899 167.238437) scale(0.1 -0.1)">
       <use xlink:href="#DejaVuSans-32"/>
       <use xlink:href="#DejaVuSans-30" x="63.623047"/>
       <use xlink:href="#DejaVuSans-30" x="127.246094"/>
      </g>
     </g>
    </g>
    <g id="xtick_8">
     <g id="line2d_12">
      <g>
       <use xlink:href="#m8231a7871f" x="412.009854" y="152.64" style="stroke: #000000; stroke-width: 0.8"/>
      </g>
     </g>
     <g id="text_12">
      <!-- 300 -->
      <g transform="translate(402.466104 167.238437) scale(0.1 -0.1)">
       <use xlink:href="#DejaVuSans-33"/>
       <use xlink:href="#DejaVuSans-30" x="63.623047"/>
       <use xlink:href="#DejaVuSans-30" x="127.246094"/>
      </g>
     </g>
    </g>
   </g>
   <g id="matplotlib.axis_4">
    <g id="ytick_4">
     <g id="line2d_13">
      <g>
       <use xlink:href="#m1d73768808" x="250.376727" y="147.6" style="stroke: #000000; stroke-width: 0.8"/>
      </g>
     </g>
     <g id="text_13">
      <!-- 0 -->
      <g transform="translate(237.014227 151.399219) scale(0.1 -0.1)">
       <use xlink:href="#DejaVuSans-30"/>
      </g>
     </g>
    </g>
    <g id="ytick_5">
     <g id="line2d_14">
      <g>
       <use xlink:href="#m1d73768808" x="250.376727" y="107.514811" style="stroke: #000000; stroke-width: 0.8"/>
      </g>
     </g>
     <g id="text_14">
      <!-- 20 -->
      <g transform="translate(230.651727 111.31403) scale(0.1 -0.1)">
       <use xlink:href="#DejaVuSans-32"/>
       <use xlink:href="#DejaVuSans-30" x="63.623047"/>
      </g>
     </g>
    </g>
    <g id="ytick_6">
     <g id="line2d_15">
      <g>
       <use xlink:href="#m1d73768808" x="250.376727" y="67.429622" style="stroke: #000000; stroke-width: 0.8"/>
      </g>
     </g>
     <g id="text_15">
      <!-- 40 -->
      <g transform="translate(230.651727 71.228841) scale(0.1 -0.1)">
       <use xlink:href="#DejaVuSans-34"/>
       <use xlink:href="#DejaVuSans-30" x="63.623047"/>
      </g>
     </g>
    </g>
   </g>
   <g id="line2d_16">
    <path d="M 257.75524 46.8 
L 258.269422 69.698267 
L 258.783604 111.215508 
L 259.811968 138.009635 
L 260.32615 144.263908 
L 261.354514 140.085823 
L 262.382878 122.50138 
L 262.89706 107.978234 
L 263.411242 99.084657 
L 263.925424 147.6 
L 264.439606 140.325528 
L 264.953788 147.6 
L 269.581427 147.6 
L 270.095609 142.309124 
L 270.609791 147.6 
L 280.893432 147.6 
L 281.407614 145.64332 
L 281.921796 145.965009 
L 282.435978 139.360115 
L 282.95016 138.538905 
L 283.464342 139.466505 
L 283.978524 144.181056 
L 284.492706 144.967479 
L 285.006888 146.472171 
L 285.52107 146.11232 
L 286.035252 146.612143 
L 286.549434 147.6 
L 287.063616 147.6 
L 287.577798 146.347843 
L 288.091981 146.635909 
L 288.606163 147.6 
L 290.148709 147.6 
L 290.662891 147.04462 
L 291.177073 147.6 
L 306.602534 147.6 
L 307.116716 143.773404 
L 307.630898 141.346189 
L 308.14508 137.009517 
L 308.659262 136.879872 
L 309.173445 134.692569 
L 309.687627 138.162962 
L 310.201809 136.836429 
L 310.715991 136.833515 
L 311.230173 138.92903 
L 311.744355 140.247196 
L 312.258537 142.883998 
L 312.772719 143.901929 
L 313.286901 147.6 
L 318.942903 147.6 
L 319.971268 142.219555 
L 320.48545 143.540619 
L 320.999632 140.147584 
L 321.513814 146.012791 
L 322.027996 147.6 
L 322.542178 146.886782 
L 323.05636 145.030926 
L 323.570542 142.626611 
L 324.084724 142.040808 
L 324.598906 141.641589 
L 325.113088 141.455895 
L 325.62727 147.6 
L 331.283273 147.6 
L 331.797455 145.014433 
L 332.311637 146.716504 
L 332.825819 147.6 
L 333.854183 147.6 
L 334.368365 146.646534 
L 334.882547 145.446694 
L 335.396729 144.791078 
L 335.910911 147.6 
L 348.765462 147.6 
L 349.279644 143.731777 
L 349.793826 144.232463 
L 350.308008 147.6 
L 383.21566 147.6 
L 383.729842 144.44656 
L 384.244024 147.6 
L 405.325488 147.6 
L 405.325488 147.6 
" clip-path="url(#p94743a0b49)" style="fill: none; stroke: #0000ff; stroke-width: 1.5; stroke-linecap: square"/>
   </g>
   <g id="patch_8">
    <path d="M 250.376727 152.64 
L 250.376727 41.76 
" style="fill: none; stroke: #000000; stroke-width: 0.8; stroke-linejoin: miter; stroke-linecap: square"/>
   </g>
   <g id="patch_9">
    <path d="M 412.704 152.64 
L 412.704 41.76 
" style="fill: none; stroke: #000000; stroke-width: 0.8; stroke-linejoin: miter; stroke-linecap: square"/>
   </g>
   <g id="patch_10">
    <path d="M 250.376727 152.64 
L 412.704 152.64 
" style="fill: none; stroke: #000000; stroke-width: 0.8; stroke-linejoin: miter; stroke-linecap: square"/>
   </g>
   <g id="patch_11">
    <path d="M 250.376727 41.76 
L 412.704 41.76 
" style="fill: none; stroke: #000000; stroke-width: 0.8; stroke-linejoin: miter; stroke-linecap: square"/>
   </g>
   <g id="text_16">
    <!-- RNN -->
    <g transform="translate(318.393801 35.76) scale(0.12 -0.12)">
     <defs>
      <path id="DejaVuSans-52" d="M 2841 2188 
Q 3044 2119 3236 1894 
Q 3428 1669 3622 1275 
L 4263 0 
L 3584 0 
L 2988 1197 
Q 2756 1666 2539 1819 
Q 2322 1972 1947 1972 
L 1259 1972 
L 1259 0 
L 628 0 
L 628 4666 
L 2053 4666 
Q 2853 4666 3247 4331 
Q 3641 3997 3641 3322 
Q 3641 2881 3436 2590 
Q 3231 2300 2841 2188 
z
M 1259 4147 
L 1259 2491 
L 2053 2491 
Q 2509 2491 2742 2702 
Q 2975 2913 2975 3322 
Q 2975 3731 2742 3939 
Q 2509 4147 2053 4147 
L 1259 4147 
z
" transform="scale(0.015625)"/>
     </defs>
     <use xlink:href="#DejaVuSans-52"/>
     <use xlink:href="#DejaVuSans-4e" x="69.482422"/>
     <use xlink:href="#DejaVuSans-4e" x="144.287109"/>
    </g>
   </g>
  </g>
  <g id="axes_3">
   <g id="patch_12">
    <path d="M 55.584 307.872 
L 217.911273 307.872 
L 217.911273 196.992 
L 55.584 196.992 
z
" style="fill: #ffffff"/>
   </g>
   <g id="matplotlib.axis_5">
    <g id="xtick_9">
     <g id="line2d_17">
      <g>
       <use xlink:href="#m8231a7871f" x="62.962512" y="307.872" style="stroke: #000000; stroke-width: 0.8"/>
      </g>
     </g>
     <g id="text_17">
      <!-- 0 -->
      <g transform="translate(59.781262 322.470437) scale(0.1 -0.1)">
       <use xlink:href="#DejaVuSans-30"/>
      </g>
     </g>
    </g>
    <g id="xtick_10">
     <g id="line2d_18">
      <g>
       <use xlink:href="#m8231a7871f" x="114.380717" y="307.872" style="stroke: #000000; stroke-width: 0.8"/>
      </g>
     </g>
     <g id="text_18">
      <!-- 100 -->
      <g transform="translate(104.836967 322.470437) scale(0.1 -0.1)">
       <use xlink:href="#DejaVuSans-31"/>
       <use xlink:href="#DejaVuSans-30" x="63.623047"/>
       <use xlink:href="#DejaVuSans-30" x="127.246094"/>
      </g>
     </g>
    </g>
    <g id="xtick_11">
     <g id="line2d_19">
      <g>
       <use xlink:href="#m8231a7871f" x="165.798922" y="307.872" style="stroke: #000000; stroke-width: 0.8"/>
      </g>
     </g>
     <g id="text_19">
      <!-- 200 -->
      <g transform="translate(156.255172 322.470437) scale(0.1 -0.1)">
       <use xlink:href="#DejaVuSans-32"/>
       <use xlink:href="#DejaVuSans-30" x="63.623047"/>
       <use xlink:href="#DejaVuSans-30" x="127.246094"/>
      </g>
     </g>
    </g>
    <g id="xtick_12">
     <g id="line2d_20">
      <g>
       <use xlink:href="#m8231a7871f" x="217.217127" y="307.872" style="stroke: #000000; stroke-width: 0.8"/>
      </g>
     </g>
     <g id="text_20">
      <!-- 300 -->
      <g transform="translate(207.673377 322.470437) scale(0.1 -0.1)">
       <use xlink:href="#DejaVuSans-33"/>
       <use xlink:href="#DejaVuSans-30" x="63.623047"/>
       <use xlink:href="#DejaVuSans-30" x="127.246094"/>
      </g>
     </g>
    </g>
   </g>
   <g id="matplotlib.axis_6">
    <g id="ytick_7">
     <g id="line2d_21">
      <g>
       <use xlink:href="#m1d73768808" x="55.584" y="302.832" style="stroke: #000000; stroke-width: 0.8"/>
      </g>
     </g>
     <g id="text_21">
      <!-- 0 -->
      <g transform="translate(42.2215 306.631219) scale(0.1 -0.1)">
       <use xlink:href="#DejaVuSans-30"/>
      </g>
     </g>
    </g>
    <g id="ytick_8">
     <g id="line2d_22">
      <g>
       <use xlink:href="#m1d73768808" x="55.584" y="262.746811" style="stroke: #000000; stroke-width: 0.8"/>
      </g>
     </g>
     <g id="text_22">
      <!-- 20 -->
      <g transform="translate(35.859 266.54603) scale(0.1 -0.1)">
       <use xlink:href="#DejaVuSans-32"/>
       <use xlink:href="#DejaVuSans-30" x="63.623047"/>
      </g>
     </g>
    </g>
    <g id="ytick_9">
     <g id="line2d_23">
      <g>
       <use xlink:href="#m1d73768808" x="55.584" y="222.661622" style="stroke: #000000; stroke-width: 0.8"/>
      </g>
     </g>
     <g id="text_23">
      <!-- 40 -->
      <g transform="translate(35.859 226.460841) scale(0.1 -0.1)">
       <use xlink:href="#DejaVuSans-34"/>
       <use xlink:href="#DejaVuSans-30" x="63.623047"/>
      </g>
     </g>
    </g>
   </g>
   <g id="line2d_24">
    <path d="M 62.962512 202.032 
L 63.476694 224.930267 
L 63.990876 266.447508 
L 65.019241 293.241635 
L 65.533423 299.495908 
L 66.561787 295.317823 
L 67.590151 277.73338 
L 68.104333 263.210234 
L 68.618515 254.316657 
L 69.132697 302.832 
L 69.646879 289.504701 
L 70.161061 302.832 
L 70.675243 292.89113 
L 71.189425 298.832368 
L 71.703607 302.832 
L 74.7887 302.832 
L 75.302882 297.541124 
L 75.817064 302.832 
L 87.129069 302.832 
L 87.643251 294.592115 
L 88.157433 293.770905 
L 88.671615 294.698505 
L 89.185797 299.413056 
L 89.699979 300.199479 
L 90.214161 301.704171 
L 90.728343 301.34432 
L 91.242525 301.844143 
L 91.756707 302.832 
L 92.270889 302.832 
L 92.785071 301.579843 
L 93.813435 302.162475 
L 94.327617 302.832 
L 94.841799 302.058919 
L 95.355981 297.464511 
L 95.870164 295.344063 
L 96.384346 300.219712 
L 96.898528 302.832 
L 111.809807 302.832 
L 112.323989 299.005404 
L 112.838171 296.578189 
L 113.352353 292.241517 
L 113.866535 292.111872 
L 114.380717 289.924569 
L 114.894899 293.394962 
L 115.409081 292.068429 
L 115.923263 292.065515 
L 116.437445 294.16103 
L 116.951627 295.479196 
L 117.46581 298.115998 
L 117.979992 299.133929 
L 118.494174 302.832 
L 124.150176 302.832 
L 125.17854 297.451555 
L 125.692722 298.772619 
L 126.206904 295.379584 
L 126.721086 301.244791 
L 127.235268 302.832 
L 127.749451 302.118782 
L 128.263633 300.262926 
L 128.777815 297.858611 
L 129.291997 297.272808 
L 129.806179 296.873589 
L 130.320361 296.687895 
L 130.834543 302.832 
L 136.490545 302.832 
L 137.004727 300.246433 
L 137.518909 301.948504 
L 138.033091 302.832 
L 139.061456 302.832 
L 139.575638 301.878534 
L 140.08982 300.678694 
L 140.604002 300.023078 
L 141.118184 302.832 
L 153.972735 302.832 
L 154.486917 298.963777 
L 155.001099 299.464463 
L 155.515281 302.832 
L 188.422932 302.832 
L 188.937114 299.67856 
L 189.451296 302.832 
L 210.53276 302.832 
L 210.53276 302.832 
" clip-path="url(#p326bb232b9)" style="fill: none; stroke: #ffa500; stroke-width: 1.5; stroke-linecap: square"/>
   </g>
   <g id="patch_13">
    <path d="M 55.584 307.872 
L 55.584 196.992 
" style="fill: none; stroke: #000000; stroke-width: 0.8; stroke-linejoin: miter; stroke-linecap: square"/>
   </g>
   <g id="patch_14">
    <path d="M 217.911273 307.872 
L 217.911273 196.992 
" style="fill: none; stroke: #000000; stroke-width: 0.8; stroke-linejoin: miter; stroke-linecap: square"/>
   </g>
   <g id="patch_15">
    <path d="M 55.584 307.872 
L 217.911273 307.872 
" style="fill: none; stroke: #000000; stroke-width: 0.8; stroke-linejoin: miter; stroke-linecap: square"/>
   </g>
   <g id="patch_16">
    <path d="M 55.584 196.992 
L 217.911273 196.992 
" style="fill: none; stroke: #000000; stroke-width: 0.8; stroke-linejoin: miter; stroke-linecap: square"/>
   </g>
   <g id="text_24">
    <!-- VAE -->
    <g transform="translate(125.130136 190.992) scale(0.12 -0.12)">
     <defs>
      <path id="DejaVuSans-56" d="M 1831 0 
L 50 4666 
L 709 4666 
L 2188 738 
L 3669 4666 
L 4325 4666 
L 2547 0 
L 1831 0 
z
" transform="scale(0.015625)"/>
      <path id="DejaVuSans-41" d="M 2188 4044 
L 1331 1722 
L 3047 1722 
L 2188 4044 
z
M 1831 4666 
L 2547 4666 
L 4325 0 
L 3669 0 
L 3244 1197 
L 1141 1197 
L 716 0 
L 50 0 
L 1831 4666 
z
" transform="scale(0.015625)"/>
      <path id="DejaVuSans-45" d="M 628 4666 
L 3578 4666 
L 3578 4134 
L 1259 4134 
L 1259 2753 
L 3481 2753 
L 3481 2222 
L 1259 2222 
L 1259 531 
L 3634 531 
L 3634 0 
L 628 0 
L 628 4666 
z
" transform="scale(0.015625)"/>
     </defs>
     <use xlink:href="#DejaVuSans-56"/>
     <use xlink:href="#DejaVuSans-41" x="62.033203"/>
     <use xlink:href="#DejaVuSans-45" x="130.441406"/>
    </g>
   </g>
  </g>
  <g id="axes_4">
   <g id="patch_17">
    <path d="M 250.376727 307.872 
L 412.704 307.872 
L 412.704 196.992 
L 250.376727 196.992 
z
" style="fill: #ffffff"/>
   </g>
   <g id="matplotlib.axis_7">
    <g id="xtick_13">
     <g id="line2d_25">
      <g>
       <use xlink:href="#m8231a7871f" x="257.75524" y="307.872" style="stroke: #000000; stroke-width: 0.8"/>
      </g>
     </g>
     <g id="text_25">
      <!-- 0 -->
      <g transform="translate(254.57399 322.470437) scale(0.1 -0.1)">
       <use xlink:href="#DejaVuSans-30"/>
      </g>
     </g>
    </g>
    <g id="xtick_14">
     <g id="line2d_26">
      <g>
       <use xlink:href="#m8231a7871f" x="309.173445" y="307.872" style="stroke: #000000; stroke-width: 0.8"/>
      </g>
     </g>
     <g id="text_26">
      <!-- 100 -->
      <g transform="translate(299.629695 322.470437) scale(0.1 -0.1)">
       <use xlink:href="#DejaVuSans-31"/>
       <use xlink:href="#DejaVuSans-30" x="63.623047"/>
       <use xlink:href="#DejaVuSans-30" x="127.246094"/>
      </g>
     </g>
    </g>
    <g id="xtick_15">
     <g id="line2d_27">
      <g>
       <use xlink:href="#m8231a7871f" x="360.591649" y="307.872" style="stroke: #000000; stroke-width: 0.8"/>
      </g>
     </g>
     <g id="text_27">
      <!-- 200 -->
      <g transform="translate(351.047899 322.470437) scale(0.1 -0.1)">
       <use xlink:href="#DejaVuSans-32"/>
       <use xlink:href="#DejaVuSans-30" x="63.623047"/>
       <use xlink:href="#DejaVuSans-30" x="127.246094"/>
      </g>
     </g>
    </g>
    <g id="xtick_16">
     <g id="line2d_28">
      <g>
       <use xlink:href="#m8231a7871f" x="412.009854" y="307.872" style="stroke: #000000; stroke-width: 0.8"/>
      </g>
     </g>
     <g id="text_28">
      <!-- 300 -->
      <g transform="translate(402.466104 322.470437) scale(0.1 -0.1)">
       <use xlink:href="#DejaVuSans-33"/>
       <use xlink:href="#DejaVuSans-30" x="63.623047"/>
       <use xlink:href="#DejaVuSans-30" x="127.246094"/>
      </g>
     </g>
    </g>
   </g>
   <g id="matplotlib.axis_8">
    <g id="ytick_10">
     <g id="line2d_29">
      <g>
       <use xlink:href="#m1d73768808" x="250.376727" y="302.832" style="stroke: #000000; stroke-width: 0.8"/>
      </g>
     </g>
     <g id="text_29">
      <!-- 0 -->
      <g transform="translate(237.014227 306.631219) scale(0.1 -0.1)">
       <use xlink:href="#DejaVuSans-30"/>
      </g>
     </g>
    </g>
    <g id="ytick_11">
     <g id="line2d_30">
      <g>
       <use xlink:href="#m1d73768808" x="250.376727" y="262.746464" style="stroke: #000000; stroke-width: 0.8"/>
      </g>
     </g>
     <g id="text_30">
      <!-- 20 -->
      <g transform="translate(230.651727 266.545682) scale(0.1 -0.1)">
       <use xlink:href="#DejaVuSans-32"/>
       <use xlink:href="#DejaVuSans-30" x="63.623047"/>
      </g>
     </g>
    </g>
    <g id="ytick_12">
     <g id="line2d_31">
      <g>
       <use xlink:href="#m1d73768808" x="250.376727" y="222.660927" style="stroke: #000000; stroke-width: 0.8"/>
      </g>
     </g>
     <g id="text_31">
      <!-- 40 -->
      <g transform="translate(230.651727 226.460146) scale(0.1 -0.1)">
       <use xlink:href="#DejaVuSans-34"/>
       <use xlink:href="#DejaVuSans-30" x="63.623047"/>
      </g>
     </g>
    </g>
   </g>
   <g id="line2d_32">
    <path d="M 257.75524 202.032 
L 258.269422 224.567732 
L 258.783604 266.445318 
L 259.811968 293.263194 
L 260.32615 299.485032 
L 261.354514 295.319832 
L 262.382878 277.73543 
L 262.89706 263.215043 
L 263.411242 254.318133 
L 263.925424 259.088402 
L 264.439606 268.703305 
L 265.46797 263.865968 
L 266.496334 280.591336 
L 267.010517 278.836756 
L 267.524699 291.994913 
L 268.038881 289.315257 
L 268.553063 280.165042 
L 269.067245 286.75417 
L 270.609791 302.832 
L 278.836704 302.832 
L 279.350886 300.872459 
L 279.865068 301.973516 
L 280.37925 298.795579 
L 280.893432 302.610666 
L 281.407614 299.392867 
L 281.921796 300.63791 
L 282.435978 294.590187 
L 282.95016 293.762531 
L 283.464342 294.698635 
L 283.978524 299.410713 
L 284.492706 300.200032 
L 285.006888 301.710306 
L 285.52107 301.337295 
L 286.035252 301.855965 
L 286.549434 302.832 
L 287.063616 302.832 
L 287.577798 301.586242 
L 288.091981 301.865674 
L 288.606163 302.832 
L 289.120345 302.650996 
L 289.634527 302.832 
L 290.148709 302.832 
L 290.662891 300.589844 
L 291.177073 302.487936 
L 291.691255 302.832 
L 293.233801 302.832 
L 293.747983 300.798599 
L 294.262165 302.361522 
L 294.776347 302.832 
L 304.545806 302.832 
L 305.059988 298.753756 
L 305.57417 302.832 
L 306.088352 301.12527 
L 306.602534 302.832 
L 307.116716 299.004423 
L 307.630898 296.575009 
L 308.14508 292.239617 
L 308.659262 292.123019 
L 309.173445 289.926213 
L 309.687627 293.400729 
L 310.201809 292.460914 
L 310.715991 292.063093 
L 311.230173 294.157594 
L 311.744355 295.481269 
L 312.258537 298.110255 
L 312.772719 299.129822 
L 313.286901 299.077302 
L 313.801083 302.173174 
L 314.315265 301.901404 
L 314.829447 298.38544 
L 315.343629 300.690607 
L 315.857811 302.484913 
L 316.371993 300.748552 
L 316.886175 300.848049 
L 317.400357 295.3083 
L 317.914539 302.832 
L 318.942903 302.832 
L 319.971268 297.454996 
L 320.48545 298.766567 
L 320.999632 295.375689 
L 321.513814 301.592299 
L 322.027996 302.832 
L 322.542178 302.120438 
L 323.05636 300.263162 
L 323.570542 297.852376 
L 324.084724 297.271551 
L 324.598906 296.876416 
L 325.113088 296.691279 
L 325.62727 302.820185 
L 326.141452 298.924562 
L 326.655634 301.279994 
L 327.169816 302.225596 
L 327.683998 302.435177 
L 328.19818 300.006102 
L 328.712362 301.258108 
L 329.226544 302.832 
L 331.283273 302.832 
L 331.797455 300.244294 
L 332.311637 301.959075 
L 332.825819 302.832 
L 333.854183 302.832 
L 334.368365 301.876475 
L 334.882547 300.677932 
L 335.396729 300.020922 
L 335.910911 302.832 
L 348.765462 302.832 
L 349.279644 298.967217 
L 349.793826 299.462688 
L 350.308008 302.832 
L 383.21566 302.832 
L 383.729842 299.691671 
L 384.244024 302.832 
L 405.325488 302.832 
L 405.325488 302.832 
" clip-path="url(#p3680654a57)" style="fill: none; stroke: #ff0000; stroke-width: 1.5; stroke-linecap: square"/>
   </g>
   <g id="patch_18">
    <path d="M 250.376727 307.872 
L 250.376727 196.992 
" style="fill: none; stroke: #000000; stroke-width: 0.8; stroke-linejoin: miter; stroke-linecap: square"/>
   </g>
   <g id="patch_19">
    <path d="M 412.704 307.872 
L 412.704 196.992 
" style="fill: none; stroke: #000000; stroke-width: 0.8; stroke-linejoin: miter; stroke-linecap: square"/>
   </g>
   <g id="patch_20">
    <path d="M 250.376727 307.872 
L 412.704 307.872 
" style="fill: none; stroke: #000000; stroke-width: 0.8; stroke-linejoin: miter; stroke-linecap: square"/>
   </g>
   <g id="patch_21">
    <path d="M 250.376727 196.992 
L 412.704 196.992 
" style="fill: none; stroke: #000000; stroke-width: 0.8; stroke-linejoin: miter; stroke-linecap: square"/>
   </g>
   <g id="text_32">
    <!-- VRNN -->
    <g transform="translate(314.289426 190.992) scale(0.12 -0.12)">
     <use xlink:href="#DejaVuSans-56"/>
     <use xlink:href="#DejaVuSans-52" x="68.408203"/>
     <use xlink:href="#DejaVuSans-4e" x="137.890625"/>
     <use xlink:href="#DejaVuSans-4e" x="212.695312"/>
    </g>
   </g>
  </g>
  <g id="text_33">
   <!-- VMAF Scores Over Frames: Video #15 -->
   <g transform="translate(114.338063 16.318125) scale(0.12 -0.12)">
    <defs>
     <path id="DejaVuSans-4d" d="M 628 4666 
L 1569 4666 
L 2759 1491 
L 3956 4666 
L 4897 4666 
L 4897 0 
L 4281 0 
L 4281 4097 
L 3078 897 
L 2444 897 
L 1241 4097 
L 1241 0 
L 628 0 
L 628 4666 
z
" transform="scale(0.015625)"/>
     <path id="DejaVuSans-73" d="M 2834 3397 
L 2834 2853 
Q 2591 2978 2328 3040 
Q 2066 3103 1784 3103 
Q 1356 3103 1142 2972 
Q 928 2841 928 2578 
Q 928 2378 1081 2264 
Q 1234 2150 1697 2047 
L 1894 2003 
Q 2506 1872 2764 1633 
Q 3022 1394 3022 966 
Q 3022 478 2636 193 
Q 2250 -91 1575 -91 
Q 1294 -91 989 -36 
Q 684 19 347 128 
L 347 722 
Q 666 556 975 473 
Q 1284 391 1588 391 
Q 1994 391 2212 530 
Q 2431 669 2431 922 
Q 2431 1156 2273 1281 
Q 2116 1406 1581 1522 
L 1381 1569 
Q 847 1681 609 1914 
Q 372 2147 372 2553 
Q 372 3047 722 3315 
Q 1072 3584 1716 3584 
Q 2034 3584 2315 3537 
Q 2597 3491 2834 3397 
z
" transform="scale(0.015625)"/>
     <path id="DejaVuSans-76" d="M 191 3500 
L 800 3500 
L 1894 563 
L 2988 3500 
L 3597 3500 
L 2284 0 
L 1503 0 
L 191 3500 
z
" transform="scale(0.015625)"/>
     <path id="DejaVuSans-61" d="M 2194 1759 
Q 1497 1759 1228 1600 
Q 959 1441 959 1056 
Q 959 750 1161 570 
Q 1363 391 1709 391 
Q 2188 391 2477 730 
Q 2766 1069 2766 1631 
L 2766 1759 
L 2194 1759 
z
M 3341 1997 
L 3341 0 
L 2766 0 
L 2766 531 
Q 2569 213 2275 61 
Q 1981 -91 1556 -91 
Q 1019 -91 701 211 
Q 384 513 384 1019 
Q 384 1609 779 1909 
Q 1175 2209 1959 2209 
L 2766 2209 
L 2766 2266 
Q 2766 2663 2505 2880 
Q 2244 3097 1772 3097 
Q 1472 3097 1187 3025 
Q 903 2953 641 2809 
L 641 3341 
Q 956 3463 1253 3523 
Q 1550 3584 1831 3584 
Q 2591 3584 2966 3190 
Q 3341 2797 3341 1997 
z
" transform="scale(0.015625)"/>
     <path id="DejaVuSans-6d" d="M 3328 2828 
Q 3544 3216 3844 3400 
Q 4144 3584 4550 3584 
Q 5097 3584 5394 3201 
Q 5691 2819 5691 2113 
L 5691 0 
L 5113 0 
L 5113 2094 
Q 5113 2597 4934 2840 
Q 4756 3084 4391 3084 
Q 3944 3084 3684 2787 
Q 3425 2491 3425 1978 
L 3425 0 
L 2847 0 
L 2847 2094 
Q 2847 2600 2669 2842 
Q 2491 3084 2119 3084 
Q 1678 3084 1418 2786 
Q 1159 2488 1159 1978 
L 1159 0 
L 581 0 
L 581 3500 
L 1159 3500 
L 1159 2956 
Q 1356 3278 1631 3431 
Q 1906 3584 2284 3584 
Q 2666 3584 2933 3390 
Q 3200 3197 3328 2828 
z
" transform="scale(0.015625)"/>
     <path id="DejaVuSans-3a" d="M 750 794 
L 1409 794 
L 1409 0 
L 750 0 
L 750 794 
z
M 750 3309 
L 1409 3309 
L 1409 2516 
L 750 2516 
L 750 3309 
z
" transform="scale(0.015625)"/>
     <path id="DejaVuSans-23" d="M 3272 2816 
L 2363 2816 
L 2100 1772 
L 3016 1772 
L 3272 2816 
z
M 2803 4594 
L 2478 3297 
L 3391 3297 
L 3719 4594 
L 4219 4594 
L 3897 3297 
L 4872 3297 
L 4872 2816 
L 3775 2816 
L 3519 1772 
L 4513 1772 
L 4513 1294 
L 3397 1294 
L 3072 0 
L 2572 0 
L 2894 1294 
L 1978 1294 
L 1656 0 
L 1153 0 
L 1478 1294 
L 494 1294 
L 494 1772 
L 1594 1772 
L 1856 2816 
L 850 2816 
L 850 3297 
L 1978 3297 
L 2297 4594 
L 2803 4594 
z
" transform="scale(0.015625)"/>
     <path id="DejaVuSans-35" d="M 691 4666 
L 3169 4666 
L 3169 4134 
L 1269 4134 
L 1269 2991 
Q 1406 3038 1543 3061 
Q 1681 3084 1819 3084 
Q 2600 3084 3056 2656 
Q 3513 2228 3513 1497 
Q 3513 744 3044 326 
Q 2575 -91 1722 -91 
Q 1428 -91 1123 -41 
Q 819 9 494 109 
L 494 744 
Q 775 591 1075 516 
Q 1375 441 1709 441 
Q 2250 441 2565 725 
Q 2881 1009 2881 1497 
Q 2881 1984 2565 2268 
Q 2250 2553 1709 2553 
Q 1456 2553 1204 2497 
Q 953 2441 691 2322 
L 691 4666 
z
" transform="scale(0.015625)"/>
    </defs>
    <use xlink:href="#DejaVuSans-56"/>
    <use xlink:href="#DejaVuSans-4d" x="68.408203"/>
    <use xlink:href="#DejaVuSans-41" x="154.6875"/>
    <use xlink:href="#DejaVuSans-46" x="223.095703"/>
    <use xlink:href="#DejaVuSans-20" x="280.615234"/>
    <use xlink:href="#DejaVuSans-53" x="312.402344"/>
    <use xlink:href="#DejaVuSans-63" x="375.878906"/>
    <use xlink:href="#DejaVuSans-6f" x="430.859375"/>
    <use xlink:href="#DejaVuSans-72" x="492.041016"/>
    <use xlink:href="#DejaVuSans-65" x="530.904297"/>
    <use xlink:href="#DejaVuSans-73" x="592.427734"/>
    <use xlink:href="#DejaVuSans-20" x="644.527344"/>
    <use xlink:href="#DejaVuSans-4f" x="676.314453"/>
    <use xlink:href="#DejaVuSans-76" x="755.025391"/>
    <use xlink:href="#DejaVuSans-65" x="814.205078"/>
    <use xlink:href="#DejaVuSans-72" x="875.728516"/>
    <use xlink:href="#DejaVuSans-20" x="916.841797"/>
    <use xlink:href="#DejaVuSans-46" x="948.628906"/>
    <use xlink:href="#DejaVuSans-72" x="998.898438"/>
    <use xlink:href="#DejaVuSans-61" x="1040.011719"/>
    <use xlink:href="#DejaVuSans-6d" x="1101.291016"/>
    <use xlink:href="#DejaVuSans-65" x="1198.703125"/>
    <use xlink:href="#DejaVuSans-73" x="1260.226562"/>
    <use xlink:href="#DejaVuSans-3a" x="1312.326172"/>
    <use xlink:href="#DejaVuSans-20" x="1346.017578"/>
    <use xlink:href="#DejaVuSans-56" x="1377.804688"/>
    <use xlink:href="#DejaVuSans-69" x="1443.962891"/>
    <use xlink:href="#DejaVuSans-64" x="1471.746094"/>
    <use xlink:href="#DejaVuSans-65" x="1535.222656"/>
    <use xlink:href="#DejaVuSans-6f" x="1596.746094"/>
    <use xlink:href="#DejaVuSans-20" x="1657.927734"/>
    <use xlink:href="#DejaVuSans-23" x="1689.714844"/>
    <use xlink:href="#DejaVuSans-31" x="1773.503906"/>
    <use xlink:href="#DejaVuSans-35" x="1837.126953"/>
   </g>
  </g>
  <g id="text_34">
   <!-- Video Frames -->
   <g transform="translate(187.847438 339.936375) scale(0.12 -0.12)">
    <use xlink:href="#DejaVuSans-56"/>
    <use xlink:href="#DejaVuSans-69" x="66.158203"/>
    <use xlink:href="#DejaVuSans-64" x="93.941406"/>
    <use xlink:href="#DejaVuSans-65" x="157.417969"/>
    <use xlink:href="#DejaVuSans-6f" x="218.941406"/>
    <use xlink:href="#DejaVuSans-20" x="280.123047"/>
    <use xlink:href="#DejaVuSans-46" x="311.910156"/>
    <use xlink:href="#DejaVuSans-72" x="362.179688"/>
    <use xlink:href="#DejaVuSans-61" x="403.292969"/>
    <use xlink:href="#DejaVuSans-6d" x="464.572266"/>
    <use xlink:href="#DejaVuSans-65" x="561.984375"/>
    <use xlink:href="#DejaVuSans-73" x="623.507812"/>
   </g>
  </g>
  <g id="text_35">
   <!-- Raw VMAF Scores -->
   <g transform="translate(16.318125 226.284562) rotate(-90) scale(0.12 -0.12)">
    <defs>
     <path id="DejaVuSans-77" d="M 269 3500 
L 844 3500 
L 1563 769 
L 2278 3500 
L 2956 3500 
L 3675 769 
L 4391 3500 
L 4966 3500 
L 4050 0 
L 3372 0 
L 2619 2869 
L 1863 0 
L 1184 0 
L 269 3500 
z
" transform="scale(0.015625)"/>
    </defs>
    <use xlink:href="#DejaVuSans-52"/>
    <use xlink:href="#DejaVuSans-61" x="67.232422"/>
    <use xlink:href="#DejaVuSans-77" x="128.511719"/>
    <use xlink:href="#DejaVuSans-20" x="210.298828"/>
    <use xlink:href="#DejaVuSans-56" x="242.085938"/>
    <use xlink:href="#DejaVuSans-4d" x="310.494141"/>
    <use xlink:href="#DejaVuSans-41" x="396.773438"/>
    <use xlink:href="#DejaVuSans-46" x="465.181641"/>
    <use xlink:href="#DejaVuSans-20" x="522.701172"/>
    <use xlink:href="#DejaVuSans-53" x="554.488281"/>
    <use xlink:href="#DejaVuSans-63" x="617.964844"/>
    <use xlink:href="#DejaVuSans-6f" x="672.945312"/>
    <use xlink:href="#DejaVuSans-72" x="734.126953"/>
    <use xlink:href="#DejaVuSans-65" x="772.990234"/>
    <use xlink:href="#DejaVuSans-73" x="834.513672"/>
   </g>
  </g>
 </g>
 <defs>
  <clipPath id="p3eea492702">
   <rect x="55.584" y="41.76" width="162.327273" height="110.88"/>
  </clipPath>
  <clipPath id="p94743a0b49">
   <rect x="250.376727" y="41.76" width="162.327273" height="110.88"/>
  </clipPath>
  <clipPath id="p326bb232b9">
   <rect x="55.584" y="196.992" width="162.327273" height="110.88"/>
  </clipPath>
  <clipPath id="p3680654a57">
   <rect x="250.376727" y="196.992" width="162.327273" height="110.88"/>
  </clipPath>
 </defs>
</svg>
