<?xml version="1.0" encoding="utf-8" standalone="no"?>
<!DOCTYPE svg PUBLIC "-//W3C//DTD SVG 1.1//EN"
  "http://www.w3.org/Graphics/SVG/1.1/DTD/svg11.dtd">
<svg xmlns:xlink="http://www.w3.org/1999/xlink" width="429.022809pt" height="349.632pt" viewBox="0 0 429.022809 349.632" xmlns="http://www.w3.org/2000/svg" version="1.1">
 <metadata>
  <rdf:RDF xmlns:dc="http://purl.org/dc/elements/1.1/" xmlns:cc="http://creativecommons.org/ns#" xmlns:rdf="http://www.w3.org/1999/02/22-rdf-syntax-ns#">
   <cc:Work>
    <dc:type rdf:resource="http://purl.org/dc/dcmitype/StillImage"/>
    <dc:date>2024-07-24T16:31:58.165483</dc:date>
    <dc:format>image/svg+xml</dc:format>
    <dc:creator>
     <cc:Agent>
      <dc:title>Matplotlib v3.7.2, https://matplotlib.org/</dc:title>
     </cc:Agent>
    </dc:creator>
   </cc:Work>
  </rdf:RDF>
 </metadata>
 <defs>
  <style type="text/css">*{stroke-linejoin: round; stroke-linecap: butt}</style>
 </defs>
 <g id="figure_1">
  <g id="patch_1">
   <path d="M 0 349.632 
L 429.022809 349.632 
L 429.022809 -0 
L 0 -0 
z
" style="fill: #ffffff"/>
  </g>
  <g id="axes_1">
   <g id="patch_2">
    <path d="M 55.584 152.64 
L 217.911273 152.64 
L 217.911273 41.76 
L 55.584 41.76 
z
" style="fill: #ffffff"/>
   </g>
   <g id="matplotlib.axis_1">
    <g id="xtick_1">
     <g id="line2d_1">
      <defs>
       <path id="m1d95117e40" d="M 0 0 
L 0 3.5 
" style="stroke: #000000; stroke-width: 0.8"/>
      </defs>
      <g>
       <use xlink:href="#m1d95117e40" x="62.962512" y="152.64" style="stroke: #000000; stroke-width: 0.8"/>
      </g>
     </g>
     <g id="text_1">
      <!-- 0 -->
      <g transform="translate(59.781262 167.238437) scale(0.1 -0.1)">
       <defs>
        <path id="DejaVuSans-30" d="M 2034 4250 
Q 1547 4250 1301 3770 
Q 1056 3291 1056 2328 
Q 1056 1369 1301 889 
Q 1547 409 2034 409 
Q 2525 409 2770 889 
Q 3016 1369 3016 2328 
Q 3016 3291 2770 3770 
Q 2525 4250 2034 4250 
z
M 2034 4750 
Q 2819 4750 3233 4129 
Q 3647 3509 3647 2328 
Q 3647 1150 3233 529 
Q 2819 -91 2034 -91 
Q 1250 -91 836 529 
Q 422 1150 422 2328 
Q 422 3509 836 4129 
Q 1250 4750 2034 4750 
z
" transform="scale(0.015625)"/>
       </defs>
       <use xlink:href="#DejaVuSans-30"/>
      </g>
     </g>
    </g>
    <g id="xtick_2">
     <g id="line2d_2">
      <g>
       <use xlink:href="#m1d95117e40" x="101.593467" y="152.64" style="stroke: #000000; stroke-width: 0.8"/>
      </g>
     </g>
     <g id="text_2">
      <!-- 50 -->
      <g transform="translate(95.230967 167.238437) scale(0.1 -0.1)">
       <defs>
        <path id="DejaVuSans-35" d="M 691 4666 
L 3169 4666 
L 3169 4134 
L 1269 4134 
L 1269 2991 
Q 1406 3038 1543 3061 
Q 1681 3084 1819 3084 
Q 2600 3084 3056 2656 
Q 3513 2228 3513 1497 
Q 3513 744 3044 326 
Q 2575 -91 1722 -91 
Q 1428 -91 1123 -41 
Q 819 9 494 109 
L 494 744 
Q 775 591 1075 516 
Q 1375 441 1709 441 
Q 2250 441 2565 725 
Q 2881 1009 2881 1497 
Q 2881 1984 2565 2268 
Q 2250 2553 1709 2553 
Q 1456 2553 1204 2497 
Q 953 2441 691 2322 
L 691 4666 
z
" transform="scale(0.015625)"/>
       </defs>
       <use xlink:href="#DejaVuSans-35"/>
       <use xlink:href="#DejaVuSans-30" x="63.623047"/>
      </g>
     </g>
    </g>
    <g id="xtick_3">
     <g id="line2d_3">
      <g>
       <use xlink:href="#m1d95117e40" x="140.224422" y="152.64" style="stroke: #000000; stroke-width: 0.8"/>
      </g>
     </g>
     <g id="text_3">
      <!-- 100 -->
      <g transform="translate(130.680672 167.238437) scale(0.1 -0.1)">
       <defs>
        <path id="DejaVuSans-31" d="M 794 531 
L 1825 531 
L 1825 4091 
L 703 3866 
L 703 4441 
L 1819 4666 
L 2450 4666 
L 2450 531 
L 3481 531 
L 3481 0 
L 794 0 
L 794 531 
z
" transform="scale(0.015625)"/>
       </defs>
       <use xlink:href="#DejaVuSans-31"/>
       <use xlink:href="#DejaVuSans-30" x="63.623047"/>
       <use xlink:href="#DejaVuSans-30" x="127.246094"/>
      </g>
     </g>
    </g>
    <g id="xtick_4">
     <g id="line2d_4">
      <g>
       <use xlink:href="#m1d95117e40" x="178.855377" y="152.64" style="stroke: #000000; stroke-width: 0.8"/>
      </g>
     </g>
     <g id="text_4">
      <!-- 150 -->
      <g transform="translate(169.311627 167.238437) scale(0.1 -0.1)">
       <use xlink:href="#DejaVuSans-31"/>
       <use xlink:href="#DejaVuSans-35" x="63.623047"/>
       <use xlink:href="#DejaVuSans-30" x="127.246094"/>
      </g>
     </g>
    </g>
    <g id="xtick_5">
     <g id="line2d_5">
      <g>
       <use xlink:href="#m1d95117e40" x="217.486332" y="152.64" style="stroke: #000000; stroke-width: 0.8"/>
      </g>
     </g>
     <g id="text_5">
      <!-- 200 -->
      <g transform="translate(207.942582 167.238437) scale(0.1 -0.1)">
       <defs>
        <path id="DejaVuSans-32" d="M 1228 531 
L 3431 531 
L 3431 0 
L 469 0 
L 469 531 
Q 828 903 1448 1529 
Q 2069 2156 2228 2338 
Q 2531 2678 2651 2914 
Q 2772 3150 2772 3378 
Q 2772 3750 2511 3984 
Q 2250 4219 1831 4219 
Q 1534 4219 1204 4116 
Q 875 4013 500 3803 
L 500 4441 
Q 881 4594 1212 4672 
Q 1544 4750 1819 4750 
Q 2544 4750 2975 4387 
Q 3406 4025 3406 3419 
Q 3406 3131 3298 2873 
Q 3191 2616 2906 2266 
Q 2828 2175 2409 1742 
Q 1991 1309 1228 531 
z
" transform="scale(0.015625)"/>
       </defs>
       <use xlink:href="#DejaVuSans-32"/>
       <use xlink:href="#DejaVuSans-30" x="63.623047"/>
       <use xlink:href="#DejaVuSans-30" x="127.246094"/>
      </g>
     </g>
    </g>
   </g>
   <g id="matplotlib.axis_2">
    <g id="ytick_1">
     <g id="line2d_6">
      <defs>
       <path id="m215fe77f8d" d="M 0 0 
L -3.5 0 
" style="stroke: #000000; stroke-width: 0.8"/>
      </defs>
      <g>
       <use xlink:href="#m215fe77f8d" x="55.584" y="147.6" style="stroke: #000000; stroke-width: 0.8"/>
      </g>
     </g>
     <g id="text_6">
      <!-- 0 -->
      <g transform="translate(42.2215 151.399219) scale(0.1 -0.1)">
       <use xlink:href="#DejaVuSans-30"/>
      </g>
     </g>
    </g>
    <g id="ytick_2">
     <g id="line2d_7">
      <g>
       <use xlink:href="#m215fe77f8d" x="55.584" y="109.486928" style="stroke: #000000; stroke-width: 0.8"/>
      </g>
     </g>
     <g id="text_7">
      <!-- 20 -->
      <g transform="translate(35.859 113.286147) scale(0.1 -0.1)">
       <use xlink:href="#DejaVuSans-32"/>
       <use xlink:href="#DejaVuSans-30" x="63.623047"/>
      </g>
     </g>
    </g>
    <g id="ytick_3">
     <g id="line2d_8">
      <g>
       <use xlink:href="#m215fe77f8d" x="55.584" y="71.373857" style="stroke: #000000; stroke-width: 0.8"/>
      </g>
     </g>
     <g id="text_8">
      <!-- 40 -->
      <g transform="translate(35.859 75.173075) scale(0.1 -0.1)">
       <defs>
        <path id="DejaVuSans-34" d="M 2419 4116 
L 825 1625 
L 2419 1625 
L 2419 4116 
z
M 2253 4666 
L 3047 4666 
L 3047 1625 
L 3713 1625 
L 3713 1100 
L 3047 1100 
L 3047 0 
L 2419 0 
L 2419 1100 
L 313 1100 
L 313 1709 
L 2253 4666 
z
" transform="scale(0.015625)"/>
       </defs>
       <use xlink:href="#DejaVuSans-34"/>
       <use xlink:href="#DejaVuSans-30" x="63.623047"/>
      </g>
     </g>
    </g>
   </g>
   <g id="line2d_9">
    <path d="M 62.962512 49.936574 
L 63.735131 47.186594 
L 64.507751 46.8 
L 65.28037 51.505539 
L 66.052989 58.155672 
L 66.825608 58.55724 
L 67.598227 61.435999 
L 68.370846 63.744041 
L 69.143465 63.03395 
L 69.916084 61.107542 
L 71.461322 62.920206 
L 72.233942 65.465974 
L 73.006561 66.818737 
L 73.77918 66.521199 
L 74.551799 69.601671 
L 75.324418 69.734545 
L 76.097037 67.628862 
L 76.869656 62.448831 
L 77.642275 63.808469 
L 78.414894 67.970395 
L 81.505371 106.465993 
L 82.27799 108.820264 
L 83.050609 109.144017 
L 83.823228 114.107866 
L 86.141085 109.009291 
L 86.913704 105.934952 
L 87.686324 105.452381 
L 88.458943 106.792164 
L 89.231562 103.209864 
L 90.004181 102.682544 
L 90.7768 106.62351 
L 91.549419 113.246943 
L 92.322038 116.824886 
L 93.094657 110.411504 
L 93.867276 106.299606 
L 94.639895 107.082971 
L 95.412515 109.607808 
L 96.185134 110.823399 
L 96.957753 110.707593 
L 97.730372 113.05754 
L 98.502991 114.442481 
L 99.27561 114.204418 
L 100.048229 114.846211 
L 100.820848 118.874948 
L 101.593467 117.805283 
L 102.366086 117.187655 
L 103.138706 118.719387 
L 103.911325 113.690105 
L 104.683944 110.924102 
L 106.229182 121.753333 
L 107.001801 124.632333 
L 107.77442 123.956649 
L 108.547039 124.02518 
L 109.319658 124.371947 
L 110.864897 129.434935 
L 111.637516 130.820493 
L 112.410135 131.035188 
L 113.182754 133.57466 
L 113.955373 135.659243 
L 114.727992 137.194691 
L 115.500611 137.143927 
L 116.27323 134.125527 
L 117.045849 135.021076 
L 118.591088 130.257901 
L 120.136326 123.579223 
L 120.908945 123.353788 
L 121.681564 128.117086 
L 122.454183 128.658413 
L 123.226802 124.807381 
L 123.999421 122.01852 
L 124.77204 122.583153 
L 125.544659 124.216988 
L 126.317279 121.991135 
L 127.089898 120.784113 
L 127.862517 121.843352 
L 128.635136 121.851359 
L 129.407755 120.532876 
L 130.180374 117.695371 
L 130.952993 116.758868 
L 131.725612 118.664163 
L 132.498231 119.161219 
L 133.27085 119.483089 
L 134.04347 118.707351 
L 134.816089 120.175993 
L 135.588708 119.336005 
L 136.361327 118.873076 
L 137.133946 119.037395 
L 137.906565 119.885491 
L 138.679184 116.863809 
L 139.451803 116.880992 
L 140.224422 115.146998 
L 140.997041 116.041542 
L 142.54228 117.168786 
L 143.314899 118.112822 
L 144.087518 118.631091 
L 144.860137 108.824285 
L 145.632756 96.45738 
L 146.405375 96.162029 
L 147.177994 85.160999 
L 147.950613 80.017148 
L 148.723232 91.257383 
L 149.495851 84.005851 
L 150.268471 87.330843 
L 151.04109 72.211717 
L 151.813709 86.87656 
L 152.586328 76.968972 
L 153.358947 88.385397 
L 154.131566 81.906116 
L 154.904185 77.296453 
L 155.676804 80.54757 
L 156.449423 87.39267 
L 157.222042 96.710249 
L 157.994662 97.033945 
L 158.767281 102.890705 
L 159.5399 103.005802 
L 160.312519 102.304261 
L 161.085138 98.601488 
L 161.857757 107.670939 
L 162.630376 111.698647 
L 163.402995 111.530128 
L 164.175614 107.769885 
L 164.948233 103.43635 
L 165.720853 100.557007 
L 166.493472 104.718964 
L 167.266091 99.063049 
L 168.03871 92.243658 
L 168.811329 90.246464 
L 169.583948 90.069208 
L 170.356567 89.753849 
L 171.129186 87.821406 
L 171.901805 79.63702 
L 172.674424 84.967789 
L 173.447044 87.564032 
L 174.219663 84.986094 
L 174.992282 87.551725 
L 175.764901 88.204273 
L 176.53752 91.964827 
L 177.310139 92.638795 
L 178.082758 93.066862 
L 178.855377 94.673843 
L 179.627996 95.096835 
L 180.400615 90.504337 
L 181.173235 89.780342 
L 181.945854 87.676294 
L 182.718473 96.812682 
L 183.491092 98.702276 
L 184.263711 92.427616 
L 185.03633 99.647568 
L 185.808949 101.561018 
L 186.581568 98.747339 
L 187.354187 97.274984 
L 188.126806 100.621123 
L 188.899426 96.920138 
L 189.672045 91.22534 
L 191.217283 88.053122 
L 191.989902 90.771508 
L 192.762521 92.296723 
L 193.53514 91.469724 
L 195.080378 84.708203 
L 195.852997 87.374431 
L 196.625617 88.966822 
L 197.398236 91.66788 
L 198.170855 91.043845 
L 198.943474 86.196474 
L 199.716093 86.819108 
L 201.261331 99.44769 
L 202.03395 100.466879 
L 203.579188 116.072381 
L 204.351808 142.910854 
L 205.124427 138.772752 
L 205.897046 147.6 
L 208.987522 147.6 
L 209.760141 136.817126 
L 210.53276 128.60276 
L 210.53276 128.60276 
" clip-path="url(#p568e7c1348)" style="fill: none; stroke: #008000; stroke-width: 1.5; stroke-linecap: square"/>
   </g>
   <g id="patch_3">
    <path d="M 55.584 152.64 
L 55.584 41.76 
" style="fill: none; stroke: #000000; stroke-width: 0.8; stroke-linejoin: miter; stroke-linecap: square"/>
   </g>
   <g id="patch_4">
    <path d="M 217.911273 152.64 
L 217.911273 41.76 
" style="fill: none; stroke: #000000; stroke-width: 0.8; stroke-linejoin: miter; stroke-linecap: square"/>
   </g>
   <g id="patch_5">
    <path d="M 55.584 152.64 
L 217.911273 152.64 
" style="fill: none; stroke: #000000; stroke-width: 0.8; stroke-linejoin: miter; stroke-linecap: square"/>
   </g>
   <g id="patch_6">
    <path d="M 55.584 41.76 
L 217.911273 41.76 
" style="fill: none; stroke: #000000; stroke-width: 0.8; stroke-linejoin: miter; stroke-linecap: square"/>
   </g>
   <g id="text_9">
    <!-- No Prediction (FOSS) -->
    <g transform="translate(74.495761 35.76) scale(0.12 -0.12)">
     <defs>
      <path id="DejaVuSans-4e" d="M 628 4666 
L 1478 4666 
L 3547 763 
L 3547 4666 
L 4159 4666 
L 4159 0 
L 3309 0 
L 1241 3903 
L 1241 0 
L 628 0 
L 628 4666 
z
" transform="scale(0.015625)"/>
      <path id="DejaVuSans-6f" d="M 1959 3097 
Q 1497 3097 1228 2736 
Q 959 2375 959 1747 
Q 959 1119 1226 758 
Q 1494 397 1959 397 
Q 2419 397 2687 759 
Q 2956 1122 2956 1747 
Q 2956 2369 2687 2733 
Q 2419 3097 1959 3097 
z
M 1959 3584 
Q 2709 3584 3137 3096 
Q 3566 2609 3566 1747 
Q 3566 888 3137 398 
Q 2709 -91 1959 -91 
Q 1206 -91 779 398 
Q 353 888 353 1747 
Q 353 2609 779 3096 
Q 1206 3584 1959 3584 
z
" transform="scale(0.015625)"/>
      <path id="DejaVuSans-20" transform="scale(0.015625)"/>
      <path id="DejaVuSans-50" d="M 1259 4147 
L 1259 2394 
L 2053 2394 
Q 2494 2394 2734 2622 
Q 2975 2850 2975 3272 
Q 2975 3691 2734 3919 
Q 2494 4147 2053 4147 
L 1259 4147 
z
M 628 4666 
L 2053 4666 
Q 2838 4666 3239 4311 
Q 3641 3956 3641 3272 
Q 3641 2581 3239 2228 
Q 2838 1875 2053 1875 
L 1259 1875 
L 1259 0 
L 628 0 
L 628 4666 
z
" transform="scale(0.015625)"/>
      <path id="DejaVuSans-72" d="M 2631 2963 
Q 2534 3019 2420 3045 
Q 2306 3072 2169 3072 
Q 1681 3072 1420 2755 
Q 1159 2438 1159 1844 
L 1159 0 
L 581 0 
L 581 3500 
L 1159 3500 
L 1159 2956 
Q 1341 3275 1631 3429 
Q 1922 3584 2338 3584 
Q 2397 3584 2469 3576 
Q 2541 3569 2628 3553 
L 2631 2963 
z
" transform="scale(0.015625)"/>
      <path id="DejaVuSans-65" d="M 3597 1894 
L 3597 1613 
L 953 1613 
Q 991 1019 1311 708 
Q 1631 397 2203 397 
Q 2534 397 2845 478 
Q 3156 559 3463 722 
L 3463 178 
Q 3153 47 2828 -22 
Q 2503 -91 2169 -91 
Q 1331 -91 842 396 
Q 353 884 353 1716 
Q 353 2575 817 3079 
Q 1281 3584 2069 3584 
Q 2775 3584 3186 3129 
Q 3597 2675 3597 1894 
z
M 3022 2063 
Q 3016 2534 2758 2815 
Q 2500 3097 2075 3097 
Q 1594 3097 1305 2825 
Q 1016 2553 972 2059 
L 3022 2063 
z
" transform="scale(0.015625)"/>
      <path id="DejaVuSans-64" d="M 2906 2969 
L 2906 4863 
L 3481 4863 
L 3481 0 
L 2906 0 
L 2906 525 
Q 2725 213 2448 61 
Q 2172 -91 1784 -91 
Q 1150 -91 751 415 
Q 353 922 353 1747 
Q 353 2572 751 3078 
Q 1150 3584 1784 3584 
Q 2172 3584 2448 3432 
Q 2725 3281 2906 2969 
z
M 947 1747 
Q 947 1113 1208 752 
Q 1469 391 1925 391 
Q 2381 391 2643 752 
Q 2906 1113 2906 1747 
Q 2906 2381 2643 2742 
Q 2381 3103 1925 3103 
Q 1469 3103 1208 2742 
Q 947 2381 947 1747 
z
" transform="scale(0.015625)"/>
      <path id="DejaVuSans-69" d="M 603 3500 
L 1178 3500 
L 1178 0 
L 603 0 
L 603 3500 
z
M 603 4863 
L 1178 4863 
L 1178 4134 
L 603 4134 
L 603 4863 
z
" transform="scale(0.015625)"/>
      <path id="DejaVuSans-63" d="M 3122 3366 
L 3122 2828 
Q 2878 2963 2633 3030 
Q 2388 3097 2138 3097 
Q 1578 3097 1268 2742 
Q 959 2388 959 1747 
Q 959 1106 1268 751 
Q 1578 397 2138 397 
Q 2388 397 2633 464 
Q 2878 531 3122 666 
L 3122 134 
Q 2881 22 2623 -34 
Q 2366 -91 2075 -91 
Q 1284 -91 818 406 
Q 353 903 353 1747 
Q 353 2603 823 3093 
Q 1294 3584 2113 3584 
Q 2378 3584 2631 3529 
Q 2884 3475 3122 3366 
z
" transform="scale(0.015625)"/>
      <path id="DejaVuSans-74" d="M 1172 4494 
L 1172 3500 
L 2356 3500 
L 2356 3053 
L 1172 3053 
L 1172 1153 
Q 1172 725 1289 603 
Q 1406 481 1766 481 
L 2356 481 
L 2356 0 
L 1766 0 
Q 1100 0 847 248 
Q 594 497 594 1153 
L 594 3053 
L 172 3053 
L 172 3500 
L 594 3500 
L 594 4494 
L 1172 4494 
z
" transform="scale(0.015625)"/>
      <path id="DejaVuSans-6e" d="M 3513 2113 
L 3513 0 
L 2938 0 
L 2938 2094 
Q 2938 2591 2744 2837 
Q 2550 3084 2163 3084 
Q 1697 3084 1428 2787 
Q 1159 2491 1159 1978 
L 1159 0 
L 581 0 
L 581 3500 
L 1159 3500 
L 1159 2956 
Q 1366 3272 1645 3428 
Q 1925 3584 2291 3584 
Q 2894 3584 3203 3211 
Q 3513 2838 3513 2113 
z
" transform="scale(0.015625)"/>
      <path id="DejaVuSans-28" d="M 1984 4856 
Q 1566 4138 1362 3434 
Q 1159 2731 1159 2009 
Q 1159 1288 1364 580 
Q 1569 -128 1984 -844 
L 1484 -844 
Q 1016 -109 783 600 
Q 550 1309 550 2009 
Q 550 2706 781 3412 
Q 1013 4119 1484 4856 
L 1984 4856 
z
" transform="scale(0.015625)"/>
      <path id="DejaVuSans-46" d="M 628 4666 
L 3309 4666 
L 3309 4134 
L 1259 4134 
L 1259 2759 
L 3109 2759 
L 3109 2228 
L 1259 2228 
L 1259 0 
L 628 0 
L 628 4666 
z
" transform="scale(0.015625)"/>
      <path id="DejaVuSans-4f" d="M 2522 4238 
Q 1834 4238 1429 3725 
Q 1025 3213 1025 2328 
Q 1025 1447 1429 934 
Q 1834 422 2522 422 
Q 3209 422 3611 934 
Q 4013 1447 4013 2328 
Q 4013 3213 3611 3725 
Q 3209 4238 2522 4238 
z
M 2522 4750 
Q 3503 4750 4090 4092 
Q 4678 3434 4678 2328 
Q 4678 1225 4090 567 
Q 3503 -91 2522 -91 
Q 1538 -91 948 565 
Q 359 1222 359 2328 
Q 359 3434 948 4092 
Q 1538 4750 2522 4750 
z
" transform="scale(0.015625)"/>
      <path id="DejaVuSans-53" d="M 3425 4513 
L 3425 3897 
Q 3066 4069 2747 4153 
Q 2428 4238 2131 4238 
Q 1616 4238 1336 4038 
Q 1056 3838 1056 3469 
Q 1056 3159 1242 3001 
Q 1428 2844 1947 2747 
L 2328 2669 
Q 3034 2534 3370 2195 
Q 3706 1856 3706 1288 
Q 3706 609 3251 259 
Q 2797 -91 1919 -91 
Q 1588 -91 1214 -16 
Q 841 59 441 206 
L 441 856 
Q 825 641 1194 531 
Q 1563 422 1919 422 
Q 2459 422 2753 634 
Q 3047 847 3047 1241 
Q 3047 1584 2836 1778 
Q 2625 1972 2144 2069 
L 1759 2144 
Q 1053 2284 737 2584 
Q 422 2884 422 3419 
Q 422 4038 858 4394 
Q 1294 4750 2059 4750 
Q 2388 4750 2728 4690 
Q 3069 4631 3425 4513 
z
" transform="scale(0.015625)"/>
      <path id="DejaVuSans-29" d="M 513 4856 
L 1013 4856 
Q 1481 4119 1714 3412 
Q 1947 2706 1947 2009 
Q 1947 1309 1714 600 
Q 1481 -109 1013 -844 
L 513 -844 
Q 928 -128 1133 580 
Q 1338 1288 1338 2009 
Q 1338 2731 1133 3434 
Q 928 4138 513 4856 
z
" transform="scale(0.015625)"/>
     </defs>
     <use xlink:href="#DejaVuSans-4e"/>
     <use xlink:href="#DejaVuSans-6f" x="74.804688"/>
     <use xlink:href="#DejaVuSans-20" x="135.986328"/>
     <use xlink:href="#DejaVuSans-50" x="167.773438"/>
     <use xlink:href="#DejaVuSans-72" x="226.326172"/>
     <use xlink:href="#DejaVuSans-65" x="265.189453"/>
     <use xlink:href="#DejaVuSans-64" x="326.712891"/>
     <use xlink:href="#DejaVuSans-69" x="390.189453"/>
     <use xlink:href="#DejaVuSans-63" x="417.972656"/>
     <use xlink:href="#DejaVuSans-74" x="472.953125"/>
     <use xlink:href="#DejaVuSans-69" x="512.162109"/>
     <use xlink:href="#DejaVuSans-6f" x="539.945312"/>
     <use xlink:href="#DejaVuSans-6e" x="601.126953"/>
     <use xlink:href="#DejaVuSans-20" x="664.505859"/>
     <use xlink:href="#DejaVuSans-28" x="696.292969"/>
     <use xlink:href="#DejaVuSans-46" x="735.306641"/>
     <use xlink:href="#DejaVuSans-4f" x="792.826172"/>
     <use xlink:href="#DejaVuSans-53" x="871.537109"/>
     <use xlink:href="#DejaVuSans-53" x="935.013672"/>
     <use xlink:href="#DejaVuSans-29" x="998.490234"/>
    </g>
   </g>
  </g>
  <g id="axes_2">
   <g id="patch_7">
    <path d="M 250.376727 152.64 
L 412.704 152.64 
L 412.704 41.76 
L 250.376727 41.76 
z
" style="fill: #ffffff"/>
   </g>
   <g id="matplotlib.axis_3">
    <g id="xtick_6">
     <g id="line2d_10">
      <g>
       <use xlink:href="#m1d95117e40" x="257.75524" y="152.64" style="stroke: #000000; stroke-width: 0.8"/>
      </g>
     </g>
     <g id="text_10">
      <!-- 0 -->
      <g transform="translate(254.57399 167.238437) scale(0.1 -0.1)">
       <use xlink:href="#DejaVuSans-30"/>
      </g>
     </g>
    </g>
    <g id="xtick_7">
     <g id="line2d_11">
      <g>
       <use xlink:href="#m1d95117e40" x="296.386195" y="152.64" style="stroke: #000000; stroke-width: 0.8"/>
      </g>
     </g>
     <g id="text_11">
      <!-- 50 -->
      <g transform="translate(290.023695 167.238437) scale(0.1 -0.1)">
       <use xlink:href="#DejaVuSans-35"/>
       <use xlink:href="#DejaVuSans-30" x="63.623047"/>
      </g>
     </g>
    </g>
    <g id="xtick_8">
     <g id="line2d_12">
      <g>
       <use xlink:href="#m1d95117e40" x="335.01715" y="152.64" style="stroke: #000000; stroke-width: 0.8"/>
      </g>
     </g>
     <g id="text_12">
      <!-- 100 -->
      <g transform="translate(325.4734 167.238437) scale(0.1 -0.1)">
       <use xlink:href="#DejaVuSans-31"/>
       <use xlink:href="#DejaVuSans-30" x="63.623047"/>
       <use xlink:href="#DejaVuSans-30" x="127.246094"/>
      </g>
     </g>
    </g>
    <g id="xtick_9">
     <g id="line2d_13">
      <g>
       <use xlink:href="#m1d95117e40" x="373.648105" y="152.64" style="stroke: #000000; stroke-width: 0.8"/>
      </g>
     </g>
     <g id="text_13">
      <!-- 150 -->
      <g transform="translate(364.104355 167.238437) scale(0.1 -0.1)">
       <use xlink:href="#DejaVuSans-31"/>
       <use xlink:href="#DejaVuSans-35" x="63.623047"/>
       <use xlink:href="#DejaVuSans-30" x="127.246094"/>
      </g>
     </g>
    </g>
    <g id="xtick_10">
     <g id="line2d_14">
      <g>
       <use xlink:href="#m1d95117e40" x="412.279059" y="152.64" style="stroke: #000000; stroke-width: 0.8"/>
      </g>
     </g>
     <g id="text_14">
      <!-- 200 -->
      <g transform="translate(402.735309 167.238437) scale(0.1 -0.1)">
       <use xlink:href="#DejaVuSans-32"/>
       <use xlink:href="#DejaVuSans-30" x="63.623047"/>
       <use xlink:href="#DejaVuSans-30" x="127.246094"/>
      </g>
     </g>
    </g>
   </g>
   <g id="matplotlib.axis_4">
    <g id="ytick_4">
     <g id="line2d_15">
      <g>
       <use xlink:href="#m215fe77f8d" x="250.376727" y="147.6" style="stroke: #000000; stroke-width: 0.8"/>
      </g>
     </g>
     <g id="text_15">
      <!-- 0 -->
      <g transform="translate(237.014227 151.399219) scale(0.1 -0.1)">
       <use xlink:href="#DejaVuSans-30"/>
      </g>
     </g>
    </g>
    <g id="ytick_5">
     <g id="line2d_16">
      <g>
       <use xlink:href="#m215fe77f8d" x="250.376727" y="109.414981" style="stroke: #000000; stroke-width: 0.8"/>
      </g>
     </g>
     <g id="text_16">
      <!-- 20 -->
      <g transform="translate(230.651727 113.2142) scale(0.1 -0.1)">
       <use xlink:href="#DejaVuSans-32"/>
       <use xlink:href="#DejaVuSans-30" x="63.623047"/>
      </g>
     </g>
    </g>
    <g id="ytick_6">
     <g id="line2d_17">
      <g>
       <use xlink:href="#m215fe77f8d" x="250.376727" y="71.229962" style="stroke: #000000; stroke-width: 0.8"/>
      </g>
     </g>
     <g id="text_17">
      <!-- 40 -->
      <g transform="translate(230.651727 75.029181) scale(0.1 -0.1)">
       <use xlink:href="#DejaVuSans-34"/>
       <use xlink:href="#DejaVuSans-30" x="63.623047"/>
      </g>
     </g>
    </g>
   </g>
   <g id="line2d_18">
    <path d="M 257.75524 49.402233 
L 258.527859 46.937216 
L 259.300478 46.8 
L 260.073097 51.331844 
L 260.845716 57.986844 
L 261.618335 58.482861 
L 262.390954 61.322605 
L 263.163573 63.560867 
L 263.936192 62.872443 
L 264.708812 60.94464 
L 266.25405 62.778084 
L 267.026669 108.956322 
L 267.799288 147.6 
L 269.344526 147.6 
L 270.117145 143.41891 
L 270.889764 147.6 
L 275.525479 147.6 
L 276.298098 106.385958 
L 277.070717 108.733325 
L 277.843336 109.064055 
L 278.615955 114.040932 
L 280.933813 108.927711 
L 281.706432 105.866142 
L 282.479051 105.377192 
L 283.25167 106.69153 
L 284.024289 102.940623 
L 284.796908 102.501956 
L 285.569527 138.284461 
L 286.342146 147.6 
L 287.114765 117.946648 
L 287.887385 147.6 
L 288.660004 144.644441 
L 289.432623 144.898826 
L 290.205242 142.020082 
L 290.977861 145.140083 
L 291.75048 147.6 
L 292.523099 147.6 
L 293.295718 142.703239 
L 294.068337 147.6 
L 294.840956 114.789736 
L 295.613576 118.824864 
L 296.386195 117.732339 
L 297.158814 117.142577 
L 297.931433 118.661705 
L 298.704052 113.632913 
L 299.476671 110.859551 
L 301.021909 121.694405 
L 301.794528 124.595241 
L 302.567147 123.909825 
L 303.339767 123.969575 
L 304.112386 147.6 
L 312.611196 147.6 
L 313.383815 130.234544 
L 314.929053 123.530774 
L 315.701672 123.285323 
L 316.474291 128.069734 
L 317.24691 128.619548 
L 318.019529 124.781986 
L 319.564768 122.54048 
L 320.337387 124.167593 
L 321.110006 121.949803 
L 321.882625 120.728129 
L 322.655244 147.6 
L 324.200482 147.6 
L 324.973101 136.89848 
L 325.74572 147.6 
L 327.290959 147.6 
L 328.063578 137.953576 
L 328.836197 136.612795 
L 329.608816 138.915696 
L 330.381435 138.043126 
L 331.154054 131.885715 
L 331.926673 118.979133 
L 332.699292 119.830109 
L 333.471911 116.814972 
L 334.24453 116.809926 
L 335.01715 115.083398 
L 335.789769 115.98646 
L 337.335007 117.101791 
L 338.107626 118.074324 
L 338.880245 118.582597 
L 339.652864 108.730898 
L 340.425483 96.348568 
L 341.198102 124.429565 
L 342.743341 147.6 
L 349.696912 147.6 
L 350.469532 80.415613 
L 351.242151 87.281355 
L 352.01477 96.36615 
L 352.787389 96.952565 
L 353.560008 102.803682 
L 354.332627 102.908084 
L 355.105246 102.224232 
L 355.877865 98.512814 
L 356.650484 107.563506 
L 357.423103 111.650452 
L 358.195723 111.462357 
L 358.968342 107.522745 
L 359.740961 147.6 
L 360.51358 145.367879 
L 361.286199 147.6 
L 365.149294 147.6 
L 365.921914 147.043436 
L 366.694533 147.6 
L 367.467152 137.534891 
L 368.239771 141.449419 
L 369.01239 84.882059 
L 369.785009 87.441893 
L 370.557628 88.089095 
L 371.330247 91.854714 
L 372.102866 92.53187 
L 372.875485 92.978089 
L 373.648105 94.580739 
L 374.420724 95.047071 
L 375.193343 90.371056 
L 375.965962 89.680482 
L 376.738581 87.564148 
L 377.5112 96.69146 
L 379.056438 139.786261 
L 379.829057 142.45573 
L 380.601676 147.6 
L 381.374296 147.6 
L 382.146915 119.117202 
L 382.919534 136.968848 
L 383.692153 137.296559 
L 384.464772 134.632889 
L 385.237391 128.803512 
L 386.01001 140.343645 
L 386.782629 145.913043 
L 387.555248 92.217279 
L 388.327867 91.349803 
L 389.100487 88.204931 
L 389.873106 84.558995 
L 390.645725 87.265134 
L 391.418344 88.846872 
L 392.190963 91.564846 
L 392.963582 90.952255 
L 393.736201 86.086273 
L 394.50882 86.699399 
L 396.054058 99.344389 
L 396.826678 137.543962 
L 397.599297 121.599637 
L 398.371916 141.000603 
L 399.144535 147.6 
L 404.552869 147.6 
L 405.325488 143.928745 
L 405.325488 143.928745 
" clip-path="url(#pea007882de)" style="fill: none; stroke: #0000ff; stroke-width: 1.5; stroke-linecap: square"/>
   </g>
   <g id="patch_8">
    <path d="M 250.376727 152.64 
L 250.376727 41.76 
" style="fill: none; stroke: #000000; stroke-width: 0.8; stroke-linejoin: miter; stroke-linecap: square"/>
   </g>
   <g id="patch_9">
    <path d="M 412.704 152.64 
L 412.704 41.76 
" style="fill: none; stroke: #000000; stroke-width: 0.8; stroke-linejoin: miter; stroke-linecap: square"/>
   </g>
   <g id="patch_10">
    <path d="M 250.376727 152.64 
L 412.704 152.64 
" style="fill: none; stroke: #000000; stroke-width: 0.8; stroke-linejoin: miter; stroke-linecap: square"/>
   </g>
   <g id="patch_11">
    <path d="M 250.376727 41.76 
L 412.704 41.76 
" style="fill: none; stroke: #000000; stroke-width: 0.8; stroke-linejoin: miter; stroke-linecap: square"/>
   </g>
   <g id="text_18">
    <!-- RNN -->
    <g transform="translate(318.393801 35.76) scale(0.12 -0.12)">
     <defs>
      <path id="DejaVuSans-52" d="M 2841 2188 
Q 3044 2119 3236 1894 
Q 3428 1669 3622 1275 
L 4263 0 
L 3584 0 
L 2988 1197 
Q 2756 1666 2539 1819 
Q 2322 1972 1947 1972 
L 1259 1972 
L 1259 0 
L 628 0 
L 628 4666 
L 2053 4666 
Q 2853 4666 3247 4331 
Q 3641 3997 3641 3322 
Q 3641 2881 3436 2590 
Q 3231 2300 2841 2188 
z
M 1259 4147 
L 1259 2491 
L 2053 2491 
Q 2509 2491 2742 2702 
Q 2975 2913 2975 3322 
Q 2975 3731 2742 3939 
Q 2509 4147 2053 4147 
L 1259 4147 
z
" transform="scale(0.015625)"/>
     </defs>
     <use xlink:href="#DejaVuSans-52"/>
     <use xlink:href="#DejaVuSans-4e" x="69.482422"/>
     <use xlink:href="#DejaVuSans-4e" x="144.287109"/>
    </g>
   </g>
  </g>
  <g id="axes_3">
   <g id="patch_12">
    <path d="M 55.584 307.872 
L 217.911273 307.872 
L 217.911273 196.992 
L 55.584 196.992 
z
" style="fill: #ffffff"/>
   </g>
   <g id="matplotlib.axis_5">
    <g id="xtick_11">
     <g id="line2d_19">
      <g>
       <use xlink:href="#m1d95117e40" x="62.962512" y="307.872" style="stroke: #000000; stroke-width: 0.8"/>
      </g>
     </g>
     <g id="text_19">
      <!-- 0 -->
      <g transform="translate(59.781262 322.470437) scale(0.1 -0.1)">
       <use xlink:href="#DejaVuSans-30"/>
      </g>
     </g>
    </g>
    <g id="xtick_12">
     <g id="line2d_20">
      <g>
       <use xlink:href="#m1d95117e40" x="101.593467" y="307.872" style="stroke: #000000; stroke-width: 0.8"/>
      </g>
     </g>
     <g id="text_20">
      <!-- 50 -->
      <g transform="translate(95.230967 322.470437) scale(0.1 -0.1)">
       <use xlink:href="#DejaVuSans-35"/>
       <use xlink:href="#DejaVuSans-30" x="63.623047"/>
      </g>
     </g>
    </g>
    <g id="xtick_13">
     <g id="line2d_21">
      <g>
       <use xlink:href="#m1d95117e40" x="140.224422" y="307.872" style="stroke: #000000; stroke-width: 0.8"/>
      </g>
     </g>
     <g id="text_21">
      <!-- 100 -->
      <g transform="translate(130.680672 322.470437) scale(0.1 -0.1)">
       <use xlink:href="#DejaVuSans-31"/>
       <use xlink:href="#DejaVuSans-30" x="63.623047"/>
       <use xlink:href="#DejaVuSans-30" x="127.246094"/>
      </g>
     </g>
    </g>
    <g id="xtick_14">
     <g id="line2d_22">
      <g>
       <use xlink:href="#m1d95117e40" x="178.855377" y="307.872" style="stroke: #000000; stroke-width: 0.8"/>
      </g>
     </g>
     <g id="text_22">
      <!-- 150 -->
      <g transform="translate(169.311627 322.470437) scale(0.1 -0.1)">
       <use xlink:href="#DejaVuSans-31"/>
       <use xlink:href="#DejaVuSans-35" x="63.623047"/>
       <use xlink:href="#DejaVuSans-30" x="127.246094"/>
      </g>
     </g>
    </g>
    <g id="xtick_15">
     <g id="line2d_23">
      <g>
       <use xlink:href="#m1d95117e40" x="217.486332" y="307.872" style="stroke: #000000; stroke-width: 0.8"/>
      </g>
     </g>
     <g id="text_23">
      <!-- 200 -->
      <g transform="translate(207.942582 322.470437) scale(0.1 -0.1)">
       <use xlink:href="#DejaVuSans-32"/>
       <use xlink:href="#DejaVuSans-30" x="63.623047"/>
       <use xlink:href="#DejaVuSans-30" x="127.246094"/>
      </g>
     </g>
    </g>
   </g>
   <g id="matplotlib.axis_6">
    <g id="ytick_7">
     <g id="line2d_24">
      <g>
       <use xlink:href="#m215fe77f8d" x="55.584" y="302.832" style="stroke: #000000; stroke-width: 0.8"/>
      </g>
     </g>
     <g id="text_24">
      <!-- 0 -->
      <g transform="translate(42.2215 306.631219) scale(0.1 -0.1)">
       <use xlink:href="#DejaVuSans-30"/>
      </g>
     </g>
    </g>
    <g id="ytick_8">
     <g id="line2d_25">
      <g>
       <use xlink:href="#m215fe77f8d" x="55.584" y="264.646981" style="stroke: #000000; stroke-width: 0.8"/>
      </g>
     </g>
     <g id="text_25">
      <!-- 20 -->
      <g transform="translate(35.859 268.4462) scale(0.1 -0.1)">
       <use xlink:href="#DejaVuSans-32"/>
       <use xlink:href="#DejaVuSans-30" x="63.623047"/>
      </g>
     </g>
    </g>
    <g id="ytick_9">
     <g id="line2d_26">
      <g>
       <use xlink:href="#m215fe77f8d" x="55.584" y="226.461962" style="stroke: #000000; stroke-width: 0.8"/>
      </g>
     </g>
     <g id="text_26">
      <!-- 40 -->
      <g transform="translate(35.859 230.261181) scale(0.1 -0.1)">
       <use xlink:href="#DejaVuSans-34"/>
       <use xlink:href="#DejaVuSans-30" x="63.623047"/>
      </g>
     </g>
    </g>
   </g>
   <g id="line2d_27">
    <path d="M 62.962512 204.634233 
L 63.735131 202.169216 
L 64.507751 202.032 
L 65.28037 206.563844 
L 66.052989 213.218844 
L 66.825608 213.714861 
L 67.598227 216.554605 
L 68.370846 218.792867 
L 69.143465 218.104443 
L 69.916084 216.17664 
L 71.461322 218.010084 
L 72.233942 302.832 
L 80.732752 302.832 
L 81.505371 261.617958 
L 82.27799 263.965325 
L 83.050609 264.296055 
L 83.823228 269.272932 
L 86.141085 264.159711 
L 86.913704 261.098142 
L 87.686324 260.609192 
L 88.458943 261.92353 
L 89.231562 258.172623 
L 90.004181 257.733956 
L 90.7768 299.075511 
L 91.549419 298.78051 
L 92.322038 300.078505 
L 93.094657 298.941596 
L 93.867276 299.082508 
L 94.639895 301.90624 
L 95.412515 301.523375 
L 96.185134 302.832 
L 99.27561 302.832 
L 100.048229 270.021736 
L 100.820848 274.056864 
L 101.593467 272.964339 
L 102.366086 272.374577 
L 103.138706 273.893705 
L 103.911325 268.864913 
L 104.683944 266.091551 
L 106.229182 276.926405 
L 107.001801 279.827241 
L 107.77442 279.141825 
L 108.547039 279.201575 
L 109.319658 302.832 
L 117.818468 302.832 
L 118.591088 285.466544 
L 120.136326 278.762774 
L 120.908945 278.517323 
L 121.681564 283.301734 
L 122.454183 283.851548 
L 123.226802 280.013986 
L 124.77204 277.77248 
L 125.544659 279.399593 
L 126.317279 277.181803 
L 127.089898 275.960129 
L 127.862517 302.832 
L 131.725612 302.77348 
L 132.498231 298.924264 
L 133.27085 300.182662 
L 134.04347 299.596534 
L 134.816089 297.038323 
L 135.588708 295.596296 
L 136.361327 295.890962 
L 137.133946 274.211133 
L 137.906565 275.062109 
L 138.679184 272.046972 
L 139.451803 272.041926 
L 140.224422 270.315398 
L 140.997041 271.21846 
L 142.54228 272.333791 
L 143.314899 273.306324 
L 144.087518 273.814597 
L 144.860137 263.962898 
L 145.632756 251.580568 
L 146.405375 297.756379 
L 147.177994 297.443466 
L 147.950613 301.016965 
L 148.723232 301.524535 
L 149.495851 300.206938 
L 150.268471 301.770014 
L 151.04109 299.455102 
L 151.813709 302.832 
L 154.904185 302.832 
L 155.676804 235.647613 
L 156.449423 242.513355 
L 157.222042 251.59815 
L 157.994662 252.184565 
L 158.767281 258.035682 
L 159.5399 258.140084 
L 160.312519 257.456232 
L 161.085138 253.744814 
L 161.857757 262.795506 
L 162.630376 266.882452 
L 163.402995 266.694357 
L 164.175614 262.754745 
L 164.948233 302.832 
L 171.901805 302.832 
L 172.674424 302.430885 
L 173.447044 302.832 
L 174.219663 240.114059 
L 174.992282 242.673893 
L 175.764901 243.321095 
L 176.53752 247.086714 
L 177.310139 247.76387 
L 178.082758 248.210089 
L 178.855377 249.812739 
L 179.627996 250.279071 
L 180.400615 245.603056 
L 181.173235 244.912482 
L 181.945854 242.796148 
L 182.718473 251.92346 
L 183.491092 300.369082 
L 184.263711 302.832 
L 191.989902 302.832 
L 192.762521 247.449279 
L 193.53514 246.581803 
L 194.307759 243.436931 
L 195.080378 239.790995 
L 195.852997 242.497134 
L 196.625617 244.078872 
L 197.398236 246.796846 
L 198.170855 246.184255 
L 198.943474 241.318273 
L 199.716093 241.931399 
L 201.261331 254.576389 
L 202.03395 301.244227 
L 202.806569 296.769974 
L 203.579188 300.869015 
L 204.351808 300.090522 
L 205.124427 302.832 
L 210.53276 302.832 
L 210.53276 302.832 
" clip-path="url(#p869d5f62a9)" style="fill: none; stroke: #ffa500; stroke-width: 1.5; stroke-linecap: square"/>
   </g>
   <g id="patch_13">
    <path d="M 55.584 307.872 
L 55.584 196.992 
" style="fill: none; stroke: #000000; stroke-width: 0.8; stroke-linejoin: miter; stroke-linecap: square"/>
   </g>
   <g id="patch_14">
    <path d="M 217.911273 307.872 
L 217.911273 196.992 
" style="fill: none; stroke: #000000; stroke-width: 0.8; stroke-linejoin: miter; stroke-linecap: square"/>
   </g>
   <g id="patch_15">
    <path d="M 55.584 307.872 
L 217.911273 307.872 
" style="fill: none; stroke: #000000; stroke-width: 0.8; stroke-linejoin: miter; stroke-linecap: square"/>
   </g>
   <g id="patch_16">
    <path d="M 55.584 196.992 
L 217.911273 196.992 
" style="fill: none; stroke: #000000; stroke-width: 0.8; stroke-linejoin: miter; stroke-linecap: square"/>
   </g>
   <g id="text_27">
    <!-- VAE -->
    <g transform="translate(125.130136 190.992) scale(0.12 -0.12)">
     <defs>
      <path id="DejaVuSans-56" d="M 1831 0 
L 50 4666 
L 709 4666 
L 2188 738 
L 3669 4666 
L 4325 4666 
L 2547 0 
L 1831 0 
z
" transform="scale(0.015625)"/>
      <path id="DejaVuSans-41" d="M 2188 4044 
L 1331 1722 
L 3047 1722 
L 2188 4044 
z
M 1831 4666 
L 2547 4666 
L 4325 0 
L 3669 0 
L 3244 1197 
L 1141 1197 
L 716 0 
L 50 0 
L 1831 4666 
z
" transform="scale(0.015625)"/>
      <path id="DejaVuSans-45" d="M 628 4666 
L 3578 4666 
L 3578 4134 
L 1259 4134 
L 1259 2753 
L 3481 2753 
L 3481 2222 
L 1259 2222 
L 1259 531 
L 3634 531 
L 3634 0 
L 628 0 
L 628 4666 
z
" transform="scale(0.015625)"/>
     </defs>
     <use xlink:href="#DejaVuSans-56"/>
     <use xlink:href="#DejaVuSans-41" x="62.033203"/>
     <use xlink:href="#DejaVuSans-45" x="130.441406"/>
    </g>
   </g>
  </g>
  <g id="axes_4">
   <g id="patch_17">
    <path d="M 250.376727 307.872 
L 412.704 307.872 
L 412.704 196.992 
L 250.376727 196.992 
z
" style="fill: #ffffff"/>
   </g>
   <g id="matplotlib.axis_7">
    <g id="xtick_16">
     <g id="line2d_28">
      <g>
       <use xlink:href="#m1d95117e40" x="257.75524" y="307.872" style="stroke: #000000; stroke-width: 0.8"/>
      </g>
     </g>
     <g id="text_28">
      <!-- 0 -->
      <g transform="translate(254.57399 322.470437) scale(0.1 -0.1)">
       <use xlink:href="#DejaVuSans-30"/>
      </g>
     </g>
    </g>
    <g id="xtick_17">
     <g id="line2d_29">
      <g>
       <use xlink:href="#m1d95117e40" x="296.386195" y="307.872" style="stroke: #000000; stroke-width: 0.8"/>
      </g>
     </g>
     <g id="text_29">
      <!-- 50 -->
      <g transform="translate(290.023695 322.470437) scale(0.1 -0.1)">
       <use xlink:href="#DejaVuSans-35"/>
       <use xlink:href="#DejaVuSans-30" x="63.623047"/>
      </g>
     </g>
    </g>
    <g id="xtick_18">
     <g id="line2d_30">
      <g>
       <use xlink:href="#m1d95117e40" x="335.01715" y="307.872" style="stroke: #000000; stroke-width: 0.8"/>
      </g>
     </g>
     <g id="text_30">
      <!-- 100 -->
      <g transform="translate(325.4734 322.470437) scale(0.1 -0.1)">
       <use xlink:href="#DejaVuSans-31"/>
       <use xlink:href="#DejaVuSans-30" x="63.623047"/>
       <use xlink:href="#DejaVuSans-30" x="127.246094"/>
      </g>
     </g>
    </g>
    <g id="xtick_19">
     <g id="line2d_31">
      <g>
       <use xlink:href="#m1d95117e40" x="373.648105" y="307.872" style="stroke: #000000; stroke-width: 0.8"/>
      </g>
     </g>
     <g id="text_31">
      <!-- 150 -->
      <g transform="translate(364.104355 322.470437) scale(0.1 -0.1)">
       <use xlink:href="#DejaVuSans-31"/>
       <use xlink:href="#DejaVuSans-35" x="63.623047"/>
       <use xlink:href="#DejaVuSans-30" x="127.246094"/>
      </g>
     </g>
    </g>
    <g id="xtick_20">
     <g id="line2d_32">
      <g>
       <use xlink:href="#m1d95117e40" x="412.279059" y="307.872" style="stroke: #000000; stroke-width: 0.8"/>
      </g>
     </g>
     <g id="text_32">
      <!-- 200 -->
      <g transform="translate(402.735309 322.470437) scale(0.1 -0.1)">
       <use xlink:href="#DejaVuSans-32"/>
       <use xlink:href="#DejaVuSans-30" x="63.623047"/>
       <use xlink:href="#DejaVuSans-30" x="127.246094"/>
      </g>
     </g>
    </g>
   </g>
   <g id="matplotlib.axis_8">
    <g id="ytick_10">
     <g id="line2d_33">
      <g>
       <use xlink:href="#m215fe77f8d" x="250.376727" y="302.832" style="stroke: #000000; stroke-width: 0.8"/>
      </g>
     </g>
     <g id="text_33">
      <!-- 0 -->
      <g transform="translate(237.014227 306.631219) scale(0.1 -0.1)">
       <use xlink:href="#DejaVuSans-30"/>
      </g>
     </g>
    </g>
    <g id="ytick_11">
     <g id="line2d_34">
      <g>
       <use xlink:href="#m215fe77f8d" x="250.376727" y="264.718928" style="stroke: #000000; stroke-width: 0.8"/>
      </g>
     </g>
     <g id="text_34">
      <!-- 20 -->
      <g transform="translate(230.651727 268.518147) scale(0.1 -0.1)">
       <use xlink:href="#DejaVuSans-32"/>
       <use xlink:href="#DejaVuSans-30" x="63.623047"/>
      </g>
     </g>
    </g>
    <g id="ytick_12">
     <g id="line2d_35">
      <g>
       <use xlink:href="#m215fe77f8d" x="250.376727" y="226.605857" style="stroke: #000000; stroke-width: 0.8"/>
      </g>
     </g>
     <g id="text_35">
      <!-- 40 -->
      <g transform="translate(230.651727 230.405075) scale(0.1 -0.1)">
       <use xlink:href="#DejaVuSans-34"/>
       <use xlink:href="#DejaVuSans-30" x="63.623047"/>
      </g>
     </g>
    </g>
   </g>
   <g id="line2d_36">
    <path d="M 257.75524 205.168574 
L 258.527859 202.418594 
L 259.300478 202.032 
L 260.073097 206.737539 
L 260.845716 213.387672 
L 261.618335 213.78924 
L 262.390954 216.667999 
L 263.163573 218.976041 
L 263.936192 218.26595 
L 264.708812 216.339542 
L 266.25405 218.152206 
L 267.026669 224.311633 
L 267.799288 240.87311 
L 268.571907 254.186701 
L 269.344526 237.009681 
L 270.117145 243.221281 
L 270.889764 232.04363 
L 271.662383 253.133048 
L 272.435003 214.603944 
L 273.207622 253.766257 
L 273.980241 258.090613 
L 274.75286 241.478919 
L 275.525479 257.960057 
L 276.298098 261.697993 
L 277.070717 264.052264 
L 277.843336 264.376017 
L 278.615955 269.339866 
L 280.933813 264.241291 
L 281.706432 261.166952 
L 282.479051 260.684381 
L 283.25167 262.024164 
L 284.024289 258.441864 
L 284.796908 257.914544 
L 285.569527 273.721442 
L 286.342146 272.573419 
L 287.114765 260.777326 
L 287.887385 280.343519 
L 288.660004 270.444657 
L 289.432623 285.467374 
L 290.205242 279.067579 
L 290.977861 285.232281 
L 291.75048 277.363853 
L 292.523099 277.123106 
L 293.295718 266.96428 
L 294.068337 279.117395 
L 294.840956 270.078211 
L 295.613576 274.106948 
L 296.386195 273.037283 
L 297.158814 272.419655 
L 297.931433 273.951387 
L 298.704052 268.922105 
L 299.476671 266.156102 
L 301.021909 276.985333 
L 301.794528 279.864333 
L 302.567147 279.188649 
L 303.339767 279.25718 
L 304.112386 291.131641 
L 304.885005 286.713166 
L 305.657624 302.832 
L 306.430243 302.832 
L 307.202862 301.040135 
L 307.975481 293.906435 
L 308.7481 299.063639 
L 309.520719 302.832 
L 310.293338 296.682835 
L 311.065958 302.832 
L 311.838577 295.33716 
L 312.611196 297.173455 
L 313.383815 285.489901 
L 314.929053 278.811223 
L 315.701672 278.585788 
L 316.474291 283.349086 
L 317.24691 283.890413 
L 318.019529 280.039381 
L 318.792149 277.25052 
L 319.564768 277.815153 
L 320.337387 279.448988 
L 321.110006 277.223135 
L 321.882625 276.016113 
L 322.655244 287.186578 
L 323.427863 302.832 
L 324.200482 291.892742 
L 324.973101 287.012238 
L 325.74572 295.235341 
L 326.518339 296.07008 
L 327.290959 280.326315 
L 328.836197 283.849015 
L 329.608816 281.12139 
L 330.381435 276.425097 
L 331.154054 284.571818 
L 331.926673 274.269395 
L 332.699292 275.117491 
L 333.471911 272.095809 
L 334.24453 272.112992 
L 335.01715 270.378998 
L 335.789769 271.273542 
L 337.335007 272.400786 
L 338.107626 273.344822 
L 338.880245 273.863091 
L 339.652864 264.056285 
L 340.425483 251.68938 
L 341.198102 262.72943 
L 341.970721 267.879931 
L 342.743341 267.735534 
L 343.51596 258.088946 
L 344.288579 257.026437 
L 345.061198 251.217822 
L 345.833817 246.846884 
L 346.606436 256.292151 
L 347.379055 255.874045 
L 348.151674 245.7404 
L 348.924293 247.487195 
L 350.469532 235.77957 
L 351.242151 242.62467 
L 352.01477 251.942249 
L 352.787389 252.265945 
L 353.560008 258.122705 
L 354.332627 258.237802 
L 355.105246 257.536261 
L 355.877865 253.833488 
L 356.650484 262.902939 
L 357.423103 266.930647 
L 358.195723 266.762128 
L 358.968342 263.001885 
L 359.740961 262.06444 
L 360.51358 269.159799 
L 361.286199 269.350551 
L 362.058818 276.524694 
L 362.831437 252.748502 
L 363.604056 257.560009 
L 364.376675 265.244671 
L 365.149294 267.690225 
L 366.694533 248.676077 
L 367.467152 261.233922 
L 368.239771 248.234651 
L 369.01239 240.218094 
L 369.785009 242.783725 
L 370.557628 243.436273 
L 371.330247 247.196827 
L 372.102866 247.870795 
L 372.875485 248.298862 
L 373.648105 249.905843 
L 374.420724 250.328835 
L 375.193343 245.736337 
L 375.965962 245.012342 
L 376.738581 242.908294 
L 377.5112 252.044682 
L 378.283819 257.075136 
L 379.056438 273.209898 
L 379.829057 260.694338 
L 380.601676 263.689767 
L 381.374296 261.341512 
L 382.146915 257.73216 
L 382.919534 265.643898 
L 383.692153 263.979207 
L 384.464772 267.997823 
L 385.237391 249.230243 
L 386.01001 256.467803 
L 386.782629 259.715903 
L 387.555248 247.528723 
L 388.327867 246.701724 
L 389.873106 239.940203 
L 390.645725 242.606431 
L 391.418344 244.198822 
L 392.190963 246.89988 
L 392.963582 246.275845 
L 393.736201 241.428474 
L 394.50882 242.051108 
L 396.054058 254.67969 
L 397.599297 274.405598 
L 399.144535 298.037078 
L 399.917154 302.832 
L 405.325488 302.832 
L 405.325488 302.832 
" clip-path="url(#pa720ad88d5)" style="fill: none; stroke: #ff0000; stroke-width: 1.5; stroke-linecap: square"/>
   </g>
   <g id="patch_18">
    <path d="M 250.376727 307.872 
L 250.376727 196.992 
" style="fill: none; stroke: #000000; stroke-width: 0.8; stroke-linejoin: miter; stroke-linecap: square"/>
   </g>
   <g id="patch_19">
    <path d="M 412.704 307.872 
L 412.704 196.992 
" style="fill: none; stroke: #000000; stroke-width: 0.8; stroke-linejoin: miter; stroke-linecap: square"/>
   </g>
   <g id="patch_20">
    <path d="M 250.376727 307.872 
L 412.704 307.872 
" style="fill: none; stroke: #000000; stroke-width: 0.8; stroke-linejoin: miter; stroke-linecap: square"/>
   </g>
   <g id="patch_21">
    <path d="M 250.376727 196.992 
L 412.704 196.992 
" style="fill: none; stroke: #000000; stroke-width: 0.8; stroke-linejoin: miter; stroke-linecap: square"/>
   </g>
   <g id="text_36">
    <!-- VRNN -->
    <g transform="translate(314.289426 190.992) scale(0.12 -0.12)">
     <use xlink:href="#DejaVuSans-56"/>
     <use xlink:href="#DejaVuSans-52" x="68.408203"/>
     <use xlink:href="#DejaVuSans-4e" x="137.890625"/>
     <use xlink:href="#DejaVuSans-4e" x="212.695312"/>
    </g>
   </g>
  </g>
  <g id="text_37">
   <!-- VMAF Scores Over Frames: Video #38 -->
   <g transform="translate(114.338063 16.318125) scale(0.12 -0.12)">
    <defs>
     <path id="DejaVuSans-4d" d="M 628 4666 
L 1569 4666 
L 2759 1491 
L 3956 4666 
L 4897 4666 
L 4897 0 
L 4281 0 
L 4281 4097 
L 3078 897 
L 2444 897 
L 1241 4097 
L 1241 0 
L 628 0 
L 628 4666 
z
" transform="scale(0.015625)"/>
     <path id="DejaVuSans-73" d="M 2834 3397 
L 2834 2853 
Q 2591 2978 2328 3040 
Q 2066 3103 1784 3103 
Q 1356 3103 1142 2972 
Q 928 2841 928 2578 
Q 928 2378 1081 2264 
Q 1234 2150 1697 2047 
L 1894 2003 
Q 2506 1872 2764 1633 
Q 3022 1394 3022 966 
Q 3022 478 2636 193 
Q 2250 -91 1575 -91 
Q 1294 -91 989 -36 
Q 684 19 347 128 
L 347 722 
Q 666 556 975 473 
Q 1284 391 1588 391 
Q 1994 391 2212 530 
Q 2431 669 2431 922 
Q 2431 1156 2273 1281 
Q 2116 1406 1581 1522 
L 1381 1569 
Q 847 1681 609 1914 
Q 372 2147 372 2553 
Q 372 3047 722 3315 
Q 1072 3584 1716 3584 
Q 2034 3584 2315 3537 
Q 2597 3491 2834 3397 
z
" transform="scale(0.015625)"/>
     <path id="DejaVuSans-76" d="M 191 3500 
L 800 3500 
L 1894 563 
L 2988 3500 
L 3597 3500 
L 2284 0 
L 1503 0 
L 191 3500 
z
" transform="scale(0.015625)"/>
     <path id="DejaVuSans-61" d="M 2194 1759 
Q 1497 1759 1228 1600 
Q 959 1441 959 1056 
Q 959 750 1161 570 
Q 1363 391 1709 391 
Q 2188 391 2477 730 
Q 2766 1069 2766 1631 
L 2766 1759 
L 2194 1759 
z
M 3341 1997 
L 3341 0 
L 2766 0 
L 2766 531 
Q 2569 213 2275 61 
Q 1981 -91 1556 -91 
Q 1019 -91 701 211 
Q 384 513 384 1019 
Q 384 1609 779 1909 
Q 1175 2209 1959 2209 
L 2766 2209 
L 2766 2266 
Q 2766 2663 2505 2880 
Q 2244 3097 1772 3097 
Q 1472 3097 1187 3025 
Q 903 2953 641 2809 
L 641 3341 
Q 956 3463 1253 3523 
Q 1550 3584 1831 3584 
Q 2591 3584 2966 3190 
Q 3341 2797 3341 1997 
z
" transform="scale(0.015625)"/>
     <path id="DejaVuSans-6d" d="M 3328 2828 
Q 3544 3216 3844 3400 
Q 4144 3584 4550 3584 
Q 5097 3584 5394 3201 
Q 5691 2819 5691 2113 
L 5691 0 
L 5113 0 
L 5113 2094 
Q 5113 2597 4934 2840 
Q 4756 3084 4391 3084 
Q 3944 3084 3684 2787 
Q 3425 2491 3425 1978 
L 3425 0 
L 2847 0 
L 2847 2094 
Q 2847 2600 2669 2842 
Q 2491 3084 2119 3084 
Q 1678 3084 1418 2786 
Q 1159 2488 1159 1978 
L 1159 0 
L 581 0 
L 581 3500 
L 1159 3500 
L 1159 2956 
Q 1356 3278 1631 3431 
Q 1906 3584 2284 3584 
Q 2666 3584 2933 3390 
Q 3200 3197 3328 2828 
z
" transform="scale(0.015625)"/>
     <path id="DejaVuSans-3a" d="M 750 794 
L 1409 794 
L 1409 0 
L 750 0 
L 750 794 
z
M 750 3309 
L 1409 3309 
L 1409 2516 
L 750 2516 
L 750 3309 
z
" transform="scale(0.015625)"/>
     <path id="DejaVuSans-23" d="M 3272 2816 
L 2363 2816 
L 2100 1772 
L 3016 1772 
L 3272 2816 
z
M 2803 4594 
L 2478 3297 
L 3391 3297 
L 3719 4594 
L 4219 4594 
L 3897 3297 
L 4872 3297 
L 4872 2816 
L 3775 2816 
L 3519 1772 
L 4513 1772 
L 4513 1294 
L 3397 1294 
L 3072 0 
L 2572 0 
L 2894 1294 
L 1978 1294 
L 1656 0 
L 1153 0 
L 1478 1294 
L 494 1294 
L 494 1772 
L 1594 1772 
L 1856 2816 
L 850 2816 
L 850 3297 
L 1978 3297 
L 2297 4594 
L 2803 4594 
z
" transform="scale(0.015625)"/>
     <path id="DejaVuSans-33" d="M 2597 2516 
Q 3050 2419 3304 2112 
Q 3559 1806 3559 1356 
Q 3559 666 3084 287 
Q 2609 -91 1734 -91 
Q 1441 -91 1130 -33 
Q 819 25 488 141 
L 488 750 
Q 750 597 1062 519 
Q 1375 441 1716 441 
Q 2309 441 2620 675 
Q 2931 909 2931 1356 
Q 2931 1769 2642 2001 
Q 2353 2234 1838 2234 
L 1294 2234 
L 1294 2753 
L 1863 2753 
Q 2328 2753 2575 2939 
Q 2822 3125 2822 3475 
Q 2822 3834 2567 4026 
Q 2313 4219 1838 4219 
Q 1578 4219 1281 4162 
Q 984 4106 628 3988 
L 628 4550 
Q 988 4650 1302 4700 
Q 1616 4750 1894 4750 
Q 2613 4750 3031 4423 
Q 3450 4097 3450 3541 
Q 3450 3153 3228 2886 
Q 3006 2619 2597 2516 
z
" transform="scale(0.015625)"/>
     <path id="DejaVuSans-38" d="M 2034 2216 
Q 1584 2216 1326 1975 
Q 1069 1734 1069 1313 
Q 1069 891 1326 650 
Q 1584 409 2034 409 
Q 2484 409 2743 651 
Q 3003 894 3003 1313 
Q 3003 1734 2745 1975 
Q 2488 2216 2034 2216 
z
M 1403 2484 
Q 997 2584 770 2862 
Q 544 3141 544 3541 
Q 544 4100 942 4425 
Q 1341 4750 2034 4750 
Q 2731 4750 3128 4425 
Q 3525 4100 3525 3541 
Q 3525 3141 3298 2862 
Q 3072 2584 2669 2484 
Q 3125 2378 3379 2068 
Q 3634 1759 3634 1313 
Q 3634 634 3220 271 
Q 2806 -91 2034 -91 
Q 1263 -91 848 271 
Q 434 634 434 1313 
Q 434 1759 690 2068 
Q 947 2378 1403 2484 
z
M 1172 3481 
Q 1172 3119 1398 2916 
Q 1625 2713 2034 2713 
Q 2441 2713 2670 2916 
Q 2900 3119 2900 3481 
Q 2900 3844 2670 4047 
Q 2441 4250 2034 4250 
Q 1625 4250 1398 4047 
Q 1172 3844 1172 3481 
z
" transform="scale(0.015625)"/>
    </defs>
    <use xlink:href="#DejaVuSans-56"/>
    <use xlink:href="#DejaVuSans-4d" x="68.408203"/>
    <use xlink:href="#DejaVuSans-41" x="154.6875"/>
    <use xlink:href="#DejaVuSans-46" x="223.095703"/>
    <use xlink:href="#DejaVuSans-20" x="280.615234"/>
    <use xlink:href="#DejaVuSans-53" x="312.402344"/>
    <use xlink:href="#DejaVuSans-63" x="375.878906"/>
    <use xlink:href="#DejaVuSans-6f" x="430.859375"/>
    <use xlink:href="#DejaVuSans-72" x="492.041016"/>
    <use xlink:href="#DejaVuSans-65" x="530.904297"/>
    <use xlink:href="#DejaVuSans-73" x="592.427734"/>
    <use xlink:href="#DejaVuSans-20" x="644.527344"/>
    <use xlink:href="#DejaVuSans-4f" x="676.314453"/>
    <use xlink:href="#DejaVuSans-76" x="755.025391"/>
    <use xlink:href="#DejaVuSans-65" x="814.205078"/>
    <use xlink:href="#DejaVuSans-72" x="875.728516"/>
    <use xlink:href="#DejaVuSans-20" x="916.841797"/>
    <use xlink:href="#DejaVuSans-46" x="948.628906"/>
    <use xlink:href="#DejaVuSans-72" x="998.898438"/>
    <use xlink:href="#DejaVuSans-61" x="1040.011719"/>
    <use xlink:href="#DejaVuSans-6d" x="1101.291016"/>
    <use xlink:href="#DejaVuSans-65" x="1198.703125"/>
    <use xlink:href="#DejaVuSans-73" x="1260.226562"/>
    <use xlink:href="#DejaVuSans-3a" x="1312.326172"/>
    <use xlink:href="#DejaVuSans-20" x="1346.017578"/>
    <use xlink:href="#DejaVuSans-56" x="1377.804688"/>
    <use xlink:href="#DejaVuSans-69" x="1443.962891"/>
    <use xlink:href="#DejaVuSans-64" x="1471.746094"/>
    <use xlink:href="#DejaVuSans-65" x="1535.222656"/>
    <use xlink:href="#DejaVuSans-6f" x="1596.746094"/>
    <use xlink:href="#DejaVuSans-20" x="1657.927734"/>
    <use xlink:href="#DejaVuSans-23" x="1689.714844"/>
    <use xlink:href="#DejaVuSans-33" x="1773.503906"/>
    <use xlink:href="#DejaVuSans-38" x="1837.126953"/>
   </g>
  </g>
  <g id="text_38">
   <!-- Video Frames -->
   <g transform="translate(187.847438 339.936375) scale(0.12 -0.12)">
    <use xlink:href="#DejaVuSans-56"/>
    <use xlink:href="#DejaVuSans-69" x="66.158203"/>
    <use xlink:href="#DejaVuSans-64" x="93.941406"/>
    <use xlink:href="#DejaVuSans-65" x="157.417969"/>
    <use xlink:href="#DejaVuSans-6f" x="218.941406"/>
    <use xlink:href="#DejaVuSans-20" x="280.123047"/>
    <use xlink:href="#DejaVuSans-46" x="311.910156"/>
    <use xlink:href="#DejaVuSans-72" x="362.179688"/>
    <use xlink:href="#DejaVuSans-61" x="403.292969"/>
    <use xlink:href="#DejaVuSans-6d" x="464.572266"/>
    <use xlink:href="#DejaVuSans-65" x="561.984375"/>
    <use xlink:href="#DejaVuSans-73" x="623.507812"/>
   </g>
  </g>
  <g id="text_39">
   <!-- Raw VMAF Scores -->
   <g transform="translate(16.318125 226.284562) rotate(-90) scale(0.12 -0.12)">
    <defs>
     <path id="DejaVuSans-77" d="M 269 3500 
L 844 3500 
L 1563 769 
L 2278 3500 
L 2956 3500 
L 3675 769 
L 4391 3500 
L 4966 3500 
L 4050 0 
L 3372 0 
L 2619 2869 
L 1863 0 
L 1184 0 
L 269 3500 
z
" transform="scale(0.015625)"/>
    </defs>
    <use xlink:href="#DejaVuSans-52"/>
    <use xlink:href="#DejaVuSans-61" x="67.232422"/>
    <use xlink:href="#DejaVuSans-77" x="128.511719"/>
    <use xlink:href="#DejaVuSans-20" x="210.298828"/>
    <use xlink:href="#DejaVuSans-56" x="242.085938"/>
    <use xlink:href="#DejaVuSans-4d" x="310.494141"/>
    <use xlink:href="#DejaVuSans-41" x="396.773438"/>
    <use xlink:href="#DejaVuSans-46" x="465.181641"/>
    <use xlink:href="#DejaVuSans-20" x="522.701172"/>
    <use xlink:href="#DejaVuSans-53" x="554.488281"/>
    <use xlink:href="#DejaVuSans-63" x="617.964844"/>
    <use xlink:href="#DejaVuSans-6f" x="672.945312"/>
    <use xlink:href="#DejaVuSans-72" x="734.126953"/>
    <use xlink:href="#DejaVuSans-65" x="772.990234"/>
    <use xlink:href="#DejaVuSans-73" x="834.513672"/>
   </g>
  </g>
 </g>
 <defs>
  <clipPath id="p568e7c1348">
   <rect x="55.584" y="41.76" width="162.327273" height="110.88"/>
  </clipPath>
  <clipPath id="pea007882de">
   <rect x="250.376727" y="41.76" width="162.327273" height="110.88"/>
  </clipPath>
  <clipPath id="p869d5f62a9">
   <rect x="55.584" y="196.992" width="162.327273" height="110.88"/>
  </clipPath>
  <clipPath id="pa720ad88d5">
   <rect x="250.376727" y="196.992" width="162.327273" height="110.88"/>
  </clipPath>
 </defs>
</svg>
