<?xml version="1.0" encoding="utf-8" standalone="no"?>
<!DOCTYPE svg PUBLIC "-//W3C//DTD SVG 1.1//EN"
  "http://www.w3.org/Graphics/SVG/1.1/DTD/svg11.dtd">
<svg xmlns:xlink="http://www.w3.org/1999/xlink" width="419.904pt" height="349.632pt" viewBox="0 0 419.904 349.632" xmlns="http://www.w3.org/2000/svg" version="1.1">
 <metadata>
  <rdf:RDF xmlns:dc="http://purl.org/dc/elements/1.1/" xmlns:cc="http://creativecommons.org/ns#" xmlns:rdf="http://www.w3.org/1999/02/22-rdf-syntax-ns#">
   <cc:Work>
    <dc:type rdf:resource="http://purl.org/dc/dcmitype/StillImage"/>
    <dc:date>2024-07-24T16:31:52.894928</dc:date>
    <dc:format>image/svg+xml</dc:format>
    <dc:creator>
     <cc:Agent>
      <dc:title>Matplotlib v3.7.2, https://matplotlib.org/</dc:title>
     </cc:Agent>
    </dc:creator>
   </cc:Work>
  </rdf:RDF>
 </metadata>
 <defs>
  <style type="text/css">*{stroke-linejoin: round; stroke-linecap: butt}</style>
 </defs>
 <g id="figure_1">
  <g id="patch_1">
   <path d="M 0 349.632 
L 419.904 349.632 
L 419.904 -0 
L 0 -0 
z
" style="fill: #ffffff"/>
  </g>
  <g id="axes_1">
   <g id="patch_2">
    <path d="M 55.584 152.64 
L 217.911273 152.64 
L 217.911273 41.76 
L 55.584 41.76 
z
" style="fill: #ffffff"/>
   </g>
   <g id="matplotlib.axis_1">
    <g id="xtick_1">
     <g id="line2d_1">
      <defs>
       <path id="m032d127da1" d="M 0 0 
L 0 3.5 
" style="stroke: #000000; stroke-width: 0.8"/>
      </defs>
      <g>
       <use xlink:href="#m032d127da1" x="62.962512" y="152.64" style="stroke: #000000; stroke-width: 0.8"/>
      </g>
     </g>
     <g id="text_1">
      <!-- 0 -->
      <g transform="translate(59.781262 167.238437) scale(0.1 -0.1)">
       <defs>
        <path id="DejaVuSans-30" d="M 2034 4250 
Q 1547 4250 1301 3770 
Q 1056 3291 1056 2328 
Q 1056 1369 1301 889 
Q 1547 409 2034 409 
Q 2525 409 2770 889 
Q 3016 1369 3016 2328 
Q 3016 3291 2770 3770 
Q 2525 4250 2034 4250 
z
M 2034 4750 
Q 2819 4750 3233 4129 
Q 3647 3509 3647 2328 
Q 3647 1150 3233 529 
Q 2819 -91 2034 -91 
Q 1250 -91 836 529 
Q 422 1150 422 2328 
Q 422 3509 836 4129 
Q 1250 4750 2034 4750 
z
" transform="scale(0.015625)"/>
       </defs>
       <use xlink:href="#DejaVuSans-30"/>
      </g>
     </g>
    </g>
    <g id="xtick_2">
     <g id="line2d_2">
      <g>
       <use xlink:href="#m032d127da1" x="119.072873" y="152.64" style="stroke: #000000; stroke-width: 0.8"/>
      </g>
     </g>
     <g id="text_2">
      <!-- 100 -->
      <g transform="translate(109.529123 167.238437) scale(0.1 -0.1)">
       <defs>
        <path id="DejaVuSans-31" d="M 794 531 
L 1825 531 
L 1825 4091 
L 703 3866 
L 703 4441 
L 1819 4666 
L 2450 4666 
L 2450 531 
L 3481 531 
L 3481 0 
L 794 0 
L 794 531 
z
" transform="scale(0.015625)"/>
       </defs>
       <use xlink:href="#DejaVuSans-31"/>
       <use xlink:href="#DejaVuSans-30" x="63.623047"/>
       <use xlink:href="#DejaVuSans-30" x="127.246094"/>
      </g>
     </g>
    </g>
    <g id="xtick_3">
     <g id="line2d_3">
      <g>
       <use xlink:href="#m032d127da1" x="175.183233" y="152.64" style="stroke: #000000; stroke-width: 0.8"/>
      </g>
     </g>
     <g id="text_3">
      <!-- 200 -->
      <g transform="translate(165.639483 167.238437) scale(0.1 -0.1)">
       <defs>
        <path id="DejaVuSans-32" d="M 1228 531 
L 3431 531 
L 3431 0 
L 469 0 
L 469 531 
Q 828 903 1448 1529 
Q 2069 2156 2228 2338 
Q 2531 2678 2651 2914 
Q 2772 3150 2772 3378 
Q 2772 3750 2511 3984 
Q 2250 4219 1831 4219 
Q 1534 4219 1204 4116 
Q 875 4013 500 3803 
L 500 4441 
Q 881 4594 1212 4672 
Q 1544 4750 1819 4750 
Q 2544 4750 2975 4387 
Q 3406 4025 3406 3419 
Q 3406 3131 3298 2873 
Q 3191 2616 2906 2266 
Q 2828 2175 2409 1742 
Q 1991 1309 1228 531 
z
" transform="scale(0.015625)"/>
       </defs>
       <use xlink:href="#DejaVuSans-32"/>
       <use xlink:href="#DejaVuSans-30" x="63.623047"/>
       <use xlink:href="#DejaVuSans-30" x="127.246094"/>
      </g>
     </g>
    </g>
   </g>
   <g id="matplotlib.axis_2">
    <g id="ytick_1">
     <g id="line2d_4">
      <defs>
       <path id="ma0db3fde6d" d="M 0 0 
L -3.5 0 
" style="stroke: #000000; stroke-width: 0.8"/>
      </defs>
      <g>
       <use xlink:href="#ma0db3fde6d" x="55.584" y="147.6" style="stroke: #000000; stroke-width: 0.8"/>
      </g>
     </g>
     <g id="text_4">
      <!-- 0 -->
      <g transform="translate(42.2215 151.399219) scale(0.1 -0.1)">
       <use xlink:href="#DejaVuSans-30"/>
      </g>
     </g>
    </g>
    <g id="ytick_2">
     <g id="line2d_5">
      <g>
       <use xlink:href="#ma0db3fde6d" x="55.584" y="125.090342" style="stroke: #000000; stroke-width: 0.8"/>
      </g>
     </g>
     <g id="text_5">
      <!-- 10 -->
      <g transform="translate(35.859 128.889561) scale(0.1 -0.1)">
       <use xlink:href="#DejaVuSans-31"/>
       <use xlink:href="#DejaVuSans-30" x="63.623047"/>
      </g>
     </g>
    </g>
    <g id="ytick_3">
     <g id="line2d_6">
      <g>
       <use xlink:href="#ma0db3fde6d" x="55.584" y="102.580684" style="stroke: #000000; stroke-width: 0.8"/>
      </g>
     </g>
     <g id="text_6">
      <!-- 20 -->
      <g transform="translate(35.859 106.379903) scale(0.1 -0.1)">
       <use xlink:href="#DejaVuSans-32"/>
       <use xlink:href="#DejaVuSans-30" x="63.623047"/>
      </g>
     </g>
    </g>
    <g id="ytick_4">
     <g id="line2d_7">
      <g>
       <use xlink:href="#ma0db3fde6d" x="55.584" y="80.071026" style="stroke: #000000; stroke-width: 0.8"/>
      </g>
     </g>
     <g id="text_7">
      <!-- 30 -->
      <g transform="translate(35.859 83.870245) scale(0.1 -0.1)">
       <defs>
        <path id="DejaVuSans-33" d="M 2597 2516 
Q 3050 2419 3304 2112 
Q 3559 1806 3559 1356 
Q 3559 666 3084 287 
Q 2609 -91 1734 -91 
Q 1441 -91 1130 -33 
Q 819 25 488 141 
L 488 750 
Q 750 597 1062 519 
Q 1375 441 1716 441 
Q 2309 441 2620 675 
Q 2931 909 2931 1356 
Q 2931 1769 2642 2001 
Q 2353 2234 1838 2234 
L 1294 2234 
L 1294 2753 
L 1863 2753 
Q 2328 2753 2575 2939 
Q 2822 3125 2822 3475 
Q 2822 3834 2567 4026 
Q 2313 4219 1838 4219 
Q 1578 4219 1281 4162 
Q 984 4106 628 3988 
L 628 4550 
Q 988 4650 1302 4700 
Q 1616 4750 1894 4750 
Q 2613 4750 3031 4423 
Q 3450 4097 3450 3541 
Q 3450 3153 3228 2886 
Q 3006 2619 2597 2516 
z
" transform="scale(0.015625)"/>
       </defs>
       <use xlink:href="#DejaVuSans-33"/>
       <use xlink:href="#DejaVuSans-30" x="63.623047"/>
      </g>
     </g>
    </g>
    <g id="ytick_5">
     <g id="line2d_8">
      <g>
       <use xlink:href="#ma0db3fde6d" x="55.584" y="57.561368" style="stroke: #000000; stroke-width: 0.8"/>
      </g>
     </g>
     <g id="text_8">
      <!-- 40 -->
      <g transform="translate(35.859 61.360587) scale(0.1 -0.1)">
       <defs>
        <path id="DejaVuSans-34" d="M 2419 4116 
L 825 1625 
L 2419 1625 
L 2419 4116 
z
M 2253 4666 
L 3047 4666 
L 3047 1625 
L 3713 1625 
L 3713 1100 
L 3047 1100 
L 3047 0 
L 2419 0 
L 2419 1100 
L 313 1100 
L 313 1709 
L 2253 4666 
z
" transform="scale(0.015625)"/>
       </defs>
       <use xlink:href="#DejaVuSans-34"/>
       <use xlink:href="#DejaVuSans-30" x="63.623047"/>
      </g>
     </g>
    </g>
   </g>
   <g id="line2d_9">
    <path d="M 62.962512 48.24022 
L 64.08472 46.8 
L 64.645823 59.494344 
L 65.206927 65.169333 
L 65.76803 69.64286 
L 66.329134 69.869588 
L 66.890238 81.917678 
L 67.451341 85.538746 
L 68.012445 87.168398 
L 68.573548 90.892022 
L 69.134652 97.029199 
L 69.695756 97.479115 
L 70.256859 99.259449 
L 70.817963 103.935594 
L 71.379066 105.624595 
L 71.94017 105.01733 
L 72.501274 106.197777 
L 73.062377 104.181469 
L 73.623481 105.747658 
L 74.184584 107.697863 
L 75.306792 106.949343 
L 75.867895 105.859965 
L 76.428999 107.87846 
L 76.990103 110.3728 
L 77.551206 116.044764 
L 78.11231 112.878002 
L 78.673413 114.007847 
L 79.234517 117.157632 
L 79.795621 118.600835 
L 80.917828 125.916496 
L 81.478931 125.817949 
L 82.601139 131.760431 
L 83.162242 130.752099 
L 83.723346 128.938258 
L 84.284449 128.08893 
L 84.845553 126.86501 
L 85.406657 128.370929 
L 85.96776 128.852784 
L 87.089967 140.765095 
L 87.651071 142.852533 
L 88.212175 143.829952 
L 88.773278 141.773051 
L 89.334382 141.728957 
L 89.895485 142.733063 
L 90.456589 140.43841 
L 91.017693 141.017919 
L 91.578796 139.939171 
L 92.701003 134.75655 
L 93.262107 134.272871 
L 93.823211 135.562497 
L 94.384314 133.334601 
L 94.945418 133.370625 
L 95.506521 132.998066 
L 96.067625 130.135013 
L 96.628729 130.251019 
L 97.750936 124.8561 
L 98.312039 119.964859 
L 98.873143 113.597548 
L 99.434247 110.697838 
L 99.99535 119.94643 
L 100.556454 116.059087 
L 101.117557 118.741648 
L 101.678661 119.91048 
L 102.239765 118.128438 
L 102.800868 117.416036 
L 103.361972 117.154143 
L 103.923076 120.840534 
L 104.484179 125.429121 
L 105.045283 127.163193 
L 105.606386 127.271499 
L 106.16749 125.87382 
L 106.728594 126.752984 
L 107.289697 127.415648 
L 107.850801 127.840104 
L 108.411904 126.869958 
L 108.973008 126.76803 
L 109.534112 129.06684 
L 110.095215 130.171384 
L 110.656319 130.274476 
L 111.217422 129.840328 
L 111.778526 128.100766 
L 112.33963 125.159249 
L 112.900733 123.801687 
L 113.461837 118.259649 
L 114.02294 120.541059 
L 114.584044 115.684222 
L 115.145148 112.055076 
L 115.706251 109.623519 
L 116.267355 101.79758 
L 116.828458 111.41373 
L 117.389562 110.558651 
L 117.950666 115.406352 
L 118.511769 109.694285 
L 119.072873 111.993532 
L 119.633976 108.649628 
L 120.19508 109.658902 
L 120.756184 105.799074 
L 121.317287 104.840579 
L 121.878391 104.8967 
L 122.439494 101.100237 
L 123.561702 109.301323 
L 124.122805 106.877636 
L 124.683909 107.325661 
L 125.245012 111.602235 
L 125.806116 107.995306 
L 126.36722 109.863175 
L 126.928323 102.105019 
L 127.489427 96.959986 
L 128.05053 95.876175 
L 128.611634 100.097556 
L 129.172738 112.987597 
L 129.733841 116.239821 
L 130.856049 126.726036 
L 131.417152 128.912808 
L 131.978256 131.800034 
L 132.539359 133.170168 
L 133.100463 132.074841 
L 133.661567 133.763408 
L 134.22267 140.367915 
L 134.783774 138.873514 
L 135.344877 136.632376 
L 135.905981 139.181762 
L 136.467085 145.300091 
L 137.028188 144.042277 
L 137.589292 140.940013 
L 138.150395 131.286281 
L 138.711499 113.933189 
L 139.272603 111.179412 
L 139.833706 104.057815 
L 140.39481 105.000245 
L 140.955913 101.819731 
L 141.517017 103.28617 
L 142.078121 99.111372 
L 142.639224 102.196246 
L 143.200328 100.968929 
L 143.761431 97.604681 
L 144.322535 90.284716 
L 144.883639 93.502498 
L 145.444742 101.518415 
L 146.005846 103.120027 
L 146.566949 113.986348 
L 147.128053 118.668967 
L 147.689157 120.680659 
L 148.811364 140.441526 
L 149.372467 139.265795 
L 149.933571 142.936098 
L 150.494675 145.35635 
L 151.055778 143.343932 
L 151.616882 142.735472 
L 152.739089 145.436889 
L 153.300193 144.802761 
L 153.861296 146.209063 
L 154.983504 146.069406 
L 155.544607 146.656791 
L 156.105711 144.777523 
L 156.666814 146.721061 
L 157.227918 145.616093 
L 157.789022 142.80886 
L 158.350125 142.111679 
L 158.911229 142.314219 
L 159.472332 142.322906 
L 160.033436 141.161259 
L 160.59454 141.408478 
L 161.155643 141.38543 
L 161.716747 141.723541 
L 162.27785 142.243991 
L 162.838954 142.45361 
L 163.400058 142.178468 
L 163.961161 145.307261 
L 164.522265 147.6 
L 166.205576 147.6 
L 167.327783 142.399333 
L 168.44999 129.898682 
L 169.011094 135.391822 
L 169.572197 133.913072 
L 171.255508 121.362781 
L 171.816612 119.905355 
L 172.377715 121.640242 
L 172.938819 122.165088 
L 173.499922 119.943279 
L 174.061026 119.1004 
L 174.62213 115.528244 
L 175.183233 114.854883 
L 175.744337 109.03012 
L 176.30544 110.972118 
L 176.866544 111.98711 
L 177.427648 117.157493 
L 177.988751 115.766171 
L 179.110958 114.489662 
L 179.672062 112.025802 
L 180.233166 110.764009 
L 180.794269 111.421023 
L 181.355373 107.467225 
L 181.916477 105.9081 
L 182.47758 114.537898 
L 183.038684 115.979961 
L 183.599787 115.65566 
L 184.160891 108.115699 
L 184.721995 108.125033 
L 185.283098 110.485545 
L 185.844202 111.657411 
L 186.405305 113.540058 
L 186.966409 110.019219 
L 188.088616 112.147406 
L 188.64972 111.087615 
L 189.210823 115.10391 
L 189.771927 113.667323 
L 190.333031 113.305289 
L 190.894134 110.919673 
L 191.455238 107.243791 
L 192.577445 105.7362 
L 193.138549 99.467654 
L 193.699652 98.473648 
L 194.260756 96.810121 
L 194.821859 96.538425 
L 195.382963 100.617898 
L 195.944067 102.571878 
L 196.50517 105.268128 
L 197.066274 105.781762 
L 197.627377 92.125319 
L 198.188481 90.92216 
L 198.749585 92.167277 
L 199.871792 107.71292 
L 200.432895 110.607324 
L 200.993999 109.502879 
L 201.555103 111.161341 
L 202.116206 111.605233 
L 202.67731 110.002683 
L 203.238413 113.728849 
L 203.799517 112.046992 
L 204.360621 109.72909 
L 204.921724 111.997903 
L 205.482828 114.974126 
L 206.043931 115.016707 
L 206.605035 115.827561 
L 207.166139 115.975412 
L 207.727242 113.393302 
L 208.288346 113.600402 
L 208.84945 115.241324 
L 209.410553 115.491832 
L 209.971657 116.831652 
L 210.53276 114.931267 
L 210.53276 114.931267 
" clip-path="url(#p26f9efc8b3)" style="fill: none; stroke: #008000; stroke-width: 1.5; stroke-linecap: square"/>
   </g>
   <g id="patch_3">
    <path d="M 55.584 152.64 
L 55.584 41.76 
" style="fill: none; stroke: #000000; stroke-width: 0.8; stroke-linejoin: miter; stroke-linecap: square"/>
   </g>
   <g id="patch_4">
    <path d="M 217.911273 152.64 
L 217.911273 41.76 
" style="fill: none; stroke: #000000; stroke-width: 0.8; stroke-linejoin: miter; stroke-linecap: square"/>
   </g>
   <g id="patch_5">
    <path d="M 55.584 152.64 
L 217.911273 152.64 
" style="fill: none; stroke: #000000; stroke-width: 0.8; stroke-linejoin: miter; stroke-linecap: square"/>
   </g>
   <g id="patch_6">
    <path d="M 55.584 41.76 
L 217.911273 41.76 
" style="fill: none; stroke: #000000; stroke-width: 0.8; stroke-linejoin: miter; stroke-linecap: square"/>
   </g>
   <g id="text_9">
    <!-- No Prediction (FOSS) -->
    <g transform="translate(74.495761 35.76) scale(0.12 -0.12)">
     <defs>
      <path id="DejaVuSans-4e" d="M 628 4666 
L 1478 4666 
L 3547 763 
L 3547 4666 
L 4159 4666 
L 4159 0 
L 3309 0 
L 1241 3903 
L 1241 0 
L 628 0 
L 628 4666 
z
" transform="scale(0.015625)"/>
      <path id="DejaVuSans-6f" d="M 1959 3097 
Q 1497 3097 1228 2736 
Q 959 2375 959 1747 
Q 959 1119 1226 758 
Q 1494 397 1959 397 
Q 2419 397 2687 759 
Q 2956 1122 2956 1747 
Q 2956 2369 2687 2733 
Q 2419 3097 1959 3097 
z
M 1959 3584 
Q 2709 3584 3137 3096 
Q 3566 2609 3566 1747 
Q 3566 888 3137 398 
Q 2709 -91 1959 -91 
Q 1206 -91 779 398 
Q 353 888 353 1747 
Q 353 2609 779 3096 
Q 1206 3584 1959 3584 
z
" transform="scale(0.015625)"/>
      <path id="DejaVuSans-20" transform="scale(0.015625)"/>
      <path id="DejaVuSans-50" d="M 1259 4147 
L 1259 2394 
L 2053 2394 
Q 2494 2394 2734 2622 
Q 2975 2850 2975 3272 
Q 2975 3691 2734 3919 
Q 2494 4147 2053 4147 
L 1259 4147 
z
M 628 4666 
L 2053 4666 
Q 2838 4666 3239 4311 
Q 3641 3956 3641 3272 
Q 3641 2581 3239 2228 
Q 2838 1875 2053 1875 
L 1259 1875 
L 1259 0 
L 628 0 
L 628 4666 
z
" transform="scale(0.015625)"/>
      <path id="DejaVuSans-72" d="M 2631 2963 
Q 2534 3019 2420 3045 
Q 2306 3072 2169 3072 
Q 1681 3072 1420 2755 
Q 1159 2438 1159 1844 
L 1159 0 
L 581 0 
L 581 3500 
L 1159 3500 
L 1159 2956 
Q 1341 3275 1631 3429 
Q 1922 3584 2338 3584 
Q 2397 3584 2469 3576 
Q 2541 3569 2628 3553 
L 2631 2963 
z
" transform="scale(0.015625)"/>
      <path id="DejaVuSans-65" d="M 3597 1894 
L 3597 1613 
L 953 1613 
Q 991 1019 1311 708 
Q 1631 397 2203 397 
Q 2534 397 2845 478 
Q 3156 559 3463 722 
L 3463 178 
Q 3153 47 2828 -22 
Q 2503 -91 2169 -91 
Q 1331 -91 842 396 
Q 353 884 353 1716 
Q 353 2575 817 3079 
Q 1281 3584 2069 3584 
Q 2775 3584 3186 3129 
Q 3597 2675 3597 1894 
z
M 3022 2063 
Q 3016 2534 2758 2815 
Q 2500 3097 2075 3097 
Q 1594 3097 1305 2825 
Q 1016 2553 972 2059 
L 3022 2063 
z
" transform="scale(0.015625)"/>
      <path id="DejaVuSans-64" d="M 2906 2969 
L 2906 4863 
L 3481 4863 
L 3481 0 
L 2906 0 
L 2906 525 
Q 2725 213 2448 61 
Q 2172 -91 1784 -91 
Q 1150 -91 751 415 
Q 353 922 353 1747 
Q 353 2572 751 3078 
Q 1150 3584 1784 3584 
Q 2172 3584 2448 3432 
Q 2725 3281 2906 2969 
z
M 947 1747 
Q 947 1113 1208 752 
Q 1469 391 1925 391 
Q 2381 391 2643 752 
Q 2906 1113 2906 1747 
Q 2906 2381 2643 2742 
Q 2381 3103 1925 3103 
Q 1469 3103 1208 2742 
Q 947 2381 947 1747 
z
" transform="scale(0.015625)"/>
      <path id="DejaVuSans-69" d="M 603 3500 
L 1178 3500 
L 1178 0 
L 603 0 
L 603 3500 
z
M 603 4863 
L 1178 4863 
L 1178 4134 
L 603 4134 
L 603 4863 
z
" transform="scale(0.015625)"/>
      <path id="DejaVuSans-63" d="M 3122 3366 
L 3122 2828 
Q 2878 2963 2633 3030 
Q 2388 3097 2138 3097 
Q 1578 3097 1268 2742 
Q 959 2388 959 1747 
Q 959 1106 1268 751 
Q 1578 397 2138 397 
Q 2388 397 2633 464 
Q 2878 531 3122 666 
L 3122 134 
Q 2881 22 2623 -34 
Q 2366 -91 2075 -91 
Q 1284 -91 818 406 
Q 353 903 353 1747 
Q 353 2603 823 3093 
Q 1294 3584 2113 3584 
Q 2378 3584 2631 3529 
Q 2884 3475 3122 3366 
z
" transform="scale(0.015625)"/>
      <path id="DejaVuSans-74" d="M 1172 4494 
L 1172 3500 
L 2356 3500 
L 2356 3053 
L 1172 3053 
L 1172 1153 
Q 1172 725 1289 603 
Q 1406 481 1766 481 
L 2356 481 
L 2356 0 
L 1766 0 
Q 1100 0 847 248 
Q 594 497 594 1153 
L 594 3053 
L 172 3053 
L 172 3500 
L 594 3500 
L 594 4494 
L 1172 4494 
z
" transform="scale(0.015625)"/>
      <path id="DejaVuSans-6e" d="M 3513 2113 
L 3513 0 
L 2938 0 
L 2938 2094 
Q 2938 2591 2744 2837 
Q 2550 3084 2163 3084 
Q 1697 3084 1428 2787 
Q 1159 2491 1159 1978 
L 1159 0 
L 581 0 
L 581 3500 
L 1159 3500 
L 1159 2956 
Q 1366 3272 1645 3428 
Q 1925 3584 2291 3584 
Q 2894 3584 3203 3211 
Q 3513 2838 3513 2113 
z
" transform="scale(0.015625)"/>
      <path id="DejaVuSans-28" d="M 1984 4856 
Q 1566 4138 1362 3434 
Q 1159 2731 1159 2009 
Q 1159 1288 1364 580 
Q 1569 -128 1984 -844 
L 1484 -844 
Q 1016 -109 783 600 
Q 550 1309 550 2009 
Q 550 2706 781 3412 
Q 1013 4119 1484 4856 
L 1984 4856 
z
" transform="scale(0.015625)"/>
      <path id="DejaVuSans-46" d="M 628 4666 
L 3309 4666 
L 3309 4134 
L 1259 4134 
L 1259 2759 
L 3109 2759 
L 3109 2228 
L 1259 2228 
L 1259 0 
L 628 0 
L 628 4666 
z
" transform="scale(0.015625)"/>
      <path id="DejaVuSans-4f" d="M 2522 4238 
Q 1834 4238 1429 3725 
Q 1025 3213 1025 2328 
Q 1025 1447 1429 934 
Q 1834 422 2522 422 
Q 3209 422 3611 934 
Q 4013 1447 4013 2328 
Q 4013 3213 3611 3725 
Q 3209 4238 2522 4238 
z
M 2522 4750 
Q 3503 4750 4090 4092 
Q 4678 3434 4678 2328 
Q 4678 1225 4090 567 
Q 3503 -91 2522 -91 
Q 1538 -91 948 565 
Q 359 1222 359 2328 
Q 359 3434 948 4092 
Q 1538 4750 2522 4750 
z
" transform="scale(0.015625)"/>
      <path id="DejaVuSans-53" d="M 3425 4513 
L 3425 3897 
Q 3066 4069 2747 4153 
Q 2428 4238 2131 4238 
Q 1616 4238 1336 4038 
Q 1056 3838 1056 3469 
Q 1056 3159 1242 3001 
Q 1428 2844 1947 2747 
L 2328 2669 
Q 3034 2534 3370 2195 
Q 3706 1856 3706 1288 
Q 3706 609 3251 259 
Q 2797 -91 1919 -91 
Q 1588 -91 1214 -16 
Q 841 59 441 206 
L 441 856 
Q 825 641 1194 531 
Q 1563 422 1919 422 
Q 2459 422 2753 634 
Q 3047 847 3047 1241 
Q 3047 1584 2836 1778 
Q 2625 1972 2144 2069 
L 1759 2144 
Q 1053 2284 737 2584 
Q 422 2884 422 3419 
Q 422 4038 858 4394 
Q 1294 4750 2059 4750 
Q 2388 4750 2728 4690 
Q 3069 4631 3425 4513 
z
" transform="scale(0.015625)"/>
      <path id="DejaVuSans-29" d="M 513 4856 
L 1013 4856 
Q 1481 4119 1714 3412 
Q 1947 2706 1947 2009 
Q 1947 1309 1714 600 
Q 1481 -109 1013 -844 
L 513 -844 
Q 928 -128 1133 580 
Q 1338 1288 1338 2009 
Q 1338 2731 1133 3434 
Q 928 4138 513 4856 
z
" transform="scale(0.015625)"/>
     </defs>
     <use xlink:href="#DejaVuSans-4e"/>
     <use xlink:href="#DejaVuSans-6f" x="74.804688"/>
     <use xlink:href="#DejaVuSans-20" x="135.986328"/>
     <use xlink:href="#DejaVuSans-50" x="167.773438"/>
     <use xlink:href="#DejaVuSans-72" x="226.326172"/>
     <use xlink:href="#DejaVuSans-65" x="265.189453"/>
     <use xlink:href="#DejaVuSans-64" x="326.712891"/>
     <use xlink:href="#DejaVuSans-69" x="390.189453"/>
     <use xlink:href="#DejaVuSans-63" x="417.972656"/>
     <use xlink:href="#DejaVuSans-74" x="472.953125"/>
     <use xlink:href="#DejaVuSans-69" x="512.162109"/>
     <use xlink:href="#DejaVuSans-6f" x="539.945312"/>
     <use xlink:href="#DejaVuSans-6e" x="601.126953"/>
     <use xlink:href="#DejaVuSans-20" x="664.505859"/>
     <use xlink:href="#DejaVuSans-28" x="696.292969"/>
     <use xlink:href="#DejaVuSans-46" x="735.306641"/>
     <use xlink:href="#DejaVuSans-4f" x="792.826172"/>
     <use xlink:href="#DejaVuSans-53" x="871.537109"/>
     <use xlink:href="#DejaVuSans-53" x="935.013672"/>
     <use xlink:href="#DejaVuSans-29" x="998.490234"/>
    </g>
   </g>
  </g>
  <g id="axes_2">
   <g id="patch_7">
    <path d="M 250.376727 152.64 
L 412.704 152.64 
L 412.704 41.76 
L 250.376727 41.76 
z
" style="fill: #ffffff"/>
   </g>
   <g id="matplotlib.axis_3">
    <g id="xtick_4">
     <g id="line2d_10">
      <g>
       <use xlink:href="#m032d127da1" x="257.75524" y="152.64" style="stroke: #000000; stroke-width: 0.8"/>
      </g>
     </g>
     <g id="text_10">
      <!-- 0 -->
      <g transform="translate(254.57399 167.238437) scale(0.1 -0.1)">
       <use xlink:href="#DejaVuSans-30"/>
      </g>
     </g>
    </g>
    <g id="xtick_5">
     <g id="line2d_11">
      <g>
       <use xlink:href="#m032d127da1" x="313.8656" y="152.64" style="stroke: #000000; stroke-width: 0.8"/>
      </g>
     </g>
     <g id="text_11">
      <!-- 100 -->
      <g transform="translate(304.32185 167.238437) scale(0.1 -0.1)">
       <use xlink:href="#DejaVuSans-31"/>
       <use xlink:href="#DejaVuSans-30" x="63.623047"/>
       <use xlink:href="#DejaVuSans-30" x="127.246094"/>
      </g>
     </g>
    </g>
    <g id="xtick_6">
     <g id="line2d_12">
      <g>
       <use xlink:href="#m032d127da1" x="369.975961" y="152.64" style="stroke: #000000; stroke-width: 0.8"/>
      </g>
     </g>
     <g id="text_12">
      <!-- 200 -->
      <g transform="translate(360.432211 167.238437) scale(0.1 -0.1)">
       <use xlink:href="#DejaVuSans-32"/>
       <use xlink:href="#DejaVuSans-30" x="63.623047"/>
       <use xlink:href="#DejaVuSans-30" x="127.246094"/>
      </g>
     </g>
    </g>
   </g>
   <g id="matplotlib.axis_4">
    <g id="ytick_6">
     <g id="line2d_13">
      <g>
       <use xlink:href="#ma0db3fde6d" x="250.376727" y="147.6" style="stroke: #000000; stroke-width: 0.8"/>
      </g>
     </g>
     <g id="text_13">
      <!-- 0 -->
      <g transform="translate(237.014227 151.399219) scale(0.1 -0.1)">
       <use xlink:href="#DejaVuSans-30"/>
      </g>
     </g>
    </g>
    <g id="ytick_7">
     <g id="line2d_14">
      <g>
       <use xlink:href="#ma0db3fde6d" x="250.376727" y="125.081679" style="stroke: #000000; stroke-width: 0.8"/>
      </g>
     </g>
     <g id="text_14">
      <!-- 10 -->
      <g transform="translate(230.651727 128.880897) scale(0.1 -0.1)">
       <use xlink:href="#DejaVuSans-31"/>
       <use xlink:href="#DejaVuSans-30" x="63.623047"/>
      </g>
     </g>
    </g>
    <g id="ytick_8">
     <g id="line2d_15">
      <g>
       <use xlink:href="#ma0db3fde6d" x="250.376727" y="102.563357" style="stroke: #000000; stroke-width: 0.8"/>
      </g>
     </g>
     <g id="text_15">
      <!-- 20 -->
      <g transform="translate(230.651727 106.362576) scale(0.1 -0.1)">
       <use xlink:href="#DejaVuSans-32"/>
       <use xlink:href="#DejaVuSans-30" x="63.623047"/>
      </g>
     </g>
    </g>
    <g id="ytick_9">
     <g id="line2d_16">
      <g>
       <use xlink:href="#ma0db3fde6d" x="250.376727" y="80.045036" style="stroke: #000000; stroke-width: 0.8"/>
      </g>
     </g>
     <g id="text_16">
      <!-- 30 -->
      <g transform="translate(230.651727 83.844255) scale(0.1 -0.1)">
       <use xlink:href="#DejaVuSans-33"/>
       <use xlink:href="#DejaVuSans-30" x="63.623047"/>
      </g>
     </g>
    </g>
    <g id="ytick_10">
     <g id="line2d_17">
      <g>
       <use xlink:href="#ma0db3fde6d" x="250.376727" y="57.526715" style="stroke: #000000; stroke-width: 0.8"/>
      </g>
     </g>
     <g id="text_17">
      <!-- 40 -->
      <g transform="translate(230.651727 61.325934) scale(0.1 -0.1)">
       <use xlink:href="#DejaVuSans-34"/>
       <use xlink:href="#DejaVuSans-30" x="63.623047"/>
      </g>
     </g>
    </g>
   </g>
   <g id="line2d_18">
    <path d="M 257.75524 48.217053 
L 258.877447 46.8 
L 259.43855 59.436681 
L 259.999654 65.159138 
L 260.560758 69.613341 
L 261.121861 69.828026 
L 261.682965 81.884065 
L 262.244069 85.522665 
L 262.805172 87.103044 
L 263.366276 90.879693 
L 263.927379 96.997202 
L 264.488483 147.6 
L 265.61069 144.735564 
L 266.171794 147.6 
L 267.855105 147.6 
L 268.416208 142.052607 
L 268.977312 138.966327 
L 269.538415 145.86093 
L 270.099519 147.6 
L 270.660623 147.6 
L 271.221726 107.842517 
L 271.78283 109.985982 
L 272.343933 116.029091 
L 272.905037 112.855108 
L 273.466141 113.98987 
L 274.027244 117.147893 
L 274.588348 118.573057 
L 275.710555 125.901271 
L 276.271659 125.817503 
L 277.393866 131.647271 
L 277.954969 144.090576 
L 278.516073 137.2619 
L 279.077177 137.095462 
L 279.63828 138.834095 
L 280.199384 142.532243 
L 280.760487 142.026355 
L 281.321591 141.279607 
L 281.882695 143.059496 
L 282.443798 143.15283 
L 283.004902 136.48007 
L 283.566005 131.66874 
L 284.688213 142.718922 
L 285.249316 140.433038 
L 285.81042 141.025868 
L 286.371523 139.917922 
L 287.493731 134.751494 
L 288.054834 134.259498 
L 288.615938 135.562196 
L 289.177042 133.327327 
L 289.738145 133.36607 
L 290.299249 132.965361 
L 290.860352 130.210321 
L 291.421456 135.62092 
L 291.98256 144.873329 
L 292.543663 147.6 
L 293.104767 146.553731 
L 293.66587 146.654402 
L 294.226974 147.6 
L 297.593596 147.6 
L 298.154699 117.151217 
L 298.715803 120.829684 
L 299.276906 125.509306 
L 299.83801 127.151079 
L 300.399114 127.26635 
L 300.960217 125.826468 
L 301.521321 126.73998 
L 302.082424 127.375875 
L 302.643528 127.83058 
L 303.204632 126.853287 
L 303.765735 126.748368 
L 304.326839 129.14375 
L 304.887942 144.076707 
L 305.449046 133.812192 
L 306.01015 142.1511 
L 306.571253 147.6 
L 307.132357 147.6 
L 307.69346 143.612197 
L 308.254564 142.721689 
L 308.815668 144.266163 
L 309.376771 144.297967 
L 309.937875 147.6 
L 311.060082 147.6 
L 311.621186 111.396036 
L 312.182289 110.544463 
L 312.743393 115.394637 
L 313.304496 109.677652 
L 313.8656 111.985377 
L 314.426704 108.635673 
L 314.987807 109.653789 
L 315.548911 105.766384 
L 316.110015 104.837032 
L 316.671118 105.153854 
L 317.232222 101.113198 
L 317.793325 105.221776 
L 318.354429 146.590504 
L 318.915533 137.949474 
L 319.476636 137.190154 
L 320.03774 124.590932 
L 320.598843 132.772118 
L 321.159947 123.680364 
L 321.721051 139.364365 
L 322.282154 138.206021 
L 322.843258 135.376938 
L 323.404361 140.591904 
L 323.965465 144.722998 
L 324.526569 147.6 
L 325.087672 121.525572 
L 325.648776 126.710974 
L 326.209879 128.90828 
L 326.770983 131.798799 
L 327.332087 133.222005 
L 327.89319 132.07981 
L 328.454294 133.757598 
L 329.015397 140.372182 
L 329.576501 138.87191 
L 330.137605 136.628682 
L 330.698708 139.174615 
L 331.259812 145.415065 
L 331.820915 139.223783 
L 332.382019 144.079965 
L 332.943123 144.781427 
L 333.504226 143.660586 
L 334.06533 127.182902 
L 334.626433 147.6 
L 335.748641 147.6 
L 336.870848 144.531084 
L 337.431951 143.597422 
L 337.993055 139.313174 
L 338.554159 97.595302 
L 339.115262 90.368362 
L 339.676366 92.735732 
L 340.23747 101.500191 
L 340.798573 103.097922 
L 341.359677 113.973796 
L 341.92078 118.661296 
L 342.481884 120.663953 
L 343.604091 140.437764 
L 344.165195 139.261535 
L 344.726298 142.933256 
L 345.287402 147.6 
L 345.848506 147.6 
L 346.409609 144.074919 
L 346.970713 147.055255 
L 347.531816 144.56694 
L 348.09292 145.525669 
L 348.654024 146.795634 
L 349.215127 147.6 
L 349.776231 146.587819 
L 350.337334 147.6 
L 351.459542 147.6 
L 352.020645 145.631016 
L 352.581749 142.794347 
L 353.142852 142.101706 
L 353.703956 142.305308 
L 354.26506 142.329958 
L 354.826163 141.165764 
L 355.387267 141.38543 
L 355.94837 141.387418 
L 357.631681 142.444237 
L 358.192785 142.182148 
L 358.753888 147.6 
L 360.437199 147.6 
L 360.998303 147.410547 
L 361.559406 147.6 
L 363.803821 147.6 
L 364.364924 146.742133 
L 364.926028 144.702912 
L 365.487132 125.464826 
L 366.048235 121.360535 
L 366.609339 119.875956 
L 367.170443 121.669414 
L 367.731546 122.108258 
L 368.29265 119.935643 
L 368.853753 119.072777 
L 369.414857 115.523991 
L 369.975961 114.853724 
L 370.537064 109.01707 
L 371.098168 110.954049 
L 371.659271 111.970125 
L 372.220375 147.6 
L 374.464789 147.6 
L 375.025893 142.770158 
L 375.586997 141.440437 
L 376.1481 142.698989 
L 376.709204 139.508318 
L 377.270307 141.876178 
L 377.831411 146.499268 
L 378.392515 147.6 
L 378.953618 108.137635 
L 379.514722 108.110922 
L 380.075825 110.461882 
L 380.636929 111.631341 
L 381.198033 113.537134 
L 381.759136 110.012481 
L 382.881343 112.138418 
L 383.442447 111.077969 
L 384.003551 115.083661 
L 384.564654 113.652239 
L 385.125758 113.27685 
L 385.686861 141.643652 
L 386.247965 139.913709 
L 386.809069 146.157373 
L 387.370172 147.6 
L 387.931276 145.138759 
L 388.492379 147.6 
L 389.053483 146.561358 
L 389.614587 146.424147 
L 390.17569 143.549567 
L 390.736794 143.280391 
L 391.297897 146.245597 
L 391.859001 147.6 
L 392.420105 92.10346 
L 392.981208 91.212435 
L 393.542312 92.234417 
L 394.664519 107.688989 
L 395.225623 110.578322 
L 395.786726 109.489027 
L 396.34783 111.142786 
L 396.908934 111.596469 
L 397.470037 109.988877 
L 398.031141 113.719972 
L 398.592244 112.046507 
L 399.153348 147.6 
L 399.714452 147.6 
L 400.836659 140.392246 
L 401.397762 147.6 
L 402.51997 147.6 
L 403.642177 145.406423 
L 404.20328 144.985339 
L 404.764384 144.992977 
L 405.325488 143.440283 
L 405.325488 143.440283 
" clip-path="url(#p1a46b51372)" style="fill: none; stroke: #0000ff; stroke-width: 1.5; stroke-linecap: square"/>
   </g>
   <g id="patch_8">
    <path d="M 250.376727 152.64 
L 250.376727 41.76 
" style="fill: none; stroke: #000000; stroke-width: 0.8; stroke-linejoin: miter; stroke-linecap: square"/>
   </g>
   <g id="patch_9">
    <path d="M 412.704 152.64 
L 412.704 41.76 
" style="fill: none; stroke: #000000; stroke-width: 0.8; stroke-linejoin: miter; stroke-linecap: square"/>
   </g>
   <g id="patch_10">
    <path d="M 250.376727 152.64 
L 412.704 152.64 
" style="fill: none; stroke: #000000; stroke-width: 0.8; stroke-linejoin: miter; stroke-linecap: square"/>
   </g>
   <g id="patch_11">
    <path d="M 250.376727 41.76 
L 412.704 41.76 
" style="fill: none; stroke: #000000; stroke-width: 0.8; stroke-linejoin: miter; stroke-linecap: square"/>
   </g>
   <g id="text_18">
    <!-- RNN -->
    <g transform="translate(318.393801 35.76) scale(0.12 -0.12)">
     <defs>
      <path id="DejaVuSans-52" d="M 2841 2188 
Q 3044 2119 3236 1894 
Q 3428 1669 3622 1275 
L 4263 0 
L 3584 0 
L 2988 1197 
Q 2756 1666 2539 1819 
Q 2322 1972 1947 1972 
L 1259 1972 
L 1259 0 
L 628 0 
L 628 4666 
L 2053 4666 
Q 2853 4666 3247 4331 
Q 3641 3997 3641 3322 
Q 3641 2881 3436 2590 
Q 3231 2300 2841 2188 
z
M 1259 4147 
L 1259 2491 
L 2053 2491 
Q 2509 2491 2742 2702 
Q 2975 2913 2975 3322 
Q 2975 3731 2742 3939 
Q 2509 4147 2053 4147 
L 1259 4147 
z
" transform="scale(0.015625)"/>
     </defs>
     <use xlink:href="#DejaVuSans-52"/>
     <use xlink:href="#DejaVuSans-4e" x="69.482422"/>
     <use xlink:href="#DejaVuSans-4e" x="144.287109"/>
    </g>
   </g>
  </g>
  <g id="axes_3">
   <g id="patch_12">
    <path d="M 55.584 307.872 
L 217.911273 307.872 
L 217.911273 196.992 
L 55.584 196.992 
z
" style="fill: #ffffff"/>
   </g>
   <g id="matplotlib.axis_5">
    <g id="xtick_7">
     <g id="line2d_19">
      <g>
       <use xlink:href="#m032d127da1" x="62.962512" y="307.872" style="stroke: #000000; stroke-width: 0.8"/>
      </g>
     </g>
     <g id="text_19">
      <!-- 0 -->
      <g transform="translate(59.781262 322.470437) scale(0.1 -0.1)">
       <use xlink:href="#DejaVuSans-30"/>
      </g>
     </g>
    </g>
    <g id="xtick_8">
     <g id="line2d_20">
      <g>
       <use xlink:href="#m032d127da1" x="119.072873" y="307.872" style="stroke: #000000; stroke-width: 0.8"/>
      </g>
     </g>
     <g id="text_20">
      <!-- 100 -->
      <g transform="translate(109.529123 322.470437) scale(0.1 -0.1)">
       <use xlink:href="#DejaVuSans-31"/>
       <use xlink:href="#DejaVuSans-30" x="63.623047"/>
       <use xlink:href="#DejaVuSans-30" x="127.246094"/>
      </g>
     </g>
    </g>
    <g id="xtick_9">
     <g id="line2d_21">
      <g>
       <use xlink:href="#m032d127da1" x="175.183233" y="307.872" style="stroke: #000000; stroke-width: 0.8"/>
      </g>
     </g>
     <g id="text_21">
      <!-- 200 -->
      <g transform="translate(165.639483 322.470437) scale(0.1 -0.1)">
       <use xlink:href="#DejaVuSans-32"/>
       <use xlink:href="#DejaVuSans-30" x="63.623047"/>
       <use xlink:href="#DejaVuSans-30" x="127.246094"/>
      </g>
     </g>
    </g>
   </g>
   <g id="matplotlib.axis_6">
    <g id="ytick_11">
     <g id="line2d_22">
      <g>
       <use xlink:href="#ma0db3fde6d" x="55.584" y="302.832" style="stroke: #000000; stroke-width: 0.8"/>
      </g>
     </g>
     <g id="text_22">
      <!-- 0 -->
      <g transform="translate(42.2215 306.631219) scale(0.1 -0.1)">
       <use xlink:href="#DejaVuSans-30"/>
      </g>
     </g>
    </g>
    <g id="ytick_12">
     <g id="line2d_23">
      <g>
       <use xlink:href="#ma0db3fde6d" x="55.584" y="280.313679" style="stroke: #000000; stroke-width: 0.8"/>
      </g>
     </g>
     <g id="text_23">
      <!-- 10 -->
      <g transform="translate(35.859 284.112897) scale(0.1 -0.1)">
       <use xlink:href="#DejaVuSans-31"/>
       <use xlink:href="#DejaVuSans-30" x="63.623047"/>
      </g>
     </g>
    </g>
    <g id="ytick_13">
     <g id="line2d_24">
      <g>
       <use xlink:href="#ma0db3fde6d" x="55.584" y="257.795357" style="stroke: #000000; stroke-width: 0.8"/>
      </g>
     </g>
     <g id="text_24">
      <!-- 20 -->
      <g transform="translate(35.859 261.594576) scale(0.1 -0.1)">
       <use xlink:href="#DejaVuSans-32"/>
       <use xlink:href="#DejaVuSans-30" x="63.623047"/>
      </g>
     </g>
    </g>
    <g id="ytick_14">
     <g id="line2d_25">
      <g>
       <use xlink:href="#ma0db3fde6d" x="55.584" y="235.277036" style="stroke: #000000; stroke-width: 0.8"/>
      </g>
     </g>
     <g id="text_25">
      <!-- 30 -->
      <g transform="translate(35.859 239.076255) scale(0.1 -0.1)">
       <use xlink:href="#DejaVuSans-33"/>
       <use xlink:href="#DejaVuSans-30" x="63.623047"/>
      </g>
     </g>
    </g>
    <g id="ytick_15">
     <g id="line2d_26">
      <g>
       <use xlink:href="#ma0db3fde6d" x="55.584" y="212.758715" style="stroke: #000000; stroke-width: 0.8"/>
      </g>
     </g>
     <g id="text_26">
      <!-- 40 -->
      <g transform="translate(35.859 216.557934) scale(0.1 -0.1)">
       <use xlink:href="#DejaVuSans-34"/>
       <use xlink:href="#DejaVuSans-30" x="63.623047"/>
      </g>
     </g>
    </g>
   </g>
   <g id="line2d_27">
    <path d="M 62.962512 203.449053 
L 64.08472 202.032 
L 64.645823 214.668681 
L 65.206927 220.391138 
L 65.76803 224.845341 
L 66.329134 225.060026 
L 66.890238 237.116065 
L 67.451341 240.754665 
L 68.012445 242.335044 
L 68.573548 246.111693 
L 69.134652 252.229202 
L 69.695756 302.832 
L 71.94017 302.832 
L 72.501274 300.168968 
L 73.062377 302.832 
L 73.623481 302.742366 
L 74.745688 301.671099 
L 75.306792 302.832 
L 75.867895 302.832 
L 76.428999 263.074517 
L 76.990103 265.217982 
L 77.551206 271.261091 
L 78.11231 268.087108 
L 78.673413 269.22187 
L 79.234517 272.379893 
L 79.795621 273.805057 
L 80.917828 281.133271 
L 81.478931 281.049503 
L 82.601139 286.879271 
L 83.162242 302.832 
L 83.723346 302.832 
L 84.284449 297.96235 
L 84.845553 294.120758 
L 85.406657 291.998647 
L 85.96776 290.826325 
L 86.528864 293.778281 
L 87.089967 292.64568 
L 87.651071 292.810764 
L 88.773278 288.73661 
L 89.334382 289.779588 
L 89.895485 297.950922 
L 90.456589 295.665038 
L 91.017693 296.257868 
L 91.578796 295.149922 
L 92.701003 289.983494 
L 93.262107 289.491498 
L 93.823211 290.794196 
L 94.384314 288.559327 
L 94.945418 288.59807 
L 95.506521 288.197361 
L 96.067625 285.442321 
L 96.628729 287.257915 
L 97.189832 282.517382 
L 97.750936 279.937064 
L 98.312039 273.472563 
L 98.873143 268.962968 
L 99.434247 282.234064 
L 99.99535 290.794145 
L 100.556454 292.632835 
L 101.117557 291.271673 
L 101.678661 296.953428 
L 102.239765 300.019392 
L 102.800868 298.809701 
L 103.361972 272.383217 
L 103.923076 276.061684 
L 104.484179 280.741306 
L 105.045283 282.383079 
L 105.606386 282.49835 
L 106.16749 281.058468 
L 106.728594 281.97198 
L 107.289697 282.607875 
L 107.850801 283.06258 
L 108.411904 282.085287 
L 108.973008 281.980368 
L 109.534112 284.37575 
L 110.095215 302.448556 
L 111.217422 295.119892 
L 111.778526 291.182653 
L 112.33963 290.586953 
L 112.900733 290.482394 
L 113.461837 288.952806 
L 115.145148 294.316377 
L 115.706251 296.575591 
L 116.267355 296.006098 
L 116.828458 266.628036 
L 117.389562 265.776463 
L 117.950666 270.626637 
L 118.511769 264.909652 
L 119.072873 267.217377 
L 119.633976 263.867673 
L 120.19508 264.885789 
L 120.756184 260.998384 
L 121.317287 260.069032 
L 121.878391 260.385854 
L 122.439494 256.345198 
L 123.000598 260.453776 
L 123.561702 301.657084 
L 124.122805 294.630582 
L 124.683909 294.042417 
L 125.245012 290.456671 
L 125.806116 296.718994 
L 126.36722 294.331428 
L 126.928323 295.53862 
L 127.489427 291.163204 
L 128.611634 284.857491 
L 129.172738 285.046827 
L 129.733841 295.551629 
L 130.294945 276.757572 
L 130.856049 281.942974 
L 131.417152 284.14028 
L 131.978256 287.030799 
L 132.539359 288.454005 
L 133.100463 287.31181 
L 133.661567 288.989598 
L 134.22267 295.604182 
L 134.783774 294.10391 
L 135.344877 291.860682 
L 135.905981 294.406615 
L 136.467085 300.647065 
L 137.028188 302.832 
L 138.711499 302.832 
L 139.272603 302.385477 
L 139.833706 301.431363 
L 140.39481 302.832 
L 143.200328 302.832 
L 143.761431 252.827302 
L 144.322535 245.600362 
L 144.883639 247.967732 
L 145.444742 256.732191 
L 146.005846 258.329922 
L 146.566949 269.205796 
L 147.128053 273.893296 
L 147.689157 275.895953 
L 148.811364 295.669764 
L 149.372467 294.493535 
L 149.933571 298.165256 
L 150.494675 302.832 
L 152.739089 302.832 
L 153.300193 301.047813 
L 153.861296 302.832 
L 156.666814 302.832 
L 157.227918 300.863016 
L 157.789022 298.026347 
L 158.350125 297.333706 
L 158.911229 297.537308 
L 159.472332 297.561958 
L 160.033436 296.397764 
L 160.59454 296.61743 
L 161.155643 296.619418 
L 162.838954 297.676237 
L 163.400058 297.414148 
L 163.961161 302.832 
L 170.133301 302.832 
L 170.694404 280.696826 
L 171.255508 276.592535 
L 171.816612 275.107956 
L 172.377715 276.901414 
L 172.938819 277.340258 
L 173.499922 275.167643 
L 174.061026 274.304777 
L 174.62213 270.755991 
L 175.183233 270.085724 
L 175.744337 264.24907 
L 176.30544 266.186049 
L 176.866544 267.202125 
L 177.427648 299.965001 
L 177.988751 300.473118 
L 178.549855 302.726788 
L 179.672062 302.832 
L 180.233166 300.204952 
L 180.794269 299.061908 
L 181.355373 300.423244 
L 181.916477 296.311415 
L 182.47758 300.176248 
L 183.038684 297.722989 
L 183.599787 299.037553 
L 184.160891 263.369635 
L 184.721995 263.342922 
L 185.283098 265.693882 
L 185.844202 266.863341 
L 186.405305 268.769134 
L 186.966409 265.244481 
L 188.088616 267.370418 
L 188.64972 266.309969 
L 189.210823 270.315661 
L 189.771927 268.884239 
L 190.333031 268.50885 
L 190.894134 301.077521 
L 191.455238 298.777311 
L 192.016341 292.884306 
L 192.577445 295.855121 
L 193.138549 295.621206 
L 193.699652 300.766511 
L 194.260756 302.832 
L 194.821859 302.832 
L 195.382963 302.346167 
L 195.944067 302.323948 
L 196.50517 302.832 
L 197.066274 302.832 
L 197.627377 247.33546 
L 198.188481 246.444435 
L 198.749585 247.466417 
L 199.871792 262.920989 
L 200.432895 265.810322 
L 200.993999 264.721027 
L 201.555103 266.374786 
L 202.116206 266.828469 
L 202.67731 265.220877 
L 203.238413 268.951972 
L 203.799517 267.278507 
L 204.360621 302.832 
L 207.727242 302.832 
L 208.288346 300.577738 
L 208.84945 302.832 
L 209.410553 302.832 
L 209.971657 297.182606 
L 210.53276 301.050051 
L 210.53276 301.050051 
" clip-path="url(#p45fc1bf906)" style="fill: none; stroke: #ffa500; stroke-width: 1.5; stroke-linecap: square"/>
   </g>
   <g id="patch_13">
    <path d="M 55.584 307.872 
L 55.584 196.992 
" style="fill: none; stroke: #000000; stroke-width: 0.8; stroke-linejoin: miter; stroke-linecap: square"/>
   </g>
   <g id="patch_14">
    <path d="M 217.911273 307.872 
L 217.911273 196.992 
" style="fill: none; stroke: #000000; stroke-width: 0.8; stroke-linejoin: miter; stroke-linecap: square"/>
   </g>
   <g id="patch_15">
    <path d="M 55.584 307.872 
L 217.911273 307.872 
" style="fill: none; stroke: #000000; stroke-width: 0.8; stroke-linejoin: miter; stroke-linecap: square"/>
   </g>
   <g id="patch_16">
    <path d="M 55.584 196.992 
L 217.911273 196.992 
" style="fill: none; stroke: #000000; stroke-width: 0.8; stroke-linejoin: miter; stroke-linecap: square"/>
   </g>
   <g id="text_27">
    <!-- VAE -->
    <g transform="translate(125.130136 190.992) scale(0.12 -0.12)">
     <defs>
      <path id="DejaVuSans-56" d="M 1831 0 
L 50 4666 
L 709 4666 
L 2188 738 
L 3669 4666 
L 4325 4666 
L 2547 0 
L 1831 0 
z
" transform="scale(0.015625)"/>
      <path id="DejaVuSans-41" d="M 2188 4044 
L 1331 1722 
L 3047 1722 
L 2188 4044 
z
M 1831 4666 
L 2547 4666 
L 4325 0 
L 3669 0 
L 3244 1197 
L 1141 1197 
L 716 0 
L 50 0 
L 1831 4666 
z
" transform="scale(0.015625)"/>
      <path id="DejaVuSans-45" d="M 628 4666 
L 3578 4666 
L 3578 4134 
L 1259 4134 
L 1259 2753 
L 3481 2753 
L 3481 2222 
L 1259 2222 
L 1259 531 
L 3634 531 
L 3634 0 
L 628 0 
L 628 4666 
z
" transform="scale(0.015625)"/>
     </defs>
     <use xlink:href="#DejaVuSans-56"/>
     <use xlink:href="#DejaVuSans-41" x="62.033203"/>
     <use xlink:href="#DejaVuSans-45" x="130.441406"/>
    </g>
   </g>
  </g>
  <g id="axes_4">
   <g id="patch_17">
    <path d="M 250.376727 307.872 
L 412.704 307.872 
L 412.704 196.992 
L 250.376727 196.992 
z
" style="fill: #ffffff"/>
   </g>
   <g id="matplotlib.axis_7">
    <g id="xtick_10">
     <g id="line2d_28">
      <g>
       <use xlink:href="#m032d127da1" x="257.75524" y="307.872" style="stroke: #000000; stroke-width: 0.8"/>
      </g>
     </g>
     <g id="text_28">
      <!-- 0 -->
      <g transform="translate(254.57399 322.470437) scale(0.1 -0.1)">
       <use xlink:href="#DejaVuSans-30"/>
      </g>
     </g>
    </g>
    <g id="xtick_11">
     <g id="line2d_29">
      <g>
       <use xlink:href="#m032d127da1" x="313.8656" y="307.872" style="stroke: #000000; stroke-width: 0.8"/>
      </g>
     </g>
     <g id="text_29">
      <!-- 100 -->
      <g transform="translate(304.32185 322.470437) scale(0.1 -0.1)">
       <use xlink:href="#DejaVuSans-31"/>
       <use xlink:href="#DejaVuSans-30" x="63.623047"/>
       <use xlink:href="#DejaVuSans-30" x="127.246094"/>
      </g>
     </g>
    </g>
    <g id="xtick_12">
     <g id="line2d_30">
      <g>
       <use xlink:href="#m032d127da1" x="369.975961" y="307.872" style="stroke: #000000; stroke-width: 0.8"/>
      </g>
     </g>
     <g id="text_30">
      <!-- 200 -->
      <g transform="translate(360.432211 322.470437) scale(0.1 -0.1)">
       <use xlink:href="#DejaVuSans-32"/>
       <use xlink:href="#DejaVuSans-30" x="63.623047"/>
       <use xlink:href="#DejaVuSans-30" x="127.246094"/>
      </g>
     </g>
    </g>
   </g>
   <g id="matplotlib.axis_8">
    <g id="ytick_16">
     <g id="line2d_31">
      <g>
       <use xlink:href="#ma0db3fde6d" x="250.376727" y="302.832" style="stroke: #000000; stroke-width: 0.8"/>
      </g>
     </g>
     <g id="text_31">
      <!-- 0 -->
      <g transform="translate(237.014227 306.631219) scale(0.1 -0.1)">
       <use xlink:href="#DejaVuSans-30"/>
      </g>
     </g>
    </g>
    <g id="ytick_17">
     <g id="line2d_32">
      <g>
       <use xlink:href="#ma0db3fde6d" x="250.376727" y="280.322342" style="stroke: #000000; stroke-width: 0.8"/>
      </g>
     </g>
     <g id="text_32">
      <!-- 10 -->
      <g transform="translate(230.651727 284.121561) scale(0.1 -0.1)">
       <use xlink:href="#DejaVuSans-31"/>
       <use xlink:href="#DejaVuSans-30" x="63.623047"/>
      </g>
     </g>
    </g>
    <g id="ytick_18">
     <g id="line2d_33">
      <g>
       <use xlink:href="#ma0db3fde6d" x="250.376727" y="257.812684" style="stroke: #000000; stroke-width: 0.8"/>
      </g>
     </g>
     <g id="text_33">
      <!-- 20 -->
      <g transform="translate(230.651727 261.611903) scale(0.1 -0.1)">
       <use xlink:href="#DejaVuSans-32"/>
       <use xlink:href="#DejaVuSans-30" x="63.623047"/>
      </g>
     </g>
    </g>
    <g id="ytick_19">
     <g id="line2d_34">
      <g>
       <use xlink:href="#ma0db3fde6d" x="250.376727" y="235.303026" style="stroke: #000000; stroke-width: 0.8"/>
      </g>
     </g>
     <g id="text_34">
      <!-- 30 -->
      <g transform="translate(230.651727 239.102245) scale(0.1 -0.1)">
       <use xlink:href="#DejaVuSans-33"/>
       <use xlink:href="#DejaVuSans-30" x="63.623047"/>
      </g>
     </g>
    </g>
    <g id="ytick_20">
     <g id="line2d_35">
      <g>
       <use xlink:href="#ma0db3fde6d" x="250.376727" y="212.793368" style="stroke: #000000; stroke-width: 0.8"/>
      </g>
     </g>
     <g id="text_35">
      <!-- 40 -->
      <g transform="translate(230.651727 216.592587) scale(0.1 -0.1)">
       <use xlink:href="#DejaVuSans-34"/>
       <use xlink:href="#DejaVuSans-30" x="63.623047"/>
      </g>
     </g>
    </g>
   </g>
   <g id="line2d_36">
    <path d="M 257.75524 203.47222 
L 258.877447 202.032 
L 259.43855 214.726344 
L 259.999654 220.401333 
L 260.560758 224.87486 
L 261.121861 225.101588 
L 261.682965 237.149678 
L 262.244069 240.770746 
L 262.805172 242.400398 
L 263.366276 246.124022 
L 263.927379 252.261199 
L 264.488483 255.067948 
L 265.049587 257.150598 
L 265.61069 277.399465 
L 266.732897 300.785226 
L 267.294001 295.060671 
L 267.855105 294.375065 
L 268.416208 282.585463 
L 268.977312 284.111462 
L 269.538415 286.073031 
L 270.099519 281.07963 
L 270.660623 286.618374 
L 271.221726 263.11046 
L 271.78283 265.6048 
L 272.343933 271.276764 
L 272.905037 268.110002 
L 273.466141 269.239847 
L 274.027244 272.389632 
L 274.588348 273.832835 
L 275.710555 281.148496 
L 276.271659 281.049949 
L 277.393866 286.992431 
L 277.954969 288.152432 
L 278.516073 291.403642 
L 279.077177 291.755938 
L 279.63828 282.777585 
L 280.199384 286.391626 
L 280.760487 277.693189 
L 281.321591 281.082842 
L 281.882695 289.369203 
L 282.443798 286.136519 
L 283.004902 291.14228 
L 283.566005 293.666641 
L 284.127109 291.100691 
L 284.688213 297.965063 
L 285.249316 295.67041 
L 285.81042 296.249919 
L 286.371523 295.171171 
L 287.493731 289.98855 
L 288.054834 289.504871 
L 288.615938 290.794497 
L 289.177042 288.566601 
L 289.738145 288.602625 
L 290.299249 288.230066 
L 290.860352 285.367013 
L 291.421456 290.70367 
L 292.543663 278.700802 
L 293.104767 270.016421 
L 294.226974 271.157893 
L 294.788078 293.704786 
L 295.349181 277.390299 
L 295.910285 282.475159 
L 296.471388 282.276142 
L 297.032492 286.324605 
L 297.593596 277.991251 
L 298.154699 272.386143 
L 298.715803 276.072534 
L 299.276906 280.661121 
L 299.83801 282.395193 
L 300.399114 282.503499 
L 300.960217 281.10582 
L 301.521321 281.984984 
L 302.082424 282.647648 
L 302.643528 283.072104 
L 303.204632 282.101958 
L 303.765735 282.00003 
L 304.326839 284.29884 
L 304.887942 285.091909 
L 305.449046 288.585646 
L 306.01015 282.43536 
L 306.571253 290.951216 
L 307.132357 283.82446 
L 307.69346 273.636386 
L 308.254564 276.927942 
L 308.815668 272.635046 
L 309.376771 278.786873 
L 309.937875 276.590763 
L 310.498978 276.661299 
L 311.060082 266.309006 
L 311.621186 266.64573 
L 312.182289 265.790651 
L 312.743393 270.638352 
L 313.304496 264.926285 
L 313.8656 267.225532 
L 314.426704 263.881628 
L 314.987807 264.890902 
L 315.548911 261.031074 
L 316.110015 260.072579 
L 316.671118 260.1287 
L 317.232222 256.332237 
L 317.793325 260.478647 
L 318.354429 273.40963 
L 318.915533 265.406907 
L 319.476636 266.791104 
L 320.03774 267.357339 
L 320.598843 274.149964 
L 321.159947 268.414287 
L 321.721051 255.782232 
L 322.282154 255.778666 
L 322.843258 261.317357 
L 323.404361 261.697511 
L 323.965465 270.190556 
L 324.526569 274.953133 
L 325.087672 276.758509 
L 325.648776 281.958036 
L 326.209879 284.144808 
L 326.770983 287.032034 
L 327.332087 288.402168 
L 327.89319 287.306841 
L 328.454294 288.995408 
L 329.015397 295.599915 
L 329.576501 294.105514 
L 330.137605 291.864376 
L 330.698708 294.413762 
L 331.259812 300.532091 
L 331.820915 302.832 
L 332.382019 302.748016 
L 332.943123 298.01408 
L 334.06533 278.052166 
L 334.626433 275.765048 
L 335.187537 278.553407 
L 335.748641 285.456039 
L 336.309744 281.530687 
L 336.870848 279.208542 
L 337.431951 266.952593 
L 337.993055 262.570764 
L 338.554159 252.836681 
L 339.115262 245.516716 
L 339.676366 248.734498 
L 340.23747 256.750415 
L 340.798573 258.352027 
L 341.359677 269.218348 
L 341.92078 273.900967 
L 342.481884 275.912659 
L 343.604091 295.673526 
L 344.165195 294.497795 
L 344.726298 298.168098 
L 345.287402 302.832 
L 345.848506 300.782367 
L 346.409609 302.819356 
L 346.970713 298.662617 
L 347.531816 302.832 
L 348.09292 300.616874 
L 348.654024 302.832 
L 349.215127 302.510387 
L 349.776231 302.832 
L 350.337334 302.832 
L 350.898438 301.654409 
L 351.459542 302.832 
L 352.020645 300.848093 
L 352.581749 298.04086 
L 353.142852 297.343679 
L 353.703956 297.546219 
L 354.26506 297.554906 
L 354.826163 296.393259 
L 355.387267 296.640478 
L 355.94837 296.61743 
L 356.509474 296.955541 
L 357.070578 297.475991 
L 357.631681 297.68561 
L 358.192785 297.410468 
L 358.753888 302.832 
L 361.559406 302.832 
L 362.12051 300.511727 
L 362.681614 293.422718 
L 363.242717 288.279565 
L 363.803821 291.862972 
L 364.364924 286.492082 
L 364.926028 279.42506 
L 365.487132 280.702091 
L 366.048235 276.594781 
L 366.609339 275.137355 
L 367.170443 276.872242 
L 367.731546 277.397088 
L 368.29265 275.175279 
L 368.853753 274.3324 
L 369.414857 270.760244 
L 369.975961 270.086883 
L 370.537064 264.26212 
L 371.098168 266.204118 
L 371.659271 267.21911 
L 372.220375 280.112255 
L 372.781479 275.60262 
L 373.342582 275.089398 
L 373.903686 275.633092 
L 374.464789 277.821373 
L 375.025893 278.322046 
L 375.586997 268.047038 
L 376.1481 269.335923 
L 376.709204 268.093948 
L 377.270307 273.994515 
L 377.831411 275.446696 
L 378.392515 280.541906 
L 378.953618 263.347699 
L 379.514722 263.357033 
L 380.075825 265.717545 
L 380.636929 266.889411 
L 381.198033 268.772058 
L 381.759136 265.251219 
L 382.881343 267.379406 
L 383.442447 266.319615 
L 384.003551 270.33591 
L 384.564654 268.899323 
L 385.125758 268.537289 
L 385.686861 269.592373 
L 386.247965 279.325169 
L 386.809069 266.098001 
L 387.370172 270.811116 
L 387.931276 266.120017 
L 388.492379 260.251601 
L 389.053483 267.481275 
L 389.614587 258.082287 
L 390.17569 266.799863 
L 390.736794 269.744844 
L 391.297897 271.561241 
L 391.859001 274.625265 
L 392.420105 247.357319 
L 392.981208 246.15416 
L 393.542312 247.399277 
L 394.664519 262.94492 
L 395.225623 265.839324 
L 395.786726 264.734879 
L 396.34783 266.393341 
L 396.908934 266.837233 
L 397.470037 265.234683 
L 398.031141 268.960849 
L 398.592244 267.278992 
L 399.153348 277.631612 
L 399.714452 278.686005 
L 400.275555 277.598766 
L 400.836659 277.925844 
L 401.397762 277.361996 
L 401.958866 277.550563 
L 402.51997 273.283457 
L 403.081073 283.91844 
L 404.20328 288.528467 
L 404.764384 287.843381 
L 405.325488 285.66103 
L 405.325488 285.66103 
" clip-path="url(#p41bcbe69a7)" style="fill: none; stroke: #ff0000; stroke-width: 1.5; stroke-linecap: square"/>
   </g>
   <g id="patch_18">
    <path d="M 250.376727 307.872 
L 250.376727 196.992 
" style="fill: none; stroke: #000000; stroke-width: 0.8; stroke-linejoin: miter; stroke-linecap: square"/>
   </g>
   <g id="patch_19">
    <path d="M 412.704 307.872 
L 412.704 196.992 
" style="fill: none; stroke: #000000; stroke-width: 0.8; stroke-linejoin: miter; stroke-linecap: square"/>
   </g>
   <g id="patch_20">
    <path d="M 250.376727 307.872 
L 412.704 307.872 
" style="fill: none; stroke: #000000; stroke-width: 0.8; stroke-linejoin: miter; stroke-linecap: square"/>
   </g>
   <g id="patch_21">
    <path d="M 250.376727 196.992 
L 412.704 196.992 
" style="fill: none; stroke: #000000; stroke-width: 0.8; stroke-linejoin: miter; stroke-linecap: square"/>
   </g>
   <g id="text_36">
    <!-- VRNN -->
    <g transform="translate(314.289426 190.992) scale(0.12 -0.12)">
     <use xlink:href="#DejaVuSans-56"/>
     <use xlink:href="#DejaVuSans-52" x="68.408203"/>
     <use xlink:href="#DejaVuSans-4e" x="137.890625"/>
     <use xlink:href="#DejaVuSans-4e" x="212.695312"/>
    </g>
   </g>
  </g>
  <g id="text_37">
   <!-- VMAF Scores Over Frames: Video #23 -->
   <g transform="translate(114.338063 16.318125) scale(0.12 -0.12)">
    <defs>
     <path id="DejaVuSans-4d" d="M 628 4666 
L 1569 4666 
L 2759 1491 
L 3956 4666 
L 4897 4666 
L 4897 0 
L 4281 0 
L 4281 4097 
L 3078 897 
L 2444 897 
L 1241 4097 
L 1241 0 
L 628 0 
L 628 4666 
z
" transform="scale(0.015625)"/>
     <path id="DejaVuSans-73" d="M 2834 3397 
L 2834 2853 
Q 2591 2978 2328 3040 
Q 2066 3103 1784 3103 
Q 1356 3103 1142 2972 
Q 928 2841 928 2578 
Q 928 2378 1081 2264 
Q 1234 2150 1697 2047 
L 1894 2003 
Q 2506 1872 2764 1633 
Q 3022 1394 3022 966 
Q 3022 478 2636 193 
Q 2250 -91 1575 -91 
Q 1294 -91 989 -36 
Q 684 19 347 128 
L 347 722 
Q 666 556 975 473 
Q 1284 391 1588 391 
Q 1994 391 2212 530 
Q 2431 669 2431 922 
Q 2431 1156 2273 1281 
Q 2116 1406 1581 1522 
L 1381 1569 
Q 847 1681 609 1914 
Q 372 2147 372 2553 
Q 372 3047 722 3315 
Q 1072 3584 1716 3584 
Q 2034 3584 2315 3537 
Q 2597 3491 2834 3397 
z
" transform="scale(0.015625)"/>
     <path id="DejaVuSans-76" d="M 191 3500 
L 800 3500 
L 1894 563 
L 2988 3500 
L 3597 3500 
L 2284 0 
L 1503 0 
L 191 3500 
z
" transform="scale(0.015625)"/>
     <path id="DejaVuSans-61" d="M 2194 1759 
Q 1497 1759 1228 1600 
Q 959 1441 959 1056 
Q 959 750 1161 570 
Q 1363 391 1709 391 
Q 2188 391 2477 730 
Q 2766 1069 2766 1631 
L 2766 1759 
L 2194 1759 
z
M 3341 1997 
L 3341 0 
L 2766 0 
L 2766 531 
Q 2569 213 2275 61 
Q 1981 -91 1556 -91 
Q 1019 -91 701 211 
Q 384 513 384 1019 
Q 384 1609 779 1909 
Q 1175 2209 1959 2209 
L 2766 2209 
L 2766 2266 
Q 2766 2663 2505 2880 
Q 2244 3097 1772 3097 
Q 1472 3097 1187 3025 
Q 903 2953 641 2809 
L 641 3341 
Q 956 3463 1253 3523 
Q 1550 3584 1831 3584 
Q 2591 3584 2966 3190 
Q 3341 2797 3341 1997 
z
" transform="scale(0.015625)"/>
     <path id="DejaVuSans-6d" d="M 3328 2828 
Q 3544 3216 3844 3400 
Q 4144 3584 4550 3584 
Q 5097 3584 5394 3201 
Q 5691 2819 5691 2113 
L 5691 0 
L 5113 0 
L 5113 2094 
Q 5113 2597 4934 2840 
Q 4756 3084 4391 3084 
Q 3944 3084 3684 2787 
Q 3425 2491 3425 1978 
L 3425 0 
L 2847 0 
L 2847 2094 
Q 2847 2600 2669 2842 
Q 2491 3084 2119 3084 
Q 1678 3084 1418 2786 
Q 1159 2488 1159 1978 
L 1159 0 
L 581 0 
L 581 3500 
L 1159 3500 
L 1159 2956 
Q 1356 3278 1631 3431 
Q 1906 3584 2284 3584 
Q 2666 3584 2933 3390 
Q 3200 3197 3328 2828 
z
" transform="scale(0.015625)"/>
     <path id="DejaVuSans-3a" d="M 750 794 
L 1409 794 
L 1409 0 
L 750 0 
L 750 794 
z
M 750 3309 
L 1409 3309 
L 1409 2516 
L 750 2516 
L 750 3309 
z
" transform="scale(0.015625)"/>
     <path id="DejaVuSans-23" d="M 3272 2816 
L 2363 2816 
L 2100 1772 
L 3016 1772 
L 3272 2816 
z
M 2803 4594 
L 2478 3297 
L 3391 3297 
L 3719 4594 
L 4219 4594 
L 3897 3297 
L 4872 3297 
L 4872 2816 
L 3775 2816 
L 3519 1772 
L 4513 1772 
L 4513 1294 
L 3397 1294 
L 3072 0 
L 2572 0 
L 2894 1294 
L 1978 1294 
L 1656 0 
L 1153 0 
L 1478 1294 
L 494 1294 
L 494 1772 
L 1594 1772 
L 1856 2816 
L 850 2816 
L 850 3297 
L 1978 3297 
L 2297 4594 
L 2803 4594 
z
" transform="scale(0.015625)"/>
    </defs>
    <use xlink:href="#DejaVuSans-56"/>
    <use xlink:href="#DejaVuSans-4d" x="68.408203"/>
    <use xlink:href="#DejaVuSans-41" x="154.6875"/>
    <use xlink:href="#DejaVuSans-46" x="223.095703"/>
    <use xlink:href="#DejaVuSans-20" x="280.615234"/>
    <use xlink:href="#DejaVuSans-53" x="312.402344"/>
    <use xlink:href="#DejaVuSans-63" x="375.878906"/>
    <use xlink:href="#DejaVuSans-6f" x="430.859375"/>
    <use xlink:href="#DejaVuSans-72" x="492.041016"/>
    <use xlink:href="#DejaVuSans-65" x="530.904297"/>
    <use xlink:href="#DejaVuSans-73" x="592.427734"/>
    <use xlink:href="#DejaVuSans-20" x="644.527344"/>
    <use xlink:href="#DejaVuSans-4f" x="676.314453"/>
    <use xlink:href="#DejaVuSans-76" x="755.025391"/>
    <use xlink:href="#DejaVuSans-65" x="814.205078"/>
    <use xlink:href="#DejaVuSans-72" x="875.728516"/>
    <use xlink:href="#DejaVuSans-20" x="916.841797"/>
    <use xlink:href="#DejaVuSans-46" x="948.628906"/>
    <use xlink:href="#DejaVuSans-72" x="998.898438"/>
    <use xlink:href="#DejaVuSans-61" x="1040.011719"/>
    <use xlink:href="#DejaVuSans-6d" x="1101.291016"/>
    <use xlink:href="#DejaVuSans-65" x="1198.703125"/>
    <use xlink:href="#DejaVuSans-73" x="1260.226562"/>
    <use xlink:href="#DejaVuSans-3a" x="1312.326172"/>
    <use xlink:href="#DejaVuSans-20" x="1346.017578"/>
    <use xlink:href="#DejaVuSans-56" x="1377.804688"/>
    <use xlink:href="#DejaVuSans-69" x="1443.962891"/>
    <use xlink:href="#DejaVuSans-64" x="1471.746094"/>
    <use xlink:href="#DejaVuSans-65" x="1535.222656"/>
    <use xlink:href="#DejaVuSans-6f" x="1596.746094"/>
    <use xlink:href="#DejaVuSans-20" x="1657.927734"/>
    <use xlink:href="#DejaVuSans-23" x="1689.714844"/>
    <use xlink:href="#DejaVuSans-32" x="1773.503906"/>
    <use xlink:href="#DejaVuSans-33" x="1837.126953"/>
   </g>
  </g>
  <g id="text_38">
   <!-- Video Frames -->
   <g transform="translate(187.847438 339.936375) scale(0.12 -0.12)">
    <use xlink:href="#DejaVuSans-56"/>
    <use xlink:href="#DejaVuSans-69" x="66.158203"/>
    <use xlink:href="#DejaVuSans-64" x="93.941406"/>
    <use xlink:href="#DejaVuSans-65" x="157.417969"/>
    <use xlink:href="#DejaVuSans-6f" x="218.941406"/>
    <use xlink:href="#DejaVuSans-20" x="280.123047"/>
    <use xlink:href="#DejaVuSans-46" x="311.910156"/>
    <use xlink:href="#DejaVuSans-72" x="362.179688"/>
    <use xlink:href="#DejaVuSans-61" x="403.292969"/>
    <use xlink:href="#DejaVuSans-6d" x="464.572266"/>
    <use xlink:href="#DejaVuSans-65" x="561.984375"/>
    <use xlink:href="#DejaVuSans-73" x="623.507812"/>
   </g>
  </g>
  <g id="text_39">
   <!-- Raw VMAF Scores -->
   <g transform="translate(16.318125 226.284562) rotate(-90) scale(0.12 -0.12)">
    <defs>
     <path id="DejaVuSans-77" d="M 269 3500 
L 844 3500 
L 1563 769 
L 2278 3500 
L 2956 3500 
L 3675 769 
L 4391 3500 
L 4966 3500 
L 4050 0 
L 3372 0 
L 2619 2869 
L 1863 0 
L 1184 0 
L 269 3500 
z
" transform="scale(0.015625)"/>
    </defs>
    <use xlink:href="#DejaVuSans-52"/>
    <use xlink:href="#DejaVuSans-61" x="67.232422"/>
    <use xlink:href="#DejaVuSans-77" x="128.511719"/>
    <use xlink:href="#DejaVuSans-20" x="210.298828"/>
    <use xlink:href="#DejaVuSans-56" x="242.085938"/>
    <use xlink:href="#DejaVuSans-4d" x="310.494141"/>
    <use xlink:href="#DejaVuSans-41" x="396.773438"/>
    <use xlink:href="#DejaVuSans-46" x="465.181641"/>
    <use xlink:href="#DejaVuSans-20" x="522.701172"/>
    <use xlink:href="#DejaVuSans-53" x="554.488281"/>
    <use xlink:href="#DejaVuSans-63" x="617.964844"/>
    <use xlink:href="#DejaVuSans-6f" x="672.945312"/>
    <use xlink:href="#DejaVuSans-72" x="734.126953"/>
    <use xlink:href="#DejaVuSans-65" x="772.990234"/>
    <use xlink:href="#DejaVuSans-73" x="834.513672"/>
   </g>
  </g>
 </g>
 <defs>
  <clipPath id="p26f9efc8b3">
   <rect x="55.584" y="41.76" width="162.327273" height="110.88"/>
  </clipPath>
  <clipPath id="p1a46b51372">
   <rect x="250.376727" y="41.76" width="162.327273" height="110.88"/>
  </clipPath>
  <clipPath id="p45fc1bf906">
   <rect x="55.584" y="196.992" width="162.327273" height="110.88"/>
  </clipPath>
  <clipPath id="p41bcbe69a7">
   <rect x="250.376727" y="196.992" width="162.327273" height="110.88"/>
  </clipPath>
 </defs>
</svg>
