<?xml version="1.0" encoding="utf-8" standalone="no"?>
<!DOCTYPE svg PUBLIC "-//W3C//DTD SVG 1.1//EN"
  "http://www.w3.org/Graphics/SVG/1.1/DTD/svg11.dtd">
<svg xmlns:xlink="http://www.w3.org/1999/xlink" width="419.904pt" height="349.632pt" viewBox="0 0 419.904 349.632" xmlns="http://www.w3.org/2000/svg" version="1.1">
 <metadata>
  <rdf:RDF xmlns:dc="http://purl.org/dc/elements/1.1/" xmlns:cc="http://creativecommons.org/ns#" xmlns:rdf="http://www.w3.org/1999/02/22-rdf-syntax-ns#">
   <cc:Work>
    <dc:type rdf:resource="http://purl.org/dc/dcmitype/StillImage"/>
    <dc:date>2024-07-24T16:31:46.155197</dc:date>
    <dc:format>image/svg+xml</dc:format>
    <dc:creator>
     <cc:Agent>
      <dc:title>Matplotlib v3.7.2, https://matplotlib.org/</dc:title>
     </cc:Agent>
    </dc:creator>
   </cc:Work>
  </rdf:RDF>
 </metadata>
 <defs>
  <style type="text/css">*{stroke-linejoin: round; stroke-linecap: butt}</style>
 </defs>
 <g id="figure_1">
  <g id="patch_1">
   <path d="M 0 349.632 
L 419.904 349.632 
L 419.904 -0 
L 0 -0 
z
" style="fill: #ffffff"/>
  </g>
  <g id="axes_1">
   <g id="patch_2">
    <path d="M 55.584 152.64 
L 217.911273 152.64 
L 217.911273 41.76 
L 55.584 41.76 
z
" style="fill: #ffffff"/>
   </g>
   <g id="matplotlib.axis_1">
    <g id="xtick_1">
     <g id="line2d_1">
      <defs>
       <path id="m6f8974f415" d="M 0 0 
L 0 3.5 
" style="stroke: #000000; stroke-width: 0.8"/>
      </defs>
      <g>
       <use xlink:href="#m6f8974f415" x="62.962512" y="152.64" style="stroke: #000000; stroke-width: 0.8"/>
      </g>
     </g>
     <g id="text_1">
      <!-- 0 -->
      <g transform="translate(59.781262 167.238437) scale(0.1 -0.1)">
       <defs>
        <path id="DejaVuSans-30" d="M 2034 4250 
Q 1547 4250 1301 3770 
Q 1056 3291 1056 2328 
Q 1056 1369 1301 889 
Q 1547 409 2034 409 
Q 2525 409 2770 889 
Q 3016 1369 3016 2328 
Q 3016 3291 2770 3770 
Q 2525 4250 2034 4250 
z
M 2034 4750 
Q 2819 4750 3233 4129 
Q 3647 3509 3647 2328 
Q 3647 1150 3233 529 
Q 2819 -91 2034 -91 
Q 1250 -91 836 529 
Q 422 1150 422 2328 
Q 422 3509 836 4129 
Q 1250 4750 2034 4750 
z
" transform="scale(0.015625)"/>
       </defs>
       <use xlink:href="#DejaVuSans-30"/>
      </g>
     </g>
    </g>
    <g id="xtick_2">
     <g id="line2d_2">
      <g>
       <use xlink:href="#m6f8974f415" x="107.013333" y="152.64" style="stroke: #000000; stroke-width: 0.8"/>
      </g>
     </g>
     <g id="text_2">
      <!-- 100 -->
      <g transform="translate(97.469583 167.238437) scale(0.1 -0.1)">
       <defs>
        <path id="DejaVuSans-31" d="M 794 531 
L 1825 531 
L 1825 4091 
L 703 3866 
L 703 4441 
L 1819 4666 
L 2450 4666 
L 2450 531 
L 3481 531 
L 3481 0 
L 794 0 
L 794 531 
z
" transform="scale(0.015625)"/>
       </defs>
       <use xlink:href="#DejaVuSans-31"/>
       <use xlink:href="#DejaVuSans-30" x="63.623047"/>
       <use xlink:href="#DejaVuSans-30" x="127.246094"/>
      </g>
     </g>
    </g>
    <g id="xtick_3">
     <g id="line2d_3">
      <g>
       <use xlink:href="#m6f8974f415" x="151.064153" y="152.64" style="stroke: #000000; stroke-width: 0.8"/>
      </g>
     </g>
     <g id="text_3">
      <!-- 200 -->
      <g transform="translate(141.520403 167.238437) scale(0.1 -0.1)">
       <defs>
        <path id="DejaVuSans-32" d="M 1228 531 
L 3431 531 
L 3431 0 
L 469 0 
L 469 531 
Q 828 903 1448 1529 
Q 2069 2156 2228 2338 
Q 2531 2678 2651 2914 
Q 2772 3150 2772 3378 
Q 2772 3750 2511 3984 
Q 2250 4219 1831 4219 
Q 1534 4219 1204 4116 
Q 875 4013 500 3803 
L 500 4441 
Q 881 4594 1212 4672 
Q 1544 4750 1819 4750 
Q 2544 4750 2975 4387 
Q 3406 4025 3406 3419 
Q 3406 3131 3298 2873 
Q 3191 2616 2906 2266 
Q 2828 2175 2409 1742 
Q 1991 1309 1228 531 
z
" transform="scale(0.015625)"/>
       </defs>
       <use xlink:href="#DejaVuSans-32"/>
       <use xlink:href="#DejaVuSans-30" x="63.623047"/>
       <use xlink:href="#DejaVuSans-30" x="127.246094"/>
      </g>
     </g>
    </g>
    <g id="xtick_4">
     <g id="line2d_4">
      <g>
       <use xlink:href="#m6f8974f415" x="195.114973" y="152.64" style="stroke: #000000; stroke-width: 0.8"/>
      </g>
     </g>
     <g id="text_4">
      <!-- 300 -->
      <g transform="translate(185.571223 167.238437) scale(0.1 -0.1)">
       <defs>
        <path id="DejaVuSans-33" d="M 2597 2516 
Q 3050 2419 3304 2112 
Q 3559 1806 3559 1356 
Q 3559 666 3084 287 
Q 2609 -91 1734 -91 
Q 1441 -91 1130 -33 
Q 819 25 488 141 
L 488 750 
Q 750 597 1062 519 
Q 1375 441 1716 441 
Q 2309 441 2620 675 
Q 2931 909 2931 1356 
Q 2931 1769 2642 2001 
Q 2353 2234 1838 2234 
L 1294 2234 
L 1294 2753 
L 1863 2753 
Q 2328 2753 2575 2939 
Q 2822 3125 2822 3475 
Q 2822 3834 2567 4026 
Q 2313 4219 1838 4219 
Q 1578 4219 1281 4162 
Q 984 4106 628 3988 
L 628 4550 
Q 988 4650 1302 4700 
Q 1616 4750 1894 4750 
Q 2613 4750 3031 4423 
Q 3450 4097 3450 3541 
Q 3450 3153 3228 2886 
Q 3006 2619 2597 2516 
z
" transform="scale(0.015625)"/>
       </defs>
       <use xlink:href="#DejaVuSans-33"/>
       <use xlink:href="#DejaVuSans-30" x="63.623047"/>
       <use xlink:href="#DejaVuSans-30" x="127.246094"/>
      </g>
     </g>
    </g>
   </g>
   <g id="matplotlib.axis_2">
    <g id="ytick_1">
     <g id="line2d_5">
      <defs>
       <path id="md886359a8d" d="M 0 0 
L -3.5 0 
" style="stroke: #000000; stroke-width: 0.8"/>
      </defs>
      <g>
       <use xlink:href="#md886359a8d" x="55.584" y="147.6" style="stroke: #000000; stroke-width: 0.8"/>
      </g>
     </g>
     <g id="text_5">
      <!-- 0 -->
      <g transform="translate(42.2215 151.399219) scale(0.1 -0.1)">
       <use xlink:href="#DejaVuSans-30"/>
      </g>
     </g>
    </g>
    <g id="ytick_2">
     <g id="line2d_6">
      <g>
       <use xlink:href="#md886359a8d" x="55.584" y="106.670053" style="stroke: #000000; stroke-width: 0.8"/>
      </g>
     </g>
     <g id="text_6">
      <!-- 20 -->
      <g transform="translate(35.859 110.469272) scale(0.1 -0.1)">
       <use xlink:href="#DejaVuSans-32"/>
       <use xlink:href="#DejaVuSans-30" x="63.623047"/>
      </g>
     </g>
    </g>
    <g id="ytick_3">
     <g id="line2d_7">
      <g>
       <use xlink:href="#md886359a8d" x="55.584" y="65.740106" style="stroke: #000000; stroke-width: 0.8"/>
      </g>
     </g>
     <g id="text_7">
      <!-- 40 -->
      <g transform="translate(35.859 69.539325) scale(0.1 -0.1)">
       <defs>
        <path id="DejaVuSans-34" d="M 2419 4116 
L 825 1625 
L 2419 1625 
L 2419 4116 
z
M 2253 4666 
L 3047 4666 
L 3047 1625 
L 3713 1625 
L 3713 1100 
L 3047 1100 
L 3047 0 
L 2419 0 
L 2419 1100 
L 313 1100 
L 313 1709 
L 2253 4666 
z
" transform="scale(0.015625)"/>
       </defs>
       <use xlink:href="#DejaVuSans-34"/>
       <use xlink:href="#DejaVuSans-30" x="63.623047"/>
      </g>
     </g>
    </g>
   </g>
   <g id="line2d_8">
    <path d="M 62.962512 46.8 
L 63.403021 49.05992 
L 63.843529 53.791559 
L 64.284037 51.31964 
L 64.724545 55.430233 
L 65.165053 58.202119 
L 65.605562 64.079631 
L 66.04607 67.967115 
L 66.486578 70.197436 
L 66.927086 68.669698 
L 67.367594 74.32048 
L 67.808103 72.946509 
L 68.248611 83.60497 
L 68.689119 87.369186 
L 69.129627 103.617152 
L 69.570135 107.878348 
L 70.010644 105.477088 
L 70.451152 108.084975 
L 70.89166 109.835888 
L 71.332168 108.833993 
L 72.213185 113.358105 
L 72.653693 115.148718 
L 73.094201 114.565998 
L 73.534709 115.143317 
L 73.975217 108.629392 
L 74.415726 108.469479 
L 75.296742 112.691315 
L 76.177758 115.364644 
L 77.058775 124.000042 
L 77.499283 122.766524 
L 77.939791 123.198648 
L 78.380299 123.407113 
L 78.820808 125.043344 
L 79.261316 125.530556 
L 79.701824 125.839622 
L 80.142332 129.508534 
L 80.582841 125.15281 
L 81.023349 130.031082 
L 81.463857 133.434352 
L 81.904365 131.47727 
L 82.785382 129.342381 
L 83.22589 129.911802 
L 83.666398 132.37029 
L 84.106906 132.473407 
L 84.547414 131.657215 
L 84.987923 131.486117 
L 85.428431 131.617287 
L 85.868939 135.070557 
L 86.309447 131.569696 
L 86.749955 132.153695 
L 87.190464 134.326011 
L 87.630972 137.198446 
L 88.952496 135.299348 
L 89.393005 137.74455 
L 89.833513 134.673516 
L 90.274021 132.894058 
L 90.714529 133.621048 
L 91.155037 128.621684 
L 91.595546 130.152931 
L 92.036054 120.691603 
L 92.476562 126.255131 
L 92.91707 141.609188 
L 93.798087 147.6 
L 94.238595 142.443565 
L 94.679103 144.58131 
L 95.119611 145.408791 
L 95.560119 145.238297 
L 96.000628 137.084061 
L 96.441136 137.18147 
L 96.881644 129.843734 
L 97.76266 137.964607 
L 98.203169 137.163944 
L 98.643677 136.083999 
L 99.084185 132.393974 
L 99.524693 135.773288 
L 99.965201 142.68743 
L 100.40571 142.18172 
L 100.846218 141.479008 
L 101.727234 137.527228 
L 102.167742 136.882778 
L 102.608251 128.966191 
L 103.048759 128.628781 
L 103.489267 132.183281 
L 103.929775 131.94819 
L 104.370283 134.415719 
L 104.810792 129.059653 
L 105.2513 129.139501 
L 105.691808 127.928284 
L 106.132316 127.332853 
L 106.572824 127.610219 
L 107.013333 127.111484 
L 107.453841 127.920879 
L 107.894349 128.432909 
L 108.334857 127.677764 
L 108.775365 135.139776 
L 109.215874 131.05095 
L 109.656382 131.624761 
L 110.09689 131.909071 
L 110.537398 131.930563 
L 110.977907 129.834925 
L 111.418415 128.911288 
L 111.858923 125.670684 
L 112.299431 120.949423 
L 112.739939 121.009047 
L 113.180448 120.727114 
L 113.620956 120.230394 
L 114.501972 117.994328 
L 114.94248 123.365266 
L 115.382989 124.158658 
L 115.823497 123.678828 
L 116.264005 124.877568 
L 116.704513 124.843402 
L 117.145021 126.387721 
L 117.58553 128.522243 
L 118.026038 127.899573 
L 118.466546 129.425872 
L 118.907054 128.552457 
L 119.347562 126.403698 
L 119.788071 123.532624 
L 120.228579 123.125875 
L 120.669087 125.000552 
L 121.109595 125.836888 
L 121.550103 124.782226 
L 121.990612 127.223693 
L 122.43112 118.882733 
L 122.871628 122.422819 
L 123.312136 135.48203 
L 123.752644 138.323328 
L 124.193153 146.868555 
L 124.633661 141.168244 
L 125.074169 133.125488 
L 125.514677 132.718197 
L 125.955185 130.284351 
L 126.395694 139.809785 
L 126.836202 132.285117 
L 127.27671 130.403295 
L 127.717218 129.549003 
L 128.157726 128.32635 
L 128.598235 134.377828 
L 129.038743 135.539369 
L 129.479251 135.974286 
L 129.919759 135.720572 
L 130.360267 136.239748 
L 131.241284 144.890912 
L 131.681792 142.59879 
L 132.562808 134.481316 
L 133.003317 136.391887 
L 133.443825 132.850695 
L 133.884333 134.080116 
L 134.324841 136.420179 
L 134.765349 137.473385 
L 135.205858 134.886471 
L 135.646366 135.225651 
L 136.086874 133.612895 
L 136.527382 130.104435 
L 136.96789 136.046972 
L 137.848907 141.597683 
L 138.289415 134.970666 
L 138.729923 133.9155 
L 139.170431 119.148071 
L 139.61094 117.391869 
L 140.051448 116.878901 
L 140.491956 120.480042 
L 140.932464 121.320078 
L 141.813481 128.947671 
L 142.253989 130.119624 
L 142.694497 135.174968 
L 143.135005 142.132797 
L 143.575514 146.351045 
L 144.016022 147.6 
L 144.45653 146.306937 
L 144.897038 138.416169 
L 145.337546 139.475299 
L 145.778055 139.774988 
L 146.659071 126.453617 
L 147.099579 123.291236 
L 147.540087 122.116223 
L 147.980596 120.621531 
L 148.421104 123.459824 
L 148.861612 124.281522 
L 149.30212 124.556624 
L 149.742628 125.367567 
L 150.183137 122.751873 
L 150.623645 122.143859 
L 151.064153 120.06984 
L 151.504661 122.807485 
L 151.945169 121.233943 
L 152.385678 123.029534 
L 152.826186 129.845371 
L 153.266694 130.243638 
L 153.707202 129.497616 
L 154.588219 125.914049 
L 155.028727 123.636044 
L 155.469235 122.369804 
L 155.909743 122.463245 
L 156.350251 125.53619 
L 156.79076 124.831203 
L 157.231268 121.309973 
L 157.671776 120.246594 
L 158.112284 118.798998 
L 158.552792 115.144959 
L 158.993301 122.125545 
L 159.433809 124.876977 
L 159.874317 122.872643 
L 160.314825 130.062134 
L 160.755333 134.534572 
L 161.195842 136.081216 
L 161.63635 141.094907 
L 162.076858 144.797226 
L 162.517366 143.177079 
L 162.957874 144.837265 
L 163.398383 143.733035 
L 164.719907 143.055976 
L 165.160415 143.231807 
L 165.600924 142.126352 
L 166.041432 142.328415 
L 166.48194 141.641754 
L 166.922448 141.513056 
L 167.362956 143.401113 
L 167.803465 142.347096 
L 168.243973 137.669216 
L 168.684481 135.175897 
L 169.124989 137.004199 
L 169.565497 141.05473 
L 170.006006 141.650781 
L 170.446514 139.26954 
L 170.887022 140.847232 
L 171.32753 145.074184 
L 171.768038 143.167256 
L 172.208547 142.064902 
L 172.649055 142.433894 
L 173.089563 143.305612 
L 173.530071 143.224877 
L 173.970579 142.025536 
L 174.411088 141.191293 
L 174.851596 141.654434 
L 175.292104 140.802142 
L 175.732612 145.474139 
L 176.173121 145.971684 
L 176.613629 145.285712 
L 177.054137 142.827341 
L 177.494645 141.480543 
L 177.935153 140.909276 
L 178.375662 137.756908 
L 178.81617 135.516769 
L 179.256678 133.91453 
L 179.697186 137.816421 
L 180.137694 139.625125 
L 180.578203 139.305354 
L 181.018711 141.679579 
L 181.459219 141.419756 
L 181.899727 140.232452 
L 182.340235 139.376447 
L 182.780744 140.028001 
L 183.221252 139.876136 
L 183.66176 139.175567 
L 184.102268 140.308479 
L 184.542776 142.851911 
L 184.983285 143.795666 
L 185.423793 140.405532 
L 186.304809 137.926874 
L 186.745317 138.508816 
L 187.185826 138.437678 
L 187.626334 140.60276 
L 188.066842 139.51828 
L 188.50735 140.120877 
L 188.947858 137.235459 
L 189.388367 136.998513 
L 189.828875 137.30882 
L 190.269383 130.479169 
L 190.709891 132.639634 
L 191.150399 132.862518 
L 191.590908 137.239237 
L 192.031416 138.941683 
L 192.471924 139.726676 
L 192.912432 137.80652 
L 193.35294 137.770937 
L 193.793449 138.363738 
L 194.233957 136.204458 
L 195.114973 138.842303 
L 195.555481 136.722912 
L 195.99599 139.343875 
L 196.436498 139.994811 
L 196.877006 138.269218 
L 197.317514 137.576107 
L 197.758022 135.342602 
L 198.198531 134.462559 
L 198.639039 139.380812 
L 199.079547 141.98735 
L 199.520055 143.081377 
L 199.960563 145.907129 
L 200.401072 146.555541 
L 200.84158 145.863101 
L 201.722596 145.798923 
L 202.163104 143.932648 
L 202.603613 134.857222 
L 203.044121 128.493058 
L 203.484629 124.252351 
L 204.365645 132.599741 
L 204.806154 134.391718 
L 205.246662 134.058775 
L 205.68717 135.312062 
L 206.127678 133.858783 
L 206.568187 130.282343 
L 207.008695 128.353247 
L 207.449203 129.814843 
L 208.330219 136.680105 
L 208.770728 134.73241 
L 209.211236 136.95539 
L 209.651744 137.286535 
L 210.092252 142.20829 
L 210.53276 138.932183 
L 210.53276 138.932183 
" clip-path="url(#p6f8c36d8dd)" style="fill: none; stroke: #008000; stroke-width: 1.5; stroke-linecap: square"/>
   </g>
   <g id="patch_3">
    <path d="M 55.584 152.64 
L 55.584 41.76 
" style="fill: none; stroke: #000000; stroke-width: 0.8; stroke-linejoin: miter; stroke-linecap: square"/>
   </g>
   <g id="patch_4">
    <path d="M 217.911273 152.64 
L 217.911273 41.76 
" style="fill: none; stroke: #000000; stroke-width: 0.8; stroke-linejoin: miter; stroke-linecap: square"/>
   </g>
   <g id="patch_5">
    <path d="M 55.584 152.64 
L 217.911273 152.64 
" style="fill: none; stroke: #000000; stroke-width: 0.8; stroke-linejoin: miter; stroke-linecap: square"/>
   </g>
   <g id="patch_6">
    <path d="M 55.584 41.76 
L 217.911273 41.76 
" style="fill: none; stroke: #000000; stroke-width: 0.8; stroke-linejoin: miter; stroke-linecap: square"/>
   </g>
   <g id="text_8">
    <!-- No Prediction (FOSS) -->
    <g transform="translate(74.495761 35.76) scale(0.12 -0.12)">
     <defs>
      <path id="DejaVuSans-4e" d="M 628 4666 
L 1478 4666 
L 3547 763 
L 3547 4666 
L 4159 4666 
L 4159 0 
L 3309 0 
L 1241 3903 
L 1241 0 
L 628 0 
L 628 4666 
z
" transform="scale(0.015625)"/>
      <path id="DejaVuSans-6f" d="M 1959 3097 
Q 1497 3097 1228 2736 
Q 959 2375 959 1747 
Q 959 1119 1226 758 
Q 1494 397 1959 397 
Q 2419 397 2687 759 
Q 2956 1122 2956 1747 
Q 2956 2369 2687 2733 
Q 2419 3097 1959 3097 
z
M 1959 3584 
Q 2709 3584 3137 3096 
Q 3566 2609 3566 1747 
Q 3566 888 3137 398 
Q 2709 -91 1959 -91 
Q 1206 -91 779 398 
Q 353 888 353 1747 
Q 353 2609 779 3096 
Q 1206 3584 1959 3584 
z
" transform="scale(0.015625)"/>
      <path id="DejaVuSans-20" transform="scale(0.015625)"/>
      <path id="DejaVuSans-50" d="M 1259 4147 
L 1259 2394 
L 2053 2394 
Q 2494 2394 2734 2622 
Q 2975 2850 2975 3272 
Q 2975 3691 2734 3919 
Q 2494 4147 2053 4147 
L 1259 4147 
z
M 628 4666 
L 2053 4666 
Q 2838 4666 3239 4311 
Q 3641 3956 3641 3272 
Q 3641 2581 3239 2228 
Q 2838 1875 2053 1875 
L 1259 1875 
L 1259 0 
L 628 0 
L 628 4666 
z
" transform="scale(0.015625)"/>
      <path id="DejaVuSans-72" d="M 2631 2963 
Q 2534 3019 2420 3045 
Q 2306 3072 2169 3072 
Q 1681 3072 1420 2755 
Q 1159 2438 1159 1844 
L 1159 0 
L 581 0 
L 581 3500 
L 1159 3500 
L 1159 2956 
Q 1341 3275 1631 3429 
Q 1922 3584 2338 3584 
Q 2397 3584 2469 3576 
Q 2541 3569 2628 3553 
L 2631 2963 
z
" transform="scale(0.015625)"/>
      <path id="DejaVuSans-65" d="M 3597 1894 
L 3597 1613 
L 953 1613 
Q 991 1019 1311 708 
Q 1631 397 2203 397 
Q 2534 397 2845 478 
Q 3156 559 3463 722 
L 3463 178 
Q 3153 47 2828 -22 
Q 2503 -91 2169 -91 
Q 1331 -91 842 396 
Q 353 884 353 1716 
Q 353 2575 817 3079 
Q 1281 3584 2069 3584 
Q 2775 3584 3186 3129 
Q 3597 2675 3597 1894 
z
M 3022 2063 
Q 3016 2534 2758 2815 
Q 2500 3097 2075 3097 
Q 1594 3097 1305 2825 
Q 1016 2553 972 2059 
L 3022 2063 
z
" transform="scale(0.015625)"/>
      <path id="DejaVuSans-64" d="M 2906 2969 
L 2906 4863 
L 3481 4863 
L 3481 0 
L 2906 0 
L 2906 525 
Q 2725 213 2448 61 
Q 2172 -91 1784 -91 
Q 1150 -91 751 415 
Q 353 922 353 1747 
Q 353 2572 751 3078 
Q 1150 3584 1784 3584 
Q 2172 3584 2448 3432 
Q 2725 3281 2906 2969 
z
M 947 1747 
Q 947 1113 1208 752 
Q 1469 391 1925 391 
Q 2381 391 2643 752 
Q 2906 1113 2906 1747 
Q 2906 2381 2643 2742 
Q 2381 3103 1925 3103 
Q 1469 3103 1208 2742 
Q 947 2381 947 1747 
z
" transform="scale(0.015625)"/>
      <path id="DejaVuSans-69" d="M 603 3500 
L 1178 3500 
L 1178 0 
L 603 0 
L 603 3500 
z
M 603 4863 
L 1178 4863 
L 1178 4134 
L 603 4134 
L 603 4863 
z
" transform="scale(0.015625)"/>
      <path id="DejaVuSans-63" d="M 3122 3366 
L 3122 2828 
Q 2878 2963 2633 3030 
Q 2388 3097 2138 3097 
Q 1578 3097 1268 2742 
Q 959 2388 959 1747 
Q 959 1106 1268 751 
Q 1578 397 2138 397 
Q 2388 397 2633 464 
Q 2878 531 3122 666 
L 3122 134 
Q 2881 22 2623 -34 
Q 2366 -91 2075 -91 
Q 1284 -91 818 406 
Q 353 903 353 1747 
Q 353 2603 823 3093 
Q 1294 3584 2113 3584 
Q 2378 3584 2631 3529 
Q 2884 3475 3122 3366 
z
" transform="scale(0.015625)"/>
      <path id="DejaVuSans-74" d="M 1172 4494 
L 1172 3500 
L 2356 3500 
L 2356 3053 
L 1172 3053 
L 1172 1153 
Q 1172 725 1289 603 
Q 1406 481 1766 481 
L 2356 481 
L 2356 0 
L 1766 0 
Q 1100 0 847 248 
Q 594 497 594 1153 
L 594 3053 
L 172 3053 
L 172 3500 
L 594 3500 
L 594 4494 
L 1172 4494 
z
" transform="scale(0.015625)"/>
      <path id="DejaVuSans-6e" d="M 3513 2113 
L 3513 0 
L 2938 0 
L 2938 2094 
Q 2938 2591 2744 2837 
Q 2550 3084 2163 3084 
Q 1697 3084 1428 2787 
Q 1159 2491 1159 1978 
L 1159 0 
L 581 0 
L 581 3500 
L 1159 3500 
L 1159 2956 
Q 1366 3272 1645 3428 
Q 1925 3584 2291 3584 
Q 2894 3584 3203 3211 
Q 3513 2838 3513 2113 
z
" transform="scale(0.015625)"/>
      <path id="DejaVuSans-28" d="M 1984 4856 
Q 1566 4138 1362 3434 
Q 1159 2731 1159 2009 
Q 1159 1288 1364 580 
Q 1569 -128 1984 -844 
L 1484 -844 
Q 1016 -109 783 600 
Q 550 1309 550 2009 
Q 550 2706 781 3412 
Q 1013 4119 1484 4856 
L 1984 4856 
z
" transform="scale(0.015625)"/>
      <path id="DejaVuSans-46" d="M 628 4666 
L 3309 4666 
L 3309 4134 
L 1259 4134 
L 1259 2759 
L 3109 2759 
L 3109 2228 
L 1259 2228 
L 1259 0 
L 628 0 
L 628 4666 
z
" transform="scale(0.015625)"/>
      <path id="DejaVuSans-4f" d="M 2522 4238 
Q 1834 4238 1429 3725 
Q 1025 3213 1025 2328 
Q 1025 1447 1429 934 
Q 1834 422 2522 422 
Q 3209 422 3611 934 
Q 4013 1447 4013 2328 
Q 4013 3213 3611 3725 
Q 3209 4238 2522 4238 
z
M 2522 4750 
Q 3503 4750 4090 4092 
Q 4678 3434 4678 2328 
Q 4678 1225 4090 567 
Q 3503 -91 2522 -91 
Q 1538 -91 948 565 
Q 359 1222 359 2328 
Q 359 3434 948 4092 
Q 1538 4750 2522 4750 
z
" transform="scale(0.015625)"/>
      <path id="DejaVuSans-53" d="M 3425 4513 
L 3425 3897 
Q 3066 4069 2747 4153 
Q 2428 4238 2131 4238 
Q 1616 4238 1336 4038 
Q 1056 3838 1056 3469 
Q 1056 3159 1242 3001 
Q 1428 2844 1947 2747 
L 2328 2669 
Q 3034 2534 3370 2195 
Q 3706 1856 3706 1288 
Q 3706 609 3251 259 
Q 2797 -91 1919 -91 
Q 1588 -91 1214 -16 
Q 841 59 441 206 
L 441 856 
Q 825 641 1194 531 
Q 1563 422 1919 422 
Q 2459 422 2753 634 
Q 3047 847 3047 1241 
Q 3047 1584 2836 1778 
Q 2625 1972 2144 2069 
L 1759 2144 
Q 1053 2284 737 2584 
Q 422 2884 422 3419 
Q 422 4038 858 4394 
Q 1294 4750 2059 4750 
Q 2388 4750 2728 4690 
Q 3069 4631 3425 4513 
z
" transform="scale(0.015625)"/>
      <path id="DejaVuSans-29" d="M 513 4856 
L 1013 4856 
Q 1481 4119 1714 3412 
Q 1947 2706 1947 2009 
Q 1947 1309 1714 600 
Q 1481 -109 1013 -844 
L 513 -844 
Q 928 -128 1133 580 
Q 1338 1288 1338 2009 
Q 1338 2731 1133 3434 
Q 928 4138 513 4856 
z
" transform="scale(0.015625)"/>
     </defs>
     <use xlink:href="#DejaVuSans-4e"/>
     <use xlink:href="#DejaVuSans-6f" x="74.804688"/>
     <use xlink:href="#DejaVuSans-20" x="135.986328"/>
     <use xlink:href="#DejaVuSans-50" x="167.773438"/>
     <use xlink:href="#DejaVuSans-72" x="226.326172"/>
     <use xlink:href="#DejaVuSans-65" x="265.189453"/>
     <use xlink:href="#DejaVuSans-64" x="326.712891"/>
     <use xlink:href="#DejaVuSans-69" x="390.189453"/>
     <use xlink:href="#DejaVuSans-63" x="417.972656"/>
     <use xlink:href="#DejaVuSans-74" x="472.953125"/>
     <use xlink:href="#DejaVuSans-69" x="512.162109"/>
     <use xlink:href="#DejaVuSans-6f" x="539.945312"/>
     <use xlink:href="#DejaVuSans-6e" x="601.126953"/>
     <use xlink:href="#DejaVuSans-20" x="664.505859"/>
     <use xlink:href="#DejaVuSans-28" x="696.292969"/>
     <use xlink:href="#DejaVuSans-46" x="735.306641"/>
     <use xlink:href="#DejaVuSans-4f" x="792.826172"/>
     <use xlink:href="#DejaVuSans-53" x="871.537109"/>
     <use xlink:href="#DejaVuSans-53" x="935.013672"/>
     <use xlink:href="#DejaVuSans-29" x="998.490234"/>
    </g>
   </g>
  </g>
  <g id="axes_2">
   <g id="patch_7">
    <path d="M 250.376727 152.64 
L 412.704 152.64 
L 412.704 41.76 
L 250.376727 41.76 
z
" style="fill: #ffffff"/>
   </g>
   <g id="matplotlib.axis_3">
    <g id="xtick_5">
     <g id="line2d_9">
      <g>
       <use xlink:href="#m6f8974f415" x="257.75524" y="152.64" style="stroke: #000000; stroke-width: 0.8"/>
      </g>
     </g>
     <g id="text_9">
      <!-- 0 -->
      <g transform="translate(254.57399 167.238437) scale(0.1 -0.1)">
       <use xlink:href="#DejaVuSans-30"/>
      </g>
     </g>
    </g>
    <g id="xtick_6">
     <g id="line2d_10">
      <g>
       <use xlink:href="#m6f8974f415" x="301.80606" y="152.64" style="stroke: #000000; stroke-width: 0.8"/>
      </g>
     </g>
     <g id="text_10">
      <!-- 100 -->
      <g transform="translate(292.26231 167.238437) scale(0.1 -0.1)">
       <use xlink:href="#DejaVuSans-31"/>
       <use xlink:href="#DejaVuSans-30" x="63.623047"/>
       <use xlink:href="#DejaVuSans-30" x="127.246094"/>
      </g>
     </g>
    </g>
    <g id="xtick_7">
     <g id="line2d_11">
      <g>
       <use xlink:href="#m6f8974f415" x="345.85688" y="152.64" style="stroke: #000000; stroke-width: 0.8"/>
      </g>
     </g>
     <g id="text_11">
      <!-- 200 -->
      <g transform="translate(336.31313 167.238437) scale(0.1 -0.1)">
       <use xlink:href="#DejaVuSans-32"/>
       <use xlink:href="#DejaVuSans-30" x="63.623047"/>
       <use xlink:href="#DejaVuSans-30" x="127.246094"/>
      </g>
     </g>
    </g>
    <g id="xtick_8">
     <g id="line2d_12">
      <g>
       <use xlink:href="#m6f8974f415" x="389.907701" y="152.64" style="stroke: #000000; stroke-width: 0.8"/>
      </g>
     </g>
     <g id="text_12">
      <!-- 300 -->
      <g transform="translate(380.363951 167.238437) scale(0.1 -0.1)">
       <use xlink:href="#DejaVuSans-33"/>
       <use xlink:href="#DejaVuSans-30" x="63.623047"/>
       <use xlink:href="#DejaVuSans-30" x="127.246094"/>
      </g>
     </g>
    </g>
   </g>
   <g id="matplotlib.axis_4">
    <g id="ytick_4">
     <g id="line2d_13">
      <g>
       <use xlink:href="#md886359a8d" x="250.376727" y="147.6" style="stroke: #000000; stroke-width: 0.8"/>
      </g>
     </g>
     <g id="text_13">
      <!-- 0 -->
      <g transform="translate(237.014227 151.399219) scale(0.1 -0.1)">
       <use xlink:href="#DejaVuSans-30"/>
      </g>
     </g>
    </g>
    <g id="ytick_5">
     <g id="line2d_14">
      <g>
       <use xlink:href="#md886359a8d" x="250.376727" y="106.68676" style="stroke: #000000; stroke-width: 0.8"/>
      </g>
     </g>
     <g id="text_14">
      <!-- 20 -->
      <g transform="translate(230.651727 110.485979) scale(0.1 -0.1)">
       <use xlink:href="#DejaVuSans-32"/>
       <use xlink:href="#DejaVuSans-30" x="63.623047"/>
      </g>
     </g>
    </g>
    <g id="ytick_6">
     <g id="line2d_15">
      <g>
       <use xlink:href="#md886359a8d" x="250.376727" y="65.773521" style="stroke: #000000; stroke-width: 0.8"/>
      </g>
     </g>
     <g id="text_15">
      <!-- 40 -->
      <g transform="translate(230.651727 69.57274) scale(0.1 -0.1)">
       <use xlink:href="#DejaVuSans-34"/>
       <use xlink:href="#DejaVuSans-30" x="63.623047"/>
      </g>
     </g>
    </g>
   </g>
   <g id="line2d_16">
    <path d="M 257.75524 46.8 
L 258.195748 49.092205 
L 258.636256 53.907051 
L 259.076764 51.358142 
L 260.838797 68.039126 
L 261.279305 70.19947 
L 261.719813 68.698869 
L 262.160322 74.279559 
L 262.60083 72.965905 
L 263.041338 122.944123 
L 263.481846 122.429418 
L 263.922355 132.587449 
L 264.362863 139.766471 
L 264.803371 128.926989 
L 265.243879 131.955017 
L 266.124896 124.59488 
L 266.565404 129.032672 
L 267.005912 126.251938 
L 267.44642 129.258852 
L 267.886928 130.875353 
L 268.327437 115.159389 
L 268.767945 108.6392 
L 269.208453 108.486532 
L 270.089469 112.708958 
L 270.970486 115.398302 
L 271.851502 124.046223 
L 272.29201 122.791054 
L 272.732519 123.212037 
L 273.173027 123.398248 
L 273.613535 147.6 
L 278.459125 147.6 
L 278.899633 132.481114 
L 279.340142 131.576092 
L 279.78065 131.498355 
L 280.221158 131.633348 
L 280.661666 135.072882 
L 281.102174 131.581616 
L 281.542683 132.151378 
L 281.983191 134.353743 
L 282.423699 137.190254 
L 283.745224 135.307863 
L 284.185732 147.6 
L 289.031322 147.6 
L 289.47183 144.592124 
L 289.912338 143.944498 
L 290.352847 145.193831 
L 290.793355 137.089906 
L 291.233863 137.18647 
L 291.674371 129.848815 
L 292.555388 137.987762 
L 292.995896 137.166173 
L 293.436404 136.08612 
L 293.876912 132.397217 
L 294.317421 135.78103 
L 294.757929 147.6 
L 299.603519 147.6 
L 300.044027 129.143385 
L 300.484535 127.935984 
L 300.925044 127.342221 
L 301.365552 127.615783 
L 301.80606 127.115784 
L 302.246568 127.948941 
L 302.687076 128.452037 
L 303.127585 127.69341 
L 303.568093 135.091501 
L 304.008601 131.04965 
L 304.449109 131.633447 
L 304.889617 131.909544 
L 305.330126 147.6 
L 305.770634 147.6 
L 306.211142 146.994705 
L 306.65165 147.6 
L 310.175716 147.6 
L 310.616224 123.680109 
L 311.056732 124.887095 
L 311.49724 124.834462 
L 311.937749 126.412117 
L 312.378257 128.521933 
L 312.818765 127.910013 
L 313.259273 129.430979 
L 313.699781 128.554893 
L 314.14029 126.416078 
L 314.580798 123.521012 
L 315.021306 123.127257 
L 315.461814 125.273786 
L 315.902322 141.070865 
L 316.342831 142.529011 
L 316.783339 138.844941 
L 317.223847 142.573371 
L 317.664355 141.776105 
L 318.104863 147.6 
L 320.747913 147.6 
L 321.628929 132.296176 
L 322.069437 130.417225 
L 322.509945 129.546004 
L 322.950454 128.331777 
L 323.390962 134.392932 
L 323.83147 134.996947 
L 324.271978 135.975452 
L 324.712486 135.723617 
L 325.152995 136.4383 
L 326.034011 144.89793 
L 326.474519 145.702286 
L 326.915028 147.6 
L 331.32011 147.6 
L 331.760618 136.053173 
L 332.641634 141.596138 
L 333.082142 134.960468 
L 333.522651 133.938063 
L 333.963159 119.168633 
L 334.403667 117.398902 
L 334.844175 116.88639 
L 335.284683 120.488934 
L 335.725192 121.342969 
L 336.606208 128.951101 
L 337.046716 147.6 
L 340.570782 147.6 
L 341.01129 144.769072 
L 341.451798 147.6 
L 341.892306 147.6 
L 342.332815 122.155893 
L 342.773323 120.639849 
L 343.213831 123.473544 
L 343.654339 124.263878 
L 344.094847 124.564807 
L 344.535356 125.381251 
L 344.975864 122.757291 
L 345.416372 122.143248 
L 345.85688 120.079497 
L 346.297388 122.804818 
L 346.737897 121.193028 
L 347.178405 123.046721 
L 347.618913 137.993031 
L 348.059421 147.148913 
L 348.499929 147.6 
L 352.464503 147.6 
L 352.905011 118.801598 
L 353.34552 115.194043 
L 353.786028 122.132969 
L 354.226536 124.944768 
L 354.667044 123.416 
L 355.107552 129.836382 
L 355.548061 134.568043 
L 355.988569 136.086789 
L 356.429077 141.101423 
L 356.869585 144.798018 
L 357.310093 143.178017 
L 357.750602 144.839846 
L 358.19111 147.6 
L 358.631618 145.936738 
L 359.072126 147.6 
L 363.0367 147.6 
L 363.477208 135.168042 
L 363.917717 136.991948 
L 364.358225 141.049256 
L 364.798733 141.664761 
L 365.239241 139.267982 
L 365.679749 140.84018 
L 366.120258 145.07568 
L 366.560766 143.17537 
L 367.001274 142.069813 
L 367.441782 142.438519 
L 367.88229 143.317108 
L 368.322799 143.223766 
L 368.763307 147.6 
L 373.608897 147.6 
L 374.049405 133.923874 
L 374.489913 137.827222 
L 374.930422 139.633174 
L 375.37093 139.31119 
L 375.811438 141.665297 
L 376.251946 141.426002 
L 376.692454 140.247559 
L 377.132963 139.388298 
L 377.573471 140.007609 
L 378.013979 139.881145 
L 378.454487 139.189457 
L 378.894995 140.217942 
L 379.335504 147.6 
L 381.978553 147.6 
L 382.419061 143.847196 
L 382.859569 147.6 
L 384.181094 147.6 
L 384.621602 137.306644 
L 385.06211 130.494809 
L 385.502618 132.638601 
L 385.943127 132.873414 
L 386.383635 137.227739 
L 386.824143 138.941359 
L 387.264651 139.69967 
L 387.705159 137.796977 
L 388.145668 137.774784 
L 388.586176 138.366704 
L 389.026684 138.075165 
L 389.467192 137.635628 
L 389.907701 147.6 
L 394.753291 147.6 
L 395.193799 146.568988 
L 395.634307 145.864638 
L 396.515324 145.792519 
L 396.955832 143.943762 
L 397.39634 134.857252 
L 397.836848 128.507209 
L 398.277356 124.27258 
L 399.158373 132.596508 
L 399.598881 134.398214 
L 400.039389 134.055099 
L 400.479897 147.6 
L 402.24193 147.6 
L 402.682438 144.112253 
L 403.122947 145.159765 
L 403.563455 145.600065 
L 404.003963 147.6 
L 404.444471 146.470111 
L 404.884979 147.6 
L 405.325488 144.939302 
L 405.325488 144.939302 
" clip-path="url(#p5a353d7718)" style="fill: none; stroke: #0000ff; stroke-width: 1.5; stroke-linecap: square"/>
   </g>
   <g id="patch_8">
    <path d="M 250.376727 152.64 
L 250.376727 41.76 
" style="fill: none; stroke: #000000; stroke-width: 0.8; stroke-linejoin: miter; stroke-linecap: square"/>
   </g>
   <g id="patch_9">
    <path d="M 412.704 152.64 
L 412.704 41.76 
" style="fill: none; stroke: #000000; stroke-width: 0.8; stroke-linejoin: miter; stroke-linecap: square"/>
   </g>
   <g id="patch_10">
    <path d="M 250.376727 152.64 
L 412.704 152.64 
" style="fill: none; stroke: #000000; stroke-width: 0.8; stroke-linejoin: miter; stroke-linecap: square"/>
   </g>
   <g id="patch_11">
    <path d="M 250.376727 41.76 
L 412.704 41.76 
" style="fill: none; stroke: #000000; stroke-width: 0.8; stroke-linejoin: miter; stroke-linecap: square"/>
   </g>
   <g id="text_16">
    <!-- RNN -->
    <g transform="translate(318.393801 35.76) scale(0.12 -0.12)">
     <defs>
      <path id="DejaVuSans-52" d="M 2841 2188 
Q 3044 2119 3236 1894 
Q 3428 1669 3622 1275 
L 4263 0 
L 3584 0 
L 2988 1197 
Q 2756 1666 2539 1819 
Q 2322 1972 1947 1972 
L 1259 1972 
L 1259 0 
L 628 0 
L 628 4666 
L 2053 4666 
Q 2853 4666 3247 4331 
Q 3641 3997 3641 3322 
Q 3641 2881 3436 2590 
Q 3231 2300 2841 2188 
z
M 1259 4147 
L 1259 2491 
L 2053 2491 
Q 2509 2491 2742 2702 
Q 2975 2913 2975 3322 
Q 2975 3731 2742 3939 
Q 2509 4147 2053 4147 
L 1259 4147 
z
" transform="scale(0.015625)"/>
     </defs>
     <use xlink:href="#DejaVuSans-52"/>
     <use xlink:href="#DejaVuSans-4e" x="69.482422"/>
     <use xlink:href="#DejaVuSans-4e" x="144.287109"/>
    </g>
   </g>
  </g>
  <g id="axes_3">
   <g id="patch_12">
    <path d="M 55.584 307.872 
L 217.911273 307.872 
L 217.911273 196.992 
L 55.584 196.992 
z
" style="fill: #ffffff"/>
   </g>
   <g id="matplotlib.axis_5">
    <g id="xtick_9">
     <g id="line2d_17">
      <g>
       <use xlink:href="#m6f8974f415" x="62.962512" y="307.872" style="stroke: #000000; stroke-width: 0.8"/>
      </g>
     </g>
     <g id="text_17">
      <!-- 0 -->
      <g transform="translate(59.781262 322.470437) scale(0.1 -0.1)">
       <use xlink:href="#DejaVuSans-30"/>
      </g>
     </g>
    </g>
    <g id="xtick_10">
     <g id="line2d_18">
      <g>
       <use xlink:href="#m6f8974f415" x="107.013333" y="307.872" style="stroke: #000000; stroke-width: 0.8"/>
      </g>
     </g>
     <g id="text_18">
      <!-- 100 -->
      <g transform="translate(97.469583 322.470437) scale(0.1 -0.1)">
       <use xlink:href="#DejaVuSans-31"/>
       <use xlink:href="#DejaVuSans-30" x="63.623047"/>
       <use xlink:href="#DejaVuSans-30" x="127.246094"/>
      </g>
     </g>
    </g>
    <g id="xtick_11">
     <g id="line2d_19">
      <g>
       <use xlink:href="#m6f8974f415" x="151.064153" y="307.872" style="stroke: #000000; stroke-width: 0.8"/>
      </g>
     </g>
     <g id="text_19">
      <!-- 200 -->
      <g transform="translate(141.520403 322.470437) scale(0.1 -0.1)">
       <use xlink:href="#DejaVuSans-32"/>
       <use xlink:href="#DejaVuSans-30" x="63.623047"/>
       <use xlink:href="#DejaVuSans-30" x="127.246094"/>
      </g>
     </g>
    </g>
    <g id="xtick_12">
     <g id="line2d_20">
      <g>
       <use xlink:href="#m6f8974f415" x="195.114973" y="307.872" style="stroke: #000000; stroke-width: 0.8"/>
      </g>
     </g>
     <g id="text_20">
      <!-- 300 -->
      <g transform="translate(185.571223 322.470437) scale(0.1 -0.1)">
       <use xlink:href="#DejaVuSans-33"/>
       <use xlink:href="#DejaVuSans-30" x="63.623047"/>
       <use xlink:href="#DejaVuSans-30" x="127.246094"/>
      </g>
     </g>
    </g>
   </g>
   <g id="matplotlib.axis_6">
    <g id="ytick_7">
     <g id="line2d_21">
      <g>
       <use xlink:href="#md886359a8d" x="55.584" y="302.832" style="stroke: #000000; stroke-width: 0.8"/>
      </g>
     </g>
     <g id="text_21">
      <!-- 0 -->
      <g transform="translate(42.2215 306.631219) scale(0.1 -0.1)">
       <use xlink:href="#DejaVuSans-30"/>
      </g>
     </g>
    </g>
    <g id="ytick_8">
     <g id="line2d_22">
      <g>
       <use xlink:href="#md886359a8d" x="55.584" y="261.91876" style="stroke: #000000; stroke-width: 0.8"/>
      </g>
     </g>
     <g id="text_22">
      <!-- 20 -->
      <g transform="translate(35.859 265.717979) scale(0.1 -0.1)">
       <use xlink:href="#DejaVuSans-32"/>
       <use xlink:href="#DejaVuSans-30" x="63.623047"/>
      </g>
     </g>
    </g>
    <g id="ytick_9">
     <g id="line2d_23">
      <g>
       <use xlink:href="#md886359a8d" x="55.584" y="221.005521" style="stroke: #000000; stroke-width: 0.8"/>
      </g>
     </g>
     <g id="text_23">
      <!-- 40 -->
      <g transform="translate(35.859 224.80474) scale(0.1 -0.1)">
       <use xlink:href="#DejaVuSans-34"/>
       <use xlink:href="#DejaVuSans-30" x="63.623047"/>
      </g>
     </g>
    </g>
   </g>
   <g id="line2d_24">
    <path d="M 62.962512 202.032 
L 63.403021 204.324205 
L 63.843529 209.139051 
L 64.284037 206.590142 
L 66.04607 223.271126 
L 66.486578 225.43147 
L 66.927086 223.930869 
L 67.367594 229.511559 
L 67.808103 228.197905 
L 68.248611 276.875733 
L 68.689119 272.054639 
L 69.129627 276.790075 
L 69.570135 278.32605 
L 70.010644 278.261728 
L 70.451152 278.932705 
L 70.89166 282.65348 
L 71.332168 284.946775 
L 72.213185 288.351405 
L 73.094201 285.74113 
L 73.534709 270.391389 
L 73.975217 263.8712 
L 74.415726 263.718532 
L 75.296742 267.940958 
L 76.177758 270.630302 
L 77.058775 279.278223 
L 77.499283 278.023054 
L 77.939791 278.444037 
L 78.380299 278.630248 
L 78.820808 302.832 
L 83.666398 302.832 
L 84.106906 287.713114 
L 84.547414 286.808092 
L 84.987923 286.730355 
L 85.428431 286.865348 
L 85.868939 290.304882 
L 86.309447 286.813616 
L 86.749955 287.383378 
L 87.190464 289.585743 
L 87.630972 292.422254 
L 88.952496 290.539863 
L 89.393005 302.832 
L 94.238595 302.832 
L 94.679103 299.824124 
L 95.119611 299.176498 
L 95.560119 300.425831 
L 96.000628 292.321906 
L 96.441136 292.41847 
L 96.881644 285.080815 
L 97.76266 293.219762 
L 98.203169 292.398173 
L 98.643677 291.31812 
L 99.084185 287.629217 
L 99.524693 291.01303 
L 99.965201 302.832 
L 104.810792 302.832 
L 105.2513 284.375385 
L 105.691808 283.167984 
L 106.132316 282.574221 
L 106.572824 282.847783 
L 107.013333 282.347784 
L 107.453841 283.180941 
L 107.894349 283.684037 
L 108.334857 282.92541 
L 108.775365 290.323501 
L 109.215874 286.28165 
L 109.656382 286.865447 
L 110.09689 287.141544 
L 110.537398 302.832 
L 110.977907 302.832 
L 111.418415 298.165953 
L 111.858923 297.774003 
L 112.299431 298.914885 
L 112.739939 301.139043 
L 113.180448 301.565236 
L 113.620956 298.99461 
L 114.061464 301.557422 
L 114.501972 296.427622 
L 114.94248 296.260331 
L 115.382989 293.988223 
L 115.823497 278.912109 
L 116.264005 280.119095 
L 116.704513 280.066462 
L 117.145021 281.644117 
L 117.58553 283.753933 
L 118.026038 283.142013 
L 118.466546 284.662979 
L 118.907054 283.786893 
L 119.347562 281.648078 
L 119.788071 278.753012 
L 120.228579 278.359257 
L 120.669087 280.505786 
L 121.109595 297.891522 
L 121.550103 296.672733 
L 121.990612 298.25199 
L 122.43112 297.868811 
L 122.871628 297.318131 
L 123.312136 302.832 
L 124.633661 302.832 
L 125.074169 302.07221 
L 125.514677 302.832 
L 125.955185 302.832 
L 126.836202 287.528176 
L 127.27671 285.649225 
L 127.717218 284.778004 
L 128.157726 283.563777 
L 128.598235 289.624932 
L 129.038743 290.228947 
L 129.479251 291.207452 
L 129.919759 290.955617 
L 130.360267 291.6703 
L 131.681792 302.832 
L 136.527382 302.832 
L 136.96789 291.285173 
L 137.848907 296.828138 
L 138.289415 290.192468 
L 138.729923 289.170063 
L 139.170431 274.400633 
L 139.61094 272.630902 
L 140.051448 272.11839 
L 140.491956 275.720934 
L 140.932464 276.574969 
L 141.813481 284.183101 
L 142.253989 302.832 
L 147.099579 302.832 
L 147.540087 277.387893 
L 147.980596 275.871849 
L 148.421104 278.705544 
L 148.861612 279.495878 
L 149.30212 279.796807 
L 149.742628 280.613251 
L 150.183137 277.989291 
L 150.623645 277.375248 
L 151.064153 275.311497 
L 151.504661 278.036818 
L 151.945169 276.425028 
L 152.385678 278.278721 
L 152.826186 299.068753 
L 153.266694 302.832 
L 154.588219 302.832 
L 155.028727 299.781554 
L 155.469235 295.694346 
L 155.909743 294.629092 
L 156.350251 296.917963 
L 156.79076 302.832 
L 157.671776 302.832 
L 158.112284 274.033598 
L 158.552792 270.426043 
L 158.993301 277.364969 
L 159.433809 280.176768 
L 159.874317 278.648 
L 160.314825 285.068382 
L 160.755333 289.800043 
L 161.195842 291.318789 
L 161.63635 296.333423 
L 162.076858 300.030018 
L 162.517366 298.410017 
L 162.957874 300.071846 
L 163.398383 302.832 
L 168.243973 302.832 
L 168.684481 290.400042 
L 169.124989 292.223948 
L 169.565497 296.281256 
L 170.006006 296.896761 
L 170.446514 294.499982 
L 170.887022 296.07218 
L 171.32753 300.30768 
L 171.768038 298.40737 
L 172.208547 297.301813 
L 172.649055 297.670519 
L 173.089563 298.549108 
L 173.530071 298.455766 
L 173.970579 302.832 
L 178.81617 302.832 
L 179.256678 289.155874 
L 179.697186 293.059222 
L 180.137694 294.865174 
L 180.578203 294.54319 
L 181.018711 296.897297 
L 181.459219 296.658002 
L 181.899727 295.479559 
L 182.340235 294.620298 
L 182.780744 295.239609 
L 183.221252 295.113145 
L 183.66176 294.421457 
L 184.102268 295.449942 
L 184.542776 302.832 
L 189.388367 302.832 
L 189.828875 292.538644 
L 190.269383 285.726809 
L 190.709891 287.870601 
L 191.150399 288.105414 
L 191.590908 292.459739 
L 192.031416 294.173359 
L 192.471924 294.93167 
L 192.912432 293.028977 
L 193.35294 293.006784 
L 193.793449 293.598704 
L 194.233957 293.307165 
L 194.674465 292.867628 
L 195.114973 302.832 
L 199.960563 302.832 
L 200.401072 301.800988 
L 200.84158 301.096638 
L 201.722596 301.024519 
L 202.163104 299.175762 
L 202.603613 290.089252 
L 203.044121 283.739209 
L 203.484629 279.50458 
L 204.365645 287.828508 
L 204.806154 289.630214 
L 205.246662 289.287099 
L 205.68717 302.832 
L 210.53276 302.832 
L 210.53276 302.832 
" clip-path="url(#p548b9687f6)" style="fill: none; stroke: #ffa500; stroke-width: 1.5; stroke-linecap: square"/>
   </g>
   <g id="patch_13">
    <path d="M 55.584 307.872 
L 55.584 196.992 
" style="fill: none; stroke: #000000; stroke-width: 0.8; stroke-linejoin: miter; stroke-linecap: square"/>
   </g>
   <g id="patch_14">
    <path d="M 217.911273 307.872 
L 217.911273 196.992 
" style="fill: none; stroke: #000000; stroke-width: 0.8; stroke-linejoin: miter; stroke-linecap: square"/>
   </g>
   <g id="patch_15">
    <path d="M 55.584 307.872 
L 217.911273 307.872 
" style="fill: none; stroke: #000000; stroke-width: 0.8; stroke-linejoin: miter; stroke-linecap: square"/>
   </g>
   <g id="patch_16">
    <path d="M 55.584 196.992 
L 217.911273 196.992 
" style="fill: none; stroke: #000000; stroke-width: 0.8; stroke-linejoin: miter; stroke-linecap: square"/>
   </g>
   <g id="text_24">
    <!-- VAE -->
    <g transform="translate(125.130136 190.992) scale(0.12 -0.12)">
     <defs>
      <path id="DejaVuSans-56" d="M 1831 0 
L 50 4666 
L 709 4666 
L 2188 738 
L 3669 4666 
L 4325 4666 
L 2547 0 
L 1831 0 
z
" transform="scale(0.015625)"/>
      <path id="DejaVuSans-41" d="M 2188 4044 
L 1331 1722 
L 3047 1722 
L 2188 4044 
z
M 1831 4666 
L 2547 4666 
L 4325 0 
L 3669 0 
L 3244 1197 
L 1141 1197 
L 716 0 
L 50 0 
L 1831 4666 
z
" transform="scale(0.015625)"/>
      <path id="DejaVuSans-45" d="M 628 4666 
L 3578 4666 
L 3578 4134 
L 1259 4134 
L 1259 2753 
L 3481 2753 
L 3481 2222 
L 1259 2222 
L 1259 531 
L 3634 531 
L 3634 0 
L 628 0 
L 628 4666 
z
" transform="scale(0.015625)"/>
     </defs>
     <use xlink:href="#DejaVuSans-56"/>
     <use xlink:href="#DejaVuSans-41" x="62.033203"/>
     <use xlink:href="#DejaVuSans-45" x="130.441406"/>
    </g>
   </g>
  </g>
  <g id="axes_4">
   <g id="patch_17">
    <path d="M 250.376727 307.872 
L 412.704 307.872 
L 412.704 196.992 
L 250.376727 196.992 
z
" style="fill: #ffffff"/>
   </g>
   <g id="matplotlib.axis_7">
    <g id="xtick_13">
     <g id="line2d_25">
      <g>
       <use xlink:href="#m6f8974f415" x="257.75524" y="307.872" style="stroke: #000000; stroke-width: 0.8"/>
      </g>
     </g>
     <g id="text_25">
      <!-- 0 -->
      <g transform="translate(254.57399 322.470437) scale(0.1 -0.1)">
       <use xlink:href="#DejaVuSans-30"/>
      </g>
     </g>
    </g>
    <g id="xtick_14">
     <g id="line2d_26">
      <g>
       <use xlink:href="#m6f8974f415" x="301.80606" y="307.872" style="stroke: #000000; stroke-width: 0.8"/>
      </g>
     </g>
     <g id="text_26">
      <!-- 100 -->
      <g transform="translate(292.26231 322.470437) scale(0.1 -0.1)">
       <use xlink:href="#DejaVuSans-31"/>
       <use xlink:href="#DejaVuSans-30" x="63.623047"/>
       <use xlink:href="#DejaVuSans-30" x="127.246094"/>
      </g>
     </g>
    </g>
    <g id="xtick_15">
     <g id="line2d_27">
      <g>
       <use xlink:href="#m6f8974f415" x="345.85688" y="307.872" style="stroke: #000000; stroke-width: 0.8"/>
      </g>
     </g>
     <g id="text_27">
      <!-- 200 -->
      <g transform="translate(336.31313 322.470437) scale(0.1 -0.1)">
       <use xlink:href="#DejaVuSans-32"/>
       <use xlink:href="#DejaVuSans-30" x="63.623047"/>
       <use xlink:href="#DejaVuSans-30" x="127.246094"/>
      </g>
     </g>
    </g>
    <g id="xtick_16">
     <g id="line2d_28">
      <g>
       <use xlink:href="#m6f8974f415" x="389.907701" y="307.872" style="stroke: #000000; stroke-width: 0.8"/>
      </g>
     </g>
     <g id="text_28">
      <!-- 300 -->
      <g transform="translate(380.363951 322.470437) scale(0.1 -0.1)">
       <use xlink:href="#DejaVuSans-33"/>
       <use xlink:href="#DejaVuSans-30" x="63.623047"/>
       <use xlink:href="#DejaVuSans-30" x="127.246094"/>
      </g>
     </g>
    </g>
   </g>
   <g id="matplotlib.axis_8">
    <g id="ytick_10">
     <g id="line2d_29">
      <g>
       <use xlink:href="#md886359a8d" x="250.376727" y="302.832" style="stroke: #000000; stroke-width: 0.8"/>
      </g>
     </g>
     <g id="text_29">
      <!-- 0 -->
      <g transform="translate(237.014227 306.631219) scale(0.1 -0.1)">
       <use xlink:href="#DejaVuSans-30"/>
      </g>
     </g>
    </g>
    <g id="ytick_11">
     <g id="line2d_30">
      <g>
       <use xlink:href="#md886359a8d" x="250.376727" y="261.902053" style="stroke: #000000; stroke-width: 0.8"/>
      </g>
     </g>
     <g id="text_30">
      <!-- 20 -->
      <g transform="translate(230.651727 265.701272) scale(0.1 -0.1)">
       <use xlink:href="#DejaVuSans-32"/>
       <use xlink:href="#DejaVuSans-30" x="63.623047"/>
      </g>
     </g>
    </g>
    <g id="ytick_12">
     <g id="line2d_31">
      <g>
       <use xlink:href="#md886359a8d" x="250.376727" y="220.972106" style="stroke: #000000; stroke-width: 0.8"/>
      </g>
     </g>
     <g id="text_31">
      <!-- 40 -->
      <g transform="translate(230.651727 224.771325) scale(0.1 -0.1)">
       <use xlink:href="#DejaVuSans-34"/>
       <use xlink:href="#DejaVuSans-30" x="63.623047"/>
      </g>
     </g>
    </g>
   </g>
   <g id="line2d_32">
    <path d="M 257.75524 202.032 
L 258.195748 204.29192 
L 258.636256 209.023559 
L 259.076764 206.55164 
L 259.517272 210.662233 
L 259.957781 213.434119 
L 260.398289 219.311631 
L 260.838797 223.199115 
L 261.279305 225.429436 
L 261.719813 223.901698 
L 262.160322 229.55248 
L 262.60083 228.178509 
L 263.041338 246.616365 
L 263.481846 248.829783 
L 263.922355 270.865517 
L 264.362863 266.165599 
L 264.803371 266.808058 
L 265.243879 270.199368 
L 265.684387 275.361217 
L 266.124896 271.152041 
L 266.565404 277.065153 
L 267.005912 272.679894 
L 267.44642 278.594718 
L 268.327437 270.375317 
L 268.767945 263.861392 
L 269.208453 263.701479 
L 270.089469 267.923315 
L 270.970486 270.596644 
L 271.851502 279.232042 
L 272.29201 277.998524 
L 272.732519 278.430648 
L 273.173027 278.639113 
L 273.613535 277.344701 
L 274.054043 282.102341 
L 274.494551 292.114475 
L 274.93506 287.140273 
L 275.375568 294.9033 
L 275.816076 293.317678 
L 276.256584 292.55977 
L 276.697092 289.238113 
L 277.137601 291.170708 
L 277.578109 292.172816 
L 278.018617 294.511388 
L 278.459125 295.680836 
L 278.899633 287.705407 
L 279.340142 286.889215 
L 279.78065 286.718117 
L 280.221158 286.849287 
L 280.661666 290.302557 
L 281.102174 286.801696 
L 281.542683 287.385695 
L 281.983191 289.558011 
L 282.423699 292.430446 
L 283.745224 290.531348 
L 284.185732 300.341167 
L 284.62624 302.832 
L 285.066748 293.59312 
L 285.507256 294.63391 
L 285.947765 293.22366 
L 286.388273 299.899856 
L 286.828781 292.04391 
L 287.269289 294.794887 
L 287.709797 293.351613 
L 288.150306 292.556291 
L 288.590814 290.320323 
L 289.031322 293.294451 
L 289.47183 299.81331 
L 289.912338 300.640791 
L 290.352847 300.470297 
L 290.793355 292.316061 
L 291.233863 292.41347 
L 291.674371 285.075734 
L 292.555388 293.196607 
L 292.995896 292.395944 
L 293.436404 291.315999 
L 293.876912 287.625974 
L 294.317421 291.005288 
L 294.757929 300.589025 
L 295.198437 302.832 
L 296.079453 302.832 
L 296.519962 298.655635 
L 296.96047 297.358655 
L 297.400978 292.625627 
L 297.841486 293.906323 
L 298.281994 292.704136 
L 298.722503 290.547541 
L 299.163011 293.358647 
L 299.603519 290.911292 
L 300.044027 284.371501 
L 300.484535 283.160284 
L 300.925044 282.564853 
L 301.365552 282.842219 
L 301.80606 282.343484 
L 302.246568 283.152879 
L 302.687076 283.664909 
L 303.127585 282.909764 
L 303.568093 290.371776 
L 304.008601 286.28295 
L 304.449109 286.856761 
L 304.889617 287.141071 
L 305.330126 289.377624 
L 305.770634 292.91555 
L 306.211142 292.697041 
L 306.65165 286.676379 
L 307.092158 278.49034 
L 307.532667 279.027523 
L 307.973175 278.834635 
L 308.413683 283.582376 
L 308.854191 279.047397 
L 309.294699 277.629056 
L 309.735208 280.706838 
L 310.175716 279.451255 
L 310.616224 278.910828 
L 311.056732 280.109568 
L 311.49724 280.075402 
L 311.937749 281.619721 
L 312.378257 283.754243 
L 312.818765 283.131573 
L 313.259273 284.657872 
L 313.699781 283.784457 
L 314.14029 281.635698 
L 314.580798 278.764624 
L 315.021306 278.357875 
L 315.461814 280.232552 
L 315.902322 295.324553 
L 316.342831 283.425958 
L 316.783339 288.546523 
L 317.664355 291.017943 
L 318.104863 295.496244 
L 318.545372 294.162372 
L 318.98588 299.986816 
L 319.426388 302.688315 
L 319.866896 294.737514 
L 320.307404 296.630313 
L 320.747913 295.68717 
L 321.188421 295.041785 
L 321.628929 287.517117 
L 322.069437 285.635295 
L 322.509945 284.781003 
L 322.950454 283.55835 
L 323.390962 289.609828 
L 323.83147 290.771369 
L 324.271978 291.206286 
L 324.712486 290.952572 
L 325.152995 291.471748 
L 326.034011 300.122912 
L 326.474519 302.832 
L 326.915028 302.832 
L 327.355536 302.033395 
L 327.796044 302.832 
L 328.236552 296.033481 
L 328.67706 300.977229 
L 329.117569 301.554108 
L 329.558077 299.933425 
L 329.998585 297.031694 
L 330.439093 297.530055 
L 330.879601 294.315286 
L 331.32011 298.048757 
L 331.760618 291.278972 
L 332.641634 296.829683 
L 333.082142 290.202666 
L 333.522651 289.1475 
L 333.963159 274.380071 
L 334.403667 272.623869 
L 334.844175 272.110901 
L 335.284683 275.712042 
L 335.725192 276.552078 
L 336.606208 284.179671 
L 337.046716 302.832 
L 341.01129 302.832 
L 341.892306 279.393894 
L 342.332815 277.348223 
L 342.773323 275.853531 
L 343.213831 278.691824 
L 343.654339 279.513522 
L 344.094847 279.788624 
L 344.535356 280.599567 
L 344.975864 277.983873 
L 345.416372 277.375859 
L 345.85688 275.30184 
L 346.297388 278.039485 
L 346.737897 276.465943 
L 347.178405 278.261534 
L 347.618913 286.600339 
L 348.059421 292.391286 
L 348.499929 289.028349 
L 348.940438 294.251651 
L 349.380946 288.900168 
L 349.821454 286.603577 
L 350.261962 283.141282 
L 350.70247 280.616647 
L 351.142979 290.511196 
L 351.583487 284.737497 
L 352.023995 285.897791 
L 352.464503 277.651526 
L 353.34552 270.376959 
L 353.786028 277.357545 
L 354.226536 280.108977 
L 354.667044 278.104643 
L 355.107552 285.294134 
L 355.548061 289.766572 
L 355.988569 291.313216 
L 356.429077 296.326907 
L 356.869585 300.029226 
L 357.310093 298.409079 
L 357.750602 300.069265 
L 358.19111 299.498649 
L 358.631618 302.832 
L 359.072126 300.944968 
L 359.512635 298.28957 
L 359.953143 302.256529 
L 360.393651 302.040051 
L 360.834159 299.057015 
L 361.274667 302.832 
L 361.715176 301.037871 
L 362.155684 300.272966 
L 362.596192 302.832 
L 363.0367 301.795021 
L 363.477208 290.407897 
L 363.917717 292.236199 
L 364.358225 296.28673 
L 364.798733 296.882781 
L 365.239241 294.50154 
L 365.679749 296.079232 
L 366.120258 300.306184 
L 366.560766 298.399256 
L 367.001274 297.296902 
L 367.441782 297.665894 
L 367.88229 298.537612 
L 368.322799 298.456877 
L 368.763307 300.176422 
L 369.203815 296.214465 
L 369.644323 301.896036 
L 370.084831 302.240775 
L 370.52534 302.832 
L 373.608897 302.832 
L 374.049405 289.14653 
L 374.489913 293.048421 
L 374.930422 294.857125 
L 375.37093 294.537354 
L 375.811438 296.911579 
L 376.251946 296.651756 
L 376.692454 295.464452 
L 377.132963 294.608447 
L 377.573471 295.260001 
L 378.013979 295.108136 
L 378.454487 294.407567 
L 378.894995 295.540479 
L 379.335504 301.381044 
L 379.776012 302.832 
L 381.097536 302.832 
L 381.538045 296.724527 
L 381.978553 302.832 
L 382.419061 301.212531 
L 382.859569 295.558904 
L 383.300077 301.379875 
L 384.181094 296.378281 
L 384.621602 292.54082 
L 385.06211 285.711169 
L 385.502618 287.871634 
L 385.943127 288.094518 
L 386.383635 292.471237 
L 386.824143 294.173683 
L 387.264651 294.958676 
L 387.705159 293.03852 
L 388.145668 293.002937 
L 388.586176 293.595738 
L 389.026684 291.436458 
L 389.467192 292.871253 
L 389.907701 302.832 
L 390.348209 292.127882 
L 390.788717 302.832 
L 391.229225 299.537315 
L 391.669733 302.832 
L 392.110242 295.811831 
L 392.55075 298.1254 
L 392.991258 302.082726 
L 393.431766 300.720219 
L 393.872274 300.16859 
L 394.312783 302.832 
L 394.753291 302.832 
L 395.193799 301.787541 
L 395.634307 301.095101 
L 396.515324 301.030923 
L 396.955832 299.164648 
L 397.39634 290.089222 
L 397.836848 283.725058 
L 398.277356 279.484351 
L 399.158373 287.831741 
L 399.598881 289.623718 
L 400.039389 289.290775 
L 400.479897 296.354142 
L 400.920406 298.692869 
L 401.360914 290.589257 
L 401.801422 286.853483 
L 402.682438 300.989753 
L 403.122947 294.167816 
L 403.563455 299.743492 
L 404.003963 293.624847 
L 404.884979 302.832 
L 405.325488 292.126293 
L 405.325488 292.126293 
" clip-path="url(#p59911f9256)" style="fill: none; stroke: #ff0000; stroke-width: 1.5; stroke-linecap: square"/>
   </g>
   <g id="patch_18">
    <path d="M 250.376727 307.872 
L 250.376727 196.992 
" style="fill: none; stroke: #000000; stroke-width: 0.8; stroke-linejoin: miter; stroke-linecap: square"/>
   </g>
   <g id="patch_19">
    <path d="M 412.704 307.872 
L 412.704 196.992 
" style="fill: none; stroke: #000000; stroke-width: 0.8; stroke-linejoin: miter; stroke-linecap: square"/>
   </g>
   <g id="patch_20">
    <path d="M 250.376727 307.872 
L 412.704 307.872 
" style="fill: none; stroke: #000000; stroke-width: 0.8; stroke-linejoin: miter; stroke-linecap: square"/>
   </g>
   <g id="patch_21">
    <path d="M 250.376727 196.992 
L 412.704 196.992 
" style="fill: none; stroke: #000000; stroke-width: 0.8; stroke-linejoin: miter; stroke-linecap: square"/>
   </g>
   <g id="text_32">
    <!-- VRNN -->
    <g transform="translate(314.289426 190.992) scale(0.12 -0.12)">
     <use xlink:href="#DejaVuSans-56"/>
     <use xlink:href="#DejaVuSans-52" x="68.408203"/>
     <use xlink:href="#DejaVuSans-4e" x="137.890625"/>
     <use xlink:href="#DejaVuSans-4e" x="212.695312"/>
    </g>
   </g>
  </g>
  <g id="text_33">
   <!-- VMAF Scores Over Frames: Video #5 -->
   <g transform="translate(118.155563 16.318125) scale(0.12 -0.12)">
    <defs>
     <path id="DejaVuSans-4d" d="M 628 4666 
L 1569 4666 
L 2759 1491 
L 3956 4666 
L 4897 4666 
L 4897 0 
L 4281 0 
L 4281 4097 
L 3078 897 
L 2444 897 
L 1241 4097 
L 1241 0 
L 628 0 
L 628 4666 
z
" transform="scale(0.015625)"/>
     <path id="DejaVuSans-73" d="M 2834 3397 
L 2834 2853 
Q 2591 2978 2328 3040 
Q 2066 3103 1784 3103 
Q 1356 3103 1142 2972 
Q 928 2841 928 2578 
Q 928 2378 1081 2264 
Q 1234 2150 1697 2047 
L 1894 2003 
Q 2506 1872 2764 1633 
Q 3022 1394 3022 966 
Q 3022 478 2636 193 
Q 2250 -91 1575 -91 
Q 1294 -91 989 -36 
Q 684 19 347 128 
L 347 722 
Q 666 556 975 473 
Q 1284 391 1588 391 
Q 1994 391 2212 530 
Q 2431 669 2431 922 
Q 2431 1156 2273 1281 
Q 2116 1406 1581 1522 
L 1381 1569 
Q 847 1681 609 1914 
Q 372 2147 372 2553 
Q 372 3047 722 3315 
Q 1072 3584 1716 3584 
Q 2034 3584 2315 3537 
Q 2597 3491 2834 3397 
z
" transform="scale(0.015625)"/>
     <path id="DejaVuSans-76" d="M 191 3500 
L 800 3500 
L 1894 563 
L 2988 3500 
L 3597 3500 
L 2284 0 
L 1503 0 
L 191 3500 
z
" transform="scale(0.015625)"/>
     <path id="DejaVuSans-61" d="M 2194 1759 
Q 1497 1759 1228 1600 
Q 959 1441 959 1056 
Q 959 750 1161 570 
Q 1363 391 1709 391 
Q 2188 391 2477 730 
Q 2766 1069 2766 1631 
L 2766 1759 
L 2194 1759 
z
M 3341 1997 
L 3341 0 
L 2766 0 
L 2766 531 
Q 2569 213 2275 61 
Q 1981 -91 1556 -91 
Q 1019 -91 701 211 
Q 384 513 384 1019 
Q 384 1609 779 1909 
Q 1175 2209 1959 2209 
L 2766 2209 
L 2766 2266 
Q 2766 2663 2505 2880 
Q 2244 3097 1772 3097 
Q 1472 3097 1187 3025 
Q 903 2953 641 2809 
L 641 3341 
Q 956 3463 1253 3523 
Q 1550 3584 1831 3584 
Q 2591 3584 2966 3190 
Q 3341 2797 3341 1997 
z
" transform="scale(0.015625)"/>
     <path id="DejaVuSans-6d" d="M 3328 2828 
Q 3544 3216 3844 3400 
Q 4144 3584 4550 3584 
Q 5097 3584 5394 3201 
Q 5691 2819 5691 2113 
L 5691 0 
L 5113 0 
L 5113 2094 
Q 5113 2597 4934 2840 
Q 4756 3084 4391 3084 
Q 3944 3084 3684 2787 
Q 3425 2491 3425 1978 
L 3425 0 
L 2847 0 
L 2847 2094 
Q 2847 2600 2669 2842 
Q 2491 3084 2119 3084 
Q 1678 3084 1418 2786 
Q 1159 2488 1159 1978 
L 1159 0 
L 581 0 
L 581 3500 
L 1159 3500 
L 1159 2956 
Q 1356 3278 1631 3431 
Q 1906 3584 2284 3584 
Q 2666 3584 2933 3390 
Q 3200 3197 3328 2828 
z
" transform="scale(0.015625)"/>
     <path id="DejaVuSans-3a" d="M 750 794 
L 1409 794 
L 1409 0 
L 750 0 
L 750 794 
z
M 750 3309 
L 1409 3309 
L 1409 2516 
L 750 2516 
L 750 3309 
z
" transform="scale(0.015625)"/>
     <path id="DejaVuSans-23" d="M 3272 2816 
L 2363 2816 
L 2100 1772 
L 3016 1772 
L 3272 2816 
z
M 2803 4594 
L 2478 3297 
L 3391 3297 
L 3719 4594 
L 4219 4594 
L 3897 3297 
L 4872 3297 
L 4872 2816 
L 3775 2816 
L 3519 1772 
L 4513 1772 
L 4513 1294 
L 3397 1294 
L 3072 0 
L 2572 0 
L 2894 1294 
L 1978 1294 
L 1656 0 
L 1153 0 
L 1478 1294 
L 494 1294 
L 494 1772 
L 1594 1772 
L 1856 2816 
L 850 2816 
L 850 3297 
L 1978 3297 
L 2297 4594 
L 2803 4594 
z
" transform="scale(0.015625)"/>
     <path id="DejaVuSans-35" d="M 691 4666 
L 3169 4666 
L 3169 4134 
L 1269 4134 
L 1269 2991 
Q 1406 3038 1543 3061 
Q 1681 3084 1819 3084 
Q 2600 3084 3056 2656 
Q 3513 2228 3513 1497 
Q 3513 744 3044 326 
Q 2575 -91 1722 -91 
Q 1428 -91 1123 -41 
Q 819 9 494 109 
L 494 744 
Q 775 591 1075 516 
Q 1375 441 1709 441 
Q 2250 441 2565 725 
Q 2881 1009 2881 1497 
Q 2881 1984 2565 2268 
Q 2250 2553 1709 2553 
Q 1456 2553 1204 2497 
Q 953 2441 691 2322 
L 691 4666 
z
" transform="scale(0.015625)"/>
    </defs>
    <use xlink:href="#DejaVuSans-56"/>
    <use xlink:href="#DejaVuSans-4d" x="68.408203"/>
    <use xlink:href="#DejaVuSans-41" x="154.6875"/>
    <use xlink:href="#DejaVuSans-46" x="223.095703"/>
    <use xlink:href="#DejaVuSans-20" x="280.615234"/>
    <use xlink:href="#DejaVuSans-53" x="312.402344"/>
    <use xlink:href="#DejaVuSans-63" x="375.878906"/>
    <use xlink:href="#DejaVuSans-6f" x="430.859375"/>
    <use xlink:href="#DejaVuSans-72" x="492.041016"/>
    <use xlink:href="#DejaVuSans-65" x="530.904297"/>
    <use xlink:href="#DejaVuSans-73" x="592.427734"/>
    <use xlink:href="#DejaVuSans-20" x="644.527344"/>
    <use xlink:href="#DejaVuSans-4f" x="676.314453"/>
    <use xlink:href="#DejaVuSans-76" x="755.025391"/>
    <use xlink:href="#DejaVuSans-65" x="814.205078"/>
    <use xlink:href="#DejaVuSans-72" x="875.728516"/>
    <use xlink:href="#DejaVuSans-20" x="916.841797"/>
    <use xlink:href="#DejaVuSans-46" x="948.628906"/>
    <use xlink:href="#DejaVuSans-72" x="998.898438"/>
    <use xlink:href="#DejaVuSans-61" x="1040.011719"/>
    <use xlink:href="#DejaVuSans-6d" x="1101.291016"/>
    <use xlink:href="#DejaVuSans-65" x="1198.703125"/>
    <use xlink:href="#DejaVuSans-73" x="1260.226562"/>
    <use xlink:href="#DejaVuSans-3a" x="1312.326172"/>
    <use xlink:href="#DejaVuSans-20" x="1346.017578"/>
    <use xlink:href="#DejaVuSans-56" x="1377.804688"/>
    <use xlink:href="#DejaVuSans-69" x="1443.962891"/>
    <use xlink:href="#DejaVuSans-64" x="1471.746094"/>
    <use xlink:href="#DejaVuSans-65" x="1535.222656"/>
    <use xlink:href="#DejaVuSans-6f" x="1596.746094"/>
    <use xlink:href="#DejaVuSans-20" x="1657.927734"/>
    <use xlink:href="#DejaVuSans-23" x="1689.714844"/>
    <use xlink:href="#DejaVuSans-35" x="1773.503906"/>
   </g>
  </g>
  <g id="text_34">
   <!-- Video Frames -->
   <g transform="translate(187.847438 339.936375) scale(0.12 -0.12)">
    <use xlink:href="#DejaVuSans-56"/>
    <use xlink:href="#DejaVuSans-69" x="66.158203"/>
    <use xlink:href="#DejaVuSans-64" x="93.941406"/>
    <use xlink:href="#DejaVuSans-65" x="157.417969"/>
    <use xlink:href="#DejaVuSans-6f" x="218.941406"/>
    <use xlink:href="#DejaVuSans-20" x="280.123047"/>
    <use xlink:href="#DejaVuSans-46" x="311.910156"/>
    <use xlink:href="#DejaVuSans-72" x="362.179688"/>
    <use xlink:href="#DejaVuSans-61" x="403.292969"/>
    <use xlink:href="#DejaVuSans-6d" x="464.572266"/>
    <use xlink:href="#DejaVuSans-65" x="561.984375"/>
    <use xlink:href="#DejaVuSans-73" x="623.507812"/>
   </g>
  </g>
  <g id="text_35">
   <!-- Raw VMAF Scores -->
   <g transform="translate(16.318125 226.284562) rotate(-90) scale(0.12 -0.12)">
    <defs>
     <path id="DejaVuSans-77" d="M 269 3500 
L 844 3500 
L 1563 769 
L 2278 3500 
L 2956 3500 
L 3675 769 
L 4391 3500 
L 4966 3500 
L 4050 0 
L 3372 0 
L 2619 2869 
L 1863 0 
L 1184 0 
L 269 3500 
z
" transform="scale(0.015625)"/>
    </defs>
    <use xlink:href="#DejaVuSans-52"/>
    <use xlink:href="#DejaVuSans-61" x="67.232422"/>
    <use xlink:href="#DejaVuSans-77" x="128.511719"/>
    <use xlink:href="#DejaVuSans-20" x="210.298828"/>
    <use xlink:href="#DejaVuSans-56" x="242.085938"/>
    <use xlink:href="#DejaVuSans-4d" x="310.494141"/>
    <use xlink:href="#DejaVuSans-41" x="396.773438"/>
    <use xlink:href="#DejaVuSans-46" x="465.181641"/>
    <use xlink:href="#DejaVuSans-20" x="522.701172"/>
    <use xlink:href="#DejaVuSans-53" x="554.488281"/>
    <use xlink:href="#DejaVuSans-63" x="617.964844"/>
    <use xlink:href="#DejaVuSans-6f" x="672.945312"/>
    <use xlink:href="#DejaVuSans-72" x="734.126953"/>
    <use xlink:href="#DejaVuSans-65" x="772.990234"/>
    <use xlink:href="#DejaVuSans-73" x="834.513672"/>
   </g>
  </g>
 </g>
 <defs>
  <clipPath id="p6f8c36d8dd">
   <rect x="55.584" y="41.76" width="162.327273" height="110.88"/>
  </clipPath>
  <clipPath id="p5a353d7718">
   <rect x="250.376727" y="41.76" width="162.327273" height="110.88"/>
  </clipPath>
  <clipPath id="p548b9687f6">
   <rect x="55.584" y="196.992" width="162.327273" height="110.88"/>
  </clipPath>
  <clipPath id="p59911f9256">
   <rect x="250.376727" y="196.992" width="162.327273" height="110.88"/>
  </clipPath>
 </defs>
</svg>
