<?xml version="1.0" encoding="utf-8" standalone="no"?>
<!DOCTYPE svg PUBLIC "-//W3C//DTD SVG 1.1//EN"
  "http://www.w3.org/Graphics/SVG/1.1/DTD/svg11.dtd">
<svg xmlns:xlink="http://www.w3.org/1999/xlink" width="429.022809pt" height="349.632pt" viewBox="0 0 429.022809 349.632" xmlns="http://www.w3.org/2000/svg" version="1.1">
 <metadata>
  <rdf:RDF xmlns:dc="http://purl.org/dc/elements/1.1/" xmlns:cc="http://creativecommons.org/ns#" xmlns:rdf="http://www.w3.org/1999/02/22-rdf-syntax-ns#">
   <cc:Work>
    <dc:type rdf:resource="http://purl.org/dc/dcmitype/StillImage"/>
    <dc:date>2024-07-24T16:31:50.580856</dc:date>
    <dc:format>image/svg+xml</dc:format>
    <dc:creator>
     <cc:Agent>
      <dc:title>Matplotlib v3.7.2, https://matplotlib.org/</dc:title>
     </cc:Agent>
    </dc:creator>
   </cc:Work>
  </rdf:RDF>
 </metadata>
 <defs>
  <style type="text/css">*{stroke-linejoin: round; stroke-linecap: butt}</style>
 </defs>
 <g id="figure_1">
  <g id="patch_1">
   <path d="M 0 349.632 
L 429.022809 349.632 
L 429.022809 -0 
L 0 -0 
z
" style="fill: #ffffff"/>
  </g>
  <g id="axes_1">
   <g id="patch_2">
    <path d="M 55.584 152.64 
L 217.911273 152.64 
L 217.911273 41.76 
L 55.584 41.76 
z
" style="fill: #ffffff"/>
   </g>
   <g id="matplotlib.axis_1">
    <g id="xtick_1">
     <g id="line2d_1">
      <defs>
       <path id="m021e4ce253" d="M 0 0 
L 0 3.5 
" style="stroke: #000000; stroke-width: 0.8"/>
      </defs>
      <g>
       <use xlink:href="#m021e4ce253" x="62.962512" y="152.64" style="stroke: #000000; stroke-width: 0.8"/>
      </g>
     </g>
     <g id="text_1">
      <!-- 0 -->
      <g transform="translate(59.781262 167.238437) scale(0.1 -0.1)">
       <defs>
        <path id="DejaVuSans-30" d="M 2034 4250 
Q 1547 4250 1301 3770 
Q 1056 3291 1056 2328 
Q 1056 1369 1301 889 
Q 1547 409 2034 409 
Q 2525 409 2770 889 
Q 3016 1369 3016 2328 
Q 3016 3291 2770 3770 
Q 2525 4250 2034 4250 
z
M 2034 4750 
Q 2819 4750 3233 4129 
Q 3647 3509 3647 2328 
Q 3647 1150 3233 529 
Q 2819 -91 2034 -91 
Q 1250 -91 836 529 
Q 422 1150 422 2328 
Q 422 3509 836 4129 
Q 1250 4750 2034 4750 
z
" transform="scale(0.015625)"/>
       </defs>
       <use xlink:href="#DejaVuSans-30"/>
      </g>
     </g>
    </g>
    <g id="xtick_2">
     <g id="line2d_2">
      <g>
       <use xlink:href="#m021e4ce253" x="101.593467" y="152.64" style="stroke: #000000; stroke-width: 0.8"/>
      </g>
     </g>
     <g id="text_2">
      <!-- 50 -->
      <g transform="translate(95.230967 167.238437) scale(0.1 -0.1)">
       <defs>
        <path id="DejaVuSans-35" d="M 691 4666 
L 3169 4666 
L 3169 4134 
L 1269 4134 
L 1269 2991 
Q 1406 3038 1543 3061 
Q 1681 3084 1819 3084 
Q 2600 3084 3056 2656 
Q 3513 2228 3513 1497 
Q 3513 744 3044 326 
Q 2575 -91 1722 -91 
Q 1428 -91 1123 -41 
Q 819 9 494 109 
L 494 744 
Q 775 591 1075 516 
Q 1375 441 1709 441 
Q 2250 441 2565 725 
Q 2881 1009 2881 1497 
Q 2881 1984 2565 2268 
Q 2250 2553 1709 2553 
Q 1456 2553 1204 2497 
Q 953 2441 691 2322 
L 691 4666 
z
" transform="scale(0.015625)"/>
       </defs>
       <use xlink:href="#DejaVuSans-35"/>
       <use xlink:href="#DejaVuSans-30" x="63.623047"/>
      </g>
     </g>
    </g>
    <g id="xtick_3">
     <g id="line2d_3">
      <g>
       <use xlink:href="#m021e4ce253" x="140.224422" y="152.64" style="stroke: #000000; stroke-width: 0.8"/>
      </g>
     </g>
     <g id="text_3">
      <!-- 100 -->
      <g transform="translate(130.680672 167.238437) scale(0.1 -0.1)">
       <defs>
        <path id="DejaVuSans-31" d="M 794 531 
L 1825 531 
L 1825 4091 
L 703 3866 
L 703 4441 
L 1819 4666 
L 2450 4666 
L 2450 531 
L 3481 531 
L 3481 0 
L 794 0 
L 794 531 
z
" transform="scale(0.015625)"/>
       </defs>
       <use xlink:href="#DejaVuSans-31"/>
       <use xlink:href="#DejaVuSans-30" x="63.623047"/>
       <use xlink:href="#DejaVuSans-30" x="127.246094"/>
      </g>
     </g>
    </g>
    <g id="xtick_4">
     <g id="line2d_4">
      <g>
       <use xlink:href="#m021e4ce253" x="178.855377" y="152.64" style="stroke: #000000; stroke-width: 0.8"/>
      </g>
     </g>
     <g id="text_4">
      <!-- 150 -->
      <g transform="translate(169.311627 167.238437) scale(0.1 -0.1)">
       <use xlink:href="#DejaVuSans-31"/>
       <use xlink:href="#DejaVuSans-35" x="63.623047"/>
       <use xlink:href="#DejaVuSans-30" x="127.246094"/>
      </g>
     </g>
    </g>
    <g id="xtick_5">
     <g id="line2d_5">
      <g>
       <use xlink:href="#m021e4ce253" x="217.486332" y="152.64" style="stroke: #000000; stroke-width: 0.8"/>
      </g>
     </g>
     <g id="text_5">
      <!-- 200 -->
      <g transform="translate(207.942582 167.238437) scale(0.1 -0.1)">
       <defs>
        <path id="DejaVuSans-32" d="M 1228 531 
L 3431 531 
L 3431 0 
L 469 0 
L 469 531 
Q 828 903 1448 1529 
Q 2069 2156 2228 2338 
Q 2531 2678 2651 2914 
Q 2772 3150 2772 3378 
Q 2772 3750 2511 3984 
Q 2250 4219 1831 4219 
Q 1534 4219 1204 4116 
Q 875 4013 500 3803 
L 500 4441 
Q 881 4594 1212 4672 
Q 1544 4750 1819 4750 
Q 2544 4750 2975 4387 
Q 3406 4025 3406 3419 
Q 3406 3131 3298 2873 
Q 3191 2616 2906 2266 
Q 2828 2175 2409 1742 
Q 1991 1309 1228 531 
z
" transform="scale(0.015625)"/>
       </defs>
       <use xlink:href="#DejaVuSans-32"/>
       <use xlink:href="#DejaVuSans-30" x="63.623047"/>
       <use xlink:href="#DejaVuSans-30" x="127.246094"/>
      </g>
     </g>
    </g>
   </g>
   <g id="matplotlib.axis_2">
    <g id="ytick_1">
     <g id="line2d_6">
      <defs>
       <path id="me69fa29d17" d="M 0 0 
L -3.5 0 
" style="stroke: #000000; stroke-width: 0.8"/>
      </defs>
      <g>
       <use xlink:href="#me69fa29d17" x="55.584" y="150.213983" style="stroke: #000000; stroke-width: 0.8"/>
      </g>
     </g>
     <g id="text_6">
      <!-- 0 -->
      <g transform="translate(42.2215 154.013202) scale(0.1 -0.1)">
       <use xlink:href="#DejaVuSans-30"/>
      </g>
     </g>
    </g>
    <g id="ytick_2">
     <g id="line2d_7">
      <g>
       <use xlink:href="#me69fa29d17" x="55.584" y="127.503956" style="stroke: #000000; stroke-width: 0.8"/>
      </g>
     </g>
     <g id="text_7">
      <!-- 10 -->
      <g transform="translate(35.859 131.303175) scale(0.1 -0.1)">
       <use xlink:href="#DejaVuSans-31"/>
       <use xlink:href="#DejaVuSans-30" x="63.623047"/>
      </g>
     </g>
    </g>
    <g id="ytick_3">
     <g id="line2d_8">
      <g>
       <use xlink:href="#me69fa29d17" x="55.584" y="104.793929" style="stroke: #000000; stroke-width: 0.8"/>
      </g>
     </g>
     <g id="text_8">
      <!-- 20 -->
      <g transform="translate(35.859 108.593148) scale(0.1 -0.1)">
       <use xlink:href="#DejaVuSans-32"/>
       <use xlink:href="#DejaVuSans-30" x="63.623047"/>
      </g>
     </g>
    </g>
    <g id="ytick_4">
     <g id="line2d_9">
      <g>
       <use xlink:href="#me69fa29d17" x="55.584" y="82.083902" style="stroke: #000000; stroke-width: 0.8"/>
      </g>
     </g>
     <g id="text_9">
      <!-- 30 -->
      <g transform="translate(35.859 85.88312) scale(0.1 -0.1)">
       <defs>
        <path id="DejaVuSans-33" d="M 2597 2516 
Q 3050 2419 3304 2112 
Q 3559 1806 3559 1356 
Q 3559 666 3084 287 
Q 2609 -91 1734 -91 
Q 1441 -91 1130 -33 
Q 819 25 488 141 
L 488 750 
Q 750 597 1062 519 
Q 1375 441 1716 441 
Q 2309 441 2620 675 
Q 2931 909 2931 1356 
Q 2931 1769 2642 2001 
Q 2353 2234 1838 2234 
L 1294 2234 
L 1294 2753 
L 1863 2753 
Q 2328 2753 2575 2939 
Q 2822 3125 2822 3475 
Q 2822 3834 2567 4026 
Q 2313 4219 1838 4219 
Q 1578 4219 1281 4162 
Q 984 4106 628 3988 
L 628 4550 
Q 988 4650 1302 4700 
Q 1616 4750 1894 4750 
Q 2613 4750 3031 4423 
Q 3450 4097 3450 3541 
Q 3450 3153 3228 2886 
Q 3006 2619 2597 2516 
z
" transform="scale(0.015625)"/>
       </defs>
       <use xlink:href="#DejaVuSans-33"/>
       <use xlink:href="#DejaVuSans-30" x="63.623047"/>
      </g>
     </g>
    </g>
    <g id="ytick_5">
     <g id="line2d_10">
      <g>
       <use xlink:href="#me69fa29d17" x="55.584" y="59.373874" style="stroke: #000000; stroke-width: 0.8"/>
      </g>
     </g>
     <g id="text_10">
      <!-- 40 -->
      <g transform="translate(35.859 63.173093) scale(0.1 -0.1)">
       <defs>
        <path id="DejaVuSans-34" d="M 2419 4116 
L 825 1625 
L 2419 1625 
L 2419 4116 
z
M 2253 4666 
L 3047 4666 
L 3047 1625 
L 3713 1625 
L 3713 1100 
L 3047 1100 
L 3047 0 
L 2419 0 
L 2419 1100 
L 313 1100 
L 313 1709 
L 2253 4666 
z
" transform="scale(0.015625)"/>
       </defs>
       <use xlink:href="#DejaVuSans-34"/>
       <use xlink:href="#DejaVuSans-30" x="63.623047"/>
      </g>
     </g>
    </g>
   </g>
   <g id="line2d_11">
    <path d="M 62.962512 48.606819 
L 63.735131 46.8 
L 64.507751 46.90991 
L 65.28037 50.294941 
L 66.052989 55.375402 
L 66.825608 55.309375 
L 67.598227 51.753716 
L 68.370846 54.780894 
L 69.143465 58.481681 
L 69.916084 58.004444 
L 70.688703 56.723165 
L 71.461322 59.603277 
L 72.233942 61.625571 
L 73.006561 61.274683 
L 73.77918 62.303375 
L 74.551799 62.512262 
L 75.324418 65.598702 
L 76.097037 67.267991 
L 76.869656 60.113531 
L 77.642275 64.59468 
L 78.414894 67.057285 
L 79.187513 68.342148 
L 79.960133 70.322992 
L 80.732752 68.891785 
L 81.505371 74.372344 
L 82.27799 77.029905 
L 83.050609 82.096753 
L 83.823228 75.290826 
L 84.595847 77.509614 
L 85.368466 79.269573 
L 86.141085 78.530795 
L 86.913704 78.256678 
L 87.686324 86.928184 
L 88.458943 87.673641 
L 89.231562 91.79587 
L 90.004181 79.879273 
L 90.7768 75.878116 
L 91.549419 68.606734 
L 92.322038 71.048552 
L 93.094657 76.412206 
L 93.867276 79.899111 
L 94.639895 73.627675 
L 95.412515 72.046208 
L 96.185134 81.631665 
L 96.957753 84.60027 
L 97.730372 84.690879 
L 98.502991 92.227549 
L 99.27561 91.997394 
L 100.048229 94.770197 
L 100.820848 93.480972 
L 101.593467 89.676193 
L 103.138706 97.820418 
L 103.911325 102.944828 
L 104.683944 109.587709 
L 105.456563 118.541067 
L 106.229182 121.745695 
L 107.001801 127.78507 
L 107.77442 130.606545 
L 108.547039 129.269638 
L 109.319658 126.238792 
L 110.092277 115.502068 
L 110.864897 111.610048 
L 111.637516 105.444712 
L 112.410135 109.345856 
L 113.182754 103.397308 
L 114.727992 92.802744 
L 115.500611 94.291393 
L 116.27323 93.954133 
L 117.045849 90.315428 
L 117.818468 90.965057 
L 118.591088 91.296808 
L 119.363707 88.573569 
L 120.136326 93.852285 
L 120.908945 96.245457 
L 121.681564 88.250108 
L 122.454183 86.044969 
L 123.226802 87.560272 
L 123.999421 88.116218 
L 124.77204 93.18695 
L 125.544659 99.90049 
L 127.089898 99.423614 
L 127.862517 106.67976 
L 128.635136 104.559545 
L 129.407755 109.910237 
L 130.952993 130.69174 
L 132.498231 132.960129 
L 133.27085 132.429016 
L 134.04347 138.067082 
L 134.816089 142.209909 
L 135.588708 146.981086 
L 136.361327 144.773976 
L 137.133946 146.956041 
L 137.906565 147.6 
L 138.679184 145.894295 
L 139.451803 138.067307 
L 140.224422 139.409683 
L 140.997041 130.979544 
L 141.769661 128.71502 
L 142.54228 125.649891 
L 143.314899 124.475817 
L 144.087518 124.834817 
L 144.860137 113.141101 
L 145.632756 118.364428 
L 146.405375 125.064754 
L 147.177994 120.146827 
L 147.950613 122.736672 
L 148.723232 119.709025 
L 149.495851 120.203302 
L 150.268471 118.861914 
L 151.04109 118.813022 
L 151.813709 121.530905 
L 152.586328 125.299021 
L 153.358947 129.774445 
L 154.131566 130.563001 
L 154.904185 124.113989 
L 156.449423 130.310404 
L 157.222042 140.467955 
L 157.994662 146.455276 
L 158.767281 139.506412 
L 159.5399 141.344714 
L 160.312519 142.141945 
L 161.085138 142.674204 
L 161.857757 145.018953 
L 162.630376 144.356997 
L 163.402995 143.497949 
L 164.175614 142.317716 
L 164.948233 144.24049 
L 165.720853 143.534621 
L 166.493472 139.819395 
L 167.266091 139.180296 
L 168.03871 138.787792 
L 168.811329 137.698626 
L 169.583948 140.536875 
L 170.356567 141.301937 
L 171.129186 138.649599 
L 171.901805 136.47513 
L 172.674424 137.963102 
L 173.447044 142.920036 
L 174.219663 146.822257 
L 174.992282 142.790391 
L 175.764901 140.145084 
L 176.53752 140.007958 
L 177.310139 138.133125 
L 178.082758 137.811658 
L 178.855377 136.975806 
L 179.627996 135.344691 
L 180.400615 129.715592 
L 181.173235 122.376727 
L 181.945854 117.548082 
L 182.718473 107.528443 
L 183.491092 114.047729 
L 184.263711 111.534188 
L 185.03633 108.639456 
L 185.808949 104.537405 
L 186.581568 93.214452 
L 187.354187 85.466571 
L 188.126806 78.951246 
L 188.899426 68.426991 
L 189.672045 90.259423 
L 190.444664 104.790263 
L 191.217283 107.58587 
L 191.989902 114.13705 
L 192.762521 122.097271 
L 193.53514 126.84177 
L 194.307759 133.018459 
L 195.080378 123.542671 
L 195.852997 130.086318 
L 196.625617 130.688908 
L 197.398236 130.482857 
L 198.170855 132.858949 
L 198.943474 129.656987 
L 199.716093 130.042069 
L 200.488712 124.472935 
L 202.03395 129.22169 
L 202.806569 133.988809 
L 203.579188 133.318806 
L 204.351808 129.712383 
L 205.124427 130.908768 
L 205.897046 130.466967 
L 206.669665 130.504627 
L 208.214903 131.95176 
L 208.987522 131.230953 
L 209.760141 136.338434 
L 210.53276 135.269382 
L 210.53276 135.269382 
" clip-path="url(#p43ba56b74e)" style="fill: none; stroke: #008000; stroke-width: 1.5; stroke-linecap: square"/>
   </g>
   <g id="patch_3">
    <path d="M 55.584 152.64 
L 55.584 41.76 
" style="fill: none; stroke: #000000; stroke-width: 0.8; stroke-linejoin: miter; stroke-linecap: square"/>
   </g>
   <g id="patch_4">
    <path d="M 217.911273 152.64 
L 217.911273 41.76 
" style="fill: none; stroke: #000000; stroke-width: 0.8; stroke-linejoin: miter; stroke-linecap: square"/>
   </g>
   <g id="patch_5">
    <path d="M 55.584 152.64 
L 217.911273 152.64 
" style="fill: none; stroke: #000000; stroke-width: 0.8; stroke-linejoin: miter; stroke-linecap: square"/>
   </g>
   <g id="patch_6">
    <path d="M 55.584 41.76 
L 217.911273 41.76 
" style="fill: none; stroke: #000000; stroke-width: 0.8; stroke-linejoin: miter; stroke-linecap: square"/>
   </g>
   <g id="text_11">
    <!-- No Prediction (FOSS) -->
    <g transform="translate(74.495761 35.76) scale(0.12 -0.12)">
     <defs>
      <path id="DejaVuSans-4e" d="M 628 4666 
L 1478 4666 
L 3547 763 
L 3547 4666 
L 4159 4666 
L 4159 0 
L 3309 0 
L 1241 3903 
L 1241 0 
L 628 0 
L 628 4666 
z
" transform="scale(0.015625)"/>
      <path id="DejaVuSans-6f" d="M 1959 3097 
Q 1497 3097 1228 2736 
Q 959 2375 959 1747 
Q 959 1119 1226 758 
Q 1494 397 1959 397 
Q 2419 397 2687 759 
Q 2956 1122 2956 1747 
Q 2956 2369 2687 2733 
Q 2419 3097 1959 3097 
z
M 1959 3584 
Q 2709 3584 3137 3096 
Q 3566 2609 3566 1747 
Q 3566 888 3137 398 
Q 2709 -91 1959 -91 
Q 1206 -91 779 398 
Q 353 888 353 1747 
Q 353 2609 779 3096 
Q 1206 3584 1959 3584 
z
" transform="scale(0.015625)"/>
      <path id="DejaVuSans-20" transform="scale(0.015625)"/>
      <path id="DejaVuSans-50" d="M 1259 4147 
L 1259 2394 
L 2053 2394 
Q 2494 2394 2734 2622 
Q 2975 2850 2975 3272 
Q 2975 3691 2734 3919 
Q 2494 4147 2053 4147 
L 1259 4147 
z
M 628 4666 
L 2053 4666 
Q 2838 4666 3239 4311 
Q 3641 3956 3641 3272 
Q 3641 2581 3239 2228 
Q 2838 1875 2053 1875 
L 1259 1875 
L 1259 0 
L 628 0 
L 628 4666 
z
" transform="scale(0.015625)"/>
      <path id="DejaVuSans-72" d="M 2631 2963 
Q 2534 3019 2420 3045 
Q 2306 3072 2169 3072 
Q 1681 3072 1420 2755 
Q 1159 2438 1159 1844 
L 1159 0 
L 581 0 
L 581 3500 
L 1159 3500 
L 1159 2956 
Q 1341 3275 1631 3429 
Q 1922 3584 2338 3584 
Q 2397 3584 2469 3576 
Q 2541 3569 2628 3553 
L 2631 2963 
z
" transform="scale(0.015625)"/>
      <path id="DejaVuSans-65" d="M 3597 1894 
L 3597 1613 
L 953 1613 
Q 991 1019 1311 708 
Q 1631 397 2203 397 
Q 2534 397 2845 478 
Q 3156 559 3463 722 
L 3463 178 
Q 3153 47 2828 -22 
Q 2503 -91 2169 -91 
Q 1331 -91 842 396 
Q 353 884 353 1716 
Q 353 2575 817 3079 
Q 1281 3584 2069 3584 
Q 2775 3584 3186 3129 
Q 3597 2675 3597 1894 
z
M 3022 2063 
Q 3016 2534 2758 2815 
Q 2500 3097 2075 3097 
Q 1594 3097 1305 2825 
Q 1016 2553 972 2059 
L 3022 2063 
z
" transform="scale(0.015625)"/>
      <path id="DejaVuSans-64" d="M 2906 2969 
L 2906 4863 
L 3481 4863 
L 3481 0 
L 2906 0 
L 2906 525 
Q 2725 213 2448 61 
Q 2172 -91 1784 -91 
Q 1150 -91 751 415 
Q 353 922 353 1747 
Q 353 2572 751 3078 
Q 1150 3584 1784 3584 
Q 2172 3584 2448 3432 
Q 2725 3281 2906 2969 
z
M 947 1747 
Q 947 1113 1208 752 
Q 1469 391 1925 391 
Q 2381 391 2643 752 
Q 2906 1113 2906 1747 
Q 2906 2381 2643 2742 
Q 2381 3103 1925 3103 
Q 1469 3103 1208 2742 
Q 947 2381 947 1747 
z
" transform="scale(0.015625)"/>
      <path id="DejaVuSans-69" d="M 603 3500 
L 1178 3500 
L 1178 0 
L 603 0 
L 603 3500 
z
M 603 4863 
L 1178 4863 
L 1178 4134 
L 603 4134 
L 603 4863 
z
" transform="scale(0.015625)"/>
      <path id="DejaVuSans-63" d="M 3122 3366 
L 3122 2828 
Q 2878 2963 2633 3030 
Q 2388 3097 2138 3097 
Q 1578 3097 1268 2742 
Q 959 2388 959 1747 
Q 959 1106 1268 751 
Q 1578 397 2138 397 
Q 2388 397 2633 464 
Q 2878 531 3122 666 
L 3122 134 
Q 2881 22 2623 -34 
Q 2366 -91 2075 -91 
Q 1284 -91 818 406 
Q 353 903 353 1747 
Q 353 2603 823 3093 
Q 1294 3584 2113 3584 
Q 2378 3584 2631 3529 
Q 2884 3475 3122 3366 
z
" transform="scale(0.015625)"/>
      <path id="DejaVuSans-74" d="M 1172 4494 
L 1172 3500 
L 2356 3500 
L 2356 3053 
L 1172 3053 
L 1172 1153 
Q 1172 725 1289 603 
Q 1406 481 1766 481 
L 2356 481 
L 2356 0 
L 1766 0 
Q 1100 0 847 248 
Q 594 497 594 1153 
L 594 3053 
L 172 3053 
L 172 3500 
L 594 3500 
L 594 4494 
L 1172 4494 
z
" transform="scale(0.015625)"/>
      <path id="DejaVuSans-6e" d="M 3513 2113 
L 3513 0 
L 2938 0 
L 2938 2094 
Q 2938 2591 2744 2837 
Q 2550 3084 2163 3084 
Q 1697 3084 1428 2787 
Q 1159 2491 1159 1978 
L 1159 0 
L 581 0 
L 581 3500 
L 1159 3500 
L 1159 2956 
Q 1366 3272 1645 3428 
Q 1925 3584 2291 3584 
Q 2894 3584 3203 3211 
Q 3513 2838 3513 2113 
z
" transform="scale(0.015625)"/>
      <path id="DejaVuSans-28" d="M 1984 4856 
Q 1566 4138 1362 3434 
Q 1159 2731 1159 2009 
Q 1159 1288 1364 580 
Q 1569 -128 1984 -844 
L 1484 -844 
Q 1016 -109 783 600 
Q 550 1309 550 2009 
Q 550 2706 781 3412 
Q 1013 4119 1484 4856 
L 1984 4856 
z
" transform="scale(0.015625)"/>
      <path id="DejaVuSans-46" d="M 628 4666 
L 3309 4666 
L 3309 4134 
L 1259 4134 
L 1259 2759 
L 3109 2759 
L 3109 2228 
L 1259 2228 
L 1259 0 
L 628 0 
L 628 4666 
z
" transform="scale(0.015625)"/>
      <path id="DejaVuSans-4f" d="M 2522 4238 
Q 1834 4238 1429 3725 
Q 1025 3213 1025 2328 
Q 1025 1447 1429 934 
Q 1834 422 2522 422 
Q 3209 422 3611 934 
Q 4013 1447 4013 2328 
Q 4013 3213 3611 3725 
Q 3209 4238 2522 4238 
z
M 2522 4750 
Q 3503 4750 4090 4092 
Q 4678 3434 4678 2328 
Q 4678 1225 4090 567 
Q 3503 -91 2522 -91 
Q 1538 -91 948 565 
Q 359 1222 359 2328 
Q 359 3434 948 4092 
Q 1538 4750 2522 4750 
z
" transform="scale(0.015625)"/>
      <path id="DejaVuSans-53" d="M 3425 4513 
L 3425 3897 
Q 3066 4069 2747 4153 
Q 2428 4238 2131 4238 
Q 1616 4238 1336 4038 
Q 1056 3838 1056 3469 
Q 1056 3159 1242 3001 
Q 1428 2844 1947 2747 
L 2328 2669 
Q 3034 2534 3370 2195 
Q 3706 1856 3706 1288 
Q 3706 609 3251 259 
Q 2797 -91 1919 -91 
Q 1588 -91 1214 -16 
Q 841 59 441 206 
L 441 856 
Q 825 641 1194 531 
Q 1563 422 1919 422 
Q 2459 422 2753 634 
Q 3047 847 3047 1241 
Q 3047 1584 2836 1778 
Q 2625 1972 2144 2069 
L 1759 2144 
Q 1053 2284 737 2584 
Q 422 2884 422 3419 
Q 422 4038 858 4394 
Q 1294 4750 2059 4750 
Q 2388 4750 2728 4690 
Q 3069 4631 3425 4513 
z
" transform="scale(0.015625)"/>
      <path id="DejaVuSans-29" d="M 513 4856 
L 1013 4856 
Q 1481 4119 1714 3412 
Q 1947 2706 1947 2009 
Q 1947 1309 1714 600 
Q 1481 -109 1013 -844 
L 513 -844 
Q 928 -128 1133 580 
Q 1338 1288 1338 2009 
Q 1338 2731 1133 3434 
Q 928 4138 513 4856 
z
" transform="scale(0.015625)"/>
     </defs>
     <use xlink:href="#DejaVuSans-4e"/>
     <use xlink:href="#DejaVuSans-6f" x="74.804688"/>
     <use xlink:href="#DejaVuSans-20" x="135.986328"/>
     <use xlink:href="#DejaVuSans-50" x="167.773438"/>
     <use xlink:href="#DejaVuSans-72" x="226.326172"/>
     <use xlink:href="#DejaVuSans-65" x="265.189453"/>
     <use xlink:href="#DejaVuSans-64" x="326.712891"/>
     <use xlink:href="#DejaVuSans-69" x="390.189453"/>
     <use xlink:href="#DejaVuSans-63" x="417.972656"/>
     <use xlink:href="#DejaVuSans-74" x="472.953125"/>
     <use xlink:href="#DejaVuSans-69" x="512.162109"/>
     <use xlink:href="#DejaVuSans-6f" x="539.945312"/>
     <use xlink:href="#DejaVuSans-6e" x="601.126953"/>
     <use xlink:href="#DejaVuSans-20" x="664.505859"/>
     <use xlink:href="#DejaVuSans-28" x="696.292969"/>
     <use xlink:href="#DejaVuSans-46" x="735.306641"/>
     <use xlink:href="#DejaVuSans-4f" x="792.826172"/>
     <use xlink:href="#DejaVuSans-53" x="871.537109"/>
     <use xlink:href="#DejaVuSans-53" x="935.013672"/>
     <use xlink:href="#DejaVuSans-29" x="998.490234"/>
    </g>
   </g>
  </g>
  <g id="axes_2">
   <g id="patch_7">
    <path d="M 250.376727 152.64 
L 412.704 152.64 
L 412.704 41.76 
L 250.376727 41.76 
z
" style="fill: #ffffff"/>
   </g>
   <g id="matplotlib.axis_3">
    <g id="xtick_6">
     <g id="line2d_12">
      <g>
       <use xlink:href="#m021e4ce253" x="257.75524" y="152.64" style="stroke: #000000; stroke-width: 0.8"/>
      </g>
     </g>
     <g id="text_12">
      <!-- 0 -->
      <g transform="translate(254.57399 167.238437) scale(0.1 -0.1)">
       <use xlink:href="#DejaVuSans-30"/>
      </g>
     </g>
    </g>
    <g id="xtick_7">
     <g id="line2d_13">
      <g>
       <use xlink:href="#m021e4ce253" x="296.386195" y="152.64" style="stroke: #000000; stroke-width: 0.8"/>
      </g>
     </g>
     <g id="text_13">
      <!-- 50 -->
      <g transform="translate(290.023695 167.238437) scale(0.1 -0.1)">
       <use xlink:href="#DejaVuSans-35"/>
       <use xlink:href="#DejaVuSans-30" x="63.623047"/>
      </g>
     </g>
    </g>
    <g id="xtick_8">
     <g id="line2d_14">
      <g>
       <use xlink:href="#m021e4ce253" x="335.01715" y="152.64" style="stroke: #000000; stroke-width: 0.8"/>
      </g>
     </g>
     <g id="text_14">
      <!-- 100 -->
      <g transform="translate(325.4734 167.238437) scale(0.1 -0.1)">
       <use xlink:href="#DejaVuSans-31"/>
       <use xlink:href="#DejaVuSans-30" x="63.623047"/>
       <use xlink:href="#DejaVuSans-30" x="127.246094"/>
      </g>
     </g>
    </g>
    <g id="xtick_9">
     <g id="line2d_15">
      <g>
       <use xlink:href="#m021e4ce253" x="373.648105" y="152.64" style="stroke: #000000; stroke-width: 0.8"/>
      </g>
     </g>
     <g id="text_15">
      <!-- 150 -->
      <g transform="translate(364.104355 167.238437) scale(0.1 -0.1)">
       <use xlink:href="#DejaVuSans-31"/>
       <use xlink:href="#DejaVuSans-35" x="63.623047"/>
       <use xlink:href="#DejaVuSans-30" x="127.246094"/>
      </g>
     </g>
    </g>
    <g id="xtick_10">
     <g id="line2d_16">
      <g>
       <use xlink:href="#m021e4ce253" x="412.279059" y="152.64" style="stroke: #000000; stroke-width: 0.8"/>
      </g>
     </g>
     <g id="text_16">
      <!-- 200 -->
      <g transform="translate(402.735309 167.238437) scale(0.1 -0.1)">
       <use xlink:href="#DejaVuSans-32"/>
       <use xlink:href="#DejaVuSans-30" x="63.623047"/>
       <use xlink:href="#DejaVuSans-30" x="127.246094"/>
      </g>
     </g>
    </g>
   </g>
   <g id="matplotlib.axis_4">
    <g id="ytick_6">
     <g id="line2d_17">
      <g>
       <use xlink:href="#me69fa29d17" x="250.376727" y="147.6" style="stroke: #000000; stroke-width: 0.8"/>
      </g>
     </g>
     <g id="text_17">
      <!-- 0 -->
      <g transform="translate(237.014227 151.399219) scale(0.1 -0.1)">
       <use xlink:href="#DejaVuSans-30"/>
      </g>
     </g>
    </g>
    <g id="ytick_7">
     <g id="line2d_18">
      <g>
       <use xlink:href="#me69fa29d17" x="250.376727" y="103.337908" style="stroke: #000000; stroke-width: 0.8"/>
      </g>
     </g>
     <g id="text_18">
      <!-- 20 -->
      <g transform="translate(230.651727 107.137127) scale(0.1 -0.1)">
       <use xlink:href="#DejaVuSans-32"/>
       <use xlink:href="#DejaVuSans-30" x="63.623047"/>
      </g>
     </g>
    </g>
    <g id="ytick_8">
     <g id="line2d_19">
      <g>
       <use xlink:href="#me69fa29d17" x="250.376727" y="59.075817" style="stroke: #000000; stroke-width: 0.8"/>
      </g>
     </g>
     <g id="text_19">
      <!-- 40 -->
      <g transform="translate(230.651727 62.875035) scale(0.1 -0.1)">
       <use xlink:href="#DejaVuSans-34"/>
       <use xlink:href="#DejaVuSans-30" x="63.623047"/>
      </g>
     </g>
    </g>
   </g>
   <g id="line2d_20">
    <path d="M 257.75524 48.564291 
L 258.527859 46.8 
L 259.300478 46.932758 
L 260.073097 50.229186 
L 260.845716 55.179845 
L 261.618335 55.107793 
L 262.390954 51.636992 
L 263.163573 54.568519 
L 263.936192 58.223373 
L 264.708812 57.760839 
L 265.481431 56.485083 
L 266.25405 59.3053 
L 267.026669 108.798624 
L 267.799288 123.810657 
L 268.571907 119.966078 
L 269.344526 120.535369 
L 270.889764 133.872252 
L 271.662383 136.159354 
L 272.435003 125.479245 
L 273.207622 127.522211 
L 273.980241 134.654832 
L 274.75286 137.396444 
L 275.525479 136.215615 
L 276.298098 73.675592 
L 277.070717 76.272668 
L 277.843336 81.224087 
L 278.615955 74.568374 
L 279.388574 76.748639 
L 280.161194 78.469878 
L 280.933813 77.715779 
L 281.706432 77.468249 
L 282.479051 85.932317 
L 283.25167 86.679135 
L 284.024289 90.68557 
L 284.796908 79.055658 
L 285.569527 134.126159 
L 286.342146 107.573293 
L 287.114765 130.36626 
L 287.887385 142.688703 
L 288.660004 145.282621 
L 289.432623 145.741293 
L 290.205242 143.617412 
L 290.977861 147.6 
L 292.523099 147.6 
L 293.295718 140.011955 
L 294.068337 136.690209 
L 294.840956 93.578825 
L 295.613576 92.305332 
L 296.386195 88.606464 
L 297.931433 96.501365 
L 298.704052 101.543127 
L 299.476671 108.020736 
L 300.24929 116.737236 
L 301.021909 119.863818 
L 301.794528 125.737884 
L 302.567147 128.489647 
L 303.339767 127.180678 
L 304.112386 147.6 
L 307.975481 147.6 
L 308.7481 147.173382 
L 309.520719 147.6 
L 312.611196 147.6 
L 313.383815 90.183454 
L 314.156434 87.53826 
L 314.929053 92.663461 
L 315.701672 95.033831 
L 316.474291 87.086862 
L 317.24691 85.106127 
L 318.019529 86.542439 
L 318.792149 87.081318 
L 319.564768 92.050564 
L 320.337387 98.555963 
L 321.882625 98.111093 
L 322.655244 147.6 
L 323.427863 143.508713 
L 324.200482 147.6 
L 331.154054 147.6 
L 331.926673 144.430553 
L 332.699292 145.050937 
L 333.471911 143.394895 
L 334.24453 135.746822 
L 335.01715 137.060067 
L 335.789769 128.863002 
L 336.562388 126.670497 
L 337.335007 123.300495 
L 338.107626 122.514362 
L 338.880245 122.686283 
L 339.652864 111.460949 
L 340.425483 116.600061 
L 341.198102 141.394674 
L 341.970721 142.566619 
L 342.743341 147.6 
L 345.061198 147.6 
L 345.833817 145.663317 
L 346.606436 142.055275 
L 347.379055 147.6 
L 349.696912 147.6 
L 350.469532 125.071919 
L 351.242151 128.187713 
L 352.01477 137.568145 
L 352.787389 143.936338 
L 353.560008 137.174168 
L 354.332627 138.949443 
L 355.105246 139.738929 
L 355.877865 140.23608 
L 356.650484 142.541795 
L 357.423103 141.884865 
L 358.195723 141.065829 
L 358.968342 139.902822 
L 359.740961 147.6 
L 360.51358 147.588545 
L 361.286199 144.798539 
L 362.058818 147.6 
L 362.831437 144.05703 
L 363.604056 141.871576 
L 364.376675 147.6 
L 365.149294 147.6 
L 365.921914 146.640289 
L 366.694533 147.6 
L 368.239771 147.6 
L 369.01239 144.296846 
L 369.785009 140.364035 
L 370.557628 137.788199 
L 371.330247 137.655344 
L 372.102866 135.834094 
L 372.875485 135.502174 
L 373.648105 134.725747 
L 374.420724 133.117846 
L 375.193343 127.62959 
L 375.965962 120.504354 
L 376.738581 115.76571 
L 377.5112 105.986098 
L 378.283819 143.915905 
L 379.056438 142.504774 
L 379.829057 146.570229 
L 380.601676 144.656547 
L 381.374296 140.046723 
L 382.146915 147.6 
L 382.919534 147.6 
L 383.692153 145.234833 
L 384.464772 146.872044 
L 385.237391 147.262732 
L 386.01001 147.328333 
L 386.782629 143.128216 
L 387.555248 120.179422 
L 388.327867 124.830489 
L 389.100487 130.838798 
L 389.873106 121.602322 
L 390.645725 127.972493 
L 391.418344 128.568069 
L 392.190963 128.372718 
L 392.963582 130.670954 
L 393.736201 127.572247 
L 394.50882 127.926669 
L 395.281439 122.5069 
L 396.054058 124.637108 
L 396.826678 138.338188 
L 397.599297 147.6 
L 405.325488 147.6 
L 405.325488 147.6 
" clip-path="url(#p0786f3e91b)" style="fill: none; stroke: #0000ff; stroke-width: 1.5; stroke-linecap: square"/>
   </g>
   <g id="patch_8">
    <path d="M 250.376727 152.64 
L 250.376727 41.76 
" style="fill: none; stroke: #000000; stroke-width: 0.8; stroke-linejoin: miter; stroke-linecap: square"/>
   </g>
   <g id="patch_9">
    <path d="M 412.704 152.64 
L 412.704 41.76 
" style="fill: none; stroke: #000000; stroke-width: 0.8; stroke-linejoin: miter; stroke-linecap: square"/>
   </g>
   <g id="patch_10">
    <path d="M 250.376727 152.64 
L 412.704 152.64 
" style="fill: none; stroke: #000000; stroke-width: 0.8; stroke-linejoin: miter; stroke-linecap: square"/>
   </g>
   <g id="patch_11">
    <path d="M 250.376727 41.76 
L 412.704 41.76 
" style="fill: none; stroke: #000000; stroke-width: 0.8; stroke-linejoin: miter; stroke-linecap: square"/>
   </g>
   <g id="text_20">
    <!-- RNN -->
    <g transform="translate(318.393801 35.76) scale(0.12 -0.12)">
     <defs>
      <path id="DejaVuSans-52" d="M 2841 2188 
Q 3044 2119 3236 1894 
Q 3428 1669 3622 1275 
L 4263 0 
L 3584 0 
L 2988 1197 
Q 2756 1666 2539 1819 
Q 2322 1972 1947 1972 
L 1259 1972 
L 1259 0 
L 628 0 
L 628 4666 
L 2053 4666 
Q 2853 4666 3247 4331 
Q 3641 3997 3641 3322 
Q 3641 2881 3436 2590 
Q 3231 2300 2841 2188 
z
M 1259 4147 
L 1259 2491 
L 2053 2491 
Q 2509 2491 2742 2702 
Q 2975 2913 2975 3322 
Q 2975 3731 2742 3939 
Q 2509 4147 2053 4147 
L 1259 4147 
z
" transform="scale(0.015625)"/>
     </defs>
     <use xlink:href="#DejaVuSans-52"/>
     <use xlink:href="#DejaVuSans-4e" x="69.482422"/>
     <use xlink:href="#DejaVuSans-4e" x="144.287109"/>
    </g>
   </g>
  </g>
  <g id="axes_3">
   <g id="patch_12">
    <path d="M 55.584 307.872 
L 217.911273 307.872 
L 217.911273 196.992 
L 55.584 196.992 
z
" style="fill: #ffffff"/>
   </g>
   <g id="matplotlib.axis_5">
    <g id="xtick_11">
     <g id="line2d_21">
      <g>
       <use xlink:href="#m021e4ce253" x="62.962512" y="307.872" style="stroke: #000000; stroke-width: 0.8"/>
      </g>
     </g>
     <g id="text_21">
      <!-- 0 -->
      <g transform="translate(59.781262 322.470437) scale(0.1 -0.1)">
       <use xlink:href="#DejaVuSans-30"/>
      </g>
     </g>
    </g>
    <g id="xtick_12">
     <g id="line2d_22">
      <g>
       <use xlink:href="#m021e4ce253" x="101.593467" y="307.872" style="stroke: #000000; stroke-width: 0.8"/>
      </g>
     </g>
     <g id="text_22">
      <!-- 50 -->
      <g transform="translate(95.230967 322.470437) scale(0.1 -0.1)">
       <use xlink:href="#DejaVuSans-35"/>
       <use xlink:href="#DejaVuSans-30" x="63.623047"/>
      </g>
     </g>
    </g>
    <g id="xtick_13">
     <g id="line2d_23">
      <g>
       <use xlink:href="#m021e4ce253" x="140.224422" y="307.872" style="stroke: #000000; stroke-width: 0.8"/>
      </g>
     </g>
     <g id="text_23">
      <!-- 100 -->
      <g transform="translate(130.680672 322.470437) scale(0.1 -0.1)">
       <use xlink:href="#DejaVuSans-31"/>
       <use xlink:href="#DejaVuSans-30" x="63.623047"/>
       <use xlink:href="#DejaVuSans-30" x="127.246094"/>
      </g>
     </g>
    </g>
    <g id="xtick_14">
     <g id="line2d_24">
      <g>
       <use xlink:href="#m021e4ce253" x="178.855377" y="307.872" style="stroke: #000000; stroke-width: 0.8"/>
      </g>
     </g>
     <g id="text_24">
      <!-- 150 -->
      <g transform="translate(169.311627 322.470437) scale(0.1 -0.1)">
       <use xlink:href="#DejaVuSans-31"/>
       <use xlink:href="#DejaVuSans-35" x="63.623047"/>
       <use xlink:href="#DejaVuSans-30" x="127.246094"/>
      </g>
     </g>
    </g>
    <g id="xtick_15">
     <g id="line2d_25">
      <g>
       <use xlink:href="#m021e4ce253" x="217.486332" y="307.872" style="stroke: #000000; stroke-width: 0.8"/>
      </g>
     </g>
     <g id="text_25">
      <!-- 200 -->
      <g transform="translate(207.942582 322.470437) scale(0.1 -0.1)">
       <use xlink:href="#DejaVuSans-32"/>
       <use xlink:href="#DejaVuSans-30" x="63.623047"/>
       <use xlink:href="#DejaVuSans-30" x="127.246094"/>
      </g>
     </g>
    </g>
   </g>
   <g id="matplotlib.axis_6">
    <g id="ytick_9">
     <g id="line2d_26">
      <g>
       <use xlink:href="#me69fa29d17" x="55.584" y="302.832" style="stroke: #000000; stroke-width: 0.8"/>
      </g>
     </g>
     <g id="text_26">
      <!-- 0 -->
      <g transform="translate(42.2215 306.631219) scale(0.1 -0.1)">
       <use xlink:href="#DejaVuSans-30"/>
      </g>
     </g>
    </g>
    <g id="ytick_10">
     <g id="line2d_27">
      <g>
       <use xlink:href="#me69fa29d17" x="55.584" y="258.569908" style="stroke: #000000; stroke-width: 0.8"/>
      </g>
     </g>
     <g id="text_27">
      <!-- 20 -->
      <g transform="translate(35.859 262.369127) scale(0.1 -0.1)">
       <use xlink:href="#DejaVuSans-32"/>
       <use xlink:href="#DejaVuSans-30" x="63.623047"/>
      </g>
     </g>
    </g>
    <g id="ytick_11">
     <g id="line2d_28">
      <g>
       <use xlink:href="#me69fa29d17" x="55.584" y="214.307817" style="stroke: #000000; stroke-width: 0.8"/>
      </g>
     </g>
     <g id="text_28">
      <!-- 40 -->
      <g transform="translate(35.859 218.107035) scale(0.1 -0.1)">
       <use xlink:href="#DejaVuSans-34"/>
       <use xlink:href="#DejaVuSans-30" x="63.623047"/>
      </g>
     </g>
    </g>
   </g>
   <g id="line2d_29">
    <path d="M 62.962512 203.796291 
L 63.735131 202.032 
L 64.507751 202.164758 
L 65.28037 205.461186 
L 66.052989 210.411845 
L 66.825608 210.339793 
L 67.598227 206.868992 
L 68.370846 209.800519 
L 69.143465 213.455373 
L 69.916084 212.992839 
L 70.688703 211.717083 
L 71.461322 214.5373 
L 72.233942 299.355633 
L 73.006561 294.687401 
L 73.77918 294.934873 
L 74.551799 296.072774 
L 75.324418 294.751143 
L 76.097037 294.499701 
L 76.869656 296.30748 
L 77.642275 298.930622 
L 78.414894 302.832 
L 79.187513 298.852269 
L 79.960133 298.928958 
L 80.732752 296.944726 
L 81.505371 228.907592 
L 82.27799 231.504668 
L 83.050609 236.456087 
L 83.823228 229.800374 
L 84.595847 231.980639 
L 85.368466 233.701878 
L 86.141085 232.947779 
L 86.913704 232.700249 
L 87.686324 241.164317 
L 88.458943 241.911135 
L 89.231562 245.91757 
L 90.004181 234.287658 
L 90.7768 300.373633 
L 91.549419 299.534273 
L 92.322038 302.832 
L 99.27561 302.832 
L 100.048229 248.810825 
L 100.820848 247.537332 
L 101.593467 243.838464 
L 103.138706 251.733365 
L 103.911325 256.775127 
L 104.683944 263.252736 
L 105.456563 271.969236 
L 106.229182 275.095818 
L 107.001801 280.969884 
L 107.77442 283.721647 
L 108.547039 282.412678 
L 109.319658 302.832 
L 112.410135 302.832 
L 113.182754 299.123525 
L 113.955373 298.361507 
L 114.727992 302.832 
L 115.500611 302.832 
L 116.27323 302.477284 
L 117.045849 302.832 
L 117.818468 302.832 
L 118.591088 245.415454 
L 119.363707 242.77026 
L 120.136326 247.895461 
L 120.908945 250.265831 
L 121.681564 242.318862 
L 122.454183 240.338127 
L 123.226802 241.774439 
L 123.999421 242.313318 
L 124.77204 247.282564 
L 125.544659 253.787963 
L 127.089898 253.343093 
L 127.862517 302.832 
L 136.361327 302.832 
L 137.133946 299.662553 
L 137.906565 300.282937 
L 138.679184 298.626895 
L 139.451803 290.978822 
L 140.224422 292.292067 
L 140.997041 284.095002 
L 141.769661 281.902497 
L 142.54228 278.532495 
L 143.314899 277.746362 
L 144.087518 277.918283 
L 144.860137 266.692949 
L 145.632756 271.832061 
L 146.405375 302.832 
L 149.495851 302.832 
L 150.268471 297.433937 
L 151.04109 299.051559 
L 151.813709 298.168577 
L 152.586328 301.475787 
L 153.358947 302.832 
L 154.904185 302.832 
L 155.676804 280.303919 
L 156.449423 283.419713 
L 157.222042 292.800145 
L 157.994662 299.168338 
L 158.767281 292.406168 
L 159.5399 294.181443 
L 160.312519 294.970929 
L 161.085138 295.46808 
L 161.857757 297.773795 
L 162.630376 297.116865 
L 163.402995 296.297829 
L 164.175614 295.134822 
L 164.948233 302.832 
L 165.720853 302.832 
L 166.493472 300.868728 
L 167.266091 299.863043 
L 168.03871 300.652856 
L 168.811329 295.430017 
L 169.583948 294.885673 
L 170.356567 297.171173 
L 171.129186 298.609264 
L 172.674424 302.832 
L 173.447044 302.832 
L 174.219663 299.528846 
L 174.992282 295.596035 
L 175.764901 293.020199 
L 176.53752 292.887344 
L 177.310139 291.066094 
L 178.082758 290.734174 
L 178.855377 289.957747 
L 179.627996 288.349846 
L 180.400615 282.86159 
L 181.173235 275.736354 
L 181.945854 270.99771 
L 182.718473 261.218098 
L 183.491092 300.142591 
L 184.263711 301.006538 
L 185.03633 299.573509 
L 185.808949 300.688635 
L 186.581568 293.837748 
L 187.354187 302.832 
L 188.126806 302.522756 
L 188.899426 299.430179 
L 189.672045 302.832 
L 191.989902 302.832 
L 192.762521 275.411422 
L 193.53514 280.062489 
L 194.307759 286.070798 
L 195.080378 276.834322 
L 195.852997 283.204493 
L 196.625617 283.800069 
L 197.398236 283.604718 
L 198.170855 285.902954 
L 198.943474 282.804247 
L 199.716093 283.158669 
L 200.488712 277.7389 
L 201.261331 279.869108 
L 202.03395 302.376627 
L 202.806569 302.832 
L 206.669665 302.832 
L 207.442284 299.069271 
L 208.214903 298.729464 
L 208.987522 299.085856 
L 209.760141 301.553591 
L 210.53276 302.832 
L 210.53276 302.832 
" clip-path="url(#p4c0660e8dc)" style="fill: none; stroke: #ffa500; stroke-width: 1.5; stroke-linecap: square"/>
   </g>
   <g id="patch_13">
    <path d="M 55.584 307.872 
L 55.584 196.992 
" style="fill: none; stroke: #000000; stroke-width: 0.8; stroke-linejoin: miter; stroke-linecap: square"/>
   </g>
   <g id="patch_14">
    <path d="M 217.911273 307.872 
L 217.911273 196.992 
" style="fill: none; stroke: #000000; stroke-width: 0.8; stroke-linejoin: miter; stroke-linecap: square"/>
   </g>
   <g id="patch_15">
    <path d="M 55.584 307.872 
L 217.911273 307.872 
" style="fill: none; stroke: #000000; stroke-width: 0.8; stroke-linejoin: miter; stroke-linecap: square"/>
   </g>
   <g id="patch_16">
    <path d="M 55.584 196.992 
L 217.911273 196.992 
" style="fill: none; stroke: #000000; stroke-width: 0.8; stroke-linejoin: miter; stroke-linecap: square"/>
   </g>
   <g id="text_29">
    <!-- VAE -->
    <g transform="translate(125.130136 190.992) scale(0.12 -0.12)">
     <defs>
      <path id="DejaVuSans-56" d="M 1831 0 
L 50 4666 
L 709 4666 
L 2188 738 
L 3669 4666 
L 4325 4666 
L 2547 0 
L 1831 0 
z
" transform="scale(0.015625)"/>
      <path id="DejaVuSans-41" d="M 2188 4044 
L 1331 1722 
L 3047 1722 
L 2188 4044 
z
M 1831 4666 
L 2547 4666 
L 4325 0 
L 3669 0 
L 3244 1197 
L 1141 1197 
L 716 0 
L 50 0 
L 1831 4666 
z
" transform="scale(0.015625)"/>
      <path id="DejaVuSans-45" d="M 628 4666 
L 3578 4666 
L 3578 4134 
L 1259 4134 
L 1259 2753 
L 3481 2753 
L 3481 2222 
L 1259 2222 
L 1259 531 
L 3634 531 
L 3634 0 
L 628 0 
L 628 4666 
z
" transform="scale(0.015625)"/>
     </defs>
     <use xlink:href="#DejaVuSans-56"/>
     <use xlink:href="#DejaVuSans-41" x="62.033203"/>
     <use xlink:href="#DejaVuSans-45" x="130.441406"/>
    </g>
   </g>
  </g>
  <g id="axes_4">
   <g id="patch_17">
    <path d="M 250.376727 307.872 
L 412.704 307.872 
L 412.704 196.992 
L 250.376727 196.992 
z
" style="fill: #ffffff"/>
   </g>
   <g id="matplotlib.axis_7">
    <g id="xtick_16">
     <g id="line2d_30">
      <g>
       <use xlink:href="#m021e4ce253" x="257.75524" y="307.872" style="stroke: #000000; stroke-width: 0.8"/>
      </g>
     </g>
     <g id="text_30">
      <!-- 0 -->
      <g transform="translate(254.57399 322.470437) scale(0.1 -0.1)">
       <use xlink:href="#DejaVuSans-30"/>
      </g>
     </g>
    </g>
    <g id="xtick_17">
     <g id="line2d_31">
      <g>
       <use xlink:href="#m021e4ce253" x="296.386195" y="307.872" style="stroke: #000000; stroke-width: 0.8"/>
      </g>
     </g>
     <g id="text_31">
      <!-- 50 -->
      <g transform="translate(290.023695 322.470437) scale(0.1 -0.1)">
       <use xlink:href="#DejaVuSans-35"/>
       <use xlink:href="#DejaVuSans-30" x="63.623047"/>
      </g>
     </g>
    </g>
    <g id="xtick_18">
     <g id="line2d_32">
      <g>
       <use xlink:href="#m021e4ce253" x="335.01715" y="307.872" style="stroke: #000000; stroke-width: 0.8"/>
      </g>
     </g>
     <g id="text_32">
      <!-- 100 -->
      <g transform="translate(325.4734 322.470437) scale(0.1 -0.1)">
       <use xlink:href="#DejaVuSans-31"/>
       <use xlink:href="#DejaVuSans-30" x="63.623047"/>
       <use xlink:href="#DejaVuSans-30" x="127.246094"/>
      </g>
     </g>
    </g>
    <g id="xtick_19">
     <g id="line2d_33">
      <g>
       <use xlink:href="#m021e4ce253" x="373.648105" y="307.872" style="stroke: #000000; stroke-width: 0.8"/>
      </g>
     </g>
     <g id="text_33">
      <!-- 150 -->
      <g transform="translate(364.104355 322.470437) scale(0.1 -0.1)">
       <use xlink:href="#DejaVuSans-31"/>
       <use xlink:href="#DejaVuSans-35" x="63.623047"/>
       <use xlink:href="#DejaVuSans-30" x="127.246094"/>
      </g>
     </g>
    </g>
    <g id="xtick_20">
     <g id="line2d_34">
      <g>
       <use xlink:href="#m021e4ce253" x="412.279059" y="307.872" style="stroke: #000000; stroke-width: 0.8"/>
      </g>
     </g>
     <g id="text_34">
      <!-- 200 -->
      <g transform="translate(402.735309 322.470437) scale(0.1 -0.1)">
       <use xlink:href="#DejaVuSans-32"/>
       <use xlink:href="#DejaVuSans-30" x="63.623047"/>
       <use xlink:href="#DejaVuSans-30" x="127.246094"/>
      </g>
     </g>
    </g>
   </g>
   <g id="matplotlib.axis_8">
    <g id="ytick_12">
     <g id="line2d_35">
      <g>
       <use xlink:href="#me69fa29d17" x="250.376727" y="302.832" style="stroke: #000000; stroke-width: 0.8"/>
      </g>
     </g>
     <g id="text_35">
      <!-- 0 -->
      <g transform="translate(237.014227 306.631219) scale(0.1 -0.1)">
       <use xlink:href="#DejaVuSans-30"/>
      </g>
     </g>
    </g>
    <g id="ytick_13">
     <g id="line2d_36">
      <g>
       <use xlink:href="#me69fa29d17" x="250.376727" y="258.560023" style="stroke: #000000; stroke-width: 0.8"/>
      </g>
     </g>
     <g id="text_36">
      <!-- 20 -->
      <g transform="translate(230.651727 262.359242) scale(0.1 -0.1)">
       <use xlink:href="#DejaVuSans-32"/>
       <use xlink:href="#DejaVuSans-30" x="63.623047"/>
      </g>
     </g>
    </g>
    <g id="ytick_14">
     <g id="line2d_37">
      <g>
       <use xlink:href="#me69fa29d17" x="250.376727" y="214.288046" style="stroke: #000000; stroke-width: 0.8"/>
      </g>
     </g>
     <g id="text_37">
      <!-- 40 -->
      <g transform="translate(230.651727 218.087265) scale(0.1 -0.1)">
       <use xlink:href="#DejaVuSans-34"/>
       <use xlink:href="#DejaVuSans-30" x="63.623047"/>
      </g>
     </g>
    </g>
   </g>
   <g id="line2d_38">
    <path d="M 257.75524 203.793148 
L 258.527859 202.032 
L 259.300478 202.139132 
L 260.073097 205.4386 
L 260.845716 210.390642 
L 261.618335 210.326284 
L 262.390954 206.860501 
L 263.163573 209.811162 
L 263.936192 213.418405 
L 264.708812 212.95323 
L 265.481431 211.704338 
L 266.25405 214.511651 
L 267.026669 239.215181 
L 267.799288 251.845846 
L 268.571907 253.995077 
L 269.344526 239.860465 
L 270.117145 212.471518 
L 270.889764 229.686384 
L 271.662383 232.401447 
L 272.435003 233.869716 
L 273.207622 246.990323 
L 273.980241 241.795613 
L 274.75286 239.707745 
L 275.525479 248.356537 
L 276.298098 228.907401 
L 277.070717 231.497788 
L 277.843336 236.436561 
L 278.615955 229.802667 
L 279.388574 231.965371 
L 280.161194 233.680843 
L 280.933813 232.96074 
L 281.706432 232.693552 
L 282.479051 241.145869 
L 283.25167 241.872483 
L 284.024289 245.890514 
L 284.796908 234.275133 
L 285.569527 234.035325 
L 286.342146 239.165942 
L 287.114765 248.365156 
L 288.660004 255.519249 
L 289.432623 257.629667 
L 290.205242 261.897178 
L 290.977861 249.699348 
L 291.75048 254.596685 
L 292.523099 251.731356 
L 293.295718 250.539039 
L 294.068337 252.424879 
L 294.840956 248.78966 
L 295.613576 247.533022 
L 296.386195 243.824416 
L 297.931433 251.76278 
L 298.704052 256.757662 
L 299.476671 263.232631 
L 300.24929 271.959676 
L 301.021909 275.083301 
L 301.794528 280.97002 
L 302.567147 283.720177 
L 303.339767 282.417062 
L 304.112386 283.228833 
L 304.885005 278.084618 
L 305.657624 275.708432 
L 306.430243 267.610997 
L 307.202862 271.125926 
L 307.975481 265.170002 
L 308.7481 265.351468 
L 309.520719 246.693092 
L 310.293338 265.494031 
L 311.065958 260.993268 
L 311.838577 245.875373 
L 312.611196 260.228563 
L 313.383815 245.404067 
L 314.156434 242.749663 
L 314.929053 247.89495 
L 315.701672 250.22763 
L 316.474291 242.434378 
L 317.24691 240.284978 
L 318.019529 241.76198 
L 318.792149 242.303873 
L 319.564768 247.246432 
L 320.337387 253.790275 
L 321.882625 253.325453 
L 322.655244 287.957468 
L 323.427863 280.971129 
L 324.200482 271.765364 
L 324.973101 277.781249 
L 325.74572 294.885665 
L 326.518339 298.967751 
L 327.290959 295.571746 
L 328.063578 287.915268 
L 328.836197 291.806115 
L 329.608816 293.512833 
L 330.381435 300.677912 
L 331.926673 299.656409 
L 332.699292 300.28409 
L 333.471911 298.6215 
L 334.24453 290.992354 
L 335.01715 292.300799 
L 335.789769 284.083747 
L 336.562388 281.876464 
L 337.335007 278.888812 
L 338.107626 277.744414 
L 338.880245 278.09434 
L 339.652864 266.696205 
L 340.425483 271.787502 
L 341.198102 273.144332 
L 341.970721 268.062252 
L 342.743341 286.659874 
L 343.51596 276.666695 
L 344.288579 282.75505 
L 345.061198 280.727852 
L 345.833817 282.245776 
L 346.606436 297.878023 
L 347.379055 292.308281 
L 348.151674 295.361385 
L 348.924293 299.257219 
L 349.696912 293.456227 
L 350.469532 280.303545 
L 351.242151 283.431522 
L 352.01477 293.332321 
L 352.787389 299.168301 
L 353.560008 292.395083 
L 354.332627 294.186918 
L 355.105246 294.963998 
L 355.877865 295.482803 
L 356.650484 297.768284 
L 357.423103 297.12306 
L 358.195723 296.285726 
L 358.968342 295.135326 
L 359.740961 302.07713 
L 360.51358 300.602406 
L 361.286199 301.194284 
L 362.058818 302.832 
L 362.831437 302.832 
L 363.604056 302.38306 
L 364.376675 302.832 
L 365.921914 302.832 
L 366.694533 300.654961 
L 367.467152 302.832 
L 368.239771 302.832 
L 369.01239 299.526006 
L 369.785009 295.596053 
L 370.557628 293.017611 
L 371.330247 292.883952 
L 372.102866 291.056509 
L 372.875485 290.743167 
L 373.648105 289.928443 
L 374.420724 288.338557 
L 375.193343 282.851745 
L 375.965962 275.698383 
L 376.738581 270.991791 
L 377.5112 261.225417 
L 378.283819 266.362744 
L 379.056438 284.570792 
L 379.829057 286.128128 
L 380.601676 276.505421 
L 381.374296 258.808643 
L 382.146915 263.479138 
L 382.919534 267.194331 
L 383.692153 267.653257 
L 384.464772 268.744616 
L 385.237391 284.172048 
L 386.01001 278.212356 
L 386.782629 277.988977 
L 387.555248 275.42599 
L 388.327867 280.050564 
L 389.100487 286.071125 
L 389.873106 276.834855 
L 390.645725 283.213099 
L 391.418344 283.800458 
L 392.190963 283.599616 
L 392.963582 285.915647 
L 393.736201 282.794621 
L 394.50882 283.169969 
L 395.281439 277.741605 
L 396.054058 279.901892 
L 396.826678 293.453298 
L 397.599297 287.97484 
L 398.371916 292.165942 
L 399.144535 295.020597 
L 399.917154 299.098245 
L 400.689773 295.691946 
L 401.462392 293.476913 
L 402.235011 293.25102 
L 403.00763 294.575708 
L 403.780249 292.787302 
L 404.552869 293.938008 
L 405.325488 291.45599 
L 405.325488 291.45599 
" clip-path="url(#p0ff85d5965)" style="fill: none; stroke: #ff0000; stroke-width: 1.5; stroke-linecap: square"/>
   </g>
   <g id="patch_18">
    <path d="M 250.376727 307.872 
L 250.376727 196.992 
" style="fill: none; stroke: #000000; stroke-width: 0.8; stroke-linejoin: miter; stroke-linecap: square"/>
   </g>
   <g id="patch_19">
    <path d="M 412.704 307.872 
L 412.704 196.992 
" style="fill: none; stroke: #000000; stroke-width: 0.8; stroke-linejoin: miter; stroke-linecap: square"/>
   </g>
   <g id="patch_20">
    <path d="M 250.376727 307.872 
L 412.704 307.872 
" style="fill: none; stroke: #000000; stroke-width: 0.8; stroke-linejoin: miter; stroke-linecap: square"/>
   </g>
   <g id="patch_21">
    <path d="M 250.376727 196.992 
L 412.704 196.992 
" style="fill: none; stroke: #000000; stroke-width: 0.8; stroke-linejoin: miter; stroke-linecap: square"/>
   </g>
   <g id="text_38">
    <!-- VRNN -->
    <g transform="translate(314.289426 190.992) scale(0.12 -0.12)">
     <use xlink:href="#DejaVuSans-56"/>
     <use xlink:href="#DejaVuSans-52" x="68.408203"/>
     <use xlink:href="#DejaVuSans-4e" x="137.890625"/>
     <use xlink:href="#DejaVuSans-4e" x="212.695312"/>
    </g>
   </g>
  </g>
  <g id="text_39">
   <!-- VMAF Scores Over Frames: Video #16 -->
   <g transform="translate(114.338063 16.318125) scale(0.12 -0.12)">
    <defs>
     <path id="DejaVuSans-4d" d="M 628 4666 
L 1569 4666 
L 2759 1491 
L 3956 4666 
L 4897 4666 
L 4897 0 
L 4281 0 
L 4281 4097 
L 3078 897 
L 2444 897 
L 1241 4097 
L 1241 0 
L 628 0 
L 628 4666 
z
" transform="scale(0.015625)"/>
     <path id="DejaVuSans-73" d="M 2834 3397 
L 2834 2853 
Q 2591 2978 2328 3040 
Q 2066 3103 1784 3103 
Q 1356 3103 1142 2972 
Q 928 2841 928 2578 
Q 928 2378 1081 2264 
Q 1234 2150 1697 2047 
L 1894 2003 
Q 2506 1872 2764 1633 
Q 3022 1394 3022 966 
Q 3022 478 2636 193 
Q 2250 -91 1575 -91 
Q 1294 -91 989 -36 
Q 684 19 347 128 
L 347 722 
Q 666 556 975 473 
Q 1284 391 1588 391 
Q 1994 391 2212 530 
Q 2431 669 2431 922 
Q 2431 1156 2273 1281 
Q 2116 1406 1581 1522 
L 1381 1569 
Q 847 1681 609 1914 
Q 372 2147 372 2553 
Q 372 3047 722 3315 
Q 1072 3584 1716 3584 
Q 2034 3584 2315 3537 
Q 2597 3491 2834 3397 
z
" transform="scale(0.015625)"/>
     <path id="DejaVuSans-76" d="M 191 3500 
L 800 3500 
L 1894 563 
L 2988 3500 
L 3597 3500 
L 2284 0 
L 1503 0 
L 191 3500 
z
" transform="scale(0.015625)"/>
     <path id="DejaVuSans-61" d="M 2194 1759 
Q 1497 1759 1228 1600 
Q 959 1441 959 1056 
Q 959 750 1161 570 
Q 1363 391 1709 391 
Q 2188 391 2477 730 
Q 2766 1069 2766 1631 
L 2766 1759 
L 2194 1759 
z
M 3341 1997 
L 3341 0 
L 2766 0 
L 2766 531 
Q 2569 213 2275 61 
Q 1981 -91 1556 -91 
Q 1019 -91 701 211 
Q 384 513 384 1019 
Q 384 1609 779 1909 
Q 1175 2209 1959 2209 
L 2766 2209 
L 2766 2266 
Q 2766 2663 2505 2880 
Q 2244 3097 1772 3097 
Q 1472 3097 1187 3025 
Q 903 2953 641 2809 
L 641 3341 
Q 956 3463 1253 3523 
Q 1550 3584 1831 3584 
Q 2591 3584 2966 3190 
Q 3341 2797 3341 1997 
z
" transform="scale(0.015625)"/>
     <path id="DejaVuSans-6d" d="M 3328 2828 
Q 3544 3216 3844 3400 
Q 4144 3584 4550 3584 
Q 5097 3584 5394 3201 
Q 5691 2819 5691 2113 
L 5691 0 
L 5113 0 
L 5113 2094 
Q 5113 2597 4934 2840 
Q 4756 3084 4391 3084 
Q 3944 3084 3684 2787 
Q 3425 2491 3425 1978 
L 3425 0 
L 2847 0 
L 2847 2094 
Q 2847 2600 2669 2842 
Q 2491 3084 2119 3084 
Q 1678 3084 1418 2786 
Q 1159 2488 1159 1978 
L 1159 0 
L 581 0 
L 581 3500 
L 1159 3500 
L 1159 2956 
Q 1356 3278 1631 3431 
Q 1906 3584 2284 3584 
Q 2666 3584 2933 3390 
Q 3200 3197 3328 2828 
z
" transform="scale(0.015625)"/>
     <path id="DejaVuSans-3a" d="M 750 794 
L 1409 794 
L 1409 0 
L 750 0 
L 750 794 
z
M 750 3309 
L 1409 3309 
L 1409 2516 
L 750 2516 
L 750 3309 
z
" transform="scale(0.015625)"/>
     <path id="DejaVuSans-23" d="M 3272 2816 
L 2363 2816 
L 2100 1772 
L 3016 1772 
L 3272 2816 
z
M 2803 4594 
L 2478 3297 
L 3391 3297 
L 3719 4594 
L 4219 4594 
L 3897 3297 
L 4872 3297 
L 4872 2816 
L 3775 2816 
L 3519 1772 
L 4513 1772 
L 4513 1294 
L 3397 1294 
L 3072 0 
L 2572 0 
L 2894 1294 
L 1978 1294 
L 1656 0 
L 1153 0 
L 1478 1294 
L 494 1294 
L 494 1772 
L 1594 1772 
L 1856 2816 
L 850 2816 
L 850 3297 
L 1978 3297 
L 2297 4594 
L 2803 4594 
z
" transform="scale(0.015625)"/>
     <path id="DejaVuSans-36" d="M 2113 2584 
Q 1688 2584 1439 2293 
Q 1191 2003 1191 1497 
Q 1191 994 1439 701 
Q 1688 409 2113 409 
Q 2538 409 2786 701 
Q 3034 994 3034 1497 
Q 3034 2003 2786 2293 
Q 2538 2584 2113 2584 
z
M 3366 4563 
L 3366 3988 
Q 3128 4100 2886 4159 
Q 2644 4219 2406 4219 
Q 1781 4219 1451 3797 
Q 1122 3375 1075 2522 
Q 1259 2794 1537 2939 
Q 1816 3084 2150 3084 
Q 2853 3084 3261 2657 
Q 3669 2231 3669 1497 
Q 3669 778 3244 343 
Q 2819 -91 2113 -91 
Q 1303 -91 875 529 
Q 447 1150 447 2328 
Q 447 3434 972 4092 
Q 1497 4750 2381 4750 
Q 2619 4750 2861 4703 
Q 3103 4656 3366 4563 
z
" transform="scale(0.015625)"/>
    </defs>
    <use xlink:href="#DejaVuSans-56"/>
    <use xlink:href="#DejaVuSans-4d" x="68.408203"/>
    <use xlink:href="#DejaVuSans-41" x="154.6875"/>
    <use xlink:href="#DejaVuSans-46" x="223.095703"/>
    <use xlink:href="#DejaVuSans-20" x="280.615234"/>
    <use xlink:href="#DejaVuSans-53" x="312.402344"/>
    <use xlink:href="#DejaVuSans-63" x="375.878906"/>
    <use xlink:href="#DejaVuSans-6f" x="430.859375"/>
    <use xlink:href="#DejaVuSans-72" x="492.041016"/>
    <use xlink:href="#DejaVuSans-65" x="530.904297"/>
    <use xlink:href="#DejaVuSans-73" x="592.427734"/>
    <use xlink:href="#DejaVuSans-20" x="644.527344"/>
    <use xlink:href="#DejaVuSans-4f" x="676.314453"/>
    <use xlink:href="#DejaVuSans-76" x="755.025391"/>
    <use xlink:href="#DejaVuSans-65" x="814.205078"/>
    <use xlink:href="#DejaVuSans-72" x="875.728516"/>
    <use xlink:href="#DejaVuSans-20" x="916.841797"/>
    <use xlink:href="#DejaVuSans-46" x="948.628906"/>
    <use xlink:href="#DejaVuSans-72" x="998.898438"/>
    <use xlink:href="#DejaVuSans-61" x="1040.011719"/>
    <use xlink:href="#DejaVuSans-6d" x="1101.291016"/>
    <use xlink:href="#DejaVuSans-65" x="1198.703125"/>
    <use xlink:href="#DejaVuSans-73" x="1260.226562"/>
    <use xlink:href="#DejaVuSans-3a" x="1312.326172"/>
    <use xlink:href="#DejaVuSans-20" x="1346.017578"/>
    <use xlink:href="#DejaVuSans-56" x="1377.804688"/>
    <use xlink:href="#DejaVuSans-69" x="1443.962891"/>
    <use xlink:href="#DejaVuSans-64" x="1471.746094"/>
    <use xlink:href="#DejaVuSans-65" x="1535.222656"/>
    <use xlink:href="#DejaVuSans-6f" x="1596.746094"/>
    <use xlink:href="#DejaVuSans-20" x="1657.927734"/>
    <use xlink:href="#DejaVuSans-23" x="1689.714844"/>
    <use xlink:href="#DejaVuSans-31" x="1773.503906"/>
    <use xlink:href="#DejaVuSans-36" x="1837.126953"/>
   </g>
  </g>
  <g id="text_40">
   <!-- Video Frames -->
   <g transform="translate(187.847438 339.936375) scale(0.12 -0.12)">
    <use xlink:href="#DejaVuSans-56"/>
    <use xlink:href="#DejaVuSans-69" x="66.158203"/>
    <use xlink:href="#DejaVuSans-64" x="93.941406"/>
    <use xlink:href="#DejaVuSans-65" x="157.417969"/>
    <use xlink:href="#DejaVuSans-6f" x="218.941406"/>
    <use xlink:href="#DejaVuSans-20" x="280.123047"/>
    <use xlink:href="#DejaVuSans-46" x="311.910156"/>
    <use xlink:href="#DejaVuSans-72" x="362.179688"/>
    <use xlink:href="#DejaVuSans-61" x="403.292969"/>
    <use xlink:href="#DejaVuSans-6d" x="464.572266"/>
    <use xlink:href="#DejaVuSans-65" x="561.984375"/>
    <use xlink:href="#DejaVuSans-73" x="623.507812"/>
   </g>
  </g>
  <g id="text_41">
   <!-- Raw VMAF Scores -->
   <g transform="translate(16.318125 226.284562) rotate(-90) scale(0.12 -0.12)">
    <defs>
     <path id="DejaVuSans-77" d="M 269 3500 
L 844 3500 
L 1563 769 
L 2278 3500 
L 2956 3500 
L 3675 769 
L 4391 3500 
L 4966 3500 
L 4050 0 
L 3372 0 
L 2619 2869 
L 1863 0 
L 1184 0 
L 269 3500 
z
" transform="scale(0.015625)"/>
    </defs>
    <use xlink:href="#DejaVuSans-52"/>
    <use xlink:href="#DejaVuSans-61" x="67.232422"/>
    <use xlink:href="#DejaVuSans-77" x="128.511719"/>
    <use xlink:href="#DejaVuSans-20" x="210.298828"/>
    <use xlink:href="#DejaVuSans-56" x="242.085938"/>
    <use xlink:href="#DejaVuSans-4d" x="310.494141"/>
    <use xlink:href="#DejaVuSans-41" x="396.773438"/>
    <use xlink:href="#DejaVuSans-46" x="465.181641"/>
    <use xlink:href="#DejaVuSans-20" x="522.701172"/>
    <use xlink:href="#DejaVuSans-53" x="554.488281"/>
    <use xlink:href="#DejaVuSans-63" x="617.964844"/>
    <use xlink:href="#DejaVuSans-6f" x="672.945312"/>
    <use xlink:href="#DejaVuSans-72" x="734.126953"/>
    <use xlink:href="#DejaVuSans-65" x="772.990234"/>
    <use xlink:href="#DejaVuSans-73" x="834.513672"/>
   </g>
  </g>
 </g>
 <defs>
  <clipPath id="p43ba56b74e">
   <rect x="55.584" y="41.76" width="162.327273" height="110.88"/>
  </clipPath>
  <clipPath id="p0786f3e91b">
   <rect x="250.376727" y="41.76" width="162.327273" height="110.88"/>
  </clipPath>
  <clipPath id="p4c0660e8dc">
   <rect x="55.584" y="196.992" width="162.327273" height="110.88"/>
  </clipPath>
  <clipPath id="p0ff85d5965">
   <rect x="250.376727" y="196.992" width="162.327273" height="110.88"/>
  </clipPath>
 </defs>
</svg>
