<?xml version="1.0" encoding="utf-8" standalone="no"?>
<!DOCTYPE svg PUBLIC "-//W3C//DTD SVG 1.1//EN"
  "http://www.w3.org/Graphics/SVG/1.1/DTD/svg11.dtd">
<svg xmlns:xlink="http://www.w3.org/1999/xlink" width="428.619353pt" height="349.632pt" viewBox="0 0 428.619353 349.632" xmlns="http://www.w3.org/2000/svg" version="1.1">
 <metadata>
  <rdf:RDF xmlns:dc="http://purl.org/dc/elements/1.1/" xmlns:cc="http://creativecommons.org/ns#" xmlns:rdf="http://www.w3.org/1999/02/22-rdf-syntax-ns#">
   <cc:Work>
    <dc:type rdf:resource="http://purl.org/dc/dcmitype/StillImage"/>
    <dc:date>2024-07-24T16:31:55.702147</dc:date>
    <dc:format>image/svg+xml</dc:format>
    <dc:creator>
     <cc:Agent>
      <dc:title>Matplotlib v3.7.2, https://matplotlib.org/</dc:title>
     </cc:Agent>
    </dc:creator>
   </cc:Work>
  </rdf:RDF>
 </metadata>
 <defs>
  <style type="text/css">*{stroke-linejoin: round; stroke-linecap: butt}</style>
 </defs>
 <g id="figure_1">
  <g id="patch_1">
   <path d="M 0 349.632 
L 428.619353 349.632 
L 428.619353 -0 
L 0 -0 
z
" style="fill: #ffffff"/>
  </g>
  <g id="axes_1">
   <g id="patch_2">
    <path d="M 55.584 152.64 
L 217.911273 152.64 
L 217.911273 41.76 
L 55.584 41.76 
z
" style="fill: #ffffff"/>
   </g>
   <g id="matplotlib.axis_1">
    <g id="xtick_1">
     <g id="line2d_1">
      <defs>
       <path id="m15713e0fce" d="M 0 0 
L 0 3.5 
" style="stroke: #000000; stroke-width: 0.8"/>
      </defs>
      <g>
       <use xlink:href="#m15713e0fce" x="62.962512" y="152.64" style="stroke: #000000; stroke-width: 0.8"/>
      </g>
     </g>
     <g id="text_1">
      <!-- 0 -->
      <g transform="translate(59.781262 167.238437) scale(0.1 -0.1)">
       <defs>
        <path id="DejaVuSans-30" d="M 2034 4250 
Q 1547 4250 1301 3770 
Q 1056 3291 1056 2328 
Q 1056 1369 1301 889 
Q 1547 409 2034 409 
Q 2525 409 2770 889 
Q 3016 1369 3016 2328 
Q 3016 3291 2770 3770 
Q 2525 4250 2034 4250 
z
M 2034 4750 
Q 2819 4750 3233 4129 
Q 3647 3509 3647 2328 
Q 3647 1150 3233 529 
Q 2819 -91 2034 -91 
Q 1250 -91 836 529 
Q 422 1150 422 2328 
Q 422 3509 836 4129 
Q 1250 4750 2034 4750 
z
" transform="scale(0.015625)"/>
       </defs>
       <use xlink:href="#DejaVuSans-30"/>
      </g>
     </g>
    </g>
    <g id="xtick_2">
     <g id="line2d_2">
      <g>
       <use xlink:href="#m15713e0fce" x="101.492603" y="152.64" style="stroke: #000000; stroke-width: 0.8"/>
      </g>
     </g>
     <g id="text_2">
      <!-- 100 -->
      <g transform="translate(91.948853 167.238437) scale(0.1 -0.1)">
       <defs>
        <path id="DejaVuSans-31" d="M 794 531 
L 1825 531 
L 1825 4091 
L 703 3866 
L 703 4441 
L 1819 4666 
L 2450 4666 
L 2450 531 
L 3481 531 
L 3481 0 
L 794 0 
L 794 531 
z
" transform="scale(0.015625)"/>
       </defs>
       <use xlink:href="#DejaVuSans-31"/>
       <use xlink:href="#DejaVuSans-30" x="63.623047"/>
       <use xlink:href="#DejaVuSans-30" x="127.246094"/>
      </g>
     </g>
    </g>
    <g id="xtick_3">
     <g id="line2d_3">
      <g>
       <use xlink:href="#m15713e0fce" x="140.022694" y="152.64" style="stroke: #000000; stroke-width: 0.8"/>
      </g>
     </g>
     <g id="text_3">
      <!-- 200 -->
      <g transform="translate(130.478944 167.238437) scale(0.1 -0.1)">
       <defs>
        <path id="DejaVuSans-32" d="M 1228 531 
L 3431 531 
L 3431 0 
L 469 0 
L 469 531 
Q 828 903 1448 1529 
Q 2069 2156 2228 2338 
Q 2531 2678 2651 2914 
Q 2772 3150 2772 3378 
Q 2772 3750 2511 3984 
Q 2250 4219 1831 4219 
Q 1534 4219 1204 4116 
Q 875 4013 500 3803 
L 500 4441 
Q 881 4594 1212 4672 
Q 1544 4750 1819 4750 
Q 2544 4750 2975 4387 
Q 3406 4025 3406 3419 
Q 3406 3131 3298 2873 
Q 3191 2616 2906 2266 
Q 2828 2175 2409 1742 
Q 1991 1309 1228 531 
z
" transform="scale(0.015625)"/>
       </defs>
       <use xlink:href="#DejaVuSans-32"/>
       <use xlink:href="#DejaVuSans-30" x="63.623047"/>
       <use xlink:href="#DejaVuSans-30" x="127.246094"/>
      </g>
     </g>
    </g>
    <g id="xtick_4">
     <g id="line2d_4">
      <g>
       <use xlink:href="#m15713e0fce" x="178.552785" y="152.64" style="stroke: #000000; stroke-width: 0.8"/>
      </g>
     </g>
     <g id="text_4">
      <!-- 300 -->
      <g transform="translate(169.009035 167.238437) scale(0.1 -0.1)">
       <defs>
        <path id="DejaVuSans-33" d="M 2597 2516 
Q 3050 2419 3304 2112 
Q 3559 1806 3559 1356 
Q 3559 666 3084 287 
Q 2609 -91 1734 -91 
Q 1441 -91 1130 -33 
Q 819 25 488 141 
L 488 750 
Q 750 597 1062 519 
Q 1375 441 1716 441 
Q 2309 441 2620 675 
Q 2931 909 2931 1356 
Q 2931 1769 2642 2001 
Q 2353 2234 1838 2234 
L 1294 2234 
L 1294 2753 
L 1863 2753 
Q 2328 2753 2575 2939 
Q 2822 3125 2822 3475 
Q 2822 3834 2567 4026 
Q 2313 4219 1838 4219 
Q 1578 4219 1281 4162 
Q 984 4106 628 3988 
L 628 4550 
Q 988 4650 1302 4700 
Q 1616 4750 1894 4750 
Q 2613 4750 3031 4423 
Q 3450 4097 3450 3541 
Q 3450 3153 3228 2886 
Q 3006 2619 2597 2516 
z
" transform="scale(0.015625)"/>
       </defs>
       <use xlink:href="#DejaVuSans-33"/>
       <use xlink:href="#DejaVuSans-30" x="63.623047"/>
       <use xlink:href="#DejaVuSans-30" x="127.246094"/>
      </g>
     </g>
    </g>
    <g id="xtick_5">
     <g id="line2d_5">
      <g>
       <use xlink:href="#m15713e0fce" x="217.082876" y="152.64" style="stroke: #000000; stroke-width: 0.8"/>
      </g>
     </g>
     <g id="text_5">
      <!-- 400 -->
      <g transform="translate(207.539126 167.238437) scale(0.1 -0.1)">
       <defs>
        <path id="DejaVuSans-34" d="M 2419 4116 
L 825 1625 
L 2419 1625 
L 2419 4116 
z
M 2253 4666 
L 3047 4666 
L 3047 1625 
L 3713 1625 
L 3713 1100 
L 3047 1100 
L 3047 0 
L 2419 0 
L 2419 1100 
L 313 1100 
L 313 1709 
L 2253 4666 
z
" transform="scale(0.015625)"/>
       </defs>
       <use xlink:href="#DejaVuSans-34"/>
       <use xlink:href="#DejaVuSans-30" x="63.623047"/>
       <use xlink:href="#DejaVuSans-30" x="127.246094"/>
      </g>
     </g>
    </g>
   </g>
   <g id="matplotlib.axis_2">
    <g id="ytick_1">
     <g id="line2d_6">
      <defs>
       <path id="mb29dc1b7d5" d="M 0 0 
L -3.5 0 
" style="stroke: #000000; stroke-width: 0.8"/>
      </defs>
      <g>
       <use xlink:href="#mb29dc1b7d5" x="55.584" y="137.461021" style="stroke: #000000; stroke-width: 0.8"/>
      </g>
     </g>
     <g id="text_6">
      <!-- 10 -->
      <g transform="translate(35.859 141.26024) scale(0.1 -0.1)">
       <use xlink:href="#DejaVuSans-31"/>
       <use xlink:href="#DejaVuSans-30" x="63.623047"/>
      </g>
     </g>
    </g>
    <g id="ytick_2">
     <g id="line2d_7">
      <g>
       <use xlink:href="#mb29dc1b7d5" x="55.584" y="109.624287" style="stroke: #000000; stroke-width: 0.8"/>
      </g>
     </g>
     <g id="text_7">
      <!-- 20 -->
      <g transform="translate(35.859 113.423506) scale(0.1 -0.1)">
       <use xlink:href="#DejaVuSans-32"/>
       <use xlink:href="#DejaVuSans-30" x="63.623047"/>
      </g>
     </g>
    </g>
    <g id="ytick_3">
     <g id="line2d_8">
      <g>
       <use xlink:href="#mb29dc1b7d5" x="55.584" y="81.787554" style="stroke: #000000; stroke-width: 0.8"/>
      </g>
     </g>
     <g id="text_8">
      <!-- 30 -->
      <g transform="translate(35.859 85.586772) scale(0.1 -0.1)">
       <use xlink:href="#DejaVuSans-33"/>
       <use xlink:href="#DejaVuSans-30" x="63.623047"/>
      </g>
     </g>
    </g>
    <g id="ytick_4">
     <g id="line2d_9">
      <g>
       <use xlink:href="#mb29dc1b7d5" x="55.584" y="53.95082" style="stroke: #000000; stroke-width: 0.8"/>
      </g>
     </g>
     <g id="text_9">
      <!-- 40 -->
      <g transform="translate(35.859 57.750039) scale(0.1 -0.1)">
       <use xlink:href="#DejaVuSans-34"/>
       <use xlink:href="#DejaVuSans-30" x="63.623047"/>
      </g>
     </g>
    </g>
   </g>
   <g id="line2d_10">
    <path d="M 62.962512 53.270537 
L 63.347813 48.029398 
L 63.733114 53.985134 
L 64.503716 73.195384 
L 64.889017 79.249651 
L 65.274318 95.22611 
L 66.04492 108.139284 
L 66.430221 109.328063 
L 66.815521 115.155235 
L 67.200822 113.128128 
L 67.586123 114.980225 
L 67.971424 109.774892 
L 68.356725 107.857417 
L 69.127327 89.69237 
L 69.512628 79.112198 
L 69.897929 65.420253 
L 70.28323 57.959065 
L 70.668531 47.86888 
L 71.053831 46.8 
L 71.439132 50.754278 
L 71.824433 50.270973 
L 72.209734 50.95282 
L 72.595035 69.204607 
L 72.980336 73.014634 
L 73.365637 78.73478 
L 73.750938 72.377318 
L 74.136239 70.850423 
L 74.52154 75.893796 
L 74.906841 73.033973 
L 75.292141 75.345248 
L 75.677442 68.892487 
L 76.062743 75.517713 
L 76.448044 77.342525 
L 76.833345 86.504805 
L 77.218646 88.867028 
L 77.603947 86.572076 
L 77.989248 86.774413 
L 78.75985 67.069863 
L 79.145151 60.034688 
L 79.530451 63.626668 
L 79.915752 70.09651 
L 80.301053 69.065042 
L 80.686354 65.036626 
L 81.071655 66.472398 
L 81.456956 70.144339 
L 81.842257 77.976081 
L 82.227558 73.470672 
L 82.612859 83.578911 
L 82.99816 82.811725 
L 83.383461 77.432661 
L 83.768761 80.823707 
L 84.539363 93.639686 
L 84.924664 92.140224 
L 85.309965 111.53124 
L 85.695266 111.811762 
L 86.465868 144.721988 
L 86.851169 139.527375 
L 87.23647 137.364681 
L 87.621771 146.767431 
L 88.007071 147.6 
L 88.392372 146.272374 
L 88.777673 143.609139 
L 89.162974 141.748694 
L 89.548275 142.729028 
L 89.933576 145.680293 
L 90.318877 147.522138 
L 90.704178 142.726406 
L 91.089479 133.11449 
L 91.47478 132.867935 
L 91.860081 123.796522 
L 92.245381 121.663663 
L 92.630682 123.763218 
L 93.015983 134.667262 
L 93.786585 121.064867 
L 94.557187 116.427034 
L 94.942488 106.302933 
L 95.327789 99.440549 
L 95.71309 99.385555 
L 96.483691 82.807706 
L 96.868992 85.201963 
L 97.254293 90.764274 
L 97.639594 81.1288 
L 98.024895 78.681595 
L 98.410196 85.405569 
L 98.795497 81.359466 
L 99.180798 90.680867 
L 99.566099 91.689272 
L 99.9514 89.147051 
L 100.336701 104.176048 
L 101.492603 113.889793 
L 101.877904 114.559952 
L 102.263205 119.85211 
L 103.033807 123.339527 
L 103.419108 122.433586 
L 103.804409 124.843454 
L 104.18971 123.488434 
L 104.575011 114.173522 
L 104.960311 110.364586 
L 105.345612 104.58166 
L 105.730913 101.848432 
L 106.116214 91.25111 
L 106.501515 90.403643 
L 107.272117 81.604441 
L 107.657418 72.007064 
L 108.042719 88.757307 
L 108.42802 89.38721 
L 108.813321 90.851194 
L 109.198621 94.630203 
L 109.583922 90.583288 
L 109.969223 89.398757 
L 110.354524 90.747455 
L 110.739825 92.667758 
L 111.125126 95.326094 
L 111.510427 100.685461 
L 111.895728 108.87701 
L 112.281029 104.865108 
L 112.66633 107.843989 
L 113.05163 115.020992 
L 113.436931 117.019862 
L 113.822232 119.6649 
L 114.207533 123.95211 
L 114.592834 119.357682 
L 114.978135 122.636332 
L 115.363436 121.124502 
L 115.748737 127.336531 
L 116.134038 129.275844 
L 116.519339 129.455201 
L 116.90464 132.370105 
L 117.28994 126.129124 
L 117.675241 123.045562 
L 118.060542 121.77189 
L 118.445843 119.400181 
L 118.831144 115.254161 
L 119.216445 107.822059 
L 119.601746 105.586625 
L 119.987047 105.3716 
L 120.372348 100.998541 
L 120.757649 102.989878 
L 121.14295 105.72798 
L 121.913551 107.546044 
L 122.298852 106.122574 
L 123.069454 93.969086 
L 123.454755 93.115039 
L 123.840056 89.561638 
L 124.225357 94.152767 
L 124.610658 87.096865 
L 124.995959 89.282357 
L 125.38126 98.036985 
L 125.76656 102.164661 
L 126.151861 101.267057 
L 126.537162 102.137141 
L 126.922463 98.944131 
L 127.307764 98.064713 
L 127.693065 99.047314 
L 128.078366 100.991095 
L 128.463667 94.837295 
L 128.848968 99.15824 
L 129.234269 97.011444 
L 129.61957 92.689412 
L 130.00487 93.082985 
L 130.775472 112.983577 
L 131.160773 110.163284 
L 131.546074 105.284554 
L 131.931375 95.581643 
L 132.316676 94.162916 
L 132.701977 86.247555 
L 133.087278 89.645176 
L 133.472579 86.771779 
L 133.85788 91.622789 
L 134.24318 87.718403 
L 134.628481 89.81638 
L 135.399083 96.307467 
L 135.784384 112.556397 
L 136.169685 112.442194 
L 136.554986 116.0859 
L 136.940287 115.362465 
L 137.710889 125.390715 
L 138.09619 128.239343 
L 138.866791 120.284623 
L 139.252092 120.816441 
L 139.637393 121.04843 
L 140.022694 115.910434 
L 140.407995 117.451916 
L 140.793296 117.78008 
L 141.178597 115.684525 
L 141.563898 117.283606 
L 141.949199 115.294697 
L 142.3345 111.56345 
L 142.7198 112.66022 
L 143.875703 90.271244 
L 144.261004 96.451327 
L 144.646305 93.45328 
L 145.031606 98.453729 
L 145.416907 93.373575 
L 145.802208 91.930833 
L 146.187509 89.231433 
L 146.57281 83.571827 
L 146.95811 85.082304 
L 147.343411 92.276357 
L 147.728712 90.506979 
L 148.114013 90.663007 
L 148.499314 86.510133 
L 148.884615 95.432622 
L 149.269916 95.198718 
L 149.655217 98.965015 
L 150.040518 98.965683 
L 150.425819 103.852552 
L 150.81112 102.372172 
L 151.581721 104.321097 
L 151.967022 103.463072 
L 152.352323 103.49873 
L 152.737624 99.813762 
L 153.122925 99.728974 
L 153.893527 90.606423 
L 154.278828 94.299556 
L 155.04943 86.190796 
L 155.43473 84.157612 
L 155.820031 87.142525 
L 156.205332 87.253914 
L 156.975934 102.888126 
L 157.361235 103.519132 
L 157.746536 110.17688 
L 158.131837 112.899143 
L 158.517138 107.689398 
L 158.902439 107.746491 
L 160.058341 106.82299 
L 160.443642 103.399131 
L 160.828943 102.172079 
L 161.214244 101.674066 
L 161.599545 103.630593 
L 161.984846 104.301058 
L 162.370147 99.854774 
L 162.755448 111.537834 
L 163.140749 112.657108 
L 163.52605 110.842637 
L 163.91135 103.246162 
L 164.296651 100.129177 
L 164.681952 90.259148 
L 165.067253 75.777781 
L 165.452554 69.541968 
L 165.837855 70.571891 
L 166.223156 86.547799 
L 166.608457 89.148332 
L 166.993758 80.848086 
L 167.764359 89.853158 
L 168.14966 90.729013 
L 168.534961 82.268895 
L 168.920262 86.457397 
L 169.305563 87.152861 
L 169.690864 92.946638 
L 170.076165 92.702064 
L 170.461466 97.207328 
L 170.846767 98.363607 
L 171.232068 99.997334 
L 171.617369 103.084542 
L 172.002669 100.066097 
L 172.38797 99.76644 
L 172.773271 98.543539 
L 173.158572 94.28316 
L 173.543873 96.151219 
L 173.929174 94.517999 
L 174.314475 89.592904 
L 174.699776 92.068959 
L 175.085077 87.897611 
L 175.470378 91.256149 
L 175.855679 90.720656 
L 176.240979 93.666209 
L 176.62628 94.358784 
L 177.011581 90.213093 
L 177.396882 92.485316 
L 177.782183 101.049193 
L 178.167484 100.390002 
L 178.552785 103.306326 
L 178.938086 110.481018 
L 179.323387 114.287199 
L 179.708688 124.525427 
L 180.093989 123.496581 
L 180.479289 118.924852 
L 180.86459 124.936926 
L 181.249891 112.171852 
L 181.635192 113.551402 
L 182.020493 108.057756 
L 182.791095 116.874504 
L 183.176396 117.410751 
L 183.561697 115.623304 
L 183.946998 109.197361 
L 184.332299 111.980405 
L 184.717599 118.27635 
L 185.488201 134.658254 
L 186.644104 124.995592 
L 187.029405 119.776956 
L 187.414706 131.878397 
L 187.800007 134.068238 
L 188.185308 131.536251 
L 188.570609 132.763867 
L 188.955909 139.262809 
L 190.111812 125.756295 
L 190.882414 135.735976 
L 191.267715 133.792098 
L 191.653016 131.235224 
L 192.038317 131.054928 
L 192.423618 132.272844 
L 192.808919 131.533784 
L 193.194219 135.29878 
L 194.350122 132.082911 
L 194.735423 125.792029 
L 195.120724 131.705498 
L 195.506025 132.706153 
L 195.891326 131.931315 
L 196.276627 133.211114 
L 196.661928 131.758535 
L 197.047229 132.548433 
L 197.432529 132.685997 
L 197.81783 132.051219 
L 198.203131 132.529738 
L 198.588432 129.257021 
L 199.359034 119.400214 
L 199.744335 125.059241 
L 200.129636 120.493775 
L 200.514937 112.595305 
L 200.900238 118.304223 
L 201.285539 120.037099 
L 201.670839 115.865199 
L 202.05614 115.778936 
L 202.441441 113.987289 
L 202.826742 111.19986 
L 203.212043 116.642373 
L 203.597344 112.195586 
L 204.367946 118.813171 
L 204.753247 118.181772 
L 205.138548 113.170061 
L 205.523849 117.267119 
L 205.909149 108.430659 
L 206.29445 107.795408 
L 206.679751 104.171324 
L 207.065052 104.165253 
L 207.450353 103.374245 
L 207.835654 109.811083 
L 208.220955 98.439502 
L 208.991557 107.40676 
L 209.376858 104.368534 
L 209.762159 115.735511 
L 210.147459 118.042628 
L 210.53276 118.362956 
L 210.53276 118.362956 
" clip-path="url(#p86bbbdfad6)" style="fill: none; stroke: #008000; stroke-width: 1.5; stroke-linecap: square"/>
   </g>
   <g id="patch_3">
    <path d="M 55.584 152.64 
L 55.584 41.76 
" style="fill: none; stroke: #000000; stroke-width: 0.8; stroke-linejoin: miter; stroke-linecap: square"/>
   </g>
   <g id="patch_4">
    <path d="M 217.911273 152.64 
L 217.911273 41.76 
" style="fill: none; stroke: #000000; stroke-width: 0.8; stroke-linejoin: miter; stroke-linecap: square"/>
   </g>
   <g id="patch_5">
    <path d="M 55.584 152.64 
L 217.911273 152.64 
" style="fill: none; stroke: #000000; stroke-width: 0.8; stroke-linejoin: miter; stroke-linecap: square"/>
   </g>
   <g id="patch_6">
    <path d="M 55.584 41.76 
L 217.911273 41.76 
" style="fill: none; stroke: #000000; stroke-width: 0.8; stroke-linejoin: miter; stroke-linecap: square"/>
   </g>
   <g id="text_10">
    <!-- No Prediction (FOSS) -->
    <g transform="translate(74.495761 35.76) scale(0.12 -0.12)">
     <defs>
      <path id="DejaVuSans-4e" d="M 628 4666 
L 1478 4666 
L 3547 763 
L 3547 4666 
L 4159 4666 
L 4159 0 
L 3309 0 
L 1241 3903 
L 1241 0 
L 628 0 
L 628 4666 
z
" transform="scale(0.015625)"/>
      <path id="DejaVuSans-6f" d="M 1959 3097 
Q 1497 3097 1228 2736 
Q 959 2375 959 1747 
Q 959 1119 1226 758 
Q 1494 397 1959 397 
Q 2419 397 2687 759 
Q 2956 1122 2956 1747 
Q 2956 2369 2687 2733 
Q 2419 3097 1959 3097 
z
M 1959 3584 
Q 2709 3584 3137 3096 
Q 3566 2609 3566 1747 
Q 3566 888 3137 398 
Q 2709 -91 1959 -91 
Q 1206 -91 779 398 
Q 353 888 353 1747 
Q 353 2609 779 3096 
Q 1206 3584 1959 3584 
z
" transform="scale(0.015625)"/>
      <path id="DejaVuSans-20" transform="scale(0.015625)"/>
      <path id="DejaVuSans-50" d="M 1259 4147 
L 1259 2394 
L 2053 2394 
Q 2494 2394 2734 2622 
Q 2975 2850 2975 3272 
Q 2975 3691 2734 3919 
Q 2494 4147 2053 4147 
L 1259 4147 
z
M 628 4666 
L 2053 4666 
Q 2838 4666 3239 4311 
Q 3641 3956 3641 3272 
Q 3641 2581 3239 2228 
Q 2838 1875 2053 1875 
L 1259 1875 
L 1259 0 
L 628 0 
L 628 4666 
z
" transform="scale(0.015625)"/>
      <path id="DejaVuSans-72" d="M 2631 2963 
Q 2534 3019 2420 3045 
Q 2306 3072 2169 3072 
Q 1681 3072 1420 2755 
Q 1159 2438 1159 1844 
L 1159 0 
L 581 0 
L 581 3500 
L 1159 3500 
L 1159 2956 
Q 1341 3275 1631 3429 
Q 1922 3584 2338 3584 
Q 2397 3584 2469 3576 
Q 2541 3569 2628 3553 
L 2631 2963 
z
" transform="scale(0.015625)"/>
      <path id="DejaVuSans-65" d="M 3597 1894 
L 3597 1613 
L 953 1613 
Q 991 1019 1311 708 
Q 1631 397 2203 397 
Q 2534 397 2845 478 
Q 3156 559 3463 722 
L 3463 178 
Q 3153 47 2828 -22 
Q 2503 -91 2169 -91 
Q 1331 -91 842 396 
Q 353 884 353 1716 
Q 353 2575 817 3079 
Q 1281 3584 2069 3584 
Q 2775 3584 3186 3129 
Q 3597 2675 3597 1894 
z
M 3022 2063 
Q 3016 2534 2758 2815 
Q 2500 3097 2075 3097 
Q 1594 3097 1305 2825 
Q 1016 2553 972 2059 
L 3022 2063 
z
" transform="scale(0.015625)"/>
      <path id="DejaVuSans-64" d="M 2906 2969 
L 2906 4863 
L 3481 4863 
L 3481 0 
L 2906 0 
L 2906 525 
Q 2725 213 2448 61 
Q 2172 -91 1784 -91 
Q 1150 -91 751 415 
Q 353 922 353 1747 
Q 353 2572 751 3078 
Q 1150 3584 1784 3584 
Q 2172 3584 2448 3432 
Q 2725 3281 2906 2969 
z
M 947 1747 
Q 947 1113 1208 752 
Q 1469 391 1925 391 
Q 2381 391 2643 752 
Q 2906 1113 2906 1747 
Q 2906 2381 2643 2742 
Q 2381 3103 1925 3103 
Q 1469 3103 1208 2742 
Q 947 2381 947 1747 
z
" transform="scale(0.015625)"/>
      <path id="DejaVuSans-69" d="M 603 3500 
L 1178 3500 
L 1178 0 
L 603 0 
L 603 3500 
z
M 603 4863 
L 1178 4863 
L 1178 4134 
L 603 4134 
L 603 4863 
z
" transform="scale(0.015625)"/>
      <path id="DejaVuSans-63" d="M 3122 3366 
L 3122 2828 
Q 2878 2963 2633 3030 
Q 2388 3097 2138 3097 
Q 1578 3097 1268 2742 
Q 959 2388 959 1747 
Q 959 1106 1268 751 
Q 1578 397 2138 397 
Q 2388 397 2633 464 
Q 2878 531 3122 666 
L 3122 134 
Q 2881 22 2623 -34 
Q 2366 -91 2075 -91 
Q 1284 -91 818 406 
Q 353 903 353 1747 
Q 353 2603 823 3093 
Q 1294 3584 2113 3584 
Q 2378 3584 2631 3529 
Q 2884 3475 3122 3366 
z
" transform="scale(0.015625)"/>
      <path id="DejaVuSans-74" d="M 1172 4494 
L 1172 3500 
L 2356 3500 
L 2356 3053 
L 1172 3053 
L 1172 1153 
Q 1172 725 1289 603 
Q 1406 481 1766 481 
L 2356 481 
L 2356 0 
L 1766 0 
Q 1100 0 847 248 
Q 594 497 594 1153 
L 594 3053 
L 172 3053 
L 172 3500 
L 594 3500 
L 594 4494 
L 1172 4494 
z
" transform="scale(0.015625)"/>
      <path id="DejaVuSans-6e" d="M 3513 2113 
L 3513 0 
L 2938 0 
L 2938 2094 
Q 2938 2591 2744 2837 
Q 2550 3084 2163 3084 
Q 1697 3084 1428 2787 
Q 1159 2491 1159 1978 
L 1159 0 
L 581 0 
L 581 3500 
L 1159 3500 
L 1159 2956 
Q 1366 3272 1645 3428 
Q 1925 3584 2291 3584 
Q 2894 3584 3203 3211 
Q 3513 2838 3513 2113 
z
" transform="scale(0.015625)"/>
      <path id="DejaVuSans-28" d="M 1984 4856 
Q 1566 4138 1362 3434 
Q 1159 2731 1159 2009 
Q 1159 1288 1364 580 
Q 1569 -128 1984 -844 
L 1484 -844 
Q 1016 -109 783 600 
Q 550 1309 550 2009 
Q 550 2706 781 3412 
Q 1013 4119 1484 4856 
L 1984 4856 
z
" transform="scale(0.015625)"/>
      <path id="DejaVuSans-46" d="M 628 4666 
L 3309 4666 
L 3309 4134 
L 1259 4134 
L 1259 2759 
L 3109 2759 
L 3109 2228 
L 1259 2228 
L 1259 0 
L 628 0 
L 628 4666 
z
" transform="scale(0.015625)"/>
      <path id="DejaVuSans-4f" d="M 2522 4238 
Q 1834 4238 1429 3725 
Q 1025 3213 1025 2328 
Q 1025 1447 1429 934 
Q 1834 422 2522 422 
Q 3209 422 3611 934 
Q 4013 1447 4013 2328 
Q 4013 3213 3611 3725 
Q 3209 4238 2522 4238 
z
M 2522 4750 
Q 3503 4750 4090 4092 
Q 4678 3434 4678 2328 
Q 4678 1225 4090 567 
Q 3503 -91 2522 -91 
Q 1538 -91 948 565 
Q 359 1222 359 2328 
Q 359 3434 948 4092 
Q 1538 4750 2522 4750 
z
" transform="scale(0.015625)"/>
      <path id="DejaVuSans-53" d="M 3425 4513 
L 3425 3897 
Q 3066 4069 2747 4153 
Q 2428 4238 2131 4238 
Q 1616 4238 1336 4038 
Q 1056 3838 1056 3469 
Q 1056 3159 1242 3001 
Q 1428 2844 1947 2747 
L 2328 2669 
Q 3034 2534 3370 2195 
Q 3706 1856 3706 1288 
Q 3706 609 3251 259 
Q 2797 -91 1919 -91 
Q 1588 -91 1214 -16 
Q 841 59 441 206 
L 441 856 
Q 825 641 1194 531 
Q 1563 422 1919 422 
Q 2459 422 2753 634 
Q 3047 847 3047 1241 
Q 3047 1584 2836 1778 
Q 2625 1972 2144 2069 
L 1759 2144 
Q 1053 2284 737 2584 
Q 422 2884 422 3419 
Q 422 4038 858 4394 
Q 1294 4750 2059 4750 
Q 2388 4750 2728 4690 
Q 3069 4631 3425 4513 
z
" transform="scale(0.015625)"/>
      <path id="DejaVuSans-29" d="M 513 4856 
L 1013 4856 
Q 1481 4119 1714 3412 
Q 1947 2706 1947 2009 
Q 1947 1309 1714 600 
Q 1481 -109 1013 -844 
L 513 -844 
Q 928 -128 1133 580 
Q 1338 1288 1338 2009 
Q 1338 2731 1133 3434 
Q 928 4138 513 4856 
z
" transform="scale(0.015625)"/>
     </defs>
     <use xlink:href="#DejaVuSans-4e"/>
     <use xlink:href="#DejaVuSans-6f" x="74.804688"/>
     <use xlink:href="#DejaVuSans-20" x="135.986328"/>
     <use xlink:href="#DejaVuSans-50" x="167.773438"/>
     <use xlink:href="#DejaVuSans-72" x="226.326172"/>
     <use xlink:href="#DejaVuSans-65" x="265.189453"/>
     <use xlink:href="#DejaVuSans-64" x="326.712891"/>
     <use xlink:href="#DejaVuSans-69" x="390.189453"/>
     <use xlink:href="#DejaVuSans-63" x="417.972656"/>
     <use xlink:href="#DejaVuSans-74" x="472.953125"/>
     <use xlink:href="#DejaVuSans-69" x="512.162109"/>
     <use xlink:href="#DejaVuSans-6f" x="539.945312"/>
     <use xlink:href="#DejaVuSans-6e" x="601.126953"/>
     <use xlink:href="#DejaVuSans-20" x="664.505859"/>
     <use xlink:href="#DejaVuSans-28" x="696.292969"/>
     <use xlink:href="#DejaVuSans-46" x="735.306641"/>
     <use xlink:href="#DejaVuSans-4f" x="792.826172"/>
     <use xlink:href="#DejaVuSans-53" x="871.537109"/>
     <use xlink:href="#DejaVuSans-53" x="935.013672"/>
     <use xlink:href="#DejaVuSans-29" x="998.490234"/>
    </g>
   </g>
  </g>
  <g id="axes_2">
   <g id="patch_7">
    <path d="M 250.376727 152.64 
L 412.704 152.64 
L 412.704 41.76 
L 250.376727 41.76 
z
" style="fill: #ffffff"/>
   </g>
   <g id="matplotlib.axis_3">
    <g id="xtick_6">
     <g id="line2d_11">
      <g>
       <use xlink:href="#m15713e0fce" x="257.75524" y="152.64" style="stroke: #000000; stroke-width: 0.8"/>
      </g>
     </g>
     <g id="text_11">
      <!-- 0 -->
      <g transform="translate(254.57399 167.238437) scale(0.1 -0.1)">
       <use xlink:href="#DejaVuSans-30"/>
      </g>
     </g>
    </g>
    <g id="xtick_7">
     <g id="line2d_12">
      <g>
       <use xlink:href="#m15713e0fce" x="296.285331" y="152.64" style="stroke: #000000; stroke-width: 0.8"/>
      </g>
     </g>
     <g id="text_12">
      <!-- 100 -->
      <g transform="translate(286.741581 167.238437) scale(0.1 -0.1)">
       <use xlink:href="#DejaVuSans-31"/>
       <use xlink:href="#DejaVuSans-30" x="63.623047"/>
       <use xlink:href="#DejaVuSans-30" x="127.246094"/>
      </g>
     </g>
    </g>
    <g id="xtick_8">
     <g id="line2d_13">
      <g>
       <use xlink:href="#m15713e0fce" x="334.815421" y="152.64" style="stroke: #000000; stroke-width: 0.8"/>
      </g>
     </g>
     <g id="text_13">
      <!-- 200 -->
      <g transform="translate(325.271671 167.238437) scale(0.1 -0.1)">
       <use xlink:href="#DejaVuSans-32"/>
       <use xlink:href="#DejaVuSans-30" x="63.623047"/>
       <use xlink:href="#DejaVuSans-30" x="127.246094"/>
      </g>
     </g>
    </g>
    <g id="xtick_9">
     <g id="line2d_14">
      <g>
       <use xlink:href="#m15713e0fce" x="373.345512" y="152.64" style="stroke: #000000; stroke-width: 0.8"/>
      </g>
     </g>
     <g id="text_14">
      <!-- 300 -->
      <g transform="translate(363.801762 167.238437) scale(0.1 -0.1)">
       <use xlink:href="#DejaVuSans-33"/>
       <use xlink:href="#DejaVuSans-30" x="63.623047"/>
       <use xlink:href="#DejaVuSans-30" x="127.246094"/>
      </g>
     </g>
    </g>
    <g id="xtick_10">
     <g id="line2d_15">
      <g>
       <use xlink:href="#m15713e0fce" x="411.875603" y="152.64" style="stroke: #000000; stroke-width: 0.8"/>
      </g>
     </g>
     <g id="text_15">
      <!-- 400 -->
      <g transform="translate(402.331853 167.238437) scale(0.1 -0.1)">
       <use xlink:href="#DejaVuSans-34"/>
       <use xlink:href="#DejaVuSans-30" x="63.623047"/>
       <use xlink:href="#DejaVuSans-30" x="127.246094"/>
      </g>
     </g>
    </g>
   </g>
   <g id="matplotlib.axis_4">
    <g id="ytick_5">
     <g id="line2d_16">
      <g>
       <use xlink:href="#mb29dc1b7d5" x="250.376727" y="147.6" style="stroke: #000000; stroke-width: 0.8"/>
      </g>
     </g>
     <g id="text_16">
      <!-- 0 -->
      <g transform="translate(237.014227 151.399219) scale(0.1 -0.1)">
       <use xlink:href="#DejaVuSans-30"/>
      </g>
     </g>
    </g>
    <g id="ytick_6">
     <g id="line2d_17">
      <g>
       <use xlink:href="#mb29dc1b7d5" x="250.376727" y="123.68191" style="stroke: #000000; stroke-width: 0.8"/>
      </g>
     </g>
     <g id="text_17">
      <!-- 10 -->
      <g transform="translate(230.651727 127.481129) scale(0.1 -0.1)">
       <use xlink:href="#DejaVuSans-31"/>
       <use xlink:href="#DejaVuSans-30" x="63.623047"/>
      </g>
     </g>
    </g>
    <g id="ytick_7">
     <g id="line2d_18">
      <g>
       <use xlink:href="#mb29dc1b7d5" x="250.376727" y="99.76382" style="stroke: #000000; stroke-width: 0.8"/>
      </g>
     </g>
     <g id="text_18">
      <!-- 20 -->
      <g transform="translate(230.651727 103.563038) scale(0.1 -0.1)">
       <use xlink:href="#DejaVuSans-32"/>
       <use xlink:href="#DejaVuSans-30" x="63.623047"/>
      </g>
     </g>
    </g>
    <g id="ytick_8">
     <g id="line2d_19">
      <g>
       <use xlink:href="#mb29dc1b7d5" x="250.376727" y="75.845729" style="stroke: #000000; stroke-width: 0.8"/>
      </g>
     </g>
     <g id="text_19">
      <!-- 30 -->
      <g transform="translate(230.651727 79.644948) scale(0.1 -0.1)">
       <use xlink:href="#DejaVuSans-33"/>
       <use xlink:href="#DejaVuSans-30" x="63.623047"/>
      </g>
     </g>
    </g>
    <g id="ytick_9">
     <g id="line2d_20">
      <g>
       <use xlink:href="#mb29dc1b7d5" x="250.376727" y="51.927639" style="stroke: #000000; stroke-width: 0.8"/>
      </g>
     </g>
     <g id="text_20">
      <!-- 40 -->
      <g transform="translate(230.651727 55.726858) scale(0.1 -0.1)">
       <use xlink:href="#DejaVuSans-34"/>
       <use xlink:href="#DejaVuSans-30" x="63.623047"/>
      </g>
     </g>
    </g>
   </g>
   <g id="line2d_21">
    <path d="M 257.75524 51.340067 
L 258.140541 46.8 
L 258.525841 51.922588 
L 259.296443 68.470204 
L 259.681744 73.661785 
L 260.067045 87.371687 
L 260.452346 93.907274 
L 260.837647 98.480399 
L 261.222948 99.491718 
L 261.608249 104.517425 
L 261.99355 102.789484 
L 262.378851 142.163887 
L 262.764151 134.209141 
L 263.149452 135.373082 
L 263.534753 147.6 
L 263.920054 145.572612 
L 264.305355 108.920741 
L 264.690656 94.33476 
L 265.075957 97.533776 
L 265.461258 115.542878 
L 265.846559 142.905386 
L 266.23186 147.6 
L 266.617161 147.6 
L 267.002461 49.380492 
L 267.387762 65.036288 
L 267.773063 68.309101 
L 268.158364 73.206177 
L 268.543665 67.764323 
L 268.928966 66.441777 
L 269.314267 70.798278 
L 269.699568 68.295405 
L 270.084869 70.296151 
L 270.47017 64.715862 
L 270.855471 70.448663 
L 271.240771 72.022743 
L 271.626072 127.750097 
L 272.011373 125.129739 
L 272.396674 124.54603 
L 272.781975 120.431061 
L 273.167276 147.6 
L 273.552577 147.516717 
L 273.937878 125.351998 
L 274.323179 138.250005 
L 275.093781 134.654437 
L 275.479081 132.194633 
L 275.864382 138.451845 
L 276.249683 65.813896 
L 276.634984 72.583761 
L 277.020285 68.559468 
L 277.405586 77.403022 
L 277.790887 76.760768 
L 278.176188 72.151076 
L 278.561489 75.040388 
L 279.332091 86.025742 
L 279.717391 84.73832 
L 280.102692 101.402764 
L 280.487993 101.645403 
L 280.873294 147.6 
L 285.111604 147.6 
L 285.496905 128.190324 
L 285.882206 119.968693 
L 286.267507 119.717565 
L 286.652808 111.939656 
L 287.038109 110.090663 
L 287.42341 111.907091 
L 287.808711 121.286795 
L 288.579312 109.61543 
L 289.349914 105.618798 
L 289.735215 96.916811 
L 290.120516 133.123444 
L 290.505817 142.393115 
L 291.276419 127.213031 
L 291.66172 128.198803 
L 292.047021 130.640649 
L 292.432321 124.385735 
L 292.817622 121.694991 
L 293.202923 125.677604 
L 293.588224 126.709569 
L 293.973525 126.643417 
L 294.358826 135.290031 
L 294.744127 82.162162 
L 295.129428 95.03103 
L 296.285331 103.411103 
L 296.670631 103.995049 
L 297.055932 108.571343 
L 297.826534 111.544228 
L 298.211835 110.771276 
L 298.597136 112.848682 
L 298.982437 111.686909 
L 299.367738 142.101037 
L 299.753039 133.220624 
L 300.13834 120.24279 
L 300.523641 139.066097 
L 300.908941 147.6 
L 303.220747 147.6 
L 303.606048 135.245194 
L 303.991349 86.90278 
L 304.37665 83.363465 
L 304.76195 82.386514 
L 305.147251 83.530645 
L 305.532552 85.190331 
L 305.917853 87.489474 
L 306.303154 92.070786 
L 306.688455 99.130947 
L 307.073756 95.650523 
L 307.459057 98.220172 
L 307.844358 104.408361 
L 308.229659 106.114278 
L 308.61496 135.542838 
L 309.385561 147.6 
L 309.770862 147.6 
L 310.156163 138.636244 
L 310.541464 139.408623 
L 310.926765 144.367083 
L 311.312066 144.536868 
L 311.697367 144.471174 
L 312.082668 142.08893 
L 312.467969 130.077265 
L 312.85327 131.079995 
L 313.23857 108.158663 
L 313.623871 104.598936 
L 314.009172 98.202332 
L 314.394473 96.329311 
L 314.779774 96.118578 
L 315.165075 92.363893 
L 315.550376 93.286449 
L 315.935677 96.417047 
L 316.706279 97.964151 
L 317.09158 96.765292 
L 317.47688 91.163393 
L 317.862181 131.318875 
L 318.247482 132.671352 
L 318.632783 103.530077 
L 319.018084 120.716031 
L 319.403385 124.088455 
L 319.788686 120.856492 
L 320.173987 120.6097 
L 320.559288 119.457841 
L 321.71519 132.106086 
L 322.100491 130.407545 
L 322.485792 90.688349 
L 322.871093 92.36954 
L 323.256394 87.06145 
L 323.641695 90.791472 
L 324.026996 88.919322 
L 324.412297 85.201486 
L 324.797598 85.557856 
L 325.5682 102.650848 
L 325.9535 100.227431 
L 326.338801 96.023238 
L 326.724102 87.694208 
L 327.109403 145.452325 
L 327.494704 147.6 
L 327.880005 142.010491 
L 328.265306 139.330923 
L 328.650607 124.995539 
L 329.035908 143.261756 
L 329.421209 147.6 
L 331.347713 147.6 
L 331.733014 104.682434 
L 332.503616 113.304621 
L 332.888917 115.741587 
L 333.659519 108.916431 
L 334.04482 109.390734 
L 334.43012 109.580705 
L 334.815421 105.196709 
L 335.200722 106.494031 
L 335.586023 106.774011 
L 335.971324 104.961587 
L 336.356625 133.750512 
L 336.741926 139.668642 
L 337.127227 118.937345 
L 337.512528 127.45804 
L 337.897829 121.557605 
L 338.28313 119.47566 
L 338.66843 123.955437 
L 339.053731 135.887299 
L 339.439032 135.505882 
L 339.824333 140.698882 
L 340.209634 139.134689 
L 340.594935 138.683843 
L 340.980236 82.238657 
L 341.365537 77.388102 
L 341.750838 78.674381 
L 342.136139 84.873541 
L 342.52144 83.346799 
L 342.90674 83.478286 
L 343.292041 79.887516 
L 343.677342 87.494122 
L 344.062643 87.377557 
L 344.447944 90.615535 
L 344.833245 90.603655 
L 345.218546 94.824865 
L 345.603847 127.007455 
L 346.374449 147.6 
L 347.915652 147.6 
L 348.300953 145.233477 
L 348.686254 140.621945 
L 349.071555 140.239291 
L 349.456856 131.391313 
L 349.842157 133.90818 
L 350.227458 77.88269 
L 350.612759 80.456264 
L 350.99806 80.534361 
L 351.768661 93.974066 
L 352.153962 94.512165 
L 352.539263 100.22529 
L 352.924564 102.575747 
L 353.309865 98.113562 
L 353.695166 98.152082 
L 354.465768 97.515624 
L 355.23637 133.886874 
L 355.62167 138.937798 
L 356.006971 140.52485 
L 356.392272 137.446297 
L 356.777573 131.920161 
L 357.162874 132.239178 
L 357.548175 131.233762 
L 358.318777 136.011116 
L 358.704078 135.132602 
L 359.089379 128.569981 
L 359.474679 83.132428 
L 359.85998 70.681295 
L 360.245281 65.292836 
L 360.630582 66.197124 
L 361.015883 79.930497 
L 361.401184 82.161662 
L 361.786485 75.02692 
L 362.171786 80.138792 
L 362.557087 82.753668 
L 362.942388 83.525579 
L 363.327689 76.257302 
L 363.712989 79.856279 
L 364.09829 128.17345 
L 364.483591 126.762294 
L 364.868892 134.744249 
L 365.254193 135.679224 
L 365.639494 144.990288 
L 366.410096 147.6 
L 368.3366 147.6 
L 368.721901 86.835446 
L 369.107202 82.55732 
L 369.492503 84.707686 
L 369.877804 81.116932 
L 370.263105 83.985551 
L 370.648406 83.527172 
L 371.033707 86.045608 
L 371.419008 86.650267 
L 371.804309 83.07921 
L 372.189609 85.118924 
L 372.57491 92.408311 
L 372.960211 91.817582 
L 373.345512 115.049888 
L 373.730813 127.664877 
L 374.501415 145.184993 
L 374.886716 140.211661 
L 375.272017 131.868316 
L 375.657318 130.44363 
L 376.042619 130.506748 
L 376.427919 139.478854 
L 376.81322 145.288711 
L 377.198521 147.550628 
L 377.583822 143.983788 
L 377.969123 106.451657 
L 378.354424 104.935346 
L 378.739725 99.388906 
L 379.125026 101.785754 
L 379.510327 107.177645 
L 380.280929 121.272908 
L 381.436831 112.982442 
L 381.822132 108.481703 
L 382.207433 118.872898 
L 382.592734 139.725964 
L 382.978035 137.56992 
L 383.363336 136.497433 
L 384.133938 147.6 
L 384.904539 133.236417 
L 385.28984 144.181866 
L 385.675141 147.6 
L 386.060442 147.6 
L 386.445743 146.83387 
L 387.216345 119.22054 
L 387.601646 118.65195 
L 387.986947 121.8701 
L 389.142849 119.056118 
L 389.52815 113.652947 
L 389.913451 118.738021 
L 390.298752 119.593885 
L 390.684053 118.938905 
L 391.069354 120.039897 
L 391.454655 119.364938 
L 391.839956 144.195241 
L 392.225257 127.628988 
L 392.995859 139.659825 
L 393.381159 128.568624 
L 393.76646 130.330869 
L 394.151761 135.095754 
L 394.537062 133.190614 
L 394.922363 132.687367 
L 395.307664 131.596411 
L 395.692965 135.481933 
L 396.078266 137.20068 
L 396.463567 105.113718 
L 396.848868 105.039942 
L 397.234169 103.917801 
L 397.619469 101.130224 
L 398.00477 105.798562 
L 398.390071 101.969438 
L 399.160673 107.661571 
L 399.545974 107.111574 
L 399.931275 102.805796 
L 400.316576 106.328759 
L 400.701877 98.736014 
L 401.087178 134.428064 
L 401.472479 139.264514 
L 401.857779 120.043267 
L 402.24308 147.6 
L 404.169585 147.6 
L 404.554886 146.346958 
L 404.940187 143.657462 
L 405.325488 139.097829 
L 405.325488 139.097829 
" clip-path="url(#p92abec6cef)" style="fill: none; stroke: #0000ff; stroke-width: 1.5; stroke-linecap: square"/>
   </g>
   <g id="patch_8">
    <path d="M 250.376727 152.64 
L 250.376727 41.76 
" style="fill: none; stroke: #000000; stroke-width: 0.8; stroke-linejoin: miter; stroke-linecap: square"/>
   </g>
   <g id="patch_9">
    <path d="M 412.704 152.64 
L 412.704 41.76 
" style="fill: none; stroke: #000000; stroke-width: 0.8; stroke-linejoin: miter; stroke-linecap: square"/>
   </g>
   <g id="patch_10">
    <path d="M 250.376727 152.64 
L 412.704 152.64 
" style="fill: none; stroke: #000000; stroke-width: 0.8; stroke-linejoin: miter; stroke-linecap: square"/>
   </g>
   <g id="patch_11">
    <path d="M 250.376727 41.76 
L 412.704 41.76 
" style="fill: none; stroke: #000000; stroke-width: 0.8; stroke-linejoin: miter; stroke-linecap: square"/>
   </g>
   <g id="text_21">
    <!-- RNN -->
    <g transform="translate(318.393801 35.76) scale(0.12 -0.12)">
     <defs>
      <path id="DejaVuSans-52" d="M 2841 2188 
Q 3044 2119 3236 1894 
Q 3428 1669 3622 1275 
L 4263 0 
L 3584 0 
L 2988 1197 
Q 2756 1666 2539 1819 
Q 2322 1972 1947 1972 
L 1259 1972 
L 1259 0 
L 628 0 
L 628 4666 
L 2053 4666 
Q 2853 4666 3247 4331 
Q 3641 3997 3641 3322 
Q 3641 2881 3436 2590 
Q 3231 2300 2841 2188 
z
M 1259 4147 
L 1259 2491 
L 2053 2491 
Q 2509 2491 2742 2702 
Q 2975 2913 2975 3322 
Q 2975 3731 2742 3939 
Q 2509 4147 2053 4147 
L 1259 4147 
z
" transform="scale(0.015625)"/>
     </defs>
     <use xlink:href="#DejaVuSans-52"/>
     <use xlink:href="#DejaVuSans-4e" x="69.482422"/>
     <use xlink:href="#DejaVuSans-4e" x="144.287109"/>
    </g>
   </g>
  </g>
  <g id="axes_3">
   <g id="patch_12">
    <path d="M 55.584 307.872 
L 217.911273 307.872 
L 217.911273 196.992 
L 55.584 196.992 
z
" style="fill: #ffffff"/>
   </g>
   <g id="matplotlib.axis_5">
    <g id="xtick_11">
     <g id="line2d_22">
      <g>
       <use xlink:href="#m15713e0fce" x="62.962512" y="307.872" style="stroke: #000000; stroke-width: 0.8"/>
      </g>
     </g>
     <g id="text_22">
      <!-- 0 -->
      <g transform="translate(59.781262 322.470437) scale(0.1 -0.1)">
       <use xlink:href="#DejaVuSans-30"/>
      </g>
     </g>
    </g>
    <g id="xtick_12">
     <g id="line2d_23">
      <g>
       <use xlink:href="#m15713e0fce" x="101.492603" y="307.872" style="stroke: #000000; stroke-width: 0.8"/>
      </g>
     </g>
     <g id="text_23">
      <!-- 100 -->
      <g transform="translate(91.948853 322.470437) scale(0.1 -0.1)">
       <use xlink:href="#DejaVuSans-31"/>
       <use xlink:href="#DejaVuSans-30" x="63.623047"/>
       <use xlink:href="#DejaVuSans-30" x="127.246094"/>
      </g>
     </g>
    </g>
    <g id="xtick_13">
     <g id="line2d_24">
      <g>
       <use xlink:href="#m15713e0fce" x="140.022694" y="307.872" style="stroke: #000000; stroke-width: 0.8"/>
      </g>
     </g>
     <g id="text_24">
      <!-- 200 -->
      <g transform="translate(130.478944 322.470437) scale(0.1 -0.1)">
       <use xlink:href="#DejaVuSans-32"/>
       <use xlink:href="#DejaVuSans-30" x="63.623047"/>
       <use xlink:href="#DejaVuSans-30" x="127.246094"/>
      </g>
     </g>
    </g>
    <g id="xtick_14">
     <g id="line2d_25">
      <g>
       <use xlink:href="#m15713e0fce" x="178.552785" y="307.872" style="stroke: #000000; stroke-width: 0.8"/>
      </g>
     </g>
     <g id="text_25">
      <!-- 300 -->
      <g transform="translate(169.009035 322.470437) scale(0.1 -0.1)">
       <use xlink:href="#DejaVuSans-33"/>
       <use xlink:href="#DejaVuSans-30" x="63.623047"/>
       <use xlink:href="#DejaVuSans-30" x="127.246094"/>
      </g>
     </g>
    </g>
    <g id="xtick_15">
     <g id="line2d_26">
      <g>
       <use xlink:href="#m15713e0fce" x="217.082876" y="307.872" style="stroke: #000000; stroke-width: 0.8"/>
      </g>
     </g>
     <g id="text_26">
      <!-- 400 -->
      <g transform="translate(207.539126 322.470437) scale(0.1 -0.1)">
       <use xlink:href="#DejaVuSans-34"/>
       <use xlink:href="#DejaVuSans-30" x="63.623047"/>
       <use xlink:href="#DejaVuSans-30" x="127.246094"/>
      </g>
     </g>
    </g>
   </g>
   <g id="matplotlib.axis_6">
    <g id="ytick_10">
     <g id="line2d_27">
      <g>
       <use xlink:href="#mb29dc1b7d5" x="55.584" y="302.832" style="stroke: #000000; stroke-width: 0.8"/>
      </g>
     </g>
     <g id="text_27">
      <!-- 0 -->
      <g transform="translate(42.2215 306.631219) scale(0.1 -0.1)">
       <use xlink:href="#DejaVuSans-30"/>
      </g>
     </g>
    </g>
    <g id="ytick_11">
     <g id="line2d_28">
      <g>
       <use xlink:href="#mb29dc1b7d5" x="55.584" y="278.91391" style="stroke: #000000; stroke-width: 0.8"/>
      </g>
     </g>
     <g id="text_28">
      <!-- 10 -->
      <g transform="translate(35.859 282.713129) scale(0.1 -0.1)">
       <use xlink:href="#DejaVuSans-31"/>
       <use xlink:href="#DejaVuSans-30" x="63.623047"/>
      </g>
     </g>
    </g>
    <g id="ytick_12">
     <g id="line2d_29">
      <g>
       <use xlink:href="#mb29dc1b7d5" x="55.584" y="254.99582" style="stroke: #000000; stroke-width: 0.8"/>
      </g>
     </g>
     <g id="text_29">
      <!-- 20 -->
      <g transform="translate(35.859 258.795038) scale(0.1 -0.1)">
       <use xlink:href="#DejaVuSans-32"/>
       <use xlink:href="#DejaVuSans-30" x="63.623047"/>
      </g>
     </g>
    </g>
    <g id="ytick_13">
     <g id="line2d_30">
      <g>
       <use xlink:href="#mb29dc1b7d5" x="55.584" y="231.077729" style="stroke: #000000; stroke-width: 0.8"/>
      </g>
     </g>
     <g id="text_30">
      <!-- 30 -->
      <g transform="translate(35.859 234.876948) scale(0.1 -0.1)">
       <use xlink:href="#DejaVuSans-33"/>
       <use xlink:href="#DejaVuSans-30" x="63.623047"/>
      </g>
     </g>
    </g>
    <g id="ytick_14">
     <g id="line2d_31">
      <g>
       <use xlink:href="#mb29dc1b7d5" x="55.584" y="207.159639" style="stroke: #000000; stroke-width: 0.8"/>
      </g>
     </g>
     <g id="text_31">
      <!-- 40 -->
      <g transform="translate(35.859 210.958858) scale(0.1 -0.1)">
       <use xlink:href="#DejaVuSans-34"/>
       <use xlink:href="#DejaVuSans-30" x="63.623047"/>
      </g>
     </g>
    </g>
   </g>
   <g id="line2d_32">
    <path d="M 62.962512 206.572067 
L 63.347813 202.032 
L 63.733114 207.154588 
L 64.503716 223.702204 
L 64.889017 228.893785 
L 65.274318 242.603687 
L 65.659619 249.139274 
L 66.04492 253.712399 
L 66.430221 254.723718 
L 66.815521 259.749425 
L 67.200822 258.021484 
L 67.586123 302.832 
L 67.971424 301.074372 
L 68.356725 295.854686 
L 68.742026 286.417161 
L 69.127327 285.821514 
L 69.512628 273.059154 
L 69.897929 240.50294 
L 70.28323 251.537646 
L 71.053831 284.482178 
L 71.824433 291.229069 
L 72.209734 204.612492 
L 72.595035 220.268288 
L 72.980336 223.541101 
L 73.365637 228.438177 
L 73.750938 222.996323 
L 74.136239 221.673777 
L 74.52154 226.030278 
L 74.906841 223.527405 
L 75.292141 225.528151 
L 75.677442 219.947862 
L 76.062743 225.680663 
L 76.448044 227.254743 
L 76.833345 300.585154 
L 77.218646 302.832 
L 81.071655 302.832 
L 81.456956 221.045896 
L 81.842257 227.815761 
L 82.227558 223.791468 
L 82.612859 232.635022 
L 82.99816 231.992768 
L 83.383461 227.383076 
L 83.768761 230.272388 
L 84.539363 241.257742 
L 84.924664 239.97032 
L 85.309965 256.634764 
L 85.695266 256.877403 
L 86.080567 302.832 
L 90.318877 302.832 
L 90.704178 283.422324 
L 91.089479 275.200693 
L 91.47478 274.949565 
L 91.860081 267.171656 
L 92.245381 265.322663 
L 92.630682 267.139091 
L 93.015983 276.518795 
L 93.786585 264.84743 
L 94.557187 260.850798 
L 94.942488 252.148811 
L 95.327789 298.63603 
L 95.71309 297.261183 
L 96.098391 295.237471 
L 96.483691 296.896319 
L 96.868992 300.798149 
L 97.254293 298.855206 
L 97.639594 294.781448 
L 98.410196 302.832 
L 98.795497 300.591506 
L 99.180798 296.545171 
L 99.566099 296.206024 
L 99.9514 237.394162 
L 100.336701 250.26303 
L 101.492603 258.643103 
L 101.877904 259.227049 
L 102.263205 263.803343 
L 103.033807 266.776228 
L 103.419108 266.003276 
L 103.804409 268.080682 
L 104.18971 266.918909 
L 104.575011 298.652529 
L 105.345612 289.991473 
L 105.730913 293.727799 
L 106.116214 302.832 
L 108.042719 302.832 
L 108.42802 296.885231 
L 108.813321 289.11493 
L 109.198621 242.13478 
L 109.583922 238.595465 
L 109.969223 237.618514 
L 110.354524 238.762645 
L 110.739825 240.422331 
L 111.125126 242.721474 
L 111.510427 247.302786 
L 111.895728 254.362947 
L 112.281029 250.882523 
L 112.66633 253.452172 
L 113.05163 259.640361 
L 113.436931 261.346278 
L 113.822232 295.996963 
L 114.207533 299.586624 
L 114.592834 295.195112 
L 114.978135 297.772972 
L 116.134038 293.090525 
L 116.519339 296.19318 
L 116.90464 297.832153 
L 117.28994 297.675619 
L 117.675241 290.497429 
L 118.060542 291.553262 
L 118.445843 263.390663 
L 118.831144 259.830936 
L 119.216445 253.434332 
L 119.601746 251.561311 
L 119.987047 251.350578 
L 120.372348 247.595893 
L 120.757649 248.518449 
L 121.14295 251.649047 
L 121.913551 253.196151 
L 122.298852 251.997292 
L 122.684153 246.395393 
L 123.069454 301.478688 
L 123.454755 301.997452 
L 123.840056 300.462449 
L 124.225357 295.438103 
L 124.995959 283.569121 
L 125.38126 284.426778 
L 125.76656 283.094455 
L 126.151861 281.123183 
L 126.537162 282.092598 
L 126.922463 285.103868 
L 127.307764 286.7248 
L 127.693065 245.920349 
L 128.078366 247.60154 
L 128.463667 242.29345 
L 128.848968 246.023472 
L 129.234269 244.151322 
L 129.61957 240.433486 
L 130.00487 240.789856 
L 130.775472 257.882848 
L 131.160773 255.459431 
L 131.546074 251.255238 
L 131.931375 242.926208 
L 132.316676 291.311213 
L 132.701977 296.514378 
L 133.087278 297.36007 
L 133.472579 291.403054 
L 133.85788 290.365028 
L 134.24318 290.548126 
L 134.628481 292.851679 
L 135.013782 301.167636 
L 135.399083 302.832 
L 136.554986 302.832 
L 136.940287 259.914434 
L 137.710889 268.536621 
L 138.09619 270.973587 
L 138.866791 264.148431 
L 139.252092 264.622734 
L 139.637393 264.812705 
L 140.022694 260.428709 
L 140.407995 261.726031 
L 140.793296 262.006011 
L 141.178597 260.193587 
L 141.563898 302.832 
L 143.490402 302.832 
L 143.875703 298.602385 
L 145.031606 302.832 
L 145.802208 302.832 
L 146.187509 237.470657 
L 146.57281 232.620102 
L 146.95811 233.906381 
L 147.343411 240.105541 
L 147.728712 238.578799 
L 148.114013 238.710286 
L 148.499314 235.119516 
L 148.884615 242.726122 
L 149.269916 242.609557 
L 149.655217 245.847535 
L 150.040518 245.835655 
L 150.425819 250.056865 
L 150.81112 298.143631 
L 151.19642 296.658243 
L 151.581721 298.908433 
L 151.967022 296.427893 
L 152.352323 288.74016 
L 153.122925 291.726051 
L 153.508226 290.874246 
L 153.893527 299.712253 
L 154.278828 300.777192 
L 154.664129 301.394293 
L 155.04943 299.770513 
L 155.43473 233.11469 
L 155.820031 235.688264 
L 156.205332 235.766361 
L 156.975934 249.206066 
L 157.361235 249.744165 
L 157.746536 255.45729 
L 158.131837 257.807747 
L 158.517138 253.345562 
L 158.902439 253.384082 
L 159.67304 252.747624 
L 160.058341 302.832 
L 160.443642 302.096579 
L 160.828943 302.832 
L 161.214244 302.832 
L 161.599545 301.965074 
L 161.984846 300.797278 
L 162.370147 300.628687 
L 162.755448 302.546389 
L 163.140749 302.832 
L 164.296651 281.103778 
L 164.681952 238.364428 
L 165.067253 225.913295 
L 165.452554 220.524836 
L 165.837855 221.429124 
L 166.223156 235.162497 
L 166.608457 237.393662 
L 166.993758 230.25892 
L 167.379059 235.370792 
L 167.764359 237.985668 
L 168.14966 238.757579 
L 168.534961 231.489302 
L 168.920262 235.088279 
L 169.305563 291.95068 
L 169.690864 296.787927 
L 170.076165 291.362164 
L 170.461466 288.458957 
L 170.846767 291.517595 
L 171.232068 288.640125 
L 171.617369 289.774928 
L 172.002669 291.699227 
L 172.38797 302.832 
L 173.543873 302.832 
L 173.929174 242.067446 
L 174.314475 237.78932 
L 174.699776 239.939686 
L 175.085077 236.348932 
L 175.470378 239.217551 
L 175.855679 238.759172 
L 176.240979 241.277608 
L 176.62628 241.882267 
L 177.011581 238.31121 
L 177.396882 240.350924 
L 177.782183 247.640311 
L 178.167484 247.049582 
L 178.552785 289.336093 
L 178.938086 289.150058 
L 179.323387 284.476808 
L 179.708688 296.41568 
L 180.093989 296.140125 
L 180.479289 287.24863 
L 180.86459 290.855818 
L 181.249891 285.206161 
L 181.635192 283.589794 
L 182.020493 283.015023 
L 182.405794 283.441382 
L 182.791095 286.617188 
L 183.176396 261.683657 
L 183.561697 260.167346 
L 183.946998 254.620906 
L 184.332299 257.017754 
L 184.717599 262.409645 
L 185.488201 276.504908 
L 186.644104 268.214442 
L 187.029405 263.713703 
L 187.414706 274.104898 
L 187.800007 295.911741 
L 188.185308 298.758811 
L 188.570609 299.170607 
L 188.955909 294.900159 
L 189.34121 292.418893 
L 189.726511 289.048913 
L 190.111812 290.706894 
L 190.497113 298.376289 
L 190.882414 302.151767 
L 191.267715 302.368219 
L 191.653016 302.832 
L 192.038317 302.207587 
L 192.423618 274.45254 
L 192.808919 273.88395 
L 193.194219 277.1021 
L 194.350122 274.288118 
L 194.735423 268.884947 
L 195.120724 273.970021 
L 195.506025 274.825885 
L 195.891326 274.170905 
L 196.276627 275.271897 
L 196.661928 274.596938 
L 197.047229 300.686315 
L 197.432529 297.70133 
L 197.81783 296.789523 
L 198.203131 296.926162 
L 198.973733 290.611602 
L 199.359034 299.279181 
L 199.744335 302.832 
L 201.285539 302.832 
L 201.670839 260.345718 
L 202.05614 260.271942 
L 202.441441 259.149801 
L 202.826742 256.362224 
L 203.212043 261.030562 
L 203.597344 257.201438 
L 204.367946 262.893571 
L 204.753247 262.343574 
L 205.138548 258.037796 
L 205.523849 261.560759 
L 205.909149 253.968014 
L 206.29445 302.832 
L 207.450353 302.832 
L 207.835654 295.293393 
L 208.220955 297.504241 
L 208.606256 301.037832 
L 208.991557 302.832 
L 209.376858 302.475936 
L 210.147459 299.172078 
L 210.53276 301.369968 
L 210.53276 301.369968 
" clip-path="url(#p8897efdda6)" style="fill: none; stroke: #ffa500; stroke-width: 1.5; stroke-linecap: square"/>
   </g>
   <g id="patch_13">
    <path d="M 55.584 307.872 
L 55.584 196.992 
" style="fill: none; stroke: #000000; stroke-width: 0.8; stroke-linejoin: miter; stroke-linecap: square"/>
   </g>
   <g id="patch_14">
    <path d="M 217.911273 307.872 
L 217.911273 196.992 
" style="fill: none; stroke: #000000; stroke-width: 0.8; stroke-linejoin: miter; stroke-linecap: square"/>
   </g>
   <g id="patch_15">
    <path d="M 55.584 307.872 
L 217.911273 307.872 
" style="fill: none; stroke: #000000; stroke-width: 0.8; stroke-linejoin: miter; stroke-linecap: square"/>
   </g>
   <g id="patch_16">
    <path d="M 55.584 196.992 
L 217.911273 196.992 
" style="fill: none; stroke: #000000; stroke-width: 0.8; stroke-linejoin: miter; stroke-linecap: square"/>
   </g>
   <g id="text_32">
    <!-- VAE -->
    <g transform="translate(125.130136 190.992) scale(0.12 -0.12)">
     <defs>
      <path id="DejaVuSans-56" d="M 1831 0 
L 50 4666 
L 709 4666 
L 2188 738 
L 3669 4666 
L 4325 4666 
L 2547 0 
L 1831 0 
z
" transform="scale(0.015625)"/>
      <path id="DejaVuSans-41" d="M 2188 4044 
L 1331 1722 
L 3047 1722 
L 2188 4044 
z
M 1831 4666 
L 2547 4666 
L 4325 0 
L 3669 0 
L 3244 1197 
L 1141 1197 
L 716 0 
L 50 0 
L 1831 4666 
z
" transform="scale(0.015625)"/>
      <path id="DejaVuSans-45" d="M 628 4666 
L 3578 4666 
L 3578 4134 
L 1259 4134 
L 1259 2753 
L 3481 2753 
L 3481 2222 
L 1259 2222 
L 1259 531 
L 3634 531 
L 3634 0 
L 628 0 
L 628 4666 
z
" transform="scale(0.015625)"/>
     </defs>
     <use xlink:href="#DejaVuSans-56"/>
     <use xlink:href="#DejaVuSans-41" x="62.033203"/>
     <use xlink:href="#DejaVuSans-45" x="130.441406"/>
    </g>
   </g>
  </g>
  <g id="axes_4">
   <g id="patch_17">
    <path d="M 250.376727 307.872 
L 412.704 307.872 
L 412.704 196.992 
L 250.376727 196.992 
z
" style="fill: #ffffff"/>
   </g>
   <g id="matplotlib.axis_7">
    <g id="xtick_16">
     <g id="line2d_33">
      <g>
       <use xlink:href="#m15713e0fce" x="257.75524" y="307.872" style="stroke: #000000; stroke-width: 0.8"/>
      </g>
     </g>
     <g id="text_33">
      <!-- 0 -->
      <g transform="translate(254.57399 322.470437) scale(0.1 -0.1)">
       <use xlink:href="#DejaVuSans-30"/>
      </g>
     </g>
    </g>
    <g id="xtick_17">
     <g id="line2d_34">
      <g>
       <use xlink:href="#m15713e0fce" x="296.285331" y="307.872" style="stroke: #000000; stroke-width: 0.8"/>
      </g>
     </g>
     <g id="text_34">
      <!-- 100 -->
      <g transform="translate(286.741581 322.470437) scale(0.1 -0.1)">
       <use xlink:href="#DejaVuSans-31"/>
       <use xlink:href="#DejaVuSans-30" x="63.623047"/>
       <use xlink:href="#DejaVuSans-30" x="127.246094"/>
      </g>
     </g>
    </g>
    <g id="xtick_18">
     <g id="line2d_35">
      <g>
       <use xlink:href="#m15713e0fce" x="334.815421" y="307.872" style="stroke: #000000; stroke-width: 0.8"/>
      </g>
     </g>
     <g id="text_35">
      <!-- 200 -->
      <g transform="translate(325.271671 322.470437) scale(0.1 -0.1)">
       <use xlink:href="#DejaVuSans-32"/>
       <use xlink:href="#DejaVuSans-30" x="63.623047"/>
       <use xlink:href="#DejaVuSans-30" x="127.246094"/>
      </g>
     </g>
    </g>
    <g id="xtick_19">
     <g id="line2d_36">
      <g>
       <use xlink:href="#m15713e0fce" x="373.345512" y="307.872" style="stroke: #000000; stroke-width: 0.8"/>
      </g>
     </g>
     <g id="text_36">
      <!-- 300 -->
      <g transform="translate(363.801762 322.470437) scale(0.1 -0.1)">
       <use xlink:href="#DejaVuSans-33"/>
       <use xlink:href="#DejaVuSans-30" x="63.623047"/>
       <use xlink:href="#DejaVuSans-30" x="127.246094"/>
      </g>
     </g>
    </g>
    <g id="xtick_20">
     <g id="line2d_37">
      <g>
       <use xlink:href="#m15713e0fce" x="411.875603" y="307.872" style="stroke: #000000; stroke-width: 0.8"/>
      </g>
     </g>
     <g id="text_37">
      <!-- 400 -->
      <g transform="translate(402.331853 322.470437) scale(0.1 -0.1)">
       <use xlink:href="#DejaVuSans-34"/>
       <use xlink:href="#DejaVuSans-30" x="63.623047"/>
       <use xlink:href="#DejaVuSans-30" x="127.246094"/>
      </g>
     </g>
    </g>
   </g>
   <g id="matplotlib.axis_8">
    <g id="ytick_15">
     <g id="line2d_38">
      <g>
       <use xlink:href="#mb29dc1b7d5" x="250.376727" y="302.832" style="stroke: #000000; stroke-width: 0.8"/>
      </g>
     </g>
     <g id="text_38">
      <!-- 0 -->
      <g transform="translate(237.014227 306.631219) scale(0.1 -0.1)">
       <use xlink:href="#DejaVuSans-30"/>
      </g>
     </g>
    </g>
    <g id="ytick_16">
     <g id="line2d_39">
      <g>
       <use xlink:href="#mb29dc1b7d5" x="250.376727" y="278.904465" style="stroke: #000000; stroke-width: 0.8"/>
      </g>
     </g>
     <g id="text_39">
      <!-- 10 -->
      <g transform="translate(230.651727 282.703683) scale(0.1 -0.1)">
       <use xlink:href="#DejaVuSans-31"/>
       <use xlink:href="#DejaVuSans-30" x="63.623047"/>
      </g>
     </g>
    </g>
    <g id="ytick_17">
     <g id="line2d_40">
      <g>
       <use xlink:href="#mb29dc1b7d5" x="250.376727" y="254.976929" style="stroke: #000000; stroke-width: 0.8"/>
      </g>
     </g>
     <g id="text_40">
      <!-- 20 -->
      <g transform="translate(230.651727 258.776148) scale(0.1 -0.1)">
       <use xlink:href="#DejaVuSans-32"/>
       <use xlink:href="#DejaVuSans-30" x="63.623047"/>
      </g>
     </g>
    </g>
    <g id="ytick_18">
     <g id="line2d_41">
      <g>
       <use xlink:href="#mb29dc1b7d5" x="250.376727" y="231.049394" style="stroke: #000000; stroke-width: 0.8"/>
      </g>
     </g>
     <g id="text_41">
      <!-- 30 -->
      <g transform="translate(230.651727 234.848612) scale(0.1 -0.1)">
       <use xlink:href="#DejaVuSans-33"/>
       <use xlink:href="#DejaVuSans-30" x="63.623047"/>
      </g>
     </g>
    </g>
    <g id="ytick_19">
     <g id="line2d_42">
      <g>
       <use xlink:href="#mb29dc1b7d5" x="250.376727" y="207.121858" style="stroke: #000000; stroke-width: 0.8"/>
      </g>
     </g>
     <g id="text_42">
      <!-- 40 -->
      <g transform="translate(230.651727 210.921077) scale(0.1 -0.1)">
       <use xlink:href="#DejaVuSans-34"/>
       <use xlink:href="#DejaVuSans-30" x="63.623047"/>
      </g>
     </g>
    </g>
   </g>
   <g id="line2d_43">
    <path d="M 257.75524 206.53711 
L 258.140541 202.032 
L 258.525841 207.151354 
L 259.296443 223.663849 
L 259.681744 228.867896 
L 260.067045 242.600732 
L 260.837647 253.700469 
L 261.222948 254.722304 
L 261.608249 259.731149 
L 261.99355 257.988714 
L 262.378851 267.548676 
L 262.764151 264.092861 
L 263.149452 264.403964 
L 263.534753 257.86047 
L 263.920054 245.551531 
L 264.305355 227.636523 
L 264.690656 237.581869 
L 265.075957 213.784866 
L 265.461258 254.175067 
L 266.23186 204.336332 
L 266.617161 232.844823 
L 267.002461 204.544877 
L 267.387762 220.233509 
L 267.773063 223.508482 
L 268.158364 228.42533 
L 268.543665 222.960666 
L 268.928966 221.648198 
L 269.314267 225.983315 
L 269.699568 223.525105 
L 270.084869 225.511801 
L 270.47017 219.965221 
L 270.855471 225.660046 
L 271.240771 227.228595 
L 271.626072 239.026544 
L 272.011373 261.384912 
L 272.781975 243.191503 
L 273.167276 245.237905 
L 273.552577 244.533101 
L 273.937878 224.413551 
L 274.323179 269.397454 
L 274.70848 237.089639 
L 275.093781 253.343379 
L 276.249683 221.041271 
L 276.634984 227.773178 
L 277.020285 223.900478 
L 277.405586 232.589186 
L 277.790887 231.929738 
L 278.176188 227.306072 
L 278.561489 230.220903 
L 279.332091 241.237095 
L 279.717391 239.948207 
L 280.102692 256.616083 
L 280.487993 256.85721 
L 280.873294 299.136667 
L 281.258595 302.311385 
L 281.643896 302.832 
L 284.341002 302.832 
L 284.726303 301.006107 
L 285.111604 298.102096 
L 285.496905 283.430415 
L 285.882206 275.168331 
L 286.267507 274.9564 
L 286.652808 267.158914 
L 287.038109 265.325579 
L 287.42341 267.130287 
L 287.808711 276.503042 
L 288.579312 264.810873 
L 289.349914 260.824345 
L 289.735215 252.122003 
L 290.120516 246.475827 
L 290.505817 244.582267 
L 290.891118 244.422694 
L 291.276419 245.135783 
L 291.66172 254.332955 
L 292.047021 242.586658 
L 292.432321 236.936108 
L 292.817622 233.972905 
L 293.202923 244.916889 
L 293.588224 241.150087 
L 293.973525 246.034836 
L 294.358826 260.262211 
L 294.744127 237.375375 
L 295.129428 250.293803 
L 296.285331 258.643417 
L 296.670631 259.219463 
L 297.055932 263.768427 
L 297.826534 266.766095 
L 298.211835 265.987378 
L 298.597136 268.058821 
L 298.982437 266.894091 
L 299.367738 267.916364 
L 299.753039 271.769099 
L 300.13834 274.457424 
L 300.523641 268.401959 
L 300.908941 274.652948 
L 301.294242 255.552315 
L 301.679543 272.695441 
L 302.450145 252.346386 
L 302.835446 244.615194 
L 303.220747 252.320944 
L 303.606048 262.661303 
L 303.991349 242.08851 
L 304.37665 238.609916 
L 304.76195 237.591732 
L 305.147251 238.751028 
L 305.532552 240.401657 
L 305.917853 242.686675 
L 306.303154 247.29341 
L 306.688455 254.334594 
L 307.073756 250.886096 
L 307.459057 253.446644 
L 307.844358 259.615758 
L 308.229659 261.33392 
L 308.61496 267.018614 
L 309.00026 277.624241 
L 309.385561 271.721323 
L 309.770862 273.070793 
L 310.156163 265.267191 
L 310.541464 291.987392 
L 311.312066 273.697864 
L 311.697367 271.899882 
L 312.082668 274.315929 
L 312.467969 270.0223 
L 312.85327 267.803811 
L 314.009172 253.427793 
L 314.394473 251.506288 
L 314.779774 251.32146 
L 315.165075 247.562523 
L 315.550376 249.27421 
L 315.935677 251.627792 
L 316.706279 253.19054 
L 317.09158 251.966972 
L 317.47688 246.446365 
L 317.862181 267.329086 
L 318.247482 262.818167 
L 318.632783 242.595683 
L 319.018084 264.864792 
L 319.403385 253.184328 
L 319.788686 249.982379 
L 320.173987 255.610545 
L 320.559288 241.235465 
L 320.944589 259.419892 
L 321.32989 268.28423 
L 321.71519 260.951137 
L 322.100491 270.497757 
L 322.485792 245.885313 
L 322.871093 247.556122 
L 323.256394 242.266519 
L 323.641695 245.980661 
L 324.026996 244.135346 
L 324.412297 240.420271 
L 324.797598 240.758573 
L 325.5682 257.864463 
L 325.9535 255.440233 
L 326.338801 251.246638 
L 326.724102 242.906337 
L 327.109403 286.823641 
L 327.494704 251.793174 
L 327.880005 247.773109 
L 328.265306 249.970602 
L 328.650607 241.333716 
L 329.035908 253.240814 
L 329.421209 239.086823 
L 329.80651 240.362002 
L 330.19181 252.659265 
L 330.577111 274.32785 
L 330.962412 273.965536 
L 331.347713 271.557783 
L 331.733014 259.909277 
L 332.503616 268.529229 
L 332.888917 270.977815 
L 333.659519 264.140201 
L 334.04482 264.597334 
L 334.43012 264.796744 
L 334.815421 260.380293 
L 335.200722 261.705299 
L 335.586023 261.987379 
L 335.971324 260.186109 
L 336.356625 277.9572 
L 336.741926 269.9102 
L 337.127227 266.580298 
L 337.512528 267.562717 
L 337.897829 269.797247 
L 338.66843 247.176084 
L 339.053731 280.549411 
L 339.439032 268.055612 
L 340.209634 258.824958 
L 340.594935 280.420406 
L 340.980236 237.447906 
L 341.365537 232.583096 
L 341.750838 233.881452 
L 342.136139 240.065222 
L 342.52144 238.544323 
L 342.90674 238.678439 
L 343.292041 235.108767 
L 343.677342 242.778243 
L 344.062643 242.577187 
L 344.447944 245.814571 
L 344.833245 245.815145 
L 345.218546 250.015736 
L 345.989148 265.098234 
L 346.374449 270.722195 
L 346.75975 270.290068 
L 347.14505 271.366343 
L 347.530351 271.123206 
L 347.915652 250.46917 
L 348.300953 252.677909 
L 348.686254 260.524978 
L 349.071555 252.676926 
L 349.456856 248.324277 
L 349.842157 256.776538 
L 350.227458 233.086617 
L 350.612759 235.65235 
L 350.99806 235.748096 
L 351.768661 249.186748 
L 352.153962 249.72914 
L 352.539263 255.451919 
L 352.924564 257.791886 
L 353.309865 253.313762 
L 353.695166 253.362837 
L 354.465768 252.732048 
L 354.851069 260.814102 
L 355.23637 259.416485 
L 355.62167 254.604038 
L 356.006971 266.956783 
L 356.777573 251.695531 
L 357.162874 257.569241 
L 357.548175 257.969189 
L 357.933476 263.182605 
L 358.318777 249.916157 
L 358.704078 251.780993 
L 359.089379 255.637382 
L 359.85998 225.883592 
L 360.245281 220.523494 
L 360.630582 221.408781 
L 361.015883 235.141143 
L 361.401184 237.376475 
L 361.786485 230.241858 
L 362.557087 237.98232 
L 362.942388 238.735176 
L 363.327689 231.463139 
L 363.712989 235.063436 
L 364.09829 267.099188 
L 364.483591 254.57655 
L 364.868892 263.3845 
L 365.254193 251.295094 
L 365.639494 257.481726 
L 366.024795 252.762311 
L 366.410096 263.039233 
L 366.795397 260.448027 
L 367.180698 255.717721 
L 367.565999 270.503993 
L 367.951299 249.961172 
L 368.3366 249.339542 
L 368.721901 241.992063 
L 369.107202 237.758615 
L 369.492503 239.88695 
L 369.877804 236.301397 
L 370.263105 239.188285 
L 370.648406 238.727993 
L 371.033707 241.259893 
L 371.419008 241.855207 
L 371.804309 238.291708 
L 372.189609 240.244836 
L 372.57491 247.606061 
L 372.960211 247.039443 
L 373.345512 271.615963 
L 373.730813 265.925404 
L 374.116114 271.022708 
L 374.501415 268.176398 
L 374.886716 268.146008 
L 375.272017 267.087715 
L 375.657318 278.630279 
L 376.042619 280.806172 
L 376.427919 267.579241 
L 376.81322 259.660395 
L 377.198521 275.14447 
L 377.583822 273.395104 
L 377.969123 261.669915 
L 378.354424 260.133485 
L 378.739725 254.609957 
L 379.125026 257.00217 
L 379.510327 262.413956 
L 380.280929 276.495299 
L 381.436831 268.189595 
L 381.822132 263.703828 
L 382.592734 283.622075 
L 382.978035 286.783778 
L 383.363336 288.218105 
L 383.748637 292.885347 
L 384.133938 293.758076 
L 384.519239 279.161635 
L 384.904539 278.863027 
L 385.28984 286.134543 
L 385.675141 285.902857 
L 386.060442 280.347163 
L 386.445743 281.339677 
L 386.831044 284.792555 
L 387.216345 274.444879 
L 387.601646 273.809608 
L 387.986947 277.045874 
L 389.142849 274.281619 
L 389.52815 268.874185 
L 389.913451 273.957207 
L 390.298752 274.817338 
L 390.684053 274.151312 
L 391.069354 275.251385 
L 391.454655 274.002796 
L 391.839956 293.456438 
L 392.225257 289.937992 
L 392.610558 294.176193 
L 392.995859 281.976822 
L 393.381159 285.903919 
L 393.76646 273.824871 
L 394.151761 272.389162 
L 394.537062 272.31625 
L 394.922363 279.916451 
L 395.307664 278.728667 
L 395.692965 272.116704 
L 396.078266 275.606291 
L 396.463567 260.341411 
L 396.848868 260.267262 
L 397.234169 258.727221 
L 397.619469 256.33124 
L 398.00477 261.009444 
L 398.390071 257.187132 
L 399.160673 262.875389 
L 399.545974 262.33266 
L 399.931275 258.024759 
L 400.316576 261.546454 
L 400.701877 253.950926 
L 401.087178 265.932216 
L 401.472479 281.608044 
L 401.857779 266.18552 
L 402.24308 265.025365 
L 402.628381 267.833534 
L 403.013682 276.99047 
L 403.398983 270.860747 
L 403.784284 267.830957 
L 404.169585 279.741014 
L 404.554886 270.276896 
L 404.940187 292.169574 
L 405.325488 279.42257 
L 405.325488 279.42257 
" clip-path="url(#p6b1c6277af)" style="fill: none; stroke: #ff0000; stroke-width: 1.5; stroke-linecap: square"/>
   </g>
   <g id="patch_18">
    <path d="M 250.376727 307.872 
L 250.376727 196.992 
" style="fill: none; stroke: #000000; stroke-width: 0.8; stroke-linejoin: miter; stroke-linecap: square"/>
   </g>
   <g id="patch_19">
    <path d="M 412.704 307.872 
L 412.704 196.992 
" style="fill: none; stroke: #000000; stroke-width: 0.8; stroke-linejoin: miter; stroke-linecap: square"/>
   </g>
   <g id="patch_20">
    <path d="M 250.376727 307.872 
L 412.704 307.872 
" style="fill: none; stroke: #000000; stroke-width: 0.8; stroke-linejoin: miter; stroke-linecap: square"/>
   </g>
   <g id="patch_21">
    <path d="M 250.376727 196.992 
L 412.704 196.992 
" style="fill: none; stroke: #000000; stroke-width: 0.8; stroke-linejoin: miter; stroke-linecap: square"/>
   </g>
   <g id="text_43">
    <!-- VRNN -->
    <g transform="translate(314.289426 190.992) scale(0.12 -0.12)">
     <use xlink:href="#DejaVuSans-56"/>
     <use xlink:href="#DejaVuSans-52" x="68.408203"/>
     <use xlink:href="#DejaVuSans-4e" x="137.890625"/>
     <use xlink:href="#DejaVuSans-4e" x="212.695312"/>
    </g>
   </g>
  </g>
  <g id="text_44">
   <!-- VMAF Scores Over Frames: Video #31 -->
   <g transform="translate(114.338063 16.318125) scale(0.12 -0.12)">
    <defs>
     <path id="DejaVuSans-4d" d="M 628 4666 
L 1569 4666 
L 2759 1491 
L 3956 4666 
L 4897 4666 
L 4897 0 
L 4281 0 
L 4281 4097 
L 3078 897 
L 2444 897 
L 1241 4097 
L 1241 0 
L 628 0 
L 628 4666 
z
" transform="scale(0.015625)"/>
     <path id="DejaVuSans-73" d="M 2834 3397 
L 2834 2853 
Q 2591 2978 2328 3040 
Q 2066 3103 1784 3103 
Q 1356 3103 1142 2972 
Q 928 2841 928 2578 
Q 928 2378 1081 2264 
Q 1234 2150 1697 2047 
L 1894 2003 
Q 2506 1872 2764 1633 
Q 3022 1394 3022 966 
Q 3022 478 2636 193 
Q 2250 -91 1575 -91 
Q 1294 -91 989 -36 
Q 684 19 347 128 
L 347 722 
Q 666 556 975 473 
Q 1284 391 1588 391 
Q 1994 391 2212 530 
Q 2431 669 2431 922 
Q 2431 1156 2273 1281 
Q 2116 1406 1581 1522 
L 1381 1569 
Q 847 1681 609 1914 
Q 372 2147 372 2553 
Q 372 3047 722 3315 
Q 1072 3584 1716 3584 
Q 2034 3584 2315 3537 
Q 2597 3491 2834 3397 
z
" transform="scale(0.015625)"/>
     <path id="DejaVuSans-76" d="M 191 3500 
L 800 3500 
L 1894 563 
L 2988 3500 
L 3597 3500 
L 2284 0 
L 1503 0 
L 191 3500 
z
" transform="scale(0.015625)"/>
     <path id="DejaVuSans-61" d="M 2194 1759 
Q 1497 1759 1228 1600 
Q 959 1441 959 1056 
Q 959 750 1161 570 
Q 1363 391 1709 391 
Q 2188 391 2477 730 
Q 2766 1069 2766 1631 
L 2766 1759 
L 2194 1759 
z
M 3341 1997 
L 3341 0 
L 2766 0 
L 2766 531 
Q 2569 213 2275 61 
Q 1981 -91 1556 -91 
Q 1019 -91 701 211 
Q 384 513 384 1019 
Q 384 1609 779 1909 
Q 1175 2209 1959 2209 
L 2766 2209 
L 2766 2266 
Q 2766 2663 2505 2880 
Q 2244 3097 1772 3097 
Q 1472 3097 1187 3025 
Q 903 2953 641 2809 
L 641 3341 
Q 956 3463 1253 3523 
Q 1550 3584 1831 3584 
Q 2591 3584 2966 3190 
Q 3341 2797 3341 1997 
z
" transform="scale(0.015625)"/>
     <path id="DejaVuSans-6d" d="M 3328 2828 
Q 3544 3216 3844 3400 
Q 4144 3584 4550 3584 
Q 5097 3584 5394 3201 
Q 5691 2819 5691 2113 
L 5691 0 
L 5113 0 
L 5113 2094 
Q 5113 2597 4934 2840 
Q 4756 3084 4391 3084 
Q 3944 3084 3684 2787 
Q 3425 2491 3425 1978 
L 3425 0 
L 2847 0 
L 2847 2094 
Q 2847 2600 2669 2842 
Q 2491 3084 2119 3084 
Q 1678 3084 1418 2786 
Q 1159 2488 1159 1978 
L 1159 0 
L 581 0 
L 581 3500 
L 1159 3500 
L 1159 2956 
Q 1356 3278 1631 3431 
Q 1906 3584 2284 3584 
Q 2666 3584 2933 3390 
Q 3200 3197 3328 2828 
z
" transform="scale(0.015625)"/>
     <path id="DejaVuSans-3a" d="M 750 794 
L 1409 794 
L 1409 0 
L 750 0 
L 750 794 
z
M 750 3309 
L 1409 3309 
L 1409 2516 
L 750 2516 
L 750 3309 
z
" transform="scale(0.015625)"/>
     <path id="DejaVuSans-23" d="M 3272 2816 
L 2363 2816 
L 2100 1772 
L 3016 1772 
L 3272 2816 
z
M 2803 4594 
L 2478 3297 
L 3391 3297 
L 3719 4594 
L 4219 4594 
L 3897 3297 
L 4872 3297 
L 4872 2816 
L 3775 2816 
L 3519 1772 
L 4513 1772 
L 4513 1294 
L 3397 1294 
L 3072 0 
L 2572 0 
L 2894 1294 
L 1978 1294 
L 1656 0 
L 1153 0 
L 1478 1294 
L 494 1294 
L 494 1772 
L 1594 1772 
L 1856 2816 
L 850 2816 
L 850 3297 
L 1978 3297 
L 2297 4594 
L 2803 4594 
z
" transform="scale(0.015625)"/>
    </defs>
    <use xlink:href="#DejaVuSans-56"/>
    <use xlink:href="#DejaVuSans-4d" x="68.408203"/>
    <use xlink:href="#DejaVuSans-41" x="154.6875"/>
    <use xlink:href="#DejaVuSans-46" x="223.095703"/>
    <use xlink:href="#DejaVuSans-20" x="280.615234"/>
    <use xlink:href="#DejaVuSans-53" x="312.402344"/>
    <use xlink:href="#DejaVuSans-63" x="375.878906"/>
    <use xlink:href="#DejaVuSans-6f" x="430.859375"/>
    <use xlink:href="#DejaVuSans-72" x="492.041016"/>
    <use xlink:href="#DejaVuSans-65" x="530.904297"/>
    <use xlink:href="#DejaVuSans-73" x="592.427734"/>
    <use xlink:href="#DejaVuSans-20" x="644.527344"/>
    <use xlink:href="#DejaVuSans-4f" x="676.314453"/>
    <use xlink:href="#DejaVuSans-76" x="755.025391"/>
    <use xlink:href="#DejaVuSans-65" x="814.205078"/>
    <use xlink:href="#DejaVuSans-72" x="875.728516"/>
    <use xlink:href="#DejaVuSans-20" x="916.841797"/>
    <use xlink:href="#DejaVuSans-46" x="948.628906"/>
    <use xlink:href="#DejaVuSans-72" x="998.898438"/>
    <use xlink:href="#DejaVuSans-61" x="1040.011719"/>
    <use xlink:href="#DejaVuSans-6d" x="1101.291016"/>
    <use xlink:href="#DejaVuSans-65" x="1198.703125"/>
    <use xlink:href="#DejaVuSans-73" x="1260.226562"/>
    <use xlink:href="#DejaVuSans-3a" x="1312.326172"/>
    <use xlink:href="#DejaVuSans-20" x="1346.017578"/>
    <use xlink:href="#DejaVuSans-56" x="1377.804688"/>
    <use xlink:href="#DejaVuSans-69" x="1443.962891"/>
    <use xlink:href="#DejaVuSans-64" x="1471.746094"/>
    <use xlink:href="#DejaVuSans-65" x="1535.222656"/>
    <use xlink:href="#DejaVuSans-6f" x="1596.746094"/>
    <use xlink:href="#DejaVuSans-20" x="1657.927734"/>
    <use xlink:href="#DejaVuSans-23" x="1689.714844"/>
    <use xlink:href="#DejaVuSans-33" x="1773.503906"/>
    <use xlink:href="#DejaVuSans-31" x="1837.126953"/>
   </g>
  </g>
  <g id="text_45">
   <!-- Video Frames -->
   <g transform="translate(187.847438 339.936375) scale(0.12 -0.12)">
    <use xlink:href="#DejaVuSans-56"/>
    <use xlink:href="#DejaVuSans-69" x="66.158203"/>
    <use xlink:href="#DejaVuSans-64" x="93.941406"/>
    <use xlink:href="#DejaVuSans-65" x="157.417969"/>
    <use xlink:href="#DejaVuSans-6f" x="218.941406"/>
    <use xlink:href="#DejaVuSans-20" x="280.123047"/>
    <use xlink:href="#DejaVuSans-46" x="311.910156"/>
    <use xlink:href="#DejaVuSans-72" x="362.179688"/>
    <use xlink:href="#DejaVuSans-61" x="403.292969"/>
    <use xlink:href="#DejaVuSans-6d" x="464.572266"/>
    <use xlink:href="#DejaVuSans-65" x="561.984375"/>
    <use xlink:href="#DejaVuSans-73" x="623.507812"/>
   </g>
  </g>
  <g id="text_46">
   <!-- Raw VMAF Scores -->
   <g transform="translate(16.318125 226.284562) rotate(-90) scale(0.12 -0.12)">
    <defs>
     <path id="DejaVuSans-77" d="M 269 3500 
L 844 3500 
L 1563 769 
L 2278 3500 
L 2956 3500 
L 3675 769 
L 4391 3500 
L 4966 3500 
L 4050 0 
L 3372 0 
L 2619 2869 
L 1863 0 
L 1184 0 
L 269 3500 
z
" transform="scale(0.015625)"/>
    </defs>
    <use xlink:href="#DejaVuSans-52"/>
    <use xlink:href="#DejaVuSans-61" x="67.232422"/>
    <use xlink:href="#DejaVuSans-77" x="128.511719"/>
    <use xlink:href="#DejaVuSans-20" x="210.298828"/>
    <use xlink:href="#DejaVuSans-56" x="242.085938"/>
    <use xlink:href="#DejaVuSans-4d" x="310.494141"/>
    <use xlink:href="#DejaVuSans-41" x="396.773438"/>
    <use xlink:href="#DejaVuSans-46" x="465.181641"/>
    <use xlink:href="#DejaVuSans-20" x="522.701172"/>
    <use xlink:href="#DejaVuSans-53" x="554.488281"/>
    <use xlink:href="#DejaVuSans-63" x="617.964844"/>
    <use xlink:href="#DejaVuSans-6f" x="672.945312"/>
    <use xlink:href="#DejaVuSans-72" x="734.126953"/>
    <use xlink:href="#DejaVuSans-65" x="772.990234"/>
    <use xlink:href="#DejaVuSans-73" x="834.513672"/>
   </g>
  </g>
 </g>
 <defs>
  <clipPath id="p86bbbdfad6">
   <rect x="55.584" y="41.76" width="162.327273" height="110.88"/>
  </clipPath>
  <clipPath id="p92abec6cef">
   <rect x="250.376727" y="41.76" width="162.327273" height="110.88"/>
  </clipPath>
  <clipPath id="p8897efdda6">
   <rect x="55.584" y="196.992" width="162.327273" height="110.88"/>
  </clipPath>
  <clipPath id="p6b1c6277af">
   <rect x="250.376727" y="196.992" width="162.327273" height="110.88"/>
  </clipPath>
 </defs>
</svg>
