<?xml version="1.0" encoding="utf-8" standalone="no"?>
<!DOCTYPE svg PUBLIC "-//W3C//DTD SVG 1.1//EN"
  "http://www.w3.org/Graphics/SVG/1.1/DTD/svg11.dtd">
<svg xmlns:xlink="http://www.w3.org/1999/xlink" width="428.753604pt" height="349.632pt" viewBox="0 0 428.753604 349.632" xmlns="http://www.w3.org/2000/svg" version="1.1">
 <metadata>
  <rdf:RDF xmlns:dc="http://purl.org/dc/elements/1.1/" xmlns:cc="http://creativecommons.org/ns#" xmlns:rdf="http://www.w3.org/1999/02/22-rdf-syntax-ns#">
   <cc:Work>
    <dc:type rdf:resource="http://purl.org/dc/dcmitype/StillImage"/>
    <dc:date>2024-07-24T16:31:55.382312</dc:date>
    <dc:format>image/svg+xml</dc:format>
    <dc:creator>
     <cc:Agent>
      <dc:title>Matplotlib v3.7.2, https://matplotlib.org/</dc:title>
     </cc:Agent>
    </dc:creator>
   </cc:Work>
  </rdf:RDF>
 </metadata>
 <defs>
  <style type="text/css">*{stroke-linejoin: round; stroke-linecap: butt}</style>
 </defs>
 <g id="figure_1">
  <g id="patch_1">
   <path d="M 0 349.632 
L 428.753604 349.632 
L 428.753604 -0 
L 0 -0 
z
" style="fill: #ffffff"/>
  </g>
  <g id="axes_1">
   <g id="patch_2">
    <path d="M 55.584 152.64 
L 217.911273 152.64 
L 217.911273 41.76 
L 55.584 41.76 
z
" style="fill: #ffffff"/>
   </g>
   <g id="matplotlib.axis_1">
    <g id="xtick_1">
     <g id="line2d_1">
      <defs>
       <path id="md375515246" d="M 0 0 
L 0 3.5 
" style="stroke: #000000; stroke-width: 0.8"/>
      </defs>
      <g>
       <use xlink:href="#md375515246" x="62.962512" y="152.64" style="stroke: #000000; stroke-width: 0.8"/>
      </g>
     </g>
     <g id="text_1">
      <!-- 0 -->
      <g transform="translate(59.781262 167.238437) scale(0.1 -0.1)">
       <defs>
        <path id="DejaVuSans-30" d="M 2034 4250 
Q 1547 4250 1301 3770 
Q 1056 3291 1056 2328 
Q 1056 1369 1301 889 
Q 1547 409 2034 409 
Q 2525 409 2770 889 
Q 3016 1369 3016 2328 
Q 3016 3291 2770 3770 
Q 2525 4250 2034 4250 
z
M 2034 4750 
Q 2819 4750 3233 4129 
Q 3647 3509 3647 2328 
Q 3647 1150 3233 529 
Q 2819 -91 2034 -91 
Q 1250 -91 836 529 
Q 422 1150 422 2328 
Q 422 3509 836 4129 
Q 1250 4750 2034 4750 
z
" transform="scale(0.015625)"/>
       </defs>
       <use xlink:href="#DejaVuSans-30"/>
      </g>
     </g>
    </g>
    <g id="xtick_2">
     <g id="line2d_2">
      <g>
       <use xlink:href="#md375515246" x="114.380717" y="152.64" style="stroke: #000000; stroke-width: 0.8"/>
      </g>
     </g>
     <g id="text_2">
      <!-- 100 -->
      <g transform="translate(104.836967 167.238437) scale(0.1 -0.1)">
       <defs>
        <path id="DejaVuSans-31" d="M 794 531 
L 1825 531 
L 1825 4091 
L 703 3866 
L 703 4441 
L 1819 4666 
L 2450 4666 
L 2450 531 
L 3481 531 
L 3481 0 
L 794 0 
L 794 531 
z
" transform="scale(0.015625)"/>
       </defs>
       <use xlink:href="#DejaVuSans-31"/>
       <use xlink:href="#DejaVuSans-30" x="63.623047"/>
       <use xlink:href="#DejaVuSans-30" x="127.246094"/>
      </g>
     </g>
    </g>
    <g id="xtick_3">
     <g id="line2d_3">
      <g>
       <use xlink:href="#md375515246" x="165.798922" y="152.64" style="stroke: #000000; stroke-width: 0.8"/>
      </g>
     </g>
     <g id="text_3">
      <!-- 200 -->
      <g transform="translate(156.255172 167.238437) scale(0.1 -0.1)">
       <defs>
        <path id="DejaVuSans-32" d="M 1228 531 
L 3431 531 
L 3431 0 
L 469 0 
L 469 531 
Q 828 903 1448 1529 
Q 2069 2156 2228 2338 
Q 2531 2678 2651 2914 
Q 2772 3150 2772 3378 
Q 2772 3750 2511 3984 
Q 2250 4219 1831 4219 
Q 1534 4219 1204 4116 
Q 875 4013 500 3803 
L 500 4441 
Q 881 4594 1212 4672 
Q 1544 4750 1819 4750 
Q 2544 4750 2975 4387 
Q 3406 4025 3406 3419 
Q 3406 3131 3298 2873 
Q 3191 2616 2906 2266 
Q 2828 2175 2409 1742 
Q 1991 1309 1228 531 
z
" transform="scale(0.015625)"/>
       </defs>
       <use xlink:href="#DejaVuSans-32"/>
       <use xlink:href="#DejaVuSans-30" x="63.623047"/>
       <use xlink:href="#DejaVuSans-30" x="127.246094"/>
      </g>
     </g>
    </g>
    <g id="xtick_4">
     <g id="line2d_4">
      <g>
       <use xlink:href="#md375515246" x="217.217127" y="152.64" style="stroke: #000000; stroke-width: 0.8"/>
      </g>
     </g>
     <g id="text_4">
      <!-- 300 -->
      <g transform="translate(207.673377 167.238437) scale(0.1 -0.1)">
       <defs>
        <path id="DejaVuSans-33" d="M 2597 2516 
Q 3050 2419 3304 2112 
Q 3559 1806 3559 1356 
Q 3559 666 3084 287 
Q 2609 -91 1734 -91 
Q 1441 -91 1130 -33 
Q 819 25 488 141 
L 488 750 
Q 750 597 1062 519 
Q 1375 441 1716 441 
Q 2309 441 2620 675 
Q 2931 909 2931 1356 
Q 2931 1769 2642 2001 
Q 2353 2234 1838 2234 
L 1294 2234 
L 1294 2753 
L 1863 2753 
Q 2328 2753 2575 2939 
Q 2822 3125 2822 3475 
Q 2822 3834 2567 4026 
Q 2313 4219 1838 4219 
Q 1578 4219 1281 4162 
Q 984 4106 628 3988 
L 628 4550 
Q 988 4650 1302 4700 
Q 1616 4750 1894 4750 
Q 2613 4750 3031 4423 
Q 3450 4097 3450 3541 
Q 3450 3153 3228 2886 
Q 3006 2619 2597 2516 
z
" transform="scale(0.015625)"/>
       </defs>
       <use xlink:href="#DejaVuSans-33"/>
       <use xlink:href="#DejaVuSans-30" x="63.623047"/>
       <use xlink:href="#DejaVuSans-30" x="127.246094"/>
      </g>
     </g>
    </g>
   </g>
   <g id="matplotlib.axis_2">
    <g id="ytick_1">
     <g id="line2d_5">
      <defs>
       <path id="m9f75d63054" d="M 0 0 
L -3.5 0 
" style="stroke: #000000; stroke-width: 0.8"/>
      </defs>
      <g>
       <use xlink:href="#m9f75d63054" x="55.584" y="133.776048" style="stroke: #000000; stroke-width: 0.8"/>
      </g>
     </g>
     <g id="text_5">
      <!-- 10 -->
      <g transform="translate(35.859 137.575267) scale(0.1 -0.1)">
       <use xlink:href="#DejaVuSans-31"/>
       <use xlink:href="#DejaVuSans-30" x="63.623047"/>
      </g>
     </g>
    </g>
    <g id="ytick_2">
     <g id="line2d_6">
      <g>
       <use xlink:href="#m9f75d63054" x="55.584" y="110.550682" style="stroke: #000000; stroke-width: 0.8"/>
      </g>
     </g>
     <g id="text_6">
      <!-- 20 -->
      <g transform="translate(35.859 114.349901) scale(0.1 -0.1)">
       <use xlink:href="#DejaVuSans-32"/>
       <use xlink:href="#DejaVuSans-30" x="63.623047"/>
      </g>
     </g>
    </g>
    <g id="ytick_3">
     <g id="line2d_7">
      <g>
       <use xlink:href="#m9f75d63054" x="55.584" y="87.325316" style="stroke: #000000; stroke-width: 0.8"/>
      </g>
     </g>
     <g id="text_7">
      <!-- 30 -->
      <g transform="translate(35.859 91.124535) scale(0.1 -0.1)">
       <use xlink:href="#DejaVuSans-33"/>
       <use xlink:href="#DejaVuSans-30" x="63.623047"/>
      </g>
     </g>
    </g>
    <g id="ytick_4">
     <g id="line2d_8">
      <g>
       <use xlink:href="#m9f75d63054" x="55.584" y="64.09995" style="stroke: #000000; stroke-width: 0.8"/>
      </g>
     </g>
     <g id="text_8">
      <!-- 40 -->
      <g transform="translate(35.859 67.899169) scale(0.1 -0.1)">
       <defs>
        <path id="DejaVuSans-34" d="M 2419 4116 
L 825 1625 
L 2419 1625 
L 2419 4116 
z
M 2253 4666 
L 3047 4666 
L 3047 1625 
L 3713 1625 
L 3713 1100 
L 3047 1100 
L 3047 0 
L 2419 0 
L 2419 1100 
L 313 1100 
L 313 1709 
L 2253 4666 
z
" transform="scale(0.015625)"/>
       </defs>
       <use xlink:href="#DejaVuSans-34"/>
       <use xlink:href="#DejaVuSans-30" x="63.623047"/>
      </g>
     </g>
    </g>
   </g>
   <g id="line2d_9">
    <path d="M 62.962512 53.442557 
L 63.990876 46.8 
L 64.505059 48.405131 
L 65.019241 61.867301 
L 66.047605 66.205523 
L 66.561787 65.48706 
L 67.075969 65.669848 
L 67.590151 74.936614 
L 68.104333 75.326205 
L 69.132697 69.709334 
L 69.646879 90.319243 
L 70.161061 82.151724 
L 70.675243 82.484939 
L 71.189425 84.000958 
L 71.703607 86.061933 
L 72.217789 82.450159 
L 72.731971 87.318312 
L 73.246153 86.621188 
L 73.760335 87.336527 
L 74.274517 89.215429 
L 75.302882 100.029506 
L 75.817064 91.524114 
L 76.331246 109.99891 
L 76.845428 107.379026 
L 77.35961 106.363818 
L 77.873792 110.225992 
L 78.387974 110.798246 
L 78.902156 109.669554 
L 79.416338 106.101764 
L 79.93052 100.873817 
L 80.444702 99.53945 
L 80.958884 98.525519 
L 81.473066 93.117542 
L 81.987248 92.732337 
L 82.50143 101.13965 
L 83.015612 105.079302 
L 83.529794 99.458594 
L 84.043976 102.81193 
L 84.558158 102.088945 
L 85.07234 98.4957 
L 85.586523 98.222405 
L 86.100705 96.939301 
L 86.614887 98.001174 
L 87.129069 95.975969 
L 87.643251 97.709387 
L 88.157433 97.069091 
L 88.671615 97.669574 
L 89.185797 91.593704 
L 89.699979 89.343317 
L 90.214161 88.980049 
L 90.728343 93.478719 
L 91.242525 89.461662 
L 91.756707 83.824606 
L 92.270889 79.971408 
L 92.785071 81.552329 
L 93.299253 91.751298 
L 93.813435 105.462067 
L 94.841799 116.722751 
L 95.870164 118.550862 
L 96.384346 120.502773 
L 96.898528 112.183124 
L 97.41271 110.815122 
L 97.926892 113.709065 
L 98.441074 110.589957 
L 98.955256 105.026225 
L 99.469438 97.971659 
L 99.98362 92.555901 
L 100.497802 90.060068 
L 101.011984 89.106089 
L 101.526166 95.905807 
L 102.55453 83.642846 
L 103.068712 84.472905 
L 103.582894 84.550782 
L 104.097076 86.332862 
L 104.611258 89.529301 
L 105.12544 89.247589 
L 105.639622 88.56305 
L 106.153804 84.993378 
L 106.667987 87.287445 
L 107.182169 86.724523 
L 107.696351 96.959384 
L 108.210533 103.393598 
L 108.724715 106.717477 
L 109.238897 106.392603 
L 109.753079 101.734275 
L 110.267261 99.505279 
L 110.781443 99.697371 
L 111.295625 95.388755 
L 111.809807 95.501651 
L 112.323989 89.970651 
L 112.838171 91.160486 
L 113.866535 80.304723 
L 114.380717 83.84025 
L 114.894899 88.85365 
L 115.409081 96.809406 
L 115.923263 94.940573 
L 116.437445 101.195747 
L 116.951627 111.728134 
L 117.46581 111.395842 
L 117.979992 113.419224 
L 118.494174 112.061743 
L 119.008356 111.050994 
L 119.522538 110.626917 
L 120.03672 115.073836 
L 120.550902 118.280282 
L 121.065084 117.573343 
L 121.579266 107.478183 
L 122.093448 113.138255 
L 122.60763 111.566165 
L 123.121812 117.144954 
L 123.635994 112.454359 
L 124.150176 112.31078 
L 124.664358 101.175594 
L 125.17854 107.849189 
L 125.692722 120.72634 
L 126.206904 117.025959 
L 126.721086 114.785984 
L 127.235268 109.646456 
L 127.749451 119.429194 
L 128.263633 116.767065 
L 128.777815 112.31434 
L 129.291997 104.400243 
L 129.806179 107.613849 
L 130.320361 116.92582 
L 130.834543 108.092654 
L 131.348725 108.056018 
L 131.862907 115.802994 
L 132.377089 117.747722 
L 132.891271 103.04947 
L 133.405453 105.612391 
L 133.919635 113.887645 
L 134.433817 116.003887 
L 135.976363 115.752686 
L 137.004727 127.529008 
L 138.033091 125.156788 
L 138.547274 127.700351 
L 139.061456 133.249086 
L 139.575638 134.752726 
L 140.08982 132.794542 
L 140.604002 133.263997 
L 141.118184 134.424071 
L 141.632366 124.223286 
L 142.146548 123.456166 
L 142.66073 128.553474 
L 143.174912 131.980344 
L 143.689094 131.807594 
L 144.203276 132.634289 
L 145.23164 123.256177 
L 145.745822 115.454862 
L 146.260004 113.917933 
L 146.774186 117.241348 
L 147.288368 113.532232 
L 147.80255 112.584711 
L 148.316732 110.24552 
L 148.830915 106.456561 
L 149.345097 111.812414 
L 149.859279 113.337332 
L 150.373461 115.729317 
L 150.887643 118.722142 
L 151.401825 122.413765 
L 151.916007 128.402061 
L 152.430189 130.152917 
L 152.944371 137.216807 
L 153.458553 137.240946 
L 153.972735 134.461338 
L 154.486917 137.290878 
L 155.001099 138.625403 
L 155.515281 142.138325 
L 156.029463 141.281263 
L 156.543645 142.393753 
L 157.057827 136.288589 
L 157.572009 133.548739 
L 158.086191 125.351386 
L 158.600373 135.893145 
L 159.114555 131.285172 
L 159.628738 128.113521 
L 160.14292 130.276615 
L 161.171284 141.528062 
L 161.685466 147.6 
L 162.199648 146.225929 
L 162.71383 144.073386 
L 163.228012 137.157961 
L 163.742194 139.791553 
L 164.256376 139.219101 
L 164.770558 134.192173 
L 165.28474 134.923725 
L 165.798922 132.47772 
L 166.313104 128.071569 
L 167.341468 122.749869 
L 167.85565 122.089959 
L 168.369832 116.744346 
L 168.884014 103.885511 
L 169.398196 98.767219 
L 169.912378 108.9138 
L 170.940743 121.068159 
L 171.454925 121.044827 
L 171.969107 121.798075 
L 172.483289 120.142373 
L 172.997471 120.067481 
L 173.511653 119.238286 
L 174.025835 122.179635 
L 174.540017 119.674449 
L 175.054199 114.738376 
L 175.568381 111.772848 
L 176.082563 107.603599 
L 176.596745 108.832553 
L 177.110927 105.215879 
L 177.625109 104.424381 
L 178.139291 108.801536 
L 179.167655 100.015194 
L 179.681837 103.691486 
L 180.710202 96.767101 
L 181.224384 88.281997 
L 181.738566 96.259708 
L 182.252748 95.542734 
L 182.76693 89.274498 
L 183.281112 87.082911 
L 183.795294 81.869669 
L 184.309476 88.926887 
L 184.823658 91.288658 
L 185.33784 90.644488 
L 185.852022 101.282201 
L 186.880386 112.876231 
L 187.394568 117.567291 
L 187.90875 118.605711 
L 188.422932 116.774723 
L 188.937114 113.468197 
L 189.451296 119.638908 
L 189.965478 123.331176 
L 190.47966 125.782289 
L 190.993842 126.110064 
L 191.508025 128.339148 
L 192.022207 120.51249 
L 192.536389 119.138689 
L 193.050571 113.563753 
L 193.564753 113.173604 
L 194.078935 108.523345 
L 194.593117 113.757539 
L 195.107299 116.911829 
L 195.621481 117.620837 
L 196.135663 116.570572 
L 196.649845 116.598842 
L 197.164027 110.274879 
L 197.678209 108.160047 
L 198.706573 111.012674 
L 199.220755 113.150467 
L 199.734937 112.50346 
L 200.249119 119.866637 
L 200.763301 125.548809 
L 201.277483 127.270301 
L 201.791666 126.37435 
L 202.305848 128.476457 
L 202.82003 126.196896 
L 203.334212 126.044582 
L 203.848394 129.608839 
L 204.362576 127.510544 
L 204.876758 126.025119 
L 205.39094 122.241907 
L 205.905122 121.927997 
L 206.419304 123.321382 
L 206.933486 128.109048 
L 207.447668 129.071365 
L 207.96185 133.133565 
L 208.476032 131.434414 
L 208.990214 126.72928 
L 209.504396 119.257974 
L 210.018578 117.934577 
L 210.53276 112.153479 
L 210.53276 112.153479 
" clip-path="url(#p58c43821c1)" style="fill: none; stroke: #008000; stroke-width: 1.5; stroke-linecap: square"/>
   </g>
   <g id="patch_3">
    <path d="M 55.584 152.64 
L 55.584 41.76 
" style="fill: none; stroke: #000000; stroke-width: 0.8; stroke-linejoin: miter; stroke-linecap: square"/>
   </g>
   <g id="patch_4">
    <path d="M 217.911273 152.64 
L 217.911273 41.76 
" style="fill: none; stroke: #000000; stroke-width: 0.8; stroke-linejoin: miter; stroke-linecap: square"/>
   </g>
   <g id="patch_5">
    <path d="M 55.584 152.64 
L 217.911273 152.64 
" style="fill: none; stroke: #000000; stroke-width: 0.8; stroke-linejoin: miter; stroke-linecap: square"/>
   </g>
   <g id="patch_6">
    <path d="M 55.584 41.76 
L 217.911273 41.76 
" style="fill: none; stroke: #000000; stroke-width: 0.8; stroke-linejoin: miter; stroke-linecap: square"/>
   </g>
   <g id="text_9">
    <!-- No Prediction (FOSS) -->
    <g transform="translate(74.495761 35.76) scale(0.12 -0.12)">
     <defs>
      <path id="DejaVuSans-4e" d="M 628 4666 
L 1478 4666 
L 3547 763 
L 3547 4666 
L 4159 4666 
L 4159 0 
L 3309 0 
L 1241 3903 
L 1241 0 
L 628 0 
L 628 4666 
z
" transform="scale(0.015625)"/>
      <path id="DejaVuSans-6f" d="M 1959 3097 
Q 1497 3097 1228 2736 
Q 959 2375 959 1747 
Q 959 1119 1226 758 
Q 1494 397 1959 397 
Q 2419 397 2687 759 
Q 2956 1122 2956 1747 
Q 2956 2369 2687 2733 
Q 2419 3097 1959 3097 
z
M 1959 3584 
Q 2709 3584 3137 3096 
Q 3566 2609 3566 1747 
Q 3566 888 3137 398 
Q 2709 -91 1959 -91 
Q 1206 -91 779 398 
Q 353 888 353 1747 
Q 353 2609 779 3096 
Q 1206 3584 1959 3584 
z
" transform="scale(0.015625)"/>
      <path id="DejaVuSans-20" transform="scale(0.015625)"/>
      <path id="DejaVuSans-50" d="M 1259 4147 
L 1259 2394 
L 2053 2394 
Q 2494 2394 2734 2622 
Q 2975 2850 2975 3272 
Q 2975 3691 2734 3919 
Q 2494 4147 2053 4147 
L 1259 4147 
z
M 628 4666 
L 2053 4666 
Q 2838 4666 3239 4311 
Q 3641 3956 3641 3272 
Q 3641 2581 3239 2228 
Q 2838 1875 2053 1875 
L 1259 1875 
L 1259 0 
L 628 0 
L 628 4666 
z
" transform="scale(0.015625)"/>
      <path id="DejaVuSans-72" d="M 2631 2963 
Q 2534 3019 2420 3045 
Q 2306 3072 2169 3072 
Q 1681 3072 1420 2755 
Q 1159 2438 1159 1844 
L 1159 0 
L 581 0 
L 581 3500 
L 1159 3500 
L 1159 2956 
Q 1341 3275 1631 3429 
Q 1922 3584 2338 3584 
Q 2397 3584 2469 3576 
Q 2541 3569 2628 3553 
L 2631 2963 
z
" transform="scale(0.015625)"/>
      <path id="DejaVuSans-65" d="M 3597 1894 
L 3597 1613 
L 953 1613 
Q 991 1019 1311 708 
Q 1631 397 2203 397 
Q 2534 397 2845 478 
Q 3156 559 3463 722 
L 3463 178 
Q 3153 47 2828 -22 
Q 2503 -91 2169 -91 
Q 1331 -91 842 396 
Q 353 884 353 1716 
Q 353 2575 817 3079 
Q 1281 3584 2069 3584 
Q 2775 3584 3186 3129 
Q 3597 2675 3597 1894 
z
M 3022 2063 
Q 3016 2534 2758 2815 
Q 2500 3097 2075 3097 
Q 1594 3097 1305 2825 
Q 1016 2553 972 2059 
L 3022 2063 
z
" transform="scale(0.015625)"/>
      <path id="DejaVuSans-64" d="M 2906 2969 
L 2906 4863 
L 3481 4863 
L 3481 0 
L 2906 0 
L 2906 525 
Q 2725 213 2448 61 
Q 2172 -91 1784 -91 
Q 1150 -91 751 415 
Q 353 922 353 1747 
Q 353 2572 751 3078 
Q 1150 3584 1784 3584 
Q 2172 3584 2448 3432 
Q 2725 3281 2906 2969 
z
M 947 1747 
Q 947 1113 1208 752 
Q 1469 391 1925 391 
Q 2381 391 2643 752 
Q 2906 1113 2906 1747 
Q 2906 2381 2643 2742 
Q 2381 3103 1925 3103 
Q 1469 3103 1208 2742 
Q 947 2381 947 1747 
z
" transform="scale(0.015625)"/>
      <path id="DejaVuSans-69" d="M 603 3500 
L 1178 3500 
L 1178 0 
L 603 0 
L 603 3500 
z
M 603 4863 
L 1178 4863 
L 1178 4134 
L 603 4134 
L 603 4863 
z
" transform="scale(0.015625)"/>
      <path id="DejaVuSans-63" d="M 3122 3366 
L 3122 2828 
Q 2878 2963 2633 3030 
Q 2388 3097 2138 3097 
Q 1578 3097 1268 2742 
Q 959 2388 959 1747 
Q 959 1106 1268 751 
Q 1578 397 2138 397 
Q 2388 397 2633 464 
Q 2878 531 3122 666 
L 3122 134 
Q 2881 22 2623 -34 
Q 2366 -91 2075 -91 
Q 1284 -91 818 406 
Q 353 903 353 1747 
Q 353 2603 823 3093 
Q 1294 3584 2113 3584 
Q 2378 3584 2631 3529 
Q 2884 3475 3122 3366 
z
" transform="scale(0.015625)"/>
      <path id="DejaVuSans-74" d="M 1172 4494 
L 1172 3500 
L 2356 3500 
L 2356 3053 
L 1172 3053 
L 1172 1153 
Q 1172 725 1289 603 
Q 1406 481 1766 481 
L 2356 481 
L 2356 0 
L 1766 0 
Q 1100 0 847 248 
Q 594 497 594 1153 
L 594 3053 
L 172 3053 
L 172 3500 
L 594 3500 
L 594 4494 
L 1172 4494 
z
" transform="scale(0.015625)"/>
      <path id="DejaVuSans-6e" d="M 3513 2113 
L 3513 0 
L 2938 0 
L 2938 2094 
Q 2938 2591 2744 2837 
Q 2550 3084 2163 3084 
Q 1697 3084 1428 2787 
Q 1159 2491 1159 1978 
L 1159 0 
L 581 0 
L 581 3500 
L 1159 3500 
L 1159 2956 
Q 1366 3272 1645 3428 
Q 1925 3584 2291 3584 
Q 2894 3584 3203 3211 
Q 3513 2838 3513 2113 
z
" transform="scale(0.015625)"/>
      <path id="DejaVuSans-28" d="M 1984 4856 
Q 1566 4138 1362 3434 
Q 1159 2731 1159 2009 
Q 1159 1288 1364 580 
Q 1569 -128 1984 -844 
L 1484 -844 
Q 1016 -109 783 600 
Q 550 1309 550 2009 
Q 550 2706 781 3412 
Q 1013 4119 1484 4856 
L 1984 4856 
z
" transform="scale(0.015625)"/>
      <path id="DejaVuSans-46" d="M 628 4666 
L 3309 4666 
L 3309 4134 
L 1259 4134 
L 1259 2759 
L 3109 2759 
L 3109 2228 
L 1259 2228 
L 1259 0 
L 628 0 
L 628 4666 
z
" transform="scale(0.015625)"/>
      <path id="DejaVuSans-4f" d="M 2522 4238 
Q 1834 4238 1429 3725 
Q 1025 3213 1025 2328 
Q 1025 1447 1429 934 
Q 1834 422 2522 422 
Q 3209 422 3611 934 
Q 4013 1447 4013 2328 
Q 4013 3213 3611 3725 
Q 3209 4238 2522 4238 
z
M 2522 4750 
Q 3503 4750 4090 4092 
Q 4678 3434 4678 2328 
Q 4678 1225 4090 567 
Q 3503 -91 2522 -91 
Q 1538 -91 948 565 
Q 359 1222 359 2328 
Q 359 3434 948 4092 
Q 1538 4750 2522 4750 
z
" transform="scale(0.015625)"/>
      <path id="DejaVuSans-53" d="M 3425 4513 
L 3425 3897 
Q 3066 4069 2747 4153 
Q 2428 4238 2131 4238 
Q 1616 4238 1336 4038 
Q 1056 3838 1056 3469 
Q 1056 3159 1242 3001 
Q 1428 2844 1947 2747 
L 2328 2669 
Q 3034 2534 3370 2195 
Q 3706 1856 3706 1288 
Q 3706 609 3251 259 
Q 2797 -91 1919 -91 
Q 1588 -91 1214 -16 
Q 841 59 441 206 
L 441 856 
Q 825 641 1194 531 
Q 1563 422 1919 422 
Q 2459 422 2753 634 
Q 3047 847 3047 1241 
Q 3047 1584 2836 1778 
Q 2625 1972 2144 2069 
L 1759 2144 
Q 1053 2284 737 2584 
Q 422 2884 422 3419 
Q 422 4038 858 4394 
Q 1294 4750 2059 4750 
Q 2388 4750 2728 4690 
Q 3069 4631 3425 4513 
z
" transform="scale(0.015625)"/>
      <path id="DejaVuSans-29" d="M 513 4856 
L 1013 4856 
Q 1481 4119 1714 3412 
Q 1947 2706 1947 2009 
Q 1947 1309 1714 600 
Q 1481 -109 1013 -844 
L 513 -844 
Q 928 -128 1133 580 
Q 1338 1288 1338 2009 
Q 1338 2731 1133 3434 
Q 928 4138 513 4856 
z
" transform="scale(0.015625)"/>
     </defs>
     <use xlink:href="#DejaVuSans-4e"/>
     <use xlink:href="#DejaVuSans-6f" x="74.804688"/>
     <use xlink:href="#DejaVuSans-20" x="135.986328"/>
     <use xlink:href="#DejaVuSans-50" x="167.773438"/>
     <use xlink:href="#DejaVuSans-72" x="226.326172"/>
     <use xlink:href="#DejaVuSans-65" x="265.189453"/>
     <use xlink:href="#DejaVuSans-64" x="326.712891"/>
     <use xlink:href="#DejaVuSans-69" x="390.189453"/>
     <use xlink:href="#DejaVuSans-63" x="417.972656"/>
     <use xlink:href="#DejaVuSans-74" x="472.953125"/>
     <use xlink:href="#DejaVuSans-69" x="512.162109"/>
     <use xlink:href="#DejaVuSans-6f" x="539.945312"/>
     <use xlink:href="#DejaVuSans-6e" x="601.126953"/>
     <use xlink:href="#DejaVuSans-20" x="664.505859"/>
     <use xlink:href="#DejaVuSans-28" x="696.292969"/>
     <use xlink:href="#DejaVuSans-46" x="735.306641"/>
     <use xlink:href="#DejaVuSans-4f" x="792.826172"/>
     <use xlink:href="#DejaVuSans-53" x="871.537109"/>
     <use xlink:href="#DejaVuSans-53" x="935.013672"/>
     <use xlink:href="#DejaVuSans-29" x="998.490234"/>
    </g>
   </g>
  </g>
  <g id="axes_2">
   <g id="patch_7">
    <path d="M 250.376727 152.64 
L 412.704 152.64 
L 412.704 41.76 
L 250.376727 41.76 
z
" style="fill: #ffffff"/>
   </g>
   <g id="matplotlib.axis_3">
    <g id="xtick_5">
     <g id="line2d_10">
      <g>
       <use xlink:href="#md375515246" x="257.75524" y="152.64" style="stroke: #000000; stroke-width: 0.8"/>
      </g>
     </g>
     <g id="text_10">
      <!-- 0 -->
      <g transform="translate(254.57399 167.238437) scale(0.1 -0.1)">
       <use xlink:href="#DejaVuSans-30"/>
      </g>
     </g>
    </g>
    <g id="xtick_6">
     <g id="line2d_11">
      <g>
       <use xlink:href="#md375515246" x="309.173445" y="152.64" style="stroke: #000000; stroke-width: 0.8"/>
      </g>
     </g>
     <g id="text_11">
      <!-- 100 -->
      <g transform="translate(299.629695 167.238437) scale(0.1 -0.1)">
       <use xlink:href="#DejaVuSans-31"/>
       <use xlink:href="#DejaVuSans-30" x="63.623047"/>
       <use xlink:href="#DejaVuSans-30" x="127.246094"/>
      </g>
     </g>
    </g>
    <g id="xtick_7">
     <g id="line2d_12">
      <g>
       <use xlink:href="#md375515246" x="360.591649" y="152.64" style="stroke: #000000; stroke-width: 0.8"/>
      </g>
     </g>
     <g id="text_12">
      <!-- 200 -->
      <g transform="translate(351.047899 167.238437) scale(0.1 -0.1)">
       <use xlink:href="#DejaVuSans-32"/>
       <use xlink:href="#DejaVuSans-30" x="63.623047"/>
       <use xlink:href="#DejaVuSans-30" x="127.246094"/>
      </g>
     </g>
    </g>
    <g id="xtick_8">
     <g id="line2d_13">
      <g>
       <use xlink:href="#md375515246" x="412.009854" y="152.64" style="stroke: #000000; stroke-width: 0.8"/>
      </g>
     </g>
     <g id="text_13">
      <!-- 300 -->
      <g transform="translate(402.466104 167.238437) scale(0.1 -0.1)">
       <use xlink:href="#DejaVuSans-33"/>
       <use xlink:href="#DejaVuSans-30" x="63.623047"/>
       <use xlink:href="#DejaVuSans-30" x="127.246094"/>
      </g>
     </g>
    </g>
   </g>
   <g id="matplotlib.axis_4">
    <g id="ytick_5">
     <g id="line2d_14">
      <g>
       <use xlink:href="#m9f75d63054" x="250.376727" y="147.6" style="stroke: #000000; stroke-width: 0.8"/>
      </g>
     </g>
     <g id="text_14">
      <!-- 0 -->
      <g transform="translate(237.014227 151.399219) scale(0.1 -0.1)">
       <use xlink:href="#DejaVuSans-30"/>
      </g>
     </g>
    </g>
    <g id="ytick_6">
     <g id="line2d_15">
      <g>
       <use xlink:href="#m9f75d63054" x="250.376727" y="105.093619" style="stroke: #000000; stroke-width: 0.8"/>
      </g>
     </g>
     <g id="text_15">
      <!-- 20 -->
      <g transform="translate(230.651727 108.892838) scale(0.1 -0.1)">
       <use xlink:href="#DejaVuSans-32"/>
       <use xlink:href="#DejaVuSans-30" x="63.623047"/>
      </g>
     </g>
    </g>
    <g id="ytick_7">
     <g id="line2d_16">
      <g>
       <use xlink:href="#m9f75d63054" x="250.376727" y="62.587238" style="stroke: #000000; stroke-width: 0.8"/>
      </g>
     </g>
     <g id="text_16">
      <!-- 40 -->
      <g transform="translate(230.651727 66.386456) scale(0.1 -0.1)">
       <use xlink:href="#DejaVuSans-34"/>
       <use xlink:href="#DejaVuSans-30" x="63.623047"/>
      </g>
     </g>
    </g>
   </g>
   <g id="line2d_17">
    <path d="M 257.75524 52.828769 
L 258.783604 46.8 
L 259.297786 48.20212 
L 259.811968 60.576305 
L 260.840332 64.50049 
L 261.354514 63.847839 
L 261.868696 64.010536 
L 262.382878 72.5057 
L 262.89706 72.888202 
L 263.411242 70.375846 
L 263.925424 129.725914 
L 264.439606 140.801806 
L 264.953788 145.811701 
L 265.46797 143.45516 
L 265.982152 141.887185 
L 266.496334 137.145335 
L 267.010517 134.437997 
L 267.524699 133.26485 
L 268.038881 131.214846 
L 268.553063 139.100985 
L 269.067245 144.689741 
L 269.581427 147.6 
L 270.095609 95.423736 
L 270.609791 87.691806 
L 271.123973 104.586318 
L 271.638155 102.195151 
L 272.152337 101.258617 
L 272.666519 104.813289 
L 273.180701 105.319821 
L 273.694883 104.284567 
L 274.209065 101.026394 
L 274.723247 96.20611 
L 275.751611 94.091764 
L 276.265793 128.642456 
L 276.779975 146.102315 
L 277.294158 144.475677 
L 277.80834 147.6 
L 278.322522 147.6 
L 278.836704 144.671482 
L 279.350886 147.21028 
L 279.865068 147.6 
L 280.37925 147.6 
L 280.893432 143.731413 
L 281.407614 135.30534 
L 281.921796 133.717711 
L 282.435978 93.336424 
L 282.95016 92.746527 
L 283.464342 93.361303 
L 283.978524 87.738066 
L 284.492706 85.711077 
L 285.006888 85.368052 
L 285.52107 89.458815 
L 286.035252 85.801371 
L 286.549434 80.647206 
L 287.063616 77.116427 
L 287.577798 78.542535 
L 288.091981 87.865483 
L 288.606163 129.378594 
L 289.120345 134.026176 
L 290.148709 137.415399 
L 290.662891 135.343831 
L 291.177073 131.788978 
L 291.691255 127.179188 
L 292.205437 128.11764 
L 292.719619 134.184606 
L 293.233801 144.921726 
L 293.747983 146.81889 
L 294.262165 147.314789 
L 294.776347 88.62107 
L 295.290529 86.333523 
L 295.804711 85.493089 
L 296.318893 91.681304 
L 297.347257 80.453524 
L 297.861439 81.226439 
L 298.375622 81.306752 
L 298.889804 82.930309 
L 299.403986 85.851027 
L 299.918168 85.491382 
L 300.43235 84.979995 
L 300.946532 147.6 
L 303.517442 147.6 
L 304.031624 146.528404 
L 304.545806 143.581183 
L 305.059988 143.490018 
L 305.57417 142.5055 
L 306.088352 141.170502 
L 306.602534 140.190409 
L 307.116716 86.242982 
L 307.630898 87.352422 
L 308.659262 77.417457 
L 309.173445 80.653504 
L 309.687627 85.231875 
L 310.201809 92.516287 
L 310.715991 90.799526 
L 311.230173 96.764547 
L 311.744355 106.184061 
L 312.258537 105.851063 
L 312.772719 107.719457 
L 313.286901 147.6 
L 313.801083 147.6 
L 314.315265 134.619977 
L 314.829447 127.725225 
L 315.857811 137.556339 
L 316.371993 121.574323 
L 316.886175 122.81852 
L 317.400357 130.598463 
L 317.914539 140.770746 
L 318.942903 132.072398 
L 319.457085 96.537341 
L 319.971268 102.686884 
L 320.48545 114.39386 
L 320.999632 111.016787 
L 321.513814 108.990421 
L 322.027996 104.323167 
L 322.542178 113.228509 
L 323.05636 110.782203 
L 323.570542 106.688078 
L 324.084724 99.457923 
L 324.598906 102.428286 
L 325.113088 110.93255 
L 325.62727 144.459675 
L 326.655634 147.423524 
L 327.169816 146.635526 
L 328.19818 130.917151 
L 328.712362 135.862326 
L 329.226544 145.216756 
L 329.740726 143.442706 
L 330.254909 139.578262 
L 330.769091 137.451553 
L 331.283273 142.728142 
L 331.797455 120.62833 
L 332.825819 118.452826 
L 333.340001 120.778459 
L 333.854183 125.791952 
L 334.368365 127.241431 
L 334.882547 125.441676 
L 335.396729 125.88525 
L 335.910911 127.020854 
L 336.425093 117.702941 
L 336.939275 116.93646 
L 337.453457 121.567774 
L 337.967639 142.686862 
L 338.481821 144.961548 
L 338.996003 144.230706 
L 340.024367 147.467408 
L 340.538549 146.51572 
L 341.052732 141.114895 
L 341.566914 140.225379 
L 342.081096 138.861253 
L 342.595278 142.655987 
L 343.10946 144.739157 
L 343.623642 142.827768 
L 344.137824 106.25393 
L 344.652006 107.637911 
L 345.166188 109.838593 
L 345.68037 112.583475 
L 346.194552 116.043815 
L 346.708734 121.426972 
L 347.222916 123.036421 
L 347.737098 129.452532 
L 348.25128 129.493648 
L 348.765462 126.944668 
L 349.279644 129.567622 
L 349.793826 130.619151 
L 350.308008 144.005711 
L 351.336373 147.6 
L 351.850555 146.67171 
L 352.364737 145.267494 
L 352.878919 140.991473 
L 353.393101 142.905714 
L 354.421465 138.709769 
L 354.935647 138.846102 
L 355.449829 141.45677 
L 355.964011 146.506551 
L 356.478193 138.996575 
L 356.992375 137.742796 
L 357.506557 135.694373 
L 358.020739 129.4427 
L 358.534921 131.852236 
L 359.049103 131.393008 
L 359.563285 126.721155 
L 360.077467 127.390328 
L 360.591649 125.156295 
L 361.105831 121.11255 
L 362.134196 116.265905 
L 362.648378 147.6 
L 363.16256 142.267067 
L 363.676742 141.276328 
L 364.190924 145.510248 
L 364.705106 145.622701 
L 365.219288 147.6 
L 368.30438 147.6 
L 368.818562 115.726664 
L 369.332744 113.462388 
L 369.846926 108.927966 
L 370.361108 106.216487 
L 370.87529 102.367597 
L 371.389472 103.521051 
L 371.903654 100.223078 
L 372.417836 99.499526 
L 372.932019 103.495547 
L 373.960383 95.465855 
L 374.474565 98.825039 
L 374.988747 147.6 
L 375.502929 135.439116 
L 376.017111 141.142951 
L 376.531293 117.185509 
L 377.045475 135.40123 
L 377.559657 131.637268 
L 378.073839 141.430133 
L 378.588021 137.818908 
L 379.102203 136.67793 
L 379.616385 132.785419 
L 380.130567 117.314669 
L 380.644749 114.919579 
L 381.158931 102.608141 
L 382.187295 111.51309 
L 382.701477 112.46227 
L 383.21566 110.785177 
L 383.729842 107.762962 
L 384.244024 113.416058 
L 384.758206 116.791477 
L 385.272388 119.040753 
L 385.78657 119.322205 
L 386.300752 121.35761 
L 386.814934 114.20399 
L 387.329116 141.775731 
L 387.843298 142.992228 
L 388.35748 142.69023 
L 388.871662 143.501256 
L 390.414208 136.849494 
L 390.92839 140.234137 
L 391.442572 139.764937 
L 392.470936 140.099843 
L 392.985118 135.550731 
L 393.4993 105.510398 
L 394.013483 107.421434 
L 394.527665 106.892232 
L 395.556029 118.908477 
L 396.070211 120.421768 
L 396.584393 119.645262 
L 397.098575 121.485792 
L 397.612757 119.42341 
L 398.126939 119.275412 
L 398.641121 122.558745 
L 399.155303 120.619699 
L 399.669485 146.355808 
L 400.183667 147.6 
L 402.240395 147.6 
L 402.754577 145.547945 
L 403.268759 145.946708 
L 403.782941 145.975476 
L 404.297124 144.331283 
L 404.811306 145.994421 
L 405.325488 147.093564 
L 405.325488 147.093564 
" clip-path="url(#p3e49f55cac)" style="fill: none; stroke: #0000ff; stroke-width: 1.5; stroke-linecap: square"/>
   </g>
   <g id="patch_8">
    <path d="M 250.376727 152.64 
L 250.376727 41.76 
" style="fill: none; stroke: #000000; stroke-width: 0.8; stroke-linejoin: miter; stroke-linecap: square"/>
   </g>
   <g id="patch_9">
    <path d="M 412.704 152.64 
L 412.704 41.76 
" style="fill: none; stroke: #000000; stroke-width: 0.8; stroke-linejoin: miter; stroke-linecap: square"/>
   </g>
   <g id="patch_10">
    <path d="M 250.376727 152.64 
L 412.704 152.64 
" style="fill: none; stroke: #000000; stroke-width: 0.8; stroke-linejoin: miter; stroke-linecap: square"/>
   </g>
   <g id="patch_11">
    <path d="M 250.376727 41.76 
L 412.704 41.76 
" style="fill: none; stroke: #000000; stroke-width: 0.8; stroke-linejoin: miter; stroke-linecap: square"/>
   </g>
   <g id="text_17">
    <!-- RNN -->
    <g transform="translate(318.393801 35.76) scale(0.12 -0.12)">
     <defs>
      <path id="DejaVuSans-52" d="M 2841 2188 
Q 3044 2119 3236 1894 
Q 3428 1669 3622 1275 
L 4263 0 
L 3584 0 
L 2988 1197 
Q 2756 1666 2539 1819 
Q 2322 1972 1947 1972 
L 1259 1972 
L 1259 0 
L 628 0 
L 628 4666 
L 2053 4666 
Q 2853 4666 3247 4331 
Q 3641 3997 3641 3322 
Q 3641 2881 3436 2590 
Q 3231 2300 2841 2188 
z
M 1259 4147 
L 1259 2491 
L 2053 2491 
Q 2509 2491 2742 2702 
Q 2975 2913 2975 3322 
Q 2975 3731 2742 3939 
Q 2509 4147 2053 4147 
L 1259 4147 
z
" transform="scale(0.015625)"/>
     </defs>
     <use xlink:href="#DejaVuSans-52"/>
     <use xlink:href="#DejaVuSans-4e" x="69.482422"/>
     <use xlink:href="#DejaVuSans-4e" x="144.287109"/>
    </g>
   </g>
  </g>
  <g id="axes_3">
   <g id="patch_12">
    <path d="M 55.584 307.872 
L 217.911273 307.872 
L 217.911273 196.992 
L 55.584 196.992 
z
" style="fill: #ffffff"/>
   </g>
   <g id="matplotlib.axis_5">
    <g id="xtick_9">
     <g id="line2d_18">
      <g>
       <use xlink:href="#md375515246" x="62.962512" y="307.872" style="stroke: #000000; stroke-width: 0.8"/>
      </g>
     </g>
     <g id="text_18">
      <!-- 0 -->
      <g transform="translate(59.781262 322.470437) scale(0.1 -0.1)">
       <use xlink:href="#DejaVuSans-30"/>
      </g>
     </g>
    </g>
    <g id="xtick_10">
     <g id="line2d_19">
      <g>
       <use xlink:href="#md375515246" x="114.380717" y="307.872" style="stroke: #000000; stroke-width: 0.8"/>
      </g>
     </g>
     <g id="text_19">
      <!-- 100 -->
      <g transform="translate(104.836967 322.470437) scale(0.1 -0.1)">
       <use xlink:href="#DejaVuSans-31"/>
       <use xlink:href="#DejaVuSans-30" x="63.623047"/>
       <use xlink:href="#DejaVuSans-30" x="127.246094"/>
      </g>
     </g>
    </g>
    <g id="xtick_11">
     <g id="line2d_20">
      <g>
       <use xlink:href="#md375515246" x="165.798922" y="307.872" style="stroke: #000000; stroke-width: 0.8"/>
      </g>
     </g>
     <g id="text_20">
      <!-- 200 -->
      <g transform="translate(156.255172 322.470437) scale(0.1 -0.1)">
       <use xlink:href="#DejaVuSans-32"/>
       <use xlink:href="#DejaVuSans-30" x="63.623047"/>
       <use xlink:href="#DejaVuSans-30" x="127.246094"/>
      </g>
     </g>
    </g>
    <g id="xtick_12">
     <g id="line2d_21">
      <g>
       <use xlink:href="#md375515246" x="217.217127" y="307.872" style="stroke: #000000; stroke-width: 0.8"/>
      </g>
     </g>
     <g id="text_21">
      <!-- 300 -->
      <g transform="translate(207.673377 322.470437) scale(0.1 -0.1)">
       <use xlink:href="#DejaVuSans-33"/>
       <use xlink:href="#DejaVuSans-30" x="63.623047"/>
       <use xlink:href="#DejaVuSans-30" x="127.246094"/>
      </g>
     </g>
    </g>
   </g>
   <g id="matplotlib.axis_6">
    <g id="ytick_8">
     <g id="line2d_22">
      <g>
       <use xlink:href="#m9f75d63054" x="55.584" y="302.832" style="stroke: #000000; stroke-width: 0.8"/>
      </g>
     </g>
     <g id="text_22">
      <!-- 0 -->
      <g transform="translate(42.2215 306.631219) scale(0.1 -0.1)">
       <use xlink:href="#DejaVuSans-30"/>
      </g>
     </g>
    </g>
    <g id="ytick_9">
     <g id="line2d_23">
      <g>
       <use xlink:href="#m9f75d63054" x="55.584" y="260.325619" style="stroke: #000000; stroke-width: 0.8"/>
      </g>
     </g>
     <g id="text_23">
      <!-- 20 -->
      <g transform="translate(35.859 264.124838) scale(0.1 -0.1)">
       <use xlink:href="#DejaVuSans-32"/>
       <use xlink:href="#DejaVuSans-30" x="63.623047"/>
      </g>
     </g>
    </g>
    <g id="ytick_10">
     <g id="line2d_24">
      <g>
       <use xlink:href="#m9f75d63054" x="55.584" y="217.819238" style="stroke: #000000; stroke-width: 0.8"/>
      </g>
     </g>
     <g id="text_24">
      <!-- 40 -->
      <g transform="translate(35.859 221.618456) scale(0.1 -0.1)">
       <use xlink:href="#DejaVuSans-34"/>
       <use xlink:href="#DejaVuSans-30" x="63.623047"/>
      </g>
     </g>
    </g>
   </g>
   <g id="line2d_25">
    <path d="M 62.962512 208.060769 
L 63.990876 202.032 
L 64.505059 203.43412 
L 65.019241 215.808305 
L 66.047605 219.73249 
L 66.561787 219.079839 
L 67.075969 219.242536 
L 67.590151 227.7377 
L 68.104333 228.120202 
L 68.618515 225.607846 
L 69.132697 293.642384 
L 69.646879 299.296538 
L 71.189425 302.832 
L 72.217789 302.832 
L 72.731971 292.126158 
L 73.246153 284.170817 
L 73.760335 282.873705 
L 74.274517 282.490051 
L 74.7887 295.915168 
L 75.302882 250.655736 
L 75.817064 242.923806 
L 76.331246 259.818318 
L 76.845428 257.427151 
L 77.35961 256.490617 
L 77.873792 260.045289 
L 78.387974 260.551821 
L 78.902156 259.516567 
L 79.416338 256.258394 
L 79.93052 251.43811 
L 80.958884 249.323764 
L 81.473066 280.570692 
L 81.987248 282.974721 
L 82.50143 284.461378 
L 83.015612 289.519361 
L 83.529794 287.175835 
L 84.043976 288.858697 
L 85.07234 293.115566 
L 85.586523 291.396657 
L 86.100705 286.859352 
L 86.614887 288.60731 
L 87.129069 289.642825 
L 87.643251 248.568424 
L 88.157433 247.978527 
L 88.671615 248.593303 
L 89.185797 242.970066 
L 89.699979 240.943077 
L 90.214161 240.600052 
L 90.728343 244.690815 
L 91.242525 241.033371 
L 91.756707 235.879206 
L 92.270889 232.348427 
L 92.785071 233.774535 
L 93.299253 243.097483 
L 93.813435 286.46651 
L 94.327617 290.75972 
L 94.841799 293.498999 
L 95.355981 294.657515 
L 96.384346 296.281839 
L 96.898528 296.63844 
L 97.41271 295.442531 
L 97.926892 299.362096 
L 98.441074 301.900014 
L 98.955256 302.832 
L 99.469438 302.832 
L 99.98362 243.85307 
L 100.497802 241.565523 
L 101.011984 240.725089 
L 101.526166 246.913304 
L 102.55453 235.685524 
L 103.068712 236.458439 
L 103.582894 236.538752 
L 104.097076 238.162309 
L 104.611258 241.083027 
L 105.12544 240.723382 
L 105.639622 240.211995 
L 106.153804 302.832 
L 108.724715 302.832 
L 109.753079 282.802847 
L 111.295625 294.11857 
L 111.809807 294.948248 
L 112.323989 241.474982 
L 112.838171 242.584422 
L 113.866535 232.649457 
L 114.380717 235.885504 
L 114.894899 240.463875 
L 115.409081 247.748287 
L 115.923263 246.031526 
L 116.437445 251.996547 
L 116.951627 261.416061 
L 117.46581 261.083063 
L 117.979992 262.951457 
L 118.494174 302.381247 
L 119.008356 302.143486 
L 119.522538 302.832 
L 120.03672 302.668465 
L 120.550902 302.832 
L 121.065084 300.060229 
L 121.579266 294.964226 
L 122.093448 294.445612 
L 122.60763 288.035762 
L 123.121812 287.657345 
L 123.635994 285.848688 
L 124.150176 288.678346 
L 124.664358 251.769341 
L 125.17854 257.918884 
L 125.692722 269.62586 
L 126.206904 266.248787 
L 126.721086 264.222421 
L 127.235268 259.555167 
L 127.749451 268.460509 
L 128.263633 266.014203 
L 128.777815 261.920078 
L 129.291997 254.689923 
L 129.806179 257.660286 
L 130.320361 266.16455 
L 130.834543 295.679942 
L 131.348725 297.381993 
L 131.862907 300.583349 
L 132.377089 302.832 
L 132.891271 295.904023 
L 133.405453 286.533632 
L 133.919635 292.406685 
L 134.433817 300.032534 
L 134.947999 300.311516 
L 135.462181 300.10085 
L 135.976363 295.639414 
L 136.490545 300.733056 
L 137.004727 275.86033 
L 138.033091 273.684826 
L 138.547274 276.010459 
L 139.061456 281.023952 
L 139.575638 282.473431 
L 140.08982 280.673676 
L 140.604002 281.11725 
L 141.118184 282.252854 
L 141.632366 272.934941 
L 142.146548 272.16846 
L 142.66073 276.799774 
L 143.174912 298.124437 
L 143.689094 298.919596 
L 144.717458 297.541012 
L 145.23164 295.980144 
L 146.260004 288.41323 
L 146.774186 291.116774 
L 147.288368 290.718096 
L 147.80255 291.839716 
L 148.316732 297.926118 
L 148.830915 301.108946 
L 149.345097 261.48593 
L 149.859279 262.869911 
L 150.373461 265.070593 
L 150.887643 267.815475 
L 151.401825 271.275815 
L 151.916007 276.658972 
L 152.430189 278.268421 
L 152.944371 284.684532 
L 153.458553 284.725648 
L 153.972735 282.176668 
L 154.486917 284.799622 
L 155.001099 285.851151 
L 155.515281 299.547294 
L 156.029463 300.094451 
L 156.543645 302.832 
L 159.628738 302.818041 
L 160.14292 300.229698 
L 160.657102 295.849898 
L 161.171284 295.377709 
L 162.199648 292.974796 
L 162.71383 290.926373 
L 163.228012 284.6747 
L 163.742194 287.084236 
L 164.256376 286.625008 
L 164.770558 281.953155 
L 165.28474 282.622328 
L 165.798922 280.388295 
L 166.313104 276.34455 
L 167.341468 271.497905 
L 167.85565 301.901807 
L 168.369832 296.044819 
L 168.884014 297.86178 
L 169.398196 299.141664 
L 169.912378 301.654019 
L 170.426561 302.832 
L 172.997471 302.832 
L 173.511653 302.563062 
L 174.025835 270.958664 
L 174.540017 268.694388 
L 175.054199 264.159966 
L 175.568381 261.448487 
L 176.082563 257.599597 
L 176.596745 258.753051 
L 177.110927 255.455078 
L 177.625109 254.731526 
L 178.139291 258.727547 
L 179.167655 250.697855 
L 179.681837 254.057039 
L 180.196019 302.832 
L 180.710202 302.832 
L 181.738566 299.767883 
L 182.252748 302.832 
L 182.76693 302.832 
L 183.281112 298.618733 
L 183.795294 299.646423 
L 184.309476 291.112755 
L 184.823658 276.620302 
L 185.33784 277.020196 
L 185.852022 282.294334 
L 186.366204 257.840141 
L 187.394568 266.74509 
L 187.90875 267.69427 
L 188.422932 266.017177 
L 188.937114 262.994962 
L 189.451296 268.648058 
L 189.965478 272.023477 
L 190.47966 274.272753 
L 190.993842 274.554205 
L 191.508025 276.58961 
L 192.022207 269.43599 
L 192.536389 293.545352 
L 193.050571 294.949551 
L 193.564753 293.970314 
L 194.593117 298.101014 
L 195.107299 298.583891 
L 195.621481 297.11018 
L 196.135663 294.510745 
L 196.649845 285.886153 
L 197.678209 283.325154 
L 198.192391 289.041202 
L 198.706573 260.742398 
L 199.220755 262.653434 
L 199.734937 262.124232 
L 200.763301 274.140477 
L 201.277483 275.653768 
L 201.791666 274.877262 
L 202.305848 276.717792 
L 202.82003 274.65541 
L 203.334212 274.507412 
L 203.848394 277.790745 
L 204.362576 275.851699 
L 204.876758 296.771266 
L 205.39094 299.076735 
L 205.905122 299.806664 
L 206.419304 299.43489 
L 206.933486 302.510244 
L 207.447668 301.783295 
L 207.96185 299.006653 
L 208.990214 302.832 
L 209.504396 302.345395 
L 210.018578 302.832 
L 210.53276 301.209168 
L 210.53276 301.209168 
" clip-path="url(#pa9246e983c)" style="fill: none; stroke: #ffa500; stroke-width: 1.5; stroke-linecap: square"/>
   </g>
   <g id="patch_13">
    <path d="M 55.584 307.872 
L 55.584 196.992 
" style="fill: none; stroke: #000000; stroke-width: 0.8; stroke-linejoin: miter; stroke-linecap: square"/>
   </g>
   <g id="patch_14">
    <path d="M 217.911273 307.872 
L 217.911273 196.992 
" style="fill: none; stroke: #000000; stroke-width: 0.8; stroke-linejoin: miter; stroke-linecap: square"/>
   </g>
   <g id="patch_15">
    <path d="M 55.584 307.872 
L 217.911273 307.872 
" style="fill: none; stroke: #000000; stroke-width: 0.8; stroke-linejoin: miter; stroke-linecap: square"/>
   </g>
   <g id="patch_16">
    <path d="M 55.584 196.992 
L 217.911273 196.992 
" style="fill: none; stroke: #000000; stroke-width: 0.8; stroke-linejoin: miter; stroke-linecap: square"/>
   </g>
   <g id="text_25">
    <!-- VAE -->
    <g transform="translate(125.130136 190.992) scale(0.12 -0.12)">
     <defs>
      <path id="DejaVuSans-56" d="M 1831 0 
L 50 4666 
L 709 4666 
L 2188 738 
L 3669 4666 
L 4325 4666 
L 2547 0 
L 1831 0 
z
" transform="scale(0.015625)"/>
      <path id="DejaVuSans-41" d="M 2188 4044 
L 1331 1722 
L 3047 1722 
L 2188 4044 
z
M 1831 4666 
L 2547 4666 
L 4325 0 
L 3669 0 
L 3244 1197 
L 1141 1197 
L 716 0 
L 50 0 
L 1831 4666 
z
" transform="scale(0.015625)"/>
      <path id="DejaVuSans-45" d="M 628 4666 
L 3578 4666 
L 3578 4134 
L 1259 4134 
L 1259 2753 
L 3481 2753 
L 3481 2222 
L 1259 2222 
L 1259 531 
L 3634 531 
L 3634 0 
L 628 0 
L 628 4666 
z
" transform="scale(0.015625)"/>
     </defs>
     <use xlink:href="#DejaVuSans-56"/>
     <use xlink:href="#DejaVuSans-41" x="62.033203"/>
     <use xlink:href="#DejaVuSans-45" x="130.441406"/>
    </g>
   </g>
  </g>
  <g id="axes_4">
   <g id="patch_17">
    <path d="M 250.376727 307.872 
L 412.704 307.872 
L 412.704 196.992 
L 250.376727 196.992 
z
" style="fill: #ffffff"/>
   </g>
   <g id="matplotlib.axis_7">
    <g id="xtick_13">
     <g id="line2d_26">
      <g>
       <use xlink:href="#md375515246" x="257.75524" y="307.872" style="stroke: #000000; stroke-width: 0.8"/>
      </g>
     </g>
     <g id="text_26">
      <!-- 0 -->
      <g transform="translate(254.57399 322.470437) scale(0.1 -0.1)">
       <use xlink:href="#DejaVuSans-30"/>
      </g>
     </g>
    </g>
    <g id="xtick_14">
     <g id="line2d_27">
      <g>
       <use xlink:href="#md375515246" x="309.173445" y="307.872" style="stroke: #000000; stroke-width: 0.8"/>
      </g>
     </g>
     <g id="text_27">
      <!-- 100 -->
      <g transform="translate(299.629695 322.470437) scale(0.1 -0.1)">
       <use xlink:href="#DejaVuSans-31"/>
       <use xlink:href="#DejaVuSans-30" x="63.623047"/>
       <use xlink:href="#DejaVuSans-30" x="127.246094"/>
      </g>
     </g>
    </g>
    <g id="xtick_15">
     <g id="line2d_28">
      <g>
       <use xlink:href="#md375515246" x="360.591649" y="307.872" style="stroke: #000000; stroke-width: 0.8"/>
      </g>
     </g>
     <g id="text_28">
      <!-- 200 -->
      <g transform="translate(351.047899 322.470437) scale(0.1 -0.1)">
       <use xlink:href="#DejaVuSans-32"/>
       <use xlink:href="#DejaVuSans-30" x="63.623047"/>
       <use xlink:href="#DejaVuSans-30" x="127.246094"/>
      </g>
     </g>
    </g>
    <g id="xtick_16">
     <g id="line2d_29">
      <g>
       <use xlink:href="#md375515246" x="412.009854" y="307.872" style="stroke: #000000; stroke-width: 0.8"/>
      </g>
     </g>
     <g id="text_29">
      <!-- 300 -->
      <g transform="translate(402.466104 322.470437) scale(0.1 -0.1)">
       <use xlink:href="#DejaVuSans-33"/>
       <use xlink:href="#DejaVuSans-30" x="63.623047"/>
       <use xlink:href="#DejaVuSans-30" x="127.246094"/>
      </g>
     </g>
    </g>
   </g>
   <g id="matplotlib.axis_8">
    <g id="ytick_11">
     <g id="line2d_30">
      <g>
       <use xlink:href="#m9f75d63054" x="250.376727" y="307.333457" style="stroke: #000000; stroke-width: 0.8"/>
      </g>
     </g>
     <g id="text_30">
      <!-- 0 -->
      <g transform="translate(237.014227 311.132676) scale(0.1 -0.1)">
       <use xlink:href="#DejaVuSans-30"/>
      </g>
     </g>
    </g>
    <g id="ytick_12">
     <g id="line2d_31">
      <g>
       <use xlink:href="#m9f75d63054" x="250.376727" y="285.140776" style="stroke: #000000; stroke-width: 0.8"/>
      </g>
     </g>
     <g id="text_31">
      <!-- 10 -->
      <g transform="translate(230.651727 288.939994) scale(0.1 -0.1)">
       <use xlink:href="#DejaVuSans-31"/>
       <use xlink:href="#DejaVuSans-30" x="63.623047"/>
      </g>
     </g>
    </g>
    <g id="ytick_13">
     <g id="line2d_32">
      <g>
       <use xlink:href="#m9f75d63054" x="250.376727" y="262.948094" style="stroke: #000000; stroke-width: 0.8"/>
      </g>
     </g>
     <g id="text_32">
      <!-- 20 -->
      <g transform="translate(230.651727 266.747313) scale(0.1 -0.1)">
       <use xlink:href="#DejaVuSans-32"/>
       <use xlink:href="#DejaVuSans-30" x="63.623047"/>
      </g>
     </g>
    </g>
    <g id="ytick_14">
     <g id="line2d_33">
      <g>
       <use xlink:href="#m9f75d63054" x="250.376727" y="240.755413" style="stroke: #000000; stroke-width: 0.8"/>
      </g>
     </g>
     <g id="text_33">
      <!-- 30 -->
      <g transform="translate(230.651727 244.554632) scale(0.1 -0.1)">
       <use xlink:href="#DejaVuSans-33"/>
       <use xlink:href="#DejaVuSans-30" x="63.623047"/>
      </g>
     </g>
    </g>
    <g id="ytick_15">
     <g id="line2d_34">
      <g>
       <use xlink:href="#m9f75d63054" x="250.376727" y="218.562731" style="stroke: #000000; stroke-width: 0.8"/>
      </g>
     </g>
     <g id="text_34">
      <!-- 40 -->
      <g transform="translate(230.651727 222.36195) scale(0.1 -0.1)">
       <use xlink:href="#DejaVuSans-34"/>
       <use xlink:href="#DejaVuSans-30" x="63.623047"/>
      </g>
     </g>
    </g>
   </g>
   <g id="line2d_35">
    <path d="M 257.75524 208.379205 
L 258.783604 202.032 
L 259.297786 203.565761 
L 259.811968 216.429353 
L 260.840332 220.574682 
L 261.354514 219.888165 
L 261.868696 220.062826 
L 262.382878 228.917557 
L 262.89706 229.289826 
L 263.411242 226.697732 
L 263.925424 242.019967 
L 264.439606 246.512816 
L 264.953788 252.494274 
L 265.46797 248.433446 
L 266.496334 258.298139 
L 267.010517 247.091013 
L 267.524699 247.386801 
L 268.038881 239.698007 
L 268.553063 239.308627 
L 269.067245 239.501673 
L 269.581427 267.496174 
L 270.095609 252.894727 
L 270.609791 244.767517 
L 271.123973 262.420856 
L 271.638155 259.917462 
L 272.152337 258.947393 
L 272.666519 262.63784 
L 273.180701 263.18465 
L 273.694883 262.106144 
L 274.209065 258.696991 
L 274.723247 253.701498 
L 275.237429 252.426462 
L 275.751611 251.457614 
L 276.265793 261.257327 
L 276.779975 254.922939 
L 277.294158 262.265711 
L 277.80834 265.26199 
L 278.322522 265.165159 
L 278.836704 263.045888 
L 279.350886 276.698247 
L 279.865068 256.804949 
L 280.37925 254.482922 
L 280.893432 258.402634 
L 281.407614 255.07473 
L 281.921796 254.139058 
L 282.435978 250.67777 
L 282.95016 250.065944 
L 283.464342 250.639727 
L 283.978524 244.834013 
L 284.492706 242.683686 
L 285.006888 242.33657 
L 285.52107 246.635213 
L 286.035252 242.796769 
L 286.549434 237.410357 
L 287.063616 233.728486 
L 287.577798 235.239113 
L 288.091981 244.984599 
L 288.606163 243.21728 
L 289.120345 269.415654 
L 289.634527 269.542681 
L 290.148709 264.58308 
L 290.662891 269.175518 
L 291.177073 271.807621 
L 291.691255 267.643671 
L 292.205437 259.665359 
L 292.719619 265.546236 
L 293.233801 265.528892 
L 293.747983 257.816059 
L 294.776347 245.753427 
L 295.290529 243.368568 
L 295.804711 242.457006 
L 296.318893 248.954384 
L 297.347257 237.236679 
L 297.861439 238.02983 
L 298.375622 238.104244 
L 298.889804 239.807086 
L 299.403986 242.861401 
L 299.918168 242.592214 
L 300.43235 241.938112 
L 300.946532 248.726276 
L 301.460714 244.142293 
L 301.974896 252.933866 
L 302.489078 258.051712 
L 303.00326 246.467014 
L 303.517442 257.703881 
L 304.031624 258.549178 
L 304.545806 263.40163 
L 305.059988 247.49284 
L 305.57417 247.741474 
L 306.088352 251.084888 
L 306.602534 250.687279 
L 307.116716 243.283126 
L 307.630898 244.420057 
L 308.659262 234.04698 
L 309.173445 237.425306 
L 309.687627 242.215791 
L 310.201809 249.817805 
L 310.715991 248.032067 
L 311.230173 254.009113 
L 311.744355 264.073192 
L 312.258537 263.755675 
L 312.772719 265.68909 
L 313.286901 266.490073 
L 313.801083 266.49537 
L 314.315265 266.871026 
L 314.829447 267.701826 
L 315.343629 267.741301 
L 315.857811 266.28456 
L 316.371993 265.793957 
L 316.886175 264.179013 
L 317.400357 284.632743 
L 317.914539 276.097511 
L 318.428721 263.36934 
L 318.942903 295.217833 
L 319.457085 253.989856 
L 319.971268 260.366719 
L 320.48545 272.671305 
L 320.999632 269.135456 
L 321.513814 266.995078 
L 322.027996 262.084073 
L 322.542178 271.431835 
L 323.05636 268.888074 
L 323.570542 264.633333 
L 324.084724 257.071126 
L 324.598906 260.141843 
L 325.62727 277.356102 
L 326.141452 278.263909 
L 326.655634 265.863054 
L 327.169816 283.399766 
L 327.683998 272.431937 
L 328.19818 258.894818 
L 328.712362 277.663655 
L 329.226544 275.098001 
L 329.740726 296.388861 
L 330.254909 291.686678 
L 330.769091 288.781902 
L 331.283273 275.42237 
L 331.797455 279.171501 
L 332.825819 276.904759 
L 333.340001 279.335226 
L 333.854183 284.637244 
L 334.368365 286.074027 
L 334.882547 284.202911 
L 335.396729 284.651491 
L 335.910911 285.759985 
L 336.425093 276.012764 
L 336.939275 275.279753 
L 337.967639 285.169366 
L 338.481821 282.552812 
L 338.996003 286.949366 
L 339.510185 279.012389 
L 340.024367 279.429642 
L 340.538549 278.204844 
L 341.052732 276.667348 
L 341.566914 275.826847 
L 342.081096 273.741904 
L 342.595278 264.586387 
L 343.10946 270.075012 
L 343.623642 260.581653 
L 344.137824 264.153725 
L 344.652006 265.610839 
L 345.166188 267.896467 
L 345.68037 270.756221 
L 346.194552 274.283701 
L 346.708734 280.005735 
L 347.222916 281.678742 
L 347.737098 288.428546 
L 348.25128 288.451611 
L 348.765462 285.795595 
L 349.279644 288.499323 
L 349.793826 289.77451 
L 350.308008 302.832 
L 351.336373 293.958634 
L 351.850555 285.783715 
L 352.364737 283.033687 
L 352.878919 279.56666 
L 353.393101 289.987242 
L 353.907283 288.811048 
L 354.421465 291.839357 
L 354.935647 293.071443 
L 355.449829 301.452956 
L 355.964011 300.268022 
L 356.478193 298.350064 
L 356.992375 297.037089 
L 357.506557 294.980256 
L 358.020739 288.372316 
L 358.534921 290.888809 
L 359.049103 290.34181 
L 359.563285 285.538397 
L 360.077467 286.237422 
L 360.591649 283.900176 
L 361.105831 279.689938 
L 362.134196 274.60486 
L 362.648378 280.124681 
L 363.16256 274.965917 
L 364.190924 259.934941 
L 365.219288 273.273725 
L 365.73347 274.453215 
L 366.247652 280.883312 
L 366.761834 279.298983 
L 367.276016 275.954548 
L 367.790198 270.650905 
L 368.30438 276.517334 
L 369.332744 271.666185 
L 369.846926 266.949588 
L 370.361108 264.115917 
L 370.87529 260.132049 
L 371.389472 261.30636 
L 371.903654 257.850495 
L 372.417836 257.094191 
L 372.932019 261.276721 
L 373.960383 252.881052 
L 374.474565 256.393883 
L 374.988747 282.742863 
L 375.502929 255.955831 
L 376.017111 251.154712 
L 376.531293 249.615377 
L 377.559657 261.012693 
L 378.073839 261.471497 
L 378.588021 254.193394 
L 379.102203 259.56217 
L 379.616385 254.109557 
L 380.130567 267.903116 
L 380.644749 273.485257 
L 381.158931 260.292329 
L 382.187295 269.652718 
L 382.701477 270.644967 
L 383.21566 268.895391 
L 383.729842 265.735886 
L 384.244024 271.632224 
L 384.758206 275.160321 
L 385.272388 277.502447 
L 385.78657 277.815648 
L 386.300752 279.94562 
L 386.814934 272.466964 
L 387.329116 273.961474 
L 387.843298 270.516995 
L 388.35748 269.024297 
L 388.871662 263.02787 
L 389.385844 262.165412 
L 389.900026 267.373437 
L 390.414208 268.40049 
L 390.92839 270.022673 
L 391.442572 265.998909 
L 391.956754 269.819528 
L 392.470936 266.21452 
L 392.985118 270.972948 
L 393.4993 263.389544 
L 394.013483 265.432283 
L 394.527665 264.814044 
L 395.041847 271.849827 
L 395.556029 277.279349 
L 396.070211 278.924297 
L 396.584393 278.068183 
L 397.098575 280.076823 
L 397.612757 277.89862 
L 398.126939 277.753078 
L 398.641121 281.158856 
L 399.155303 279.153858 
L 399.669485 283.106947 
L 400.183667 274.288308 
L 400.697849 280.961694 
L 401.212031 273.92338 
L 401.726213 284.264766 
L 402.240395 282.972963 
L 402.754577 289.082513 
L 403.268759 285.450201 
L 403.782941 279.374673 
L 404.297124 278.184877 
L 404.811306 273.085849 
L 405.325488 271.261177 
L 405.325488 271.261177 
" clip-path="url(#p2a47f2447c)" style="fill: none; stroke: #ff0000; stroke-width: 1.5; stroke-linecap: square"/>
   </g>
   <g id="patch_18">
    <path d="M 250.376727 307.872 
L 250.376727 196.992 
" style="fill: none; stroke: #000000; stroke-width: 0.8; stroke-linejoin: miter; stroke-linecap: square"/>
   </g>
   <g id="patch_19">
    <path d="M 412.704 307.872 
L 412.704 196.992 
" style="fill: none; stroke: #000000; stroke-width: 0.8; stroke-linejoin: miter; stroke-linecap: square"/>
   </g>
   <g id="patch_20">
    <path d="M 250.376727 307.872 
L 412.704 307.872 
" style="fill: none; stroke: #000000; stroke-width: 0.8; stroke-linejoin: miter; stroke-linecap: square"/>
   </g>
   <g id="patch_21">
    <path d="M 250.376727 196.992 
L 412.704 196.992 
" style="fill: none; stroke: #000000; stroke-width: 0.8; stroke-linejoin: miter; stroke-linecap: square"/>
   </g>
   <g id="text_35">
    <!-- VRNN -->
    <g transform="translate(314.289426 190.992) scale(0.12 -0.12)">
     <use xlink:href="#DejaVuSans-56"/>
     <use xlink:href="#DejaVuSans-52" x="68.408203"/>
     <use xlink:href="#DejaVuSans-4e" x="137.890625"/>
     <use xlink:href="#DejaVuSans-4e" x="212.695312"/>
    </g>
   </g>
  </g>
  <g id="text_36">
   <!-- VMAF Scores Over Frames: Video #30 -->
   <g transform="translate(114.338063 16.318125) scale(0.12 -0.12)">
    <defs>
     <path id="DejaVuSans-4d" d="M 628 4666 
L 1569 4666 
L 2759 1491 
L 3956 4666 
L 4897 4666 
L 4897 0 
L 4281 0 
L 4281 4097 
L 3078 897 
L 2444 897 
L 1241 4097 
L 1241 0 
L 628 0 
L 628 4666 
z
" transform="scale(0.015625)"/>
     <path id="DejaVuSans-73" d="M 2834 3397 
L 2834 2853 
Q 2591 2978 2328 3040 
Q 2066 3103 1784 3103 
Q 1356 3103 1142 2972 
Q 928 2841 928 2578 
Q 928 2378 1081 2264 
Q 1234 2150 1697 2047 
L 1894 2003 
Q 2506 1872 2764 1633 
Q 3022 1394 3022 966 
Q 3022 478 2636 193 
Q 2250 -91 1575 -91 
Q 1294 -91 989 -36 
Q 684 19 347 128 
L 347 722 
Q 666 556 975 473 
Q 1284 391 1588 391 
Q 1994 391 2212 530 
Q 2431 669 2431 922 
Q 2431 1156 2273 1281 
Q 2116 1406 1581 1522 
L 1381 1569 
Q 847 1681 609 1914 
Q 372 2147 372 2553 
Q 372 3047 722 3315 
Q 1072 3584 1716 3584 
Q 2034 3584 2315 3537 
Q 2597 3491 2834 3397 
z
" transform="scale(0.015625)"/>
     <path id="DejaVuSans-76" d="M 191 3500 
L 800 3500 
L 1894 563 
L 2988 3500 
L 3597 3500 
L 2284 0 
L 1503 0 
L 191 3500 
z
" transform="scale(0.015625)"/>
     <path id="DejaVuSans-61" d="M 2194 1759 
Q 1497 1759 1228 1600 
Q 959 1441 959 1056 
Q 959 750 1161 570 
Q 1363 391 1709 391 
Q 2188 391 2477 730 
Q 2766 1069 2766 1631 
L 2766 1759 
L 2194 1759 
z
M 3341 1997 
L 3341 0 
L 2766 0 
L 2766 531 
Q 2569 213 2275 61 
Q 1981 -91 1556 -91 
Q 1019 -91 701 211 
Q 384 513 384 1019 
Q 384 1609 779 1909 
Q 1175 2209 1959 2209 
L 2766 2209 
L 2766 2266 
Q 2766 2663 2505 2880 
Q 2244 3097 1772 3097 
Q 1472 3097 1187 3025 
Q 903 2953 641 2809 
L 641 3341 
Q 956 3463 1253 3523 
Q 1550 3584 1831 3584 
Q 2591 3584 2966 3190 
Q 3341 2797 3341 1997 
z
" transform="scale(0.015625)"/>
     <path id="DejaVuSans-6d" d="M 3328 2828 
Q 3544 3216 3844 3400 
Q 4144 3584 4550 3584 
Q 5097 3584 5394 3201 
Q 5691 2819 5691 2113 
L 5691 0 
L 5113 0 
L 5113 2094 
Q 5113 2597 4934 2840 
Q 4756 3084 4391 3084 
Q 3944 3084 3684 2787 
Q 3425 2491 3425 1978 
L 3425 0 
L 2847 0 
L 2847 2094 
Q 2847 2600 2669 2842 
Q 2491 3084 2119 3084 
Q 1678 3084 1418 2786 
Q 1159 2488 1159 1978 
L 1159 0 
L 581 0 
L 581 3500 
L 1159 3500 
L 1159 2956 
Q 1356 3278 1631 3431 
Q 1906 3584 2284 3584 
Q 2666 3584 2933 3390 
Q 3200 3197 3328 2828 
z
" transform="scale(0.015625)"/>
     <path id="DejaVuSans-3a" d="M 750 794 
L 1409 794 
L 1409 0 
L 750 0 
L 750 794 
z
M 750 3309 
L 1409 3309 
L 1409 2516 
L 750 2516 
L 750 3309 
z
" transform="scale(0.015625)"/>
     <path id="DejaVuSans-23" d="M 3272 2816 
L 2363 2816 
L 2100 1772 
L 3016 1772 
L 3272 2816 
z
M 2803 4594 
L 2478 3297 
L 3391 3297 
L 3719 4594 
L 4219 4594 
L 3897 3297 
L 4872 3297 
L 4872 2816 
L 3775 2816 
L 3519 1772 
L 4513 1772 
L 4513 1294 
L 3397 1294 
L 3072 0 
L 2572 0 
L 2894 1294 
L 1978 1294 
L 1656 0 
L 1153 0 
L 1478 1294 
L 494 1294 
L 494 1772 
L 1594 1772 
L 1856 2816 
L 850 2816 
L 850 3297 
L 1978 3297 
L 2297 4594 
L 2803 4594 
z
" transform="scale(0.015625)"/>
    </defs>
    <use xlink:href="#DejaVuSans-56"/>
    <use xlink:href="#DejaVuSans-4d" x="68.408203"/>
    <use xlink:href="#DejaVuSans-41" x="154.6875"/>
    <use xlink:href="#DejaVuSans-46" x="223.095703"/>
    <use xlink:href="#DejaVuSans-20" x="280.615234"/>
    <use xlink:href="#DejaVuSans-53" x="312.402344"/>
    <use xlink:href="#DejaVuSans-63" x="375.878906"/>
    <use xlink:href="#DejaVuSans-6f" x="430.859375"/>
    <use xlink:href="#DejaVuSans-72" x="492.041016"/>
    <use xlink:href="#DejaVuSans-65" x="530.904297"/>
    <use xlink:href="#DejaVuSans-73" x="592.427734"/>
    <use xlink:href="#DejaVuSans-20" x="644.527344"/>
    <use xlink:href="#DejaVuSans-4f" x="676.314453"/>
    <use xlink:href="#DejaVuSans-76" x="755.025391"/>
    <use xlink:href="#DejaVuSans-65" x="814.205078"/>
    <use xlink:href="#DejaVuSans-72" x="875.728516"/>
    <use xlink:href="#DejaVuSans-20" x="916.841797"/>
    <use xlink:href="#DejaVuSans-46" x="948.628906"/>
    <use xlink:href="#DejaVuSans-72" x="998.898438"/>
    <use xlink:href="#DejaVuSans-61" x="1040.011719"/>
    <use xlink:href="#DejaVuSans-6d" x="1101.291016"/>
    <use xlink:href="#DejaVuSans-65" x="1198.703125"/>
    <use xlink:href="#DejaVuSans-73" x="1260.226562"/>
    <use xlink:href="#DejaVuSans-3a" x="1312.326172"/>
    <use xlink:href="#DejaVuSans-20" x="1346.017578"/>
    <use xlink:href="#DejaVuSans-56" x="1377.804688"/>
    <use xlink:href="#DejaVuSans-69" x="1443.962891"/>
    <use xlink:href="#DejaVuSans-64" x="1471.746094"/>
    <use xlink:href="#DejaVuSans-65" x="1535.222656"/>
    <use xlink:href="#DejaVuSans-6f" x="1596.746094"/>
    <use xlink:href="#DejaVuSans-20" x="1657.927734"/>
    <use xlink:href="#DejaVuSans-23" x="1689.714844"/>
    <use xlink:href="#DejaVuSans-33" x="1773.503906"/>
    <use xlink:href="#DejaVuSans-30" x="1837.126953"/>
   </g>
  </g>
  <g id="text_37">
   <!-- Video Frames -->
   <g transform="translate(187.847438 339.936375) scale(0.12 -0.12)">
    <use xlink:href="#DejaVuSans-56"/>
    <use xlink:href="#DejaVuSans-69" x="66.158203"/>
    <use xlink:href="#DejaVuSans-64" x="93.941406"/>
    <use xlink:href="#DejaVuSans-65" x="157.417969"/>
    <use xlink:href="#DejaVuSans-6f" x="218.941406"/>
    <use xlink:href="#DejaVuSans-20" x="280.123047"/>
    <use xlink:href="#DejaVuSans-46" x="311.910156"/>
    <use xlink:href="#DejaVuSans-72" x="362.179688"/>
    <use xlink:href="#DejaVuSans-61" x="403.292969"/>
    <use xlink:href="#DejaVuSans-6d" x="464.572266"/>
    <use xlink:href="#DejaVuSans-65" x="561.984375"/>
    <use xlink:href="#DejaVuSans-73" x="623.507812"/>
   </g>
  </g>
  <g id="text_38">
   <!-- Raw VMAF Scores -->
   <g transform="translate(16.318125 226.284562) rotate(-90) scale(0.12 -0.12)">
    <defs>
     <path id="DejaVuSans-77" d="M 269 3500 
L 844 3500 
L 1563 769 
L 2278 3500 
L 2956 3500 
L 3675 769 
L 4391 3500 
L 4966 3500 
L 4050 0 
L 3372 0 
L 2619 2869 
L 1863 0 
L 1184 0 
L 269 3500 
z
" transform="scale(0.015625)"/>
    </defs>
    <use xlink:href="#DejaVuSans-52"/>
    <use xlink:href="#DejaVuSans-61" x="67.232422"/>
    <use xlink:href="#DejaVuSans-77" x="128.511719"/>
    <use xlink:href="#DejaVuSans-20" x="210.298828"/>
    <use xlink:href="#DejaVuSans-56" x="242.085938"/>
    <use xlink:href="#DejaVuSans-4d" x="310.494141"/>
    <use xlink:href="#DejaVuSans-41" x="396.773438"/>
    <use xlink:href="#DejaVuSans-46" x="465.181641"/>
    <use xlink:href="#DejaVuSans-20" x="522.701172"/>
    <use xlink:href="#DejaVuSans-53" x="554.488281"/>
    <use xlink:href="#DejaVuSans-63" x="617.964844"/>
    <use xlink:href="#DejaVuSans-6f" x="672.945312"/>
    <use xlink:href="#DejaVuSans-72" x="734.126953"/>
    <use xlink:href="#DejaVuSans-65" x="772.990234"/>
    <use xlink:href="#DejaVuSans-73" x="834.513672"/>
   </g>
  </g>
 </g>
 <defs>
  <clipPath id="p58c43821c1">
   <rect x="55.584" y="41.76" width="162.327273" height="110.88"/>
  </clipPath>
  <clipPath id="p3e49f55cac">
   <rect x="250.376727" y="41.76" width="162.327273" height="110.88"/>
  </clipPath>
  <clipPath id="pa9246e983c">
   <rect x="55.584" y="196.992" width="162.327273" height="110.88"/>
  </clipPath>
  <clipPath id="p2a47f2447c">
   <rect x="250.376727" y="196.992" width="162.327273" height="110.88"/>
  </clipPath>
 </defs>
</svg>
