<?xml version="1.0" encoding="utf-8" standalone="no"?>
<!DOCTYPE svg PUBLIC "-//W3C//DTD SVG 1.1//EN"
  "http://www.w3.org/Graphics/SVG/1.1/DTD/svg11.dtd">
<svg xmlns:xlink="http://www.w3.org/1999/xlink" width="419.904pt" height="349.632pt" viewBox="0 0 419.904 349.632" xmlns="http://www.w3.org/2000/svg" version="1.1">
 <metadata>
  <rdf:RDF xmlns:dc="http://purl.org/dc/elements/1.1/" xmlns:cc="http://creativecommons.org/ns#" xmlns:rdf="http://www.w3.org/1999/02/22-rdf-syntax-ns#">
   <cc:Work>
    <dc:type rdf:resource="http://purl.org/dc/dcmitype/StillImage"/>
    <dc:date>2024-07-24T16:31:45.806556</dc:date>
    <dc:format>image/svg+xml</dc:format>
    <dc:creator>
     <cc:Agent>
      <dc:title>Matplotlib v3.7.2, https://matplotlib.org/</dc:title>
     </cc:Agent>
    </dc:creator>
   </cc:Work>
  </rdf:RDF>
 </metadata>
 <defs>
  <style type="text/css">*{stroke-linejoin: round; stroke-linecap: butt}</style>
 </defs>
 <g id="figure_1">
  <g id="patch_1">
   <path d="M 0 349.632 
L 419.904 349.632 
L 419.904 -0 
L 0 -0 
z
" style="fill: #ffffff"/>
  </g>
  <g id="axes_1">
   <g id="patch_2">
    <path d="M 55.584 152.64 
L 217.911273 152.64 
L 217.911273 41.76 
L 55.584 41.76 
z
" style="fill: #ffffff"/>
   </g>
   <g id="matplotlib.axis_1">
    <g id="xtick_1">
     <g id="line2d_1">
      <defs>
       <path id="m880956fcae" d="M 0 0 
L 0 3.5 
" style="stroke: #000000; stroke-width: 0.8"/>
      </defs>
      <g>
       <use xlink:href="#m880956fcae" x="62.962512" y="152.64" style="stroke: #000000; stroke-width: 0.8"/>
      </g>
     </g>
     <g id="text_1">
      <!-- 0 -->
      <g transform="translate(59.781262 167.238437) scale(0.1 -0.1)">
       <defs>
        <path id="DejaVuSans-30" d="M 2034 4250 
Q 1547 4250 1301 3770 
Q 1056 3291 1056 2328 
Q 1056 1369 1301 889 
Q 1547 409 2034 409 
Q 2525 409 2770 889 
Q 3016 1369 3016 2328 
Q 3016 3291 2770 3770 
Q 2525 4250 2034 4250 
z
M 2034 4750 
Q 2819 4750 3233 4129 
Q 3647 3509 3647 2328 
Q 3647 1150 3233 529 
Q 2819 -91 2034 -91 
Q 1250 -91 836 529 
Q 422 1150 422 2328 
Q 422 3509 836 4129 
Q 1250 4750 2034 4750 
z
" transform="scale(0.015625)"/>
       </defs>
       <use xlink:href="#DejaVuSans-30"/>
      </g>
     </g>
    </g>
    <g id="xtick_2">
     <g id="line2d_2">
      <g>
       <use xlink:href="#m880956fcae" x="97.201549" y="152.64" style="stroke: #000000; stroke-width: 0.8"/>
      </g>
     </g>
     <g id="text_2">
      <!-- 100 -->
      <g transform="translate(87.657799 167.238437) scale(0.1 -0.1)">
       <defs>
        <path id="DejaVuSans-31" d="M 794 531 
L 1825 531 
L 1825 4091 
L 703 3866 
L 703 4441 
L 1819 4666 
L 2450 4666 
L 2450 531 
L 3481 531 
L 3481 0 
L 794 0 
L 794 531 
z
" transform="scale(0.015625)"/>
       </defs>
       <use xlink:href="#DejaVuSans-31"/>
       <use xlink:href="#DejaVuSans-30" x="63.623047"/>
       <use xlink:href="#DejaVuSans-30" x="127.246094"/>
      </g>
     </g>
    </g>
    <g id="xtick_3">
     <g id="line2d_3">
      <g>
       <use xlink:href="#m880956fcae" x="131.440586" y="152.64" style="stroke: #000000; stroke-width: 0.8"/>
      </g>
     </g>
     <g id="text_3">
      <!-- 200 -->
      <g transform="translate(121.896836 167.238437) scale(0.1 -0.1)">
       <defs>
        <path id="DejaVuSans-32" d="M 1228 531 
L 3431 531 
L 3431 0 
L 469 0 
L 469 531 
Q 828 903 1448 1529 
Q 2069 2156 2228 2338 
Q 2531 2678 2651 2914 
Q 2772 3150 2772 3378 
Q 2772 3750 2511 3984 
Q 2250 4219 1831 4219 
Q 1534 4219 1204 4116 
Q 875 4013 500 3803 
L 500 4441 
Q 881 4594 1212 4672 
Q 1544 4750 1819 4750 
Q 2544 4750 2975 4387 
Q 3406 4025 3406 3419 
Q 3406 3131 3298 2873 
Q 3191 2616 2906 2266 
Q 2828 2175 2409 1742 
Q 1991 1309 1228 531 
z
" transform="scale(0.015625)"/>
       </defs>
       <use xlink:href="#DejaVuSans-32"/>
       <use xlink:href="#DejaVuSans-30" x="63.623047"/>
       <use xlink:href="#DejaVuSans-30" x="127.246094"/>
      </g>
     </g>
    </g>
    <g id="xtick_4">
     <g id="line2d_4">
      <g>
       <use xlink:href="#m880956fcae" x="165.679622" y="152.64" style="stroke: #000000; stroke-width: 0.8"/>
      </g>
     </g>
     <g id="text_4">
      <!-- 300 -->
      <g transform="translate(156.135872 167.238437) scale(0.1 -0.1)">
       <defs>
        <path id="DejaVuSans-33" d="M 2597 2516 
Q 3050 2419 3304 2112 
Q 3559 1806 3559 1356 
Q 3559 666 3084 287 
Q 2609 -91 1734 -91 
Q 1441 -91 1130 -33 
Q 819 25 488 141 
L 488 750 
Q 750 597 1062 519 
Q 1375 441 1716 441 
Q 2309 441 2620 675 
Q 2931 909 2931 1356 
Q 2931 1769 2642 2001 
Q 2353 2234 1838 2234 
L 1294 2234 
L 1294 2753 
L 1863 2753 
Q 2328 2753 2575 2939 
Q 2822 3125 2822 3475 
Q 2822 3834 2567 4026 
Q 2313 4219 1838 4219 
Q 1578 4219 1281 4162 
Q 984 4106 628 3988 
L 628 4550 
Q 988 4650 1302 4700 
Q 1616 4750 1894 4750 
Q 2613 4750 3031 4423 
Q 3450 4097 3450 3541 
Q 3450 3153 3228 2886 
Q 3006 2619 2597 2516 
z
" transform="scale(0.015625)"/>
       </defs>
       <use xlink:href="#DejaVuSans-33"/>
       <use xlink:href="#DejaVuSans-30" x="63.623047"/>
       <use xlink:href="#DejaVuSans-30" x="127.246094"/>
      </g>
     </g>
    </g>
    <g id="xtick_5">
     <g id="line2d_5">
      <g>
       <use xlink:href="#m880956fcae" x="199.918659" y="152.64" style="stroke: #000000; stroke-width: 0.8"/>
      </g>
     </g>
     <g id="text_5">
      <!-- 400 -->
      <g transform="translate(190.374909 167.238437) scale(0.1 -0.1)">
       <defs>
        <path id="DejaVuSans-34" d="M 2419 4116 
L 825 1625 
L 2419 1625 
L 2419 4116 
z
M 2253 4666 
L 3047 4666 
L 3047 1625 
L 3713 1625 
L 3713 1100 
L 3047 1100 
L 3047 0 
L 2419 0 
L 2419 1100 
L 313 1100 
L 313 1709 
L 2253 4666 
z
" transform="scale(0.015625)"/>
       </defs>
       <use xlink:href="#DejaVuSans-34"/>
       <use xlink:href="#DejaVuSans-30" x="63.623047"/>
       <use xlink:href="#DejaVuSans-30" x="127.246094"/>
      </g>
     </g>
    </g>
   </g>
   <g id="matplotlib.axis_2">
    <g id="ytick_1">
     <g id="line2d_6">
      <defs>
       <path id="m65b6f8c90a" d="M 0 0 
L -3.5 0 
" style="stroke: #000000; stroke-width: 0.8"/>
      </defs>
      <g>
       <use xlink:href="#m65b6f8c90a" x="55.584" y="147.6" style="stroke: #000000; stroke-width: 0.8"/>
      </g>
     </g>
     <g id="text_6">
      <!-- 0 -->
      <g transform="translate(42.2215 151.399219) scale(0.1 -0.1)">
       <use xlink:href="#DejaVuSans-30"/>
      </g>
     </g>
    </g>
    <g id="ytick_2">
     <g id="line2d_7">
      <g>
       <use xlink:href="#m65b6f8c90a" x="55.584" y="120.843678" style="stroke: #000000; stroke-width: 0.8"/>
      </g>
     </g>
     <g id="text_7">
      <!-- 10 -->
      <g transform="translate(35.859 124.642896) scale(0.1 -0.1)">
       <use xlink:href="#DejaVuSans-31"/>
       <use xlink:href="#DejaVuSans-30" x="63.623047"/>
      </g>
     </g>
    </g>
    <g id="ytick_3">
     <g id="line2d_8">
      <g>
       <use xlink:href="#m65b6f8c90a" x="55.584" y="94.087355" style="stroke: #000000; stroke-width: 0.8"/>
      </g>
     </g>
     <g id="text_8">
      <!-- 20 -->
      <g transform="translate(35.859 97.886574) scale(0.1 -0.1)">
       <use xlink:href="#DejaVuSans-32"/>
       <use xlink:href="#DejaVuSans-30" x="63.623047"/>
      </g>
     </g>
    </g>
    <g id="ytick_4">
     <g id="line2d_9">
      <g>
       <use xlink:href="#m65b6f8c90a" x="55.584" y="67.331033" style="stroke: #000000; stroke-width: 0.8"/>
      </g>
     </g>
     <g id="text_9">
      <!-- 30 -->
      <g transform="translate(35.859 71.130252) scale(0.1 -0.1)">
       <use xlink:href="#DejaVuSans-33"/>
       <use xlink:href="#DejaVuSans-30" x="63.623047"/>
      </g>
     </g>
    </g>
   </g>
   <g id="line2d_10">
    <path d="M 62.962512 50.232036 
L 63.304903 46.8 
L 63.989683 65.727661 
L 64.332074 63.426138 
L 64.674464 81.858871 
L 65.016855 75.808009 
L 65.701635 91.856935 
L 66.044026 99.739757 
L 66.386416 97.452875 
L 67.071197 119.699452 
L 67.413587 117.818528 
L 67.755978 120.685366 
L 68.098368 119.597708 
L 68.440758 122.892597 
L 68.783149 119.819282 
L 69.125539 122.648135 
L 69.467929 121.952082 
L 70.15271 117.484801 
L 70.4951 117.593031 
L 70.837491 122.175351 
L 71.179881 122.220606 
L 71.522272 124.481374 
L 71.864662 125.07188 
L 72.207052 122.903446 
L 72.549443 114.630421 
L 72.891833 113.373056 
L 73.234223 121.438709 
L 73.576614 118.827115 
L 73.919004 127.240507 
L 74.261394 125.757385 
L 74.603785 120.084628 
L 74.946175 120.525502 
L 75.288566 126.315356 
L 75.630956 127.512616 
L 75.973346 130.486996 
L 76.315737 126.236818 
L 76.658127 124.403681 
L 77.000517 124.687635 
L 77.342908 128.261196 
L 77.685298 125.240643 
L 78.027689 117.583853 
L 78.370079 118.033825 
L 78.712469 120.457691 
L 79.05486 127.069957 
L 79.39725 126.667962 
L 79.73964 119.598139 
L 80.082031 123.064648 
L 80.424421 119.534183 
L 80.766811 117.970541 
L 81.109202 120.004747 
L 81.451592 116.217989 
L 82.136373 123.540878 
L 82.478763 122.893747 
L 82.821154 123.034608 
L 83.163544 117.761601 
L 83.505934 115.711018 
L 83.848325 111.63786 
L 84.190715 131.920985 
L 84.533105 128.912716 
L 84.875496 128.628834 
L 85.217886 132.741524 
L 85.560277 129.643166 
L 85.902667 137.814745 
L 86.245057 138.836371 
L 86.587448 146.837108 
L 86.929838 147.6 
L 87.272228 147.6 
L 87.614619 140.858587 
L 87.957009 136.499848 
L 88.2994 138.149164 
L 88.64179 131.815755 
L 88.98418 129.965028 
L 89.326571 129.195348 
L 89.668961 116.367053 
L 90.011351 115.028188 
L 90.353742 116.125374 
L 90.696132 117.863176 
L 91.038522 123.446629 
L 91.380913 131.98661 
L 91.723303 132.519532 
L 92.065694 127.265259 
L 92.408084 118.037039 
L 92.750474 117.20565 
L 93.092865 117.668344 
L 93.435255 117.34554 
L 94.120036 128.872742 
L 94.462426 131.655627 
L 94.804816 129.606363 
L 95.489597 131.623565 
L 95.831988 131.767358 
L 96.174378 126.172676 
L 96.516768 130.205667 
L 96.859159 129.307861 
L 97.201549 125.018341 
L 97.543939 123.965691 
L 97.88633 125.169958 
L 98.22872 123.436684 
L 98.571111 124.560861 
L 98.913501 122.935337 
L 99.255891 124.593606 
L 99.940672 125.357239 
L 100.625453 132.06784 
L 100.967843 135.5915 
L 101.310233 136.859084 
L 101.652624 132.916989 
L 101.995014 127.611821 
L 102.337405 130.973485 
L 102.679795 131.057122 
L 103.022185 131.803648 
L 103.364576 129.690014 
L 104.049356 139.514167 
L 104.391747 136.861896 
L 104.734137 135.705423 
L 105.761308 144.051084 
L 106.103699 145.530441 
L 106.446089 140.707831 
L 106.788479 139.205019 
L 107.13087 140.154446 
L 107.47326 143.239808 
L 107.81565 137.140105 
L 108.158041 127.333199 
L 108.500431 124.791782 
L 108.842821 119.369717 
L 109.869993 125.594793 
L 110.554773 119.46904 
L 110.897164 125.276949 
L 111.239554 120.293019 
L 111.581944 118.737219 
L 111.924335 114.093507 
L 112.609116 130.034386 
L 112.951506 126.720284 
L 113.293896 127.513432 
L 113.636287 127.369475 
L 113.978677 125.558222 
L 114.321067 125.480142 
L 115.005848 129.796003 
L 115.348238 129.683351 
L 115.690629 127.869131 
L 116.033019 128.416129 
L 116.37541 130.573729 
L 116.7178 129.868267 
L 117.06019 130.082895 
L 117.402581 124.333572 
L 117.744971 123.027719 
L 118.087361 127.134086 
L 118.429752 128.621123 
L 118.772142 128.352834 
L 119.114532 129.716687 
L 119.799313 134.953782 
L 120.141704 134.041683 
L 120.826484 139.168893 
L 121.168875 139.135643 
L 121.511265 143.193729 
L 121.853655 138.648977 
L 122.196046 138.027861 
L 122.538436 140.659884 
L 122.880827 140.44049 
L 123.223217 136.713294 
L 123.565607 139.447999 
L 123.907998 135.242199 
L 124.250388 138.550115 
L 124.935169 134.108149 
L 125.277559 133.603027 
L 125.619949 136.895566 
L 125.96234 132.295199 
L 126.30473 136.92609 
L 126.647121 139.511789 
L 126.989511 137.634257 
L 127.331901 134.156479 
L 127.674292 129.269562 
L 128.016682 128.611723 
L 128.359072 129.303385 
L 128.701463 129.426263 
L 129.043853 127.016174 
L 129.386243 120.106878 
L 129.728634 120.250321 
L 130.071024 115.30928 
L 130.413415 116.461249 
L 130.755805 122.188988 
L 131.098195 131.330775 
L 131.440586 131.281217 
L 131.782976 129.723371 
L 132.125366 119.329468 
L 132.467757 114.150602 
L 132.810147 120.101139 
L 133.152538 121.618495 
L 133.494928 119.797936 
L 133.837318 120.084713 
L 134.179709 118.741321 
L 134.522099 115.765726 
L 134.864489 122.973642 
L 135.54927 125.650333 
L 135.89166 125.371064 
L 136.234051 121.48367 
L 136.576441 119.718585 
L 136.918832 121.595975 
L 137.603612 122.452926 
L 137.946003 121.138409 
L 138.288393 122.314277 
L 138.630783 120.841179 
L 138.973174 121.544747 
L 139.315564 117.83783 
L 139.657954 117.323324 
L 140.000345 118.061716 
L 140.342735 116.670013 
L 140.685126 103.954252 
L 141.027516 110.092011 
L 141.369906 114.056615 
L 141.712297 113.400973 
L 142.054687 123.96427 
L 142.397077 125.526853 
L 142.739468 136.048142 
L 143.766639 122.899577 
L 144.109029 125.043564 
L 144.45142 117.762487 
L 144.79381 117.830624 
L 145.1362 115.360569 
L 145.478591 119.639525 
L 146.163371 123.923338 
L 146.505762 123.200674 
L 146.848152 120.252534 
L 147.190543 118.331743 
L 147.532933 118.878608 
L 147.875323 116.46069 
L 148.217714 115.470197 
L 148.560104 116.809338 
L 148.902494 115.33259 
L 149.244885 120.527661 
L 149.587275 118.405085 
L 149.929665 114.886227 
L 150.272056 114.66408 
L 150.614446 120.208654 
L 150.956837 120.806387 
L 151.299227 123.060434 
L 151.641617 118.743652 
L 151.984008 118.414964 
L 152.668788 123.895771 
L 153.011179 124.358752 
L 153.353569 128.599651 
L 153.69596 128.398737 
L 154.38074 121.694264 
L 154.723131 124.734039 
L 155.407911 127.035794 
L 155.750302 123.573572 
L 156.092692 123.055722 
L 156.435082 123.471162 
L 156.777473 119.249346 
L 157.119863 118.486759 
L 157.462254 117.329607 
L 157.804644 118.37636 
L 158.147034 117.572977 
L 158.489425 118.986703 
L 158.831815 117.205944 
L 159.174205 118.37069 
L 159.516596 117.87801 
L 159.858986 118.127127 
L 160.201376 121.201653 
L 160.543767 120.527603 
L 160.886157 123.821137 
L 161.228548 123.395776 
L 161.570938 126.5587 
L 161.913328 123.157273 
L 162.255719 133.681203 
L 162.598109 131.083863 
L 162.940499 135.111061 
L 163.28289 141.331858 
L 163.62528 143.61513 
L 163.96767 144.214707 
L 164.310061 145.2372 
L 164.652451 147.131834 
L 164.994842 147.6 
L 165.337232 143.397489 
L 165.679622 145.49946 
L 166.022013 145.036099 
L 166.706793 147.6 
L 167.049184 145.93794 
L 167.391574 147.6 
L 167.733965 147.285089 
L 168.076355 147.6 
L 169.103526 147.6 
L 169.445916 145.593086 
L 169.788307 147.6 
L 171.157868 147.6 
L 171.842649 147.6 
L 172.185039 143.837807 
L 172.52743 147.6 
L 173.21221 147.6 
L 173.554601 144.608047 
L 173.896991 144.388334 
L 174.239381 145.410902 
L 174.581772 144.597347 
L 174.924162 146.466096 
L 175.266553 147.6 
L 176.978504 147.6 
L 177.320895 146.472823 
L 177.663285 147.6 
L 178.005676 147.156134 
L 178.348066 145.944643 
L 178.690456 147.396149 
L 179.032847 146.991163 
L 179.375237 146.262625 
L 179.717627 147.6 
L 193.755632 147.6 
L 194.098023 146.476628 
L 194.440413 147.6 
L 197.864317 147.6 
L 198.206707 145.419159 
L 198.549098 146.069514 
L 198.891488 147.6 
L 199.233878 146.522518 
L 199.576269 146.478715 
L 199.918659 147.6 
L 200.60344 147.6 
L 200.94583 147.084261 
L 201.28822 144.33381 
L 201.630611 143.345244 
L 201.973001 136.753947 
L 202.315392 137.654129 
L 203.000172 134.510248 
L 203.342563 133.419922 
L 203.684953 133.31031 
L 204.027343 127.554476 
L 204.369734 128.207909 
L 204.712124 125.50308 
L 205.054514 124.69723 
L 205.396905 127.449974 
L 205.739295 133.156517 
L 206.424076 124.963212 
L 206.766466 125.246337 
L 207.108857 121.016459 
L 207.451247 121.987543 
L 207.793637 123.875086 
L 208.136028 124.264805 
L 208.478418 124.008258 
L 208.820808 123.255121 
L 209.163199 119.432306 
L 209.505589 123.422519 
L 209.84798 120.837666 
L 210.19037 126.581293 
L 210.53276 127.603735 
L 210.53276 127.603735 
" clip-path="url(#pb711dcf068)" style="fill: none; stroke: #008000; stroke-width: 1.5; stroke-linecap: square"/>
   </g>
   <g id="patch_3">
    <path d="M 55.584 152.64 
L 55.584 41.76 
" style="fill: none; stroke: #000000; stroke-width: 0.8; stroke-linejoin: miter; stroke-linecap: square"/>
   </g>
   <g id="patch_4">
    <path d="M 217.911273 152.64 
L 217.911273 41.76 
" style="fill: none; stroke: #000000; stroke-width: 0.8; stroke-linejoin: miter; stroke-linecap: square"/>
   </g>
   <g id="patch_5">
    <path d="M 55.584 152.64 
L 217.911273 152.64 
" style="fill: none; stroke: #000000; stroke-width: 0.8; stroke-linejoin: miter; stroke-linecap: square"/>
   </g>
   <g id="patch_6">
    <path d="M 55.584 41.76 
L 217.911273 41.76 
" style="fill: none; stroke: #000000; stroke-width: 0.8; stroke-linejoin: miter; stroke-linecap: square"/>
   </g>
   <g id="text_10">
    <!-- No Prediction (FOSS) -->
    <g transform="translate(74.495761 35.76) scale(0.12 -0.12)">
     <defs>
      <path id="DejaVuSans-4e" d="M 628 4666 
L 1478 4666 
L 3547 763 
L 3547 4666 
L 4159 4666 
L 4159 0 
L 3309 0 
L 1241 3903 
L 1241 0 
L 628 0 
L 628 4666 
z
" transform="scale(0.015625)"/>
      <path id="DejaVuSans-6f" d="M 1959 3097 
Q 1497 3097 1228 2736 
Q 959 2375 959 1747 
Q 959 1119 1226 758 
Q 1494 397 1959 397 
Q 2419 397 2687 759 
Q 2956 1122 2956 1747 
Q 2956 2369 2687 2733 
Q 2419 3097 1959 3097 
z
M 1959 3584 
Q 2709 3584 3137 3096 
Q 3566 2609 3566 1747 
Q 3566 888 3137 398 
Q 2709 -91 1959 -91 
Q 1206 -91 779 398 
Q 353 888 353 1747 
Q 353 2609 779 3096 
Q 1206 3584 1959 3584 
z
" transform="scale(0.015625)"/>
      <path id="DejaVuSans-20" transform="scale(0.015625)"/>
      <path id="DejaVuSans-50" d="M 1259 4147 
L 1259 2394 
L 2053 2394 
Q 2494 2394 2734 2622 
Q 2975 2850 2975 3272 
Q 2975 3691 2734 3919 
Q 2494 4147 2053 4147 
L 1259 4147 
z
M 628 4666 
L 2053 4666 
Q 2838 4666 3239 4311 
Q 3641 3956 3641 3272 
Q 3641 2581 3239 2228 
Q 2838 1875 2053 1875 
L 1259 1875 
L 1259 0 
L 628 0 
L 628 4666 
z
" transform="scale(0.015625)"/>
      <path id="DejaVuSans-72" d="M 2631 2963 
Q 2534 3019 2420 3045 
Q 2306 3072 2169 3072 
Q 1681 3072 1420 2755 
Q 1159 2438 1159 1844 
L 1159 0 
L 581 0 
L 581 3500 
L 1159 3500 
L 1159 2956 
Q 1341 3275 1631 3429 
Q 1922 3584 2338 3584 
Q 2397 3584 2469 3576 
Q 2541 3569 2628 3553 
L 2631 2963 
z
" transform="scale(0.015625)"/>
      <path id="DejaVuSans-65" d="M 3597 1894 
L 3597 1613 
L 953 1613 
Q 991 1019 1311 708 
Q 1631 397 2203 397 
Q 2534 397 2845 478 
Q 3156 559 3463 722 
L 3463 178 
Q 3153 47 2828 -22 
Q 2503 -91 2169 -91 
Q 1331 -91 842 396 
Q 353 884 353 1716 
Q 353 2575 817 3079 
Q 1281 3584 2069 3584 
Q 2775 3584 3186 3129 
Q 3597 2675 3597 1894 
z
M 3022 2063 
Q 3016 2534 2758 2815 
Q 2500 3097 2075 3097 
Q 1594 3097 1305 2825 
Q 1016 2553 972 2059 
L 3022 2063 
z
" transform="scale(0.015625)"/>
      <path id="DejaVuSans-64" d="M 2906 2969 
L 2906 4863 
L 3481 4863 
L 3481 0 
L 2906 0 
L 2906 525 
Q 2725 213 2448 61 
Q 2172 -91 1784 -91 
Q 1150 -91 751 415 
Q 353 922 353 1747 
Q 353 2572 751 3078 
Q 1150 3584 1784 3584 
Q 2172 3584 2448 3432 
Q 2725 3281 2906 2969 
z
M 947 1747 
Q 947 1113 1208 752 
Q 1469 391 1925 391 
Q 2381 391 2643 752 
Q 2906 1113 2906 1747 
Q 2906 2381 2643 2742 
Q 2381 3103 1925 3103 
Q 1469 3103 1208 2742 
Q 947 2381 947 1747 
z
" transform="scale(0.015625)"/>
      <path id="DejaVuSans-69" d="M 603 3500 
L 1178 3500 
L 1178 0 
L 603 0 
L 603 3500 
z
M 603 4863 
L 1178 4863 
L 1178 4134 
L 603 4134 
L 603 4863 
z
" transform="scale(0.015625)"/>
      <path id="DejaVuSans-63" d="M 3122 3366 
L 3122 2828 
Q 2878 2963 2633 3030 
Q 2388 3097 2138 3097 
Q 1578 3097 1268 2742 
Q 959 2388 959 1747 
Q 959 1106 1268 751 
Q 1578 397 2138 397 
Q 2388 397 2633 464 
Q 2878 531 3122 666 
L 3122 134 
Q 2881 22 2623 -34 
Q 2366 -91 2075 -91 
Q 1284 -91 818 406 
Q 353 903 353 1747 
Q 353 2603 823 3093 
Q 1294 3584 2113 3584 
Q 2378 3584 2631 3529 
Q 2884 3475 3122 3366 
z
" transform="scale(0.015625)"/>
      <path id="DejaVuSans-74" d="M 1172 4494 
L 1172 3500 
L 2356 3500 
L 2356 3053 
L 1172 3053 
L 1172 1153 
Q 1172 725 1289 603 
Q 1406 481 1766 481 
L 2356 481 
L 2356 0 
L 1766 0 
Q 1100 0 847 248 
Q 594 497 594 1153 
L 594 3053 
L 172 3053 
L 172 3500 
L 594 3500 
L 594 4494 
L 1172 4494 
z
" transform="scale(0.015625)"/>
      <path id="DejaVuSans-6e" d="M 3513 2113 
L 3513 0 
L 2938 0 
L 2938 2094 
Q 2938 2591 2744 2837 
Q 2550 3084 2163 3084 
Q 1697 3084 1428 2787 
Q 1159 2491 1159 1978 
L 1159 0 
L 581 0 
L 581 3500 
L 1159 3500 
L 1159 2956 
Q 1366 3272 1645 3428 
Q 1925 3584 2291 3584 
Q 2894 3584 3203 3211 
Q 3513 2838 3513 2113 
z
" transform="scale(0.015625)"/>
      <path id="DejaVuSans-28" d="M 1984 4856 
Q 1566 4138 1362 3434 
Q 1159 2731 1159 2009 
Q 1159 1288 1364 580 
Q 1569 -128 1984 -844 
L 1484 -844 
Q 1016 -109 783 600 
Q 550 1309 550 2009 
Q 550 2706 781 3412 
Q 1013 4119 1484 4856 
L 1984 4856 
z
" transform="scale(0.015625)"/>
      <path id="DejaVuSans-46" d="M 628 4666 
L 3309 4666 
L 3309 4134 
L 1259 4134 
L 1259 2759 
L 3109 2759 
L 3109 2228 
L 1259 2228 
L 1259 0 
L 628 0 
L 628 4666 
z
" transform="scale(0.015625)"/>
      <path id="DejaVuSans-4f" d="M 2522 4238 
Q 1834 4238 1429 3725 
Q 1025 3213 1025 2328 
Q 1025 1447 1429 934 
Q 1834 422 2522 422 
Q 3209 422 3611 934 
Q 4013 1447 4013 2328 
Q 4013 3213 3611 3725 
Q 3209 4238 2522 4238 
z
M 2522 4750 
Q 3503 4750 4090 4092 
Q 4678 3434 4678 2328 
Q 4678 1225 4090 567 
Q 3503 -91 2522 -91 
Q 1538 -91 948 565 
Q 359 1222 359 2328 
Q 359 3434 948 4092 
Q 1538 4750 2522 4750 
z
" transform="scale(0.015625)"/>
      <path id="DejaVuSans-53" d="M 3425 4513 
L 3425 3897 
Q 3066 4069 2747 4153 
Q 2428 4238 2131 4238 
Q 1616 4238 1336 4038 
Q 1056 3838 1056 3469 
Q 1056 3159 1242 3001 
Q 1428 2844 1947 2747 
L 2328 2669 
Q 3034 2534 3370 2195 
Q 3706 1856 3706 1288 
Q 3706 609 3251 259 
Q 2797 -91 1919 -91 
Q 1588 -91 1214 -16 
Q 841 59 441 206 
L 441 856 
Q 825 641 1194 531 
Q 1563 422 1919 422 
Q 2459 422 2753 634 
Q 3047 847 3047 1241 
Q 3047 1584 2836 1778 
Q 2625 1972 2144 2069 
L 1759 2144 
Q 1053 2284 737 2584 
Q 422 2884 422 3419 
Q 422 4038 858 4394 
Q 1294 4750 2059 4750 
Q 2388 4750 2728 4690 
Q 3069 4631 3425 4513 
z
" transform="scale(0.015625)"/>
      <path id="DejaVuSans-29" d="M 513 4856 
L 1013 4856 
Q 1481 4119 1714 3412 
Q 1947 2706 1947 2009 
Q 1947 1309 1714 600 
Q 1481 -109 1013 -844 
L 513 -844 
Q 928 -128 1133 580 
Q 1338 1288 1338 2009 
Q 1338 2731 1133 3434 
Q 928 4138 513 4856 
z
" transform="scale(0.015625)"/>
     </defs>
     <use xlink:href="#DejaVuSans-4e"/>
     <use xlink:href="#DejaVuSans-6f" x="74.804688"/>
     <use xlink:href="#DejaVuSans-20" x="135.986328"/>
     <use xlink:href="#DejaVuSans-50" x="167.773438"/>
     <use xlink:href="#DejaVuSans-72" x="226.326172"/>
     <use xlink:href="#DejaVuSans-65" x="265.189453"/>
     <use xlink:href="#DejaVuSans-64" x="326.712891"/>
     <use xlink:href="#DejaVuSans-69" x="390.189453"/>
     <use xlink:href="#DejaVuSans-63" x="417.972656"/>
     <use xlink:href="#DejaVuSans-74" x="472.953125"/>
     <use xlink:href="#DejaVuSans-69" x="512.162109"/>
     <use xlink:href="#DejaVuSans-6f" x="539.945312"/>
     <use xlink:href="#DejaVuSans-6e" x="601.126953"/>
     <use xlink:href="#DejaVuSans-20" x="664.505859"/>
     <use xlink:href="#DejaVuSans-28" x="696.292969"/>
     <use xlink:href="#DejaVuSans-46" x="735.306641"/>
     <use xlink:href="#DejaVuSans-4f" x="792.826172"/>
     <use xlink:href="#DejaVuSans-53" x="871.537109"/>
     <use xlink:href="#DejaVuSans-53" x="935.013672"/>
     <use xlink:href="#DejaVuSans-29" x="998.490234"/>
    </g>
   </g>
  </g>
  <g id="axes_2">
   <g id="patch_7">
    <path d="M 250.376727 152.64 
L 412.704 152.64 
L 412.704 41.76 
L 250.376727 41.76 
z
" style="fill: #ffffff"/>
   </g>
   <g id="matplotlib.axis_3">
    <g id="xtick_6">
     <g id="line2d_11">
      <g>
       <use xlink:href="#m880956fcae" x="257.75524" y="152.64" style="stroke: #000000; stroke-width: 0.8"/>
      </g>
     </g>
     <g id="text_11">
      <!-- 0 -->
      <g transform="translate(254.57399 167.238437) scale(0.1 -0.1)">
       <use xlink:href="#DejaVuSans-30"/>
      </g>
     </g>
    </g>
    <g id="xtick_7">
     <g id="line2d_12">
      <g>
       <use xlink:href="#m880956fcae" x="291.994276" y="152.64" style="stroke: #000000; stroke-width: 0.8"/>
      </g>
     </g>
     <g id="text_12">
      <!-- 100 -->
      <g transform="translate(282.450526 167.238437) scale(0.1 -0.1)">
       <use xlink:href="#DejaVuSans-31"/>
       <use xlink:href="#DejaVuSans-30" x="63.623047"/>
       <use xlink:href="#DejaVuSans-30" x="127.246094"/>
      </g>
     </g>
    </g>
    <g id="xtick_8">
     <g id="line2d_13">
      <g>
       <use xlink:href="#m880956fcae" x="326.233313" y="152.64" style="stroke: #000000; stroke-width: 0.8"/>
      </g>
     </g>
     <g id="text_13">
      <!-- 200 -->
      <g transform="translate(316.689563 167.238437) scale(0.1 -0.1)">
       <use xlink:href="#DejaVuSans-32"/>
       <use xlink:href="#DejaVuSans-30" x="63.623047"/>
       <use xlink:href="#DejaVuSans-30" x="127.246094"/>
      </g>
     </g>
    </g>
    <g id="xtick_9">
     <g id="line2d_14">
      <g>
       <use xlink:href="#m880956fcae" x="360.47235" y="152.64" style="stroke: #000000; stroke-width: 0.8"/>
      </g>
     </g>
     <g id="text_14">
      <!-- 300 -->
      <g transform="translate(350.9286 167.238437) scale(0.1 -0.1)">
       <use xlink:href="#DejaVuSans-33"/>
       <use xlink:href="#DejaVuSans-30" x="63.623047"/>
       <use xlink:href="#DejaVuSans-30" x="127.246094"/>
      </g>
     </g>
    </g>
    <g id="xtick_10">
     <g id="line2d_15">
      <g>
       <use xlink:href="#m880956fcae" x="394.711386" y="152.64" style="stroke: #000000; stroke-width: 0.8"/>
      </g>
     </g>
     <g id="text_15">
      <!-- 400 -->
      <g transform="translate(385.167636 167.238437) scale(0.1 -0.1)">
       <use xlink:href="#DejaVuSans-34"/>
       <use xlink:href="#DejaVuSans-30" x="63.623047"/>
       <use xlink:href="#DejaVuSans-30" x="127.246094"/>
      </g>
     </g>
    </g>
   </g>
   <g id="matplotlib.axis_4">
    <g id="ytick_5">
     <g id="line2d_16">
      <g>
       <use xlink:href="#m65b6f8c90a" x="250.376727" y="147.6" style="stroke: #000000; stroke-width: 0.8"/>
      </g>
     </g>
     <g id="text_16">
      <!-- 0 -->
      <g transform="translate(237.014227 151.399219) scale(0.1 -0.1)">
       <use xlink:href="#DejaVuSans-30"/>
      </g>
     </g>
    </g>
    <g id="ytick_6">
     <g id="line2d_17">
      <g>
       <use xlink:href="#m65b6f8c90a" x="250.376727" y="120.836736" style="stroke: #000000; stroke-width: 0.8"/>
      </g>
     </g>
     <g id="text_17">
      <!-- 10 -->
      <g transform="translate(230.651727 124.635954) scale(0.1 -0.1)">
       <use xlink:href="#DejaVuSans-31"/>
       <use xlink:href="#DejaVuSans-30" x="63.623047"/>
      </g>
     </g>
    </g>
    <g id="ytick_7">
     <g id="line2d_18">
      <g>
       <use xlink:href="#m65b6f8c90a" x="250.376727" y="94.073471" style="stroke: #000000; stroke-width: 0.8"/>
      </g>
     </g>
     <g id="text_18">
      <!-- 20 -->
      <g transform="translate(230.651727 97.87269) scale(0.1 -0.1)">
       <use xlink:href="#DejaVuSans-32"/>
       <use xlink:href="#DejaVuSans-30" x="63.623047"/>
      </g>
     </g>
    </g>
    <g id="ytick_8">
     <g id="line2d_19">
      <g>
       <use xlink:href="#m65b6f8c90a" x="250.376727" y="67.310207" style="stroke: #000000; stroke-width: 0.8"/>
      </g>
     </g>
     <g id="text_19">
      <!-- 30 -->
      <g transform="translate(230.651727 71.109426) scale(0.1 -0.1)">
       <use xlink:href="#DejaVuSans-33"/>
       <use xlink:href="#DejaVuSans-30" x="63.623047"/>
      </g>
     </g>
    </g>
   </g>
   <g id="line2d_20">
    <path d="M 257.75524 50.195565 
L 258.09763 46.8 
L 258.782411 65.714289 
L 259.124801 63.385768 
L 259.467192 81.838993 
L 259.809582 75.799806 
L 260.494363 91.81368 
L 260.836753 99.707572 
L 261.179143 97.430005 
L 261.521534 108.373035 
L 261.863924 147.6 
L 262.891095 147.6 
L 264.603047 147.6 
L 264.945437 144.065001 
L 265.287828 147.6 
L 265.630218 147.6 
L 265.972608 122.207566 
L 266.314999 124.496751 
L 266.657389 125.073976 
L 266.99978 122.992278 
L 267.34217 114.751794 
L 267.68456 113.382294 
L 268.026951 121.429641 
L 268.369341 118.812475 
L 268.711731 127.229347 
L 269.054122 125.74897 
L 269.396512 120.076166 
L 269.738902 120.532488 
L 270.081293 147.6 
L 273.847587 147.6 
L 274.189977 126.620456 
L 274.532368 119.592619 
L 274.874758 123.062414 
L 275.217148 119.520379 
L 275.559539 118.03508 
L 275.901929 120.006223 
L 276.244319 116.238181 
L 276.9291 123.532942 
L 277.271491 122.881275 
L 277.613881 123.0263 
L 277.956271 117.778819 
L 278.298662 138.745064 
L 278.641052 130.557624 
L 278.983442 147.6 
L 279.325833 146.164271 
L 279.668223 147.6 
L 280.010613 143.930245 
L 280.353004 145.602572 
L 280.695394 144.053776 
L 281.037785 147.6 
L 282.064956 147.6 
L 282.407346 140.821906 
L 282.749736 136.463278 
L 283.092127 138.139269 
L 283.434517 131.811312 
L 283.776908 129.959192 
L 284.119298 129.196584 
L 284.461688 116.341324 
L 284.804079 115.04429 
L 285.146469 116.114513 
L 285.488859 117.822807 
L 285.83125 123.444955 
L 286.17364 131.984071 
L 286.51603 147.6 
L 290.282324 147.6 
L 290.624715 131.74636 
L 290.967105 126.159871 
L 291.309496 130.195978 
L 291.651886 129.270236 
L 291.994276 125.010121 
L 292.336667 123.952012 
L 292.679057 125.167366 
L 293.021447 123.419158 
L 293.363838 124.496462 
L 293.706228 122.920786 
L 294.048619 124.578575 
L 294.391009 124.88776 
L 294.733399 147.6 
L 295.07579 147.6 
L 295.41818 145.46089 
L 295.76057 147.6 
L 298.499693 147.6 
L 298.842084 139.514184 
L 299.184474 136.847045 
L 299.526864 135.716078 
L 300.554035 143.946456 
L 300.896426 145.595506 
L 301.238816 140.720077 
L 301.581207 139.20161 
L 301.923597 140.153906 
L 302.265987 143.237291 
L 302.608378 137.150744 
L 302.950768 147.6 
L 306.374672 147.6 
L 306.717062 145.826714 
L 307.059452 123.534572 
L 307.401843 130.007883 
L 307.744233 126.716309 
L 308.086624 127.600193 
L 308.429014 127.338429 
L 308.771404 125.578485 
L 309.113795 125.488531 
L 309.798575 129.85701 
L 310.140966 129.689421 
L 310.483356 127.878169 
L 310.825746 128.396889 
L 311.168137 132.176681 
L 311.510527 141.849691 
L 312.195308 138.560651 
L 312.537698 134.236786 
L 312.880089 138.402815 
L 313.222479 147.467147 
L 313.564869 147.6 
L 314.934431 147.6 
L 315.276821 136.574474 
L 315.619212 139.164214 
L 315.961602 139.14086 
L 316.303992 143.182426 
L 316.646383 138.639001 
L 316.988773 138.029871 
L 317.331163 140.647362 
L 317.673554 140.438025 
L 318.015944 136.710873 
L 318.358335 139.46169 
L 318.700725 135.2432 
L 319.043115 138.060695 
L 319.385506 147.6 
L 323.1518 147.6 
L 323.49419 129.422899 
L 323.83658 127.022478 
L 324.178971 120.083251 
L 324.521361 120.245591 
L 324.863751 115.240914 
L 325.206142 116.445521 
L 325.548532 122.191468 
L 325.890923 131.31844 
L 326.233313 131.263647 
L 326.575703 129.721064 
L 326.918094 119.311837 
L 327.260484 114.132321 
L 327.602874 147.6 
L 329.314826 147.6 
L 329.999607 142.098198 
L 330.341997 143.454748 
L 330.684388 146.276656 
L 331.026778 147.6 
L 331.369168 147.6 
L 331.711559 121.594492 
L 332.39634 122.456248 
L 332.73873 121.136142 
L 333.08112 122.318505 
L 333.423511 120.68544 
L 333.765901 121.522665 
L 334.108291 117.832415 
L 334.450682 117.315774 
L 334.793072 118.069427 
L 335.135462 116.658813 
L 335.477853 103.954072 
L 335.820243 147.6 
L 339.586537 147.6 
L 339.928928 115.36914 
L 340.271318 119.624668 
L 340.956099 123.629389 
L 341.298489 123.201752 
L 341.640879 120.234982 
L 341.98327 118.325201 
L 342.32566 118.85669 
L 342.668051 116.47446 
L 343.010441 115.465573 
L 343.352831 116.795908 
L 343.695222 115.320037 
L 344.037612 147.140063 
L 344.380002 147.6 
L 344.722393 145.452122 
L 345.064783 145.757314 
L 345.407173 145.455211 
L 345.749564 147.6 
L 347.461516 147.6 
L 347.803906 143.887065 
L 348.146296 128.598077 
L 348.488687 128.38703 
L 349.173468 121.704816 
L 349.515858 124.751361 
L 350.200639 127.020067 
L 350.543029 123.583717 
L 350.885419 123.043576 
L 351.22781 123.463363 
L 351.5702 119.23683 
L 351.91259 118.472533 
L 352.254981 147.6 
L 352.597371 135.739865 
L 352.939762 147.6 
L 353.282152 146.123634 
L 353.624542 147.6 
L 356.021275 147.6 
L 356.363665 126.554967 
L 356.706056 123.143911 
L 357.048446 133.672215 
L 357.390836 131.082024 
L 357.733227 135.113369 
L 358.075617 141.330157 
L 358.418007 143.606196 
L 358.760398 144.208894 
L 359.102788 145.429563 
L 359.445179 147.138797 
L 359.787569 147.6 
L 360.129959 143.396053 
L 360.47235 147.6 
L 366.635376 147.6 
L 366.977767 143.839397 
L 367.320157 147.6 
L 368.004938 147.6 
L 368.347328 144.604455 
L 368.689718 147.6 
L 372.456012 147.6 
L 372.798403 147.161372 
L 373.140793 145.937704 
L 373.483184 147.40739 
L 374.167964 146.270489 
L 374.510355 147.6 
L 380.330991 147.6 
L 380.673381 146.671933 
L 381.015772 147.6 
L 392.657044 147.6 
L 392.999434 145.412802 
L 393.341825 147.6 
L 393.684215 142.969364 
L 394.026606 147.6 
L 397.108119 147.6 
L 397.450509 135.900549 
L 398.13529 133.421936 
L 398.47768 133.30251 
L 398.820071 127.549388 
L 399.162461 128.200257 
L 399.504851 125.492928 
L 399.847242 124.691933 
L 400.189632 127.443775 
L 400.532022 133.163794 
L 401.216803 124.948702 
L 401.901584 146.247286 
L 402.243974 138.327086 
L 402.586365 134.602865 
L 403.271145 144.620941 
L 403.613536 147.6 
L 404.640707 147.6 
L 404.983097 147.271221 
L 405.325488 146.697872 
L 405.325488 146.697872 
" clip-path="url(#pdf7e17b30f)" style="fill: none; stroke: #0000ff; stroke-width: 1.5; stroke-linecap: square"/>
   </g>
   <g id="patch_8">
    <path d="M 250.376727 152.64 
L 250.376727 41.76 
" style="fill: none; stroke: #000000; stroke-width: 0.8; stroke-linejoin: miter; stroke-linecap: square"/>
   </g>
   <g id="patch_9">
    <path d="M 412.704 152.64 
L 412.704 41.76 
" style="fill: none; stroke: #000000; stroke-width: 0.8; stroke-linejoin: miter; stroke-linecap: square"/>
   </g>
   <g id="patch_10">
    <path d="M 250.376727 152.64 
L 412.704 152.64 
" style="fill: none; stroke: #000000; stroke-width: 0.8; stroke-linejoin: miter; stroke-linecap: square"/>
   </g>
   <g id="patch_11">
    <path d="M 250.376727 41.76 
L 412.704 41.76 
" style="fill: none; stroke: #000000; stroke-width: 0.8; stroke-linejoin: miter; stroke-linecap: square"/>
   </g>
   <g id="text_20">
    <!-- RNN -->
    <g transform="translate(318.393801 35.76) scale(0.12 -0.12)">
     <defs>
      <path id="DejaVuSans-52" d="M 2841 2188 
Q 3044 2119 3236 1894 
Q 3428 1669 3622 1275 
L 4263 0 
L 3584 0 
L 2988 1197 
Q 2756 1666 2539 1819 
Q 2322 1972 1947 1972 
L 1259 1972 
L 1259 0 
L 628 0 
L 628 4666 
L 2053 4666 
Q 2853 4666 3247 4331 
Q 3641 3997 3641 3322 
Q 3641 2881 3436 2590 
Q 3231 2300 2841 2188 
z
M 1259 4147 
L 1259 2491 
L 2053 2491 
Q 2509 2491 2742 2702 
Q 2975 2913 2975 3322 
Q 2975 3731 2742 3939 
Q 2509 4147 2053 4147 
L 1259 4147 
z
" transform="scale(0.015625)"/>
     </defs>
     <use xlink:href="#DejaVuSans-52"/>
     <use xlink:href="#DejaVuSans-4e" x="69.482422"/>
     <use xlink:href="#DejaVuSans-4e" x="144.287109"/>
    </g>
   </g>
  </g>
  <g id="axes_3">
   <g id="patch_12">
    <path d="M 55.584 307.872 
L 217.911273 307.872 
L 217.911273 196.992 
L 55.584 196.992 
z
" style="fill: #ffffff"/>
   </g>
   <g id="matplotlib.axis_5">
    <g id="xtick_11">
     <g id="line2d_21">
      <g>
       <use xlink:href="#m880956fcae" x="62.962512" y="307.872" style="stroke: #000000; stroke-width: 0.8"/>
      </g>
     </g>
     <g id="text_21">
      <!-- 0 -->
      <g transform="translate(59.781262 322.470437) scale(0.1 -0.1)">
       <use xlink:href="#DejaVuSans-30"/>
      </g>
     </g>
    </g>
    <g id="xtick_12">
     <g id="line2d_22">
      <g>
       <use xlink:href="#m880956fcae" x="97.201549" y="307.872" style="stroke: #000000; stroke-width: 0.8"/>
      </g>
     </g>
     <g id="text_22">
      <!-- 100 -->
      <g transform="translate(87.657799 322.470437) scale(0.1 -0.1)">
       <use xlink:href="#DejaVuSans-31"/>
       <use xlink:href="#DejaVuSans-30" x="63.623047"/>
       <use xlink:href="#DejaVuSans-30" x="127.246094"/>
      </g>
     </g>
    </g>
    <g id="xtick_13">
     <g id="line2d_23">
      <g>
       <use xlink:href="#m880956fcae" x="131.440586" y="307.872" style="stroke: #000000; stroke-width: 0.8"/>
      </g>
     </g>
     <g id="text_23">
      <!-- 200 -->
      <g transform="translate(121.896836 322.470437) scale(0.1 -0.1)">
       <use xlink:href="#DejaVuSans-32"/>
       <use xlink:href="#DejaVuSans-30" x="63.623047"/>
       <use xlink:href="#DejaVuSans-30" x="127.246094"/>
      </g>
     </g>
    </g>
    <g id="xtick_14">
     <g id="line2d_24">
      <g>
       <use xlink:href="#m880956fcae" x="165.679622" y="307.872" style="stroke: #000000; stroke-width: 0.8"/>
      </g>
     </g>
     <g id="text_24">
      <!-- 300 -->
      <g transform="translate(156.135872 322.470437) scale(0.1 -0.1)">
       <use xlink:href="#DejaVuSans-33"/>
       <use xlink:href="#DejaVuSans-30" x="63.623047"/>
       <use xlink:href="#DejaVuSans-30" x="127.246094"/>
      </g>
     </g>
    </g>
    <g id="xtick_15">
     <g id="line2d_25">
      <g>
       <use xlink:href="#m880956fcae" x="199.918659" y="307.872" style="stroke: #000000; stroke-width: 0.8"/>
      </g>
     </g>
     <g id="text_25">
      <!-- 400 -->
      <g transform="translate(190.374909 322.470437) scale(0.1 -0.1)">
       <use xlink:href="#DejaVuSans-34"/>
       <use xlink:href="#DejaVuSans-30" x="63.623047"/>
       <use xlink:href="#DejaVuSans-30" x="127.246094"/>
      </g>
     </g>
    </g>
   </g>
   <g id="matplotlib.axis_6">
    <g id="ytick_9">
     <g id="line2d_26">
      <g>
       <use xlink:href="#m65b6f8c90a" x="55.584" y="302.832" style="stroke: #000000; stroke-width: 0.8"/>
      </g>
     </g>
     <g id="text_26">
      <!-- 0 -->
      <g transform="translate(42.2215 306.631219) scale(0.1 -0.1)">
       <use xlink:href="#DejaVuSans-30"/>
      </g>
     </g>
    </g>
    <g id="ytick_10">
     <g id="line2d_27">
      <g>
       <use xlink:href="#m65b6f8c90a" x="55.584" y="276.068736" style="stroke: #000000; stroke-width: 0.8"/>
      </g>
     </g>
     <g id="text_27">
      <!-- 10 -->
      <g transform="translate(35.859 279.867954) scale(0.1 -0.1)">
       <use xlink:href="#DejaVuSans-31"/>
       <use xlink:href="#DejaVuSans-30" x="63.623047"/>
      </g>
     </g>
    </g>
    <g id="ytick_11">
     <g id="line2d_28">
      <g>
       <use xlink:href="#m65b6f8c90a" x="55.584" y="249.305471" style="stroke: #000000; stroke-width: 0.8"/>
      </g>
     </g>
     <g id="text_28">
      <!-- 20 -->
      <g transform="translate(35.859 253.10469) scale(0.1 -0.1)">
       <use xlink:href="#DejaVuSans-32"/>
       <use xlink:href="#DejaVuSans-30" x="63.623047"/>
      </g>
     </g>
    </g>
    <g id="ytick_12">
     <g id="line2d_29">
      <g>
       <use xlink:href="#m65b6f8c90a" x="55.584" y="222.542207" style="stroke: #000000; stroke-width: 0.8"/>
      </g>
     </g>
     <g id="text_29">
      <!-- 30 -->
      <g transform="translate(35.859 226.341426) scale(0.1 -0.1)">
       <use xlink:href="#DejaVuSans-33"/>
       <use xlink:href="#DejaVuSans-30" x="63.623047"/>
      </g>
     </g>
    </g>
   </g>
   <g id="line2d_30">
    <path d="M 62.962512 205.427565 
L 63.304903 202.032 
L 63.989683 220.946289 
L 64.332074 218.617768 
L 64.674464 237.070993 
L 65.016855 231.031806 
L 65.701635 247.04568 
L 66.044026 254.939572 
L 66.386416 252.662005 
L 66.728806 263.605035 
L 67.071197 297.620382 
L 67.413587 296.962431 
L 67.755978 297.393234 
L 68.098368 296.545068 
L 68.440758 297.217046 
L 68.783149 297.612114 
L 69.125539 302.832 
L 70.837491 302.832 
L 71.179881 277.439566 
L 71.522272 279.728751 
L 71.864662 280.305976 
L 72.207052 278.224278 
L 72.549443 269.983794 
L 72.891833 268.614294 
L 73.234223 276.661641 
L 73.576614 274.044475 
L 73.919004 282.461347 
L 74.261394 280.98097 
L 74.603785 275.308166 
L 74.946175 275.764488 
L 75.288566 302.832 
L 79.05486 302.832 
L 79.39725 281.852456 
L 79.73964 274.824619 
L 80.082031 278.294414 
L 80.424421 274.752379 
L 80.766811 273.26708 
L 81.109202 275.238223 
L 81.451592 271.470181 
L 82.136373 278.764942 
L 82.478763 278.113275 
L 82.821154 278.2583 
L 83.163544 273.010819 
L 83.505934 289.521911 
L 83.848325 285.434074 
L 84.190715 295.38893 
L 84.533105 294.561927 
L 84.875496 297.407405 
L 85.217886 299.222647 
L 85.560277 298.939358 
L 85.902667 299.291049 
L 86.245057 297.664886 
L 86.929838 302.832 
L 87.272228 302.832 
L 87.614619 296.053906 
L 87.957009 291.695278 
L 88.2994 293.371269 
L 88.64179 287.043312 
L 88.98418 285.191192 
L 89.326571 284.428584 
L 89.668961 271.573324 
L 90.011351 270.27629 
L 90.353742 271.346513 
L 90.696132 273.054807 
L 91.038522 278.676955 
L 91.380913 287.216071 
L 91.723303 302.832 
L 93.435255 302.832 
L 94.120036 298.65669 
L 94.462426 301.876313 
L 94.804816 301.620681 
L 95.147207 298.611843 
L 95.489597 300.024226 
L 95.831988 286.97836 
L 96.174378 281.391871 
L 96.516768 285.427978 
L 96.859159 284.502236 
L 97.201549 280.242121 
L 97.543939 279.184012 
L 97.88633 280.399366 
L 98.22872 278.651158 
L 98.571111 279.728462 
L 98.913501 278.152786 
L 99.255891 279.810575 
L 99.598282 280.11976 
L 99.940672 302.832 
L 101.310233 302.832 
L 101.652624 302.488625 
L 101.995014 300.587849 
L 102.337405 300.189853 
L 102.679795 299.378447 
L 103.022185 302.832 
L 103.706966 302.832 
L 104.049356 294.746184 
L 104.391747 292.079045 
L 104.734137 290.948078 
L 105.761308 299.178456 
L 106.103699 300.827506 
L 106.446089 295.952077 
L 106.788479 294.43361 
L 107.13087 295.385906 
L 107.47326 298.469291 
L 107.81565 292.382744 
L 108.158041 298.603629 
L 108.500431 300.379637 
L 108.842821 302.832 
L 109.185212 302.832 
L 109.527602 300.653564 
L 109.869993 301.076193 
L 110.212383 299.840376 
L 110.554773 302.832 
L 111.924335 302.832 
L 112.266725 278.766572 
L 112.609116 285.239883 
L 112.951506 281.948309 
L 113.293896 282.832193 
L 113.636287 282.570429 
L 113.978677 280.810485 
L 114.321067 280.720531 
L 115.005848 285.08901 
L 115.348238 284.921421 
L 115.690629 283.110169 
L 116.033019 283.628889 
L 116.37541 295.205907 
L 116.7178 302.832 
L 117.744971 302.832 
L 118.429752 300.112652 
L 118.772142 301.624284 
L 119.114532 300.957284 
L 119.456923 300.575378 
L 119.799313 299.800522 
L 120.141704 301.737722 
L 120.484094 291.806474 
L 120.826484 294.396214 
L 121.168875 294.37286 
L 121.511265 298.414426 
L 121.853655 293.871001 
L 122.196046 293.261871 
L 122.538436 295.879362 
L 122.880827 295.670025 
L 123.223217 291.942873 
L 123.565607 294.69369 
L 123.907998 290.4752 
L 124.250388 293.292695 
L 124.592778 302.832 
L 128.359072 302.832 
L 128.701463 284.654899 
L 129.043853 282.254478 
L 129.386243 275.315251 
L 129.728634 275.477591 
L 130.071024 270.472914 
L 130.413415 271.677521 
L 130.755805 277.423468 
L 131.098195 286.55044 
L 131.440586 286.495647 
L 131.782976 284.953064 
L 132.125366 274.543837 
L 132.467757 269.364321 
L 132.810147 302.832 
L 136.576441 302.832 
L 136.918832 276.826492 
L 137.603612 277.688248 
L 137.946003 276.368142 
L 138.288393 277.550505 
L 138.630783 275.91744 
L 138.973174 276.754665 
L 139.315564 273.064415 
L 139.657954 272.547774 
L 140.000345 273.301427 
L 140.342735 271.890813 
L 140.685126 259.186072 
L 141.027516 302.832 
L 144.79381 302.832 
L 145.1362 270.60114 
L 145.478591 274.856668 
L 146.163371 278.861389 
L 146.505762 278.433752 
L 146.848152 275.466982 
L 147.190543 273.557201 
L 147.532933 274.08869 
L 147.875323 271.70646 
L 148.217714 270.697573 
L 148.560104 272.027908 
L 148.902494 270.552037 
L 149.244885 302.832 
L 153.011179 302.832 
L 153.353569 283.830077 
L 153.69596 283.61903 
L 154.38074 276.936816 
L 154.723131 279.983361 
L 155.407911 282.252067 
L 155.750302 278.815717 
L 156.092692 278.275576 
L 156.435082 278.695363 
L 156.777473 274.46883 
L 157.119863 273.704533 
L 157.462254 302.832 
L 161.228548 302.832 
L 161.570938 281.786967 
L 161.913328 278.375911 
L 162.255719 288.904215 
L 162.598109 286.314024 
L 162.940499 290.345369 
L 163.28289 296.562157 
L 163.62528 298.838196 
L 163.96767 299.440894 
L 164.310061 300.661563 
L 164.652451 302.370797 
L 164.994842 302.832 
L 165.337232 298.628053 
L 165.679622 302.832 
L 171.842649 302.832 
L 172.185039 299.071397 
L 172.52743 302.832 
L 173.21221 302.832 
L 173.554601 299.836455 
L 173.896991 302.832 
L 177.663285 302.832 
L 178.005676 302.393372 
L 178.348066 301.169704 
L 178.690456 302.63939 
L 179.375237 301.502489 
L 179.717627 302.832 
L 197.864317 302.832 
L 198.206707 300.644802 
L 198.549098 302.832 
L 202.315392 302.832 
L 202.657782 291.132549 
L 203.342563 288.653936 
L 203.684953 288.53451 
L 204.027343 282.781388 
L 204.369734 283.432257 
L 204.712124 280.724928 
L 205.054514 279.923933 
L 205.396905 282.675775 
L 205.739295 288.395794 
L 206.424076 280.180702 
L 206.766466 300.819178 
L 207.108857 301.264205 
L 207.451247 301.216671 
L 207.793637 302.832 
L 210.19037 302.832 
L 210.53276 296.052788 
L 210.53276 296.052788 
" clip-path="url(#pa1d92695f1)" style="fill: none; stroke: #ffa500; stroke-width: 1.5; stroke-linecap: square"/>
   </g>
   <g id="patch_13">
    <path d="M 55.584 307.872 
L 55.584 196.992 
" style="fill: none; stroke: #000000; stroke-width: 0.8; stroke-linejoin: miter; stroke-linecap: square"/>
   </g>
   <g id="patch_14">
    <path d="M 217.911273 307.872 
L 217.911273 196.992 
" style="fill: none; stroke: #000000; stroke-width: 0.8; stroke-linejoin: miter; stroke-linecap: square"/>
   </g>
   <g id="patch_15">
    <path d="M 55.584 307.872 
L 217.911273 307.872 
" style="fill: none; stroke: #000000; stroke-width: 0.8; stroke-linejoin: miter; stroke-linecap: square"/>
   </g>
   <g id="patch_16">
    <path d="M 55.584 196.992 
L 217.911273 196.992 
" style="fill: none; stroke: #000000; stroke-width: 0.8; stroke-linejoin: miter; stroke-linecap: square"/>
   </g>
   <g id="text_30">
    <!-- VAE -->
    <g transform="translate(125.130136 190.992) scale(0.12 -0.12)">
     <defs>
      <path id="DejaVuSans-56" d="M 1831 0 
L 50 4666 
L 709 4666 
L 2188 738 
L 3669 4666 
L 4325 4666 
L 2547 0 
L 1831 0 
z
" transform="scale(0.015625)"/>
      <path id="DejaVuSans-41" d="M 2188 4044 
L 1331 1722 
L 3047 1722 
L 2188 4044 
z
M 1831 4666 
L 2547 4666 
L 4325 0 
L 3669 0 
L 3244 1197 
L 1141 1197 
L 716 0 
L 50 0 
L 1831 4666 
z
" transform="scale(0.015625)"/>
      <path id="DejaVuSans-45" d="M 628 4666 
L 3578 4666 
L 3578 4134 
L 1259 4134 
L 1259 2753 
L 3481 2753 
L 3481 2222 
L 1259 2222 
L 1259 531 
L 3634 531 
L 3634 0 
L 628 0 
L 628 4666 
z
" transform="scale(0.015625)"/>
     </defs>
     <use xlink:href="#DejaVuSans-56"/>
     <use xlink:href="#DejaVuSans-41" x="62.033203"/>
     <use xlink:href="#DejaVuSans-45" x="130.441406"/>
    </g>
   </g>
  </g>
  <g id="axes_4">
   <g id="patch_17">
    <path d="M 250.376727 307.872 
L 412.704 307.872 
L 412.704 196.992 
L 250.376727 196.992 
z
" style="fill: #ffffff"/>
   </g>
   <g id="matplotlib.axis_7">
    <g id="xtick_16">
     <g id="line2d_31">
      <g>
       <use xlink:href="#m880956fcae" x="257.75524" y="307.872" style="stroke: #000000; stroke-width: 0.8"/>
      </g>
     </g>
     <g id="text_31">
      <!-- 0 -->
      <g transform="translate(254.57399 322.470437) scale(0.1 -0.1)">
       <use xlink:href="#DejaVuSans-30"/>
      </g>
     </g>
    </g>
    <g id="xtick_17">
     <g id="line2d_32">
      <g>
       <use xlink:href="#m880956fcae" x="291.994276" y="307.872" style="stroke: #000000; stroke-width: 0.8"/>
      </g>
     </g>
     <g id="text_32">
      <!-- 100 -->
      <g transform="translate(282.450526 322.470437) scale(0.1 -0.1)">
       <use xlink:href="#DejaVuSans-31"/>
       <use xlink:href="#DejaVuSans-30" x="63.623047"/>
       <use xlink:href="#DejaVuSans-30" x="127.246094"/>
      </g>
     </g>
    </g>
    <g id="xtick_18">
     <g id="line2d_33">
      <g>
       <use xlink:href="#m880956fcae" x="326.233313" y="307.872" style="stroke: #000000; stroke-width: 0.8"/>
      </g>
     </g>
     <g id="text_33">
      <!-- 200 -->
      <g transform="translate(316.689563 322.470437) scale(0.1 -0.1)">
       <use xlink:href="#DejaVuSans-32"/>
       <use xlink:href="#DejaVuSans-30" x="63.623047"/>
       <use xlink:href="#DejaVuSans-30" x="127.246094"/>
      </g>
     </g>
    </g>
    <g id="xtick_19">
     <g id="line2d_34">
      <g>
       <use xlink:href="#m880956fcae" x="360.47235" y="307.872" style="stroke: #000000; stroke-width: 0.8"/>
      </g>
     </g>
     <g id="text_34">
      <!-- 300 -->
      <g transform="translate(350.9286 322.470437) scale(0.1 -0.1)">
       <use xlink:href="#DejaVuSans-33"/>
       <use xlink:href="#DejaVuSans-30" x="63.623047"/>
       <use xlink:href="#DejaVuSans-30" x="127.246094"/>
      </g>
     </g>
    </g>
    <g id="xtick_20">
     <g id="line2d_35">
      <g>
       <use xlink:href="#m880956fcae" x="394.711386" y="307.872" style="stroke: #000000; stroke-width: 0.8"/>
      </g>
     </g>
     <g id="text_35">
      <!-- 400 -->
      <g transform="translate(385.167636 322.470437) scale(0.1 -0.1)">
       <use xlink:href="#DejaVuSans-34"/>
       <use xlink:href="#DejaVuSans-30" x="63.623047"/>
       <use xlink:href="#DejaVuSans-30" x="127.246094"/>
      </g>
     </g>
    </g>
   </g>
   <g id="matplotlib.axis_8">
    <g id="ytick_13">
     <g id="line2d_36">
      <g>
       <use xlink:href="#m65b6f8c90a" x="250.376727" y="302.832" style="stroke: #000000; stroke-width: 0.8"/>
      </g>
     </g>
     <g id="text_36">
      <!-- 0 -->
      <g transform="translate(237.014227 306.631219) scale(0.1 -0.1)">
       <use xlink:href="#DejaVuSans-30"/>
      </g>
     </g>
    </g>
    <g id="ytick_14">
     <g id="line2d_37">
      <g>
       <use xlink:href="#m65b6f8c90a" x="250.376727" y="276.075678" style="stroke: #000000; stroke-width: 0.8"/>
      </g>
     </g>
     <g id="text_37">
      <!-- 10 -->
      <g transform="translate(230.651727 279.874896) scale(0.1 -0.1)">
       <use xlink:href="#DejaVuSans-31"/>
       <use xlink:href="#DejaVuSans-30" x="63.623047"/>
      </g>
     </g>
    </g>
    <g id="ytick_15">
     <g id="line2d_38">
      <g>
       <use xlink:href="#m65b6f8c90a" x="250.376727" y="249.319355" style="stroke: #000000; stroke-width: 0.8"/>
      </g>
     </g>
     <g id="text_38">
      <!-- 20 -->
      <g transform="translate(230.651727 253.118574) scale(0.1 -0.1)">
       <use xlink:href="#DejaVuSans-32"/>
       <use xlink:href="#DejaVuSans-30" x="63.623047"/>
      </g>
     </g>
    </g>
    <g id="ytick_16">
     <g id="line2d_39">
      <g>
       <use xlink:href="#m65b6f8c90a" x="250.376727" y="222.563033" style="stroke: #000000; stroke-width: 0.8"/>
      </g>
     </g>
     <g id="text_39">
      <!-- 30 -->
      <g transform="translate(230.651727 226.362252) scale(0.1 -0.1)">
       <use xlink:href="#DejaVuSans-33"/>
       <use xlink:href="#DejaVuSans-30" x="63.623047"/>
      </g>
     </g>
    </g>
   </g>
   <g id="line2d_40">
    <path d="M 257.75524 205.464036 
L 258.09763 202.032 
L 258.782411 220.959661 
L 259.124801 218.658138 
L 259.467192 237.090871 
L 259.809582 231.040009 
L 260.494363 247.088935 
L 260.836753 254.971757 
L 261.179143 252.684875 
L 261.521534 263.610959 
L 261.863924 268.439522 
L 262.206314 279.852948 
L 262.548705 272.587113 
L 262.891095 275.770832 
L 263.233486 284.011282 
L 263.575876 288.290554 
L 263.918266 296.014056 
L 264.260657 291.735195 
L 264.603047 290.762964 
L 264.945437 289.12715 
L 265.287828 285.667926 
L 265.630218 286.464684 
L 265.972608 277.452606 
L 266.314999 279.713374 
L 266.657389 280.30388 
L 266.99978 278.135446 
L 267.34217 269.862421 
L 267.68456 268.605056 
L 268.026951 276.670709 
L 268.369341 274.059115 
L 268.711731 282.472507 
L 269.054122 280.989385 
L 269.396512 275.316628 
L 269.738902 275.757502 
L 270.081293 287.151069 
L 270.423683 291.449954 
L 270.766074 299.758333 
L 271.108464 291.614655 
L 271.450854 293.923482 
L 271.793245 291.738703 
L 272.135635 291.026399 
L 272.478025 288.209483 
L 272.820416 294.310269 
L 273.162806 283.576334 
L 273.505197 282.329294 
L 273.847587 299.915085 
L 274.189977 281.899962 
L 274.532368 274.830139 
L 274.874758 278.296648 
L 275.217148 274.766183 
L 275.559539 273.202541 
L 275.901929 275.236747 
L 276.244319 271.449989 
L 276.9291 278.772878 
L 277.271491 278.125747 
L 277.613881 278.266608 
L 277.956271 272.993601 
L 278.298662 280.805607 
L 278.641052 295.986852 
L 278.983442 290.583057 
L 279.325833 296.873458 
L 279.668223 289.910505 
L 280.353004 295.12471 
L 280.695394 289.658107 
L 281.037785 299.434415 
L 281.380175 302.832 
L 282.064956 302.832 
L 282.407346 296.090587 
L 282.749736 291.731848 
L 283.092127 293.381164 
L 283.434517 287.047755 
L 283.776908 285.197028 
L 284.119298 284.427348 
L 284.461688 271.599053 
L 284.804079 270.260188 
L 285.146469 271.357374 
L 285.488859 273.095176 
L 285.83125 278.678629 
L 286.17364 287.21861 
L 286.51603 298.711976 
L 286.858421 297.101454 
L 287.200811 302.832 
L 287.543202 282.947062 
L 287.885592 277.664803 
L 288.227982 281.002648 
L 288.570373 282.664727 
L 288.912763 296.281579 
L 289.255153 295.378259 
L 289.939934 288.989603 
L 290.282324 302.832 
L 290.624715 286.999358 
L 290.967105 281.404676 
L 291.309496 285.437667 
L 291.651886 284.539861 
L 291.994276 280.250341 
L 292.336667 279.197691 
L 292.679057 280.401958 
L 293.021447 278.668684 
L 293.363838 279.792861 
L 293.706228 278.167337 
L 294.048619 279.825606 
L 294.391009 280.14152 
L 294.733399 294.476498 
L 295.07579 288.292727 
L 295.41818 300.086777 
L 295.76057 294.410967 
L 296.102961 301.187583 
L 296.445351 297.495342 
L 296.787741 302.181717 
L 297.130132 296.085238 
L 297.472522 301.6953 
L 297.814913 302.077215 
L 298.157303 294.669558 
L 298.499693 294.468126 
L 298.842084 294.746167 
L 299.184474 292.093896 
L 299.526864 290.937423 
L 300.554035 299.283084 
L 300.896426 300.762441 
L 301.238816 295.939831 
L 301.581207 294.437019 
L 301.923597 295.386446 
L 302.265987 298.471808 
L 302.950768 287.638441 
L 303.293158 292.792932 
L 303.635549 282.998215 
L 303.977939 285.703475 
L 304.32033 290.541767 
L 305.00511 282.150752 
L 305.347501 291.45283 
L 305.689891 285.184533 
L 306.032281 290.289123 
L 306.374672 275.082826 
L 306.717062 272.677898 
L 307.401843 285.266386 
L 307.744233 281.952284 
L 308.086624 282.745432 
L 308.429014 282.601475 
L 308.771404 280.790222 
L 309.113795 280.712142 
L 309.798575 285.028003 
L 310.140966 284.915351 
L 310.483356 283.101131 
L 310.825746 283.648129 
L 311.168137 284.443351 
L 311.852918 291.654255 
L 312.195308 288.111006 
L 312.537698 282.871746 
L 312.880089 296.42046 
L 313.222479 289.193976 
L 313.564869 289.127556 
L 313.90726 287.691106 
L 314.24965 293.516979 
L 314.934431 295.953608 
L 315.276821 291.807213 
L 315.619212 294.400893 
L 315.961602 294.367643 
L 316.303992 298.425729 
L 316.646383 293.880977 
L 316.988773 293.259861 
L 317.331163 295.891884 
L 317.673554 295.67249 
L 318.015944 291.945294 
L 318.358335 294.679999 
L 318.700725 290.474199 
L 319.043115 293.782115 
L 319.385506 299.949868 
L 319.727896 294.176488 
L 320.070286 290.382626 
L 320.412677 295.071896 
L 320.755067 287.613571 
L 321.439848 294.544419 
L 321.782238 294.503795 
L 322.124629 292.404759 
L 322.467019 299.203915 
L 322.809409 282.239532 
L 323.1518 281.934092 
L 323.49419 284.658263 
L 323.83658 282.248174 
L 324.178971 275.338878 
L 324.521361 275.482321 
L 324.863751 270.54128 
L 325.206142 271.693249 
L 325.548532 277.420988 
L 325.890923 286.562775 
L 326.233313 286.513217 
L 326.575703 284.955371 
L 326.918094 274.561468 
L 327.260484 269.382602 
L 327.602874 294.308733 
L 327.945265 283.739665 
L 328.287655 287.686972 
L 328.630046 285.310951 
L 328.972436 281.661293 
L 329.314826 284.4519 
L 329.657217 281.494893 
L 329.999607 276.879529 
L 330.341997 293.305211 
L 330.684388 283.340129 
L 331.026778 282.288638 
L 331.369168 281.65024 
L 331.711559 276.827975 
L 332.39634 277.684926 
L 332.73873 276.370409 
L 333.08112 277.546277 
L 333.423511 276.073179 
L 333.765901 276.776747 
L 334.108291 273.06983 
L 334.450682 272.555324 
L 334.793072 273.293716 
L 335.135462 271.902013 
L 335.477853 259.186252 
L 335.820243 275.660189 
L 336.162634 274.545205 
L 336.847414 290.199824 
L 337.189805 302.567661 
L 337.532195 302.832 
L 337.874585 291.243278 
L 338.216976 285.596581 
L 338.559366 286.52575 
L 338.901757 279.487775 
L 339.244147 282.921347 
L 339.586537 279.17681 
L 339.928928 270.592569 
L 340.271318 274.871525 
L 340.956099 279.155338 
L 341.298489 278.432674 
L 341.640879 275.484534 
L 341.98327 273.563743 
L 342.32566 274.110608 
L 342.668051 271.69269 
L 343.010441 270.702197 
L 343.352831 272.041338 
L 343.695222 270.56459 
L 344.037612 285.146887 
L 344.380002 284.817557 
L 344.722393 277.22842 
L 345.064783 284.389841 
L 345.407173 280.942586 
L 345.749564 295.770696 
L 346.434345 285.195276 
L 346.776735 274.749592 
L 347.119125 281.925107 
L 347.461516 283.252366 
L 347.803906 281.76008 
L 348.146296 283.831651 
L 348.488687 283.630737 
L 349.173468 276.926264 
L 349.515858 279.966039 
L 350.200639 282.267794 
L 350.543029 278.805572 
L 350.885419 278.287722 
L 351.22781 278.703162 
L 351.5702 274.481346 
L 351.91259 273.718759 
L 352.254981 286.169201 
L 352.597371 285.906863 
L 352.939762 287.652868 
L 353.282152 277.427667 
L 353.624542 281.769699 
L 353.966933 276.687137 
L 354.309323 286.54853 
L 354.651713 289.704334 
L 355.336494 277.509343 
L 355.678884 285.994567 
L 356.021275 279.766924 
L 356.363665 281.7907 
L 356.706056 278.389273 
L 357.048446 288.913203 
L 357.390836 286.315863 
L 357.733227 290.343061 
L 358.075617 296.563858 
L 358.418007 298.84713 
L 358.760398 299.446707 
L 359.102788 300.4692 
L 359.445179 302.363834 
L 359.787569 302.832 
L 360.129959 298.629489 
L 360.47235 302.832 
L 366.635376 302.832 
L 366.977767 299.069807 
L 367.320157 302.832 
L 368.004938 302.832 
L 368.347328 299.840047 
L 368.689718 300.350715 
L 369.032109 302.832 
L 372.456012 302.832 
L 372.798403 302.388134 
L 373.140793 301.176643 
L 373.483184 302.628149 
L 373.825574 302.223163 
L 374.167964 301.494625 
L 374.510355 302.832 
L 379.30382 302.832 
L 379.64621 302.633294 
L 379.9886 302.832 
L 380.330991 302.446744 
L 380.673381 302.832 
L 392.657044 302.832 
L 393.341825 298.993506 
L 393.684215 301.220472 
L 394.026606 301.311724 
L 394.368996 302.832 
L 394.711386 300.733732 
L 395.053777 302.832 
L 395.738557 302.832 
L 397.108119 287.220911 
L 397.450509 291.125544 
L 398.13529 288.651922 
L 398.47768 288.54231 
L 398.820071 282.786476 
L 399.162461 283.439909 
L 399.504851 280.73508 
L 399.847242 279.92923 
L 400.189632 282.681974 
L 400.532022 288.388517 
L 401.901584 272.821884 
L 402.243974 274.710161 
L 402.586365 283.854206 
L 402.928755 273.278623 
L 403.271145 281.941731 
L 403.613536 275.396996 
L 403.955926 273.015734 
L 404.298317 279.355256 
L 404.640707 280.825374 
L 404.983097 287.913031 
L 405.325488 283.516536 
L 405.325488 283.516536 
" clip-path="url(#p557133d164)" style="fill: none; stroke: #ff0000; stroke-width: 1.5; stroke-linecap: square"/>
   </g>
   <g id="patch_18">
    <path d="M 250.376727 307.872 
L 250.376727 196.992 
" style="fill: none; stroke: #000000; stroke-width: 0.8; stroke-linejoin: miter; stroke-linecap: square"/>
   </g>
   <g id="patch_19">
    <path d="M 412.704 307.872 
L 412.704 196.992 
" style="fill: none; stroke: #000000; stroke-width: 0.8; stroke-linejoin: miter; stroke-linecap: square"/>
   </g>
   <g id="patch_20">
    <path d="M 250.376727 307.872 
L 412.704 307.872 
" style="fill: none; stroke: #000000; stroke-width: 0.8; stroke-linejoin: miter; stroke-linecap: square"/>
   </g>
   <g id="patch_21">
    <path d="M 250.376727 196.992 
L 412.704 196.992 
" style="fill: none; stroke: #000000; stroke-width: 0.8; stroke-linejoin: miter; stroke-linecap: square"/>
   </g>
   <g id="text_40">
    <!-- VRNN -->
    <g transform="translate(314.289426 190.992) scale(0.12 -0.12)">
     <use xlink:href="#DejaVuSans-56"/>
     <use xlink:href="#DejaVuSans-52" x="68.408203"/>
     <use xlink:href="#DejaVuSans-4e" x="137.890625"/>
     <use xlink:href="#DejaVuSans-4e" x="212.695312"/>
    </g>
   </g>
  </g>
  <g id="text_41">
   <!-- VMAF Scores Over Frames: Video #4 -->
   <g transform="translate(118.155563 16.318125) scale(0.12 -0.12)">
    <defs>
     <path id="DejaVuSans-4d" d="M 628 4666 
L 1569 4666 
L 2759 1491 
L 3956 4666 
L 4897 4666 
L 4897 0 
L 4281 0 
L 4281 4097 
L 3078 897 
L 2444 897 
L 1241 4097 
L 1241 0 
L 628 0 
L 628 4666 
z
" transform="scale(0.015625)"/>
     <path id="DejaVuSans-73" d="M 2834 3397 
L 2834 2853 
Q 2591 2978 2328 3040 
Q 2066 3103 1784 3103 
Q 1356 3103 1142 2972 
Q 928 2841 928 2578 
Q 928 2378 1081 2264 
Q 1234 2150 1697 2047 
L 1894 2003 
Q 2506 1872 2764 1633 
Q 3022 1394 3022 966 
Q 3022 478 2636 193 
Q 2250 -91 1575 -91 
Q 1294 -91 989 -36 
Q 684 19 347 128 
L 347 722 
Q 666 556 975 473 
Q 1284 391 1588 391 
Q 1994 391 2212 530 
Q 2431 669 2431 922 
Q 2431 1156 2273 1281 
Q 2116 1406 1581 1522 
L 1381 1569 
Q 847 1681 609 1914 
Q 372 2147 372 2553 
Q 372 3047 722 3315 
Q 1072 3584 1716 3584 
Q 2034 3584 2315 3537 
Q 2597 3491 2834 3397 
z
" transform="scale(0.015625)"/>
     <path id="DejaVuSans-76" d="M 191 3500 
L 800 3500 
L 1894 563 
L 2988 3500 
L 3597 3500 
L 2284 0 
L 1503 0 
L 191 3500 
z
" transform="scale(0.015625)"/>
     <path id="DejaVuSans-61" d="M 2194 1759 
Q 1497 1759 1228 1600 
Q 959 1441 959 1056 
Q 959 750 1161 570 
Q 1363 391 1709 391 
Q 2188 391 2477 730 
Q 2766 1069 2766 1631 
L 2766 1759 
L 2194 1759 
z
M 3341 1997 
L 3341 0 
L 2766 0 
L 2766 531 
Q 2569 213 2275 61 
Q 1981 -91 1556 -91 
Q 1019 -91 701 211 
Q 384 513 384 1019 
Q 384 1609 779 1909 
Q 1175 2209 1959 2209 
L 2766 2209 
L 2766 2266 
Q 2766 2663 2505 2880 
Q 2244 3097 1772 3097 
Q 1472 3097 1187 3025 
Q 903 2953 641 2809 
L 641 3341 
Q 956 3463 1253 3523 
Q 1550 3584 1831 3584 
Q 2591 3584 2966 3190 
Q 3341 2797 3341 1997 
z
" transform="scale(0.015625)"/>
     <path id="DejaVuSans-6d" d="M 3328 2828 
Q 3544 3216 3844 3400 
Q 4144 3584 4550 3584 
Q 5097 3584 5394 3201 
Q 5691 2819 5691 2113 
L 5691 0 
L 5113 0 
L 5113 2094 
Q 5113 2597 4934 2840 
Q 4756 3084 4391 3084 
Q 3944 3084 3684 2787 
Q 3425 2491 3425 1978 
L 3425 0 
L 2847 0 
L 2847 2094 
Q 2847 2600 2669 2842 
Q 2491 3084 2119 3084 
Q 1678 3084 1418 2786 
Q 1159 2488 1159 1978 
L 1159 0 
L 581 0 
L 581 3500 
L 1159 3500 
L 1159 2956 
Q 1356 3278 1631 3431 
Q 1906 3584 2284 3584 
Q 2666 3584 2933 3390 
Q 3200 3197 3328 2828 
z
" transform="scale(0.015625)"/>
     <path id="DejaVuSans-3a" d="M 750 794 
L 1409 794 
L 1409 0 
L 750 0 
L 750 794 
z
M 750 3309 
L 1409 3309 
L 1409 2516 
L 750 2516 
L 750 3309 
z
" transform="scale(0.015625)"/>
     <path id="DejaVuSans-23" d="M 3272 2816 
L 2363 2816 
L 2100 1772 
L 3016 1772 
L 3272 2816 
z
M 2803 4594 
L 2478 3297 
L 3391 3297 
L 3719 4594 
L 4219 4594 
L 3897 3297 
L 4872 3297 
L 4872 2816 
L 3775 2816 
L 3519 1772 
L 4513 1772 
L 4513 1294 
L 3397 1294 
L 3072 0 
L 2572 0 
L 2894 1294 
L 1978 1294 
L 1656 0 
L 1153 0 
L 1478 1294 
L 494 1294 
L 494 1772 
L 1594 1772 
L 1856 2816 
L 850 2816 
L 850 3297 
L 1978 3297 
L 2297 4594 
L 2803 4594 
z
" transform="scale(0.015625)"/>
    </defs>
    <use xlink:href="#DejaVuSans-56"/>
    <use xlink:href="#DejaVuSans-4d" x="68.408203"/>
    <use xlink:href="#DejaVuSans-41" x="154.6875"/>
    <use xlink:href="#DejaVuSans-46" x="223.095703"/>
    <use xlink:href="#DejaVuSans-20" x="280.615234"/>
    <use xlink:href="#DejaVuSans-53" x="312.402344"/>
    <use xlink:href="#DejaVuSans-63" x="375.878906"/>
    <use xlink:href="#DejaVuSans-6f" x="430.859375"/>
    <use xlink:href="#DejaVuSans-72" x="492.041016"/>
    <use xlink:href="#DejaVuSans-65" x="530.904297"/>
    <use xlink:href="#DejaVuSans-73" x="592.427734"/>
    <use xlink:href="#DejaVuSans-20" x="644.527344"/>
    <use xlink:href="#DejaVuSans-4f" x="676.314453"/>
    <use xlink:href="#DejaVuSans-76" x="755.025391"/>
    <use xlink:href="#DejaVuSans-65" x="814.205078"/>
    <use xlink:href="#DejaVuSans-72" x="875.728516"/>
    <use xlink:href="#DejaVuSans-20" x="916.841797"/>
    <use xlink:href="#DejaVuSans-46" x="948.628906"/>
    <use xlink:href="#DejaVuSans-72" x="998.898438"/>
    <use xlink:href="#DejaVuSans-61" x="1040.011719"/>
    <use xlink:href="#DejaVuSans-6d" x="1101.291016"/>
    <use xlink:href="#DejaVuSans-65" x="1198.703125"/>
    <use xlink:href="#DejaVuSans-73" x="1260.226562"/>
    <use xlink:href="#DejaVuSans-3a" x="1312.326172"/>
    <use xlink:href="#DejaVuSans-20" x="1346.017578"/>
    <use xlink:href="#DejaVuSans-56" x="1377.804688"/>
    <use xlink:href="#DejaVuSans-69" x="1443.962891"/>
    <use xlink:href="#DejaVuSans-64" x="1471.746094"/>
    <use xlink:href="#DejaVuSans-65" x="1535.222656"/>
    <use xlink:href="#DejaVuSans-6f" x="1596.746094"/>
    <use xlink:href="#DejaVuSans-20" x="1657.927734"/>
    <use xlink:href="#DejaVuSans-23" x="1689.714844"/>
    <use xlink:href="#DejaVuSans-34" x="1773.503906"/>
   </g>
  </g>
  <g id="text_42">
   <!-- Video Frames -->
   <g transform="translate(187.847438 339.936375) scale(0.12 -0.12)">
    <use xlink:href="#DejaVuSans-56"/>
    <use xlink:href="#DejaVuSans-69" x="66.158203"/>
    <use xlink:href="#DejaVuSans-64" x="93.941406"/>
    <use xlink:href="#DejaVuSans-65" x="157.417969"/>
    <use xlink:href="#DejaVuSans-6f" x="218.941406"/>
    <use xlink:href="#DejaVuSans-20" x="280.123047"/>
    <use xlink:href="#DejaVuSans-46" x="311.910156"/>
    <use xlink:href="#DejaVuSans-72" x="362.179688"/>
    <use xlink:href="#DejaVuSans-61" x="403.292969"/>
    <use xlink:href="#DejaVuSans-6d" x="464.572266"/>
    <use xlink:href="#DejaVuSans-65" x="561.984375"/>
    <use xlink:href="#DejaVuSans-73" x="623.507812"/>
   </g>
  </g>
  <g id="text_43">
   <!-- Raw VMAF Scores -->
   <g transform="translate(16.318125 226.284562) rotate(-90) scale(0.12 -0.12)">
    <defs>
     <path id="DejaVuSans-77" d="M 269 3500 
L 844 3500 
L 1563 769 
L 2278 3500 
L 2956 3500 
L 3675 769 
L 4391 3500 
L 4966 3500 
L 4050 0 
L 3372 0 
L 2619 2869 
L 1863 0 
L 1184 0 
L 269 3500 
z
" transform="scale(0.015625)"/>
    </defs>
    <use xlink:href="#DejaVuSans-52"/>
    <use xlink:href="#DejaVuSans-61" x="67.232422"/>
    <use xlink:href="#DejaVuSans-77" x="128.511719"/>
    <use xlink:href="#DejaVuSans-20" x="210.298828"/>
    <use xlink:href="#DejaVuSans-56" x="242.085938"/>
    <use xlink:href="#DejaVuSans-4d" x="310.494141"/>
    <use xlink:href="#DejaVuSans-41" x="396.773438"/>
    <use xlink:href="#DejaVuSans-46" x="465.181641"/>
    <use xlink:href="#DejaVuSans-20" x="522.701172"/>
    <use xlink:href="#DejaVuSans-53" x="554.488281"/>
    <use xlink:href="#DejaVuSans-63" x="617.964844"/>
    <use xlink:href="#DejaVuSans-6f" x="672.945312"/>
    <use xlink:href="#DejaVuSans-72" x="734.126953"/>
    <use xlink:href="#DejaVuSans-65" x="772.990234"/>
    <use xlink:href="#DejaVuSans-73" x="834.513672"/>
   </g>
  </g>
 </g>
 <defs>
  <clipPath id="pb711dcf068">
   <rect x="55.584" y="41.76" width="162.327273" height="110.88"/>
  </clipPath>
  <clipPath id="pdf7e17b30f">
   <rect x="250.376727" y="41.76" width="162.327273" height="110.88"/>
  </clipPath>
  <clipPath id="pa1d92695f1">
   <rect x="55.584" y="196.992" width="162.327273" height="110.88"/>
  </clipPath>
  <clipPath id="p557133d164">
   <rect x="250.376727" y="196.992" width="162.327273" height="110.88"/>
  </clipPath>
 </defs>
</svg>
