<?xml version="1.0" encoding="utf-8" standalone="no"?>
<!DOCTYPE svg PUBLIC "-//W3C//DTD SVG 1.1//EN"
  "http://www.w3.org/Graphics/SVG/1.1/DTD/svg11.dtd">
<svg xmlns:xlink="http://www.w3.org/1999/xlink" width="429.022809pt" height="349.632pt" viewBox="0 0 429.022809 349.632" xmlns="http://www.w3.org/2000/svg" version="1.1">
 <metadata>
  <rdf:RDF xmlns:dc="http://purl.org/dc/elements/1.1/" xmlns:cc="http://creativecommons.org/ns#" xmlns:rdf="http://www.w3.org/1999/02/22-rdf-syntax-ns#">
   <cc:Work>
    <dc:type rdf:resource="http://purl.org/dc/dcmitype/StillImage"/>
    <dc:date>2024-07-24T16:31:54.124413</dc:date>
    <dc:format>image/svg+xml</dc:format>
    <dc:creator>
     <cc:Agent>
      <dc:title>Matplotlib v3.7.2, https://matplotlib.org/</dc:title>
     </cc:Agent>
    </dc:creator>
   </cc:Work>
  </rdf:RDF>
 </metadata>
 <defs>
  <style type="text/css">*{stroke-linejoin: round; stroke-linecap: butt}</style>
 </defs>
 <g id="figure_1">
  <g id="patch_1">
   <path d="M 0 349.632 
L 429.022809 349.632 
L 429.022809 -0 
L 0 -0 
z
" style="fill: #ffffff"/>
  </g>
  <g id="axes_1">
   <g id="patch_2">
    <path d="M 55.584 152.64 
L 217.911273 152.64 
L 217.911273 41.76 
L 55.584 41.76 
z
" style="fill: #ffffff"/>
   </g>
   <g id="matplotlib.axis_1">
    <g id="xtick_1">
     <g id="line2d_1">
      <defs>
       <path id="m832f54abf8" d="M 0 0 
L 0 3.5 
" style="stroke: #000000; stroke-width: 0.8"/>
      </defs>
      <g>
       <use xlink:href="#m832f54abf8" x="62.962512" y="152.64" style="stroke: #000000; stroke-width: 0.8"/>
      </g>
     </g>
     <g id="text_1">
      <!-- 0 -->
      <g transform="translate(59.781262 167.238437) scale(0.1 -0.1)">
       <defs>
        <path id="DejaVuSans-30" d="M 2034 4250 
Q 1547 4250 1301 3770 
Q 1056 3291 1056 2328 
Q 1056 1369 1301 889 
Q 1547 409 2034 409 
Q 2525 409 2770 889 
Q 3016 1369 3016 2328 
Q 3016 3291 2770 3770 
Q 2525 4250 2034 4250 
z
M 2034 4750 
Q 2819 4750 3233 4129 
Q 3647 3509 3647 2328 
Q 3647 1150 3233 529 
Q 2819 -91 2034 -91 
Q 1250 -91 836 529 
Q 422 1150 422 2328 
Q 422 3509 836 4129 
Q 1250 4750 2034 4750 
z
" transform="scale(0.015625)"/>
       </defs>
       <use xlink:href="#DejaVuSans-30"/>
      </g>
     </g>
    </g>
    <g id="xtick_2">
     <g id="line2d_2">
      <g>
       <use xlink:href="#m832f54abf8" x="101.593467" y="152.64" style="stroke: #000000; stroke-width: 0.8"/>
      </g>
     </g>
     <g id="text_2">
      <!-- 50 -->
      <g transform="translate(95.230967 167.238437) scale(0.1 -0.1)">
       <defs>
        <path id="DejaVuSans-35" d="M 691 4666 
L 3169 4666 
L 3169 4134 
L 1269 4134 
L 1269 2991 
Q 1406 3038 1543 3061 
Q 1681 3084 1819 3084 
Q 2600 3084 3056 2656 
Q 3513 2228 3513 1497 
Q 3513 744 3044 326 
Q 2575 -91 1722 -91 
Q 1428 -91 1123 -41 
Q 819 9 494 109 
L 494 744 
Q 775 591 1075 516 
Q 1375 441 1709 441 
Q 2250 441 2565 725 
Q 2881 1009 2881 1497 
Q 2881 1984 2565 2268 
Q 2250 2553 1709 2553 
Q 1456 2553 1204 2497 
Q 953 2441 691 2322 
L 691 4666 
z
" transform="scale(0.015625)"/>
       </defs>
       <use xlink:href="#DejaVuSans-35"/>
       <use xlink:href="#DejaVuSans-30" x="63.623047"/>
      </g>
     </g>
    </g>
    <g id="xtick_3">
     <g id="line2d_3">
      <g>
       <use xlink:href="#m832f54abf8" x="140.224422" y="152.64" style="stroke: #000000; stroke-width: 0.8"/>
      </g>
     </g>
     <g id="text_3">
      <!-- 100 -->
      <g transform="translate(130.680672 167.238437) scale(0.1 -0.1)">
       <defs>
        <path id="DejaVuSans-31" d="M 794 531 
L 1825 531 
L 1825 4091 
L 703 3866 
L 703 4441 
L 1819 4666 
L 2450 4666 
L 2450 531 
L 3481 531 
L 3481 0 
L 794 0 
L 794 531 
z
" transform="scale(0.015625)"/>
       </defs>
       <use xlink:href="#DejaVuSans-31"/>
       <use xlink:href="#DejaVuSans-30" x="63.623047"/>
       <use xlink:href="#DejaVuSans-30" x="127.246094"/>
      </g>
     </g>
    </g>
    <g id="xtick_4">
     <g id="line2d_4">
      <g>
       <use xlink:href="#m832f54abf8" x="178.855377" y="152.64" style="stroke: #000000; stroke-width: 0.8"/>
      </g>
     </g>
     <g id="text_4">
      <!-- 150 -->
      <g transform="translate(169.311627 167.238437) scale(0.1 -0.1)">
       <use xlink:href="#DejaVuSans-31"/>
       <use xlink:href="#DejaVuSans-35" x="63.623047"/>
       <use xlink:href="#DejaVuSans-30" x="127.246094"/>
      </g>
     </g>
    </g>
    <g id="xtick_5">
     <g id="line2d_5">
      <g>
       <use xlink:href="#m832f54abf8" x="217.486332" y="152.64" style="stroke: #000000; stroke-width: 0.8"/>
      </g>
     </g>
     <g id="text_5">
      <!-- 200 -->
      <g transform="translate(207.942582 167.238437) scale(0.1 -0.1)">
       <defs>
        <path id="DejaVuSans-32" d="M 1228 531 
L 3431 531 
L 3431 0 
L 469 0 
L 469 531 
Q 828 903 1448 1529 
Q 2069 2156 2228 2338 
Q 2531 2678 2651 2914 
Q 2772 3150 2772 3378 
Q 2772 3750 2511 3984 
Q 2250 4219 1831 4219 
Q 1534 4219 1204 4116 
Q 875 4013 500 3803 
L 500 4441 
Q 881 4594 1212 4672 
Q 1544 4750 1819 4750 
Q 2544 4750 2975 4387 
Q 3406 4025 3406 3419 
Q 3406 3131 3298 2873 
Q 3191 2616 2906 2266 
Q 2828 2175 2409 1742 
Q 1991 1309 1228 531 
z
" transform="scale(0.015625)"/>
       </defs>
       <use xlink:href="#DejaVuSans-32"/>
       <use xlink:href="#DejaVuSans-30" x="63.623047"/>
       <use xlink:href="#DejaVuSans-30" x="127.246094"/>
      </g>
     </g>
    </g>
   </g>
   <g id="matplotlib.axis_2">
    <g id="ytick_1">
     <g id="line2d_6">
      <defs>
       <path id="ma23147b8eb" d="M 0 0 
L -3.5 0 
" style="stroke: #000000; stroke-width: 0.8"/>
      </defs>
      <g>
       <use xlink:href="#ma23147b8eb" x="55.584" y="129.736039" style="stroke: #000000; stroke-width: 0.8"/>
      </g>
     </g>
     <g id="text_6">
      <!-- 10 -->
      <g transform="translate(35.859 133.535258) scale(0.1 -0.1)">
       <use xlink:href="#DejaVuSans-31"/>
       <use xlink:href="#DejaVuSans-30" x="63.623047"/>
      </g>
     </g>
    </g>
    <g id="ytick_2">
     <g id="line2d_7">
      <g>
       <use xlink:href="#ma23147b8eb" x="55.584" y="99.90326" style="stroke: #000000; stroke-width: 0.8"/>
      </g>
     </g>
     <g id="text_7">
      <!-- 20 -->
      <g transform="translate(35.859 103.702479) scale(0.1 -0.1)">
       <use xlink:href="#DejaVuSans-32"/>
       <use xlink:href="#DejaVuSans-30" x="63.623047"/>
      </g>
     </g>
    </g>
    <g id="ytick_3">
     <g id="line2d_8">
      <g>
       <use xlink:href="#ma23147b8eb" x="55.584" y="70.070481" style="stroke: #000000; stroke-width: 0.8"/>
      </g>
     </g>
     <g id="text_8">
      <!-- 30 -->
      <g transform="translate(35.859 73.869699) scale(0.1 -0.1)">
       <defs>
        <path id="DejaVuSans-33" d="M 2597 2516 
Q 3050 2419 3304 2112 
Q 3559 1806 3559 1356 
Q 3559 666 3084 287 
Q 2609 -91 1734 -91 
Q 1441 -91 1130 -33 
Q 819 25 488 141 
L 488 750 
Q 750 597 1062 519 
Q 1375 441 1716 441 
Q 2309 441 2620 675 
Q 2931 909 2931 1356 
Q 2931 1769 2642 2001 
Q 2353 2234 1838 2234 
L 1294 2234 
L 1294 2753 
L 1863 2753 
Q 2328 2753 2575 2939 
Q 2822 3125 2822 3475 
Q 2822 3834 2567 4026 
Q 2313 4219 1838 4219 
Q 1578 4219 1281 4162 
Q 984 4106 628 3988 
L 628 4550 
Q 988 4650 1302 4700 
Q 1616 4750 1894 4750 
Q 2613 4750 3031 4423 
Q 3450 4097 3450 3541 
Q 3450 3153 3228 2886 
Q 3006 2619 2597 2516 
z
" transform="scale(0.015625)"/>
       </defs>
       <use xlink:href="#DejaVuSans-33"/>
       <use xlink:href="#DejaVuSans-30" x="63.623047"/>
      </g>
     </g>
    </g>
   </g>
   <g id="line2d_9">
    <path d="M 62.962512 52.976943 
L 63.735131 46.8 
L 64.507751 50.892741 
L 65.28037 57.59196 
L 66.052989 62.449256 
L 66.825608 59.352318 
L 67.598227 51.693569 
L 68.370846 51.436828 
L 69.143465 55.479403 
L 69.916084 57.382949 
L 70.688703 66.381437 
L 71.461322 73.218236 
L 73.006561 81.657669 
L 73.77918 105.785386 
L 74.551799 100.476888 
L 75.324418 90.219611 
L 76.097037 94.492023 
L 76.869656 109.085351 
L 77.642275 116.689858 
L 78.414894 107.627363 
L 79.187513 100.266229 
L 79.960133 103.33048 
L 80.732752 101.23763 
L 81.505371 110.698731 
L 82.27799 118.277648 
L 83.050609 116.506153 
L 83.823228 108.441121 
L 85.368466 116.831405 
L 86.141085 114.45637 
L 86.913704 106.294306 
L 87.686324 105.003397 
L 88.458943 103.34422 
L 89.231562 105.543547 
L 90.004181 106.98319 
L 90.7768 110.580952 
L 91.549419 109.410677 
L 92.322038 113.76123 
L 93.094657 113.108695 
L 93.867276 109.470239 
L 94.639895 107.243466 
L 95.412515 115.699195 
L 96.185134 110.287821 
L 96.957753 109.618284 
L 97.730372 102.214405 
L 98.502991 92.771719 
L 99.27561 88.102883 
L 100.048229 98.019529 
L 100.820848 96.831632 
L 101.593467 106.32251 
L 102.366086 107.123837 
L 103.138706 110.872877 
L 103.911325 108.806367 
L 104.683944 109.924287 
L 105.456563 106.481841 
L 106.229182 111.64103 
L 107.001801 113.782856 
L 107.77442 116.257879 
L 108.547039 113.837787 
L 109.319658 113.941477 
L 110.092277 121.282799 
L 110.864897 123.84357 
L 111.637516 122.518249 
L 112.410135 124.785427 
L 113.182754 116.428215 
L 113.955373 111.421798 
L 114.727992 108.706827 
L 115.500611 107.1575 
L 116.27323 102.541241 
L 117.045849 115.962815 
L 117.818468 115.876389 
L 118.591088 120.499408 
L 119.363707 117.510969 
L 120.136326 122.830634 
L 120.908945 131.391075 
L 122.454183 135.452671 
L 123.226802 133.224446 
L 123.999421 129.316552 
L 124.77204 126.553114 
L 125.544659 117.661896 
L 126.317279 115.523518 
L 127.089898 114.142544 
L 127.862517 121.506637 
L 128.635136 119.23434 
L 129.407755 120.464551 
L 130.180374 120.005374 
L 130.952993 109.297202 
L 131.725612 101.424774 
L 133.27085 122.046718 
L 134.04347 128.84895 
L 134.816089 130.519075 
L 135.588708 123.61037 
L 136.361327 120.376178 
L 137.133946 121.791576 
L 137.906565 117.894654 
L 138.679184 120.546317 
L 139.451803 116.656612 
L 140.224422 122.351397 
L 140.997041 126.349037 
L 141.769661 129.343849 
L 142.54228 127.366783 
L 143.314899 130.666228 
L 144.087518 133.222125 
L 144.860137 142.390502 
L 145.632756 136.820307 
L 146.405375 129.80688 
L 147.177994 126.940481 
L 147.950613 121.972422 
L 148.723232 118.251848 
L 149.495851 119.868322 
L 150.268471 122.08636 
L 151.04109 130.556691 
L 152.586328 126.250166 
L 153.358947 128.078345 
L 154.131566 114.120336 
L 154.904185 114.988948 
L 155.676804 131.717732 
L 156.449423 130.687025 
L 157.222042 129.365826 
L 157.994662 120.093855 
L 158.767281 116.272515 
L 159.5399 127.543542 
L 160.312519 127.439372 
L 161.085138 118.611286 
L 161.857757 113.157003 
L 162.630376 114.905082 
L 163.402995 117.650255 
L 164.175614 123.815008 
L 164.948233 119.336792 
L 165.720853 120.329528 
L 166.493472 130.092371 
L 167.266091 129.928777 
L 168.03871 125.545465 
L 169.583948 127.54995 
L 170.356567 124.136119 
L 171.129186 129.187513 
L 171.901805 131.142249 
L 172.674424 127.958919 
L 173.447044 133.213813 
L 174.219663 128.998853 
L 174.992282 131.88226 
L 175.764901 135.374951 
L 176.53752 129.049062 
L 177.310139 137.810326 
L 178.082758 137.347906 
L 178.855377 141.423764 
L 179.627996 141.075559 
L 180.400615 140.556597 
L 181.173235 143.249939 
L 181.945854 137.97659 
L 182.718473 128.418185 
L 183.491092 126.789742 
L 184.263711 122.362083 
L 185.03633 115.131778 
L 185.808949 126.029242 
L 186.581568 129.034456 
L 187.354187 128.29446 
L 188.126806 113.500062 
L 188.899426 123.433304 
L 189.672045 138.218826 
L 190.444664 136.757446 
L 191.217283 138.076303 
L 191.989902 147.2501 
L 192.762521 146.515617 
L 193.53514 147.6 
L 194.307759 146.058958 
L 195.080378 140.620398 
L 195.852997 132.177846 
L 196.625617 121.681726 
L 197.398236 118.482342 
L 198.170855 111.827073 
L 198.943474 120.228968 
L 199.716093 113.9339 
L 200.488712 124.594604 
L 201.261331 127.833412 
L 202.03395 124.254982 
L 202.806569 119.897457 
L 203.579188 127.684353 
L 204.351808 121.506819 
L 205.124427 117.706714 
L 205.897046 114.915449 
L 206.669665 117.394582 
L 207.442284 112.338941 
L 208.214903 117.256275 
L 208.987522 120.435408 
L 209.760141 121.430313 
L 210.53276 125.596595 
L 210.53276 125.596595 
" clip-path="url(#pe011fa4acb)" style="fill: none; stroke: #008000; stroke-width: 1.5; stroke-linecap: square"/>
   </g>
   <g id="patch_3">
    <path d="M 55.584 152.64 
L 55.584 41.76 
" style="fill: none; stroke: #000000; stroke-width: 0.8; stroke-linejoin: miter; stroke-linecap: square"/>
   </g>
   <g id="patch_4">
    <path d="M 217.911273 152.64 
L 217.911273 41.76 
" style="fill: none; stroke: #000000; stroke-width: 0.8; stroke-linejoin: miter; stroke-linecap: square"/>
   </g>
   <g id="patch_5">
    <path d="M 55.584 152.64 
L 217.911273 152.64 
" style="fill: none; stroke: #000000; stroke-width: 0.8; stroke-linejoin: miter; stroke-linecap: square"/>
   </g>
   <g id="patch_6">
    <path d="M 55.584 41.76 
L 217.911273 41.76 
" style="fill: none; stroke: #000000; stroke-width: 0.8; stroke-linejoin: miter; stroke-linecap: square"/>
   </g>
   <g id="text_9">
    <!-- No Prediction (FOSS) -->
    <g transform="translate(74.495761 35.76) scale(0.12 -0.12)">
     <defs>
      <path id="DejaVuSans-4e" d="M 628 4666 
L 1478 4666 
L 3547 763 
L 3547 4666 
L 4159 4666 
L 4159 0 
L 3309 0 
L 1241 3903 
L 1241 0 
L 628 0 
L 628 4666 
z
" transform="scale(0.015625)"/>
      <path id="DejaVuSans-6f" d="M 1959 3097 
Q 1497 3097 1228 2736 
Q 959 2375 959 1747 
Q 959 1119 1226 758 
Q 1494 397 1959 397 
Q 2419 397 2687 759 
Q 2956 1122 2956 1747 
Q 2956 2369 2687 2733 
Q 2419 3097 1959 3097 
z
M 1959 3584 
Q 2709 3584 3137 3096 
Q 3566 2609 3566 1747 
Q 3566 888 3137 398 
Q 2709 -91 1959 -91 
Q 1206 -91 779 398 
Q 353 888 353 1747 
Q 353 2609 779 3096 
Q 1206 3584 1959 3584 
z
" transform="scale(0.015625)"/>
      <path id="DejaVuSans-20" transform="scale(0.015625)"/>
      <path id="DejaVuSans-50" d="M 1259 4147 
L 1259 2394 
L 2053 2394 
Q 2494 2394 2734 2622 
Q 2975 2850 2975 3272 
Q 2975 3691 2734 3919 
Q 2494 4147 2053 4147 
L 1259 4147 
z
M 628 4666 
L 2053 4666 
Q 2838 4666 3239 4311 
Q 3641 3956 3641 3272 
Q 3641 2581 3239 2228 
Q 2838 1875 2053 1875 
L 1259 1875 
L 1259 0 
L 628 0 
L 628 4666 
z
" transform="scale(0.015625)"/>
      <path id="DejaVuSans-72" d="M 2631 2963 
Q 2534 3019 2420 3045 
Q 2306 3072 2169 3072 
Q 1681 3072 1420 2755 
Q 1159 2438 1159 1844 
L 1159 0 
L 581 0 
L 581 3500 
L 1159 3500 
L 1159 2956 
Q 1341 3275 1631 3429 
Q 1922 3584 2338 3584 
Q 2397 3584 2469 3576 
Q 2541 3569 2628 3553 
L 2631 2963 
z
" transform="scale(0.015625)"/>
      <path id="DejaVuSans-65" d="M 3597 1894 
L 3597 1613 
L 953 1613 
Q 991 1019 1311 708 
Q 1631 397 2203 397 
Q 2534 397 2845 478 
Q 3156 559 3463 722 
L 3463 178 
Q 3153 47 2828 -22 
Q 2503 -91 2169 -91 
Q 1331 -91 842 396 
Q 353 884 353 1716 
Q 353 2575 817 3079 
Q 1281 3584 2069 3584 
Q 2775 3584 3186 3129 
Q 3597 2675 3597 1894 
z
M 3022 2063 
Q 3016 2534 2758 2815 
Q 2500 3097 2075 3097 
Q 1594 3097 1305 2825 
Q 1016 2553 972 2059 
L 3022 2063 
z
" transform="scale(0.015625)"/>
      <path id="DejaVuSans-64" d="M 2906 2969 
L 2906 4863 
L 3481 4863 
L 3481 0 
L 2906 0 
L 2906 525 
Q 2725 213 2448 61 
Q 2172 -91 1784 -91 
Q 1150 -91 751 415 
Q 353 922 353 1747 
Q 353 2572 751 3078 
Q 1150 3584 1784 3584 
Q 2172 3584 2448 3432 
Q 2725 3281 2906 2969 
z
M 947 1747 
Q 947 1113 1208 752 
Q 1469 391 1925 391 
Q 2381 391 2643 752 
Q 2906 1113 2906 1747 
Q 2906 2381 2643 2742 
Q 2381 3103 1925 3103 
Q 1469 3103 1208 2742 
Q 947 2381 947 1747 
z
" transform="scale(0.015625)"/>
      <path id="DejaVuSans-69" d="M 603 3500 
L 1178 3500 
L 1178 0 
L 603 0 
L 603 3500 
z
M 603 4863 
L 1178 4863 
L 1178 4134 
L 603 4134 
L 603 4863 
z
" transform="scale(0.015625)"/>
      <path id="DejaVuSans-63" d="M 3122 3366 
L 3122 2828 
Q 2878 2963 2633 3030 
Q 2388 3097 2138 3097 
Q 1578 3097 1268 2742 
Q 959 2388 959 1747 
Q 959 1106 1268 751 
Q 1578 397 2138 397 
Q 2388 397 2633 464 
Q 2878 531 3122 666 
L 3122 134 
Q 2881 22 2623 -34 
Q 2366 -91 2075 -91 
Q 1284 -91 818 406 
Q 353 903 353 1747 
Q 353 2603 823 3093 
Q 1294 3584 2113 3584 
Q 2378 3584 2631 3529 
Q 2884 3475 3122 3366 
z
" transform="scale(0.015625)"/>
      <path id="DejaVuSans-74" d="M 1172 4494 
L 1172 3500 
L 2356 3500 
L 2356 3053 
L 1172 3053 
L 1172 1153 
Q 1172 725 1289 603 
Q 1406 481 1766 481 
L 2356 481 
L 2356 0 
L 1766 0 
Q 1100 0 847 248 
Q 594 497 594 1153 
L 594 3053 
L 172 3053 
L 172 3500 
L 594 3500 
L 594 4494 
L 1172 4494 
z
" transform="scale(0.015625)"/>
      <path id="DejaVuSans-6e" d="M 3513 2113 
L 3513 0 
L 2938 0 
L 2938 2094 
Q 2938 2591 2744 2837 
Q 2550 3084 2163 3084 
Q 1697 3084 1428 2787 
Q 1159 2491 1159 1978 
L 1159 0 
L 581 0 
L 581 3500 
L 1159 3500 
L 1159 2956 
Q 1366 3272 1645 3428 
Q 1925 3584 2291 3584 
Q 2894 3584 3203 3211 
Q 3513 2838 3513 2113 
z
" transform="scale(0.015625)"/>
      <path id="DejaVuSans-28" d="M 1984 4856 
Q 1566 4138 1362 3434 
Q 1159 2731 1159 2009 
Q 1159 1288 1364 580 
Q 1569 -128 1984 -844 
L 1484 -844 
Q 1016 -109 783 600 
Q 550 1309 550 2009 
Q 550 2706 781 3412 
Q 1013 4119 1484 4856 
L 1984 4856 
z
" transform="scale(0.015625)"/>
      <path id="DejaVuSans-46" d="M 628 4666 
L 3309 4666 
L 3309 4134 
L 1259 4134 
L 1259 2759 
L 3109 2759 
L 3109 2228 
L 1259 2228 
L 1259 0 
L 628 0 
L 628 4666 
z
" transform="scale(0.015625)"/>
      <path id="DejaVuSans-4f" d="M 2522 4238 
Q 1834 4238 1429 3725 
Q 1025 3213 1025 2328 
Q 1025 1447 1429 934 
Q 1834 422 2522 422 
Q 3209 422 3611 934 
Q 4013 1447 4013 2328 
Q 4013 3213 3611 3725 
Q 3209 4238 2522 4238 
z
M 2522 4750 
Q 3503 4750 4090 4092 
Q 4678 3434 4678 2328 
Q 4678 1225 4090 567 
Q 3503 -91 2522 -91 
Q 1538 -91 948 565 
Q 359 1222 359 2328 
Q 359 3434 948 4092 
Q 1538 4750 2522 4750 
z
" transform="scale(0.015625)"/>
      <path id="DejaVuSans-53" d="M 3425 4513 
L 3425 3897 
Q 3066 4069 2747 4153 
Q 2428 4238 2131 4238 
Q 1616 4238 1336 4038 
Q 1056 3838 1056 3469 
Q 1056 3159 1242 3001 
Q 1428 2844 1947 2747 
L 2328 2669 
Q 3034 2534 3370 2195 
Q 3706 1856 3706 1288 
Q 3706 609 3251 259 
Q 2797 -91 1919 -91 
Q 1588 -91 1214 -16 
Q 841 59 441 206 
L 441 856 
Q 825 641 1194 531 
Q 1563 422 1919 422 
Q 2459 422 2753 634 
Q 3047 847 3047 1241 
Q 3047 1584 2836 1778 
Q 2625 1972 2144 2069 
L 1759 2144 
Q 1053 2284 737 2584 
Q 422 2884 422 3419 
Q 422 4038 858 4394 
Q 1294 4750 2059 4750 
Q 2388 4750 2728 4690 
Q 3069 4631 3425 4513 
z
" transform="scale(0.015625)"/>
      <path id="DejaVuSans-29" d="M 513 4856 
L 1013 4856 
Q 1481 4119 1714 3412 
Q 1947 2706 1947 2009 
Q 1947 1309 1714 600 
Q 1481 -109 1013 -844 
L 513 -844 
Q 928 -128 1133 580 
Q 1338 1288 1338 2009 
Q 1338 2731 1133 3434 
Q 928 4138 513 4856 
z
" transform="scale(0.015625)"/>
     </defs>
     <use xlink:href="#DejaVuSans-4e"/>
     <use xlink:href="#DejaVuSans-6f" x="74.804688"/>
     <use xlink:href="#DejaVuSans-20" x="135.986328"/>
     <use xlink:href="#DejaVuSans-50" x="167.773438"/>
     <use xlink:href="#DejaVuSans-72" x="226.326172"/>
     <use xlink:href="#DejaVuSans-65" x="265.189453"/>
     <use xlink:href="#DejaVuSans-64" x="326.712891"/>
     <use xlink:href="#DejaVuSans-69" x="390.189453"/>
     <use xlink:href="#DejaVuSans-63" x="417.972656"/>
     <use xlink:href="#DejaVuSans-74" x="472.953125"/>
     <use xlink:href="#DejaVuSans-69" x="512.162109"/>
     <use xlink:href="#DejaVuSans-6f" x="539.945312"/>
     <use xlink:href="#DejaVuSans-6e" x="601.126953"/>
     <use xlink:href="#DejaVuSans-20" x="664.505859"/>
     <use xlink:href="#DejaVuSans-28" x="696.292969"/>
     <use xlink:href="#DejaVuSans-46" x="735.306641"/>
     <use xlink:href="#DejaVuSans-4f" x="792.826172"/>
     <use xlink:href="#DejaVuSans-53" x="871.537109"/>
     <use xlink:href="#DejaVuSans-53" x="935.013672"/>
     <use xlink:href="#DejaVuSans-29" x="998.490234"/>
    </g>
   </g>
  </g>
  <g id="axes_2">
   <g id="patch_7">
    <path d="M 250.376727 152.64 
L 412.704 152.64 
L 412.704 41.76 
L 250.376727 41.76 
z
" style="fill: #ffffff"/>
   </g>
   <g id="matplotlib.axis_3">
    <g id="xtick_6">
     <g id="line2d_10">
      <g>
       <use xlink:href="#m832f54abf8" x="257.75524" y="152.64" style="stroke: #000000; stroke-width: 0.8"/>
      </g>
     </g>
     <g id="text_10">
      <!-- 0 -->
      <g transform="translate(254.57399 167.238437) scale(0.1 -0.1)">
       <use xlink:href="#DejaVuSans-30"/>
      </g>
     </g>
    </g>
    <g id="xtick_7">
     <g id="line2d_11">
      <g>
       <use xlink:href="#m832f54abf8" x="296.386195" y="152.64" style="stroke: #000000; stroke-width: 0.8"/>
      </g>
     </g>
     <g id="text_11">
      <!-- 50 -->
      <g transform="translate(290.023695 167.238437) scale(0.1 -0.1)">
       <use xlink:href="#DejaVuSans-35"/>
       <use xlink:href="#DejaVuSans-30" x="63.623047"/>
      </g>
     </g>
    </g>
    <g id="xtick_8">
     <g id="line2d_12">
      <g>
       <use xlink:href="#m832f54abf8" x="335.01715" y="152.64" style="stroke: #000000; stroke-width: 0.8"/>
      </g>
     </g>
     <g id="text_12">
      <!-- 100 -->
      <g transform="translate(325.4734 167.238437) scale(0.1 -0.1)">
       <use xlink:href="#DejaVuSans-31"/>
       <use xlink:href="#DejaVuSans-30" x="63.623047"/>
       <use xlink:href="#DejaVuSans-30" x="127.246094"/>
      </g>
     </g>
    </g>
    <g id="xtick_9">
     <g id="line2d_13">
      <g>
       <use xlink:href="#m832f54abf8" x="373.648105" y="152.64" style="stroke: #000000; stroke-width: 0.8"/>
      </g>
     </g>
     <g id="text_13">
      <!-- 150 -->
      <g transform="translate(364.104355 167.238437) scale(0.1 -0.1)">
       <use xlink:href="#DejaVuSans-31"/>
       <use xlink:href="#DejaVuSans-35" x="63.623047"/>
       <use xlink:href="#DejaVuSans-30" x="127.246094"/>
      </g>
     </g>
    </g>
    <g id="xtick_10">
     <g id="line2d_14">
      <g>
       <use xlink:href="#m832f54abf8" x="412.279059" y="152.64" style="stroke: #000000; stroke-width: 0.8"/>
      </g>
     </g>
     <g id="text_14">
      <!-- 200 -->
      <g transform="translate(402.735309 167.238437) scale(0.1 -0.1)">
       <use xlink:href="#DejaVuSans-32"/>
       <use xlink:href="#DejaVuSans-30" x="63.623047"/>
       <use xlink:href="#DejaVuSans-30" x="127.246094"/>
      </g>
     </g>
    </g>
   </g>
   <g id="matplotlib.axis_4">
    <g id="ytick_4">
     <g id="line2d_15">
      <g>
       <use xlink:href="#ma23147b8eb" x="250.376727" y="147.6" style="stroke: #000000; stroke-width: 0.8"/>
      </g>
     </g>
     <g id="text_15">
      <!-- 0 -->
      <g transform="translate(237.014227 151.399219) scale(0.1 -0.1)">
       <use xlink:href="#DejaVuSans-30"/>
      </g>
     </g>
    </g>
    <g id="ytick_5">
     <g id="line2d_16">
      <g>
       <use xlink:href="#ma23147b8eb" x="250.376727" y="120.920627" style="stroke: #000000; stroke-width: 0.8"/>
      </g>
     </g>
     <g id="text_16">
      <!-- 10 -->
      <g transform="translate(230.651727 124.719846) scale(0.1 -0.1)">
       <use xlink:href="#DejaVuSans-31"/>
       <use xlink:href="#DejaVuSans-30" x="63.623047"/>
      </g>
     </g>
    </g>
    <g id="ytick_6">
     <g id="line2d_17">
      <g>
       <use xlink:href="#ma23147b8eb" x="250.376727" y="94.241255" style="stroke: #000000; stroke-width: 0.8"/>
      </g>
     </g>
     <g id="text_17">
      <!-- 20 -->
      <g transform="translate(230.651727 98.040474) scale(0.1 -0.1)">
       <use xlink:href="#DejaVuSans-32"/>
       <use xlink:href="#DejaVuSans-30" x="63.623047"/>
      </g>
     </g>
    </g>
    <g id="ytick_7">
     <g id="line2d_18">
      <g>
       <use xlink:href="#ma23147b8eb" x="250.376727" y="67.561882" style="stroke: #000000; stroke-width: 0.8"/>
      </g>
     </g>
     <g id="text_18">
      <!-- 30 -->
      <g transform="translate(230.651727 71.361101) scale(0.1 -0.1)">
       <use xlink:href="#DejaVuSans-33"/>
       <use xlink:href="#DejaVuSans-30" x="63.623047"/>
      </g>
     </g>
    </g>
   </g>
   <g id="line2d_19">
    <path d="M 257.75524 52.282011 
L 258.527859 46.8 
L 259.300478 50.416165 
L 260.073097 56.429549 
L 260.845716 60.745631 
L 261.618335 57.992848 
L 262.390954 51.125444 
L 263.163573 50.94006 
L 263.936192 54.517366 
L 264.708812 56.213758 
L 265.481431 64.271881 
L 266.25405 70.376215 
L 267.026669 132.091929 
L 267.799288 147.6 
L 268.571907 145.195668 
L 269.344526 146.149565 
L 270.117145 137.038138 
L 270.889764 144.519453 
L 271.662383 147.6 
L 272.435003 146.176183 
L 273.207622 145.307687 
L 273.980241 143.931319 
L 274.75286 147.059236 
L 275.525479 147.6 
L 276.298098 103.904497 
L 277.070717 110.705752 
L 277.843336 109.306771 
L 278.615955 101.869474 
L 280.161194 109.36184 
L 280.933813 107.256373 
L 281.706432 99.964111 
L 282.479051 98.79484 
L 283.25167 97.316314 
L 284.024289 99.287768 
L 284.796908 100.565958 
L 285.569527 147.6 
L 286.342146 147.6 
L 287.114765 147.019676 
L 287.887385 144.121205 
L 288.660004 141.727438 
L 289.432623 147.6 
L 290.205242 130.588152 
L 290.977861 129.368771 
L 292.523099 146.45458 
L 293.295718 147.6 
L 294.068337 147.6 
L 294.840956 92.833539 
L 295.613576 91.495232 
L 296.386195 99.994646 
L 297.158814 100.698029 
L 297.931433 104.067572 
L 298.704052 102.196604 
L 299.476671 103.199951 
L 300.24929 100.113974 
L 301.021909 104.552224 
L 302.567147 108.869792 
L 303.339767 106.699732 
L 304.112386 145.666541 
L 304.885005 147.6 
L 305.657624 145.272812 
L 306.430243 147.6 
L 307.202862 128.963332 
L 307.975481 121.736848 
L 308.7481 118.937979 
L 309.520719 119.638457 
L 310.293338 122.106766 
L 311.065958 122.758631 
L 312.611196 139.14711 
L 313.383815 112.670002 
L 314.156434 109.986361 
L 314.929053 114.754736 
L 315.701672 122.406885 
L 317.24691 126.048387 
L 318.019529 124.046575 
L 318.792149 120.580281 
L 319.564768 118.072554 
L 320.337387 110.128589 
L 321.110006 108.209422 
L 321.882625 106.960632 
L 322.655244 121.931848 
L 323.427863 139.276681 
L 324.200482 147.6 
L 327.290959 147.6 
L 328.063578 139.751748 
L 328.836197 136.721651 
L 329.608816 147.6 
L 330.381435 115.878162 
L 331.154054 147.6 
L 331.926673 113.92627 
L 332.699292 110.326662 
L 333.471911 111.5452 
L 334.24453 109.20547 
L 335.01715 114.314209 
L 335.789769 117.903185 
L 336.562388 120.57133 
L 337.335007 118.817263 
L 338.107626 121.753101 
L 338.880245 124.017646 
L 339.652864 132.233906 
L 340.425483 127.245199 
L 341.198102 130.905935 
L 341.970721 111.406435 
L 342.743341 135.796731 
L 343.51596 123.648222 
L 344.288579 121.142096 
L 345.061198 125.281125 
L 345.833817 132.18682 
L 346.606436 122.482016 
L 347.379055 123.682076 
L 348.151674 137.704861 
L 348.924293 147.386829 
L 349.696912 147.6 
L 350.469532 122.697556 
L 351.242151 121.832659 
L 352.01477 120.610544 
L 352.787389 112.281764 
L 353.560008 108.865155 
L 354.332627 118.965715 
L 355.105246 118.870075 
L 355.877865 110.976833 
L 356.650484 106.098339 
L 357.423103 107.662713 
L 358.195723 110.111554 
L 358.968342 115.628819 
L 359.740961 147.6 
L 363.604056 147.6 
L 364.376675 141.523682 
L 365.149294 141.539778 
L 365.921914 133.008051 
L 366.694533 132.024814 
L 367.467152 131.373133 
L 368.239771 130.022922 
L 369.01239 120.262629 
L 369.785009 122.836753 
L 370.557628 125.962015 
L 371.330247 120.310769 
L 372.102866 128.132067 
L 372.875485 127.73268 
L 373.648105 131.371322 
L 375.193343 130.647724 
L 375.965962 132.99923 
L 376.738581 128.250518 
L 377.5112 119.752679 
L 378.283819 127.949308 
L 379.056438 140.132951 
L 379.829057 133.188742 
L 380.601676 130.062541 
L 381.374296 132.004119 
L 382.146915 138.311822 
L 382.919534 138.790194 
L 383.692153 136.188784 
L 384.464772 143.91914 
L 385.237391 145.080504 
L 386.01001 140.008929 
L 386.782629 141.149357 
L 387.555248 135.926323 
L 388.327867 136.668148 
L 389.100487 135.518446 
L 389.873106 130.608508 
L 390.645725 123.109344 
L 391.418344 113.701376 
L 392.190963 110.846296 
L 392.963582 104.69041 
L 393.736201 112.436856 
L 394.50882 106.793257 
L 395.281439 116.322899 
L 396.054058 119.184715 
L 397.599297 147.6 
L 398.371916 146.033078 
L 399.144535 140.495139 
L 399.917154 132.352784 
L 400.689773 133.311499 
L 401.462392 139.508888 
L 402.235011 134.838645 
L 403.00763 133.066977 
L 403.780249 133.007576 
L 404.552869 131.302086 
L 405.325488 128.38192 
L 405.325488 128.38192 
" clip-path="url(#p7dbb1d3030)" style="fill: none; stroke: #0000ff; stroke-width: 1.5; stroke-linecap: square"/>
   </g>
   <g id="patch_8">
    <path d="M 250.376727 152.64 
L 250.376727 41.76 
" style="fill: none; stroke: #000000; stroke-width: 0.8; stroke-linejoin: miter; stroke-linecap: square"/>
   </g>
   <g id="patch_9">
    <path d="M 412.704 152.64 
L 412.704 41.76 
" style="fill: none; stroke: #000000; stroke-width: 0.8; stroke-linejoin: miter; stroke-linecap: square"/>
   </g>
   <g id="patch_10">
    <path d="M 250.376727 152.64 
L 412.704 152.64 
" style="fill: none; stroke: #000000; stroke-width: 0.8; stroke-linejoin: miter; stroke-linecap: square"/>
   </g>
   <g id="patch_11">
    <path d="M 250.376727 41.76 
L 412.704 41.76 
" style="fill: none; stroke: #000000; stroke-width: 0.8; stroke-linejoin: miter; stroke-linecap: square"/>
   </g>
   <g id="text_19">
    <!-- RNN -->
    <g transform="translate(318.393801 35.76) scale(0.12 -0.12)">
     <defs>
      <path id="DejaVuSans-52" d="M 2841 2188 
Q 3044 2119 3236 1894 
Q 3428 1669 3622 1275 
L 4263 0 
L 3584 0 
L 2988 1197 
Q 2756 1666 2539 1819 
Q 2322 1972 1947 1972 
L 1259 1972 
L 1259 0 
L 628 0 
L 628 4666 
L 2053 4666 
Q 2853 4666 3247 4331 
Q 3641 3997 3641 3322 
Q 3641 2881 3436 2590 
Q 3231 2300 2841 2188 
z
M 1259 4147 
L 1259 2491 
L 2053 2491 
Q 2509 2491 2742 2702 
Q 2975 2913 2975 3322 
Q 2975 3731 2742 3939 
Q 2509 4147 2053 4147 
L 1259 4147 
z
" transform="scale(0.015625)"/>
     </defs>
     <use xlink:href="#DejaVuSans-52"/>
     <use xlink:href="#DejaVuSans-4e" x="69.482422"/>
     <use xlink:href="#DejaVuSans-4e" x="144.287109"/>
    </g>
   </g>
  </g>
  <g id="axes_3">
   <g id="patch_12">
    <path d="M 55.584 307.872 
L 217.911273 307.872 
L 217.911273 196.992 
L 55.584 196.992 
z
" style="fill: #ffffff"/>
   </g>
   <g id="matplotlib.axis_5">
    <g id="xtick_11">
     <g id="line2d_20">
      <g>
       <use xlink:href="#m832f54abf8" x="62.962512" y="307.872" style="stroke: #000000; stroke-width: 0.8"/>
      </g>
     </g>
     <g id="text_20">
      <!-- 0 -->
      <g transform="translate(59.781262 322.470437) scale(0.1 -0.1)">
       <use xlink:href="#DejaVuSans-30"/>
      </g>
     </g>
    </g>
    <g id="xtick_12">
     <g id="line2d_21">
      <g>
       <use xlink:href="#m832f54abf8" x="101.593467" y="307.872" style="stroke: #000000; stroke-width: 0.8"/>
      </g>
     </g>
     <g id="text_21">
      <!-- 50 -->
      <g transform="translate(95.230967 322.470437) scale(0.1 -0.1)">
       <use xlink:href="#DejaVuSans-35"/>
       <use xlink:href="#DejaVuSans-30" x="63.623047"/>
      </g>
     </g>
    </g>
    <g id="xtick_13">
     <g id="line2d_22">
      <g>
       <use xlink:href="#m832f54abf8" x="140.224422" y="307.872" style="stroke: #000000; stroke-width: 0.8"/>
      </g>
     </g>
     <g id="text_22">
      <!-- 100 -->
      <g transform="translate(130.680672 322.470437) scale(0.1 -0.1)">
       <use xlink:href="#DejaVuSans-31"/>
       <use xlink:href="#DejaVuSans-30" x="63.623047"/>
       <use xlink:href="#DejaVuSans-30" x="127.246094"/>
      </g>
     </g>
    </g>
    <g id="xtick_14">
     <g id="line2d_23">
      <g>
       <use xlink:href="#m832f54abf8" x="178.855377" y="307.872" style="stroke: #000000; stroke-width: 0.8"/>
      </g>
     </g>
     <g id="text_23">
      <!-- 150 -->
      <g transform="translate(169.311627 322.470437) scale(0.1 -0.1)">
       <use xlink:href="#DejaVuSans-31"/>
       <use xlink:href="#DejaVuSans-35" x="63.623047"/>
       <use xlink:href="#DejaVuSans-30" x="127.246094"/>
      </g>
     </g>
    </g>
    <g id="xtick_15">
     <g id="line2d_24">
      <g>
       <use xlink:href="#m832f54abf8" x="217.486332" y="307.872" style="stroke: #000000; stroke-width: 0.8"/>
      </g>
     </g>
     <g id="text_24">
      <!-- 200 -->
      <g transform="translate(207.942582 322.470437) scale(0.1 -0.1)">
       <use xlink:href="#DejaVuSans-32"/>
       <use xlink:href="#DejaVuSans-30" x="63.623047"/>
       <use xlink:href="#DejaVuSans-30" x="127.246094"/>
      </g>
     </g>
    </g>
   </g>
   <g id="matplotlib.axis_6">
    <g id="ytick_8">
     <g id="line2d_25">
      <g>
       <use xlink:href="#ma23147b8eb" x="55.584" y="302.832" style="stroke: #000000; stroke-width: 0.8"/>
      </g>
     </g>
     <g id="text_25">
      <!-- 0 -->
      <g transform="translate(42.2215 306.631219) scale(0.1 -0.1)">
       <use xlink:href="#DejaVuSans-30"/>
      </g>
     </g>
    </g>
    <g id="ytick_9">
     <g id="line2d_26">
      <g>
       <use xlink:href="#ma23147b8eb" x="55.584" y="276.152627" style="stroke: #000000; stroke-width: 0.8"/>
      </g>
     </g>
     <g id="text_26">
      <!-- 10 -->
      <g transform="translate(35.859 279.951846) scale(0.1 -0.1)">
       <use xlink:href="#DejaVuSans-31"/>
       <use xlink:href="#DejaVuSans-30" x="63.623047"/>
      </g>
     </g>
    </g>
    <g id="ytick_10">
     <g id="line2d_27">
      <g>
       <use xlink:href="#ma23147b8eb" x="55.584" y="249.473255" style="stroke: #000000; stroke-width: 0.8"/>
      </g>
     </g>
     <g id="text_27">
      <!-- 20 -->
      <g transform="translate(35.859 253.272474) scale(0.1 -0.1)">
       <use xlink:href="#DejaVuSans-32"/>
       <use xlink:href="#DejaVuSans-30" x="63.623047"/>
      </g>
     </g>
    </g>
    <g id="ytick_11">
     <g id="line2d_28">
      <g>
       <use xlink:href="#ma23147b8eb" x="55.584" y="222.793882" style="stroke: #000000; stroke-width: 0.8"/>
      </g>
     </g>
     <g id="text_28">
      <!-- 30 -->
      <g transform="translate(35.859 226.593101) scale(0.1 -0.1)">
       <use xlink:href="#DejaVuSans-33"/>
       <use xlink:href="#DejaVuSans-30" x="63.623047"/>
      </g>
     </g>
    </g>
   </g>
   <g id="line2d_29">
    <path d="M 62.962512 207.514011 
L 63.735131 202.032 
L 64.507751 205.648165 
L 65.28037 211.661549 
L 66.052989 215.977631 
L 66.825608 213.224848 
L 67.598227 206.357444 
L 68.370846 206.17206 
L 69.143465 209.749366 
L 69.916084 211.445758 
L 70.688703 219.503881 
L 71.461322 225.608215 
L 72.233942 270.107231 
L 73.006561 275.912465 
L 73.77918 275.616839 
L 74.551799 289.769056 
L 75.324418 296.995842 
L 76.097037 294.894046 
L 76.869656 296.070705 
L 77.642275 295.302249 
L 78.414894 298.233239 
L 79.187513 294.310302 
L 79.960133 295.428648 
L 80.732752 300.812764 
L 81.505371 259.136497 
L 82.27799 265.937752 
L 83.050609 264.538771 
L 83.823228 257.101474 
L 85.368466 264.59384 
L 86.141085 262.488373 
L 86.913704 255.196111 
L 87.686324 254.02684 
L 88.458943 252.548314 
L 89.231562 254.519768 
L 90.004181 255.797958 
L 90.7768 302.832 
L 93.867276 302.832 
L 94.639895 302.510762 
L 95.412515 302.06698 
L 96.957753 290.497046 
L 97.730372 281.14104 
L 98.502991 283.54613 
L 99.27561 289.50365 
L 100.048229 248.065539 
L 100.820848 246.727232 
L 101.593467 255.226646 
L 102.366086 255.930029 
L 103.138706 259.299572 
L 103.911325 257.428604 
L 104.683944 258.431951 
L 105.456563 255.345974 
L 106.229182 259.784224 
L 107.77442 264.101792 
L 108.547039 261.931732 
L 109.319658 302.832 
L 113.955373 302.832 
L 114.727992 300.538657 
L 115.500611 296.217223 
L 116.27323 293.881655 
L 117.045849 289.658793 
L 117.818468 291.951946 
L 118.591088 267.902002 
L 119.363707 265.218361 
L 120.136326 269.986736 
L 120.908945 277.638885 
L 122.454183 281.280387 
L 123.226802 279.278575 
L 123.999421 275.812281 
L 124.77204 273.304554 
L 125.544659 265.360589 
L 126.317279 263.441422 
L 127.089898 262.192632 
L 127.862517 286.087676 
L 128.635136 283.818884 
L 129.407755 290.993074 
L 130.180374 293.121746 
L 130.952993 291.5326 
L 131.725612 288.647674 
L 132.498231 277.379078 
L 133.27085 280.496736 
L 134.04347 280.296617 
L 134.816089 302.832 
L 135.588708 299.024026 
L 136.361327 300.856905 
L 137.133946 269.15827 
L 137.906565 265.558662 
L 138.679184 266.7772 
L 139.451803 264.43747 
L 140.224422 269.546209 
L 140.997041 273.135185 
L 141.769661 275.80333 
L 142.54228 274.049263 
L 143.314899 276.985101 
L 144.087518 279.249646 
L 144.860137 287.465906 
L 145.632756 282.477199 
L 146.405375 291.782058 
L 147.177994 277.463129 
L 147.950613 282.98391 
L 148.723232 279.134936 
L 149.495851 279.388723 
L 151.04109 291.869606 
L 151.813709 285.846351 
L 152.586328 293.748109 
L 153.358947 298.991897 
L 154.131566 302.832 
L 154.904185 300.484277 
L 155.676804 277.929556 
L 156.449423 277.064659 
L 157.222042 275.842544 
L 157.994662 267.513764 
L 158.767281 264.097155 
L 159.5399 274.197715 
L 160.312519 274.102075 
L 161.085138 266.208833 
L 161.857757 261.330339 
L 162.630376 262.894713 
L 163.402995 265.343554 
L 164.175614 270.860819 
L 164.948233 298.521859 
L 165.720853 302.832 
L 173.447044 302.832 
L 174.219663 275.494629 
L 174.992282 278.068753 
L 175.764901 281.194015 
L 176.53752 275.542769 
L 177.310139 283.364067 
L 178.082758 282.96468 
L 178.855377 286.603322 
L 180.400615 285.879724 
L 181.173235 288.23123 
L 181.945854 283.482518 
L 182.718473 274.984679 
L 183.491092 290.166299 
L 184.263711 289.996047 
L 185.03633 290.20071 
L 185.808949 292.629565 
L 186.581568 283.218019 
L 187.354187 285.71651 
L 188.126806 296.350996 
L 188.899426 298.953857 
L 190.444664 301.161564 
L 191.217283 298.734054 
L 191.989902 298.30073 
L 192.762521 291.158323 
L 193.53514 291.900148 
L 194.307759 290.750446 
L 195.080378 285.840508 
L 195.852997 278.341344 
L 196.625617 268.933376 
L 197.398236 266.078296 
L 198.170855 259.92241 
L 198.943474 267.668856 
L 199.716093 262.025257 
L 200.488712 271.554899 
L 201.261331 274.416715 
L 202.03395 302.832 
L 205.124427 302.832 
L 205.897046 298.269875 
L 206.669665 298.029041 
L 208.214903 294.479838 
L 208.987522 294.695541 
L 209.760141 295.703413 
L 210.53276 294.998013 
L 210.53276 294.998013 
" clip-path="url(#p96bd2142cd)" style="fill: none; stroke: #ffa500; stroke-width: 1.5; stroke-linecap: square"/>
   </g>
   <g id="patch_13">
    <path d="M 55.584 307.872 
L 55.584 196.992 
" style="fill: none; stroke: #000000; stroke-width: 0.8; stroke-linejoin: miter; stroke-linecap: square"/>
   </g>
   <g id="patch_14">
    <path d="M 217.911273 307.872 
L 217.911273 196.992 
" style="fill: none; stroke: #000000; stroke-width: 0.8; stroke-linejoin: miter; stroke-linecap: square"/>
   </g>
   <g id="patch_15">
    <path d="M 55.584 307.872 
L 217.911273 307.872 
" style="fill: none; stroke: #000000; stroke-width: 0.8; stroke-linejoin: miter; stroke-linecap: square"/>
   </g>
   <g id="patch_16">
    <path d="M 55.584 196.992 
L 217.911273 196.992 
" style="fill: none; stroke: #000000; stroke-width: 0.8; stroke-linejoin: miter; stroke-linecap: square"/>
   </g>
   <g id="text_29">
    <!-- VAE -->
    <g transform="translate(125.130136 190.992) scale(0.12 -0.12)">
     <defs>
      <path id="DejaVuSans-56" d="M 1831 0 
L 50 4666 
L 709 4666 
L 2188 738 
L 3669 4666 
L 4325 4666 
L 2547 0 
L 1831 0 
z
" transform="scale(0.015625)"/>
      <path id="DejaVuSans-41" d="M 2188 4044 
L 1331 1722 
L 3047 1722 
L 2188 4044 
z
M 1831 4666 
L 2547 4666 
L 4325 0 
L 3669 0 
L 3244 1197 
L 1141 1197 
L 716 0 
L 50 0 
L 1831 4666 
z
" transform="scale(0.015625)"/>
      <path id="DejaVuSans-45" d="M 628 4666 
L 3578 4666 
L 3578 4134 
L 1259 4134 
L 1259 2753 
L 3481 2753 
L 3481 2222 
L 1259 2222 
L 1259 531 
L 3634 531 
L 3634 0 
L 628 0 
L 628 4666 
z
" transform="scale(0.015625)"/>
     </defs>
     <use xlink:href="#DejaVuSans-56"/>
     <use xlink:href="#DejaVuSans-41" x="62.033203"/>
     <use xlink:href="#DejaVuSans-45" x="130.441406"/>
    </g>
   </g>
  </g>
  <g id="axes_4">
   <g id="patch_17">
    <path d="M 250.376727 307.872 
L 412.704 307.872 
L 412.704 196.992 
L 250.376727 196.992 
z
" style="fill: #ffffff"/>
   </g>
   <g id="matplotlib.axis_7">
    <g id="xtick_16">
     <g id="line2d_30">
      <g>
       <use xlink:href="#m832f54abf8" x="257.75524" y="307.872" style="stroke: #000000; stroke-width: 0.8"/>
      </g>
     </g>
     <g id="text_30">
      <!-- 0 -->
      <g transform="translate(254.57399 322.470437) scale(0.1 -0.1)">
       <use xlink:href="#DejaVuSans-30"/>
      </g>
     </g>
    </g>
    <g id="xtick_17">
     <g id="line2d_31">
      <g>
       <use xlink:href="#m832f54abf8" x="296.386195" y="307.872" style="stroke: #000000; stroke-width: 0.8"/>
      </g>
     </g>
     <g id="text_31">
      <!-- 50 -->
      <g transform="translate(290.023695 322.470437) scale(0.1 -0.1)">
       <use xlink:href="#DejaVuSans-35"/>
       <use xlink:href="#DejaVuSans-30" x="63.623047"/>
      </g>
     </g>
    </g>
    <g id="xtick_18">
     <g id="line2d_32">
      <g>
       <use xlink:href="#m832f54abf8" x="335.01715" y="307.872" style="stroke: #000000; stroke-width: 0.8"/>
      </g>
     </g>
     <g id="text_32">
      <!-- 100 -->
      <g transform="translate(325.4734 322.470437) scale(0.1 -0.1)">
       <use xlink:href="#DejaVuSans-31"/>
       <use xlink:href="#DejaVuSans-30" x="63.623047"/>
       <use xlink:href="#DejaVuSans-30" x="127.246094"/>
      </g>
     </g>
    </g>
    <g id="xtick_19">
     <g id="line2d_33">
      <g>
       <use xlink:href="#m832f54abf8" x="373.648105" y="307.872" style="stroke: #000000; stroke-width: 0.8"/>
      </g>
     </g>
     <g id="text_33">
      <!-- 150 -->
      <g transform="translate(364.104355 322.470437) scale(0.1 -0.1)">
       <use xlink:href="#DejaVuSans-31"/>
       <use xlink:href="#DejaVuSans-35" x="63.623047"/>
       <use xlink:href="#DejaVuSans-30" x="127.246094"/>
      </g>
     </g>
    </g>
    <g id="xtick_20">
     <g id="line2d_34">
      <g>
       <use xlink:href="#m832f54abf8" x="412.279059" y="307.872" style="stroke: #000000; stroke-width: 0.8"/>
      </g>
     </g>
     <g id="text_34">
      <!-- 200 -->
      <g transform="translate(402.735309 322.470437) scale(0.1 -0.1)">
       <use xlink:href="#DejaVuSans-32"/>
       <use xlink:href="#DejaVuSans-30" x="63.623047"/>
       <use xlink:href="#DejaVuSans-30" x="127.246094"/>
      </g>
     </g>
    </g>
   </g>
   <g id="matplotlib.axis_8">
    <g id="ytick_12">
     <g id="line2d_35">
      <g>
       <use xlink:href="#ma23147b8eb" x="250.376727" y="302.832" style="stroke: #000000; stroke-width: 0.8"/>
      </g>
     </g>
     <g id="text_35">
      <!-- 0 -->
      <g transform="translate(237.014227 306.631219) scale(0.1 -0.1)">
       <use xlink:href="#DejaVuSans-30"/>
      </g>
     </g>
    </g>
    <g id="ytick_13">
     <g id="line2d_36">
      <g>
       <use xlink:href="#ma23147b8eb" x="250.376727" y="276.165549" style="stroke: #000000; stroke-width: 0.8"/>
      </g>
     </g>
     <g id="text_36">
      <!-- 10 -->
      <g transform="translate(230.651727 279.964768) scale(0.1 -0.1)">
       <use xlink:href="#DejaVuSans-31"/>
       <use xlink:href="#DejaVuSans-30" x="63.623047"/>
      </g>
     </g>
    </g>
    <g id="ytick_14">
     <g id="line2d_37">
      <g>
       <use xlink:href="#ma23147b8eb" x="250.376727" y="249.499098" style="stroke: #000000; stroke-width: 0.8"/>
      </g>
     </g>
     <g id="text_37">
      <!-- 20 -->
      <g transform="translate(230.651727 253.298317) scale(0.1 -0.1)">
       <use xlink:href="#DejaVuSans-32"/>
       <use xlink:href="#DejaVuSans-30" x="63.623047"/>
      </g>
     </g>
    </g>
    <g id="ytick_15">
     <g id="line2d_38">
      <g>
       <use xlink:href="#ma23147b8eb" x="250.376727" y="222.832648" style="stroke: #000000; stroke-width: 0.8"/>
      </g>
     </g>
     <g id="text_38">
      <!-- 30 -->
      <g transform="translate(230.651727 226.631866) scale(0.1 -0.1)">
       <use xlink:href="#DejaVuSans-33"/>
       <use xlink:href="#DejaVuSans-30" x="63.623047"/>
      </g>
     </g>
    </g>
   </g>
   <g id="line2d_39">
    <path d="M 257.75524 207.553347 
L 258.527859 202.032 
L 259.300478 205.690354 
L 260.073097 211.678546 
L 260.845716 216.020308 
L 261.618335 213.252067 
L 262.390954 206.406186 
L 263.163573 206.176694 
L 263.936192 209.790207 
L 264.708812 211.491718 
L 265.481431 219.535144 
L 266.25405 225.646313 
L 267.026669 225.919927 
L 267.799288 240.600562 
L 268.571907 273.254189 
L 269.344526 263.423748 
L 270.117145 240.475403 
L 270.889764 249.202175 
L 271.662383 261.86591 
L 272.435003 248.440504 
L 273.207622 255.702147 
L 273.980241 250.851831 
L 274.75286 272.95017 
L 275.525479 252.291102 
L 277.070717 265.923304 
L 277.843336 264.339829 
L 278.615955 257.130786 
L 280.161194 264.63056 
L 280.933813 262.507601 
L 281.706432 255.211825 
L 282.479051 254.057928 
L 283.25167 252.57485 
L 284.024289 254.540748 
L 284.796908 255.827594 
L 285.569527 261.058725 
L 286.342146 259.952832 
L 287.887385 279.700867 
L 288.660004 268.011274 
L 289.432623 274.414126 
L 290.205242 268.116297 
L 290.977861 274.232738 
L 291.75048 262.356141 
L 292.523099 257.259609 
L 293.295718 259.626432 
L 294.068337 256.321961 
L 294.840956 247.815299 
L 295.613576 246.753481 
L 296.386195 255.237036 
L 297.158814 255.953313 
L 297.931433 259.304446 
L 298.704052 257.457266 
L 299.476671 258.456535 
L 300.24929 255.379456 
L 301.021909 259.991069 
L 301.794528 261.905571 
L 302.567147 264.117905 
L 303.339767 261.954672 
L 304.112386 270.052783 
L 304.885005 270.62793 
L 305.657624 281.888162 
L 306.430243 276.484637 
L 307.202862 268.36229 
L 307.975481 265.308354 
L 308.7481 251.690294 
L 309.520719 258.462655 
L 310.293338 257.322808 
L 311.065958 253.090096 
L 311.838577 266.503379 
L 312.611196 265.73869 
L 313.383815 267.909256 
L 314.156434 265.237998 
L 314.929053 269.993055 
L 315.701672 277.644927 
L 317.24691 281.275441 
L 318.019529 279.283711 
L 318.792149 275.790584 
L 319.564768 273.320447 
L 320.337387 265.372906 
L 321.110006 263.461487 
L 321.882625 262.227083 
L 322.655244 264.923822 
L 323.427863 269.506219 
L 324.200482 278.007556 
L 324.973101 269.944288 
L 325.74572 266.62152 
L 326.518339 251.332364 
L 327.290959 261.466202 
L 328.063578 274.790798 
L 328.836197 265.190449 
L 329.608816 267.824747 
L 330.381435 269.161947 
L 331.154054 271.679666 
L 331.926673 269.064279 
L 332.699292 265.58096 
L 333.471911 267.951186 
L 334.24453 264.474319 
L 335.01715 269.564683 
L 335.789769 273.13803 
L 336.562388 275.814984 
L 337.335007 274.047756 
L 338.107626 276.997012 
L 338.880245 279.281636 
L 339.652864 287.476919 
L 341.198102 276.806747 
L 341.970721 257.336403 
L 342.743341 270.697921 
L 343.51596 261.073063 
L 344.288579 279.795114 
L 345.061198 262.154455 
L 345.833817 270.117841 
L 346.606436 279.894636 
L 347.379055 282.176359 
L 348.151674 282.669609 
L 348.924293 275.056532 
L 349.696912 264.931045 
L 350.469532 277.936914 
L 351.242151 277.015601 
L 352.01477 275.834629 
L 352.787389 267.546747 
L 353.560008 264.130988 
L 354.332627 274.205754 
L 355.105246 274.11264 
L 355.877865 266.221531 
L 356.650484 261.346144 
L 357.423103 262.908689 
L 358.195723 265.362501 
L 359.740961 275.897674 
L 360.51358 269.066063 
L 361.286199 279.55085 
L 362.058818 292.724063 
L 362.831437 282.336529 
L 363.604056 283.01132 
L 364.376675 284.503242 
L 365.149294 281.008281 
L 366.694533 285.769191 
L 367.467152 289.69153 
L 368.239771 285.617283 
L 369.01239 275.506605 
L 369.785009 278.083979 
L 370.557628 281.20597 
L 371.330247 275.551485 
L 372.102866 283.382864 
L 372.875485 282.969523 
L 373.648105 286.612787 
L 374.420724 286.301539 
L 375.193343 285.837658 
L 375.965962 288.245139 
L 376.738581 283.531482 
L 377.5112 274.987567 
L 378.283819 287.482359 
L 379.056438 272.12899 
L 379.829057 273.270663 
L 380.601676 272.926103 
L 381.374296 273.37142 
L 382.146915 280.834663 
L 382.919534 271.470198 
L 383.692153 274.940642 
L 384.464772 295.046666 
L 385.237391 288.682877 
L 386.01001 294.143294 
L 386.782629 302.832 
L 387.555248 291.164212 
L 388.327867 292.133503 
L 389.100487 290.75602 
L 389.873106 285.894686 
L 390.645725 278.348193 
L 391.418344 268.966087 
L 392.190963 266.106273 
L 392.963582 260.157367 
L 393.736201 267.667519 
L 394.50882 262.040584 
L 395.281439 271.569805 
L 396.054058 274.464859 
L 396.826678 281.469749 
L 397.599297 294.825889 
L 398.371916 289.605451 
L 399.144535 285.688163 
L 399.917154 285.46917 
L 400.689773 289.911027 
L 401.462392 298.24229 
L 402.235011 291.570288 
L 403.00763 292.754042 
L 403.780249 289.166425 
L 404.552869 278.442216 
L 405.325488 287.184591 
L 405.325488 287.184591 
" clip-path="url(#pe5380357b2)" style="fill: none; stroke: #ff0000; stroke-width: 1.5; stroke-linecap: square"/>
   </g>
   <g id="patch_18">
    <path d="M 250.376727 307.872 
L 250.376727 196.992 
" style="fill: none; stroke: #000000; stroke-width: 0.8; stroke-linejoin: miter; stroke-linecap: square"/>
   </g>
   <g id="patch_19">
    <path d="M 412.704 307.872 
L 412.704 196.992 
" style="fill: none; stroke: #000000; stroke-width: 0.8; stroke-linejoin: miter; stroke-linecap: square"/>
   </g>
   <g id="patch_20">
    <path d="M 250.376727 307.872 
L 412.704 307.872 
" style="fill: none; stroke: #000000; stroke-width: 0.8; stroke-linejoin: miter; stroke-linecap: square"/>
   </g>
   <g id="patch_21">
    <path d="M 250.376727 196.992 
L 412.704 196.992 
" style="fill: none; stroke: #000000; stroke-width: 0.8; stroke-linejoin: miter; stroke-linecap: square"/>
   </g>
   <g id="text_39">
    <!-- VRNN -->
    <g transform="translate(314.289426 190.992) scale(0.12 -0.12)">
     <use xlink:href="#DejaVuSans-56"/>
     <use xlink:href="#DejaVuSans-52" x="68.408203"/>
     <use xlink:href="#DejaVuSans-4e" x="137.890625"/>
     <use xlink:href="#DejaVuSans-4e" x="212.695312"/>
    </g>
   </g>
  </g>
  <g id="text_40">
   <!-- VMAF Scores Over Frames: Video #26 -->
   <g transform="translate(114.338063 16.318125) scale(0.12 -0.12)">
    <defs>
     <path id="DejaVuSans-4d" d="M 628 4666 
L 1569 4666 
L 2759 1491 
L 3956 4666 
L 4897 4666 
L 4897 0 
L 4281 0 
L 4281 4097 
L 3078 897 
L 2444 897 
L 1241 4097 
L 1241 0 
L 628 0 
L 628 4666 
z
" transform="scale(0.015625)"/>
     <path id="DejaVuSans-73" d="M 2834 3397 
L 2834 2853 
Q 2591 2978 2328 3040 
Q 2066 3103 1784 3103 
Q 1356 3103 1142 2972 
Q 928 2841 928 2578 
Q 928 2378 1081 2264 
Q 1234 2150 1697 2047 
L 1894 2003 
Q 2506 1872 2764 1633 
Q 3022 1394 3022 966 
Q 3022 478 2636 193 
Q 2250 -91 1575 -91 
Q 1294 -91 989 -36 
Q 684 19 347 128 
L 347 722 
Q 666 556 975 473 
Q 1284 391 1588 391 
Q 1994 391 2212 530 
Q 2431 669 2431 922 
Q 2431 1156 2273 1281 
Q 2116 1406 1581 1522 
L 1381 1569 
Q 847 1681 609 1914 
Q 372 2147 372 2553 
Q 372 3047 722 3315 
Q 1072 3584 1716 3584 
Q 2034 3584 2315 3537 
Q 2597 3491 2834 3397 
z
" transform="scale(0.015625)"/>
     <path id="DejaVuSans-76" d="M 191 3500 
L 800 3500 
L 1894 563 
L 2988 3500 
L 3597 3500 
L 2284 0 
L 1503 0 
L 191 3500 
z
" transform="scale(0.015625)"/>
     <path id="DejaVuSans-61" d="M 2194 1759 
Q 1497 1759 1228 1600 
Q 959 1441 959 1056 
Q 959 750 1161 570 
Q 1363 391 1709 391 
Q 2188 391 2477 730 
Q 2766 1069 2766 1631 
L 2766 1759 
L 2194 1759 
z
M 3341 1997 
L 3341 0 
L 2766 0 
L 2766 531 
Q 2569 213 2275 61 
Q 1981 -91 1556 -91 
Q 1019 -91 701 211 
Q 384 513 384 1019 
Q 384 1609 779 1909 
Q 1175 2209 1959 2209 
L 2766 2209 
L 2766 2266 
Q 2766 2663 2505 2880 
Q 2244 3097 1772 3097 
Q 1472 3097 1187 3025 
Q 903 2953 641 2809 
L 641 3341 
Q 956 3463 1253 3523 
Q 1550 3584 1831 3584 
Q 2591 3584 2966 3190 
Q 3341 2797 3341 1997 
z
" transform="scale(0.015625)"/>
     <path id="DejaVuSans-6d" d="M 3328 2828 
Q 3544 3216 3844 3400 
Q 4144 3584 4550 3584 
Q 5097 3584 5394 3201 
Q 5691 2819 5691 2113 
L 5691 0 
L 5113 0 
L 5113 2094 
Q 5113 2597 4934 2840 
Q 4756 3084 4391 3084 
Q 3944 3084 3684 2787 
Q 3425 2491 3425 1978 
L 3425 0 
L 2847 0 
L 2847 2094 
Q 2847 2600 2669 2842 
Q 2491 3084 2119 3084 
Q 1678 3084 1418 2786 
Q 1159 2488 1159 1978 
L 1159 0 
L 581 0 
L 581 3500 
L 1159 3500 
L 1159 2956 
Q 1356 3278 1631 3431 
Q 1906 3584 2284 3584 
Q 2666 3584 2933 3390 
Q 3200 3197 3328 2828 
z
" transform="scale(0.015625)"/>
     <path id="DejaVuSans-3a" d="M 750 794 
L 1409 794 
L 1409 0 
L 750 0 
L 750 794 
z
M 750 3309 
L 1409 3309 
L 1409 2516 
L 750 2516 
L 750 3309 
z
" transform="scale(0.015625)"/>
     <path id="DejaVuSans-23" d="M 3272 2816 
L 2363 2816 
L 2100 1772 
L 3016 1772 
L 3272 2816 
z
M 2803 4594 
L 2478 3297 
L 3391 3297 
L 3719 4594 
L 4219 4594 
L 3897 3297 
L 4872 3297 
L 4872 2816 
L 3775 2816 
L 3519 1772 
L 4513 1772 
L 4513 1294 
L 3397 1294 
L 3072 0 
L 2572 0 
L 2894 1294 
L 1978 1294 
L 1656 0 
L 1153 0 
L 1478 1294 
L 494 1294 
L 494 1772 
L 1594 1772 
L 1856 2816 
L 850 2816 
L 850 3297 
L 1978 3297 
L 2297 4594 
L 2803 4594 
z
" transform="scale(0.015625)"/>
     <path id="DejaVuSans-36" d="M 2113 2584 
Q 1688 2584 1439 2293 
Q 1191 2003 1191 1497 
Q 1191 994 1439 701 
Q 1688 409 2113 409 
Q 2538 409 2786 701 
Q 3034 994 3034 1497 
Q 3034 2003 2786 2293 
Q 2538 2584 2113 2584 
z
M 3366 4563 
L 3366 3988 
Q 3128 4100 2886 4159 
Q 2644 4219 2406 4219 
Q 1781 4219 1451 3797 
Q 1122 3375 1075 2522 
Q 1259 2794 1537 2939 
Q 1816 3084 2150 3084 
Q 2853 3084 3261 2657 
Q 3669 2231 3669 1497 
Q 3669 778 3244 343 
Q 2819 -91 2113 -91 
Q 1303 -91 875 529 
Q 447 1150 447 2328 
Q 447 3434 972 4092 
Q 1497 4750 2381 4750 
Q 2619 4750 2861 4703 
Q 3103 4656 3366 4563 
z
" transform="scale(0.015625)"/>
    </defs>
    <use xlink:href="#DejaVuSans-56"/>
    <use xlink:href="#DejaVuSans-4d" x="68.408203"/>
    <use xlink:href="#DejaVuSans-41" x="154.6875"/>
    <use xlink:href="#DejaVuSans-46" x="223.095703"/>
    <use xlink:href="#DejaVuSans-20" x="280.615234"/>
    <use xlink:href="#DejaVuSans-53" x="312.402344"/>
    <use xlink:href="#DejaVuSans-63" x="375.878906"/>
    <use xlink:href="#DejaVuSans-6f" x="430.859375"/>
    <use xlink:href="#DejaVuSans-72" x="492.041016"/>
    <use xlink:href="#DejaVuSans-65" x="530.904297"/>
    <use xlink:href="#DejaVuSans-73" x="592.427734"/>
    <use xlink:href="#DejaVuSans-20" x="644.527344"/>
    <use xlink:href="#DejaVuSans-4f" x="676.314453"/>
    <use xlink:href="#DejaVuSans-76" x="755.025391"/>
    <use xlink:href="#DejaVuSans-65" x="814.205078"/>
    <use xlink:href="#DejaVuSans-72" x="875.728516"/>
    <use xlink:href="#DejaVuSans-20" x="916.841797"/>
    <use xlink:href="#DejaVuSans-46" x="948.628906"/>
    <use xlink:href="#DejaVuSans-72" x="998.898438"/>
    <use xlink:href="#DejaVuSans-61" x="1040.011719"/>
    <use xlink:href="#DejaVuSans-6d" x="1101.291016"/>
    <use xlink:href="#DejaVuSans-65" x="1198.703125"/>
    <use xlink:href="#DejaVuSans-73" x="1260.226562"/>
    <use xlink:href="#DejaVuSans-3a" x="1312.326172"/>
    <use xlink:href="#DejaVuSans-20" x="1346.017578"/>
    <use xlink:href="#DejaVuSans-56" x="1377.804688"/>
    <use xlink:href="#DejaVuSans-69" x="1443.962891"/>
    <use xlink:href="#DejaVuSans-64" x="1471.746094"/>
    <use xlink:href="#DejaVuSans-65" x="1535.222656"/>
    <use xlink:href="#DejaVuSans-6f" x="1596.746094"/>
    <use xlink:href="#DejaVuSans-20" x="1657.927734"/>
    <use xlink:href="#DejaVuSans-23" x="1689.714844"/>
    <use xlink:href="#DejaVuSans-32" x="1773.503906"/>
    <use xlink:href="#DejaVuSans-36" x="1837.126953"/>
   </g>
  </g>
  <g id="text_41">
   <!-- Video Frames -->
   <g transform="translate(187.847438 339.936375) scale(0.12 -0.12)">
    <use xlink:href="#DejaVuSans-56"/>
    <use xlink:href="#DejaVuSans-69" x="66.158203"/>
    <use xlink:href="#DejaVuSans-64" x="93.941406"/>
    <use xlink:href="#DejaVuSans-65" x="157.417969"/>
    <use xlink:href="#DejaVuSans-6f" x="218.941406"/>
    <use xlink:href="#DejaVuSans-20" x="280.123047"/>
    <use xlink:href="#DejaVuSans-46" x="311.910156"/>
    <use xlink:href="#DejaVuSans-72" x="362.179688"/>
    <use xlink:href="#DejaVuSans-61" x="403.292969"/>
    <use xlink:href="#DejaVuSans-6d" x="464.572266"/>
    <use xlink:href="#DejaVuSans-65" x="561.984375"/>
    <use xlink:href="#DejaVuSans-73" x="623.507812"/>
   </g>
  </g>
  <g id="text_42">
   <!-- Raw VMAF Scores -->
   <g transform="translate(16.318125 226.284562) rotate(-90) scale(0.12 -0.12)">
    <defs>
     <path id="DejaVuSans-77" d="M 269 3500 
L 844 3500 
L 1563 769 
L 2278 3500 
L 2956 3500 
L 3675 769 
L 4391 3500 
L 4966 3500 
L 4050 0 
L 3372 0 
L 2619 2869 
L 1863 0 
L 1184 0 
L 269 3500 
z
" transform="scale(0.015625)"/>
    </defs>
    <use xlink:href="#DejaVuSans-52"/>
    <use xlink:href="#DejaVuSans-61" x="67.232422"/>
    <use xlink:href="#DejaVuSans-77" x="128.511719"/>
    <use xlink:href="#DejaVuSans-20" x="210.298828"/>
    <use xlink:href="#DejaVuSans-56" x="242.085938"/>
    <use xlink:href="#DejaVuSans-4d" x="310.494141"/>
    <use xlink:href="#DejaVuSans-41" x="396.773438"/>
    <use xlink:href="#DejaVuSans-46" x="465.181641"/>
    <use xlink:href="#DejaVuSans-20" x="522.701172"/>
    <use xlink:href="#DejaVuSans-53" x="554.488281"/>
    <use xlink:href="#DejaVuSans-63" x="617.964844"/>
    <use xlink:href="#DejaVuSans-6f" x="672.945312"/>
    <use xlink:href="#DejaVuSans-72" x="734.126953"/>
    <use xlink:href="#DejaVuSans-65" x="772.990234"/>
    <use xlink:href="#DejaVuSans-73" x="834.513672"/>
   </g>
  </g>
 </g>
 <defs>
  <clipPath id="pe011fa4acb">
   <rect x="55.584" y="41.76" width="162.327273" height="110.88"/>
  </clipPath>
  <clipPath id="p7dbb1d3030">
   <rect x="250.376727" y="41.76" width="162.327273" height="110.88"/>
  </clipPath>
  <clipPath id="p96bd2142cd">
   <rect x="55.584" y="196.992" width="162.327273" height="110.88"/>
  </clipPath>
  <clipPath id="pe5380357b2">
   <rect x="250.376727" y="196.992" width="162.327273" height="110.88"/>
  </clipPath>
 </defs>
</svg>
