<?xml version="1.0" encoding="utf-8" standalone="no"?>
<!DOCTYPE svg PUBLIC "-//W3C//DTD SVG 1.1//EN"
  "http://www.w3.org/Graphics/SVG/1.1/DTD/svg11.dtd">
<svg xmlns:xlink="http://www.w3.org/1999/xlink" width="419.904pt" height="349.632pt" viewBox="0 0 419.904 349.632" xmlns="http://www.w3.org/2000/svg" version="1.1">
 <metadata>
  <rdf:RDF xmlns:dc="http://purl.org/dc/elements/1.1/" xmlns:cc="http://creativecommons.org/ns#" xmlns:rdf="http://www.w3.org/1999/02/22-rdf-syntax-ns#">
   <cc:Work>
    <dc:type rdf:resource="http://purl.org/dc/dcmitype/StillImage"/>
    <dc:date>2024-07-24T16:31:52.579395</dc:date>
    <dc:format>image/svg+xml</dc:format>
    <dc:creator>
     <cc:Agent>
      <dc:title>Matplotlib v3.7.2, https://matplotlib.org/</dc:title>
     </cc:Agent>
    </dc:creator>
   </cc:Work>
  </rdf:RDF>
 </metadata>
 <defs>
  <style type="text/css">*{stroke-linejoin: round; stroke-linecap: butt}</style>
 </defs>
 <g id="figure_1">
  <g id="patch_1">
   <path d="M 0 349.632 
L 419.904 349.632 
L 419.904 -0 
L 0 -0 
z
" style="fill: #ffffff"/>
  </g>
  <g id="axes_1">
   <g id="patch_2">
    <path d="M 55.584 152.64 
L 217.911273 152.64 
L 217.911273 41.76 
L 55.584 41.76 
z
" style="fill: #ffffff"/>
   </g>
   <g id="matplotlib.axis_1">
    <g id="xtick_1">
     <g id="line2d_1">
      <defs>
       <path id="mf2f0073ac2" d="M 0 0 
L 0 3.5 
" style="stroke: #000000; stroke-width: 0.8"/>
      </defs>
      <g>
       <use xlink:href="#mf2f0073ac2" x="62.962512" y="152.64" style="stroke: #000000; stroke-width: 0.8"/>
      </g>
     </g>
     <g id="text_1">
      <!-- 0 -->
      <g transform="translate(59.781262 167.238437) scale(0.1 -0.1)">
       <defs>
        <path id="DejaVuSans-30" d="M 2034 4250 
Q 1547 4250 1301 3770 
Q 1056 3291 1056 2328 
Q 1056 1369 1301 889 
Q 1547 409 2034 409 
Q 2525 409 2770 889 
Q 3016 1369 3016 2328 
Q 3016 3291 2770 3770 
Q 2525 4250 2034 4250 
z
M 2034 4750 
Q 2819 4750 3233 4129 
Q 3647 3509 3647 2328 
Q 3647 1150 3233 529 
Q 2819 -91 2034 -91 
Q 1250 -91 836 529 
Q 422 1150 422 2328 
Q 422 3509 836 4129 
Q 1250 4750 2034 4750 
z
" transform="scale(0.015625)"/>
       </defs>
       <use xlink:href="#DejaVuSans-30"/>
      </g>
     </g>
    </g>
    <g id="xtick_2">
     <g id="line2d_2">
      <g>
       <use xlink:href="#mf2f0073ac2" x="99.220559" y="152.64" style="stroke: #000000; stroke-width: 0.8"/>
      </g>
     </g>
     <g id="text_2">
      <!-- 100 -->
      <g transform="translate(89.676809 167.238437) scale(0.1 -0.1)">
       <defs>
        <path id="DejaVuSans-31" d="M 794 531 
L 1825 531 
L 1825 4091 
L 703 3866 
L 703 4441 
L 1819 4666 
L 2450 4666 
L 2450 531 
L 3481 531 
L 3481 0 
L 794 0 
L 794 531 
z
" transform="scale(0.015625)"/>
       </defs>
       <use xlink:href="#DejaVuSans-31"/>
       <use xlink:href="#DejaVuSans-30" x="63.623047"/>
       <use xlink:href="#DejaVuSans-30" x="127.246094"/>
      </g>
     </g>
    </g>
    <g id="xtick_3">
     <g id="line2d_3">
      <g>
       <use xlink:href="#mf2f0073ac2" x="135.478605" y="152.64" style="stroke: #000000; stroke-width: 0.8"/>
      </g>
     </g>
     <g id="text_3">
      <!-- 200 -->
      <g transform="translate(125.934855 167.238437) scale(0.1 -0.1)">
       <defs>
        <path id="DejaVuSans-32" d="M 1228 531 
L 3431 531 
L 3431 0 
L 469 0 
L 469 531 
Q 828 903 1448 1529 
Q 2069 2156 2228 2338 
Q 2531 2678 2651 2914 
Q 2772 3150 2772 3378 
Q 2772 3750 2511 3984 
Q 2250 4219 1831 4219 
Q 1534 4219 1204 4116 
Q 875 4013 500 3803 
L 500 4441 
Q 881 4594 1212 4672 
Q 1544 4750 1819 4750 
Q 2544 4750 2975 4387 
Q 3406 4025 3406 3419 
Q 3406 3131 3298 2873 
Q 3191 2616 2906 2266 
Q 2828 2175 2409 1742 
Q 1991 1309 1228 531 
z
" transform="scale(0.015625)"/>
       </defs>
       <use xlink:href="#DejaVuSans-32"/>
       <use xlink:href="#DejaVuSans-30" x="63.623047"/>
       <use xlink:href="#DejaVuSans-30" x="127.246094"/>
      </g>
     </g>
    </g>
    <g id="xtick_4">
     <g id="line2d_4">
      <g>
       <use xlink:href="#mf2f0073ac2" x="171.736651" y="152.64" style="stroke: #000000; stroke-width: 0.8"/>
      </g>
     </g>
     <g id="text_4">
      <!-- 300 -->
      <g transform="translate(162.192901 167.238437) scale(0.1 -0.1)">
       <defs>
        <path id="DejaVuSans-33" d="M 2597 2516 
Q 3050 2419 3304 2112 
Q 3559 1806 3559 1356 
Q 3559 666 3084 287 
Q 2609 -91 1734 -91 
Q 1441 -91 1130 -33 
Q 819 25 488 141 
L 488 750 
Q 750 597 1062 519 
Q 1375 441 1716 441 
Q 2309 441 2620 675 
Q 2931 909 2931 1356 
Q 2931 1769 2642 2001 
Q 2353 2234 1838 2234 
L 1294 2234 
L 1294 2753 
L 1863 2753 
Q 2328 2753 2575 2939 
Q 2822 3125 2822 3475 
Q 2822 3834 2567 4026 
Q 2313 4219 1838 4219 
Q 1578 4219 1281 4162 
Q 984 4106 628 3988 
L 628 4550 
Q 988 4650 1302 4700 
Q 1616 4750 1894 4750 
Q 2613 4750 3031 4423 
Q 3450 4097 3450 3541 
Q 3450 3153 3228 2886 
Q 3006 2619 2597 2516 
z
" transform="scale(0.015625)"/>
       </defs>
       <use xlink:href="#DejaVuSans-33"/>
       <use xlink:href="#DejaVuSans-30" x="63.623047"/>
       <use xlink:href="#DejaVuSans-30" x="127.246094"/>
      </g>
     </g>
    </g>
    <g id="xtick_5">
     <g id="line2d_5">
      <g>
       <use xlink:href="#mf2f0073ac2" x="207.994697" y="152.64" style="stroke: #000000; stroke-width: 0.8"/>
      </g>
     </g>
     <g id="text_5">
      <!-- 400 -->
      <g transform="translate(198.450947 167.238437) scale(0.1 -0.1)">
       <defs>
        <path id="DejaVuSans-34" d="M 2419 4116 
L 825 1625 
L 2419 1625 
L 2419 4116 
z
M 2253 4666 
L 3047 4666 
L 3047 1625 
L 3713 1625 
L 3713 1100 
L 3047 1100 
L 3047 0 
L 2419 0 
L 2419 1100 
L 313 1100 
L 313 1709 
L 2253 4666 
z
" transform="scale(0.015625)"/>
       </defs>
       <use xlink:href="#DejaVuSans-34"/>
       <use xlink:href="#DejaVuSans-30" x="63.623047"/>
       <use xlink:href="#DejaVuSans-30" x="127.246094"/>
      </g>
     </g>
    </g>
   </g>
   <g id="matplotlib.axis_2">
    <g id="ytick_1">
     <g id="line2d_6">
      <defs>
       <path id="m7764474121" d="M 0 0 
L -3.5 0 
" style="stroke: #000000; stroke-width: 0.8"/>
      </defs>
      <g>
       <use xlink:href="#m7764474121" x="55.584" y="111.029749" style="stroke: #000000; stroke-width: 0.8"/>
      </g>
     </g>
     <g id="text_6">
      <!-- 20 -->
      <g transform="translate(35.859 114.828968) scale(0.1 -0.1)">
       <use xlink:href="#DejaVuSans-32"/>
       <use xlink:href="#DejaVuSans-30" x="63.623047"/>
      </g>
     </g>
    </g>
    <g id="ytick_2">
     <g id="line2d_7">
      <g>
       <use xlink:href="#m7764474121" x="55.584" y="67.030024" style="stroke: #000000; stroke-width: 0.8"/>
      </g>
     </g>
     <g id="text_7">
      <!-- 40 -->
      <g transform="translate(35.859 70.829243) scale(0.1 -0.1)">
       <use xlink:href="#DejaVuSans-34"/>
       <use xlink:href="#DejaVuSans-30" x="63.623047"/>
      </g>
     </g>
    </g>
   </g>
   <g id="line2d_8">
    <path d="M 62.962512 46.8 
L 63.325093 71.247396 
L 63.687673 83.886051 
L 64.050254 81.909473 
L 64.412834 94.075025 
L 64.775415 96.181497 
L 65.137995 91.929656 
L 65.863156 106.297733 
L 66.225737 106.28294 
L 66.588317 106.709661 
L 66.950897 98.853917 
L 67.313478 102.489436 
L 67.676058 90.264411 
L 68.038639 92.663692 
L 68.401219 93.383715 
L 68.7638 103.759978 
L 69.12638 92.619043 
L 69.488961 104.863137 
L 69.851541 93.327976 
L 70.214122 106.41776 
L 70.576702 93.935535 
L 70.939283 91.764952 
L 71.301863 105.630306 
L 71.664443 104.514664 
L 72.027024 94.131261 
L 72.389604 95.684735 
L 73.114765 115.589536 
L 73.839926 124.445833 
L 74.202507 121.463283 
L 74.565087 108.497211 
L 74.927668 103.251685 
L 75.290248 106.142949 
L 75.652829 105.297201 
L 76.015409 103.744156 
L 76.377989 106.909422 
L 77.10315 131.892741 
L 77.465731 133.356618 
L 77.828311 135.833391 
L 78.553472 145.216161 
L 78.916053 145.210483 
L 79.278633 139.77457 
L 79.641214 138.001801 
L 80.003794 137.338908 
L 80.366375 133.372792 
L 80.728955 132.412283 
L 81.091535 133.251901 
L 81.454116 136.867657 
L 81.816696 135.915968 
L 82.541857 136.589658 
L 82.904438 133.311234 
L 83.267018 137.849008 
L 83.629599 135.792865 
L 83.992179 138.670124 
L 84.35476 136.596617 
L 85.442501 119.490936 
L 85.805081 112.579055 
L 86.167662 115.478555 
L 86.530242 122.722399 
L 86.892823 120.765078 
L 87.255403 125.340693 
L 87.617984 126.094259 
L 87.980564 129.158422 
L 88.343145 128.449049 
L 88.705725 132.990285 
L 89.068306 133.758804 
L 89.430886 133.412291 
L 89.793467 129.813309 
L 90.156047 130.304766 
L 90.518627 125.581814 
L 90.881208 123.989831 
L 91.243788 129.124161 
L 91.606369 129.051958 
L 91.968949 137.712591 
L 92.33153 136.919619 
L 92.69411 130.871023 
L 93.056691 133.955256 
L 93.419271 131.054508 
L 94.144432 121.327892 
L 94.507013 121.76845 
L 94.869593 123.941174 
L 95.594754 134.307533 
L 95.957334 134.25753 
L 96.319915 129.06358 
L 96.682495 129.772018 
L 97.045076 129.764447 
L 97.407656 126.407196 
L 97.770237 127.536288 
L 98.132817 122.907414 
L 98.495398 123.89273 
L 98.857978 133.601547 
L 99.220559 130.88558 
L 99.583139 129.127415 
L 99.945719 130.540609 
L 100.3083 130.730758 
L 100.67088 135.105455 
L 101.033461 136.940952 
L 101.758622 133.134375 
L 102.483783 139.457321 
L 102.846363 139.971387 
L 103.208944 137.366097 
L 103.571524 136.586094 
L 104.296685 144.144614 
L 104.659265 146.912163 
L 105.021846 145.773116 
L 105.384426 143.87066 
L 105.747007 143.143391 
L 106.109587 146.263249 
L 106.472168 146.02926 
L 106.834748 146.035222 
L 107.197329 144.925686 
L 107.559909 144.526734 
L 108.28507 141.730593 
L 109.372812 130.688712 
L 110.097972 129.343909 
L 110.823133 134.027717 
L 111.185714 126.658467 
L 111.548294 108.230815 
L 111.910875 105.94981 
L 112.636036 69.107051 
L 112.998616 65.355406 
L 113.723777 77.590398 
L 114.086358 72.836309 
L 114.448938 84.179984 
L 114.811518 81.250586 
L 115.174099 97.002096 
L 115.536679 85.716969 
L 115.89926 85.390164 
L 116.624421 95.864619 
L 116.987001 103.122029 
L 117.349582 102.905057 
L 117.712162 102.238972 
L 118.074743 108.851904 
L 118.437323 112.381117 
L 118.799904 112.015671 
L 119.162484 114.560791 
L 119.525064 112.843893 
L 119.887645 112.520075 
L 120.250225 114.056966 
L 120.612806 110.419445 
L 120.975386 108.022454 
L 121.337967 108.401432 
L 121.700547 110.656689 
L 122.063128 108.373231 
L 122.425708 106.965497 
L 122.788289 103.478217 
L 123.150869 101.456813 
L 123.87603 110.69914 
L 124.23861 111.021392 
L 124.601191 117.382315 
L 124.963771 111.976804 
L 125.326352 112.19246 
L 125.688932 118.794165 
L 126.051513 117.246226 
L 126.414093 113.598031 
L 126.776674 118.878372 
L 127.139254 118.895521 
L 127.501835 119.924487 
L 127.864415 121.827361 
L 128.226996 129.366809 
L 128.589576 129.386686 
L 128.952156 124.014607 
L 129.314737 115.748817 
L 129.677317 116.732763 
L 130.039898 114.792967 
L 130.402478 116.762784 
L 130.765059 117.400276 
L 131.127639 124.853873 
L 131.49022 122.509161 
L 131.8528 123.062845 
L 132.215381 118.800853 
L 132.940542 127.897191 
L 133.303122 128.065433 
L 134.028283 117.897438 
L 134.390863 118.934047 
L 134.753444 122.743666 
L 135.116024 122.662817 
L 135.478605 121.46419 
L 135.841185 118.947507 
L 136.203766 120.501832 
L 136.566346 120.524963 
L 136.928927 122.439719 
L 137.654088 123.176591 
L 138.016668 116.877137 
L 138.379248 116.293883 
L 138.741829 117.717184 
L 139.104409 114.687136 
L 139.82957 102.82731 
L 140.192151 89.277592 
L 140.554731 91.177663 
L 141.279892 121.845038 
L 142.730214 144.392196 
L 143.092794 144.720937 
L 143.455375 147.6 
L 143.817955 144.055807 
L 144.180536 138.876971 
L 144.543116 131.27005 
L 144.905697 130.392623 
L 145.268277 104.359244 
L 145.630858 108.059346 
L 145.993438 103.668919 
L 146.356019 109.671267 
L 146.718599 103.391366 
L 147.08118 82.424556 
L 147.44376 79.122786 
L 147.80634 103.506439 
L 148.168921 99.279715 
L 148.531501 99.748462 
L 148.894082 102.251923 
L 149.619243 110.657131 
L 149.981823 102.029568 
L 150.344404 115.146542 
L 150.706984 115.740804 
L 151.069565 127.344898 
L 151.432145 124.734047 
L 151.794726 126.633937 
L 152.157306 129.905964 
L 152.519886 128.192612 
L 153.245047 134.092177 
L 153.607628 133.458722 
L 153.970208 130.557259 
L 154.332789 135.997712 
L 154.695369 130.846676 
L 155.05795 129.487489 
L 155.42053 126.911972 
L 155.783111 127.90012 
L 156.145691 124.754478 
L 156.508272 126.344762 
L 157.233432 120.727749 
L 157.596013 109.784845 
L 157.958593 102.405385 
L 158.321174 91.128647 
L 158.683754 91.878495 
L 159.046335 101.261788 
L 159.408915 102.358587 
L 160.134076 119.429246 
L 160.496657 123.613127 
L 160.859237 125.24938 
L 161.221818 121.353238 
L 161.584398 125.074539 
L 162.309559 128.071923 
L 162.672139 120.220293 
L 163.03472 120.845217 
L 163.3973 122.754024 
L 163.759881 122.730473 
L 164.122461 120.209419 
L 164.485042 123.296061 
L 164.847622 132.87268 
L 165.210203 135.200215 
L 165.572783 117.950288 
L 165.935364 119.742447 
L 166.297944 131.208943 
L 166.660524 133.712796 
L 167.023105 146.470602 
L 167.385685 143.119904 
L 167.748266 132.993545 
L 168.110846 132.569949 
L 168.473427 136.51998 
L 168.836007 137.142143 
L 169.198588 146.659926 
L 169.561168 142.855116 
L 170.286329 137.192952 
L 170.64891 130.527242 
L 171.01149 136.865739 
L 171.37407 133.142535 
L 171.736651 127.931117 
L 172.099231 115.388917 
L 172.461812 112.71387 
L 172.824392 108.332874 
L 173.186973 101.298733 
L 173.549553 116.416178 
L 174.274714 120.641536 
L 174.637295 121.051369 
L 174.999875 117.577362 
L 175.362456 118.220288 
L 175.725036 126.537541 
L 176.087616 124.315964 
L 176.450197 118.449148 
L 176.812777 119.600993 
L 177.175358 110.120495 
L 177.537938 112.12124 
L 177.900519 111.602052 
L 178.263099 111.580523 
L 178.62568 105.707393 
L 178.98826 104.056323 
L 179.350841 108.753617 
L 179.713421 116.644724 
L 180.438582 128.331566 
L 180.801162 123.559267 
L 181.163743 130.222515 
L 181.526323 129.143319 
L 181.888904 130.002719 
L 182.251484 132.50046 
L 182.614065 131.641286 
L 182.976645 133.452458 
L 183.339226 134.519986 
L 183.701806 129.40236 
L 184.064387 130.318153 
L 184.426967 139.404884 
L 185.152128 142.834632 
L 185.514708 142.093085 
L 185.877289 141.678183 
L 186.239869 140.731036 
L 186.60245 141.087486 
L 186.96503 138.035762 
L 187.327611 136.56585 
L 187.690191 138.826068 
L 188.052772 139.598478 
L 188.415352 139.072503 
L 188.777933 137.883862 
L 189.140513 141.070791 
L 189.503094 142.032787 
L 189.865674 140.318507 
L 190.228254 141.002906 
L 190.590835 139.540463 
L 190.953415 139.228441 
L 191.315996 137.372112 
L 191.678576 136.258976 
L 192.403737 138.884253 
L 192.766318 138.281661 
L 193.128898 138.649996 
L 193.491479 139.386426 
L 194.21664 142.642679 
L 194.57922 145.972787 
L 194.9418 144.366504 
L 195.304381 143.781732 
L 196.029542 146.453495 
L 196.392122 145.540384 
L 196.754703 145.198968 
L 197.117283 146.281577 
L 197.479864 146.590882 
L 197.842444 143.290709 
L 198.205025 143.978792 
L 198.567605 145.580054 
L 198.930186 143.850376 
L 199.292766 143.776655 
L 199.655346 141.225406 
L 200.017927 141.072419 
L 200.380507 137.75379 
L 200.743088 136.616582 
L 201.105668 138.288519 
L 201.830829 135.651804 
L 202.55599 129.119189 
L 202.918571 126.671179 
L 203.281151 125.839549 
L 203.643732 124.592746 
L 204.006312 122.59278 
L 204.368892 119.969576 
L 204.731473 120.571871 
L 205.456634 123.184418 
L 205.819214 125.653683 
L 206.181795 121.983158 
L 206.544375 123.232431 
L 207.269536 120.278958 
L 207.632117 117.408275 
L 207.994697 118.570189 
L 208.719858 126.006943 
L 209.082438 126.553257 
L 209.807599 123.347277 
L 210.17018 122.746093 
L 210.53276 124.538668 
L 210.53276 124.538668 
" clip-path="url(#p5395549431)" style="fill: none; stroke: #008000; stroke-width: 1.5; stroke-linecap: square"/>
   </g>
   <g id="patch_3">
    <path d="M 55.584 152.64 
L 55.584 41.76 
" style="fill: none; stroke: #000000; stroke-width: 0.8; stroke-linejoin: miter; stroke-linecap: square"/>
   </g>
   <g id="patch_4">
    <path d="M 217.911273 152.64 
L 217.911273 41.76 
" style="fill: none; stroke: #000000; stroke-width: 0.8; stroke-linejoin: miter; stroke-linecap: square"/>
   </g>
   <g id="patch_5">
    <path d="M 55.584 152.64 
L 217.911273 152.64 
" style="fill: none; stroke: #000000; stroke-width: 0.8; stroke-linejoin: miter; stroke-linecap: square"/>
   </g>
   <g id="patch_6">
    <path d="M 55.584 41.76 
L 217.911273 41.76 
" style="fill: none; stroke: #000000; stroke-width: 0.8; stroke-linejoin: miter; stroke-linecap: square"/>
   </g>
   <g id="text_8">
    <!-- No Prediction (FOSS) -->
    <g transform="translate(74.495761 35.76) scale(0.12 -0.12)">
     <defs>
      <path id="DejaVuSans-4e" d="M 628 4666 
L 1478 4666 
L 3547 763 
L 3547 4666 
L 4159 4666 
L 4159 0 
L 3309 0 
L 1241 3903 
L 1241 0 
L 628 0 
L 628 4666 
z
" transform="scale(0.015625)"/>
      <path id="DejaVuSans-6f" d="M 1959 3097 
Q 1497 3097 1228 2736 
Q 959 2375 959 1747 
Q 959 1119 1226 758 
Q 1494 397 1959 397 
Q 2419 397 2687 759 
Q 2956 1122 2956 1747 
Q 2956 2369 2687 2733 
Q 2419 3097 1959 3097 
z
M 1959 3584 
Q 2709 3584 3137 3096 
Q 3566 2609 3566 1747 
Q 3566 888 3137 398 
Q 2709 -91 1959 -91 
Q 1206 -91 779 398 
Q 353 888 353 1747 
Q 353 2609 779 3096 
Q 1206 3584 1959 3584 
z
" transform="scale(0.015625)"/>
      <path id="DejaVuSans-20" transform="scale(0.015625)"/>
      <path id="DejaVuSans-50" d="M 1259 4147 
L 1259 2394 
L 2053 2394 
Q 2494 2394 2734 2622 
Q 2975 2850 2975 3272 
Q 2975 3691 2734 3919 
Q 2494 4147 2053 4147 
L 1259 4147 
z
M 628 4666 
L 2053 4666 
Q 2838 4666 3239 4311 
Q 3641 3956 3641 3272 
Q 3641 2581 3239 2228 
Q 2838 1875 2053 1875 
L 1259 1875 
L 1259 0 
L 628 0 
L 628 4666 
z
" transform="scale(0.015625)"/>
      <path id="DejaVuSans-72" d="M 2631 2963 
Q 2534 3019 2420 3045 
Q 2306 3072 2169 3072 
Q 1681 3072 1420 2755 
Q 1159 2438 1159 1844 
L 1159 0 
L 581 0 
L 581 3500 
L 1159 3500 
L 1159 2956 
Q 1341 3275 1631 3429 
Q 1922 3584 2338 3584 
Q 2397 3584 2469 3576 
Q 2541 3569 2628 3553 
L 2631 2963 
z
" transform="scale(0.015625)"/>
      <path id="DejaVuSans-65" d="M 3597 1894 
L 3597 1613 
L 953 1613 
Q 991 1019 1311 708 
Q 1631 397 2203 397 
Q 2534 397 2845 478 
Q 3156 559 3463 722 
L 3463 178 
Q 3153 47 2828 -22 
Q 2503 -91 2169 -91 
Q 1331 -91 842 396 
Q 353 884 353 1716 
Q 353 2575 817 3079 
Q 1281 3584 2069 3584 
Q 2775 3584 3186 3129 
Q 3597 2675 3597 1894 
z
M 3022 2063 
Q 3016 2534 2758 2815 
Q 2500 3097 2075 3097 
Q 1594 3097 1305 2825 
Q 1016 2553 972 2059 
L 3022 2063 
z
" transform="scale(0.015625)"/>
      <path id="DejaVuSans-64" d="M 2906 2969 
L 2906 4863 
L 3481 4863 
L 3481 0 
L 2906 0 
L 2906 525 
Q 2725 213 2448 61 
Q 2172 -91 1784 -91 
Q 1150 -91 751 415 
Q 353 922 353 1747 
Q 353 2572 751 3078 
Q 1150 3584 1784 3584 
Q 2172 3584 2448 3432 
Q 2725 3281 2906 2969 
z
M 947 1747 
Q 947 1113 1208 752 
Q 1469 391 1925 391 
Q 2381 391 2643 752 
Q 2906 1113 2906 1747 
Q 2906 2381 2643 2742 
Q 2381 3103 1925 3103 
Q 1469 3103 1208 2742 
Q 947 2381 947 1747 
z
" transform="scale(0.015625)"/>
      <path id="DejaVuSans-69" d="M 603 3500 
L 1178 3500 
L 1178 0 
L 603 0 
L 603 3500 
z
M 603 4863 
L 1178 4863 
L 1178 4134 
L 603 4134 
L 603 4863 
z
" transform="scale(0.015625)"/>
      <path id="DejaVuSans-63" d="M 3122 3366 
L 3122 2828 
Q 2878 2963 2633 3030 
Q 2388 3097 2138 3097 
Q 1578 3097 1268 2742 
Q 959 2388 959 1747 
Q 959 1106 1268 751 
Q 1578 397 2138 397 
Q 2388 397 2633 464 
Q 2878 531 3122 666 
L 3122 134 
Q 2881 22 2623 -34 
Q 2366 -91 2075 -91 
Q 1284 -91 818 406 
Q 353 903 353 1747 
Q 353 2603 823 3093 
Q 1294 3584 2113 3584 
Q 2378 3584 2631 3529 
Q 2884 3475 3122 3366 
z
" transform="scale(0.015625)"/>
      <path id="DejaVuSans-74" d="M 1172 4494 
L 1172 3500 
L 2356 3500 
L 2356 3053 
L 1172 3053 
L 1172 1153 
Q 1172 725 1289 603 
Q 1406 481 1766 481 
L 2356 481 
L 2356 0 
L 1766 0 
Q 1100 0 847 248 
Q 594 497 594 1153 
L 594 3053 
L 172 3053 
L 172 3500 
L 594 3500 
L 594 4494 
L 1172 4494 
z
" transform="scale(0.015625)"/>
      <path id="DejaVuSans-6e" d="M 3513 2113 
L 3513 0 
L 2938 0 
L 2938 2094 
Q 2938 2591 2744 2837 
Q 2550 3084 2163 3084 
Q 1697 3084 1428 2787 
Q 1159 2491 1159 1978 
L 1159 0 
L 581 0 
L 581 3500 
L 1159 3500 
L 1159 2956 
Q 1366 3272 1645 3428 
Q 1925 3584 2291 3584 
Q 2894 3584 3203 3211 
Q 3513 2838 3513 2113 
z
" transform="scale(0.015625)"/>
      <path id="DejaVuSans-28" d="M 1984 4856 
Q 1566 4138 1362 3434 
Q 1159 2731 1159 2009 
Q 1159 1288 1364 580 
Q 1569 -128 1984 -844 
L 1484 -844 
Q 1016 -109 783 600 
Q 550 1309 550 2009 
Q 550 2706 781 3412 
Q 1013 4119 1484 4856 
L 1984 4856 
z
" transform="scale(0.015625)"/>
      <path id="DejaVuSans-46" d="M 628 4666 
L 3309 4666 
L 3309 4134 
L 1259 4134 
L 1259 2759 
L 3109 2759 
L 3109 2228 
L 1259 2228 
L 1259 0 
L 628 0 
L 628 4666 
z
" transform="scale(0.015625)"/>
      <path id="DejaVuSans-4f" d="M 2522 4238 
Q 1834 4238 1429 3725 
Q 1025 3213 1025 2328 
Q 1025 1447 1429 934 
Q 1834 422 2522 422 
Q 3209 422 3611 934 
Q 4013 1447 4013 2328 
Q 4013 3213 3611 3725 
Q 3209 4238 2522 4238 
z
M 2522 4750 
Q 3503 4750 4090 4092 
Q 4678 3434 4678 2328 
Q 4678 1225 4090 567 
Q 3503 -91 2522 -91 
Q 1538 -91 948 565 
Q 359 1222 359 2328 
Q 359 3434 948 4092 
Q 1538 4750 2522 4750 
z
" transform="scale(0.015625)"/>
      <path id="DejaVuSans-53" d="M 3425 4513 
L 3425 3897 
Q 3066 4069 2747 4153 
Q 2428 4238 2131 4238 
Q 1616 4238 1336 4038 
Q 1056 3838 1056 3469 
Q 1056 3159 1242 3001 
Q 1428 2844 1947 2747 
L 2328 2669 
Q 3034 2534 3370 2195 
Q 3706 1856 3706 1288 
Q 3706 609 3251 259 
Q 2797 -91 1919 -91 
Q 1588 -91 1214 -16 
Q 841 59 441 206 
L 441 856 
Q 825 641 1194 531 
Q 1563 422 1919 422 
Q 2459 422 2753 634 
Q 3047 847 3047 1241 
Q 3047 1584 2836 1778 
Q 2625 1972 2144 2069 
L 1759 2144 
Q 1053 2284 737 2584 
Q 422 2884 422 3419 
Q 422 4038 858 4394 
Q 1294 4750 2059 4750 
Q 2388 4750 2728 4690 
Q 3069 4631 3425 4513 
z
" transform="scale(0.015625)"/>
      <path id="DejaVuSans-29" d="M 513 4856 
L 1013 4856 
Q 1481 4119 1714 3412 
Q 1947 2706 1947 2009 
Q 1947 1309 1714 600 
Q 1481 -109 1013 -844 
L 513 -844 
Q 928 -128 1133 580 
Q 1338 1288 1338 2009 
Q 1338 2731 1133 3434 
Q 928 4138 513 4856 
z
" transform="scale(0.015625)"/>
     </defs>
     <use xlink:href="#DejaVuSans-4e"/>
     <use xlink:href="#DejaVuSans-6f" x="74.804688"/>
     <use xlink:href="#DejaVuSans-20" x="135.986328"/>
     <use xlink:href="#DejaVuSans-50" x="167.773438"/>
     <use xlink:href="#DejaVuSans-72" x="226.326172"/>
     <use xlink:href="#DejaVuSans-65" x="265.189453"/>
     <use xlink:href="#DejaVuSans-64" x="326.712891"/>
     <use xlink:href="#DejaVuSans-69" x="390.189453"/>
     <use xlink:href="#DejaVuSans-63" x="417.972656"/>
     <use xlink:href="#DejaVuSans-74" x="472.953125"/>
     <use xlink:href="#DejaVuSans-69" x="512.162109"/>
     <use xlink:href="#DejaVuSans-6f" x="539.945312"/>
     <use xlink:href="#DejaVuSans-6e" x="601.126953"/>
     <use xlink:href="#DejaVuSans-20" x="664.505859"/>
     <use xlink:href="#DejaVuSans-28" x="696.292969"/>
     <use xlink:href="#DejaVuSans-46" x="735.306641"/>
     <use xlink:href="#DejaVuSans-4f" x="792.826172"/>
     <use xlink:href="#DejaVuSans-53" x="871.537109"/>
     <use xlink:href="#DejaVuSans-53" x="935.013672"/>
     <use xlink:href="#DejaVuSans-29" x="998.490234"/>
    </g>
   </g>
  </g>
  <g id="axes_2">
   <g id="patch_7">
    <path d="M 250.376727 152.64 
L 412.704 152.64 
L 412.704 41.76 
L 250.376727 41.76 
z
" style="fill: #ffffff"/>
   </g>
   <g id="matplotlib.axis_3">
    <g id="xtick_6">
     <g id="line2d_9">
      <g>
       <use xlink:href="#mf2f0073ac2" x="257.75524" y="152.64" style="stroke: #000000; stroke-width: 0.8"/>
      </g>
     </g>
     <g id="text_9">
      <!-- 0 -->
      <g transform="translate(254.57399 167.238437) scale(0.1 -0.1)">
       <use xlink:href="#DejaVuSans-30"/>
      </g>
     </g>
    </g>
    <g id="xtick_7">
     <g id="line2d_10">
      <g>
       <use xlink:href="#mf2f0073ac2" x="294.013286" y="152.64" style="stroke: #000000; stroke-width: 0.8"/>
      </g>
     </g>
     <g id="text_10">
      <!-- 100 -->
      <g transform="translate(284.469536 167.238437) scale(0.1 -0.1)">
       <use xlink:href="#DejaVuSans-31"/>
       <use xlink:href="#DejaVuSans-30" x="63.623047"/>
       <use xlink:href="#DejaVuSans-30" x="127.246094"/>
      </g>
     </g>
    </g>
    <g id="xtick_8">
     <g id="line2d_11">
      <g>
       <use xlink:href="#mf2f0073ac2" x="330.271332" y="152.64" style="stroke: #000000; stroke-width: 0.8"/>
      </g>
     </g>
     <g id="text_11">
      <!-- 200 -->
      <g transform="translate(320.727582 167.238437) scale(0.1 -0.1)">
       <use xlink:href="#DejaVuSans-32"/>
       <use xlink:href="#DejaVuSans-30" x="63.623047"/>
       <use xlink:href="#DejaVuSans-30" x="127.246094"/>
      </g>
     </g>
    </g>
    <g id="xtick_9">
     <g id="line2d_12">
      <g>
       <use xlink:href="#mf2f0073ac2" x="366.529378" y="152.64" style="stroke: #000000; stroke-width: 0.8"/>
      </g>
     </g>
     <g id="text_12">
      <!-- 300 -->
      <g transform="translate(356.985628 167.238437) scale(0.1 -0.1)">
       <use xlink:href="#DejaVuSans-33"/>
       <use xlink:href="#DejaVuSans-30" x="63.623047"/>
       <use xlink:href="#DejaVuSans-30" x="127.246094"/>
      </g>
     </g>
    </g>
    <g id="xtick_10">
     <g id="line2d_13">
      <g>
       <use xlink:href="#mf2f0073ac2" x="402.787424" y="152.64" style="stroke: #000000; stroke-width: 0.8"/>
      </g>
     </g>
     <g id="text_13">
      <!-- 400 -->
      <g transform="translate(393.243674 167.238437) scale(0.1 -0.1)">
       <use xlink:href="#DejaVuSans-34"/>
       <use xlink:href="#DejaVuSans-30" x="63.623047"/>
       <use xlink:href="#DejaVuSans-30" x="127.246094"/>
      </g>
     </g>
    </g>
   </g>
   <g id="matplotlib.axis_4">
    <g id="ytick_3">
     <g id="line2d_14">
      <g>
       <use xlink:href="#m7764474121" x="250.376727" y="147.6" style="stroke: #000000; stroke-width: 0.8"/>
      </g>
     </g>
     <g id="text_14">
      <!-- 0 -->
      <g transform="translate(237.014227 151.399219) scale(0.1 -0.1)">
       <use xlink:href="#DejaVuSans-30"/>
      </g>
     </g>
    </g>
    <g id="ytick_4">
     <g id="line2d_15">
      <g>
       <use xlink:href="#m7764474121" x="250.376727" y="106.62305" style="stroke: #000000; stroke-width: 0.8"/>
      </g>
     </g>
     <g id="text_15">
      <!-- 20 -->
      <g transform="translate(230.651727 110.422269) scale(0.1 -0.1)">
       <use xlink:href="#DejaVuSans-32"/>
       <use xlink:href="#DejaVuSans-30" x="63.623047"/>
      </g>
     </g>
    </g>
    <g id="ytick_5">
     <g id="line2d_16">
      <g>
       <use xlink:href="#m7764474121" x="250.376727" y="65.6461" style="stroke: #000000; stroke-width: 0.8"/>
      </g>
     </g>
     <g id="text_16">
      <!-- 40 -->
      <g transform="translate(230.651727 69.445319) scale(0.1 -0.1)">
       <use xlink:href="#DejaVuSans-34"/>
       <use xlink:href="#DejaVuSans-30" x="63.623047"/>
      </g>
     </g>
    </g>
   </g>
   <g id="line2d_17">
    <path d="M 257.75524 46.8 
L 258.11782 69.584282 
L 258.480401 81.352256 
L 258.842981 77.245321 
L 259.205562 90.835162 
L 259.568142 92.808497 
L 259.930722 88.823755 
L 260.655883 102.208015 
L 261.018464 102.196155 
L 261.381044 102.607545 
L 261.743625 95.27733 
L 262.106205 147.6 
L 263.556527 147.6 
L 263.919108 143.126257 
L 264.281688 123.924946 
L 264.644268 113.898319 
L 265.006849 128.104118 
L 265.369429 116.534163 
L 265.73201 133.54547 
L 266.09459 125.101638 
L 266.457171 100.556249 
L 266.819751 90.900432 
L 267.182332 92.330483 
L 267.907493 110.867168 
L 268.632654 119.095831 
L 268.995234 116.332422 
L 269.357814 104.272588 
L 269.720395 99.380571 
L 270.082975 102.080847 
L 270.445556 101.283207 
L 270.808136 139.566645 
L 271.170717 127.789886 
L 271.533297 147.6 
L 274.796521 147.6 
L 275.159102 127.428472 
L 275.521682 126.526807 
L 275.884263 127.312783 
L 276.246843 130.680919 
L 276.609424 129.801998 
L 277.334585 130.41003 
L 277.697165 127.36398 
L 278.059746 131.582383 
L 278.422326 129.694853 
L 278.784906 132.376205 
L 279.147487 130.418467 
L 279.510067 147.6 
L 283.498452 147.6 
L 283.861033 127.746547 
L 284.223613 127.473501 
L 284.586194 124.119853 
L 284.948774 124.569643 
L 285.311355 120.164338 
L 285.673935 118.707368 
L 286.036516 123.482858 
L 286.399096 123.403539 
L 286.761677 131.467953 
L 287.124257 130.708955 
L 287.486838 125.293581 
L 287.849418 127.979898 
L 288.211998 147.6 
L 290.387481 147.6 
L 290.750062 144.949285 
L 291.112642 147.6 
L 291.475223 147.6 
L 291.837803 138.422141 
L 292.200384 141.14543 
L 292.562964 122.001605 
L 292.925544 117.677408 
L 293.288125 118.587766 
L 293.650705 127.669373 
L 294.013286 125.125991 
L 294.375866 123.469959 
L 294.738447 124.792244 
L 295.101027 124.972893 
L 295.463608 129.05582 
L 295.826188 130.738819 
L 296.551349 127.210896 
L 296.91393 144.592216 
L 297.27651 147.6 
L 300.902315 147.6 
L 301.264895 139.206489 
L 301.627476 139.213594 
L 301.990056 138.186535 
L 302.352636 137.826227 
L 303.077797 135.213412 
L 304.165539 124.927788 
L 304.528119 124.390527 
L 304.8907 124.397728 
L 305.25328 125.889232 
L 305.615861 117.258564 
L 305.978441 120.002563 
L 306.341022 124.287871 
L 306.703602 133.480359 
L 307.066182 128.387295 
L 307.428763 140.702948 
L 307.791343 147.241909 
L 308.153924 147.6 
L 308.516504 147.6 
L 308.879085 146.255395 
L 309.241665 147.6 
L 309.604246 146.837798 
L 309.966826 93.555704 
L 310.329407 83.055264 
L 310.691987 82.754196 
L 311.417148 92.500144 
L 311.779728 99.265715 
L 312.142309 99.097863 
L 312.504889 98.441967 
L 312.86747 104.610793 
L 313.23005 107.891963 
L 313.592631 107.532904 
L 313.955211 109.904429 
L 314.317792 147.6 
L 314.680372 147.6 
L 315.042953 137.611473 
L 315.405533 146.647005 
L 315.768114 125.579639 
L 316.130694 124.35694 
L 316.493274 127.675731 
L 316.855855 140.5027 
L 317.218435 146.020294 
L 317.581016 147.6 
L 318.306177 147.6 
L 318.668757 106.320243 
L 319.031338 106.615478 
L 319.393918 112.56488 
L 319.756499 107.481308 
L 320.119079 107.70056 
L 320.48166 113.842412 
L 320.84424 112.425429 
L 321.20682 109.001629 
L 321.569401 113.952784 
L 321.931981 113.955748 
L 322.294562 114.889531 
L 322.657142 116.688315 
L 323.019723 147.6 
L 323.382303 147.6 
L 323.744884 141.292266 
L 324.107464 126.808488 
L 324.470045 140.182154 
L 324.832625 144.449713 
L 325.920366 130.800225 
L 326.282947 144.149505 
L 326.645527 128.906637 
L 327.008108 139.181927 
L 327.370688 118.362039 
L 327.733269 122.322108 
L 328.095849 122.502643 
L 328.82101 113.025229 
L 329.183591 113.976038 
L 329.546171 117.536341 
L 329.908752 117.464992 
L 330.271332 116.356295 
L 330.633912 114.006601 
L 330.996493 115.443587 
L 331.359073 115.456505 
L 331.721654 130.445033 
L 332.084234 136.105435 
L 332.446815 129.256925 
L 332.809395 135.927476 
L 333.171976 130.140258 
L 333.534556 147.6 
L 333.897137 137.16407 
L 334.259717 141.592656 
L 334.622298 143.539701 
L 334.984878 142.75174 
L 335.347458 139.079823 
L 335.710039 133.145932 
L 336.072619 116.817986 
L 337.522941 137.694382 
L 337.885522 137.995482 
L 338.248102 140.689774 
L 338.610683 137.384868 
L 338.973263 132.552324 
L 339.335844 125.470195 
L 339.698424 124.65836 
L 340.061004 100.401012 
L 340.423585 145.931693 
L 340.786165 147.6 
L 341.511326 147.6 
L 341.873907 141.923045 
L 342.236487 147.6 
L 342.599068 147.6 
L 342.961648 135.321859 
L 343.324229 139.320738 
L 343.686809 139.397531 
L 344.04939 143.111252 
L 344.41197 141.506328 
L 344.77455 98.238295 
L 345.137131 110.447564 
L 345.499711 110.999517 
L 345.862292 121.826541 
L 346.224872 119.388501 
L 346.587453 121.145101 
L 346.950033 124.205083 
L 347.312614 122.602139 
L 348.037775 128.104974 
L 348.400355 127.494971 
L 348.762936 124.798497 
L 349.488096 147.6 
L 349.850677 123.213427 
L 350.213257 147.6 
L 352.02616 147.6 
L 352.38874 141.528538 
L 353.113901 133.44181 
L 353.476482 88.777808 
L 353.839062 97.520248 
L 354.201642 98.57201 
L 354.926803 114.429516 
L 355.289384 118.326239 
L 355.651964 119.86855 
L 356.014545 116.223267 
L 356.377125 119.707257 
L 357.102286 122.497873 
L 357.464867 115.175702 
L 357.827447 147.6 
L 359.277769 147.6 
L 359.640349 147.45664 
L 360.36551 136.091048 
L 360.728091 146.388051 
L 361.090671 146.759563 
L 361.453252 144.729274 
L 361.815832 137.898185 
L 362.178413 136.504985 
L 362.540993 127.111326 
L 362.903574 126.678245 
L 363.266154 130.370151 
L 363.628735 130.939112 
L 363.991315 139.802224 
L 364.353895 136.262754 
L 365.079056 130.9937 
L 365.441637 124.781852 
L 365.804217 130.671289 
L 366.166798 127.212457 
L 366.529378 147.6 
L 367.254539 133.598777 
L 367.61712 147.6 
L 369.067441 147.6 
L 369.430022 142.587413 
L 370.155183 147.6 
L 370.517763 146.608509 
L 370.880344 118.991633 
L 371.242924 113.554719 
L 371.605505 114.600068 
L 371.968085 105.779333 
L 372.330666 107.645577 
L 372.693246 107.157613 
L 373.055827 107.145535 
L 373.418407 101.673928 
L 373.780987 100.342874 
L 374.143568 104.513786 
L 374.506148 111.858775 
L 374.868729 116.600737 
L 375.231309 141.018803 
L 375.59389 147.6 
L 375.95647 143.516081 
L 376.319051 145.950344 
L 376.681631 144.760808 
L 377.406792 125.243169 
L 377.769373 136.082916 
L 378.857114 124.265451 
L 379.219694 123.690603 
L 379.582275 134.787202 
L 379.944855 136.240054 
L 380.307436 135.546388 
L 380.670016 135.162504 
L 381.032597 134.284446 
L 381.395177 134.609844 
L 381.757758 131.7659 
L 382.120338 131.297654 
L 382.482919 132.510255 
L 382.845499 133.235809 
L 383.208079 132.74276 
L 383.57066 131.632821 
L 383.93324 143.346646 
L 384.295821 145.273067 
L 384.658401 138.094981 
L 385.020982 140.846109 
L 385.383562 139.909047 
L 385.746143 143.50368 
L 386.108723 144.59734 
L 386.471304 142.280247 
L 386.833884 141.313019 
L 387.196465 143.307605 
L 387.559045 142.52339 
L 387.921625 143.008016 
L 388.284206 132.988638 
L 389.009367 136.064065 
L 389.371947 139.168191 
L 389.734528 137.669001 
L 390.097108 137.123858 
L 390.822269 139.61801 
L 391.18485 138.767816 
L 391.54743 138.432637 
L 391.910011 139.45452 
L 392.272591 139.748247 
L 392.635171 143.585646 
L 392.997752 145.183815 
L 393.360332 147.6 
L 393.722913 144.019803 
L 394.085493 131.426224 
L 394.448074 135.00011 
L 394.810654 135.300924 
L 395.173235 138.067462 
L 395.535815 139.470708 
L 395.898396 138.910037 
L 396.260976 144.867446 
L 396.623557 146.595413 
L 396.986137 126.077894 
L 397.711298 120.965755 
L 398.073878 120.416531 
L 398.436459 119.244787 
L 399.16162 114.94282 
L 399.5242 115.511338 
L 400.249361 117.934696 
L 400.611942 120.224738 
L 400.974522 116.82847 
L 401.337103 140.866768 
L 401.699683 147.105664 
L 402.062263 140.742905 
L 402.424844 137.84857 
L 402.787424 145.563378 
L 403.150005 147.6 
L 403.512585 147.6 
L 403.875166 146.713703 
L 404.237746 146.149119 
L 404.600327 144.112798 
L 404.962907 147.145424 
L 405.325488 147.6 
L 405.325488 147.6 
" clip-path="url(#p73d91e4e93)" style="fill: none; stroke: #0000ff; stroke-width: 1.5; stroke-linecap: square"/>
   </g>
   <g id="patch_8">
    <path d="M 250.376727 152.64 
L 250.376727 41.76 
" style="fill: none; stroke: #000000; stroke-width: 0.8; stroke-linejoin: miter; stroke-linecap: square"/>
   </g>
   <g id="patch_9">
    <path d="M 412.704 152.64 
L 412.704 41.76 
" style="fill: none; stroke: #000000; stroke-width: 0.8; stroke-linejoin: miter; stroke-linecap: square"/>
   </g>
   <g id="patch_10">
    <path d="M 250.376727 152.64 
L 412.704 152.64 
" style="fill: none; stroke: #000000; stroke-width: 0.8; stroke-linejoin: miter; stroke-linecap: square"/>
   </g>
   <g id="patch_11">
    <path d="M 250.376727 41.76 
L 412.704 41.76 
" style="fill: none; stroke: #000000; stroke-width: 0.8; stroke-linejoin: miter; stroke-linecap: square"/>
   </g>
   <g id="text_17">
    <!-- RNN -->
    <g transform="translate(318.393801 35.76) scale(0.12 -0.12)">
     <defs>
      <path id="DejaVuSans-52" d="M 2841 2188 
Q 3044 2119 3236 1894 
Q 3428 1669 3622 1275 
L 4263 0 
L 3584 0 
L 2988 1197 
Q 2756 1666 2539 1819 
Q 2322 1972 1947 1972 
L 1259 1972 
L 1259 0 
L 628 0 
L 628 4666 
L 2053 4666 
Q 2853 4666 3247 4331 
Q 3641 3997 3641 3322 
Q 3641 2881 3436 2590 
Q 3231 2300 2841 2188 
z
M 1259 4147 
L 1259 2491 
L 2053 2491 
Q 2509 2491 2742 2702 
Q 2975 2913 2975 3322 
Q 2975 3731 2742 3939 
Q 2509 4147 2053 4147 
L 1259 4147 
z
" transform="scale(0.015625)"/>
     </defs>
     <use xlink:href="#DejaVuSans-52"/>
     <use xlink:href="#DejaVuSans-4e" x="69.482422"/>
     <use xlink:href="#DejaVuSans-4e" x="144.287109"/>
    </g>
   </g>
  </g>
  <g id="axes_3">
   <g id="patch_12">
    <path d="M 55.584 307.872 
L 217.911273 307.872 
L 217.911273 196.992 
L 55.584 196.992 
z
" style="fill: #ffffff"/>
   </g>
   <g id="matplotlib.axis_5">
    <g id="xtick_11">
     <g id="line2d_18">
      <g>
       <use xlink:href="#mf2f0073ac2" x="62.962512" y="307.872" style="stroke: #000000; stroke-width: 0.8"/>
      </g>
     </g>
     <g id="text_18">
      <!-- 0 -->
      <g transform="translate(59.781262 322.470437) scale(0.1 -0.1)">
       <use xlink:href="#DejaVuSans-30"/>
      </g>
     </g>
    </g>
    <g id="xtick_12">
     <g id="line2d_19">
      <g>
       <use xlink:href="#mf2f0073ac2" x="99.220559" y="307.872" style="stroke: #000000; stroke-width: 0.8"/>
      </g>
     </g>
     <g id="text_19">
      <!-- 100 -->
      <g transform="translate(89.676809 322.470437) scale(0.1 -0.1)">
       <use xlink:href="#DejaVuSans-31"/>
       <use xlink:href="#DejaVuSans-30" x="63.623047"/>
       <use xlink:href="#DejaVuSans-30" x="127.246094"/>
      </g>
     </g>
    </g>
    <g id="xtick_13">
     <g id="line2d_20">
      <g>
       <use xlink:href="#mf2f0073ac2" x="135.478605" y="307.872" style="stroke: #000000; stroke-width: 0.8"/>
      </g>
     </g>
     <g id="text_20">
      <!-- 200 -->
      <g transform="translate(125.934855 322.470437) scale(0.1 -0.1)">
       <use xlink:href="#DejaVuSans-32"/>
       <use xlink:href="#DejaVuSans-30" x="63.623047"/>
       <use xlink:href="#DejaVuSans-30" x="127.246094"/>
      </g>
     </g>
    </g>
    <g id="xtick_14">
     <g id="line2d_21">
      <g>
       <use xlink:href="#mf2f0073ac2" x="171.736651" y="307.872" style="stroke: #000000; stroke-width: 0.8"/>
      </g>
     </g>
     <g id="text_21">
      <!-- 300 -->
      <g transform="translate(162.192901 322.470437) scale(0.1 -0.1)">
       <use xlink:href="#DejaVuSans-33"/>
       <use xlink:href="#DejaVuSans-30" x="63.623047"/>
       <use xlink:href="#DejaVuSans-30" x="127.246094"/>
      </g>
     </g>
    </g>
    <g id="xtick_15">
     <g id="line2d_22">
      <g>
       <use xlink:href="#mf2f0073ac2" x="207.994697" y="307.872" style="stroke: #000000; stroke-width: 0.8"/>
      </g>
     </g>
     <g id="text_22">
      <!-- 400 -->
      <g transform="translate(198.450947 322.470437) scale(0.1 -0.1)">
       <use xlink:href="#DejaVuSans-34"/>
       <use xlink:href="#DejaVuSans-30" x="63.623047"/>
       <use xlink:href="#DejaVuSans-30" x="127.246094"/>
      </g>
     </g>
    </g>
   </g>
   <g id="matplotlib.axis_6">
    <g id="ytick_6">
     <g id="line2d_23">
      <g>
       <use xlink:href="#m7764474121" x="55.584" y="302.832" style="stroke: #000000; stroke-width: 0.8"/>
      </g>
     </g>
     <g id="text_23">
      <!-- 0 -->
      <g transform="translate(42.2215 306.631219) scale(0.1 -0.1)">
       <use xlink:href="#DejaVuSans-30"/>
      </g>
     </g>
    </g>
    <g id="ytick_7">
     <g id="line2d_24">
      <g>
       <use xlink:href="#m7764474121" x="55.584" y="261.85505" style="stroke: #000000; stroke-width: 0.8"/>
      </g>
     </g>
     <g id="text_24">
      <!-- 20 -->
      <g transform="translate(35.859 265.654269) scale(0.1 -0.1)">
       <use xlink:href="#DejaVuSans-32"/>
       <use xlink:href="#DejaVuSans-30" x="63.623047"/>
      </g>
     </g>
    </g>
    <g id="ytick_8">
     <g id="line2d_25">
      <g>
       <use xlink:href="#m7764474121" x="55.584" y="220.8781" style="stroke: #000000; stroke-width: 0.8"/>
      </g>
     </g>
     <g id="text_25">
      <!-- 40 -->
      <g transform="translate(35.859 224.677319) scale(0.1 -0.1)">
       <use xlink:href="#DejaVuSans-34"/>
       <use xlink:href="#DejaVuSans-30" x="63.623047"/>
      </g>
     </g>
    </g>
   </g>
   <g id="line2d_26">
    <path d="M 62.962512 202.032 
L 63.325093 224.816282 
L 63.687673 236.584256 
L 64.050254 232.477321 
L 64.412834 246.067162 
L 64.775415 248.040497 
L 65.137995 244.055755 
L 65.863156 257.440015 
L 66.225737 257.428155 
L 66.588317 257.839545 
L 66.950897 250.50933 
L 67.313478 302.832 
L 71.301863 302.832 
L 71.664443 255.788249 
L 72.027024 246.132432 
L 72.389604 247.562483 
L 73.114765 266.099168 
L 73.839926 274.327831 
L 74.202507 271.564422 
L 74.565087 259.504588 
L 74.927668 254.612571 
L 75.290248 257.312847 
L 75.652829 256.515207 
L 76.015409 302.832 
L 80.003794 302.832 
L 80.366375 282.660472 
L 80.728955 281.758807 
L 81.091535 282.544783 
L 81.454116 285.912919 
L 81.816696 285.033998 
L 82.541857 285.64203 
L 82.904438 282.59598 
L 83.267018 286.814383 
L 83.629599 284.926853 
L 83.992179 287.608205 
L 84.35476 285.650467 
L 84.71734 302.832 
L 87.617984 302.797393 
L 87.980564 298.965157 
L 88.343145 302.832 
L 88.705725 302.454781 
L 89.068306 282.978547 
L 89.430886 282.705501 
L 89.793467 279.351853 
L 90.156047 279.801643 
L 90.518627 275.396338 
L 90.881208 273.939368 
L 91.243788 278.714858 
L 91.606369 278.635539 
L 91.968949 286.699953 
L 92.33153 285.940955 
L 92.69411 280.525581 
L 93.056691 283.211898 
L 93.419271 302.832 
L 93.781852 302.832 
L 94.144432 291.017391 
L 94.507013 299.823692 
L 94.869593 302.832 
L 97.407656 302.832 
L 97.770237 277.233605 
L 98.132817 272.909408 
L 98.495398 273.819766 
L 98.857978 282.901373 
L 99.220559 280.357991 
L 99.583139 278.701959 
L 99.945719 280.024244 
L 100.3083 280.204893 
L 100.67088 284.28782 
L 101.033461 285.970819 
L 101.758622 282.442896 
L 102.121202 297.745617 
L 102.483783 302.832 
L 102.846363 299.198492 
L 103.208944 297.426655 
L 103.571524 300.458896 
L 103.934105 301.774373 
L 104.296685 302.052303 
L 104.659265 302.811428 
L 105.384426 302.832 
L 105.747007 300.021217 
L 106.109587 302.832 
L 106.472168 294.438489 
L 106.834748 294.445594 
L 107.197329 293.418535 
L 107.559909 293.058227 
L 108.28507 290.445412 
L 109.372812 280.159788 
L 109.735392 279.622527 
L 110.097972 279.629728 
L 110.460553 281.121232 
L 110.823133 292.003124 
L 111.185714 286.143057 
L 111.910875 297.249763 
L 112.273455 294.121503 
L 112.636036 293.73643 
L 112.998616 289.27778 
L 113.723777 296.062811 
L 114.086358 298.7559 
L 114.448938 302.832 
L 114.811518 297.777837 
L 115.174099 248.787704 
L 115.536679 238.287264 
L 115.89926 237.986196 
L 116.624421 247.732144 
L 116.987001 254.497715 
L 117.349582 254.329863 
L 117.712162 253.673967 
L 118.074743 259.842793 
L 118.437323 263.123963 
L 118.799904 262.764904 
L 119.162484 265.136429 
L 119.525064 302.832 
L 123.51345 302.832 
L 123.87603 261.552243 
L 124.23861 261.847478 
L 124.601191 267.79688 
L 124.963771 262.713308 
L 125.326352 262.93256 
L 125.688932 269.074412 
L 126.051513 267.657429 
L 126.414093 264.233629 
L 126.776674 269.184784 
L 127.139254 269.187748 
L 127.501835 270.121531 
L 127.864415 271.920315 
L 128.226996 302.832 
L 130.039898 302.832 
L 130.402478 288.545364 
L 130.765059 293.430935 
L 131.49022 294.623213 
L 131.8528 293.205238 
L 132.215381 294.577323 
L 132.577961 273.594039 
L 132.940542 277.554108 
L 133.303122 277.734643 
L 134.028283 268.257229 
L 134.390863 269.208038 
L 134.753444 272.768341 
L 135.116024 272.696992 
L 135.478605 271.588295 
L 135.841185 269.238601 
L 136.203766 270.675587 
L 136.566346 270.688505 
L 136.928927 288.579194 
L 137.291507 285.771651 
L 137.654088 289.630921 
L 138.016668 289.8009 
L 138.379248 292.731534 
L 138.741829 298.32347 
L 139.104409 291.463275 
L 139.46699 288.216096 
L 139.82957 289.36243 
L 140.192151 287.575642 
L 140.917312 293.06396 
L 141.279892 272.049986 
L 142.730214 292.926382 
L 143.092794 293.227482 
L 143.455375 295.921774 
L 143.817955 292.616868 
L 144.180536 287.784324 
L 144.543116 280.702195 
L 144.905697 279.89036 
L 145.268277 255.633012 
L 145.630858 298.79617 
L 145.993438 298.953909 
L 146.356019 298.477828 
L 146.718599 299.071467 
L 147.08118 295.893682 
L 147.44376 295.992285 
L 147.80634 292.364346 
L 148.168921 284.275428 
L 148.894082 285.995794 
L 149.256662 284.241879 
L 149.619243 297.287507 
L 149.981823 253.470295 
L 150.344404 265.679564 
L 150.706984 266.231517 
L 151.069565 277.058541 
L 151.432145 274.620501 
L 151.794726 276.377101 
L 152.157306 279.437083 
L 152.519886 277.834139 
L 153.245047 283.336974 
L 153.607628 282.726971 
L 153.970208 280.030497 
L 154.332789 302.832 
L 158.321174 302.832 
L 158.683754 244.009808 
L 159.046335 252.752248 
L 159.408915 253.80401 
L 160.134076 269.661516 
L 160.496657 273.558239 
L 160.859237 275.10055 
L 161.221818 271.455267 
L 161.584398 274.939257 
L 162.309559 277.729873 
L 162.672139 270.407702 
L 163.03472 302.832 
L 165.210203 302.832 
L 165.572783 298.875749 
L 165.935364 289.673552 
L 166.297944 285.465512 
L 166.660524 283.488165 
L 167.023105 289.261911 
L 167.385685 291.736985 
L 167.748266 282.343326 
L 168.110846 281.910245 
L 168.473427 285.602151 
L 168.836007 286.171112 
L 169.198588 295.034224 
L 169.561168 291.494754 
L 170.286329 286.2257 
L 170.64891 280.013852 
L 171.01149 285.903289 
L 171.37407 282.444457 
L 171.736651 302.56852 
L 172.099231 302.832 
L 172.461812 302.832 
L 172.824392 301.891014 
L 173.186973 289.890904 
L 173.549553 282.357502 
L 173.912134 288.459083 
L 174.274714 297.998007 
L 174.637295 302.832 
L 175.725036 302.832 
L 176.087616 274.223633 
L 176.450197 268.786719 
L 176.812777 269.832068 
L 177.175358 261.011333 
L 177.537938 262.877577 
L 177.900519 262.389613 
L 178.263099 262.377535 
L 178.62568 256.905928 
L 178.98826 255.574874 
L 179.350841 259.745786 
L 179.713421 267.090775 
L 180.076002 271.832737 
L 180.438582 294.174701 
L 180.801162 297.129041 
L 181.163743 297.485158 
L 181.526323 297.619701 
L 181.888904 298.201097 
L 182.614065 297.622795 
L 182.976645 299.509687 
L 183.339226 300.007498 
L 183.701806 299.900415 
L 184.064387 297.754989 
L 184.426967 296.361918 
L 184.789548 290.019202 
L 185.152128 291.472054 
L 185.514708 290.778388 
L 185.877289 290.394504 
L 186.239869 289.516446 
L 186.60245 289.841844 
L 186.96503 286.9979 
L 187.327611 286.529654 
L 187.690191 287.742255 
L 188.052772 288.467809 
L 188.415352 287.97476 
L 188.777933 286.864821 
L 189.140513 298.368205 
L 189.503094 301.173126 
L 190.953415 296.958659 
L 191.315996 295.293821 
L 191.678576 298.04176 
L 192.041157 297.077888 
L 192.403737 297.517187 
L 192.766318 299.496833 
L 193.128898 299.919774 
L 193.491479 288.220638 
L 194.21664 291.296065 
L 194.57922 294.400191 
L 194.9418 292.901001 
L 195.304381 292.355858 
L 196.029542 294.85001 
L 196.392122 293.999816 
L 196.754703 293.664637 
L 197.117283 294.68652 
L 197.479864 294.980247 
L 197.842444 299.641098 
L 198.205025 297.629179 
L 198.567605 299.384085 
L 198.930186 299.866797 
L 199.292766 302.671141 
L 199.655346 300.496959 
L 200.017927 302.122527 
L 200.380507 301.509127 
L 200.743088 302.832 
L 201.105668 301.612139 
L 201.468249 302.608967 
L 201.830829 302.705234 
L 202.19341 281.309894 
L 202.918571 276.197755 
L 203.281151 275.648531 
L 203.643732 274.476787 
L 204.368892 270.17482 
L 204.731473 270.743338 
L 205.456634 273.166696 
L 205.819214 275.456738 
L 206.181795 272.06047 
L 206.544375 302.832 
L 206.906956 293.953696 
L 207.269536 296.257785 
L 207.632117 297.096225 
L 208.357278 294.369176 
L 209.082438 298.653972 
L 209.445019 294.514868 
L 209.807599 292.70964 
L 210.17018 294.409758 
L 210.53276 293.202751 
L 210.53276 293.202751 
" clip-path="url(#p5d39b0a87d)" style="fill: none; stroke: #ffa500; stroke-width: 1.5; stroke-linecap: square"/>
   </g>
   <g id="patch_13">
    <path d="M 55.584 307.872 
L 55.584 196.992 
" style="fill: none; stroke: #000000; stroke-width: 0.8; stroke-linejoin: miter; stroke-linecap: square"/>
   </g>
   <g id="patch_14">
    <path d="M 217.911273 307.872 
L 217.911273 196.992 
" style="fill: none; stroke: #000000; stroke-width: 0.8; stroke-linejoin: miter; stroke-linecap: square"/>
   </g>
   <g id="patch_15">
    <path d="M 55.584 307.872 
L 217.911273 307.872 
" style="fill: none; stroke: #000000; stroke-width: 0.8; stroke-linejoin: miter; stroke-linecap: square"/>
   </g>
   <g id="patch_16">
    <path d="M 55.584 196.992 
L 217.911273 196.992 
" style="fill: none; stroke: #000000; stroke-width: 0.8; stroke-linejoin: miter; stroke-linecap: square"/>
   </g>
   <g id="text_26">
    <!-- VAE -->
    <g transform="translate(125.130136 190.992) scale(0.12 -0.12)">
     <defs>
      <path id="DejaVuSans-56" d="M 1831 0 
L 50 4666 
L 709 4666 
L 2188 738 
L 3669 4666 
L 4325 4666 
L 2547 0 
L 1831 0 
z
" transform="scale(0.015625)"/>
      <path id="DejaVuSans-41" d="M 2188 4044 
L 1331 1722 
L 3047 1722 
L 2188 4044 
z
M 1831 4666 
L 2547 4666 
L 4325 0 
L 3669 0 
L 3244 1197 
L 1141 1197 
L 716 0 
L 50 0 
L 1831 4666 
z
" transform="scale(0.015625)"/>
      <path id="DejaVuSans-45" d="M 628 4666 
L 3578 4666 
L 3578 4134 
L 1259 4134 
L 1259 2753 
L 3481 2753 
L 3481 2222 
L 1259 2222 
L 1259 531 
L 3634 531 
L 3634 0 
L 628 0 
L 628 4666 
z
" transform="scale(0.015625)"/>
     </defs>
     <use xlink:href="#DejaVuSans-56"/>
     <use xlink:href="#DejaVuSans-41" x="62.033203"/>
     <use xlink:href="#DejaVuSans-45" x="130.441406"/>
    </g>
   </g>
  </g>
  <g id="axes_4">
   <g id="patch_17">
    <path d="M 250.376727 307.872 
L 412.704 307.872 
L 412.704 196.992 
L 250.376727 196.992 
z
" style="fill: #ffffff"/>
   </g>
   <g id="matplotlib.axis_7">
    <g id="xtick_16">
     <g id="line2d_27">
      <g>
       <use xlink:href="#mf2f0073ac2" x="257.75524" y="307.872" style="stroke: #000000; stroke-width: 0.8"/>
      </g>
     </g>
     <g id="text_27">
      <!-- 0 -->
      <g transform="translate(254.57399 322.470437) scale(0.1 -0.1)">
       <use xlink:href="#DejaVuSans-30"/>
      </g>
     </g>
    </g>
    <g id="xtick_17">
     <g id="line2d_28">
      <g>
       <use xlink:href="#mf2f0073ac2" x="294.013286" y="307.872" style="stroke: #000000; stroke-width: 0.8"/>
      </g>
     </g>
     <g id="text_28">
      <!-- 100 -->
      <g transform="translate(284.469536 322.470437) scale(0.1 -0.1)">
       <use xlink:href="#DejaVuSans-31"/>
       <use xlink:href="#DejaVuSans-30" x="63.623047"/>
       <use xlink:href="#DejaVuSans-30" x="127.246094"/>
      </g>
     </g>
    </g>
    <g id="xtick_18">
     <g id="line2d_29">
      <g>
       <use xlink:href="#mf2f0073ac2" x="330.271332" y="307.872" style="stroke: #000000; stroke-width: 0.8"/>
      </g>
     </g>
     <g id="text_29">
      <!-- 200 -->
      <g transform="translate(320.727582 322.470437) scale(0.1 -0.1)">
       <use xlink:href="#DejaVuSans-32"/>
       <use xlink:href="#DejaVuSans-30" x="63.623047"/>
       <use xlink:href="#DejaVuSans-30" x="127.246094"/>
      </g>
     </g>
    </g>
    <g id="xtick_19">
     <g id="line2d_30">
      <g>
       <use xlink:href="#mf2f0073ac2" x="366.529378" y="307.872" style="stroke: #000000; stroke-width: 0.8"/>
      </g>
     </g>
     <g id="text_30">
      <!-- 300 -->
      <g transform="translate(356.985628 322.470437) scale(0.1 -0.1)">
       <use xlink:href="#DejaVuSans-33"/>
       <use xlink:href="#DejaVuSans-30" x="63.623047"/>
       <use xlink:href="#DejaVuSans-30" x="127.246094"/>
      </g>
     </g>
    </g>
    <g id="xtick_20">
     <g id="line2d_31">
      <g>
       <use xlink:href="#mf2f0073ac2" x="402.787424" y="307.872" style="stroke: #000000; stroke-width: 0.8"/>
      </g>
     </g>
     <g id="text_31">
      <!-- 400 -->
      <g transform="translate(393.243674 322.470437) scale(0.1 -0.1)">
       <use xlink:href="#DejaVuSans-34"/>
       <use xlink:href="#DejaVuSans-30" x="63.623047"/>
       <use xlink:href="#DejaVuSans-30" x="127.246094"/>
      </g>
     </g>
    </g>
   </g>
   <g id="matplotlib.axis_8">
    <g id="ytick_9">
     <g id="line2d_32">
      <g>
       <use xlink:href="#m7764474121" x="250.376727" y="302.832" style="stroke: #000000; stroke-width: 0.8"/>
      </g>
     </g>
     <g id="text_32">
      <!-- 0 -->
      <g transform="translate(237.014227 306.631219) scale(0.1 -0.1)">
       <use xlink:href="#DejaVuSans-30"/>
      </g>
     </g>
    </g>
    <g id="ytick_10">
     <g id="line2d_33">
      <g>
       <use xlink:href="#m7764474121" x="250.376727" y="261.852661" style="stroke: #000000; stroke-width: 0.8"/>
      </g>
     </g>
     <g id="text_33">
      <!-- 20 -->
      <g transform="translate(230.651727 265.65188) scale(0.1 -0.1)">
       <use xlink:href="#DejaVuSans-32"/>
       <use xlink:href="#DejaVuSans-30" x="63.623047"/>
      </g>
     </g>
    </g>
    <g id="ytick_11">
     <g id="line2d_34">
      <g>
       <use xlink:href="#m7764474121" x="250.376727" y="220.873323" style="stroke: #000000; stroke-width: 0.8"/>
      </g>
     </g>
     <g id="text_34">
      <!-- 40 -->
      <g transform="translate(230.651727 224.672541) scale(0.1 -0.1)">
       <use xlink:href="#DejaVuSans-34"/>
       <use xlink:href="#DejaVuSans-30" x="63.623047"/>
      </g>
     </g>
    </g>
   </g>
   <g id="line2d_35">
    <path d="M 257.75524 202.032 
L 258.11782 224.80119 
L 258.480401 236.572257 
L 258.842981 234.731363 
L 259.205562 246.061804 
L 259.568142 248.023675 
L 259.930722 244.063705 
L 260.655883 257.445477 
L 261.018464 257.4317 
L 261.381044 257.829127 
L 261.743625 250.512646 
L 262.106205 272.737245 
L 262.468786 259.913052 
L 262.831366 252.313413 
L 263.556527 248.719984 
L 263.919108 247.565414 
L 264.644268 272.403431 
L 265.006849 259.528094 
L 265.369429 264.84544 
L 265.73201 260.519255 
L 266.09459 267.189806 
L 266.819751 246.114179 
L 267.182332 247.561014 
L 267.907493 266.099438 
L 268.632654 274.34779 
L 268.995234 271.569979 
L 269.357814 259.49397 
L 269.720395 254.608526 
L 270.082975 257.301318 
L 270.445556 256.513627 
L 270.808136 267.072138 
L 271.170717 266.197389 
L 271.533297 273.524196 
L 271.895878 284.873471 
L 272.258458 285.83745 
L 272.621039 286.245813 
L 272.983619 298.758228 
L 273.3462 296.257351 
L 273.70878 295.936653 
L 274.433941 302.832 
L 274.796521 289.219553 
L 275.159102 282.661953 
L 275.521682 281.767378 
L 275.884263 282.54936 
L 276.246843 285.916911 
L 276.609424 285.030551 
L 277.334585 285.657996 
L 277.697165 282.604621 
L 278.059746 286.830896 
L 278.422326 284.915899 
L 278.784906 287.595646 
L 279.147487 285.664476 
L 279.510067 285.33708 
L 280.235228 268.832266 
L 280.597809 264.838559 
L 280.960389 256.8059 
L 281.32297 281.256339 
L 281.68555 266.077893 
L 282.048131 277.296465 
L 282.410711 276.540334 
L 282.773292 279.733322 
L 283.135872 284.396 
L 283.498452 284.649433 
L 283.861033 283.021467 
L 284.223613 282.69874 
L 284.586194 279.346813 
L 284.948774 279.804533 
L 285.311355 275.405791 
L 285.673935 273.923091 
L 286.036516 278.704972 
L 286.399096 278.637725 
L 286.761677 286.703844 
L 287.124257 285.965306 
L 287.486838 280.331919 
L 287.849418 283.204433 
L 288.211998 284.948471 
L 288.574579 271.050216 
L 288.937159 275.040905 
L 289.29974 274.390974 
L 289.66232 281.333499 
L 290.024901 284.169946 
L 290.387481 292.307459 
L 290.750062 285.795938 
L 291.112642 287.651491 
L 291.475223 286.342508 
L 291.837803 281.363058 
L 292.200384 282.985215 
L 292.925544 272.914976 
L 293.288125 273.832655 
L 293.650705 282.875005 
L 294.013286 280.345477 
L 294.375866 278.708002 
L 294.738447 280.024187 
L 295.101027 280.201283 
L 295.463608 284.275676 
L 295.826188 285.985175 
L 296.551349 282.439902 
L 296.91393 284.579536 
L 297.27651 283.001643 
L 297.63909 284.965127 
L 298.001671 288.766172 
L 298.364251 286.071069 
L 299.089412 294.010757 
L 299.451993 300.422495 
L 299.814573 301.071911 
L 300.177154 300.642066 
L 300.539734 301.984824 
L 301.264895 294.449611 
L 301.627476 294.455163 
L 301.990056 293.421792 
L 302.352636 293.050226 
L 303.077797 290.446028 
L 304.165539 280.162123 
L 304.8907 278.909635 
L 305.25328 281.122107 
L 305.615861 290.731959 
L 305.978441 285.837661 
L 306.703602 269.531583 
L 307.066182 269.517941 
L 307.428763 238.607459 
L 307.791343 241.489686 
L 308.153924 248.98828 
L 308.516504 270.934506 
L 308.879085 275.643147 
L 309.241665 257.979343 
L 309.604246 270.641727 
L 309.966826 248.787944 
L 310.329407 238.277492 
L 310.691987 237.97312 
L 311.417148 247.72855 
L 311.779728 254.487771 
L 312.142309 254.285693 
L 312.504889 253.665332 
L 312.86747 259.824315 
L 313.23005 263.111264 
L 313.592631 262.770904 
L 313.955211 265.141313 
L 314.317792 274.359873 
L 314.680372 272.836784 
L 315.042953 275.401715 
L 315.405533 282.085802 
L 315.768114 264.05344 
L 316.130694 261.237943 
L 316.493274 266.082149 
L 317.218435 272.380897 
L 317.581016 271.526435 
L 317.943596 276.752306 
L 318.306177 265.319808 
L 318.668757 261.544747 
L 319.031338 261.844877 
L 319.393918 267.769152 
L 319.756499 262.734705 
L 320.119079 262.935557 
L 320.48166 269.084084 
L 320.84424 267.642405 
L 321.20682 264.244642 
L 321.569401 269.162511 
L 321.931981 269.178482 
L 322.294562 270.136815 
L 322.657142 271.909065 
L 323.019723 283.130779 
L 323.382303 279.054442 
L 323.744884 287.335499 
L 324.470045 281.57697 
L 324.832625 281.840203 
L 325.557786 269.071916 
L 325.920366 279.40545 
L 326.282947 277.310887 
L 326.645527 283.760234 
L 327.008108 280.211423 
L 327.370688 273.605927 
L 327.733269 277.562228 
L 328.095849 277.718921 
L 328.82101 268.248913 
L 329.183591 269.214364 
L 329.546171 272.76247 
L 329.908752 272.68717 
L 330.271332 271.570823 
L 330.633912 269.226899 
L 330.996493 270.674527 
L 331.359073 270.69607 
L 331.721654 280.934242 
L 332.084234 285.386837 
L 332.446815 280.678762 
L 332.809395 281.576234 
L 333.171976 276.45695 
L 333.534556 289.476938 
L 333.897137 271.254266 
L 334.259717 280.40978 
L 334.622298 263.717608 
L 334.984878 261.595913 
L 335.347458 282.154512 
L 335.710039 281.394347 
L 336.072619 271.925528 
L 337.522941 292.924923 
L 337.885522 293.231098 
L 338.248102 295.912526 
L 338.610683 292.611626 
L 338.973263 287.788294 
L 339.335844 280.703555 
L 339.698424 279.886359 
L 340.061004 255.640056 
L 340.423585 264.759336 
L 340.786165 257.421955 
L 341.511326 284.397705 
L 341.873907 250.936837 
L 342.236487 256.414519 
L 342.599068 263.850302 
L 342.961648 256.094089 
L 343.324229 268.081029 
L 343.686809 266.330797 
L 344.04939 254.769051 
L 344.41197 279.783353 
L 344.77455 253.470303 
L 345.137131 265.686854 
L 345.499711 266.240323 
L 345.862292 277.047847 
L 346.224872 274.616219 
L 346.587453 276.385691 
L 346.950033 279.433107 
L 347.312614 277.837369 
L 348.037775 283.331955 
L 348.400355 282.741984 
L 348.762936 280.039693 
L 349.125516 302.832 
L 349.488096 292.985728 
L 349.850677 291.752816 
L 350.213257 289.980886 
L 350.575838 278.137219 
L 350.938418 294.649926 
L 351.300999 295.050939 
L 351.663579 293.373731 
L 352.02616 293.604094 
L 352.38874 269.825808 
L 352.751321 271.225478 
L 353.113901 288.869598 
L 353.476482 244.016056 
L 353.839062 252.755228 
L 354.201642 253.776736 
L 354.926803 269.67557 
L 355.289384 273.572246 
L 355.651964 275.096178 
L 356.014545 271.467488 
L 356.377125 274.933338 
L 357.102286 277.724965 
L 357.464867 270.412315 
L 357.827447 276.559294 
L 358.190028 275.055286 
L 358.552608 278.171378 
L 358.915188 273.61206 
L 359.277769 291.468425 
L 359.640349 275.567684 
L 360.00293 281.724313 
L 360.36551 270.506871 
L 360.728091 270.873638 
L 361.090671 279.837768 
L 361.453252 273.471595 
L 361.815832 287.36342 
L 362.178413 291.739969 
L 362.540993 282.30874 
L 362.903574 281.914222 
L 363.266154 285.593101 
L 363.628735 286.172555 
L 363.991315 295.036984 
L 364.353895 291.493357 
L 365.079056 286.219876 
L 365.441637 280.011737 
L 365.804217 285.915125 
L 366.166798 282.447502 
L 366.529378 302.832 
L 366.891959 302.415035 
L 367.254539 268.833289 
L 367.61712 249.177598 
L 367.9797 251.077107 
L 368.342281 256.900773 
L 368.704861 272.157563 
L 369.067441 274.092741 
L 369.430022 282.838853 
L 369.792602 267.292814 
L 370.155183 269.793664 
L 370.517763 299.95741 
L 370.880344 274.226836 
L 371.242924 268.762751 
L 371.605505 269.835527 
L 371.968085 261.005823 
L 372.330666 262.869226 
L 372.693246 262.385678 
L 373.055827 262.365626 
L 373.418407 256.895661 
L 373.780987 255.35793 
L 374.143568 259.732776 
L 374.506148 267.082192 
L 374.868729 271.830483 
L 375.231309 278.647627 
L 375.59389 275.485172 
L 375.95647 275.414103 
L 376.681631 290.848213 
L 377.044212 283.206294 
L 377.406792 282.782006 
L 377.769373 288.317938 
L 378.131953 289.239909 
L 378.494533 282.624928 
L 378.857114 285.139117 
L 379.219694 290.293199 
L 379.582275 290.010346 
L 379.944855 291.474279 
L 380.307436 290.783636 
L 380.670016 290.397215 
L 381.032597 289.515086 
L 381.395177 289.847067 
L 381.757758 287.004831 
L 382.120338 285.635822 
L 382.482919 287.740885 
L 382.845499 288.460273 
L 383.208079 287.970404 
L 383.57066 286.863358 
L 383.93324 287.565811 
L 384.295821 293.009607 
L 384.658401 285.766601 
L 385.020982 282.389637 
L 385.383562 286.142439 
L 385.746143 293.421568 
L 386.471304 283.299837 
L 386.833884 292.808773 
L 387.196465 292.653689 
L 387.921625 286.51382 
L 389.009367 291.295503 
L 389.371947 294.397014 
L 389.734528 292.900995 
L 390.097108 292.356366 
L 390.822269 294.844723 
L 391.18485 293.994293 
L 391.54743 293.676314 
L 391.910011 294.684607 
L 392.272591 294.972679 
L 392.635171 290.474953 
L 392.997752 290.708068 
L 393.360332 290.591455 
L 393.722913 291.4791 
L 394.085493 296.416525 
L 394.448074 293.018958 
L 394.810654 280.530694 
L 395.173235 288.728426 
L 395.535815 291.053073 
L 395.898396 288.110611 
L 396.260976 286.498638 
L 396.623557 292.515415 
L 396.986137 281.307514 
L 397.711298 276.420376 
L 398.073878 275.645833 
L 398.436459 274.484618 
L 399.16162 270.178808 
L 399.5242 270.739758 
L 400.249361 273.172966 
L 400.611942 275.472726 
L 400.974522 272.054166 
L 401.337103 274.701055 
L 401.699683 280.765886 
L 402.062263 277.907358 
L 402.424844 276.949151 
L 402.787424 283.482234 
L 403.150005 282.083433 
L 403.512585 276.120839 
L 403.875166 281.991867 
L 404.237746 276.172424 
L 404.600327 276.85891 
L 404.962907 276.137069 
L 405.325488 275.837152 
L 405.325488 275.837152 
" clip-path="url(#pb1267aa86c)" style="fill: none; stroke: #ff0000; stroke-width: 1.5; stroke-linecap: square"/>
   </g>
   <g id="patch_18">
    <path d="M 250.376727 307.872 
L 250.376727 196.992 
" style="fill: none; stroke: #000000; stroke-width: 0.8; stroke-linejoin: miter; stroke-linecap: square"/>
   </g>
   <g id="patch_19">
    <path d="M 412.704 307.872 
L 412.704 196.992 
" style="fill: none; stroke: #000000; stroke-width: 0.8; stroke-linejoin: miter; stroke-linecap: square"/>
   </g>
   <g id="patch_20">
    <path d="M 250.376727 307.872 
L 412.704 307.872 
" style="fill: none; stroke: #000000; stroke-width: 0.8; stroke-linejoin: miter; stroke-linecap: square"/>
   </g>
   <g id="patch_21">
    <path d="M 250.376727 196.992 
L 412.704 196.992 
" style="fill: none; stroke: #000000; stroke-width: 0.8; stroke-linejoin: miter; stroke-linecap: square"/>
   </g>
   <g id="text_35">
    <!-- VRNN -->
    <g transform="translate(314.289426 190.992) scale(0.12 -0.12)">
     <use xlink:href="#DejaVuSans-56"/>
     <use xlink:href="#DejaVuSans-52" x="68.408203"/>
     <use xlink:href="#DejaVuSans-4e" x="137.890625"/>
     <use xlink:href="#DejaVuSans-4e" x="212.695312"/>
    </g>
   </g>
  </g>
  <g id="text_36">
   <!-- VMAF Scores Over Frames: Video #22 -->
   <g transform="translate(114.338063 16.318125) scale(0.12 -0.12)">
    <defs>
     <path id="DejaVuSans-4d" d="M 628 4666 
L 1569 4666 
L 2759 1491 
L 3956 4666 
L 4897 4666 
L 4897 0 
L 4281 0 
L 4281 4097 
L 3078 897 
L 2444 897 
L 1241 4097 
L 1241 0 
L 628 0 
L 628 4666 
z
" transform="scale(0.015625)"/>
     <path id="DejaVuSans-73" d="M 2834 3397 
L 2834 2853 
Q 2591 2978 2328 3040 
Q 2066 3103 1784 3103 
Q 1356 3103 1142 2972 
Q 928 2841 928 2578 
Q 928 2378 1081 2264 
Q 1234 2150 1697 2047 
L 1894 2003 
Q 2506 1872 2764 1633 
Q 3022 1394 3022 966 
Q 3022 478 2636 193 
Q 2250 -91 1575 -91 
Q 1294 -91 989 -36 
Q 684 19 347 128 
L 347 722 
Q 666 556 975 473 
Q 1284 391 1588 391 
Q 1994 391 2212 530 
Q 2431 669 2431 922 
Q 2431 1156 2273 1281 
Q 2116 1406 1581 1522 
L 1381 1569 
Q 847 1681 609 1914 
Q 372 2147 372 2553 
Q 372 3047 722 3315 
Q 1072 3584 1716 3584 
Q 2034 3584 2315 3537 
Q 2597 3491 2834 3397 
z
" transform="scale(0.015625)"/>
     <path id="DejaVuSans-76" d="M 191 3500 
L 800 3500 
L 1894 563 
L 2988 3500 
L 3597 3500 
L 2284 0 
L 1503 0 
L 191 3500 
z
" transform="scale(0.015625)"/>
     <path id="DejaVuSans-61" d="M 2194 1759 
Q 1497 1759 1228 1600 
Q 959 1441 959 1056 
Q 959 750 1161 570 
Q 1363 391 1709 391 
Q 2188 391 2477 730 
Q 2766 1069 2766 1631 
L 2766 1759 
L 2194 1759 
z
M 3341 1997 
L 3341 0 
L 2766 0 
L 2766 531 
Q 2569 213 2275 61 
Q 1981 -91 1556 -91 
Q 1019 -91 701 211 
Q 384 513 384 1019 
Q 384 1609 779 1909 
Q 1175 2209 1959 2209 
L 2766 2209 
L 2766 2266 
Q 2766 2663 2505 2880 
Q 2244 3097 1772 3097 
Q 1472 3097 1187 3025 
Q 903 2953 641 2809 
L 641 3341 
Q 956 3463 1253 3523 
Q 1550 3584 1831 3584 
Q 2591 3584 2966 3190 
Q 3341 2797 3341 1997 
z
" transform="scale(0.015625)"/>
     <path id="DejaVuSans-6d" d="M 3328 2828 
Q 3544 3216 3844 3400 
Q 4144 3584 4550 3584 
Q 5097 3584 5394 3201 
Q 5691 2819 5691 2113 
L 5691 0 
L 5113 0 
L 5113 2094 
Q 5113 2597 4934 2840 
Q 4756 3084 4391 3084 
Q 3944 3084 3684 2787 
Q 3425 2491 3425 1978 
L 3425 0 
L 2847 0 
L 2847 2094 
Q 2847 2600 2669 2842 
Q 2491 3084 2119 3084 
Q 1678 3084 1418 2786 
Q 1159 2488 1159 1978 
L 1159 0 
L 581 0 
L 581 3500 
L 1159 3500 
L 1159 2956 
Q 1356 3278 1631 3431 
Q 1906 3584 2284 3584 
Q 2666 3584 2933 3390 
Q 3200 3197 3328 2828 
z
" transform="scale(0.015625)"/>
     <path id="DejaVuSans-3a" d="M 750 794 
L 1409 794 
L 1409 0 
L 750 0 
L 750 794 
z
M 750 3309 
L 1409 3309 
L 1409 2516 
L 750 2516 
L 750 3309 
z
" transform="scale(0.015625)"/>
     <path id="DejaVuSans-23" d="M 3272 2816 
L 2363 2816 
L 2100 1772 
L 3016 1772 
L 3272 2816 
z
M 2803 4594 
L 2478 3297 
L 3391 3297 
L 3719 4594 
L 4219 4594 
L 3897 3297 
L 4872 3297 
L 4872 2816 
L 3775 2816 
L 3519 1772 
L 4513 1772 
L 4513 1294 
L 3397 1294 
L 3072 0 
L 2572 0 
L 2894 1294 
L 1978 1294 
L 1656 0 
L 1153 0 
L 1478 1294 
L 494 1294 
L 494 1772 
L 1594 1772 
L 1856 2816 
L 850 2816 
L 850 3297 
L 1978 3297 
L 2297 4594 
L 2803 4594 
z
" transform="scale(0.015625)"/>
    </defs>
    <use xlink:href="#DejaVuSans-56"/>
    <use xlink:href="#DejaVuSans-4d" x="68.408203"/>
    <use xlink:href="#DejaVuSans-41" x="154.6875"/>
    <use xlink:href="#DejaVuSans-46" x="223.095703"/>
    <use xlink:href="#DejaVuSans-20" x="280.615234"/>
    <use xlink:href="#DejaVuSans-53" x="312.402344"/>
    <use xlink:href="#DejaVuSans-63" x="375.878906"/>
    <use xlink:href="#DejaVuSans-6f" x="430.859375"/>
    <use xlink:href="#DejaVuSans-72" x="492.041016"/>
    <use xlink:href="#DejaVuSans-65" x="530.904297"/>
    <use xlink:href="#DejaVuSans-73" x="592.427734"/>
    <use xlink:href="#DejaVuSans-20" x="644.527344"/>
    <use xlink:href="#DejaVuSans-4f" x="676.314453"/>
    <use xlink:href="#DejaVuSans-76" x="755.025391"/>
    <use xlink:href="#DejaVuSans-65" x="814.205078"/>
    <use xlink:href="#DejaVuSans-72" x="875.728516"/>
    <use xlink:href="#DejaVuSans-20" x="916.841797"/>
    <use xlink:href="#DejaVuSans-46" x="948.628906"/>
    <use xlink:href="#DejaVuSans-72" x="998.898438"/>
    <use xlink:href="#DejaVuSans-61" x="1040.011719"/>
    <use xlink:href="#DejaVuSans-6d" x="1101.291016"/>
    <use xlink:href="#DejaVuSans-65" x="1198.703125"/>
    <use xlink:href="#DejaVuSans-73" x="1260.226562"/>
    <use xlink:href="#DejaVuSans-3a" x="1312.326172"/>
    <use xlink:href="#DejaVuSans-20" x="1346.017578"/>
    <use xlink:href="#DejaVuSans-56" x="1377.804688"/>
    <use xlink:href="#DejaVuSans-69" x="1443.962891"/>
    <use xlink:href="#DejaVuSans-64" x="1471.746094"/>
    <use xlink:href="#DejaVuSans-65" x="1535.222656"/>
    <use xlink:href="#DejaVuSans-6f" x="1596.746094"/>
    <use xlink:href="#DejaVuSans-20" x="1657.927734"/>
    <use xlink:href="#DejaVuSans-23" x="1689.714844"/>
    <use xlink:href="#DejaVuSans-32" x="1773.503906"/>
    <use xlink:href="#DejaVuSans-32" x="1837.126953"/>
   </g>
  </g>
  <g id="text_37">
   <!-- Video Frames -->
   <g transform="translate(187.847438 339.936375) scale(0.12 -0.12)">
    <use xlink:href="#DejaVuSans-56"/>
    <use xlink:href="#DejaVuSans-69" x="66.158203"/>
    <use xlink:href="#DejaVuSans-64" x="93.941406"/>
    <use xlink:href="#DejaVuSans-65" x="157.417969"/>
    <use xlink:href="#DejaVuSans-6f" x="218.941406"/>
    <use xlink:href="#DejaVuSans-20" x="280.123047"/>
    <use xlink:href="#DejaVuSans-46" x="311.910156"/>
    <use xlink:href="#DejaVuSans-72" x="362.179688"/>
    <use xlink:href="#DejaVuSans-61" x="403.292969"/>
    <use xlink:href="#DejaVuSans-6d" x="464.572266"/>
    <use xlink:href="#DejaVuSans-65" x="561.984375"/>
    <use xlink:href="#DejaVuSans-73" x="623.507812"/>
   </g>
  </g>
  <g id="text_38">
   <!-- Raw VMAF Scores -->
   <g transform="translate(16.318125 226.284562) rotate(-90) scale(0.12 -0.12)">
    <defs>
     <path id="DejaVuSans-77" d="M 269 3500 
L 844 3500 
L 1563 769 
L 2278 3500 
L 2956 3500 
L 3675 769 
L 4391 3500 
L 4966 3500 
L 4050 0 
L 3372 0 
L 2619 2869 
L 1863 0 
L 1184 0 
L 269 3500 
z
" transform="scale(0.015625)"/>
    </defs>
    <use xlink:href="#DejaVuSans-52"/>
    <use xlink:href="#DejaVuSans-61" x="67.232422"/>
    <use xlink:href="#DejaVuSans-77" x="128.511719"/>
    <use xlink:href="#DejaVuSans-20" x="210.298828"/>
    <use xlink:href="#DejaVuSans-56" x="242.085938"/>
    <use xlink:href="#DejaVuSans-4d" x="310.494141"/>
    <use xlink:href="#DejaVuSans-41" x="396.773438"/>
    <use xlink:href="#DejaVuSans-46" x="465.181641"/>
    <use xlink:href="#DejaVuSans-20" x="522.701172"/>
    <use xlink:href="#DejaVuSans-53" x="554.488281"/>
    <use xlink:href="#DejaVuSans-63" x="617.964844"/>
    <use xlink:href="#DejaVuSans-6f" x="672.945312"/>
    <use xlink:href="#DejaVuSans-72" x="734.126953"/>
    <use xlink:href="#DejaVuSans-65" x="772.990234"/>
    <use xlink:href="#DejaVuSans-73" x="834.513672"/>
   </g>
  </g>
 </g>
 <defs>
  <clipPath id="p5395549431">
   <rect x="55.584" y="41.76" width="162.327273" height="110.88"/>
  </clipPath>
  <clipPath id="p73d91e4e93">
   <rect x="250.376727" y="41.76" width="162.327273" height="110.88"/>
  </clipPath>
  <clipPath id="p5d39b0a87d">
   <rect x="55.584" y="196.992" width="162.327273" height="110.88"/>
  </clipPath>
  <clipPath id="pb1267aa86c">
   <rect x="250.376727" y="196.992" width="162.327273" height="110.88"/>
  </clipPath>
 </defs>
</svg>
