<?xml version="1.0" encoding="utf-8" standalone="no"?>
<!DOCTYPE svg PUBLIC "-//W3C//DTD SVG 1.1//EN"
  "http://www.w3.org/Graphics/SVG/1.1/DTD/svg11.dtd">
<svg xmlns:xlink="http://www.w3.org/1999/xlink" width="422.315599pt" height="349.632pt" viewBox="0 0 422.315599 349.632" xmlns="http://www.w3.org/2000/svg" version="1.1">
 <metadata>
  <rdf:RDF xmlns:dc="http://purl.org/dc/elements/1.1/" xmlns:cc="http://creativecommons.org/ns#" xmlns:rdf="http://www.w3.org/1999/02/22-rdf-syntax-ns#">
   <cc:Work>
    <dc:type rdf:resource="http://purl.org/dc/dcmitype/StillImage"/>
    <dc:date>2024-07-24T16:31:51.290300</dc:date>
    <dc:format>image/svg+xml</dc:format>
    <dc:creator>
     <cc:Agent>
      <dc:title>Matplotlib v3.7.2, https://matplotlib.org/</dc:title>
     </cc:Agent>
    </dc:creator>
   </cc:Work>
  </rdf:RDF>
 </metadata>
 <defs>
  <style type="text/css">*{stroke-linejoin: round; stroke-linecap: butt}</style>
 </defs>
 <g id="figure_1">
  <g id="patch_1">
   <path d="M 0 349.632 
L 422.315599 349.632 
L 422.315599 -0 
L 0 -0 
z
" style="fill: #ffffff"/>
  </g>
  <g id="axes_1">
   <g id="patch_2">
    <path d="M 55.584 152.64 
L 217.911273 152.64 
L 217.911273 41.76 
L 55.584 41.76 
z
" style="fill: #ffffff"/>
   </g>
   <g id="matplotlib.axis_1">
    <g id="xtick_1">
     <g id="line2d_1">
      <defs>
       <path id="m80e55c792a" d="M 0 0 
L 0 3.5 
" style="stroke: #000000; stroke-width: 0.8"/>
      </defs>
      <g>
       <use xlink:href="#m80e55c792a" x="62.962512" y="152.64" style="stroke: #000000; stroke-width: 0.8"/>
      </g>
     </g>
     <g id="text_1">
      <!-- 0 -->
      <g transform="translate(59.781262 167.238437) scale(0.1 -0.1)">
       <defs>
        <path id="DejaVuSans-30" d="M 2034 4250 
Q 1547 4250 1301 3770 
Q 1056 3291 1056 2328 
Q 1056 1369 1301 889 
Q 1547 409 2034 409 
Q 2525 409 2770 889 
Q 3016 1369 3016 2328 
Q 3016 3291 2770 3770 
Q 2525 4250 2034 4250 
z
M 2034 4750 
Q 2819 4750 3233 4129 
Q 3647 3509 3647 2328 
Q 3647 1150 3233 529 
Q 2819 -91 2034 -91 
Q 1250 -91 836 529 
Q 422 1150 422 2328 
Q 422 3509 836 4129 
Q 1250 4750 2034 4750 
z
" transform="scale(0.015625)"/>
       </defs>
       <use xlink:href="#DejaVuSans-30"/>
      </g>
     </g>
    </g>
    <g id="xtick_2">
     <g id="line2d_2">
      <g>
       <use xlink:href="#m80e55c792a" x="112.234715" y="152.64" style="stroke: #000000; stroke-width: 0.8"/>
      </g>
     </g>
     <g id="text_2">
      <!-- 200 -->
      <g transform="translate(102.690965 167.238437) scale(0.1 -0.1)">
       <defs>
        <path id="DejaVuSans-32" d="M 1228 531 
L 3431 531 
L 3431 0 
L 469 0 
L 469 531 
Q 828 903 1448 1529 
Q 2069 2156 2228 2338 
Q 2531 2678 2651 2914 
Q 2772 3150 2772 3378 
Q 2772 3750 2511 3984 
Q 2250 4219 1831 4219 
Q 1534 4219 1204 4116 
Q 875 4013 500 3803 
L 500 4441 
Q 881 4594 1212 4672 
Q 1544 4750 1819 4750 
Q 2544 4750 2975 4387 
Q 3406 4025 3406 3419 
Q 3406 3131 3298 2873 
Q 3191 2616 2906 2266 
Q 2828 2175 2409 1742 
Q 1991 1309 1228 531 
z
" transform="scale(0.015625)"/>
       </defs>
       <use xlink:href="#DejaVuSans-32"/>
       <use xlink:href="#DejaVuSans-30" x="63.623047"/>
       <use xlink:href="#DejaVuSans-30" x="127.246094"/>
      </g>
     </g>
    </g>
    <g id="xtick_3">
     <g id="line2d_3">
      <g>
       <use xlink:href="#m80e55c792a" x="161.506918" y="152.64" style="stroke: #000000; stroke-width: 0.8"/>
      </g>
     </g>
     <g id="text_3">
      <!-- 400 -->
      <g transform="translate(151.963168 167.238437) scale(0.1 -0.1)">
       <defs>
        <path id="DejaVuSans-34" d="M 2419 4116 
L 825 1625 
L 2419 1625 
L 2419 4116 
z
M 2253 4666 
L 3047 4666 
L 3047 1625 
L 3713 1625 
L 3713 1100 
L 3047 1100 
L 3047 0 
L 2419 0 
L 2419 1100 
L 313 1100 
L 313 1709 
L 2253 4666 
z
" transform="scale(0.015625)"/>
       </defs>
       <use xlink:href="#DejaVuSans-34"/>
       <use xlink:href="#DejaVuSans-30" x="63.623047"/>
       <use xlink:href="#DejaVuSans-30" x="127.246094"/>
      </g>
     </g>
    </g>
    <g id="xtick_4">
     <g id="line2d_4">
      <g>
       <use xlink:href="#m80e55c792a" x="210.779121" y="152.64" style="stroke: #000000; stroke-width: 0.8"/>
      </g>
     </g>
     <g id="text_4">
      <!-- 600 -->
      <g transform="translate(201.235371 167.238437) scale(0.1 -0.1)">
       <defs>
        <path id="DejaVuSans-36" d="M 2113 2584 
Q 1688 2584 1439 2293 
Q 1191 2003 1191 1497 
Q 1191 994 1439 701 
Q 1688 409 2113 409 
Q 2538 409 2786 701 
Q 3034 994 3034 1497 
Q 3034 2003 2786 2293 
Q 2538 2584 2113 2584 
z
M 3366 4563 
L 3366 3988 
Q 3128 4100 2886 4159 
Q 2644 4219 2406 4219 
Q 1781 4219 1451 3797 
Q 1122 3375 1075 2522 
Q 1259 2794 1537 2939 
Q 1816 3084 2150 3084 
Q 2853 3084 3261 2657 
Q 3669 2231 3669 1497 
Q 3669 778 3244 343 
Q 2819 -91 2113 -91 
Q 1303 -91 875 529 
Q 447 1150 447 2328 
Q 447 3434 972 4092 
Q 1497 4750 2381 4750 
Q 2619 4750 2861 4703 
Q 3103 4656 3366 4563 
z
" transform="scale(0.015625)"/>
       </defs>
       <use xlink:href="#DejaVuSans-36"/>
       <use xlink:href="#DejaVuSans-30" x="63.623047"/>
       <use xlink:href="#DejaVuSans-30" x="127.246094"/>
      </g>
     </g>
    </g>
   </g>
   <g id="matplotlib.axis_2">
    <g id="ytick_1">
     <g id="line2d_5">
      <defs>
       <path id="me05378433e" d="M 0 0 
L -3.5 0 
" style="stroke: #000000; stroke-width: 0.8"/>
      </defs>
      <g>
       <use xlink:href="#me05378433e" x="55.584" y="147.6" style="stroke: #000000; stroke-width: 0.8"/>
      </g>
     </g>
     <g id="text_5">
      <!-- 0 -->
      <g transform="translate(42.2215 151.399219) scale(0.1 -0.1)">
       <use xlink:href="#DejaVuSans-30"/>
      </g>
     </g>
    </g>
    <g id="ytick_2">
     <g id="line2d_6">
      <g>
       <use xlink:href="#me05378433e" x="55.584" y="104.416287" style="stroke: #000000; stroke-width: 0.8"/>
      </g>
     </g>
     <g id="text_6">
      <!-- 20 -->
      <g transform="translate(35.859 108.215505) scale(0.1 -0.1)">
       <use xlink:href="#DejaVuSans-32"/>
       <use xlink:href="#DejaVuSans-30" x="63.623047"/>
      </g>
     </g>
    </g>
    <g id="ytick_3">
     <g id="line2d_7">
      <g>
       <use xlink:href="#me05378433e" x="55.584" y="61.232573" style="stroke: #000000; stroke-width: 0.8"/>
      </g>
     </g>
     <g id="text_7">
      <!-- 40 -->
      <g transform="translate(35.859 65.031792) scale(0.1 -0.1)">
       <use xlink:href="#DejaVuSans-34"/>
       <use xlink:href="#DejaVuSans-30" x="63.623047"/>
      </g>
     </g>
    </g>
   </g>
   <g id="line2d_8">
    <path d="M 62.962512 47.849088 
L 63.208873 49.025293 
L 63.455234 46.8 
L 63.701595 61.440741 
L 63.947956 69.434704 
L 64.440678 73.205228 
L 64.933401 105.341465 
L 65.179762 107.644088 
L 65.426123 106.258584 
L 65.672484 112.186796 
L 65.918845 113.607342 
L 66.411567 134.527573 
L 66.657928 134.484517 
L 66.904289 134.735911 
L 67.15065 135.884377 
L 67.397011 134.486285 
L 67.643372 124.427274 
L 68.382455 109.38928 
L 68.875177 104.685056 
L 69.121538 106.064261 
L 69.367899 104.319106 
L 69.61426 109.287906 
L 70.106982 112.1435 
L 70.353343 110.024355 
L 70.599704 121.271285 
L 70.846065 111.125494 
L 71.092426 106.278513 
L 71.338787 108.328038 
L 71.831509 119.939249 
L 72.07787 121.180031 
L 72.324231 124.263642 
L 72.570592 125.902432 
L 72.816953 131.113067 
L 73.063314 133.715011 
L 73.309675 133.705791 
L 73.556036 128.899647 
L 74.048758 113.492471 
L 74.295119 111.807384 
L 74.787841 130.687939 
L 75.034202 129.638281 
L 75.280563 123.933997 
L 75.526924 125.909544 
L 75.773285 119.735059 
L 76.019646 131.419304 
L 76.266007 135.131407 
L 76.512368 135.039274 
L 77.497812 104.035173 
L 77.744173 104.967382 
L 77.990534 102.684151 
L 78.236895 106.820702 
L 78.729617 136.85711 
L 78.975978 131.099177 
L 79.222339 107.60698 
L 79.4687 107.161702 
L 79.715061 92.632835 
L 79.961422 98.189128 
L 80.207783 91.487513 
L 80.454144 94.010795 
L 80.700505 117.085604 
L 80.946866 117.173105 
L 81.193228 117.798406 
L 81.439589 119.235726 
L 81.932311 83.744032 
L 82.178672 82.332293 
L 82.425033 90.569414 
L 82.671394 122.615985 
L 82.917755 121.786011 
L 83.164116 126.245963 
L 83.410477 125.426409 
L 83.656838 123.836335 
L 83.903199 124.215531 
L 84.14956 99.192996 
L 84.395921 86.58335 
L 84.642282 88.815285 
L 85.135004 124.751042 
L 85.381365 127.921791 
L 85.627726 127.742978 
L 85.874087 120.71946 
L 86.120448 106.299528 
L 86.366809 101.475996 
L 86.61317 113.153069 
L 86.859531 115.583133 
L 87.105892 120.808837 
L 87.352253 122.034318 
L 87.598614 120.529933 
L 87.844975 123.636187 
L 88.337697 108.133156 
L 88.584058 117.898542 
L 88.830419 133.168847 
L 89.07678 136.589971 
L 89.323141 136.585318 
L 89.569502 134.582114 
L 89.815863 134.882163 
L 90.062224 136.603615 
L 90.554946 112.491149 
L 91.047668 129.066034 
L 91.294029 121.550669 
L 91.786751 98.484151 
L 92.033112 101.071073 
L 92.279473 112.447138 
L 92.525834 113.340365 
L 92.772195 112.02418 
L 93.018556 113.01677 
L 93.264917 112.747468 
L 93.511278 106.142247 
L 94.004 117.047074 
L 94.250361 129.652924 
L 94.496722 127.144596 
L 94.743083 126.902595 
L 94.989444 120.963085 
L 95.235805 120.973188 
L 95.482166 120.788224 
L 95.728527 127.763356 
L 95.974888 128.508236 
L 96.221249 126.223455 
L 96.46761 117.125398 
L 96.713971 118.864117 
L 96.960332 116.690245 
L 97.206693 116.81822 
L 97.453054 113.808671 
L 97.699415 119.29286 
L 97.945777 117.524712 
L 98.192138 109.775956 
L 98.438499 109.776539 
L 98.931221 117.641597 
L 99.177582 117.715888 
L 99.423943 108.267313 
L 99.670304 109.542338 
L 99.916665 118.141796 
L 100.163026 122.808861 
L 100.409387 122.971532 
L 100.655748 118.930868 
L 100.902109 116.927995 
L 101.394831 109.327478 
L 101.887553 115.013952 
L 102.133914 113.453368 
L 102.626636 122.511113 
L 102.872997 122.843384 
L 103.119358 126.930126 
L 103.365719 125.627319 
L 103.61208 123.478759 
L 103.858441 123.093985 
L 104.104802 125.521586 
L 104.351163 126.566215 
L 104.597524 125.461414 
L 104.843885 126.875201 
L 105.090246 131.313578 
L 105.336607 132.053388 
L 105.582968 131.914721 
L 105.829329 129.257338 
L 106.07569 128.589173 
L 106.322051 127.222975 
L 106.568412 127.522315 
L 106.814773 127.147766 
L 107.061134 125.940753 
L 107.307495 129.339132 
L 107.553856 124.25536 
L 108.046578 121.072182 
L 108.292939 112.180319 
L 108.5393 110.396959 
L 108.785661 115.528825 
L 109.278383 119.810646 
L 109.524744 115.688246 
L 109.771105 115.120091 
L 110.263827 112.937796 
L 110.510188 117.589157 
L 111.249271 136.299483 
L 111.741993 142.967579 
L 111.988354 141.926338 
L 112.234715 143.60666 
L 112.481076 141.938671 
L 112.727437 142.316058 
L 112.973798 143.694873 
L 113.46652 140.321212 
L 113.712881 140.398831 
L 113.959242 143.410517 
L 114.451965 144.706683 
L 114.698326 143.917967 
L 114.944687 145.865582 
L 115.191048 144.76921 
L 115.437409 142.990888 
L 115.68377 139.859855 
L 115.930131 138.513976 
L 116.176492 135.394385 
L 116.915575 116.931063 
L 117.161936 107.44399 
L 117.408297 109.179245 
L 117.654658 101.217434 
L 118.14738 120.44723 
L 118.393741 119.378258 
L 118.886463 118.924108 
L 119.132824 119.372065 
L 119.379185 124.424346 
L 119.625546 125.363821 
L 119.871907 125.409885 
L 120.118268 127.21995 
L 120.364629 124.281415 
L 120.61099 119.583663 
L 120.857351 120.021993 
L 121.103712 120.230722 
L 121.350073 121.755392 
L 121.596434 129.556944 
L 121.842795 130.20722 
L 122.089156 129.59638 
L 122.335517 124.14463 
L 122.828239 108.283358 
L 123.0746 117.613139 
L 123.320961 120.019592 
L 123.567322 118.363598 
L 124.552766 133.560716 
L 124.799127 130.136165 
L 125.045488 124.206201 
L 125.291849 127.255334 
L 125.784571 119.102178 
L 126.030932 111.344468 
L 126.277293 115.250856 
L 126.770015 136.222761 
L 127.016376 139.813242 
L 127.262737 147.6 
L 127.509098 147.583813 
L 127.755459 139.806802 
L 128.00182 139.273973 
L 128.248181 140.196319 
L 128.740903 147.6 
L 129.972708 147.496897 
L 130.219069 145.888791 
L 130.46543 140.495571 
L 130.711791 139.813953 
L 131.204514 132.249732 
L 131.450875 119.868946 
L 131.943597 108.456339 
L 132.436319 121.271682 
L 132.68268 123.127319 
L 133.175402 132.999932 
L 133.421763 132.55957 
L 133.668124 128.029906 
L 133.914485 126.854209 
L 134.160846 130.21146 
L 134.407207 124.703827 
L 134.653568 131.208274 
L 134.899929 130.131678 
L 135.392651 126.433628 
L 135.639012 128.713543 
L 135.885373 125.358235 
L 136.131734 126.429578 
L 136.378095 122.432746 
L 136.624456 125.734354 
L 136.870817 123.567704 
L 137.117178 124.67658 
L 137.363539 118.177189 
L 137.6099 123.741817 
L 137.856261 118.301222 
L 138.348983 117.103403 
L 138.595344 113.760849 
L 138.841705 116.271255 
L 139.088066 122.598543 
L 139.334427 125.863551 
L 139.580788 125.358986 
L 139.827149 112.651656 
L 140.319871 101.830927 
L 140.566232 108.564627 
L 140.812593 107.991823 
L 141.058954 107.064575 
L 141.551676 121.029126 
L 141.798037 116.203292 
L 142.044398 117.024135 
L 142.53712 110.857012 
L 143.029842 116.814372 
L 143.276203 117.564056 
L 143.522564 120.304745 
L 143.768925 120.127927 
L 144.015286 119.310658 
L 144.261647 117.033965 
L 144.508008 118.624016 
L 144.754369 118.387261 
L 145.00073 117.536365 
L 145.247091 117.867523 
L 145.493452 120.314872 
L 145.986174 121.302544 
L 146.232535 120.414196 
L 146.725257 123.663458 
L 146.971618 124.187097 
L 147.217979 122.547638 
L 147.710702 128.000461 
L 148.203424 125.163252 
L 148.696146 122.101786 
L 148.942507 123.801035 
L 149.188868 121.149732 
L 149.435229 123.853434 
L 149.68159 117.20697 
L 150.174312 114.279756 
L 150.667034 121.136822 
L 150.913395 121.544545 
L 151.159756 118.577889 
L 151.406117 117.037083 
L 151.652478 113.216916 
L 151.898839 117.070481 
L 152.1452 114.286397 
L 152.391561 124.262543 
L 152.637922 128.461207 
L 152.884283 127.951616 
L 153.130644 131.838256 
L 153.377005 144.834871 
L 153.623366 147.056973 
L 153.869727 147.6 
L 154.116088 146.690214 
L 154.362449 144.339802 
L 154.60881 143.878134 
L 154.855171 146.468651 
L 155.101532 147.6 
L 155.594254 147.6 
L 155.840615 144.580685 
L 156.086976 147.6 
L 156.333337 145.749364 
L 156.579698 139.561298 
L 157.07242 121.245533 
L 157.318781 115.237415 
L 157.811503 126.106175 
L 158.057864 126.952424 
L 158.304225 125.497267 
L 158.550586 125.20717 
L 158.796947 126.835653 
L 159.043308 130.917682 
L 159.289669 130.870934 
L 159.53603 129.565823 
L 159.782391 132.783005 
L 160.275113 128.446233 
L 160.767835 129.446374 
L 161.014196 130.019798 
L 161.260557 128.740029 
L 161.506918 134.02178 
L 161.753279 133.89434 
L 161.99964 131.057755 
L 162.246001 131.635942 
L 162.492362 129.912372 
L 162.738723 129.956769 
L 162.985084 134.927074 
L 163.231445 133.510549 
L 163.477806 133.549918 
L 163.724167 130.673278 
L 163.970529 129.154776 
L 164.21689 129.980194 
L 164.463251 134.258888 
L 164.709612 135.294678 
L 164.955973 135.339924 
L 165.202334 136.023343 
L 165.448695 133.099494 
L 165.695056 131.56478 
L 165.941417 133.912335 
L 166.187778 137.393648 
L 166.434139 144.161225 
L 166.6805 143.031541 
L 166.926861 138.300497 
L 167.173222 124.220782 
L 167.419583 121.663346 
L 167.912305 105.743184 
L 168.158666 114.359941 
L 168.405027 114.122737 
L 168.651388 119.895277 
L 169.14411 115.843557 
L 169.390471 111.06937 
L 169.636832 115.717993 
L 169.883193 111.283033 
L 170.129554 111.507901 
L 170.375915 110.136706 
L 170.622276 121.867112 
L 170.868637 127.060764 
L 171.114998 121.695371 
L 171.361359 125.597438 
L 171.60772 127.205811 
L 171.854081 124.53315 
L 172.100442 131.429638 
L 172.593164 122.096727 
L 173.085886 133.106892 
L 173.332247 131.875633 
L 173.578608 132.385715 
L 173.824969 137.028536 
L 174.07133 138.07947 
L 174.317691 134.972087 
L 174.564052 133.799319 
L 174.810413 134.311873 
L 175.056774 129.715217 
L 175.303135 130.855578 
L 175.549496 133.533894 
L 175.795857 138.463788 
L 176.042218 137.702947 
L 176.288579 133.785234 
L 176.53494 135.106211 
L 176.781301 128.955095 
L 177.027662 131.931569 
L 177.274023 132.926239 
L 177.520384 132.341484 
L 177.766745 133.436269 
L 178.013106 138.245315 
L 178.505828 141.191947 
L 178.752189 141.350341 
L 178.99855 139.451698 
L 179.244911 138.514 
L 179.491272 139.49807 
L 179.737633 131.259112 
L 179.983994 129.314412 
L 180.230355 133.650188 
L 180.476717 134.963744 
L 180.723078 137.282871 
L 180.969439 136.456739 
L 181.462161 132.299984 
L 181.708522 127.852032 
L 181.954883 125.898353 
L 182.201244 125.250859 
L 182.447605 126.522628 
L 182.693966 125.517535 
L 182.940327 130.59098 
L 183.186688 130.411593 
L 183.433049 128.827941 
L 183.67941 122.506024 
L 183.925771 121.334659 
L 184.418493 127.560399 
L 184.664854 125.800112 
L 184.911215 126.193792 
L 185.157576 127.272914 
L 185.403937 131.06626 
L 185.650298 127.016554 
L 185.896659 128.92896 
L 186.14302 126.752311 
L 186.389381 127.407738 
L 186.635742 120.109671 
L 186.882103 122.39656 
L 187.128464 119.653887 
L 187.374825 128.834586 
L 187.621186 128.348092 
L 187.867547 130.61108 
L 188.113908 130.391767 
L 188.360269 132.616741 
L 188.60663 131.719403 
L 188.852991 132.033375 
L 189.099352 127.206012 
L 189.345713 128.36171 
L 189.592074 133.212519 
L 189.838435 126.475689 
L 190.084796 132.076239 
L 190.331157 132.439092 
L 190.577518 128.580791 
L 190.823879 128.369342 
L 191.316601 131.759968 
L 191.562962 128.497112 
L 191.809323 128.387842 
L 192.055684 122.195771 
L 192.302045 131.860467 
L 192.548406 129.446413 
L 192.794767 131.813935 
L 193.041128 130.454172 
L 193.53385 146.250645 
L 193.780211 141.644869 
L 194.026572 140.418438 
L 194.272933 135.499829 
L 194.519294 138.921985 
L 194.765655 139.374699 
L 195.012016 145.313401 
L 195.258377 147.6 
L 195.504738 147.6 
L 195.751099 144.374414 
L 196.243821 143.533049 
L 196.982905 138.228115 
L 197.229266 138.369311 
L 197.475627 142.125586 
L 197.968349 140.478859 
L 198.21471 142.105233 
L 198.707432 147.35778 
L 198.953793 147.6 
L 199.200154 147.6 
L 199.446515 144.807201 
L 199.692876 143.80221 
L 199.939237 131.6182 
L 200.185598 132.466728 
L 200.67832 127.84892 
L 200.924681 130.450258 
L 201.171042 125.606148 
L 201.417403 125.70584 
L 201.663764 128.611679 
L 201.910125 126.021088 
L 202.156486 130.536688 
L 202.402847 127.017433 
L 203.14193 141.814078 
L 203.388291 137.126408 
L 203.634652 137.728801 
L 204.127374 118.672239 
L 204.373735 114.937929 
L 204.620096 130.855766 
L 204.866457 136.464758 
L 205.359179 139.351889 
L 205.60554 147.6 
L 206.590984 147.6 
L 206.837345 146.67396 
L 207.330067 126.270873 
L 207.576428 129.659259 
L 207.822789 126.328864 
L 208.06915 128.505412 
L 208.315511 126.16927 
L 208.808233 117.441585 
L 209.054594 114.177866 
L 209.300955 125.514659 
L 209.547316 128.922098 
L 209.793677 126.644615 
L 210.040038 128.316082 
L 210.53276 115.984089 
L 210.53276 115.984089 
" clip-path="url(#pbcc01c592a)" style="fill: none; stroke: #008000; stroke-width: 1.5; stroke-linecap: square"/>
   </g>
   <g id="patch_3">
    <path d="M 55.584 152.64 
L 55.584 41.76 
" style="fill: none; stroke: #000000; stroke-width: 0.8; stroke-linejoin: miter; stroke-linecap: square"/>
   </g>
   <g id="patch_4">
    <path d="M 217.911273 152.64 
L 217.911273 41.76 
" style="fill: none; stroke: #000000; stroke-width: 0.8; stroke-linejoin: miter; stroke-linecap: square"/>
   </g>
   <g id="patch_5">
    <path d="M 55.584 152.64 
L 217.911273 152.64 
" style="fill: none; stroke: #000000; stroke-width: 0.8; stroke-linejoin: miter; stroke-linecap: square"/>
   </g>
   <g id="patch_6">
    <path d="M 55.584 41.76 
L 217.911273 41.76 
" style="fill: none; stroke: #000000; stroke-width: 0.8; stroke-linejoin: miter; stroke-linecap: square"/>
   </g>
   <g id="text_8">
    <!-- No Prediction (FOSS) -->
    <g transform="translate(74.495761 35.76) scale(0.12 -0.12)">
     <defs>
      <path id="DejaVuSans-4e" d="M 628 4666 
L 1478 4666 
L 3547 763 
L 3547 4666 
L 4159 4666 
L 4159 0 
L 3309 0 
L 1241 3903 
L 1241 0 
L 628 0 
L 628 4666 
z
" transform="scale(0.015625)"/>
      <path id="DejaVuSans-6f" d="M 1959 3097 
Q 1497 3097 1228 2736 
Q 959 2375 959 1747 
Q 959 1119 1226 758 
Q 1494 397 1959 397 
Q 2419 397 2687 759 
Q 2956 1122 2956 1747 
Q 2956 2369 2687 2733 
Q 2419 3097 1959 3097 
z
M 1959 3584 
Q 2709 3584 3137 3096 
Q 3566 2609 3566 1747 
Q 3566 888 3137 398 
Q 2709 -91 1959 -91 
Q 1206 -91 779 398 
Q 353 888 353 1747 
Q 353 2609 779 3096 
Q 1206 3584 1959 3584 
z
" transform="scale(0.015625)"/>
      <path id="DejaVuSans-20" transform="scale(0.015625)"/>
      <path id="DejaVuSans-50" d="M 1259 4147 
L 1259 2394 
L 2053 2394 
Q 2494 2394 2734 2622 
Q 2975 2850 2975 3272 
Q 2975 3691 2734 3919 
Q 2494 4147 2053 4147 
L 1259 4147 
z
M 628 4666 
L 2053 4666 
Q 2838 4666 3239 4311 
Q 3641 3956 3641 3272 
Q 3641 2581 3239 2228 
Q 2838 1875 2053 1875 
L 1259 1875 
L 1259 0 
L 628 0 
L 628 4666 
z
" transform="scale(0.015625)"/>
      <path id="DejaVuSans-72" d="M 2631 2963 
Q 2534 3019 2420 3045 
Q 2306 3072 2169 3072 
Q 1681 3072 1420 2755 
Q 1159 2438 1159 1844 
L 1159 0 
L 581 0 
L 581 3500 
L 1159 3500 
L 1159 2956 
Q 1341 3275 1631 3429 
Q 1922 3584 2338 3584 
Q 2397 3584 2469 3576 
Q 2541 3569 2628 3553 
L 2631 2963 
z
" transform="scale(0.015625)"/>
      <path id="DejaVuSans-65" d="M 3597 1894 
L 3597 1613 
L 953 1613 
Q 991 1019 1311 708 
Q 1631 397 2203 397 
Q 2534 397 2845 478 
Q 3156 559 3463 722 
L 3463 178 
Q 3153 47 2828 -22 
Q 2503 -91 2169 -91 
Q 1331 -91 842 396 
Q 353 884 353 1716 
Q 353 2575 817 3079 
Q 1281 3584 2069 3584 
Q 2775 3584 3186 3129 
Q 3597 2675 3597 1894 
z
M 3022 2063 
Q 3016 2534 2758 2815 
Q 2500 3097 2075 3097 
Q 1594 3097 1305 2825 
Q 1016 2553 972 2059 
L 3022 2063 
z
" transform="scale(0.015625)"/>
      <path id="DejaVuSans-64" d="M 2906 2969 
L 2906 4863 
L 3481 4863 
L 3481 0 
L 2906 0 
L 2906 525 
Q 2725 213 2448 61 
Q 2172 -91 1784 -91 
Q 1150 -91 751 415 
Q 353 922 353 1747 
Q 353 2572 751 3078 
Q 1150 3584 1784 3584 
Q 2172 3584 2448 3432 
Q 2725 3281 2906 2969 
z
M 947 1747 
Q 947 1113 1208 752 
Q 1469 391 1925 391 
Q 2381 391 2643 752 
Q 2906 1113 2906 1747 
Q 2906 2381 2643 2742 
Q 2381 3103 1925 3103 
Q 1469 3103 1208 2742 
Q 947 2381 947 1747 
z
" transform="scale(0.015625)"/>
      <path id="DejaVuSans-69" d="M 603 3500 
L 1178 3500 
L 1178 0 
L 603 0 
L 603 3500 
z
M 603 4863 
L 1178 4863 
L 1178 4134 
L 603 4134 
L 603 4863 
z
" transform="scale(0.015625)"/>
      <path id="DejaVuSans-63" d="M 3122 3366 
L 3122 2828 
Q 2878 2963 2633 3030 
Q 2388 3097 2138 3097 
Q 1578 3097 1268 2742 
Q 959 2388 959 1747 
Q 959 1106 1268 751 
Q 1578 397 2138 397 
Q 2388 397 2633 464 
Q 2878 531 3122 666 
L 3122 134 
Q 2881 22 2623 -34 
Q 2366 -91 2075 -91 
Q 1284 -91 818 406 
Q 353 903 353 1747 
Q 353 2603 823 3093 
Q 1294 3584 2113 3584 
Q 2378 3584 2631 3529 
Q 2884 3475 3122 3366 
z
" transform="scale(0.015625)"/>
      <path id="DejaVuSans-74" d="M 1172 4494 
L 1172 3500 
L 2356 3500 
L 2356 3053 
L 1172 3053 
L 1172 1153 
Q 1172 725 1289 603 
Q 1406 481 1766 481 
L 2356 481 
L 2356 0 
L 1766 0 
Q 1100 0 847 248 
Q 594 497 594 1153 
L 594 3053 
L 172 3053 
L 172 3500 
L 594 3500 
L 594 4494 
L 1172 4494 
z
" transform="scale(0.015625)"/>
      <path id="DejaVuSans-6e" d="M 3513 2113 
L 3513 0 
L 2938 0 
L 2938 2094 
Q 2938 2591 2744 2837 
Q 2550 3084 2163 3084 
Q 1697 3084 1428 2787 
Q 1159 2491 1159 1978 
L 1159 0 
L 581 0 
L 581 3500 
L 1159 3500 
L 1159 2956 
Q 1366 3272 1645 3428 
Q 1925 3584 2291 3584 
Q 2894 3584 3203 3211 
Q 3513 2838 3513 2113 
z
" transform="scale(0.015625)"/>
      <path id="DejaVuSans-28" d="M 1984 4856 
Q 1566 4138 1362 3434 
Q 1159 2731 1159 2009 
Q 1159 1288 1364 580 
Q 1569 -128 1984 -844 
L 1484 -844 
Q 1016 -109 783 600 
Q 550 1309 550 2009 
Q 550 2706 781 3412 
Q 1013 4119 1484 4856 
L 1984 4856 
z
" transform="scale(0.015625)"/>
      <path id="DejaVuSans-46" d="M 628 4666 
L 3309 4666 
L 3309 4134 
L 1259 4134 
L 1259 2759 
L 3109 2759 
L 3109 2228 
L 1259 2228 
L 1259 0 
L 628 0 
L 628 4666 
z
" transform="scale(0.015625)"/>
      <path id="DejaVuSans-4f" d="M 2522 4238 
Q 1834 4238 1429 3725 
Q 1025 3213 1025 2328 
Q 1025 1447 1429 934 
Q 1834 422 2522 422 
Q 3209 422 3611 934 
Q 4013 1447 4013 2328 
Q 4013 3213 3611 3725 
Q 3209 4238 2522 4238 
z
M 2522 4750 
Q 3503 4750 4090 4092 
Q 4678 3434 4678 2328 
Q 4678 1225 4090 567 
Q 3503 -91 2522 -91 
Q 1538 -91 948 565 
Q 359 1222 359 2328 
Q 359 3434 948 4092 
Q 1538 4750 2522 4750 
z
" transform="scale(0.015625)"/>
      <path id="DejaVuSans-53" d="M 3425 4513 
L 3425 3897 
Q 3066 4069 2747 4153 
Q 2428 4238 2131 4238 
Q 1616 4238 1336 4038 
Q 1056 3838 1056 3469 
Q 1056 3159 1242 3001 
Q 1428 2844 1947 2747 
L 2328 2669 
Q 3034 2534 3370 2195 
Q 3706 1856 3706 1288 
Q 3706 609 3251 259 
Q 2797 -91 1919 -91 
Q 1588 -91 1214 -16 
Q 841 59 441 206 
L 441 856 
Q 825 641 1194 531 
Q 1563 422 1919 422 
Q 2459 422 2753 634 
Q 3047 847 3047 1241 
Q 3047 1584 2836 1778 
Q 2625 1972 2144 2069 
L 1759 2144 
Q 1053 2284 737 2584 
Q 422 2884 422 3419 
Q 422 4038 858 4394 
Q 1294 4750 2059 4750 
Q 2388 4750 2728 4690 
Q 3069 4631 3425 4513 
z
" transform="scale(0.015625)"/>
      <path id="DejaVuSans-29" d="M 513 4856 
L 1013 4856 
Q 1481 4119 1714 3412 
Q 1947 2706 1947 2009 
Q 1947 1309 1714 600 
Q 1481 -109 1013 -844 
L 513 -844 
Q 928 -128 1133 580 
Q 1338 1288 1338 2009 
Q 1338 2731 1133 3434 
Q 928 4138 513 4856 
z
" transform="scale(0.015625)"/>
     </defs>
     <use xlink:href="#DejaVuSans-4e"/>
     <use xlink:href="#DejaVuSans-6f" x="74.804688"/>
     <use xlink:href="#DejaVuSans-20" x="135.986328"/>
     <use xlink:href="#DejaVuSans-50" x="167.773438"/>
     <use xlink:href="#DejaVuSans-72" x="226.326172"/>
     <use xlink:href="#DejaVuSans-65" x="265.189453"/>
     <use xlink:href="#DejaVuSans-64" x="326.712891"/>
     <use xlink:href="#DejaVuSans-69" x="390.189453"/>
     <use xlink:href="#DejaVuSans-63" x="417.972656"/>
     <use xlink:href="#DejaVuSans-74" x="472.953125"/>
     <use xlink:href="#DejaVuSans-69" x="512.162109"/>
     <use xlink:href="#DejaVuSans-6f" x="539.945312"/>
     <use xlink:href="#DejaVuSans-6e" x="601.126953"/>
     <use xlink:href="#DejaVuSans-20" x="664.505859"/>
     <use xlink:href="#DejaVuSans-28" x="696.292969"/>
     <use xlink:href="#DejaVuSans-46" x="735.306641"/>
     <use xlink:href="#DejaVuSans-4f" x="792.826172"/>
     <use xlink:href="#DejaVuSans-53" x="871.537109"/>
     <use xlink:href="#DejaVuSans-53" x="935.013672"/>
     <use xlink:href="#DejaVuSans-29" x="998.490234"/>
    </g>
   </g>
  </g>
  <g id="axes_2">
   <g id="patch_7">
    <path d="M 250.376727 152.64 
L 412.704 152.64 
L 412.704 41.76 
L 250.376727 41.76 
z
" style="fill: #ffffff"/>
   </g>
   <g id="matplotlib.axis_3">
    <g id="xtick_5">
     <g id="line2d_9">
      <g>
       <use xlink:href="#m80e55c792a" x="257.75524" y="152.64" style="stroke: #000000; stroke-width: 0.8"/>
      </g>
     </g>
     <g id="text_9">
      <!-- 0 -->
      <g transform="translate(254.57399 167.238437) scale(0.1 -0.1)">
       <use xlink:href="#DejaVuSans-30"/>
      </g>
     </g>
    </g>
    <g id="xtick_6">
     <g id="line2d_10">
      <g>
       <use xlink:href="#m80e55c792a" x="307.027443" y="152.64" style="stroke: #000000; stroke-width: 0.8"/>
      </g>
     </g>
     <g id="text_10">
      <!-- 200 -->
      <g transform="translate(297.483693 167.238437) scale(0.1 -0.1)">
       <use xlink:href="#DejaVuSans-32"/>
       <use xlink:href="#DejaVuSans-30" x="63.623047"/>
       <use xlink:href="#DejaVuSans-30" x="127.246094"/>
      </g>
     </g>
    </g>
    <g id="xtick_7">
     <g id="line2d_11">
      <g>
       <use xlink:href="#m80e55c792a" x="356.299646" y="152.64" style="stroke: #000000; stroke-width: 0.8"/>
      </g>
     </g>
     <g id="text_11">
      <!-- 400 -->
      <g transform="translate(346.755896 167.238437) scale(0.1 -0.1)">
       <use xlink:href="#DejaVuSans-34"/>
       <use xlink:href="#DejaVuSans-30" x="63.623047"/>
       <use xlink:href="#DejaVuSans-30" x="127.246094"/>
      </g>
     </g>
    </g>
    <g id="xtick_8">
     <g id="line2d_12">
      <g>
       <use xlink:href="#m80e55c792a" x="405.571849" y="152.64" style="stroke: #000000; stroke-width: 0.8"/>
      </g>
     </g>
     <g id="text_12">
      <!-- 600 -->
      <g transform="translate(396.028099 167.238437) scale(0.1 -0.1)">
       <use xlink:href="#DejaVuSans-36"/>
       <use xlink:href="#DejaVuSans-30" x="63.623047"/>
       <use xlink:href="#DejaVuSans-30" x="127.246094"/>
      </g>
     </g>
    </g>
   </g>
   <g id="matplotlib.axis_4">
    <g id="ytick_4">
     <g id="line2d_13">
      <g>
       <use xlink:href="#me05378433e" x="250.376727" y="147.6" style="stroke: #000000; stroke-width: 0.8"/>
      </g>
     </g>
     <g id="text_13">
      <!-- 0 -->
      <g transform="translate(237.014227 151.399219) scale(0.1 -0.1)">
       <use xlink:href="#DejaVuSans-30"/>
      </g>
     </g>
    </g>
    <g id="ytick_5">
     <g id="line2d_14">
      <g>
       <use xlink:href="#me05378433e" x="250.376727" y="104.401356" style="stroke: #000000; stroke-width: 0.8"/>
      </g>
     </g>
     <g id="text_14">
      <!-- 20 -->
      <g transform="translate(230.651727 108.200574) scale(0.1 -0.1)">
       <use xlink:href="#DejaVuSans-32"/>
       <use xlink:href="#DejaVuSans-30" x="63.623047"/>
      </g>
     </g>
    </g>
    <g id="ytick_6">
     <g id="line2d_15">
      <g>
       <use xlink:href="#me05378433e" x="250.376727" y="61.202711" style="stroke: #000000; stroke-width: 0.8"/>
      </g>
     </g>
     <g id="text_15">
      <!-- 40 -->
      <g transform="translate(230.651727 65.00193) scale(0.1 -0.1)">
       <use xlink:href="#DejaVuSans-34"/>
       <use xlink:href="#DejaVuSans-30" x="63.623047"/>
      </g>
     </g>
    </g>
   </g>
   <g id="line2d_16">
    <path d="M 257.75524 47.808284 
L 258.001601 48.993444 
L 258.247962 46.8 
L 258.494323 61.406766 
L 258.740684 69.365533 
L 259.233406 73.192089 
L 259.726128 105.323407 
L 259.972489 107.61927 
L 260.21885 106.236073 
L 260.465211 110.359326 
L 260.711572 140.09305 
L 260.957933 139.592971 
L 261.204294 147.6 
L 261.450655 147.6 
L 261.697016 145.915264 
L 261.943377 147.6 
L 262.189738 147.6 
L 262.436099 141.457662 
L 262.68246 140.255667 
L 262.928821 141.882651 
L 263.175182 135.907211 
L 263.421543 141.913248 
L 263.667904 104.672345 
L 263.914265 106.051254 
L 264.160626 104.223191 
L 264.406987 109.275521 
L 264.899709 112.132591 
L 265.14607 110.032942 
L 265.392431 121.26462 
L 265.638792 111.113025 
L 265.885153 106.276481 
L 266.131514 108.315751 
L 266.377875 113.926801 
L 266.624236 147.6 
L 269.334207 147.6 
L 269.580568 130.679499 
L 269.826929 129.644101 
L 270.07329 123.921946 
L 270.319651 125.909822 
L 270.566012 119.75513 
L 270.812373 131.335129 
L 271.058734 135.157497 
L 271.305095 135.033897 
L 272.29054 104.018261 
L 272.536901 130.206606 
L 272.783262 135.679483 
L 273.029623 137.243805 
L 273.275984 147.6 
L 274.015067 147.6 
L 274.261428 137.052846 
L 274.75415 123.896584 
L 275.000511 115.708765 
L 275.246872 130.030403 
L 275.493233 117.035825 
L 275.739594 117.145092 
L 275.985955 117.837775 
L 276.232316 119.226171 
L 276.725038 83.718916 
L 276.971399 82.303651 
L 277.21776 90.551756 
L 277.464121 122.610578 
L 277.710482 121.772913 
L 277.956843 126.2367 
L 278.203204 125.40721 
L 278.449565 147.6 
L 278.695926 146.036918 
L 278.942287 135.276144 
L 279.188648 135.181277 
L 279.435009 135.691062 
L 279.68137 134.810827 
L 279.927731 144.380725 
L 280.174092 147.6 
L 280.420453 143.761239 
L 280.666814 147.6 
L 280.913175 146.49011 
L 281.159536 140.123686 
L 281.405897 113.119367 
L 281.652258 115.578748 
L 281.898619 120.636715 
L 282.14498 122.027558 
L 282.391341 120.520115 
L 282.637702 123.635783 
L 283.130424 108.114711 
L 283.376785 117.888333 
L 283.623146 133.16743 
L 283.869507 136.588342 
L 284.115868 136.526118 
L 284.362229 147.6 
L 284.854951 147.6 
L 285.101312 134.393989 
L 285.347673 131.587898 
L 285.594034 147.6 
L 285.840395 147.6 
L 286.086756 141.555888 
L 286.333117 143.062192 
L 286.579478 143.027454 
L 286.825839 139.737994 
L 287.0722 143.316492 
L 287.318561 113.331196 
L 287.564922 112.007365 
L 287.811283 112.933796 
L 288.057645 112.731013 
L 288.304006 106.623116 
L 288.796728 117.041977 
L 289.043089 129.645527 
L 289.28945 127.141025 
L 289.535811 126.884198 
L 289.782172 120.951577 
L 290.028533 120.940592 
L 290.274894 147.6 
L 291.506699 147.6 
L 291.75306 145.949753 
L 291.999421 132.953037 
L 292.245782 147.6 
L 292.984865 147.6 
L 293.231226 109.752685 
L 293.723948 117.64298 
L 293.970309 117.693853 
L 294.21667 108.281592 
L 294.463031 109.588374 
L 294.709392 118.178876 
L 294.955753 122.790338 
L 295.202114 122.925217 
L 295.448475 118.932976 
L 295.694836 116.913372 
L 295.941197 112.049628 
L 296.187558 147.347543 
L 296.433919 147.6 
L 296.68028 143.303517 
L 296.926641 146.156431 
L 297.173002 147.6 
L 298.897529 147.6 
L 299.14389 126.562597 
L 299.390251 125.296674 
L 299.636612 126.865653 
L 299.882973 131.314299 
L 300.129334 132.031956 
L 300.375695 131.358517 
L 300.622056 129.260145 
L 300.868417 128.57766 
L 301.114778 127.210456 
L 301.361139 127.511833 
L 301.6075 127.138776 
L 301.853861 125.930482 
L 302.100222 147.6 
L 302.346583 147.6 
L 302.592944 147.486068 
L 302.839305 141.549181 
L 303.085666 140.633028 
L 303.332027 138.074008 
L 303.824749 147.214355 
L 304.07111 146.695494 
L 304.317471 145.829177 
L 304.563833 147.6 
L 304.810194 147.6 
L 305.056555 112.932954 
L 305.302916 117.583837 
L 306.041999 136.334405 
L 306.534721 142.774126 
L 306.781082 141.862293 
L 307.027443 143.626254 
L 307.273804 141.939036 
L 307.520165 142.304831 
L 307.766526 143.687836 
L 308.012887 140.955305 
L 308.505609 147.6 
L 310.722858 147.6 
L 310.969219 135.381369 
L 311.708302 116.903443 
L 311.954663 107.445363 
L 312.201024 109.16379 
L 312.447385 101.195746 
L 312.940107 120.444939 
L 313.186468 119.35959 
L 313.67919 118.913795 
L 313.925551 147.6 
L 314.171912 147.6 
L 314.418273 138.271158 
L 314.664634 144.672618 
L 314.910995 131.771444 
L 315.157356 147.421594 
L 315.403717 147.6 
L 316.635522 147.6 
L 316.881883 129.581524 
L 317.128244 124.139684 
L 317.620966 108.266753 
L 317.867327 117.610741 
L 318.113688 119.991338 
L 318.360049 118.397556 
L 319.345493 133.555814 
L 319.591854 130.140624 
L 319.838215 147.6 
L 320.823659 147.6 
L 321.070021 146.569948 
L 321.316382 144.970995 
L 321.809104 147.6 
L 322.548187 147.6 
L 322.794548 139.265195 
L 323.040909 140.191307 
L 323.533631 147.6 
L 324.765436 147.500546 
L 325.011797 145.876333 
L 325.258158 140.492635 
L 325.504519 139.823272 
L 325.75088 147.6 
L 325.997241 147.505717 
L 326.243602 145.924964 
L 326.489963 141.937021 
L 326.736324 144.739589 
L 326.982685 145.47089 
L 327.229046 145.713932 
L 327.721768 147.6 
L 328.460851 147.6 
L 328.707212 126.841306 
L 328.953573 130.233508 
L 329.199934 124.703837 
L 329.446295 131.20673 
L 329.692656 130.113485 
L 330.185378 126.414964 
L 330.431739 128.698774 
L 330.6781 125.349391 
L 330.924461 126.427593 
L 331.170822 122.435383 
L 331.417183 126.053501 
L 331.663544 147.440174 
L 332.156266 127.726896 
L 332.402627 140.754468 
L 332.895349 147.6 
L 334.373515 147.6 
L 334.619876 112.641443 
L 335.112598 101.817876 
L 335.358959 108.472601 
L 335.60532 107.998459 
L 335.851681 107.050923 
L 336.344403 121.013012 
L 336.590764 116.191834 
L 336.837125 117.022673 
L 337.329847 110.857244 
L 337.576209 147.6 
L 340.28618 147.6 
L 340.532541 120.885965 
L 340.778902 121.298492 
L 341.025263 120.396513 
L 341.517985 123.66029 
L 341.764346 124.0835 
L 342.010707 122.539419 
L 342.503429 128.02086 
L 342.996151 125.152846 
L 343.242512 123.735187 
L 343.488873 147.6 
L 343.735234 147.6 
L 343.981595 143.708681 
L 344.227956 142.640066 
L 344.474317 135.484569 
L 345.459761 147.6 
L 346.198844 147.6 
L 346.445205 113.088529 
L 346.691566 117.076568 
L 346.937927 114.267533 
L 347.184288 124.269686 
L 347.430649 128.428321 
L 347.67701 127.949805 
L 347.923371 131.836767 
L 348.169732 144.828746 
L 348.416093 147.075584 
L 348.662454 147.6 
L 348.908815 146.695589 
L 349.155176 144.332604 
L 349.401537 147.6 
L 352.111508 147.6 
L 352.357869 121.803796 
L 352.60423 126.214993 
L 352.850591 126.945922 
L 353.096952 125.492018 
L 353.343313 125.179141 
L 353.589674 126.830792 
L 353.836035 130.972438 
L 354.082397 129.968104 
L 354.328758 129.575387 
L 354.575119 132.773957 
L 355.067841 128.441552 
L 355.314202 144.445929 
L 355.560563 147.6 
L 356.546007 147.6 
L 356.792368 145.553393 
L 357.038729 138.755257 
L 357.531451 145.45198 
L 357.777812 147.355388 
L 358.024173 147.6 
L 358.270534 133.53945 
L 358.516895 130.6747 
L 358.763256 129.150624 
L 359.009617 129.974651 
L 359.255978 134.265628 
L 359.502339 135.290825 
L 359.7487 135.340706 
L 359.995061 136.020863 
L 360.241422 133.086202 
L 360.487783 131.556533 
L 360.734144 133.919354 
L 360.980505 137.391914 
L 361.226866 147.6 
L 362.21231 147.6 
L 362.458671 145.172783 
L 362.705032 146.023042 
L 362.951393 146.410836 
L 363.197754 147.6 
L 363.936837 147.6 
L 364.183198 111.104783 
L 364.429559 115.704376 
L 364.67592 111.29987 
L 364.922281 111.507632 
L 365.168642 110.124018 
L 365.415003 121.856643 
L 365.661364 127.038005 
L 365.907725 121.692931 
L 366.154086 125.594896 
L 366.400447 127.125929 
L 366.646808 124.514934 
L 366.893169 131.420937 
L 367.13953 147.6 
L 369.849501 147.6 
L 370.095862 130.857789 
L 370.342223 133.540474 
L 370.588585 138.450359 
L 370.834946 137.68376 
L 371.081307 133.782259 
L 371.327668 135.100088 
L 371.574029 128.947158 
L 371.82039 131.928394 
L 372.066751 132.937989 
L 372.313112 132.291154 
L 372.559473 133.424805 
L 372.805834 138.236547 
L 373.052195 147.6 
L 375.762166 147.6 
L 376.008527 134.135691 
L 376.254888 132.298183 
L 376.501249 127.839028 
L 376.74761 125.88705 
L 376.993971 125.245911 
L 377.240332 126.526917 
L 377.486693 125.514529 
L 377.733054 130.582864 
L 377.979415 130.403332 
L 378.225776 128.825597 
L 378.472137 122.485008 
L 378.718498 121.31931 
L 378.964859 147.6 
L 379.21122 134.052683 
L 379.457581 129.154976 
L 379.703942 128.937818 
L 379.950303 135.116451 
L 380.196664 144.725435 
L 380.443025 147.6 
L 381.67483 147.6 
L 381.921191 119.645399 
L 382.167552 128.854829 
L 382.413913 128.33983 
L 382.660274 130.598957 
L 382.906635 130.38934 
L 383.152996 132.651249 
L 383.399357 131.71204 
L 383.645718 132.019821 
L 383.892079 127.204859 
L 384.13844 128.354447 
L 384.384801 133.20344 
L 384.631162 126.489665 
L 384.877523 147.6 
L 387.587495 147.6 
L 387.833856 130.4453 
L 388.326578 146.101197 
L 388.572939 141.627325 
L 388.8193 140.402151 
L 389.065661 135.50306 
L 389.312022 139.047277 
L 389.558383 139.376017 
L 389.804744 145.316854 
L 390.051105 147.6 
L 390.297466 147.6 
L 390.543827 144.367372 
L 390.790188 147.6 
L 393.992881 147.6 
L 394.239242 144.814126 
L 394.485603 143.804893 
L 394.731964 131.610767 
L 394.978325 132.51807 
L 395.471047 127.844588 
L 395.717408 130.441464 
L 395.963769 125.596809 
L 396.21013 125.692147 
L 396.456491 128.607861 
L 396.702852 147.6 
L 396.949213 147.6 
L 397.195574 142.104413 
L 397.441935 142.596411 
L 397.934657 144.503221 
L 398.181018 147.6 
L 398.427379 147.6 
L 398.67374 143.446051 
L 398.920101 145.025145 
L 399.166462 145.745039 
L 399.412823 147.6 
L 399.659184 136.466752 
L 400.151906 139.349912 
L 400.398267 147.6 
L 401.383711 147.6 
L 401.630072 146.679599 
L 402.122794 126.263278 
L 402.369155 129.660912 
L 402.615516 147.6 
L 403.354599 147.6 
L 403.847322 139.349741 
L 404.093683 147.6 
L 404.340044 146.443475 
L 404.586405 147.6 
L 405.079127 132.856255 
L 405.325488 133.30272 
L 405.325488 133.30272 
" clip-path="url(#p380a197ace)" style="fill: none; stroke: #0000ff; stroke-width: 1.5; stroke-linecap: square"/>
   </g>
   <g id="patch_8">
    <path d="M 250.376727 152.64 
L 250.376727 41.76 
" style="fill: none; stroke: #000000; stroke-width: 0.8; stroke-linejoin: miter; stroke-linecap: square"/>
   </g>
   <g id="patch_9">
    <path d="M 412.704 152.64 
L 412.704 41.76 
" style="fill: none; stroke: #000000; stroke-width: 0.8; stroke-linejoin: miter; stroke-linecap: square"/>
   </g>
   <g id="patch_10">
    <path d="M 250.376727 152.64 
L 412.704 152.64 
" style="fill: none; stroke: #000000; stroke-width: 0.8; stroke-linejoin: miter; stroke-linecap: square"/>
   </g>
   <g id="patch_11">
    <path d="M 250.376727 41.76 
L 412.704 41.76 
" style="fill: none; stroke: #000000; stroke-width: 0.8; stroke-linejoin: miter; stroke-linecap: square"/>
   </g>
   <g id="text_16">
    <!-- RNN -->
    <g transform="translate(318.393801 35.76) scale(0.12 -0.12)">
     <defs>
      <path id="DejaVuSans-52" d="M 2841 2188 
Q 3044 2119 3236 1894 
Q 3428 1669 3622 1275 
L 4263 0 
L 3584 0 
L 2988 1197 
Q 2756 1666 2539 1819 
Q 2322 1972 1947 1972 
L 1259 1972 
L 1259 0 
L 628 0 
L 628 4666 
L 2053 4666 
Q 2853 4666 3247 4331 
Q 3641 3997 3641 3322 
Q 3641 2881 3436 2590 
Q 3231 2300 2841 2188 
z
M 1259 4147 
L 1259 2491 
L 2053 2491 
Q 2509 2491 2742 2702 
Q 2975 2913 2975 3322 
Q 2975 3731 2742 3939 
Q 2509 4147 2053 4147 
L 1259 4147 
z
" transform="scale(0.015625)"/>
     </defs>
     <use xlink:href="#DejaVuSans-52"/>
     <use xlink:href="#DejaVuSans-4e" x="69.482422"/>
     <use xlink:href="#DejaVuSans-4e" x="144.287109"/>
    </g>
   </g>
  </g>
  <g id="axes_3">
   <g id="patch_12">
    <path d="M 55.584 307.872 
L 217.911273 307.872 
L 217.911273 196.992 
L 55.584 196.992 
z
" style="fill: #ffffff"/>
   </g>
   <g id="matplotlib.axis_5">
    <g id="xtick_9">
     <g id="line2d_17">
      <g>
       <use xlink:href="#m80e55c792a" x="62.962512" y="307.872" style="stroke: #000000; stroke-width: 0.8"/>
      </g>
     </g>
     <g id="text_17">
      <!-- 0 -->
      <g transform="translate(59.781262 322.470437) scale(0.1 -0.1)">
       <use xlink:href="#DejaVuSans-30"/>
      </g>
     </g>
    </g>
    <g id="xtick_10">
     <g id="line2d_18">
      <g>
       <use xlink:href="#m80e55c792a" x="112.234715" y="307.872" style="stroke: #000000; stroke-width: 0.8"/>
      </g>
     </g>
     <g id="text_18">
      <!-- 200 -->
      <g transform="translate(102.690965 322.470437) scale(0.1 -0.1)">
       <use xlink:href="#DejaVuSans-32"/>
       <use xlink:href="#DejaVuSans-30" x="63.623047"/>
       <use xlink:href="#DejaVuSans-30" x="127.246094"/>
      </g>
     </g>
    </g>
    <g id="xtick_11">
     <g id="line2d_19">
      <g>
       <use xlink:href="#m80e55c792a" x="161.506918" y="307.872" style="stroke: #000000; stroke-width: 0.8"/>
      </g>
     </g>
     <g id="text_19">
      <!-- 400 -->
      <g transform="translate(151.963168 322.470437) scale(0.1 -0.1)">
       <use xlink:href="#DejaVuSans-34"/>
       <use xlink:href="#DejaVuSans-30" x="63.623047"/>
       <use xlink:href="#DejaVuSans-30" x="127.246094"/>
      </g>
     </g>
    </g>
    <g id="xtick_12">
     <g id="line2d_20">
      <g>
       <use xlink:href="#m80e55c792a" x="210.779121" y="307.872" style="stroke: #000000; stroke-width: 0.8"/>
      </g>
     </g>
     <g id="text_20">
      <!-- 600 -->
      <g transform="translate(201.235371 322.470437) scale(0.1 -0.1)">
       <use xlink:href="#DejaVuSans-36"/>
       <use xlink:href="#DejaVuSans-30" x="63.623047"/>
       <use xlink:href="#DejaVuSans-30" x="127.246094"/>
      </g>
     </g>
    </g>
   </g>
   <g id="matplotlib.axis_6">
    <g id="ytick_7">
     <g id="line2d_21">
      <g>
       <use xlink:href="#me05378433e" x="55.584" y="302.832" style="stroke: #000000; stroke-width: 0.8"/>
      </g>
     </g>
     <g id="text_21">
      <!-- 0 -->
      <g transform="translate(42.2215 306.631219) scale(0.1 -0.1)">
       <use xlink:href="#DejaVuSans-30"/>
      </g>
     </g>
    </g>
    <g id="ytick_8">
     <g id="line2d_22">
      <g>
       <use xlink:href="#me05378433e" x="55.584" y="259.633356" style="stroke: #000000; stroke-width: 0.8"/>
      </g>
     </g>
     <g id="text_22">
      <!-- 20 -->
      <g transform="translate(35.859 263.432574) scale(0.1 -0.1)">
       <use xlink:href="#DejaVuSans-32"/>
       <use xlink:href="#DejaVuSans-30" x="63.623047"/>
      </g>
     </g>
    </g>
    <g id="ytick_9">
     <g id="line2d_23">
      <g>
       <use xlink:href="#me05378433e" x="55.584" y="216.434711" style="stroke: #000000; stroke-width: 0.8"/>
      </g>
     </g>
     <g id="text_23">
      <!-- 40 -->
      <g transform="translate(35.859 220.23393) scale(0.1 -0.1)">
       <use xlink:href="#DejaVuSans-34"/>
       <use xlink:href="#DejaVuSans-30" x="63.623047"/>
      </g>
     </g>
    </g>
   </g>
   <g id="line2d_24">
    <path d="M 62.962512 203.040284 
L 63.208873 204.225444 
L 63.455234 202.032 
L 63.701595 216.638766 
L 63.947956 224.597533 
L 64.440678 228.424089 
L 64.933401 260.555407 
L 65.179762 262.85127 
L 65.426123 261.468073 
L 65.672484 265.591326 
L 65.918845 302.832 
L 68.628816 302.832 
L 68.875177 259.904345 
L 69.121538 261.283254 
L 69.367899 259.455191 
L 69.61426 264.507521 
L 70.106982 267.364591 
L 70.353343 265.264942 
L 70.599704 276.49662 
L 70.846065 266.345025 
L 71.092426 261.508481 
L 71.338787 263.547751 
L 71.585148 269.158801 
L 71.831509 302.832 
L 74.54148 302.832 
L 74.787841 285.911499 
L 75.034202 284.876101 
L 75.280563 279.153946 
L 75.526924 281.141822 
L 75.773285 274.98713 
L 76.019646 286.567129 
L 76.266007 290.389497 
L 76.512368 290.265897 
L 77.497812 259.250261 
L 77.744173 282.188638 
L 78.236895 302.233837 
L 78.483256 302.832 
L 79.222339 302.832 
L 79.4687 300.895891 
L 79.961422 279.254376 
L 80.207783 273.321937 
L 80.454144 287.890176 
L 80.700505 272.267825 
L 80.946866 272.377092 
L 81.193228 273.069775 
L 81.439589 274.458171 
L 81.932311 238.950916 
L 82.178672 237.535651 
L 82.425033 245.783756 
L 82.671394 277.842578 
L 82.917755 277.004913 
L 83.164116 281.4687 
L 83.410477 280.63921 
L 83.656838 300.378544 
L 83.903199 296.942286 
L 84.14956 283.093937 
L 84.395921 286.029041 
L 84.642282 286.359093 
L 85.135004 302.832 
L 85.381365 298.608056 
L 85.627726 299.659131 
L 85.874087 293.285026 
L 86.120448 281.890213 
L 86.366809 280.458145 
L 86.61317 268.351367 
L 86.859531 270.810748 
L 87.105892 275.868715 
L 87.352253 277.259558 
L 87.598614 275.752115 
L 87.844975 278.867783 
L 88.337697 263.346711 
L 88.584058 273.120333 
L 88.830419 288.39943 
L 89.07678 291.820342 
L 89.323141 291.758118 
L 89.569502 302.832 
L 89.815863 302.665819 
L 90.062224 301.995661 
L 90.308585 296.512885 
L 90.554946 294.851234 
L 90.801307 302.832 
L 92.279473 302.832 
L 92.525834 268.563196 
L 92.772195 267.239365 
L 93.018556 268.165796 
L 93.264917 267.963013 
L 93.511278 261.855116 
L 94.004 272.273977 
L 94.250361 284.877527 
L 94.496722 282.373025 
L 94.743083 282.116198 
L 94.989444 276.183577 
L 95.235805 276.172592 
L 95.482166 300.724932 
L 95.728527 300.578016 
L 96.46761 297.10475 
L 96.713971 286.691204 
L 96.960332 291.713816 
L 97.206693 290.83179 
L 97.453054 290.71383 
L 97.699415 296.047081 
L 97.945777 295.150657 
L 98.192138 301.845602 
L 98.438499 264.984685 
L 98.931221 272.87498 
L 99.177582 272.925853 
L 99.423943 263.513592 
L 99.670304 264.820374 
L 99.916665 273.410876 
L 100.163026 278.022338 
L 100.409387 278.157217 
L 100.655748 274.164976 
L 100.902109 272.145372 
L 101.14847 267.281628 
L 101.394831 302.832 
L 104.104802 302.832 
L 104.351163 281.794597 
L 104.597524 280.528674 
L 104.843885 282.097653 
L 105.090246 286.546299 
L 105.336607 287.263956 
L 105.582968 286.590517 
L 105.829329 284.492145 
L 106.07569 283.80966 
L 106.322051 282.442456 
L 106.568412 282.743833 
L 106.814773 282.370776 
L 107.061134 281.162482 
L 107.307495 302.832 
L 107.800217 302.832 
L 108.046578 300.51433 
L 108.292939 302.832 
L 110.017466 302.832 
L 110.263827 268.164954 
L 110.510188 272.815837 
L 111.249271 291.566405 
L 111.741993 298.006126 
L 111.988354 297.094293 
L 112.234715 298.858254 
L 112.481076 297.171036 
L 112.727437 297.536831 
L 112.973798 298.919836 
L 113.220159 298.175244 
L 113.46652 299.501974 
L 113.712881 302.832 
L 114.451965 302.832 
L 114.944687 301.910441 
L 115.191048 300.105502 
L 115.437409 302.672318 
L 115.68377 302.832 
L 115.930131 302.832 
L 116.176492 290.613369 
L 116.915575 272.135443 
L 117.161936 262.677363 
L 117.408297 264.39579 
L 117.654658 256.427746 
L 118.14738 275.676939 
L 118.393741 274.59159 
L 118.886463 274.145795 
L 119.132824 302.832 
L 121.842795 302.832 
L 122.089156 284.813524 
L 122.335517 279.371684 
L 122.828239 263.498753 
L 123.0746 272.842741 
L 123.320961 275.223338 
L 123.567322 273.629556 
L 124.552766 288.787814 
L 124.799127 285.372624 
L 125.045488 302.832 
L 125.291849 302.832 
L 125.53821 299.494447 
L 125.784571 302.832 
L 126.030932 293.543032 
L 126.277293 302.832 
L 127.755459 302.832 
L 128.00182 294.497195 
L 128.248181 295.423307 
L 128.740903 302.832 
L 129.972708 302.732546 
L 130.219069 301.108333 
L 130.46543 295.724635 
L 130.711791 295.055272 
L 130.958153 302.832 
L 131.204514 302.717731 
L 131.697236 302.832 
L 131.943597 301.800246 
L 132.189958 302.832 
L 133.668124 302.832 
L 133.914485 282.073306 
L 134.160846 285.465508 
L 134.407207 279.935837 
L 134.653568 286.43873 
L 134.899929 285.345485 
L 135.392651 281.646964 
L 135.639012 283.930774 
L 135.885373 280.581391 
L 136.131734 281.659593 
L 136.378095 277.667383 
L 136.624456 281.285501 
L 136.870817 302.832 
L 139.580788 302.832 
L 139.827149 267.873443 
L 140.319871 257.049876 
L 140.566232 263.704601 
L 140.812593 263.230459 
L 141.058954 262.282923 
L 141.551676 276.245012 
L 141.798037 271.423834 
L 142.044398 272.254673 
L 142.53712 266.089244 
L 142.783481 302.832 
L 145.493452 302.832 
L 145.739813 276.117965 
L 145.986174 276.530492 
L 146.232535 275.628513 
L 146.725257 278.89229 
L 146.971618 279.3155 
L 147.217979 277.771419 
L 147.710702 283.25286 
L 148.203424 280.384846 
L 148.449785 278.967187 
L 148.696146 302.832 
L 149.68159 302.832 
L 149.927951 300.43149 
L 150.174312 299.143898 
L 150.420673 302.832 
L 150.913395 302.832 
L 151.159756 299.073616 
L 151.406117 302.832 
L 151.652478 268.320529 
L 151.898839 272.308568 
L 152.1452 269.499533 
L 152.391561 279.501686 
L 152.637922 283.660321 
L 152.884283 283.181805 
L 153.130644 287.068767 
L 153.377005 300.060746 
L 153.623366 302.307584 
L 153.869727 302.832 
L 154.116088 301.927589 
L 154.362449 299.564604 
L 154.60881 302.832 
L 157.318781 302.832 
L 157.565142 277.035796 
L 157.811503 281.446993 
L 158.057864 282.177922 
L 158.304225 280.724018 
L 158.550586 280.411141 
L 158.796947 282.062792 
L 159.043308 286.204438 
L 159.289669 285.200104 
L 159.53603 284.807387 
L 159.782391 288.005957 
L 160.275113 283.673552 
L 160.521474 302.832 
L 163.231445 302.832 
L 163.477806 288.77145 
L 163.724167 285.9067 
L 163.970529 284.382624 
L 164.21689 285.206651 
L 164.463251 289.497628 
L 164.709612 290.522825 
L 164.955973 290.572706 
L 165.202334 291.252863 
L 165.448695 288.318202 
L 165.695056 286.788533 
L 165.941417 289.151354 
L 166.187778 292.623914 
L 166.434139 302.832 
L 166.926861 302.832 
L 167.419583 292.654097 
L 167.665944 302.832 
L 169.14411 302.832 
L 169.390471 266.336783 
L 169.636832 270.936376 
L 169.883193 266.53187 
L 170.129554 266.739632 
L 170.375915 265.356018 
L 170.622276 277.088643 
L 170.868637 282.270005 
L 171.114998 276.924931 
L 171.361359 280.826896 
L 171.60772 282.357929 
L 171.854081 279.746934 
L 172.100442 286.652937 
L 172.346803 302.832 
L 175.056774 302.832 
L 175.303135 286.089789 
L 175.549496 288.772474 
L 175.795857 293.682359 
L 176.042218 292.91576 
L 176.288579 289.014259 
L 176.53494 290.332088 
L 176.781301 284.179158 
L 177.027662 287.160394 
L 177.274023 288.169989 
L 177.520384 287.523154 
L 177.766745 288.656805 
L 178.013106 293.468547 
L 178.259467 302.832 
L 179.737633 302.832 
L 180.230355 295.173647 
L 180.723078 302.832 
L 180.969439 302.832 
L 181.2158 289.367691 
L 181.462161 287.530183 
L 181.708522 283.071028 
L 181.954883 281.11905 
L 182.201244 280.477911 
L 182.447605 281.758917 
L 182.693966 280.746529 
L 182.940327 285.814864 
L 183.186688 285.635332 
L 183.433049 284.057597 
L 183.67941 277.717008 
L 183.925771 276.55131 
L 184.172132 302.832 
L 186.389381 302.832 
L 186.882103 301.639745 
L 187.128464 274.877399 
L 187.374825 284.086829 
L 187.621186 283.57183 
L 187.867547 285.830957 
L 188.113908 285.62134 
L 188.360269 287.883249 
L 188.60663 286.94404 
L 188.852991 287.251821 
L 189.099352 282.436859 
L 189.345713 283.586447 
L 189.592074 288.43544 
L 189.838435 281.721665 
L 190.084796 302.832 
L 192.794767 302.832 
L 193.041128 285.6773 
L 193.53385 301.333197 
L 193.780211 296.859325 
L 194.026572 295.634151 
L 194.272933 290.73506 
L 194.519294 294.279277 
L 194.765655 294.608017 
L 195.012016 300.548854 
L 195.258377 302.832 
L 195.504738 302.832 
L 195.751099 299.599372 
L 195.99746 302.832 
L 199.200154 302.832 
L 199.446515 300.046126 
L 199.692876 299.036893 
L 199.939237 286.842767 
L 200.185598 287.75007 
L 200.67832 283.076588 
L 200.924681 285.673464 
L 201.171042 280.828809 
L 201.417403 280.924147 
L 201.663764 283.839861 
L 201.910125 302.832 
L 204.127374 302.832 
L 204.373735 300.443415 
L 204.620096 302.832 
L 204.866457 291.698752 
L 205.359179 294.581912 
L 205.60554 302.832 
L 206.590984 302.832 
L 206.837345 301.911599 
L 207.330067 281.495278 
L 207.576428 284.892912 
L 207.822789 302.832 
L 208.561872 302.832 
L 208.808233 296.653944 
L 209.054594 294.0018 
L 209.300955 301.674207 
L 209.547316 302.832 
L 209.793677 302.832 
L 210.040038 301.637728 
L 210.286399 290.345335 
L 210.53276 289.347457 
L 210.53276 289.347457 
" clip-path="url(#pbca03626b8)" style="fill: none; stroke: #ffa500; stroke-width: 1.5; stroke-linecap: square"/>
   </g>
   <g id="patch_13">
    <path d="M 55.584 307.872 
L 55.584 196.992 
" style="fill: none; stroke: #000000; stroke-width: 0.8; stroke-linejoin: miter; stroke-linecap: square"/>
   </g>
   <g id="patch_14">
    <path d="M 217.911273 307.872 
L 217.911273 196.992 
" style="fill: none; stroke: #000000; stroke-width: 0.8; stroke-linejoin: miter; stroke-linecap: square"/>
   </g>
   <g id="patch_15">
    <path d="M 55.584 307.872 
L 217.911273 307.872 
" style="fill: none; stroke: #000000; stroke-width: 0.8; stroke-linejoin: miter; stroke-linecap: square"/>
   </g>
   <g id="patch_16">
    <path d="M 55.584 196.992 
L 217.911273 196.992 
" style="fill: none; stroke: #000000; stroke-width: 0.8; stroke-linejoin: miter; stroke-linecap: square"/>
   </g>
   <g id="text_24">
    <!-- VAE -->
    <g transform="translate(125.130136 190.992) scale(0.12 -0.12)">
     <defs>
      <path id="DejaVuSans-56" d="M 1831 0 
L 50 4666 
L 709 4666 
L 2188 738 
L 3669 4666 
L 4325 4666 
L 2547 0 
L 1831 0 
z
" transform="scale(0.015625)"/>
      <path id="DejaVuSans-41" d="M 2188 4044 
L 1331 1722 
L 3047 1722 
L 2188 4044 
z
M 1831 4666 
L 2547 4666 
L 4325 0 
L 3669 0 
L 3244 1197 
L 1141 1197 
L 716 0 
L 50 0 
L 1831 4666 
z
" transform="scale(0.015625)"/>
      <path id="DejaVuSans-45" d="M 628 4666 
L 3578 4666 
L 3578 4134 
L 1259 4134 
L 1259 2753 
L 3481 2753 
L 3481 2222 
L 1259 2222 
L 1259 531 
L 3634 531 
L 3634 0 
L 628 0 
L 628 4666 
z
" transform="scale(0.015625)"/>
     </defs>
     <use xlink:href="#DejaVuSans-56"/>
     <use xlink:href="#DejaVuSans-41" x="62.033203"/>
     <use xlink:href="#DejaVuSans-45" x="130.441406"/>
    </g>
   </g>
  </g>
  <g id="axes_4">
   <g id="patch_17">
    <path d="M 250.376727 307.872 
L 412.704 307.872 
L 412.704 196.992 
L 250.376727 196.992 
z
" style="fill: #ffffff"/>
   </g>
   <g id="matplotlib.axis_7">
    <g id="xtick_13">
     <g id="line2d_25">
      <g>
       <use xlink:href="#m80e55c792a" x="257.75524" y="307.872" style="stroke: #000000; stroke-width: 0.8"/>
      </g>
     </g>
     <g id="text_25">
      <!-- 0 -->
      <g transform="translate(254.57399 322.470437) scale(0.1 -0.1)">
       <use xlink:href="#DejaVuSans-30"/>
      </g>
     </g>
    </g>
    <g id="xtick_14">
     <g id="line2d_26">
      <g>
       <use xlink:href="#m80e55c792a" x="307.027443" y="307.872" style="stroke: #000000; stroke-width: 0.8"/>
      </g>
     </g>
     <g id="text_26">
      <!-- 200 -->
      <g transform="translate(297.483693 322.470437) scale(0.1 -0.1)">
       <use xlink:href="#DejaVuSans-32"/>
       <use xlink:href="#DejaVuSans-30" x="63.623047"/>
       <use xlink:href="#DejaVuSans-30" x="127.246094"/>
      </g>
     </g>
    </g>
    <g id="xtick_15">
     <g id="line2d_27">
      <g>
       <use xlink:href="#m80e55c792a" x="356.299646" y="307.872" style="stroke: #000000; stroke-width: 0.8"/>
      </g>
     </g>
     <g id="text_27">
      <!-- 400 -->
      <g transform="translate(346.755896 322.470437) scale(0.1 -0.1)">
       <use xlink:href="#DejaVuSans-34"/>
       <use xlink:href="#DejaVuSans-30" x="63.623047"/>
       <use xlink:href="#DejaVuSans-30" x="127.246094"/>
      </g>
     </g>
    </g>
    <g id="xtick_16">
     <g id="line2d_28">
      <g>
       <use xlink:href="#m80e55c792a" x="405.571849" y="307.872" style="stroke: #000000; stroke-width: 0.8"/>
      </g>
     </g>
     <g id="text_28">
      <!-- 600 -->
      <g transform="translate(396.028099 322.470437) scale(0.1 -0.1)">
       <use xlink:href="#DejaVuSans-36"/>
       <use xlink:href="#DejaVuSans-30" x="63.623047"/>
       <use xlink:href="#DejaVuSans-30" x="127.246094"/>
      </g>
     </g>
    </g>
   </g>
   <g id="matplotlib.axis_8">
    <g id="ytick_10">
     <g id="line2d_29">
      <g>
       <use xlink:href="#me05378433e" x="250.376727" y="302.832" style="stroke: #000000; stroke-width: 0.8"/>
      </g>
     </g>
     <g id="text_29">
      <!-- 0 -->
      <g transform="translate(237.014227 306.631219) scale(0.1 -0.1)">
       <use xlink:href="#DejaVuSans-30"/>
      </g>
     </g>
    </g>
    <g id="ytick_11">
     <g id="line2d_30">
      <g>
       <use xlink:href="#me05378433e" x="250.376727" y="259.648287" style="stroke: #000000; stroke-width: 0.8"/>
      </g>
     </g>
     <g id="text_30">
      <!-- 20 -->
      <g transform="translate(230.651727 263.447505) scale(0.1 -0.1)">
       <use xlink:href="#DejaVuSans-32"/>
       <use xlink:href="#DejaVuSans-30" x="63.623047"/>
      </g>
     </g>
    </g>
    <g id="ytick_12">
     <g id="line2d_31">
      <g>
       <use xlink:href="#me05378433e" x="250.376727" y="216.464573" style="stroke: #000000; stroke-width: 0.8"/>
      </g>
     </g>
     <g id="text_31">
      <!-- 40 -->
      <g transform="translate(230.651727 220.263792) scale(0.1 -0.1)">
       <use xlink:href="#DejaVuSans-34"/>
       <use xlink:href="#DejaVuSans-30" x="63.623047"/>
      </g>
     </g>
    </g>
   </g>
   <g id="line2d_32">
    <path d="M 257.75524 203.081088 
L 258.001601 204.257293 
L 258.247962 202.032 
L 258.494323 216.672741 
L 258.740684 224.666704 
L 259.233406 228.437228 
L 259.726128 260.573465 
L 259.972489 262.876088 
L 260.21885 261.490584 
L 260.711572 273.116905 
L 260.957933 274.002218 
L 261.204294 281.937584 
L 261.450655 302.832 
L 261.697016 297.380987 
L 262.189738 299.295625 
L 262.436099 293.991832 
L 262.928821 270.146619 
L 263.175182 272.977318 
L 263.421543 273.322209 
L 263.667904 259.917056 
L 263.914265 261.296261 
L 264.160626 259.551106 
L 264.406987 264.519906 
L 264.899709 267.3755 
L 265.14607 265.256355 
L 265.392431 276.503285 
L 265.638792 266.357494 
L 265.885153 261.510513 
L 266.131514 263.560038 
L 266.377875 269.174944 
L 266.624236 280.841398 
L 266.870597 284.050978 
L 267.116958 284.652313 
L 267.363319 293.423988 
L 267.60968 295.189102 
L 267.856041 302.832 
L 268.102402 301.743513 
L 268.348763 290.231543 
L 268.595124 285.29697 
L 268.841485 265.08558 
L 269.334207 287.563098 
L 269.826929 284.870281 
L 270.07329 279.165997 
L 270.319651 281.141544 
L 270.566012 274.967059 
L 270.812373 286.651304 
L 271.058734 290.363407 
L 271.305095 290.271274 
L 272.29054 259.267173 
L 272.536901 259.12587 
L 272.783262 282.022824 
L 273.029623 269.442174 
L 273.275984 295.944584 
L 273.522345 302.832 
L 274.261428 261.193769 
L 274.507789 258.758745 
L 274.75415 281.729184 
L 275.000511 266.255222 
L 275.246872 266.259307 
L 275.493233 272.317604 
L 275.739594 272.405105 
L 275.985955 273.030406 
L 276.232316 274.467726 
L 276.725038 238.976032 
L 276.971399 237.564293 
L 277.21776 245.801414 
L 277.464121 277.847985 
L 277.710482 277.018011 
L 277.956843 281.477963 
L 278.203204 280.658409 
L 278.449565 295.138634 
L 278.695926 290.555704 
L 278.942287 267.569693 
L 279.188648 265.898531 
L 279.435009 274.311779 
L 279.68137 296.561321 
L 279.927731 283.870172 
L 280.174092 289.058313 
L 280.420453 278.866415 
L 280.666814 291.140949 
L 280.913175 257.088427 
L 281.405897 268.385069 
L 281.652258 270.815133 
L 281.898619 276.040837 
L 282.14498 277.266318 
L 282.391341 275.761933 
L 282.637702 278.868187 
L 283.130424 263.365156 
L 283.376785 273.130542 
L 283.623146 288.400847 
L 283.869507 291.821971 
L 284.115868 291.817318 
L 284.362229 289.539407 
L 284.60859 285.512708 
L 284.854951 300.912793 
L 285.101312 281.673658 
L 285.347673 274.416009 
L 285.594034 289.52354 
L 285.840395 287.297242 
L 286.086756 292.79585 
L 286.579478 259.034346 
L 286.825839 261.851591 
L 287.0722 282.166153 
L 287.318561 268.572365 
L 287.564922 267.25618 
L 287.811283 268.24877 
L 288.057645 267.979468 
L 288.304006 261.374247 
L 288.796728 272.279074 
L 289.043089 284.884924 
L 289.28945 282.376596 
L 289.535811 282.134595 
L 289.782172 276.195085 
L 290.028533 276.205188 
L 290.274894 290.329898 
L 290.521255 296.879544 
L 290.767616 292.750443 
L 291.013977 296.290421 
L 291.260338 283.6232 
L 291.506699 287.892109 
L 291.999421 283.899433 
L 292.492143 290.880637 
L 292.738504 279.304675 
L 292.984865 280.249561 
L 293.231226 265.008539 
L 293.723948 272.873597 
L 293.970309 272.947888 
L 294.21667 263.499313 
L 294.463031 264.774338 
L 294.709392 273.373796 
L 294.955753 278.040861 
L 295.202114 278.203532 
L 295.448475 274.162868 
L 295.694836 272.159995 
L 295.941197 267.302058 
L 296.187558 290.238025 
L 296.433919 275.279446 
L 296.68028 278.320216 
L 296.926641 274.852659 
L 297.173002 281.271149 
L 297.419363 283.253234 
L 297.665724 282.557752 
L 298.158446 289.998608 
L 298.404807 286.545684 
L 298.651168 293.990208 
L 298.897529 285.165625 
L 299.14389 281.798215 
L 299.390251 280.693414 
L 299.636612 282.107201 
L 299.882973 286.545578 
L 300.129334 287.285388 
L 300.375695 287.146721 
L 300.622056 284.489338 
L 300.868417 283.821173 
L 301.114778 282.454975 
L 301.361139 282.754315 
L 301.6075 282.379766 
L 301.853861 281.172753 
L 302.100222 284.491955 
L 302.346583 279.776416 
L 302.592944 282.982693 
L 302.839305 280.59983 
L 303.085666 280.299591 
L 303.332027 283.023173 
L 303.578388 270.456155 
L 304.07111 290.707929 
L 304.317471 278.259655 
L 304.563833 298.55499 
L 305.056555 268.169796 
L 305.302916 272.821157 
L 306.041999 291.531483 
L 306.534721 298.199579 
L 306.781082 297.158338 
L 307.027443 298.83866 
L 307.273804 297.170671 
L 307.520165 297.548058 
L 307.766526 298.926873 
L 308.012887 302.832 
L 308.259248 300.019682 
L 308.505609 300.001159 
L 308.75197 302.832 
L 308.998331 299.825457 
L 309.244692 302.832 
L 309.983775 302.832 
L 310.230136 302.216634 
L 310.969219 290.626385 
L 311.708302 272.163063 
L 311.954663 262.67599 
L 312.201024 264.411245 
L 312.447385 256.449434 
L 312.940107 275.67923 
L 313.186468 274.610258 
L 313.67919 274.156108 
L 313.925551 280.095693 
L 314.171912 279.562525 
L 314.664634 294.952261 
L 314.910995 285.862817 
L 315.157356 291.50575 
L 315.650078 283.116996 
L 315.896439 292.359857 
L 316.1428 285.509372 
L 316.389161 301.018563 
L 317.374605 270.26358 
L 317.620966 263.515358 
L 317.867327 272.845139 
L 318.113688 275.251592 
L 318.360049 273.595598 
L 319.345493 288.792716 
L 320.084576 277.782277 
L 320.330937 273.036771 
L 320.577298 275.236709 
L 320.823659 279.219608 
L 321.070021 267.17865 
L 321.562743 290.724647 
L 321.809104 294.466071 
L 322.055465 302.826192 
L 322.301826 298.132556 
L 322.548187 298.446413 
L 322.794548 294.505973 
L 323.040909 295.428319 
L 323.533631 302.832 
L 324.765436 302.728897 
L 325.011797 301.120791 
L 325.258158 295.727571 
L 325.504519 295.045953 
L 325.75088 296.778155 
L 325.997241 290.35086 
L 326.489963 274.584087 
L 326.736324 271.216508 
L 326.982685 271.810325 
L 327.229046 266.714474 
L 327.721768 277.93597 
L 328.21449 288.326699 
L 328.707212 282.086209 
L 328.953573 285.44346 
L 329.199934 279.935827 
L 329.446295 286.440274 
L 329.692656 285.363678 
L 330.185378 281.665628 
L 330.431739 283.945543 
L 330.6781 280.590235 
L 330.924461 281.661578 
L 331.170822 277.664746 
L 331.417183 280.966354 
L 331.663544 280.044073 
L 331.909905 282.131591 
L 332.156266 276.884256 
L 332.402627 279.087787 
L 332.648988 284.83807 
L 332.895349 276.038773 
L 333.14171 284.131597 
L 333.388071 279.344037 
L 333.634432 280.771583 
L 333.880793 294.598101 
L 334.127154 298.330752 
L 334.373515 287.628019 
L 334.619876 267.883656 
L 335.112598 257.062927 
L 335.358959 263.796627 
L 335.60532 263.223823 
L 335.851681 262.296575 
L 336.344403 276.261126 
L 336.590764 271.435292 
L 336.837125 272.256135 
L 337.329847 266.089012 
L 337.576209 274.705174 
L 338.068931 278.346841 
L 338.315292 277.080967 
L 338.561653 278.281878 
L 338.808014 272.110139 
L 339.300736 295.63318 
L 339.547097 273.885929 
L 339.793458 273.21162 
L 340.039819 277.000021 
L 340.28618 276.061965 
L 340.532541 276.121884 
L 340.778902 276.534544 
L 341.025263 275.646196 
L 341.517985 278.895458 
L 341.764346 279.419097 
L 342.010707 277.779638 
L 342.503429 283.232461 
L 342.996151 280.395252 
L 343.242512 278.971174 
L 343.488873 280.985321 
L 343.735234 284.714258 
L 343.981595 284.979497 
L 344.227956 281.89155 
L 344.474317 285.052462 
L 344.720678 281.81456 
L 344.967039 290.702366 
L 345.2134 284.372172 
L 345.459761 284.444401 
L 345.706122 291.58456 
L 345.952483 282.297585 
L 346.198844 287.132114 
L 346.445205 268.448916 
L 346.691566 272.302481 
L 346.937927 269.518397 
L 347.184288 279.494543 
L 347.430649 283.693207 
L 347.67701 283.183616 
L 347.923371 287.070256 
L 348.169732 300.066871 
L 348.416093 302.288973 
L 348.662454 302.832 
L 348.908815 301.922214 
L 349.155176 299.571802 
L 349.401537 300.824495 
L 349.647898 302.832 
L 350.633342 302.832 
L 350.879703 302.174092 
L 351.126064 299.11022 
L 351.372425 298.17653 
L 351.618786 287.950122 
L 351.865147 285.05452 
L 352.111508 276.691391 
L 352.357869 277.022405 
L 352.60423 281.338175 
L 352.850591 282.184424 
L 353.096952 280.729267 
L 353.343313 280.43917 
L 353.589674 282.067653 
L 353.836035 286.149682 
L 354.082397 286.102934 
L 354.328758 284.797823 
L 354.575119 288.015005 
L 355.067841 283.678233 
L 355.314202 291.280074 
L 355.560563 288.124595 
L 355.806924 288.565438 
L 356.053285 286.65336 
L 356.299646 288.27843 
L 356.546007 291.821133 
L 356.792368 287.462372 
L 357.038729 292.542241 
L 357.28509 289.168325 
L 357.531451 294.171824 
L 357.777812 290.244675 
L 358.024173 295.162344 
L 358.270534 288.781918 
L 358.516895 285.905278 
L 358.763256 284.386776 
L 359.009617 285.212194 
L 359.255978 289.490888 
L 359.502339 290.526678 
L 359.7487 290.571924 
L 359.995061 291.255343 
L 360.241422 288.331494 
L 360.487783 286.79678 
L 360.734144 289.144335 
L 361.226866 296.161144 
L 361.473227 302.832 
L 361.719588 299.702908 
L 362.21231 280.692835 
L 362.458671 277.099508 
L 362.705032 289.625766 
L 362.951393 273.220578 
L 363.444115 288.25944 
L 363.690476 276.975482 
L 363.936837 284.911817 
L 364.183198 266.30137 
L 364.429559 270.949993 
L 364.67592 266.515033 
L 364.922281 266.739901 
L 365.168642 265.368706 
L 365.415003 277.099112 
L 365.661364 282.292764 
L 365.907725 276.927371 
L 366.154086 280.829438 
L 366.400447 282.437811 
L 366.646808 279.76515 
L 367.13953 291.493835 
L 367.385891 293.534549 
L 367.632252 288.044696 
L 367.878613 298.504366 
L 368.124974 298.630533 
L 368.371335 288.961767 
L 368.617696 297.833939 
L 368.864057 297.125285 
L 369.110418 300.233234 
L 369.356779 292.562134 
L 369.60314 300.468836 
L 369.849501 298.130412 
L 370.095862 286.087578 
L 370.342223 288.765894 
L 370.588585 293.695788 
L 370.834946 292.934947 
L 371.081307 289.017234 
L 371.327668 290.338211 
L 371.574029 284.187095 
L 371.82039 287.163569 
L 372.066751 288.158239 
L 372.313112 287.573484 
L 372.559473 288.668269 
L 373.052195 298.431107 
L 373.298556 299.062798 
L 373.544917 300.044126 
L 373.791278 300.309978 
L 374.037639 296.985405 
L 374.284 295.54176 
L 374.530361 301.625022 
L 374.776722 292.386378 
L 375.023083 291.036816 
L 375.515805 298.343021 
L 375.762166 289.681214 
L 376.008527 289.382687 
L 376.254888 287.531984 
L 376.501249 283.084032 
L 376.74761 281.130353 
L 376.993971 280.482859 
L 377.240332 281.754628 
L 377.486693 280.749535 
L 377.733054 285.82298 
L 377.979415 285.643593 
L 378.225776 284.059941 
L 378.472137 277.738024 
L 378.718498 276.566659 
L 378.964859 285.591632 
L 379.21122 290.374041 
L 379.457581 282.835656 
L 379.703942 294.206533 
L 379.950303 290.965761 
L 380.196664 291.679696 
L 380.443025 287.180806 
L 380.689386 285.363285 
L 380.935747 278.429816 
L 381.182108 282.289007 
L 381.428469 278.70348 
L 381.67483 289.287992 
L 381.921191 274.885887 
L 382.167552 284.066586 
L 382.413913 283.580092 
L 382.660274 285.84308 
L 382.906635 285.623767 
L 383.152996 287.848741 
L 383.399357 286.951403 
L 383.645718 287.265375 
L 383.892079 282.438012 
L 384.13844 283.59371 
L 384.384801 288.444519 
L 384.631162 281.707689 
L 384.877523 290.930232 
L 385.123884 286.103636 
L 385.370245 294.143547 
L 385.616606 294.393451 
L 386.109328 299.645128 
L 386.355689 296.291546 
L 386.60205 299.986642 
L 386.848411 296.131419 
L 387.094772 297.59857 
L 387.341134 297.636997 
L 387.833856 285.686172 
L 388.326578 301.482645 
L 388.572939 296.876869 
L 388.8193 295.650438 
L 389.065661 290.731829 
L 389.312022 294.153985 
L 389.558383 294.606699 
L 389.804744 300.545401 
L 390.051105 302.832 
L 390.297466 302.832 
L 390.543827 299.606414 
L 390.790188 302.832 
L 391.036549 299.097289 
L 391.28291 298.845407 
L 391.529271 294.629452 
L 391.775632 302.832 
L 392.021993 302.832 
L 392.268354 300.120609 
L 392.514715 301.080229 
L 392.761076 301.509611 
L 393.007437 294.897567 
L 393.500159 302.832 
L 393.992881 302.832 
L 394.239242 300.039201 
L 394.485603 299.03421 
L 394.731964 286.8502 
L 394.978325 287.698728 
L 395.471047 283.08092 
L 395.717408 285.682258 
L 395.963769 280.838148 
L 396.21013 280.93784 
L 396.456491 283.843679 
L 396.702852 272.295676 
L 396.949213 291.584975 
L 397.195574 283.53048 
L 397.441935 287.684272 
L 397.688296 289.181954 
L 398.181018 300.587583 
L 399.166462 273.074939 
L 399.412823 290.740094 
L 399.659184 291.696758 
L 400.151906 294.583889 
L 400.398267 302.832 
L 401.383711 302.832 
L 401.630072 301.90596 
L 402.122794 281.502873 
L 402.369155 284.891259 
L 402.615516 291.015068 
L 402.861877 283.85482 
L 403.108238 284.300077 
L 403.354599 283.468766 
L 403.60096 284.319101 
L 403.847322 277.010128 
L 404.340044 295.702041 
L 404.586405 295.808782 
L 405.079127 284.997448 
L 405.325488 287.728356 
L 405.325488 287.728356 
" clip-path="url(#p41f7efd97e)" style="fill: none; stroke: #ff0000; stroke-width: 1.5; stroke-linecap: square"/>
   </g>
   <g id="patch_18">
    <path d="M 250.376727 307.872 
L 250.376727 196.992 
" style="fill: none; stroke: #000000; stroke-width: 0.8; stroke-linejoin: miter; stroke-linecap: square"/>
   </g>
   <g id="patch_19">
    <path d="M 412.704 307.872 
L 412.704 196.992 
" style="fill: none; stroke: #000000; stroke-width: 0.8; stroke-linejoin: miter; stroke-linecap: square"/>
   </g>
   <g id="patch_20">
    <path d="M 250.376727 307.872 
L 412.704 307.872 
" style="fill: none; stroke: #000000; stroke-width: 0.8; stroke-linejoin: miter; stroke-linecap: square"/>
   </g>
   <g id="patch_21">
    <path d="M 250.376727 196.992 
L 412.704 196.992 
" style="fill: none; stroke: #000000; stroke-width: 0.8; stroke-linejoin: miter; stroke-linecap: square"/>
   </g>
   <g id="text_32">
    <!-- VRNN -->
    <g transform="translate(314.289426 190.992) scale(0.12 -0.12)">
     <use xlink:href="#DejaVuSans-56"/>
     <use xlink:href="#DejaVuSans-52" x="68.408203"/>
     <use xlink:href="#DejaVuSans-4e" x="137.890625"/>
     <use xlink:href="#DejaVuSans-4e" x="212.695312"/>
    </g>
   </g>
  </g>
  <g id="text_33">
   <!-- VMAF Scores Over Frames: Video #18 -->
   <g transform="translate(114.338063 16.318125) scale(0.12 -0.12)">
    <defs>
     <path id="DejaVuSans-4d" d="M 628 4666 
L 1569 4666 
L 2759 1491 
L 3956 4666 
L 4897 4666 
L 4897 0 
L 4281 0 
L 4281 4097 
L 3078 897 
L 2444 897 
L 1241 4097 
L 1241 0 
L 628 0 
L 628 4666 
z
" transform="scale(0.015625)"/>
     <path id="DejaVuSans-73" d="M 2834 3397 
L 2834 2853 
Q 2591 2978 2328 3040 
Q 2066 3103 1784 3103 
Q 1356 3103 1142 2972 
Q 928 2841 928 2578 
Q 928 2378 1081 2264 
Q 1234 2150 1697 2047 
L 1894 2003 
Q 2506 1872 2764 1633 
Q 3022 1394 3022 966 
Q 3022 478 2636 193 
Q 2250 -91 1575 -91 
Q 1294 -91 989 -36 
Q 684 19 347 128 
L 347 722 
Q 666 556 975 473 
Q 1284 391 1588 391 
Q 1994 391 2212 530 
Q 2431 669 2431 922 
Q 2431 1156 2273 1281 
Q 2116 1406 1581 1522 
L 1381 1569 
Q 847 1681 609 1914 
Q 372 2147 372 2553 
Q 372 3047 722 3315 
Q 1072 3584 1716 3584 
Q 2034 3584 2315 3537 
Q 2597 3491 2834 3397 
z
" transform="scale(0.015625)"/>
     <path id="DejaVuSans-76" d="M 191 3500 
L 800 3500 
L 1894 563 
L 2988 3500 
L 3597 3500 
L 2284 0 
L 1503 0 
L 191 3500 
z
" transform="scale(0.015625)"/>
     <path id="DejaVuSans-61" d="M 2194 1759 
Q 1497 1759 1228 1600 
Q 959 1441 959 1056 
Q 959 750 1161 570 
Q 1363 391 1709 391 
Q 2188 391 2477 730 
Q 2766 1069 2766 1631 
L 2766 1759 
L 2194 1759 
z
M 3341 1997 
L 3341 0 
L 2766 0 
L 2766 531 
Q 2569 213 2275 61 
Q 1981 -91 1556 -91 
Q 1019 -91 701 211 
Q 384 513 384 1019 
Q 384 1609 779 1909 
Q 1175 2209 1959 2209 
L 2766 2209 
L 2766 2266 
Q 2766 2663 2505 2880 
Q 2244 3097 1772 3097 
Q 1472 3097 1187 3025 
Q 903 2953 641 2809 
L 641 3341 
Q 956 3463 1253 3523 
Q 1550 3584 1831 3584 
Q 2591 3584 2966 3190 
Q 3341 2797 3341 1997 
z
" transform="scale(0.015625)"/>
     <path id="DejaVuSans-6d" d="M 3328 2828 
Q 3544 3216 3844 3400 
Q 4144 3584 4550 3584 
Q 5097 3584 5394 3201 
Q 5691 2819 5691 2113 
L 5691 0 
L 5113 0 
L 5113 2094 
Q 5113 2597 4934 2840 
Q 4756 3084 4391 3084 
Q 3944 3084 3684 2787 
Q 3425 2491 3425 1978 
L 3425 0 
L 2847 0 
L 2847 2094 
Q 2847 2600 2669 2842 
Q 2491 3084 2119 3084 
Q 1678 3084 1418 2786 
Q 1159 2488 1159 1978 
L 1159 0 
L 581 0 
L 581 3500 
L 1159 3500 
L 1159 2956 
Q 1356 3278 1631 3431 
Q 1906 3584 2284 3584 
Q 2666 3584 2933 3390 
Q 3200 3197 3328 2828 
z
" transform="scale(0.015625)"/>
     <path id="DejaVuSans-3a" d="M 750 794 
L 1409 794 
L 1409 0 
L 750 0 
L 750 794 
z
M 750 3309 
L 1409 3309 
L 1409 2516 
L 750 2516 
L 750 3309 
z
" transform="scale(0.015625)"/>
     <path id="DejaVuSans-23" d="M 3272 2816 
L 2363 2816 
L 2100 1772 
L 3016 1772 
L 3272 2816 
z
M 2803 4594 
L 2478 3297 
L 3391 3297 
L 3719 4594 
L 4219 4594 
L 3897 3297 
L 4872 3297 
L 4872 2816 
L 3775 2816 
L 3519 1772 
L 4513 1772 
L 4513 1294 
L 3397 1294 
L 3072 0 
L 2572 0 
L 2894 1294 
L 1978 1294 
L 1656 0 
L 1153 0 
L 1478 1294 
L 494 1294 
L 494 1772 
L 1594 1772 
L 1856 2816 
L 850 2816 
L 850 3297 
L 1978 3297 
L 2297 4594 
L 2803 4594 
z
" transform="scale(0.015625)"/>
     <path id="DejaVuSans-31" d="M 794 531 
L 1825 531 
L 1825 4091 
L 703 3866 
L 703 4441 
L 1819 4666 
L 2450 4666 
L 2450 531 
L 3481 531 
L 3481 0 
L 794 0 
L 794 531 
z
" transform="scale(0.015625)"/>
     <path id="DejaVuSans-38" d="M 2034 2216 
Q 1584 2216 1326 1975 
Q 1069 1734 1069 1313 
Q 1069 891 1326 650 
Q 1584 409 2034 409 
Q 2484 409 2743 651 
Q 3003 894 3003 1313 
Q 3003 1734 2745 1975 
Q 2488 2216 2034 2216 
z
M 1403 2484 
Q 997 2584 770 2862 
Q 544 3141 544 3541 
Q 544 4100 942 4425 
Q 1341 4750 2034 4750 
Q 2731 4750 3128 4425 
Q 3525 4100 3525 3541 
Q 3525 3141 3298 2862 
Q 3072 2584 2669 2484 
Q 3125 2378 3379 2068 
Q 3634 1759 3634 1313 
Q 3634 634 3220 271 
Q 2806 -91 2034 -91 
Q 1263 -91 848 271 
Q 434 634 434 1313 
Q 434 1759 690 2068 
Q 947 2378 1403 2484 
z
M 1172 3481 
Q 1172 3119 1398 2916 
Q 1625 2713 2034 2713 
Q 2441 2713 2670 2916 
Q 2900 3119 2900 3481 
Q 2900 3844 2670 4047 
Q 2441 4250 2034 4250 
Q 1625 4250 1398 4047 
Q 1172 3844 1172 3481 
z
" transform="scale(0.015625)"/>
    </defs>
    <use xlink:href="#DejaVuSans-56"/>
    <use xlink:href="#DejaVuSans-4d" x="68.408203"/>
    <use xlink:href="#DejaVuSans-41" x="154.6875"/>
    <use xlink:href="#DejaVuSans-46" x="223.095703"/>
    <use xlink:href="#DejaVuSans-20" x="280.615234"/>
    <use xlink:href="#DejaVuSans-53" x="312.402344"/>
    <use xlink:href="#DejaVuSans-63" x="375.878906"/>
    <use xlink:href="#DejaVuSans-6f" x="430.859375"/>
    <use xlink:href="#DejaVuSans-72" x="492.041016"/>
    <use xlink:href="#DejaVuSans-65" x="530.904297"/>
    <use xlink:href="#DejaVuSans-73" x="592.427734"/>
    <use xlink:href="#DejaVuSans-20" x="644.527344"/>
    <use xlink:href="#DejaVuSans-4f" x="676.314453"/>
    <use xlink:href="#DejaVuSans-76" x="755.025391"/>
    <use xlink:href="#DejaVuSans-65" x="814.205078"/>
    <use xlink:href="#DejaVuSans-72" x="875.728516"/>
    <use xlink:href="#DejaVuSans-20" x="916.841797"/>
    <use xlink:href="#DejaVuSans-46" x="948.628906"/>
    <use xlink:href="#DejaVuSans-72" x="998.898438"/>
    <use xlink:href="#DejaVuSans-61" x="1040.011719"/>
    <use xlink:href="#DejaVuSans-6d" x="1101.291016"/>
    <use xlink:href="#DejaVuSans-65" x="1198.703125"/>
    <use xlink:href="#DejaVuSans-73" x="1260.226562"/>
    <use xlink:href="#DejaVuSans-3a" x="1312.326172"/>
    <use xlink:href="#DejaVuSans-20" x="1346.017578"/>
    <use xlink:href="#DejaVuSans-56" x="1377.804688"/>
    <use xlink:href="#DejaVuSans-69" x="1443.962891"/>
    <use xlink:href="#DejaVuSans-64" x="1471.746094"/>
    <use xlink:href="#DejaVuSans-65" x="1535.222656"/>
    <use xlink:href="#DejaVuSans-6f" x="1596.746094"/>
    <use xlink:href="#DejaVuSans-20" x="1657.927734"/>
    <use xlink:href="#DejaVuSans-23" x="1689.714844"/>
    <use xlink:href="#DejaVuSans-31" x="1773.503906"/>
    <use xlink:href="#DejaVuSans-38" x="1837.126953"/>
   </g>
  </g>
  <g id="text_34">
   <!-- Video Frames -->
   <g transform="translate(187.847438 339.936375) scale(0.12 -0.12)">
    <use xlink:href="#DejaVuSans-56"/>
    <use xlink:href="#DejaVuSans-69" x="66.158203"/>
    <use xlink:href="#DejaVuSans-64" x="93.941406"/>
    <use xlink:href="#DejaVuSans-65" x="157.417969"/>
    <use xlink:href="#DejaVuSans-6f" x="218.941406"/>
    <use xlink:href="#DejaVuSans-20" x="280.123047"/>
    <use xlink:href="#DejaVuSans-46" x="311.910156"/>
    <use xlink:href="#DejaVuSans-72" x="362.179688"/>
    <use xlink:href="#DejaVuSans-61" x="403.292969"/>
    <use xlink:href="#DejaVuSans-6d" x="464.572266"/>
    <use xlink:href="#DejaVuSans-65" x="561.984375"/>
    <use xlink:href="#DejaVuSans-73" x="623.507812"/>
   </g>
  </g>
  <g id="text_35">
   <!-- Raw VMAF Scores -->
   <g transform="translate(16.318125 226.284562) rotate(-90) scale(0.12 -0.12)">
    <defs>
     <path id="DejaVuSans-77" d="M 269 3500 
L 844 3500 
L 1563 769 
L 2278 3500 
L 2956 3500 
L 3675 769 
L 4391 3500 
L 4966 3500 
L 4050 0 
L 3372 0 
L 2619 2869 
L 1863 0 
L 1184 0 
L 269 3500 
z
" transform="scale(0.015625)"/>
    </defs>
    <use xlink:href="#DejaVuSans-52"/>
    <use xlink:href="#DejaVuSans-61" x="67.232422"/>
    <use xlink:href="#DejaVuSans-77" x="128.511719"/>
    <use xlink:href="#DejaVuSans-20" x="210.298828"/>
    <use xlink:href="#DejaVuSans-56" x="242.085938"/>
    <use xlink:href="#DejaVuSans-4d" x="310.494141"/>
    <use xlink:href="#DejaVuSans-41" x="396.773438"/>
    <use xlink:href="#DejaVuSans-46" x="465.181641"/>
    <use xlink:href="#DejaVuSans-20" x="522.701172"/>
    <use xlink:href="#DejaVuSans-53" x="554.488281"/>
    <use xlink:href="#DejaVuSans-63" x="617.964844"/>
    <use xlink:href="#DejaVuSans-6f" x="672.945312"/>
    <use xlink:href="#DejaVuSans-72" x="734.126953"/>
    <use xlink:href="#DejaVuSans-65" x="772.990234"/>
    <use xlink:href="#DejaVuSans-73" x="834.513672"/>
   </g>
  </g>
 </g>
 <defs>
  <clipPath id="pbcc01c592a">
   <rect x="55.584" y="41.76" width="162.327273" height="110.88"/>
  </clipPath>
  <clipPath id="p380a197ace">
   <rect x="250.376727" y="41.76" width="162.327273" height="110.88"/>
  </clipPath>
  <clipPath id="pbca03626b8">
   <rect x="55.584" y="196.992" width="162.327273" height="110.88"/>
  </clipPath>
  <clipPath id="p41f7efd97e">
   <rect x="250.376727" y="196.992" width="162.327273" height="110.88"/>
  </clipPath>
 </defs>
</svg>
