<?xml version="1.0" encoding="utf-8" standalone="no"?>
<!DOCTYPE svg PUBLIC "-//W3C//DTD SVG 1.1//EN"
  "http://www.w3.org/Graphics/SVG/1.1/DTD/svg11.dtd">
<svg xmlns:xlink="http://www.w3.org/1999/xlink" width="429.022809pt" height="349.632pt" viewBox="0 0 429.022809 349.632" xmlns="http://www.w3.org/2000/svg" version="1.1">
 <metadata>
  <rdf:RDF xmlns:dc="http://purl.org/dc/elements/1.1/" xmlns:cc="http://creativecommons.org/ns#" xmlns:rdf="http://www.w3.org/1999/02/22-rdf-syntax-ns#">
   <cc:Work>
    <dc:type rdf:resource="http://purl.org/dc/dcmitype/StillImage"/>
    <dc:date>2024-07-24T16:31:57.262976</dc:date>
    <dc:format>image/svg+xml</dc:format>
    <dc:creator>
     <cc:Agent>
      <dc:title>Matplotlib v3.7.2, https://matplotlib.org/</dc:title>
     </cc:Agent>
    </dc:creator>
   </cc:Work>
  </rdf:RDF>
 </metadata>
 <defs>
  <style type="text/css">*{stroke-linejoin: round; stroke-linecap: butt}</style>
 </defs>
 <g id="figure_1">
  <g id="patch_1">
   <path d="M 0 349.632 
L 429.022809 349.632 
L 429.022809 -0 
L 0 -0 
z
" style="fill: #ffffff"/>
  </g>
  <g id="axes_1">
   <g id="patch_2">
    <path d="M 55.584 152.64 
L 217.911273 152.64 
L 217.911273 41.76 
L 55.584 41.76 
z
" style="fill: #ffffff"/>
   </g>
   <g id="matplotlib.axis_1">
    <g id="xtick_1">
     <g id="line2d_1">
      <defs>
       <path id="mc4ed2e3656" d="M 0 0 
L 0 3.5 
" style="stroke: #000000; stroke-width: 0.8"/>
      </defs>
      <g>
       <use xlink:href="#mc4ed2e3656" x="62.962512" y="152.64" style="stroke: #000000; stroke-width: 0.8"/>
      </g>
     </g>
     <g id="text_1">
      <!-- 0 -->
      <g transform="translate(59.781262 167.238437) scale(0.1 -0.1)">
       <defs>
        <path id="DejaVuSans-30" d="M 2034 4250 
Q 1547 4250 1301 3770 
Q 1056 3291 1056 2328 
Q 1056 1369 1301 889 
Q 1547 409 2034 409 
Q 2525 409 2770 889 
Q 3016 1369 3016 2328 
Q 3016 3291 2770 3770 
Q 2525 4250 2034 4250 
z
M 2034 4750 
Q 2819 4750 3233 4129 
Q 3647 3509 3647 2328 
Q 3647 1150 3233 529 
Q 2819 -91 2034 -91 
Q 1250 -91 836 529 
Q 422 1150 422 2328 
Q 422 3509 836 4129 
Q 1250 4750 2034 4750 
z
" transform="scale(0.015625)"/>
       </defs>
       <use xlink:href="#DejaVuSans-30"/>
      </g>
     </g>
    </g>
    <g id="xtick_2">
     <g id="line2d_2">
      <g>
       <use xlink:href="#mc4ed2e3656" x="101.593467" y="152.64" style="stroke: #000000; stroke-width: 0.8"/>
      </g>
     </g>
     <g id="text_2">
      <!-- 50 -->
      <g transform="translate(95.230967 167.238437) scale(0.1 -0.1)">
       <defs>
        <path id="DejaVuSans-35" d="M 691 4666 
L 3169 4666 
L 3169 4134 
L 1269 4134 
L 1269 2991 
Q 1406 3038 1543 3061 
Q 1681 3084 1819 3084 
Q 2600 3084 3056 2656 
Q 3513 2228 3513 1497 
Q 3513 744 3044 326 
Q 2575 -91 1722 -91 
Q 1428 -91 1123 -41 
Q 819 9 494 109 
L 494 744 
Q 775 591 1075 516 
Q 1375 441 1709 441 
Q 2250 441 2565 725 
Q 2881 1009 2881 1497 
Q 2881 1984 2565 2268 
Q 2250 2553 1709 2553 
Q 1456 2553 1204 2497 
Q 953 2441 691 2322 
L 691 4666 
z
" transform="scale(0.015625)"/>
       </defs>
       <use xlink:href="#DejaVuSans-35"/>
       <use xlink:href="#DejaVuSans-30" x="63.623047"/>
      </g>
     </g>
    </g>
    <g id="xtick_3">
     <g id="line2d_3">
      <g>
       <use xlink:href="#mc4ed2e3656" x="140.224422" y="152.64" style="stroke: #000000; stroke-width: 0.8"/>
      </g>
     </g>
     <g id="text_3">
      <!-- 100 -->
      <g transform="translate(130.680672 167.238437) scale(0.1 -0.1)">
       <defs>
        <path id="DejaVuSans-31" d="M 794 531 
L 1825 531 
L 1825 4091 
L 703 3866 
L 703 4441 
L 1819 4666 
L 2450 4666 
L 2450 531 
L 3481 531 
L 3481 0 
L 794 0 
L 794 531 
z
" transform="scale(0.015625)"/>
       </defs>
       <use xlink:href="#DejaVuSans-31"/>
       <use xlink:href="#DejaVuSans-30" x="63.623047"/>
       <use xlink:href="#DejaVuSans-30" x="127.246094"/>
      </g>
     </g>
    </g>
    <g id="xtick_4">
     <g id="line2d_4">
      <g>
       <use xlink:href="#mc4ed2e3656" x="178.855377" y="152.64" style="stroke: #000000; stroke-width: 0.8"/>
      </g>
     </g>
     <g id="text_4">
      <!-- 150 -->
      <g transform="translate(169.311627 167.238437) scale(0.1 -0.1)">
       <use xlink:href="#DejaVuSans-31"/>
       <use xlink:href="#DejaVuSans-35" x="63.623047"/>
       <use xlink:href="#DejaVuSans-30" x="127.246094"/>
      </g>
     </g>
    </g>
    <g id="xtick_5">
     <g id="line2d_5">
      <g>
       <use xlink:href="#mc4ed2e3656" x="217.486332" y="152.64" style="stroke: #000000; stroke-width: 0.8"/>
      </g>
     </g>
     <g id="text_5">
      <!-- 200 -->
      <g transform="translate(207.942582 167.238437) scale(0.1 -0.1)">
       <defs>
        <path id="DejaVuSans-32" d="M 1228 531 
L 3431 531 
L 3431 0 
L 469 0 
L 469 531 
Q 828 903 1448 1529 
Q 2069 2156 2228 2338 
Q 2531 2678 2651 2914 
Q 2772 3150 2772 3378 
Q 2772 3750 2511 3984 
Q 2250 4219 1831 4219 
Q 1534 4219 1204 4116 
Q 875 4013 500 3803 
L 500 4441 
Q 881 4594 1212 4672 
Q 1544 4750 1819 4750 
Q 2544 4750 2975 4387 
Q 3406 4025 3406 3419 
Q 3406 3131 3298 2873 
Q 3191 2616 2906 2266 
Q 2828 2175 2409 1742 
Q 1991 1309 1228 531 
z
" transform="scale(0.015625)"/>
       </defs>
       <use xlink:href="#DejaVuSans-32"/>
       <use xlink:href="#DejaVuSans-30" x="63.623047"/>
       <use xlink:href="#DejaVuSans-30" x="127.246094"/>
      </g>
     </g>
    </g>
   </g>
   <g id="matplotlib.axis_2">
    <g id="ytick_1">
     <g id="line2d_6">
      <defs>
       <path id="m199f4543a2" d="M 0 0 
L -3.5 0 
" style="stroke: #000000; stroke-width: 0.8"/>
      </defs>
      <g>
       <use xlink:href="#m199f4543a2" x="55.584" y="133.017954" style="stroke: #000000; stroke-width: 0.8"/>
      </g>
     </g>
     <g id="text_6">
      <!-- 10 -->
      <g transform="translate(35.859 136.817173) scale(0.1 -0.1)">
       <use xlink:href="#DejaVuSans-31"/>
       <use xlink:href="#DejaVuSans-30" x="63.623047"/>
      </g>
     </g>
    </g>
    <g id="ytick_2">
     <g id="line2d_7">
      <g>
       <use xlink:href="#m199f4543a2" x="55.584" y="105.391312" style="stroke: #000000; stroke-width: 0.8"/>
      </g>
     </g>
     <g id="text_7">
      <!-- 20 -->
      <g transform="translate(35.859 109.190531) scale(0.1 -0.1)">
       <use xlink:href="#DejaVuSans-32"/>
       <use xlink:href="#DejaVuSans-30" x="63.623047"/>
      </g>
     </g>
    </g>
    <g id="ytick_3">
     <g id="line2d_8">
      <g>
       <use xlink:href="#m199f4543a2" x="55.584" y="77.76467" style="stroke: #000000; stroke-width: 0.8"/>
      </g>
     </g>
     <g id="text_8">
      <!-- 30 -->
      <g transform="translate(35.859 81.563889) scale(0.1 -0.1)">
       <defs>
        <path id="DejaVuSans-33" d="M 2597 2516 
Q 3050 2419 3304 2112 
Q 3559 1806 3559 1356 
Q 3559 666 3084 287 
Q 2609 -91 1734 -91 
Q 1441 -91 1130 -33 
Q 819 25 488 141 
L 488 750 
Q 750 597 1062 519 
Q 1375 441 1716 441 
Q 2309 441 2620 675 
Q 2931 909 2931 1356 
Q 2931 1769 2642 2001 
Q 2353 2234 1838 2234 
L 1294 2234 
L 1294 2753 
L 1863 2753 
Q 2328 2753 2575 2939 
Q 2822 3125 2822 3475 
Q 2822 3834 2567 4026 
Q 2313 4219 1838 4219 
Q 1578 4219 1281 4162 
Q 984 4106 628 3988 
L 628 4550 
Q 988 4650 1302 4700 
Q 1616 4750 1894 4750 
Q 2613 4750 3031 4423 
Q 3450 4097 3450 3541 
Q 3450 3153 3228 2886 
Q 3006 2619 2597 2516 
z
" transform="scale(0.015625)"/>
       </defs>
       <use xlink:href="#DejaVuSans-33"/>
       <use xlink:href="#DejaVuSans-30" x="63.623047"/>
      </g>
     </g>
    </g>
    <g id="ytick_4">
     <g id="line2d_9">
      <g>
       <use xlink:href="#m199f4543a2" x="55.584" y="50.138028" style="stroke: #000000; stroke-width: 0.8"/>
      </g>
     </g>
     <g id="text_9">
      <!-- 40 -->
      <g transform="translate(35.859 53.937246) scale(0.1 -0.1)">
       <defs>
        <path id="DejaVuSans-34" d="M 2419 4116 
L 825 1625 
L 2419 1625 
L 2419 4116 
z
M 2253 4666 
L 3047 4666 
L 3047 1625 
L 3713 1625 
L 3713 1100 
L 3047 1100 
L 3047 0 
L 2419 0 
L 2419 1100 
L 313 1100 
L 313 1709 
L 2253 4666 
z
" transform="scale(0.015625)"/>
       </defs>
       <use xlink:href="#DejaVuSans-34"/>
       <use xlink:href="#DejaVuSans-30" x="63.623047"/>
      </g>
     </g>
    </g>
   </g>
   <g id="line2d_10">
    <path d="M 62.962512 46.8 
L 63.735131 54.469551 
L 64.507751 67.441516 
L 65.28037 67.336356 
L 66.052989 80.515844 
L 67.598227 111.871757 
L 68.370846 116.719887 
L 69.143465 111.09045 
L 69.916084 110.750701 
L 70.688703 118.248574 
L 71.461322 120.186354 
L 72.233942 122.480724 
L 73.006561 119.561519 
L 73.77918 135.70091 
L 74.551799 133.104613 
L 75.324418 125.845075 
L 76.097037 114.776063 
L 76.869656 115.26456 
L 77.642275 114.615428 
L 78.414894 114.510938 
L 79.187513 112.798106 
L 79.960133 112.803681 
L 80.732752 104.608204 
L 81.505371 103.078337 
L 82.27799 105.405305 
L 83.050609 110.757947 
L 83.823228 112.148888 
L 84.595847 115.541647 
L 85.368466 114.830822 
L 86.141085 111.057398 
L 86.913704 114.095179 
L 87.686324 111.795667 
L 88.458943 109.00833 
L 89.231562 104.386003 
L 90.004181 104.122945 
L 91.549419 107.464097 
L 92.322038 107.38422 
L 93.094657 104.846965 
L 93.867276 104.465383 
L 94.639895 99.580258 
L 95.412515 89.454831 
L 96.185134 88.244781 
L 96.957753 92.625532 
L 97.730372 80.737385 
L 98.502991 80.648372 
L 99.27561 89.688823 
L 100.048229 88.55902 
L 100.820848 76.905851 
L 101.593467 73.098848 
L 102.366086 72.609044 
L 103.138706 74.483846 
L 103.911325 77.490022 
L 104.683944 79.78755 
L 105.456563 83.383476 
L 106.229182 78.241854 
L 107.001801 86.474483 
L 107.77442 93.083994 
L 109.319658 98.010197 
L 110.092277 97.897563 
L 110.864897 110.287532 
L 111.637516 108.325167 
L 112.410135 115.179649 
L 113.182754 106.240773 
L 113.955373 102.798977 
L 114.727992 103.750162 
L 115.500611 112.618347 
L 116.27323 104.860576 
L 117.045849 99.951521 
L 117.818468 96.925484 
L 118.591088 92.857458 
L 119.363707 92.936241 
L 120.136326 95.917377 
L 120.908945 90.667718 
L 121.681564 88.096548 
L 122.454183 93.370327 
L 123.226802 95.07167 
L 123.999421 95.855744 
L 124.77204 99.336303 
L 125.544659 97.353907 
L 126.317279 104.32689 
L 127.089898 97.268015 
L 127.862517 96.979356 
L 128.635136 97.895845 
L 129.407755 100.992711 
L 130.180374 99.665547 
L 130.952993 97.938376 
L 131.725612 98.1467 
L 132.498231 97.184713 
L 133.27085 95.810865 
L 134.04347 89.519693 
L 134.816089 99.050522 
L 135.588708 101.920776 
L 136.361327 110.530967 
L 137.133946 106.693151 
L 137.906565 102.12957 
L 138.679184 106.619548 
L 139.451803 103.918616 
L 140.224422 101.764088 
L 140.997041 98.828186 
L 141.769661 102.355066 
L 142.54228 101.40658 
L 143.314899 102.690415 
L 144.087518 101.976128 
L 144.860137 100.561271 
L 145.632756 98.89092 
L 146.405375 95.432197 
L 147.177994 96.621994 
L 147.950613 90.097299 
L 148.723232 100.258768 
L 149.495851 94.649742 
L 150.268471 100.040979 
L 151.04109 98.026693 
L 151.813709 110.425253 
L 152.586328 96.290378 
L 153.358947 106.221606 
L 154.131566 112.431448 
L 154.904185 114.494779 
L 155.676804 115.459535 
L 156.449423 113.08324 
L 157.222042 112.712739 
L 157.994662 110.22961 
L 158.767281 109.868234 
L 159.5399 107.454461 
L 160.312519 111.028235 
L 161.085138 118.767831 
L 161.857757 122.963494 
L 162.630376 121.06963 
L 163.402995 120.928859 
L 164.175614 125.254017 
L 164.948233 126.097878 
L 165.720853 132.151571 
L 166.493472 135.667189 
L 167.266091 136.066758 
L 168.03871 132.739682 
L 168.811329 137.593398 
L 169.583948 137.590287 
L 170.356567 138.785687 
L 171.129186 132.725849 
L 171.901805 134.516105 
L 173.447044 135.547772 
L 174.992282 132.309891 
L 175.764901 135.454408 
L 176.53752 139.196774 
L 177.310139 141.785357 
L 178.082758 141.992736 
L 178.855377 138.972465 
L 179.627996 139.196282 
L 180.400615 145.031797 
L 181.173235 147.6 
L 181.945854 139.677395 
L 182.718473 142.71477 
L 183.491092 143.892585 
L 184.263711 145.315089 
L 185.03633 141.746312 
L 185.808949 129.935912 
L 186.581568 131.356841 
L 187.354187 129.610382 
L 188.126806 128.323941 
L 188.899426 134.791568 
L 189.672045 128.553074 
L 190.444664 126.303514 
L 191.217283 126.384908 
L 191.989902 128.750041 
L 192.762521 132.78586 
L 193.53514 127.496048 
L 194.307759 128.689202 
L 195.080378 131.102397 
L 195.852997 128.264439 
L 196.625617 128.681427 
L 197.398236 118.328882 
L 198.170855 106.34237 
L 198.943474 119.525674 
L 199.716093 106.502663 
L 200.488712 107.466611 
L 201.261331 110.440716 
L 202.03395 116.063851 
L 202.806569 115.902379 
L 203.579188 116.96078 
L 204.351808 112.78361 
L 205.124427 109.738679 
L 205.897046 109.577428 
L 207.442284 117.244821 
L 208.214903 115.935244 
L 208.987522 117.797337 
L 209.760141 111.274999 
L 210.53276 109.653368 
L 210.53276 109.653368 
" clip-path="url(#p24a7291881)" style="fill: none; stroke: #008000; stroke-width: 1.5; stroke-linecap: square"/>
   </g>
   <g id="patch_3">
    <path d="M 55.584 152.64 
L 55.584 41.76 
" style="fill: none; stroke: #000000; stroke-width: 0.8; stroke-linejoin: miter; stroke-linecap: square"/>
   </g>
   <g id="patch_4">
    <path d="M 217.911273 152.64 
L 217.911273 41.76 
" style="fill: none; stroke: #000000; stroke-width: 0.8; stroke-linejoin: miter; stroke-linecap: square"/>
   </g>
   <g id="patch_5">
    <path d="M 55.584 152.64 
L 217.911273 152.64 
" style="fill: none; stroke: #000000; stroke-width: 0.8; stroke-linejoin: miter; stroke-linecap: square"/>
   </g>
   <g id="patch_6">
    <path d="M 55.584 41.76 
L 217.911273 41.76 
" style="fill: none; stroke: #000000; stroke-width: 0.8; stroke-linejoin: miter; stroke-linecap: square"/>
   </g>
   <g id="text_10">
    <!-- No Prediction (FOSS) -->
    <g transform="translate(74.495761 35.76) scale(0.12 -0.12)">
     <defs>
      <path id="DejaVuSans-4e" d="M 628 4666 
L 1478 4666 
L 3547 763 
L 3547 4666 
L 4159 4666 
L 4159 0 
L 3309 0 
L 1241 3903 
L 1241 0 
L 628 0 
L 628 4666 
z
" transform="scale(0.015625)"/>
      <path id="DejaVuSans-6f" d="M 1959 3097 
Q 1497 3097 1228 2736 
Q 959 2375 959 1747 
Q 959 1119 1226 758 
Q 1494 397 1959 397 
Q 2419 397 2687 759 
Q 2956 1122 2956 1747 
Q 2956 2369 2687 2733 
Q 2419 3097 1959 3097 
z
M 1959 3584 
Q 2709 3584 3137 3096 
Q 3566 2609 3566 1747 
Q 3566 888 3137 398 
Q 2709 -91 1959 -91 
Q 1206 -91 779 398 
Q 353 888 353 1747 
Q 353 2609 779 3096 
Q 1206 3584 1959 3584 
z
" transform="scale(0.015625)"/>
      <path id="DejaVuSans-20" transform="scale(0.015625)"/>
      <path id="DejaVuSans-50" d="M 1259 4147 
L 1259 2394 
L 2053 2394 
Q 2494 2394 2734 2622 
Q 2975 2850 2975 3272 
Q 2975 3691 2734 3919 
Q 2494 4147 2053 4147 
L 1259 4147 
z
M 628 4666 
L 2053 4666 
Q 2838 4666 3239 4311 
Q 3641 3956 3641 3272 
Q 3641 2581 3239 2228 
Q 2838 1875 2053 1875 
L 1259 1875 
L 1259 0 
L 628 0 
L 628 4666 
z
" transform="scale(0.015625)"/>
      <path id="DejaVuSans-72" d="M 2631 2963 
Q 2534 3019 2420 3045 
Q 2306 3072 2169 3072 
Q 1681 3072 1420 2755 
Q 1159 2438 1159 1844 
L 1159 0 
L 581 0 
L 581 3500 
L 1159 3500 
L 1159 2956 
Q 1341 3275 1631 3429 
Q 1922 3584 2338 3584 
Q 2397 3584 2469 3576 
Q 2541 3569 2628 3553 
L 2631 2963 
z
" transform="scale(0.015625)"/>
      <path id="DejaVuSans-65" d="M 3597 1894 
L 3597 1613 
L 953 1613 
Q 991 1019 1311 708 
Q 1631 397 2203 397 
Q 2534 397 2845 478 
Q 3156 559 3463 722 
L 3463 178 
Q 3153 47 2828 -22 
Q 2503 -91 2169 -91 
Q 1331 -91 842 396 
Q 353 884 353 1716 
Q 353 2575 817 3079 
Q 1281 3584 2069 3584 
Q 2775 3584 3186 3129 
Q 3597 2675 3597 1894 
z
M 3022 2063 
Q 3016 2534 2758 2815 
Q 2500 3097 2075 3097 
Q 1594 3097 1305 2825 
Q 1016 2553 972 2059 
L 3022 2063 
z
" transform="scale(0.015625)"/>
      <path id="DejaVuSans-64" d="M 2906 2969 
L 2906 4863 
L 3481 4863 
L 3481 0 
L 2906 0 
L 2906 525 
Q 2725 213 2448 61 
Q 2172 -91 1784 -91 
Q 1150 -91 751 415 
Q 353 922 353 1747 
Q 353 2572 751 3078 
Q 1150 3584 1784 3584 
Q 2172 3584 2448 3432 
Q 2725 3281 2906 2969 
z
M 947 1747 
Q 947 1113 1208 752 
Q 1469 391 1925 391 
Q 2381 391 2643 752 
Q 2906 1113 2906 1747 
Q 2906 2381 2643 2742 
Q 2381 3103 1925 3103 
Q 1469 3103 1208 2742 
Q 947 2381 947 1747 
z
" transform="scale(0.015625)"/>
      <path id="DejaVuSans-69" d="M 603 3500 
L 1178 3500 
L 1178 0 
L 603 0 
L 603 3500 
z
M 603 4863 
L 1178 4863 
L 1178 4134 
L 603 4134 
L 603 4863 
z
" transform="scale(0.015625)"/>
      <path id="DejaVuSans-63" d="M 3122 3366 
L 3122 2828 
Q 2878 2963 2633 3030 
Q 2388 3097 2138 3097 
Q 1578 3097 1268 2742 
Q 959 2388 959 1747 
Q 959 1106 1268 751 
Q 1578 397 2138 397 
Q 2388 397 2633 464 
Q 2878 531 3122 666 
L 3122 134 
Q 2881 22 2623 -34 
Q 2366 -91 2075 -91 
Q 1284 -91 818 406 
Q 353 903 353 1747 
Q 353 2603 823 3093 
Q 1294 3584 2113 3584 
Q 2378 3584 2631 3529 
Q 2884 3475 3122 3366 
z
" transform="scale(0.015625)"/>
      <path id="DejaVuSans-74" d="M 1172 4494 
L 1172 3500 
L 2356 3500 
L 2356 3053 
L 1172 3053 
L 1172 1153 
Q 1172 725 1289 603 
Q 1406 481 1766 481 
L 2356 481 
L 2356 0 
L 1766 0 
Q 1100 0 847 248 
Q 594 497 594 1153 
L 594 3053 
L 172 3053 
L 172 3500 
L 594 3500 
L 594 4494 
L 1172 4494 
z
" transform="scale(0.015625)"/>
      <path id="DejaVuSans-6e" d="M 3513 2113 
L 3513 0 
L 2938 0 
L 2938 2094 
Q 2938 2591 2744 2837 
Q 2550 3084 2163 3084 
Q 1697 3084 1428 2787 
Q 1159 2491 1159 1978 
L 1159 0 
L 581 0 
L 581 3500 
L 1159 3500 
L 1159 2956 
Q 1366 3272 1645 3428 
Q 1925 3584 2291 3584 
Q 2894 3584 3203 3211 
Q 3513 2838 3513 2113 
z
" transform="scale(0.015625)"/>
      <path id="DejaVuSans-28" d="M 1984 4856 
Q 1566 4138 1362 3434 
Q 1159 2731 1159 2009 
Q 1159 1288 1364 580 
Q 1569 -128 1984 -844 
L 1484 -844 
Q 1016 -109 783 600 
Q 550 1309 550 2009 
Q 550 2706 781 3412 
Q 1013 4119 1484 4856 
L 1984 4856 
z
" transform="scale(0.015625)"/>
      <path id="DejaVuSans-46" d="M 628 4666 
L 3309 4666 
L 3309 4134 
L 1259 4134 
L 1259 2759 
L 3109 2759 
L 3109 2228 
L 1259 2228 
L 1259 0 
L 628 0 
L 628 4666 
z
" transform="scale(0.015625)"/>
      <path id="DejaVuSans-4f" d="M 2522 4238 
Q 1834 4238 1429 3725 
Q 1025 3213 1025 2328 
Q 1025 1447 1429 934 
Q 1834 422 2522 422 
Q 3209 422 3611 934 
Q 4013 1447 4013 2328 
Q 4013 3213 3611 3725 
Q 3209 4238 2522 4238 
z
M 2522 4750 
Q 3503 4750 4090 4092 
Q 4678 3434 4678 2328 
Q 4678 1225 4090 567 
Q 3503 -91 2522 -91 
Q 1538 -91 948 565 
Q 359 1222 359 2328 
Q 359 3434 948 4092 
Q 1538 4750 2522 4750 
z
" transform="scale(0.015625)"/>
      <path id="DejaVuSans-53" d="M 3425 4513 
L 3425 3897 
Q 3066 4069 2747 4153 
Q 2428 4238 2131 4238 
Q 1616 4238 1336 4038 
Q 1056 3838 1056 3469 
Q 1056 3159 1242 3001 
Q 1428 2844 1947 2747 
L 2328 2669 
Q 3034 2534 3370 2195 
Q 3706 1856 3706 1288 
Q 3706 609 3251 259 
Q 2797 -91 1919 -91 
Q 1588 -91 1214 -16 
Q 841 59 441 206 
L 441 856 
Q 825 641 1194 531 
Q 1563 422 1919 422 
Q 2459 422 2753 634 
Q 3047 847 3047 1241 
Q 3047 1584 2836 1778 
Q 2625 1972 2144 2069 
L 1759 2144 
Q 1053 2284 737 2584 
Q 422 2884 422 3419 
Q 422 4038 858 4394 
Q 1294 4750 2059 4750 
Q 2388 4750 2728 4690 
Q 3069 4631 3425 4513 
z
" transform="scale(0.015625)"/>
      <path id="DejaVuSans-29" d="M 513 4856 
L 1013 4856 
Q 1481 4119 1714 3412 
Q 1947 2706 1947 2009 
Q 1947 1309 1714 600 
Q 1481 -109 1013 -844 
L 513 -844 
Q 928 -128 1133 580 
Q 1338 1288 1338 2009 
Q 1338 2731 1133 3434 
Q 928 4138 513 4856 
z
" transform="scale(0.015625)"/>
     </defs>
     <use xlink:href="#DejaVuSans-4e"/>
     <use xlink:href="#DejaVuSans-6f" x="74.804688"/>
     <use xlink:href="#DejaVuSans-20" x="135.986328"/>
     <use xlink:href="#DejaVuSans-50" x="167.773438"/>
     <use xlink:href="#DejaVuSans-72" x="226.326172"/>
     <use xlink:href="#DejaVuSans-65" x="265.189453"/>
     <use xlink:href="#DejaVuSans-64" x="326.712891"/>
     <use xlink:href="#DejaVuSans-69" x="390.189453"/>
     <use xlink:href="#DejaVuSans-63" x="417.972656"/>
     <use xlink:href="#DejaVuSans-74" x="472.953125"/>
     <use xlink:href="#DejaVuSans-69" x="512.162109"/>
     <use xlink:href="#DejaVuSans-6f" x="539.945312"/>
     <use xlink:href="#DejaVuSans-6e" x="601.126953"/>
     <use xlink:href="#DejaVuSans-20" x="664.505859"/>
     <use xlink:href="#DejaVuSans-28" x="696.292969"/>
     <use xlink:href="#DejaVuSans-46" x="735.306641"/>
     <use xlink:href="#DejaVuSans-4f" x="792.826172"/>
     <use xlink:href="#DejaVuSans-53" x="871.537109"/>
     <use xlink:href="#DejaVuSans-53" x="935.013672"/>
     <use xlink:href="#DejaVuSans-29" x="998.490234"/>
    </g>
   </g>
  </g>
  <g id="axes_2">
   <g id="patch_7">
    <path d="M 250.376727 152.64 
L 412.704 152.64 
L 412.704 41.76 
L 250.376727 41.76 
z
" style="fill: #ffffff"/>
   </g>
   <g id="matplotlib.axis_3">
    <g id="xtick_6">
     <g id="line2d_11">
      <g>
       <use xlink:href="#mc4ed2e3656" x="257.75524" y="152.64" style="stroke: #000000; stroke-width: 0.8"/>
      </g>
     </g>
     <g id="text_11">
      <!-- 0 -->
      <g transform="translate(254.57399 167.238437) scale(0.1 -0.1)">
       <use xlink:href="#DejaVuSans-30"/>
      </g>
     </g>
    </g>
    <g id="xtick_7">
     <g id="line2d_12">
      <g>
       <use xlink:href="#mc4ed2e3656" x="296.386195" y="152.64" style="stroke: #000000; stroke-width: 0.8"/>
      </g>
     </g>
     <g id="text_12">
      <!-- 50 -->
      <g transform="translate(290.023695 167.238437) scale(0.1 -0.1)">
       <use xlink:href="#DejaVuSans-35"/>
       <use xlink:href="#DejaVuSans-30" x="63.623047"/>
      </g>
     </g>
    </g>
    <g id="xtick_8">
     <g id="line2d_13">
      <g>
       <use xlink:href="#mc4ed2e3656" x="335.01715" y="152.64" style="stroke: #000000; stroke-width: 0.8"/>
      </g>
     </g>
     <g id="text_13">
      <!-- 100 -->
      <g transform="translate(325.4734 167.238437) scale(0.1 -0.1)">
       <use xlink:href="#DejaVuSans-31"/>
       <use xlink:href="#DejaVuSans-30" x="63.623047"/>
       <use xlink:href="#DejaVuSans-30" x="127.246094"/>
      </g>
     </g>
    </g>
    <g id="xtick_9">
     <g id="line2d_14">
      <g>
       <use xlink:href="#mc4ed2e3656" x="373.648105" y="152.64" style="stroke: #000000; stroke-width: 0.8"/>
      </g>
     </g>
     <g id="text_14">
      <!-- 150 -->
      <g transform="translate(364.104355 167.238437) scale(0.1 -0.1)">
       <use xlink:href="#DejaVuSans-31"/>
       <use xlink:href="#DejaVuSans-35" x="63.623047"/>
       <use xlink:href="#DejaVuSans-30" x="127.246094"/>
      </g>
     </g>
    </g>
    <g id="xtick_10">
     <g id="line2d_15">
      <g>
       <use xlink:href="#mc4ed2e3656" x="412.279059" y="152.64" style="stroke: #000000; stroke-width: 0.8"/>
      </g>
     </g>
     <g id="text_15">
      <!-- 200 -->
      <g transform="translate(402.735309 167.238437) scale(0.1 -0.1)">
       <use xlink:href="#DejaVuSans-32"/>
       <use xlink:href="#DejaVuSans-30" x="63.623047"/>
       <use xlink:href="#DejaVuSans-30" x="127.246094"/>
      </g>
     </g>
    </g>
   </g>
   <g id="matplotlib.axis_4">
    <g id="ytick_5">
     <g id="line2d_16">
      <g>
       <use xlink:href="#m199f4543a2" x="250.376727" y="147.6" style="stroke: #000000; stroke-width: 0.8"/>
      </g>
     </g>
     <g id="text_16">
      <!-- 0 -->
      <g transform="translate(237.014227 151.399219) scale(0.1 -0.1)">
       <use xlink:href="#DejaVuSans-30"/>
      </g>
     </g>
    </g>
    <g id="ytick_6">
     <g id="line2d_17">
      <g>
       <use xlink:href="#m199f4543a2" x="250.376727" y="123.13813" style="stroke: #000000; stroke-width: 0.8"/>
      </g>
     </g>
     <g id="text_17">
      <!-- 10 -->
      <g transform="translate(230.651727 126.937349) scale(0.1 -0.1)">
       <use xlink:href="#DejaVuSans-31"/>
       <use xlink:href="#DejaVuSans-30" x="63.623047"/>
      </g>
     </g>
    </g>
    <g id="ytick_7">
     <g id="line2d_18">
      <g>
       <use xlink:href="#m199f4543a2" x="250.376727" y="98.67626" style="stroke: #000000; stroke-width: 0.8"/>
      </g>
     </g>
     <g id="text_18">
      <!-- 20 -->
      <g transform="translate(230.651727 102.475479) scale(0.1 -0.1)">
       <use xlink:href="#DejaVuSans-32"/>
       <use xlink:href="#DejaVuSans-30" x="63.623047"/>
      </g>
     </g>
    </g>
    <g id="ytick_8">
     <g id="line2d_19">
      <g>
       <use xlink:href="#m199f4543a2" x="250.376727" y="74.214391" style="stroke: #000000; stroke-width: 0.8"/>
      </g>
     </g>
     <g id="text_19">
      <!-- 30 -->
      <g transform="translate(230.651727 78.013609) scale(0.1 -0.1)">
       <use xlink:href="#DejaVuSans-33"/>
       <use xlink:href="#DejaVuSans-30" x="63.623047"/>
      </g>
     </g>
    </g>
    <g id="ytick_9">
     <g id="line2d_20">
      <g>
       <use xlink:href="#m199f4543a2" x="250.376727" y="49.752521" style="stroke: #000000; stroke-width: 0.8"/>
      </g>
     </g>
     <g id="text_20">
      <!-- 40 -->
      <g transform="translate(230.651727 53.55174) scale(0.1 -0.1)">
       <use xlink:href="#DejaVuSans-34"/>
       <use xlink:href="#DejaVuSans-30" x="63.623047"/>
      </g>
     </g>
    </g>
   </g>
   <g id="line2d_21">
    <path d="M 257.75524 46.8 
L 258.527859 53.594138 
L 259.300478 65.064228 
L 260.073097 64.994157 
L 260.845716 76.655534 
L 262.390954 104.406884 
L 263.163573 108.720062 
L 263.936192 103.717553 
L 264.708812 103.439456 
L 265.481431 110.057297 
L 266.25405 111.766521 
L 267.026669 137.780964 
L 267.799288 140.93915 
L 268.571907 147.6 
L 275.525479 147.6 
L 276.298098 96.940507 
L 277.070717 98.698168 
L 277.843336 103.434752 
L 278.615955 104.553856 
L 279.388574 107.660883 
L 280.161194 107.030412 
L 280.933813 103.682174 
L 281.706432 106.313917 
L 282.479051 104.332953 
L 283.25167 101.876149 
L 284.024289 97.772575 
L 284.796908 97.578894 
L 285.569527 147.6 
L 290.205242 147.6 
L 291.75048 139.99731 
L 293.295718 124.82709 
L 294.068337 128.28526 
L 294.840956 83.794106 
L 295.613576 73.509622 
L 296.386195 70.094288 
L 297.158814 69.655036 
L 297.931433 71.27355 
L 298.704052 73.961049 
L 299.476671 75.684047 
L 300.24929 79.133714 
L 301.021909 74.614949 
L 301.794528 81.933752 
L 302.567147 87.780785 
L 303.339767 90.057673 
L 304.112386 147.6 
L 304.885005 113.482984 
L 305.657624 135.434126 
L 306.430243 143.432062 
L 307.202862 137.415083 
L 307.975481 136.949219 
L 309.520719 122.118902 
L 310.293338 127.527509 
L 311.065958 120.544321 
L 311.838577 118.401512 
L 312.611196 112.287835 
L 313.383815 87.587184 
L 314.156434 87.644189 
L 314.929053 90.296898 
L 315.701672 85.624432 
L 316.474291 83.372988 
L 317.24691 88.018175 
L 318.019529 89.531604 
L 318.792149 90.191475 
L 319.564768 93.330757 
L 320.337387 91.556988 
L 321.110006 97.719275 
L 321.882625 91.51017 
L 322.655244 126.455045 
L 323.427863 122.522604 
L 324.200482 137.46046 
L 324.973101 132.742442 
L 325.74572 118.87129 
L 326.518339 112.252923 
L 327.290959 123.925993 
L 328.063578 139.431834 
L 328.836197 138.534612 
L 329.608816 141.483588 
L 330.381435 140.234198 
L 331.154054 141.971634 
L 331.926673 99.836171 
L 332.699292 95.786338 
L 333.471911 99.773473 
L 334.24453 97.369635 
L 335.01715 95.460129 
L 335.789769 92.851977 
L 336.562388 95.987253 
L 337.335007 95.13561 
L 338.107626 96.27579 
L 338.880245 95.641078 
L 340.425483 92.907029 
L 341.198102 130.531405 
L 341.970721 129.244799 
L 342.743341 124.26763 
L 343.51596 124.586581 
L 344.288579 121.080987 
L 345.833817 137.931725 
L 346.606436 141.856028 
L 347.379055 137.658275 
L 348.151674 137.602527 
L 348.924293 138.251725 
L 349.696912 143.380743 
L 350.469532 107.595063 
L 351.242151 105.496469 
L 352.01477 105.163861 
L 352.787389 102.897858 
L 353.560008 102.632139 
L 354.332627 100.513626 
L 355.105246 103.660102 
L 355.877865 110.535923 
L 356.650484 114.238425 
L 357.423103 112.551808 
L 358.195723 112.757207 
L 358.968342 116.250103 
L 359.740961 147.6 
L 360.51358 144.806496 
L 361.286199 144.505476 
L 362.058818 137.75657 
L 362.831437 135.535479 
L 363.604056 139.970815 
L 364.376675 138.439573 
L 365.149294 140.550652 
L 365.921914 138.474304 
L 366.694533 134.56129 
L 368.239771 147.6 
L 369.01239 123.876529 
L 369.785009 122.519475 
L 370.557628 125.304287 
L 371.330247 128.608037 
L 372.102866 130.915791 
L 372.875485 131.062382 
L 373.648105 128.43149 
L 374.420724 128.610906 
L 375.193343 133.781881 
L 375.965962 136.060399 
L 376.738581 129.032597 
L 377.5112 131.709919 
L 378.283819 147.6 
L 379.056438 147.6 
L 379.829057 133.760758 
L 380.601676 138.547787 
L 381.374296 145.322881 
L 382.146915 147.6 
L 382.919534 145.57126 
L 383.692153 147.6 
L 384.464772 147.038184 
L 385.237391 143.421984 
L 386.01001 142.589509 
L 386.782629 136.500008 
L 387.555248 122.925537 
L 388.327867 118.248014 
L 389.100487 119.301704 
L 389.873106 121.44711 
L 390.645725 118.93826 
L 391.418344 119.296592 
L 392.190963 110.121585 
L 392.963582 99.509622 
L 393.736201 111.181941 
L 394.50882 99.670638 
L 395.281439 100.524308 
L 396.054058 102.959037 
L 396.826678 147.6 
L 398.371916 147.6 
L 399.144535 141.406621 
L 399.917154 143.010435 
L 400.689773 129.394324 
L 401.462392 126.04127 
L 402.235011 116.649597 
L 403.780249 130.849656 
L 404.552869 128.814666 
L 405.325488 137.757935 
L 405.325488 137.757935 
" clip-path="url(#p51f440ff03)" style="fill: none; stroke: #0000ff; stroke-width: 1.5; stroke-linecap: square"/>
   </g>
   <g id="patch_8">
    <path d="M 250.376727 152.64 
L 250.376727 41.76 
" style="fill: none; stroke: #000000; stroke-width: 0.8; stroke-linejoin: miter; stroke-linecap: square"/>
   </g>
   <g id="patch_9">
    <path d="M 412.704 152.64 
L 412.704 41.76 
" style="fill: none; stroke: #000000; stroke-width: 0.8; stroke-linejoin: miter; stroke-linecap: square"/>
   </g>
   <g id="patch_10">
    <path d="M 250.376727 152.64 
L 412.704 152.64 
" style="fill: none; stroke: #000000; stroke-width: 0.8; stroke-linejoin: miter; stroke-linecap: square"/>
   </g>
   <g id="patch_11">
    <path d="M 250.376727 41.76 
L 412.704 41.76 
" style="fill: none; stroke: #000000; stroke-width: 0.8; stroke-linejoin: miter; stroke-linecap: square"/>
   </g>
   <g id="text_21">
    <!-- RNN -->
    <g transform="translate(318.393801 35.76) scale(0.12 -0.12)">
     <defs>
      <path id="DejaVuSans-52" d="M 2841 2188 
Q 3044 2119 3236 1894 
Q 3428 1669 3622 1275 
L 4263 0 
L 3584 0 
L 2988 1197 
Q 2756 1666 2539 1819 
Q 2322 1972 1947 1972 
L 1259 1972 
L 1259 0 
L 628 0 
L 628 4666 
L 2053 4666 
Q 2853 4666 3247 4331 
Q 3641 3997 3641 3322 
Q 3641 2881 3436 2590 
Q 3231 2300 2841 2188 
z
M 1259 4147 
L 1259 2491 
L 2053 2491 
Q 2509 2491 2742 2702 
Q 2975 2913 2975 3322 
Q 2975 3731 2742 3939 
Q 2509 4147 2053 4147 
L 1259 4147 
z
" transform="scale(0.015625)"/>
     </defs>
     <use xlink:href="#DejaVuSans-52"/>
     <use xlink:href="#DejaVuSans-4e" x="69.482422"/>
     <use xlink:href="#DejaVuSans-4e" x="144.287109"/>
    </g>
   </g>
  </g>
  <g id="axes_3">
   <g id="patch_12">
    <path d="M 55.584 307.872 
L 217.911273 307.872 
L 217.911273 196.992 
L 55.584 196.992 
z
" style="fill: #ffffff"/>
   </g>
   <g id="matplotlib.axis_5">
    <g id="xtick_11">
     <g id="line2d_22">
      <g>
       <use xlink:href="#mc4ed2e3656" x="62.962512" y="307.872" style="stroke: #000000; stroke-width: 0.8"/>
      </g>
     </g>
     <g id="text_22">
      <!-- 0 -->
      <g transform="translate(59.781262 322.470437) scale(0.1 -0.1)">
       <use xlink:href="#DejaVuSans-30"/>
      </g>
     </g>
    </g>
    <g id="xtick_12">
     <g id="line2d_23">
      <g>
       <use xlink:href="#mc4ed2e3656" x="101.593467" y="307.872" style="stroke: #000000; stroke-width: 0.8"/>
      </g>
     </g>
     <g id="text_23">
      <!-- 50 -->
      <g transform="translate(95.230967 322.470437) scale(0.1 -0.1)">
       <use xlink:href="#DejaVuSans-35"/>
       <use xlink:href="#DejaVuSans-30" x="63.623047"/>
      </g>
     </g>
    </g>
    <g id="xtick_13">
     <g id="line2d_24">
      <g>
       <use xlink:href="#mc4ed2e3656" x="140.224422" y="307.872" style="stroke: #000000; stroke-width: 0.8"/>
      </g>
     </g>
     <g id="text_24">
      <!-- 100 -->
      <g transform="translate(130.680672 322.470437) scale(0.1 -0.1)">
       <use xlink:href="#DejaVuSans-31"/>
       <use xlink:href="#DejaVuSans-30" x="63.623047"/>
       <use xlink:href="#DejaVuSans-30" x="127.246094"/>
      </g>
     </g>
    </g>
    <g id="xtick_14">
     <g id="line2d_25">
      <g>
       <use xlink:href="#mc4ed2e3656" x="178.855377" y="307.872" style="stroke: #000000; stroke-width: 0.8"/>
      </g>
     </g>
     <g id="text_25">
      <!-- 150 -->
      <g transform="translate(169.311627 322.470437) scale(0.1 -0.1)">
       <use xlink:href="#DejaVuSans-31"/>
       <use xlink:href="#DejaVuSans-35" x="63.623047"/>
       <use xlink:href="#DejaVuSans-30" x="127.246094"/>
      </g>
     </g>
    </g>
    <g id="xtick_15">
     <g id="line2d_26">
      <g>
       <use xlink:href="#mc4ed2e3656" x="217.486332" y="307.872" style="stroke: #000000; stroke-width: 0.8"/>
      </g>
     </g>
     <g id="text_26">
      <!-- 200 -->
      <g transform="translate(207.942582 322.470437) scale(0.1 -0.1)">
       <use xlink:href="#DejaVuSans-32"/>
       <use xlink:href="#DejaVuSans-30" x="63.623047"/>
       <use xlink:href="#DejaVuSans-30" x="127.246094"/>
      </g>
     </g>
    </g>
   </g>
   <g id="matplotlib.axis_6">
    <g id="ytick_10">
     <g id="line2d_27">
      <g>
       <use xlink:href="#m199f4543a2" x="55.584" y="302.832" style="stroke: #000000; stroke-width: 0.8"/>
      </g>
     </g>
     <g id="text_27">
      <!-- 0 -->
      <g transform="translate(42.2215 306.631219) scale(0.1 -0.1)">
       <use xlink:href="#DejaVuSans-30"/>
      </g>
     </g>
    </g>
    <g id="ytick_11">
     <g id="line2d_28">
      <g>
       <use xlink:href="#m199f4543a2" x="55.584" y="278.37013" style="stroke: #000000; stroke-width: 0.8"/>
      </g>
     </g>
     <g id="text_28">
      <!-- 10 -->
      <g transform="translate(35.859 282.169349) scale(0.1 -0.1)">
       <use xlink:href="#DejaVuSans-31"/>
       <use xlink:href="#DejaVuSans-30" x="63.623047"/>
      </g>
     </g>
    </g>
    <g id="ytick_12">
     <g id="line2d_29">
      <g>
       <use xlink:href="#m199f4543a2" x="55.584" y="253.90826" style="stroke: #000000; stroke-width: 0.8"/>
      </g>
     </g>
     <g id="text_29">
      <!-- 20 -->
      <g transform="translate(35.859 257.707479) scale(0.1 -0.1)">
       <use xlink:href="#DejaVuSans-32"/>
       <use xlink:href="#DejaVuSans-30" x="63.623047"/>
      </g>
     </g>
    </g>
    <g id="ytick_13">
     <g id="line2d_30">
      <g>
       <use xlink:href="#m199f4543a2" x="55.584" y="229.446391" style="stroke: #000000; stroke-width: 0.8"/>
      </g>
     </g>
     <g id="text_30">
      <!-- 30 -->
      <g transform="translate(35.859 233.245609) scale(0.1 -0.1)">
       <use xlink:href="#DejaVuSans-33"/>
       <use xlink:href="#DejaVuSans-30" x="63.623047"/>
      </g>
     </g>
    </g>
    <g id="ytick_14">
     <g id="line2d_31">
      <g>
       <use xlink:href="#m199f4543a2" x="55.584" y="204.984521" style="stroke: #000000; stroke-width: 0.8"/>
      </g>
     </g>
     <g id="text_31">
      <!-- 40 -->
      <g transform="translate(35.859 208.78374) scale(0.1 -0.1)">
       <use xlink:href="#DejaVuSans-34"/>
       <use xlink:href="#DejaVuSans-30" x="63.623047"/>
      </g>
     </g>
    </g>
   </g>
   <g id="line2d_32">
    <path d="M 62.962512 202.032 
L 63.735131 208.826138 
L 64.507751 220.296228 
L 65.28037 220.226157 
L 66.052989 231.887534 
L 67.598227 259.638884 
L 68.370846 263.952062 
L 69.143465 258.949553 
L 69.916084 258.671456 
L 70.688703 265.289297 
L 71.461322 266.998521 
L 72.233942 302.832 
L 73.006561 297.926307 
L 73.77918 302.832 
L 80.732752 302.832 
L 81.505371 252.172507 
L 82.27799 253.930168 
L 83.050609 258.666752 
L 83.823228 259.785856 
L 84.595847 262.892883 
L 85.368466 262.262412 
L 86.141085 258.914174 
L 86.913704 261.545917 
L 87.686324 259.564953 
L 88.458943 257.108149 
L 89.231562 253.004575 
L 90.004181 252.810894 
L 90.7768 302.832 
L 94.639895 302.832 
L 95.412515 297.81878 
L 96.185134 299.818616 
L 96.957753 302.832 
L 97.730372 301.109297 
L 98.502991 302.832 
L 99.27561 301.64637 
L 100.048229 239.026106 
L 100.820848 228.741622 
L 101.593467 225.326288 
L 102.366086 224.887036 
L 103.138706 226.50555 
L 103.911325 229.193049 
L 104.683944 230.916047 
L 105.456563 234.365714 
L 106.229182 229.846949 
L 107.001801 237.165752 
L 107.77442 243.012785 
L 108.547039 245.289673 
L 109.319658 302.832 
L 112.410135 302.832 
L 113.182754 295.372025 
L 113.955373 289.492952 
L 114.727992 287.197744 
L 115.500611 287.42281 
L 116.27323 284.68767 
L 117.045849 287.171611 
L 117.818468 282.027571 
L 118.591088 242.819184 
L 119.363707 242.876189 
L 120.136326 245.528898 
L 120.908945 240.856432 
L 121.681564 238.604988 
L 122.454183 243.250175 
L 123.226802 244.763604 
L 123.999421 245.423475 
L 124.77204 248.562757 
L 125.544659 246.788988 
L 126.317279 252.951275 
L 127.089898 246.74217 
L 127.862517 289.138742 
L 128.635136 286.566332 
L 129.407755 288.318565 
L 130.180374 286.225874 
L 130.952993 271.031131 
L 131.725612 273.527157 
L 132.498231 286.072899 
L 133.27085 295.227049 
L 134.04347 293.390543 
L 134.816089 293.362864 
L 135.588708 294.22924 
L 136.361327 287.750012 
L 137.133946 255.068171 
L 137.906565 251.018338 
L 138.679184 255.005473 
L 139.451803 252.601635 
L 140.224422 250.692129 
L 140.997041 248.083977 
L 141.769661 251.219253 
L 142.54228 250.36761 
L 143.314899 251.50779 
L 144.087518 250.873078 
L 145.632756 248.139029 
L 146.405375 284.640918 
L 147.177994 285.042051 
L 147.950613 283.888388 
L 148.723232 286.998287 
L 149.495851 295.022621 
L 150.268471 295.530384 
L 151.04109 297.875497 
L 151.813709 295.89603 
L 153.358947 287.997126 
L 154.131566 286.277564 
L 154.904185 293.696795 
L 155.676804 262.827063 
L 156.449423 260.728469 
L 157.222042 260.395861 
L 157.994662 258.129858 
L 158.767281 257.864139 
L 159.5399 255.745626 
L 160.312519 258.892102 
L 161.085138 265.767923 
L 161.857757 269.470425 
L 162.630376 267.783808 
L 163.402995 267.989207 
L 164.175614 271.482103 
L 164.948233 296.59788 
L 165.720853 297.869783 
L 166.493472 295.387387 
L 167.266091 296.525414 
L 168.03871 295.515721 
L 169.583948 296.131935 
L 170.356567 290.052987 
L 171.129186 297.890252 
L 171.901805 285.825235 
L 172.674424 288.140994 
L 173.447044 292.102016 
L 174.219663 279.108529 
L 174.992282 277.751475 
L 175.764901 280.536287 
L 176.53752 283.840037 
L 177.310139 286.147791 
L 178.082758 286.294382 
L 178.855377 283.66349 
L 179.627996 283.842906 
L 180.400615 289.013881 
L 181.173235 291.292399 
L 181.945854 284.264597 
L 182.718473 286.941919 
L 183.491092 302.832 
L 184.263711 302.832 
L 185.03633 298.471833 
L 185.808949 285.210175 
L 187.354187 288.380549 
L 188.126806 289.675276 
L 188.899426 290.42199 
L 189.672045 295.015447 
L 190.444664 294.768526 
L 191.217283 294.369125 
L 191.989902 287.320711 
L 192.762521 278.157537 
L 193.53514 273.480014 
L 194.307759 274.533704 
L 195.080378 276.67911 
L 195.852997 274.17026 
L 196.625617 274.528592 
L 197.398236 265.353585 
L 198.170855 254.741622 
L 198.943474 266.413941 
L 199.716093 254.902638 
L 200.488712 255.756308 
L 201.261331 258.191037 
L 202.03395 302.832 
L 205.897046 302.832 
L 206.669665 302.708524 
L 207.442284 298.809825 
L 208.214903 295.836375 
L 208.987522 299.728317 
L 209.760141 302.832 
L 210.53276 302.832 
L 210.53276 302.832 
" clip-path="url(#pc938b3c90c)" style="fill: none; stroke: #ffa500; stroke-width: 1.5; stroke-linecap: square"/>
   </g>
   <g id="patch_13">
    <path d="M 55.584 307.872 
L 55.584 196.992 
" style="fill: none; stroke: #000000; stroke-width: 0.8; stroke-linejoin: miter; stroke-linecap: square"/>
   </g>
   <g id="patch_14">
    <path d="M 217.911273 307.872 
L 217.911273 196.992 
" style="fill: none; stroke: #000000; stroke-width: 0.8; stroke-linejoin: miter; stroke-linecap: square"/>
   </g>
   <g id="patch_15">
    <path d="M 55.584 307.872 
L 217.911273 307.872 
" style="fill: none; stroke: #000000; stroke-width: 0.8; stroke-linejoin: miter; stroke-linecap: square"/>
   </g>
   <g id="patch_16">
    <path d="M 55.584 196.992 
L 217.911273 196.992 
" style="fill: none; stroke: #000000; stroke-width: 0.8; stroke-linejoin: miter; stroke-linecap: square"/>
   </g>
   <g id="text_32">
    <!-- VAE -->
    <g transform="translate(125.130136 190.992) scale(0.12 -0.12)">
     <defs>
      <path id="DejaVuSans-56" d="M 1831 0 
L 50 4666 
L 709 4666 
L 2188 738 
L 3669 4666 
L 4325 4666 
L 2547 0 
L 1831 0 
z
" transform="scale(0.015625)"/>
      <path id="DejaVuSans-41" d="M 2188 4044 
L 1331 1722 
L 3047 1722 
L 2188 4044 
z
M 1831 4666 
L 2547 4666 
L 4325 0 
L 3669 0 
L 3244 1197 
L 1141 1197 
L 716 0 
L 50 0 
L 1831 4666 
z
" transform="scale(0.015625)"/>
      <path id="DejaVuSans-45" d="M 628 4666 
L 3578 4666 
L 3578 4134 
L 1259 4134 
L 1259 2753 
L 3481 2753 
L 3481 2222 
L 1259 2222 
L 1259 531 
L 3634 531 
L 3634 0 
L 628 0 
L 628 4666 
z
" transform="scale(0.015625)"/>
     </defs>
     <use xlink:href="#DejaVuSans-56"/>
     <use xlink:href="#DejaVuSans-41" x="62.033203"/>
     <use xlink:href="#DejaVuSans-45" x="130.441406"/>
    </g>
   </g>
  </g>
  <g id="axes_4">
   <g id="patch_17">
    <path d="M 250.376727 307.872 
L 412.704 307.872 
L 412.704 196.992 
L 250.376727 196.992 
z
" style="fill: #ffffff"/>
   </g>
   <g id="matplotlib.axis_7">
    <g id="xtick_16">
     <g id="line2d_33">
      <g>
       <use xlink:href="#mc4ed2e3656" x="257.75524" y="307.872" style="stroke: #000000; stroke-width: 0.8"/>
      </g>
     </g>
     <g id="text_33">
      <!-- 0 -->
      <g transform="translate(254.57399 322.470437) scale(0.1 -0.1)">
       <use xlink:href="#DejaVuSans-30"/>
      </g>
     </g>
    </g>
    <g id="xtick_17">
     <g id="line2d_34">
      <g>
       <use xlink:href="#mc4ed2e3656" x="296.386195" y="307.872" style="stroke: #000000; stroke-width: 0.8"/>
      </g>
     </g>
     <g id="text_34">
      <!-- 50 -->
      <g transform="translate(290.023695 322.470437) scale(0.1 -0.1)">
       <use xlink:href="#DejaVuSans-35"/>
       <use xlink:href="#DejaVuSans-30" x="63.623047"/>
      </g>
     </g>
    </g>
    <g id="xtick_18">
     <g id="line2d_35">
      <g>
       <use xlink:href="#mc4ed2e3656" x="335.01715" y="307.872" style="stroke: #000000; stroke-width: 0.8"/>
      </g>
     </g>
     <g id="text_35">
      <!-- 100 -->
      <g transform="translate(325.4734 322.470437) scale(0.1 -0.1)">
       <use xlink:href="#DejaVuSans-31"/>
       <use xlink:href="#DejaVuSans-30" x="63.623047"/>
       <use xlink:href="#DejaVuSans-30" x="127.246094"/>
      </g>
     </g>
    </g>
    <g id="xtick_19">
     <g id="line2d_36">
      <g>
       <use xlink:href="#mc4ed2e3656" x="373.648105" y="307.872" style="stroke: #000000; stroke-width: 0.8"/>
      </g>
     </g>
     <g id="text_36">
      <!-- 150 -->
      <g transform="translate(364.104355 322.470437) scale(0.1 -0.1)">
       <use xlink:href="#DejaVuSans-31"/>
       <use xlink:href="#DejaVuSans-35" x="63.623047"/>
       <use xlink:href="#DejaVuSans-30" x="127.246094"/>
      </g>
     </g>
    </g>
    <g id="xtick_20">
     <g id="line2d_37">
      <g>
       <use xlink:href="#mc4ed2e3656" x="412.279059" y="307.872" style="stroke: #000000; stroke-width: 0.8"/>
      </g>
     </g>
     <g id="text_37">
      <!-- 200 -->
      <g transform="translate(402.735309 322.470437) scale(0.1 -0.1)">
       <use xlink:href="#DejaVuSans-32"/>
       <use xlink:href="#DejaVuSans-30" x="63.623047"/>
       <use xlink:href="#DejaVuSans-30" x="127.246094"/>
      </g>
     </g>
    </g>
   </g>
   <g id="matplotlib.axis_8">
    <g id="ytick_15">
     <g id="line2d_38">
      <g>
       <use xlink:href="#m199f4543a2" x="250.376727" y="282.233717" style="stroke: #000000; stroke-width: 0.8"/>
      </g>
     </g>
     <g id="text_38">
      <!-- 10 -->
      <g transform="translate(230.651727 286.032936) scale(0.1 -0.1)">
       <use xlink:href="#DejaVuSans-31"/>
       <use xlink:href="#DejaVuSans-30" x="63.623047"/>
      </g>
     </g>
    </g>
    <g id="ytick_16">
     <g id="line2d_39">
      <g>
       <use xlink:href="#m199f4543a2" x="250.376727" y="256.534845" style="stroke: #000000; stroke-width: 0.8"/>
      </g>
     </g>
     <g id="text_39">
      <!-- 20 -->
      <g transform="translate(230.651727 260.334064) scale(0.1 -0.1)">
       <use xlink:href="#DejaVuSans-32"/>
       <use xlink:href="#DejaVuSans-30" x="63.623047"/>
      </g>
     </g>
    </g>
    <g id="ytick_17">
     <g id="line2d_40">
      <g>
       <use xlink:href="#m199f4543a2" x="250.376727" y="230.835974" style="stroke: #000000; stroke-width: 0.8"/>
      </g>
     </g>
     <g id="text_40">
      <!-- 30 -->
      <g transform="translate(230.651727 234.635193) scale(0.1 -0.1)">
       <use xlink:href="#DejaVuSans-33"/>
       <use xlink:href="#DejaVuSans-30" x="63.623047"/>
      </g>
     </g>
    </g>
    <g id="ytick_18">
     <g id="line2d_41">
      <g>
       <use xlink:href="#m199f4543a2" x="250.376727" y="205.137102" style="stroke: #000000; stroke-width: 0.8"/>
      </g>
     </g>
     <g id="text_41">
      <!-- 40 -->
      <g transform="translate(230.651727 208.936321) scale(0.1 -0.1)">
       <use xlink:href="#DejaVuSans-34"/>
       <use xlink:href="#DejaVuSans-30" x="63.623047"/>
      </g>
     </g>
    </g>
   </g>
   <g id="line2d_42">
    <path d="M 257.75524 202.032 
L 258.527859 209.166374 
L 259.300478 221.233164 
L 260.073097 221.135341 
L 260.845716 233.395173 
L 262.390954 262.563089 
L 263.163573 267.07292 
L 263.936192 261.836302 
L 264.708812 261.520259 
L 265.481431 268.494936 
L 266.25405 270.297498 
L 267.026669 293.000665 
L 267.799288 302.832 
L 268.571907 300.613314 
L 269.344526 296.20699 
L 271.662383 269.355195 
L 272.435003 266.008426 
L 273.207622 274.684594 
L 273.980241 260.698479 
L 274.75286 269.509239 
L 276.298098 254.383269 
L 277.070717 256.547862 
L 277.843336 261.527 
L 278.615955 262.820882 
L 279.388574 265.976896 
L 280.161194 265.315672 
L 280.933813 261.805555 
L 281.706432 264.631362 
L 282.479051 262.492309 
L 283.25167 259.89947 
L 284.024289 255.599687 
L 284.796908 255.354985 
L 285.569527 271.134323 
L 286.342146 270.144307 
L 287.114765 272.243237 
L 287.887385 269.338548 
L 288.660004 270.741639 
L 289.432623 276.291871 
L 290.205242 252.055352 
L 290.977861 250.080569 
L 291.75048 242.490448 
L 293.295718 270.705383 
L 294.068337 250.727445 
L 295.613576 230.037083 
L 296.386195 226.49573 
L 297.158814 226.040104 
L 297.931433 227.784084 
L 298.704052 230.580491 
L 299.476671 232.717699 
L 300.24929 236.062703 
L 301.021909 231.27986 
L 301.794528 238.938021 
L 302.567147 245.086324 
L 303.339767 247.485859 
L 304.112386 256.382785 
L 305.657624 238.1245 
L 306.430243 281.279562 
L 307.202862 267.209357 
L 307.975481 269.593475 
L 308.7481 269.015798 
L 309.520719 264.028238 
L 310.293338 260.160527 
L 311.065958 266.181534 
L 311.838577 258.258754 
L 312.611196 252.179018 
L 313.383815 244.875596 
L 314.156434 244.948882 
L 314.929053 247.721996 
L 315.701672 242.838655 
L 316.474291 240.446899 
L 317.24691 245.352678 
L 318.019529 246.935302 
L 318.792149 247.664664 
L 319.564768 250.902352 
L 320.337387 249.058286 
L 321.110006 255.544699 
L 321.882625 248.978388 
L 322.655244 273.144743 
L 323.427863 262.378527 
L 324.200482 254.256972 
L 324.973101 254.847201 
L 325.74572 252.542446 
L 326.518339 245.931213 
L 327.290959 247.933811 
L 328.063578 240.782362 
L 328.836197 248.209352 
L 329.608816 256.88461 
L 330.381435 270.143775 
L 331.154054 270.174799 
L 331.926673 257.745843 
L 332.699292 253.500706 
L 333.471911 257.677376 
L 334.24453 255.164913 
L 335.01715 253.160727 
L 335.789769 250.42969 
L 336.562388 253.710467 
L 337.335007 252.828166 
L 338.107626 254.022416 
L 338.880245 253.357971 
L 339.652864 252.041842 
L 340.425483 250.488047 
L 341.198102 244.946332 
L 341.970721 271.115545 
L 342.743341 251.837176 
L 343.51596 269.630422 
L 344.288579 256.811884 
L 345.061198 266.16872 
L 345.833817 244.711835 
L 346.606436 253.647608 
L 347.379055 254.197127 
L 348.924293 269.101953 
L 350.469532 265.900514 
L 351.242151 263.690036 
L 352.01477 263.345388 
L 352.787389 261.03553 
L 353.560008 260.699371 
L 354.332627 258.454029 
L 355.105246 261.778428 
L 355.877865 268.977959 
L 356.650484 272.880852 
L 357.423103 271.11914 
L 358.195723 270.988192 
L 358.968342 275.011543 
L 359.740961 281.075821 
L 360.51358 289.456891 
L 361.286199 288.057092 
L 362.058818 283.124147 
L 362.831437 287.09426 
L 363.604056 297.452992 
L 364.376675 285.837257 
L 365.149294 285.140925 
L 365.921914 284.685741 
L 366.694533 292.333715 
L 367.467152 295.454386 
L 368.239771 297.144359 
L 369.01239 283.013832 
L 369.785009 281.575063 
L 370.557628 284.500157 
L 371.330247 287.981383 
L 372.102866 290.389336 
L 372.875485 290.582245 
L 373.648105 287.772726 
L 374.420724 287.980925 
L 375.193343 293.409241 
L 375.965962 295.798237 
L 376.738581 288.428466 
L 377.5112 291.253895 
L 378.283819 290.120904 
L 379.056438 290.162636 
L 379.829057 287.072344 
L 380.601676 272.558465 
L 381.374296 279.444331 
L 382.146915 279.912998 
L 382.919534 283.587688 
L 383.692153 294.237105 
L 384.464772 290.280936 
L 385.237391 294.988668 
L 386.01001 286.332338 
L 386.782629 281.251252 
L 387.555248 282.017818 
L 388.327867 277.097127 
L 389.100487 278.207023 
L 389.873106 280.451827 
L 390.645725 277.8119 
L 391.418344 278.199791 
L 392.190963 268.56964 
L 392.963582 257.419539 
L 393.736201 269.68292 
L 394.50882 257.568647 
L 395.281439 258.465332 
L 396.054058 261.231905 
L 396.826678 273.515532 
L 397.599297 273.07577 
L 398.371916 273.07347 
L 399.144535 266.807887 
L 399.917154 269.100638 
L 400.689773 264.482705 
L 401.462392 271.091671 
L 403.00763 249.684721 
L 403.780249 246.518263 
L 404.552869 245.30402 
L 405.325488 255.377397 
L 405.325488 255.377397 
" clip-path="url(#p6e432fbb2f)" style="fill: none; stroke: #ff0000; stroke-width: 1.5; stroke-linecap: square"/>
   </g>
   <g id="patch_18">
    <path d="M 250.376727 307.872 
L 250.376727 196.992 
" style="fill: none; stroke: #000000; stroke-width: 0.8; stroke-linejoin: miter; stroke-linecap: square"/>
   </g>
   <g id="patch_19">
    <path d="M 412.704 307.872 
L 412.704 196.992 
" style="fill: none; stroke: #000000; stroke-width: 0.8; stroke-linejoin: miter; stroke-linecap: square"/>
   </g>
   <g id="patch_20">
    <path d="M 250.376727 307.872 
L 412.704 307.872 
" style="fill: none; stroke: #000000; stroke-width: 0.8; stroke-linejoin: miter; stroke-linecap: square"/>
   </g>
   <g id="patch_21">
    <path d="M 250.376727 196.992 
L 412.704 196.992 
" style="fill: none; stroke: #000000; stroke-width: 0.8; stroke-linejoin: miter; stroke-linecap: square"/>
   </g>
   <g id="text_42">
    <!-- VRNN -->
    <g transform="translate(314.289426 190.992) scale(0.12 -0.12)">
     <use xlink:href="#DejaVuSans-56"/>
     <use xlink:href="#DejaVuSans-52" x="68.408203"/>
     <use xlink:href="#DejaVuSans-4e" x="137.890625"/>
     <use xlink:href="#DejaVuSans-4e" x="212.695312"/>
    </g>
   </g>
  </g>
  <g id="text_43">
   <!-- VMAF Scores Over Frames: Video #36 -->
   <g transform="translate(114.338063 16.318125) scale(0.12 -0.12)">
    <defs>
     <path id="DejaVuSans-4d" d="M 628 4666 
L 1569 4666 
L 2759 1491 
L 3956 4666 
L 4897 4666 
L 4897 0 
L 4281 0 
L 4281 4097 
L 3078 897 
L 2444 897 
L 1241 4097 
L 1241 0 
L 628 0 
L 628 4666 
z
" transform="scale(0.015625)"/>
     <path id="DejaVuSans-73" d="M 2834 3397 
L 2834 2853 
Q 2591 2978 2328 3040 
Q 2066 3103 1784 3103 
Q 1356 3103 1142 2972 
Q 928 2841 928 2578 
Q 928 2378 1081 2264 
Q 1234 2150 1697 2047 
L 1894 2003 
Q 2506 1872 2764 1633 
Q 3022 1394 3022 966 
Q 3022 478 2636 193 
Q 2250 -91 1575 -91 
Q 1294 -91 989 -36 
Q 684 19 347 128 
L 347 722 
Q 666 556 975 473 
Q 1284 391 1588 391 
Q 1994 391 2212 530 
Q 2431 669 2431 922 
Q 2431 1156 2273 1281 
Q 2116 1406 1581 1522 
L 1381 1569 
Q 847 1681 609 1914 
Q 372 2147 372 2553 
Q 372 3047 722 3315 
Q 1072 3584 1716 3584 
Q 2034 3584 2315 3537 
Q 2597 3491 2834 3397 
z
" transform="scale(0.015625)"/>
     <path id="DejaVuSans-76" d="M 191 3500 
L 800 3500 
L 1894 563 
L 2988 3500 
L 3597 3500 
L 2284 0 
L 1503 0 
L 191 3500 
z
" transform="scale(0.015625)"/>
     <path id="DejaVuSans-61" d="M 2194 1759 
Q 1497 1759 1228 1600 
Q 959 1441 959 1056 
Q 959 750 1161 570 
Q 1363 391 1709 391 
Q 2188 391 2477 730 
Q 2766 1069 2766 1631 
L 2766 1759 
L 2194 1759 
z
M 3341 1997 
L 3341 0 
L 2766 0 
L 2766 531 
Q 2569 213 2275 61 
Q 1981 -91 1556 -91 
Q 1019 -91 701 211 
Q 384 513 384 1019 
Q 384 1609 779 1909 
Q 1175 2209 1959 2209 
L 2766 2209 
L 2766 2266 
Q 2766 2663 2505 2880 
Q 2244 3097 1772 3097 
Q 1472 3097 1187 3025 
Q 903 2953 641 2809 
L 641 3341 
Q 956 3463 1253 3523 
Q 1550 3584 1831 3584 
Q 2591 3584 2966 3190 
Q 3341 2797 3341 1997 
z
" transform="scale(0.015625)"/>
     <path id="DejaVuSans-6d" d="M 3328 2828 
Q 3544 3216 3844 3400 
Q 4144 3584 4550 3584 
Q 5097 3584 5394 3201 
Q 5691 2819 5691 2113 
L 5691 0 
L 5113 0 
L 5113 2094 
Q 5113 2597 4934 2840 
Q 4756 3084 4391 3084 
Q 3944 3084 3684 2787 
Q 3425 2491 3425 1978 
L 3425 0 
L 2847 0 
L 2847 2094 
Q 2847 2600 2669 2842 
Q 2491 3084 2119 3084 
Q 1678 3084 1418 2786 
Q 1159 2488 1159 1978 
L 1159 0 
L 581 0 
L 581 3500 
L 1159 3500 
L 1159 2956 
Q 1356 3278 1631 3431 
Q 1906 3584 2284 3584 
Q 2666 3584 2933 3390 
Q 3200 3197 3328 2828 
z
" transform="scale(0.015625)"/>
     <path id="DejaVuSans-3a" d="M 750 794 
L 1409 794 
L 1409 0 
L 750 0 
L 750 794 
z
M 750 3309 
L 1409 3309 
L 1409 2516 
L 750 2516 
L 750 3309 
z
" transform="scale(0.015625)"/>
     <path id="DejaVuSans-23" d="M 3272 2816 
L 2363 2816 
L 2100 1772 
L 3016 1772 
L 3272 2816 
z
M 2803 4594 
L 2478 3297 
L 3391 3297 
L 3719 4594 
L 4219 4594 
L 3897 3297 
L 4872 3297 
L 4872 2816 
L 3775 2816 
L 3519 1772 
L 4513 1772 
L 4513 1294 
L 3397 1294 
L 3072 0 
L 2572 0 
L 2894 1294 
L 1978 1294 
L 1656 0 
L 1153 0 
L 1478 1294 
L 494 1294 
L 494 1772 
L 1594 1772 
L 1856 2816 
L 850 2816 
L 850 3297 
L 1978 3297 
L 2297 4594 
L 2803 4594 
z
" transform="scale(0.015625)"/>
     <path id="DejaVuSans-36" d="M 2113 2584 
Q 1688 2584 1439 2293 
Q 1191 2003 1191 1497 
Q 1191 994 1439 701 
Q 1688 409 2113 409 
Q 2538 409 2786 701 
Q 3034 994 3034 1497 
Q 3034 2003 2786 2293 
Q 2538 2584 2113 2584 
z
M 3366 4563 
L 3366 3988 
Q 3128 4100 2886 4159 
Q 2644 4219 2406 4219 
Q 1781 4219 1451 3797 
Q 1122 3375 1075 2522 
Q 1259 2794 1537 2939 
Q 1816 3084 2150 3084 
Q 2853 3084 3261 2657 
Q 3669 2231 3669 1497 
Q 3669 778 3244 343 
Q 2819 -91 2113 -91 
Q 1303 -91 875 529 
Q 447 1150 447 2328 
Q 447 3434 972 4092 
Q 1497 4750 2381 4750 
Q 2619 4750 2861 4703 
Q 3103 4656 3366 4563 
z
" transform="scale(0.015625)"/>
    </defs>
    <use xlink:href="#DejaVuSans-56"/>
    <use xlink:href="#DejaVuSans-4d" x="68.408203"/>
    <use xlink:href="#DejaVuSans-41" x="154.6875"/>
    <use xlink:href="#DejaVuSans-46" x="223.095703"/>
    <use xlink:href="#DejaVuSans-20" x="280.615234"/>
    <use xlink:href="#DejaVuSans-53" x="312.402344"/>
    <use xlink:href="#DejaVuSans-63" x="375.878906"/>
    <use xlink:href="#DejaVuSans-6f" x="430.859375"/>
    <use xlink:href="#DejaVuSans-72" x="492.041016"/>
    <use xlink:href="#DejaVuSans-65" x="530.904297"/>
    <use xlink:href="#DejaVuSans-73" x="592.427734"/>
    <use xlink:href="#DejaVuSans-20" x="644.527344"/>
    <use xlink:href="#DejaVuSans-4f" x="676.314453"/>
    <use xlink:href="#DejaVuSans-76" x="755.025391"/>
    <use xlink:href="#DejaVuSans-65" x="814.205078"/>
    <use xlink:href="#DejaVuSans-72" x="875.728516"/>
    <use xlink:href="#DejaVuSans-20" x="916.841797"/>
    <use xlink:href="#DejaVuSans-46" x="948.628906"/>
    <use xlink:href="#DejaVuSans-72" x="998.898438"/>
    <use xlink:href="#DejaVuSans-61" x="1040.011719"/>
    <use xlink:href="#DejaVuSans-6d" x="1101.291016"/>
    <use xlink:href="#DejaVuSans-65" x="1198.703125"/>
    <use xlink:href="#DejaVuSans-73" x="1260.226562"/>
    <use xlink:href="#DejaVuSans-3a" x="1312.326172"/>
    <use xlink:href="#DejaVuSans-20" x="1346.017578"/>
    <use xlink:href="#DejaVuSans-56" x="1377.804688"/>
    <use xlink:href="#DejaVuSans-69" x="1443.962891"/>
    <use xlink:href="#DejaVuSans-64" x="1471.746094"/>
    <use xlink:href="#DejaVuSans-65" x="1535.222656"/>
    <use xlink:href="#DejaVuSans-6f" x="1596.746094"/>
    <use xlink:href="#DejaVuSans-20" x="1657.927734"/>
    <use xlink:href="#DejaVuSans-23" x="1689.714844"/>
    <use xlink:href="#DejaVuSans-33" x="1773.503906"/>
    <use xlink:href="#DejaVuSans-36" x="1837.126953"/>
   </g>
  </g>
  <g id="text_44">
   <!-- Video Frames -->
   <g transform="translate(187.847438 339.936375) scale(0.12 -0.12)">
    <use xlink:href="#DejaVuSans-56"/>
    <use xlink:href="#DejaVuSans-69" x="66.158203"/>
    <use xlink:href="#DejaVuSans-64" x="93.941406"/>
    <use xlink:href="#DejaVuSans-65" x="157.417969"/>
    <use xlink:href="#DejaVuSans-6f" x="218.941406"/>
    <use xlink:href="#DejaVuSans-20" x="280.123047"/>
    <use xlink:href="#DejaVuSans-46" x="311.910156"/>
    <use xlink:href="#DejaVuSans-72" x="362.179688"/>
    <use xlink:href="#DejaVuSans-61" x="403.292969"/>
    <use xlink:href="#DejaVuSans-6d" x="464.572266"/>
    <use xlink:href="#DejaVuSans-65" x="561.984375"/>
    <use xlink:href="#DejaVuSans-73" x="623.507812"/>
   </g>
  </g>
  <g id="text_45">
   <!-- Raw VMAF Scores -->
   <g transform="translate(16.318125 226.284562) rotate(-90) scale(0.12 -0.12)">
    <defs>
     <path id="DejaVuSans-77" d="M 269 3500 
L 844 3500 
L 1563 769 
L 2278 3500 
L 2956 3500 
L 3675 769 
L 4391 3500 
L 4966 3500 
L 4050 0 
L 3372 0 
L 2619 2869 
L 1863 0 
L 1184 0 
L 269 3500 
z
" transform="scale(0.015625)"/>
    </defs>
    <use xlink:href="#DejaVuSans-52"/>
    <use xlink:href="#DejaVuSans-61" x="67.232422"/>
    <use xlink:href="#DejaVuSans-77" x="128.511719"/>
    <use xlink:href="#DejaVuSans-20" x="210.298828"/>
    <use xlink:href="#DejaVuSans-56" x="242.085938"/>
    <use xlink:href="#DejaVuSans-4d" x="310.494141"/>
    <use xlink:href="#DejaVuSans-41" x="396.773438"/>
    <use xlink:href="#DejaVuSans-46" x="465.181641"/>
    <use xlink:href="#DejaVuSans-20" x="522.701172"/>
    <use xlink:href="#DejaVuSans-53" x="554.488281"/>
    <use xlink:href="#DejaVuSans-63" x="617.964844"/>
    <use xlink:href="#DejaVuSans-6f" x="672.945312"/>
    <use xlink:href="#DejaVuSans-72" x="734.126953"/>
    <use xlink:href="#DejaVuSans-65" x="772.990234"/>
    <use xlink:href="#DejaVuSans-73" x="834.513672"/>
   </g>
  </g>
 </g>
 <defs>
  <clipPath id="p24a7291881">
   <rect x="55.584" y="41.76" width="162.327273" height="110.88"/>
  </clipPath>
  <clipPath id="p51f440ff03">
   <rect x="250.376727" y="41.76" width="162.327273" height="110.88"/>
  </clipPath>
  <clipPath id="pc938b3c90c">
   <rect x="55.584" y="196.992" width="162.327273" height="110.88"/>
  </clipPath>
  <clipPath id="p6e432fbb2f">
   <rect x="250.376727" y="196.992" width="162.327273" height="110.88"/>
  </clipPath>
 </defs>
</svg>
